%TF.GenerationSoftware,KiCad,Pcbnew,9.99.0-1168-g72ed3d3f11*%
%TF.CreationDate,2025-06-21T20:29:53-04:00*%
%TF.ProjectId,encoder_board,656e636f-6465-4725-9f62-6f6172642e6b,rev?*%
%TF.SameCoordinates,Original*%
%TF.FileFunction,Copper,L2,Bot*%
%TF.FilePolarity,Positive*%
%FSLAX46Y46*%
G04 Gerber Fmt 4.6, Leading zero omitted, Abs format (unit mm)*
G04 Created by KiCad (PCBNEW 9.99.0-1168-g72ed3d3f11) date 2025-06-21 20:29:53*
%MOMM*%
%LPD*%
G01*
G04 APERTURE LIST*
G04 Aperture macros list*
%AMRoundRect*
0 Rectangle with rounded corners*
0 $1 Rounding radius*
0 $2 $3 $4 $5 $6 $7 $8 $9 X,Y pos of 4 corners*
0 Add a 4 corners polygon primitive as box body*
4,1,4,$2,$3,$4,$5,$6,$7,$8,$9,$2,$3,0*
0 Add four circle primitives for the rounded corners*
1,1,$1+$1,$2,$3*
1,1,$1+$1,$4,$5*
1,1,$1+$1,$6,$7*
1,1,$1+$1,$8,$9*
0 Add four rect primitives between the rounded corners*
20,1,$1+$1,$2,$3,$4,$5,0*
20,1,$1+$1,$4,$5,$6,$7,0*
20,1,$1+$1,$6,$7,$8,$9,0*
20,1,$1+$1,$8,$9,$2,$3,0*%
G04 Aperture macros list end*
%TA.AperFunction,ComponentPad*%
%ADD10C,3.800000*%
%TD*%
%TA.AperFunction,SMDPad,CuDef*%
%ADD11RoundRect,0.140000X-0.170000X0.140000X-0.170000X-0.140000X0.170000X-0.140000X0.170000X0.140000X0*%
%TD*%
%TA.AperFunction,SMDPad,CuDef*%
%ADD12R,2.300000X0.600000*%
%TD*%
%TA.AperFunction,SMDPad,CuDef*%
%ADD13R,2.800000X2.100000*%
%TD*%
%TA.AperFunction,ViaPad*%
%ADD14C,0.550000*%
%TD*%
%TA.AperFunction,Conductor*%
%ADD15C,0.304800*%
%TD*%
G04 APERTURE END LIST*
D10*
%TO.P,REF\u002A\u002A,1*%
%TO.N,GND*%
X85000000Y-124000000D03*
%TD*%
%TO.P,REF\u002A\u002A,1*%
%TO.N,GND*%
X135000000Y-124000000D03*
%TD*%
%TO.P,REF\u002A\u002A,1*%
%TO.N,GND*%
X135000000Y-74000000D03*
%TD*%
%TO.P,REF\u002A\u002A,1*%
%TO.N,GND*%
X85000000Y-74000000D03*
%TD*%
D11*
%TO.P,C1,1*%
%TO.N,+3V3*%
X109082200Y-96548000D03*
%TO.P,C1,2*%
%TO.N,GND*%
X109082200Y-97508000D03*
%TD*%
D12*
%TO.P,FPC1,1,1*%
%TO.N,+3V3*%
X113059900Y-95432000D03*
%TO.P,FPC1,2,2*%
X113059900Y-96432000D03*
%TO.P,FPC1,3,3*%
%TO.N,GND*%
X113059900Y-97432000D03*
%TO.P,FPC1,4,4*%
%TO.N,Net-(U1-SCL)*%
X113059900Y-98432000D03*
%TO.P,FPC1,5,5*%
%TO.N,Net-(U1-SDA)*%
X113059900Y-99432000D03*
%TO.P,FPC1,6,6*%
%TO.N,GND*%
X113059900Y-100432000D03*
D13*
%TO.P,FPC1,7,7*%
X115299900Y-103582000D03*
%TO.P,FPC1,8,8*%
X115299900Y-92282000D03*
%TD*%
D14*
%TO.N,GND*%
X109793400Y-100065600D03*
X109793400Y-100878400D03*
X110606200Y-100065600D03*
X110606200Y-100878400D03*
X108980600Y-100878400D03*
X108980600Y-100065600D03*
%TO.N,+3V3*%
X107050200Y-95531800D03*
X107050200Y-96243000D03*
X107761400Y-95531800D03*
X107761400Y-96243000D03*
%TO.N,Net-(U1-SCL)*%
X115279800Y-98135200D03*
%TO.N,Net-(U1-SDA)*%
X115279800Y-99760800D03*
%TD*%
D15*
%TO.N,Net-(U1-SCL)*%
X114983000Y-98432000D02*
X115279800Y-98135200D01*
X113059900Y-98432000D02*
X114983000Y-98432000D01*
%TO.N,Net-(U1-SDA)*%
X113059900Y-99432000D02*
X114951000Y-99432000D01*
X114951000Y-99432000D02*
X115279800Y-99760800D01*
%TD*%
%TA.AperFunction,Conductor*%
%TO.N,GND*%
G36*
X137650354Y-69770967D02*
G01*
X137796597Y-69775839D01*
X137805328Y-69776433D01*
X137946014Y-69790946D01*
X137955198Y-69792237D01*
X138091217Y-69816509D01*
X138100673Y-69818575D01*
X138210435Y-69847022D01*
X138232970Y-69852863D01*
X138242476Y-69855731D01*
X138372173Y-69900506D01*
X138381462Y-69904130D01*
X138412814Y-69917815D01*
X138509666Y-69960090D01*
X138518489Y-69964358D01*
X138646188Y-70032392D01*
X138654369Y-70037155D01*
X138715243Y-70075738D01*
X138782283Y-70118229D01*
X138789730Y-70123332D01*
X138918500Y-70218524D01*
X138925130Y-70223778D01*
X139010887Y-70296561D01*
X139055076Y-70334064D01*
X139060887Y-70339315D01*
X139192234Y-70465640D01*
X139197261Y-70470758D01*
X139266651Y-70545551D01*
X139330097Y-70613936D01*
X139334408Y-70618831D01*
X139468731Y-70779550D01*
X139472397Y-70784150D01*
X139608247Y-70963066D01*
X139611349Y-70967337D01*
X139750613Y-71167714D01*
X139752140Y-71169963D01*
X139970918Y-71499726D01*
X140099068Y-71692885D01*
X140100135Y-71694521D01*
X140397125Y-72157593D01*
X140399542Y-72161517D01*
X140641822Y-72571547D01*
X140645695Y-72578608D01*
X140834830Y-72951161D01*
X140838461Y-72958962D01*
X140909366Y-73125988D01*
X140911941Y-73132560D01*
X140971209Y-73297257D01*
X140973675Y-73304856D01*
X141020153Y-73465270D01*
X141022292Y-73473745D01*
X141056483Y-73632116D01*
X141058099Y-73641200D01*
X141080423Y-73800322D01*
X141081380Y-73809667D01*
X141091940Y-73972367D01*
X141092201Y-73981587D01*
X141090778Y-74150836D01*
X141090400Y-74159582D01*
X141076472Y-74338017D01*
X141075588Y-74346026D01*
X141048454Y-74536020D01*
X141047229Y-74543135D01*
X141006142Y-74746702D01*
X141004736Y-74752866D01*
X140949009Y-74971708D01*
X140947555Y-74976943D01*
X140877578Y-75209343D01*
X140875518Y-75215590D01*
X140684900Y-75746541D01*
X140682615Y-75752437D01*
X140428428Y-76362345D01*
X140426779Y-76366125D01*
X140106030Y-77069947D01*
X140104963Y-77072228D01*
X139716672Y-77881025D01*
X139715937Y-77882531D01*
X138732191Y-79863659D01*
X138731384Y-79865255D01*
X137958019Y-81368756D01*
X137956649Y-81371344D01*
X137166562Y-82823359D01*
X137165118Y-82825941D01*
X136351534Y-84240974D01*
X136350033Y-84243516D01*
X135504937Y-85636760D01*
X135503404Y-85639222D01*
X134615081Y-87030487D01*
X134613558Y-87032815D01*
X133663591Y-88450601D01*
X133662137Y-88452724D01*
X132618405Y-89943677D01*
X132617118Y-89945482D01*
X131412085Y-91603971D01*
X131411172Y-91605210D01*
X131122276Y-91992573D01*
X129787524Y-93782255D01*
X129787523Y-93782256D01*
X129782356Y-93789183D01*
X129781820Y-93789612D01*
X129758835Y-93820719D01*
X129758398Y-93821306D01*
X129731802Y-93856970D01*
X129730069Y-93859654D01*
X129336515Y-94392325D01*
X129336514Y-94392326D01*
X129330326Y-94400699D01*
X129328118Y-94402529D01*
X129306928Y-94432366D01*
X129306171Y-94433392D01*
X129306157Y-94433413D01*
X129284634Y-94462546D01*
X129277936Y-94473192D01*
X128930065Y-94963061D01*
X128930064Y-94963063D01*
X128923718Y-94971998D01*
X128921137Y-94974236D01*
X128900869Y-95004173D01*
X128900038Y-95005344D01*
X128900036Y-95005345D01*
X128879887Y-95033722D01*
X128879577Y-95034309D01*
X128872554Y-95045999D01*
X128649589Y-95375364D01*
X128649590Y-95375365D01*
X128643267Y-95384705D01*
X128640525Y-95387201D01*
X128621158Y-95417365D01*
X128620292Y-95418645D01*
X128620268Y-95418682D01*
X128600995Y-95447153D01*
X128600318Y-95448506D01*
X128593691Y-95460146D01*
X128393540Y-95771901D01*
X128393539Y-95771903D01*
X128387190Y-95781793D01*
X128384206Y-95784660D01*
X128365863Y-95815008D01*
X128364927Y-95816467D01*
X128346676Y-95844896D01*
X128345502Y-95847391D01*
X128339339Y-95858893D01*
X128188815Y-96107949D01*
X128188814Y-96107951D01*
X128182543Y-96118325D01*
X128179439Y-96121487D01*
X128162131Y-96152097D01*
X128161172Y-96153685D01*
X128143911Y-96182246D01*
X128142450Y-96185584D01*
X128136719Y-96197044D01*
X128000948Y-96437183D01*
X128000949Y-96437184D01*
X127994785Y-96448085D01*
X127991563Y-96451579D01*
X127975352Y-96482458D01*
X127966939Y-96497337D01*
X127958182Y-96512828D01*
X127956448Y-96517125D01*
X127951178Y-96528508D01*
X127842149Y-96736203D01*
X127842148Y-96736202D01*
X127836197Y-96747538D01*
X127832954Y-96751293D01*
X127817864Y-96782463D01*
X127816906Y-96784289D01*
X127816895Y-96784312D01*
X127801733Y-96813195D01*
X127799903Y-96818170D01*
X127795067Y-96829555D01*
X127696497Y-97033179D01*
X127690794Y-97044959D01*
X127687550Y-97048983D01*
X127673617Y-97080442D01*
X127672682Y-97082374D01*
X127672670Y-97082401D01*
X127658575Y-97111520D01*
X127656702Y-97117173D01*
X127652307Y-97128557D01*
X127569451Y-97315648D01*
X127564095Y-97327739D01*
X127560931Y-97331955D01*
X127548116Y-97363820D01*
X127547228Y-97365827D01*
X127547226Y-97365833D01*
X127534192Y-97395264D01*
X127532414Y-97401310D01*
X127528440Y-97412753D01*
X127453431Y-97599294D01*
X127453432Y-97599295D01*
X127450857Y-97605700D01*
X127448457Y-97611669D01*
X127445396Y-97616059D01*
X127433727Y-97648301D01*
X127432902Y-97650353D01*
X127420933Y-97680121D01*
X127419304Y-97686461D01*
X127415750Y-97697973D01*
X127350199Y-97879108D01*
X127345671Y-97891617D01*
X127342783Y-97896085D01*
X127332254Y-97928691D01*
X127331511Y-97930746D01*
X127331502Y-97930774D01*
X127320561Y-97961007D01*
X127319173Y-97967324D01*
X127316017Y-97978980D01*
X127255927Y-98165090D01*
X127255927Y-98165091D01*
X127251843Y-98177741D01*
X127247928Y-98184539D01*
X127239721Y-98215281D01*
X127238722Y-98218377D01*
X127238720Y-98218378D01*
X127229942Y-98245571D01*
X127228453Y-98253695D01*
X127228099Y-98253630D01*
X127226116Y-98266257D01*
X127097755Y-98747172D01*
X127097756Y-98747173D01*
X127094545Y-98759204D01*
X127090188Y-98768047D01*
X127084375Y-98797306D01*
X127083325Y-98801244D01*
X127083324Y-98801245D01*
X127083324Y-98801246D01*
X127076682Y-98826127D01*
X127075663Y-98833933D01*
X127074266Y-98848199D01*
X126969560Y-99375318D01*
X126967048Y-99387961D01*
X126963612Y-99396092D01*
X126959362Y-99426650D01*
X126958651Y-99430235D01*
X126958651Y-99430236D01*
X126953353Y-99456912D01*
X126952815Y-99465155D01*
X126952640Y-99465143D01*
X126952158Y-99478476D01*
X126868583Y-100079623D01*
X126868583Y-100079624D01*
X126867709Y-100085914D01*
X126866733Y-100092931D01*
X126864156Y-100099978D01*
X126861302Y-100131992D01*
X126860874Y-100135071D01*
X126860872Y-100135073D01*
X126856872Y-100163859D01*
X126856812Y-100172118D01*
X126856387Y-100172114D01*
X126856604Y-100184695D01*
X126792357Y-100905542D01*
X126791108Y-100919555D01*
X126789273Y-100925260D01*
X126787606Y-100958848D01*
X126787387Y-100961310D01*
X126784618Y-100992385D01*
X126784965Y-101000634D01*
X126784254Y-101000663D01*
X126784952Y-101012353D01*
X126756642Y-101583146D01*
X126738747Y-101943946D01*
X126737528Y-101948143D01*
X126736790Y-101983366D01*
X126736700Y-101985190D01*
X126735043Y-102018608D01*
X126735324Y-102022053D01*
X126735712Y-102034914D01*
X126709058Y-103309213D01*
X126709058Y-103309218D01*
X126708842Y-103319475D01*
X126708137Y-103322077D01*
X126708017Y-103358828D01*
X126707994Y-103359947D01*
X126707994Y-103360029D01*
X126707224Y-103396916D01*
X126707856Y-103408760D01*
X126699512Y-105995458D01*
X126699489Y-105997533D01*
X126680874Y-106942826D01*
X126680678Y-106947791D01*
X126625681Y-107876839D01*
X126625299Y-107881698D01*
X126533963Y-108812496D01*
X126533430Y-108817064D01*
X126404100Y-109774117D01*
X126403513Y-109778005D01*
X126228872Y-110823432D01*
X126228547Y-110825291D01*
X126130623Y-111361904D01*
X126130622Y-111361907D01*
X126129054Y-111370495D01*
X126128727Y-111371197D01*
X126121990Y-111409195D01*
X126121932Y-111409519D01*
X126121887Y-111409770D01*
X126113937Y-111453343D01*
X126113532Y-111456919D01*
X125952458Y-112365683D01*
X125952459Y-112365684D01*
X125950345Y-112377614D01*
X125948586Y-112381684D01*
X125943455Y-112416490D01*
X125943133Y-112418308D01*
X125943131Y-112418310D01*
X125943132Y-112418310D01*
X125937311Y-112451152D01*
X125937148Y-112454806D01*
X125935926Y-112467559D01*
X125882926Y-112827095D01*
X125880872Y-112841026D01*
X125878722Y-112846590D01*
X125875119Y-112880057D01*
X125874758Y-112882511D01*
X125870206Y-112913395D01*
X125870078Y-112921658D01*
X125869356Y-112921646D01*
X125869385Y-112933331D01*
X125833452Y-113267179D01*
X125833453Y-113267180D01*
X125832073Y-113280002D01*
X125829379Y-113288378D01*
X125827852Y-113319216D01*
X125827463Y-113322833D01*
X125824548Y-113349919D01*
X125824744Y-113358176D01*
X125824564Y-113358180D01*
X125825264Y-113371494D01*
X125809647Y-113687020D01*
X125809078Y-113698530D01*
X125806304Y-113710280D01*
X125807129Y-113737912D01*
X125806882Y-113742905D01*
X125805763Y-113765506D01*
X125805879Y-113766041D01*
X125808650Y-113788819D01*
X125817457Y-114083528D01*
X125817783Y-114094445D01*
X125817811Y-114095359D01*
X125816035Y-114106550D01*
X125818987Y-114134755D01*
X125819128Y-114139448D01*
X125819129Y-114139449D01*
X125819837Y-114163122D01*
X125820043Y-114164394D01*
X125824326Y-114185743D01*
X125834280Y-114280804D01*
X125834280Y-114280805D01*
X125835626Y-114293666D01*
X125834755Y-114302337D01*
X125839731Y-114332867D01*
X125840106Y-114336449D01*
X125840108Y-114336464D01*
X125842958Y-114363683D01*
X125844884Y-114371715D01*
X125844695Y-114371760D01*
X125848161Y-114384592D01*
X125862495Y-114472535D01*
X125864519Y-114484958D01*
X125864162Y-114494504D01*
X125870860Y-114523860D01*
X125871499Y-114527778D01*
X125875710Y-114553611D01*
X125878093Y-114561524D01*
X125878053Y-114561535D01*
X125882435Y-114574589D01*
X125902103Y-114660788D01*
X125902102Y-114660788D01*
X125904833Y-114672757D01*
X125905144Y-114683039D01*
X125913595Y-114711157D01*
X125914546Y-114715322D01*
X125914550Y-114715335D01*
X125920142Y-114739842D01*
X125922109Y-114745144D01*
X125928486Y-114760700D01*
X125957420Y-114856962D01*
X125958526Y-114867792D01*
X125968767Y-114894715D01*
X125970065Y-114899032D01*
X125970065Y-114899034D01*
X125977059Y-114922303D01*
X125978310Y-114925083D01*
X125987061Y-114942805D01*
X126018835Y-115026332D01*
X126018834Y-115026332D01*
X126023052Y-115037421D01*
X126025025Y-115048521D01*
X126037057Y-115074236D01*
X126038715Y-115078593D01*
X126038723Y-115078611D01*
X126046653Y-115099457D01*
X126047173Y-115100822D01*
X126047854Y-115102087D01*
X126058802Y-115120708D01*
X126059122Y-115121391D01*
X126102371Y-115213820D01*
X126105221Y-115224925D01*
X126119081Y-115249531D01*
X126121094Y-115253833D01*
X126131048Y-115275106D01*
X126131478Y-115275779D01*
X126144209Y-115294143D01*
X126195895Y-115385903D01*
X126199547Y-115396703D01*
X126215244Y-115420255D01*
X126217559Y-115424365D01*
X126217561Y-115424368D01*
X126229131Y-115444909D01*
X126229764Y-115445752D01*
X126243651Y-115462877D01*
X126303990Y-115553410D01*
X126308312Y-115563656D01*
X126325849Y-115586207D01*
X126328395Y-115590027D01*
X126328404Y-115590040D01*
X126341704Y-115609996D01*
X126343074Y-115611561D01*
X126357379Y-115626754D01*
X126419490Y-115706627D01*
X126419489Y-115706627D01*
X126426931Y-115716197D01*
X126431745Y-115725693D01*
X126451125Y-115747310D01*
X126453830Y-115750788D01*
X126453840Y-115750800D01*
X126468964Y-115770247D01*
X126471838Y-115773085D01*
X126485541Y-115785697D01*
X126556674Y-115865035D01*
X126556677Y-115865038D01*
X126562973Y-115872061D01*
X126564939Y-115874253D01*
X126570053Y-115882882D01*
X126591249Y-115903601D01*
X126594013Y-115906683D01*
X126594019Y-115906690D01*
X126611057Y-115925693D01*
X126616361Y-115930242D01*
X126628322Y-115939835D01*
X126718236Y-116027720D01*
X126723471Y-116035434D01*
X126746441Y-116055288D01*
X126768154Y-116076511D01*
X126768159Y-116076514D01*
X126774764Y-116081463D01*
X126774712Y-116081531D01*
X126785871Y-116089370D01*
X126877265Y-116168367D01*
X126887096Y-116176864D01*
X126892292Y-116183664D01*
X126916926Y-116202647D01*
X126919597Y-116204956D01*
X126919605Y-116204963D01*
X126940481Y-116223007D01*
X126940482Y-116223007D01*
X126940483Y-116223008D01*
X126947377Y-116227543D01*
X126947254Y-116227729D01*
X126958475Y-116234667D01*
X127071844Y-116322033D01*
X127076884Y-116327974D01*
X127103108Y-116346126D01*
X127105654Y-116348088D01*
X127105654Y-116348089D01*
X127114766Y-116355110D01*
X127128352Y-116365580D01*
X127128358Y-116365582D01*
X127135498Y-116369725D01*
X127135310Y-116370047D01*
X127146495Y-116376158D01*
X127261683Y-116455891D01*
X127261684Y-116455891D01*
X127272902Y-116463656D01*
X127277694Y-116468804D01*
X127305352Y-116486119D01*
X127307745Y-116487775D01*
X127307746Y-116487777D01*
X127329048Y-116502521D01*
X127332179Y-116504688D01*
X127332184Y-116504690D01*
X127339522Y-116508460D01*
X127339283Y-116508924D01*
X127350352Y-116514290D01*
X127449827Y-116576563D01*
X127478925Y-116594779D01*
X127478926Y-116594780D01*
X127490740Y-116602176D01*
X127495230Y-116606615D01*
X127524181Y-116623111D01*
X127526407Y-116624505D01*
X127552449Y-116640807D01*
X127552454Y-116640810D01*
X127552458Y-116640811D01*
X127559968Y-116644241D01*
X127559688Y-116644854D01*
X127570602Y-116649561D01*
X127728140Y-116739327D01*
X127734297Y-116744790D01*
X127762417Y-116758859D01*
X127775166Y-116766123D01*
X127789737Y-116774426D01*
X127797385Y-116777543D01*
X127797277Y-116777807D01*
X127809441Y-116782385D01*
X128250454Y-117003027D01*
X128257494Y-117008569D01*
X128285741Y-117020681D01*
X128313209Y-117034424D01*
X128313215Y-117034427D01*
X128321018Y-117037126D01*
X128320969Y-117037267D01*
X128333774Y-117041279D01*
X128461540Y-117096066D01*
X128851597Y-117263326D01*
X128857249Y-117267372D01*
X128887870Y-117278880D01*
X128890490Y-117280004D01*
X128890501Y-117280009D01*
X128912130Y-117289283D01*
X128917932Y-117291771D01*
X128917935Y-117291771D01*
X128925888Y-117294009D01*
X128925741Y-117294529D01*
X128937604Y-117297572D01*
X129700535Y-117584307D01*
X129705841Y-117587781D01*
X129737493Y-117598197D01*
X129768669Y-117609914D01*
X129768674Y-117609914D01*
X129776712Y-117611785D01*
X129776560Y-117612436D01*
X129788204Y-117614884D01*
X130563261Y-117869940D01*
X130568483Y-117873069D01*
X130600747Y-117882276D01*
X130603127Y-117883059D01*
X130603128Y-117883060D01*
X130614924Y-117886941D01*
X130632635Y-117892770D01*
X130632637Y-117892770D01*
X130640756Y-117894307D01*
X130640621Y-117895015D01*
X130652215Y-117896963D01*
X131455243Y-118126128D01*
X131460088Y-118128797D01*
X131493216Y-118136964D01*
X131526013Y-118146324D01*
X131526015Y-118146324D01*
X131533043Y-118147365D01*
X131544733Y-118149665D01*
X132408379Y-118362594D01*
X132412199Y-118364561D01*
X132446731Y-118372050D01*
X132481032Y-118380507D01*
X132481042Y-118380506D01*
X132484221Y-118380861D01*
X132496994Y-118382950D01*
X133612332Y-118624843D01*
X133612701Y-118625032D01*
X133651143Y-118633260D01*
X133689258Y-118641527D01*
X133689261Y-118641526D01*
X133696086Y-118643007D01*
X133697988Y-118643287D01*
X134442967Y-118802753D01*
X134446271Y-118803508D01*
X135154414Y-118975640D01*
X135159509Y-118976993D01*
X135475575Y-119068167D01*
X135480582Y-119069725D01*
X135776020Y-119168447D01*
X135782262Y-119170720D01*
X136054647Y-119278133D01*
X136062201Y-119281401D01*
X136311795Y-119399197D01*
X136320477Y-119403714D01*
X136548082Y-119533623D01*
X136557582Y-119539622D01*
X136764499Y-119683579D01*
X136774337Y-119691170D01*
X136962457Y-119851726D01*
X136972025Y-119860799D01*
X137127788Y-120024832D01*
X137143433Y-120041307D01*
X137152139Y-120051514D01*
X137176703Y-120083626D01*
X137308617Y-120256082D01*
X137316023Y-120266885D01*
X137458649Y-120500046D01*
X137464550Y-120510844D01*
X137593584Y-120777091D01*
X137598015Y-120787374D01*
X137717258Y-121101893D01*
X137718266Y-121104649D01*
X137970397Y-121819462D01*
X138009263Y-121929651D01*
X138009573Y-121932796D01*
X138022398Y-121966890D01*
X138022844Y-121968153D01*
X138022844Y-121968155D01*
X138034551Y-122001346D01*
X138040085Y-122013909D01*
X138250516Y-122573300D01*
X138250625Y-122573592D01*
X138503532Y-123250995D01*
X138504549Y-123253820D01*
X138609241Y-123556017D01*
X138610483Y-123559794D01*
X138698347Y-123841892D01*
X138699934Y-123847431D01*
X138768737Y-124110075D01*
X138770470Y-124117633D01*
X138818737Y-124362454D01*
X138820264Y-124372190D01*
X138847071Y-124601403D01*
X138847893Y-124613258D01*
X138852678Y-124830036D01*
X138852248Y-124843590D01*
X138834327Y-125052426D01*
X138832240Y-125066865D01*
X138790068Y-125273360D01*
X138786269Y-125287633D01*
X138716960Y-125497663D01*
X138711797Y-125510790D01*
X138611274Y-125729539D01*
X138605342Y-125740890D01*
X138469085Y-125972146D01*
X138462994Y-125981508D01*
X138286760Y-126227783D01*
X138280970Y-126235264D01*
X138061110Y-126498305D01*
X138055888Y-126504171D01*
X137814610Y-126758764D01*
X137814609Y-126758763D01*
X137808817Y-126764874D01*
X137808477Y-126765086D01*
X137781726Y-126793462D01*
X137781515Y-126793686D01*
X137781288Y-126793926D01*
X137749867Y-126827081D01*
X137748654Y-126828545D01*
X137401410Y-127196903D01*
X137401409Y-127196904D01*
X137391946Y-127206940D01*
X137386439Y-127210684D01*
X137364918Y-127235610D01*
X137363015Y-127237630D01*
X137363009Y-127237638D01*
X137342251Y-127259659D01*
X137337420Y-127266356D01*
X137336940Y-127266010D01*
X137330078Y-127275966D01*
X136868400Y-127810740D01*
X136868399Y-127810740D01*
X136861817Y-127818362D01*
X136859779Y-127819798D01*
X136836056Y-127848200D01*
X136835352Y-127849017D01*
X136835305Y-127849074D01*
X136810774Y-127877491D01*
X136804208Y-127886336D01*
X136376352Y-128398644D01*
X136375513Y-128399638D01*
X135921175Y-128932380D01*
X135918937Y-128934935D01*
X135638788Y-129246038D01*
X135635777Y-129249264D01*
X135529544Y-129359196D01*
X135358166Y-129536539D01*
X135354469Y-129540210D01*
X135164905Y-129720795D01*
X135160798Y-129724538D01*
X134973131Y-129888154D01*
X134968308Y-129892152D01*
X134816837Y-130011496D01*
X134811331Y-130015596D01*
X134662425Y-130120297D01*
X134656080Y-130124478D01*
X134531238Y-130201451D01*
X134524069Y-130205554D01*
X134402175Y-130270093D01*
X134394080Y-130274015D01*
X134290232Y-130319836D01*
X134281271Y-130323387D01*
X134180432Y-130358946D01*
X134170585Y-130361972D01*
X134083293Y-130384936D01*
X134072731Y-130387235D01*
X133987770Y-130401944D01*
X133976581Y-130403369D01*
X133900867Y-130409582D01*
X133889326Y-130409998D01*
X133814493Y-130409264D01*
X133802790Y-130408604D01*
X133732726Y-130401371D01*
X133721186Y-130399636D01*
X133650260Y-130385589D01*
X133639071Y-130382836D01*
X133568747Y-130362080D01*
X133558197Y-130358450D01*
X133493801Y-130333052D01*
X133479350Y-130326264D01*
X133317667Y-130237412D01*
X133301574Y-130226895D01*
X133188215Y-130139782D01*
X133132872Y-130097252D01*
X133120326Y-130086213D01*
X133110539Y-130076376D01*
X133013462Y-129978800D01*
X132934632Y-129899565D01*
X132925171Y-129888914D01*
X132722487Y-129632930D01*
X132715488Y-129623169D01*
X132633096Y-129495850D01*
X132496296Y-129284453D01*
X132491296Y-129276023D01*
X132476240Y-129248232D01*
X132268589Y-128864929D01*
X132266116Y-128860120D01*
X132244601Y-128815968D01*
X131767345Y-127836555D01*
X131658134Y-127612435D01*
X131657551Y-127611221D01*
X131494341Y-127266991D01*
X131493485Y-127265149D01*
X131490542Y-127258674D01*
X131490522Y-127258567D01*
X131489961Y-127257397D01*
X131489446Y-127256263D01*
X131489307Y-127255283D01*
X131482448Y-127236741D01*
X131481819Y-127235652D01*
X131471284Y-127217404D01*
X131466893Y-127209097D01*
X131466806Y-127208917D01*
X131457004Y-127188243D01*
X131456645Y-127187821D01*
X131452978Y-127180207D01*
X131452970Y-127180159D01*
X131452866Y-127179973D01*
X131278106Y-126815223D01*
X131160318Y-126569382D01*
X131155132Y-126556874D01*
X131154773Y-126555857D01*
X131154771Y-126555847D01*
X131138429Y-126523695D01*
X131122868Y-126491217D01*
X131120541Y-126488502D01*
X131014671Y-126280210D01*
X131009646Y-126268999D01*
X131007600Y-126263763D01*
X130991944Y-126235340D01*
X130989986Y-126231643D01*
X130975254Y-126202660D01*
X130972076Y-126198026D01*
X130965624Y-126187557D01*
X130866789Y-126008121D01*
X130864664Y-126001008D01*
X130847752Y-125973558D01*
X130832197Y-125945318D01*
X130832195Y-125945316D01*
X130827308Y-125938674D01*
X130827664Y-125938411D01*
X130819989Y-125928496D01*
X130778397Y-125860989D01*
X130722177Y-125769738D01*
X130718901Y-125760838D01*
X130701493Y-125736167D01*
X130685650Y-125710452D01*
X130685642Y-125710445D01*
X130680438Y-125704048D01*
X130680479Y-125704013D01*
X130671486Y-125693638D01*
X130575269Y-125557277D01*
X130575268Y-125557276D01*
X130568273Y-125547363D01*
X130563920Y-125537678D01*
X130545552Y-125515161D01*
X130543012Y-125511561D01*
X130533205Y-125497663D01*
X130528783Y-125491396D01*
X130528781Y-125491394D01*
X130525969Y-125488347D01*
X130512950Y-125475195D01*
X130502434Y-125462304D01*
X130406830Y-125345102D01*
X130399113Y-125335642D01*
X130394193Y-125326441D01*
X130374205Y-125305107D01*
X130371476Y-125301762D01*
X130371467Y-125301752D01*
X130369846Y-125299765D01*
X130355702Y-125282426D01*
X130355700Y-125282424D01*
X130355698Y-125282422D01*
X130352100Y-125279032D01*
X130338884Y-125267409D01*
X130209368Y-125129176D01*
X130204614Y-125121433D01*
X130182387Y-125100378D01*
X130161476Y-125078060D01*
X130161475Y-125078059D01*
X130155090Y-125072821D01*
X130155170Y-125072722D01*
X130144490Y-125064480D01*
X130003613Y-124931035D01*
X129993725Y-124921669D01*
X129989743Y-124915812D01*
X129965072Y-124894528D01*
X129962948Y-124892516D01*
X129962947Y-124892514D01*
X129941428Y-124872131D01*
X129941426Y-124872129D01*
X129941423Y-124872127D01*
X129934741Y-124867281D01*
X129935038Y-124866870D01*
X129924892Y-124859862D01*
X129755485Y-124713711D01*
X129745062Y-124704719D01*
X129741033Y-124699322D01*
X129715173Y-124678933D01*
X129690252Y-124657433D01*
X129690248Y-124657431D01*
X129683350Y-124652902D01*
X129683669Y-124652415D01*
X129673384Y-124645985D01*
X129130398Y-124217876D01*
X129127945Y-124214763D01*
X129099385Y-124193424D01*
X129071378Y-124171343D01*
X129071376Y-124171342D01*
X129069451Y-124170197D01*
X129058472Y-124162857D01*
X127181986Y-122760859D01*
X127180760Y-122759932D01*
X126811265Y-122476777D01*
X126809148Y-122475118D01*
X126466314Y-122200586D01*
X126463103Y-122197926D01*
X125823168Y-121649762D01*
X125818876Y-121645913D01*
X125818821Y-121645861D01*
X125233499Y-121096111D01*
X125229440Y-121092120D01*
X125208471Y-121070549D01*
X124671189Y-120517834D01*
X124667590Y-120513973D01*
X124578051Y-120413784D01*
X124098024Y-119876663D01*
X124095359Y-119873582D01*
X124093464Y-119871318D01*
X123521761Y-119188229D01*
X123427210Y-119075256D01*
X123426337Y-119074201D01*
X123231456Y-118836144D01*
X123231456Y-118836143D01*
X123226148Y-118829660D01*
X123226062Y-118829469D01*
X123201101Y-118799065D01*
X123190692Y-118786350D01*
X123171364Y-118762739D01*
X123170669Y-118761997D01*
X122786680Y-118294272D01*
X122785960Y-118292730D01*
X122761601Y-118263725D01*
X122737555Y-118234435D01*
X122737551Y-118234432D01*
X122735401Y-118231813D01*
X122730120Y-118226239D01*
X122328917Y-117748509D01*
X122328917Y-117748508D01*
X122322047Y-117740328D01*
X122320664Y-117737515D01*
X122296632Y-117710065D01*
X122273182Y-117682142D01*
X122273114Y-117682061D01*
X122263583Y-117672315D01*
X121931291Y-117292763D01*
X121818092Y-117163464D01*
X121816133Y-117159745D01*
X121792077Y-117133749D01*
X121782655Y-117122987D01*
X121768740Y-117107092D01*
X121766521Y-117105143D01*
X121757207Y-117096066D01*
X121269412Y-116568931D01*
X121269412Y-116568930D01*
X121260790Y-116559613D01*
X121258380Y-116555372D01*
X121233958Y-116530618D01*
X121210365Y-116505122D01*
X121210361Y-116505120D01*
X121210360Y-116505118D01*
X121206507Y-116501917D01*
X121197332Y-116493494D01*
X121167894Y-116463656D01*
X120936030Y-116228638D01*
X120645379Y-115934033D01*
X120645379Y-115934032D01*
X120636157Y-115924685D01*
X120633436Y-115920256D01*
X120608419Y-115896571D01*
X120584241Y-115872064D01*
X120584240Y-115872063D01*
X120584238Y-115872061D01*
X120579475Y-115868355D01*
X120570226Y-115860411D01*
X120132249Y-115445752D01*
X119930205Y-115254465D01*
X119927314Y-115250102D01*
X119901562Y-115227345D01*
X119899985Y-115225852D01*
X119876553Y-115203669D01*
X119871556Y-115200047D01*
X119862073Y-115192451D01*
X119128915Y-114544575D01*
X119125978Y-114540448D01*
X119099345Y-114518445D01*
X119080323Y-114501636D01*
X119073425Y-114495540D01*
X119068759Y-114492397D01*
X119058902Y-114485033D01*
X118227747Y-113798368D01*
X118227746Y-113798367D01*
X118220096Y-113792046D01*
X118218721Y-113790175D01*
X118189651Y-113766894D01*
X118188618Y-113766041D01*
X118159449Y-113741943D01*
X118151026Y-113735962D01*
X117770837Y-113431492D01*
X117764064Y-113426068D01*
X117763676Y-113425544D01*
X117733252Y-113401393D01*
X117702819Y-113377021D01*
X117702818Y-113377020D01*
X117697979Y-113373145D01*
X117695462Y-113371393D01*
X117210396Y-112986340D01*
X116194578Y-112179966D01*
X116194578Y-112179967D01*
X116186193Y-112173311D01*
X116184257Y-112170810D01*
X116155208Y-112148715D01*
X116126694Y-112126080D01*
X116126692Y-112126079D01*
X116126638Y-112126036D01*
X116115290Y-112118353D01*
X116103920Y-112109705D01*
X115669631Y-111779378D01*
X115504407Y-111653706D01*
X115504407Y-111653705D01*
X115494714Y-111646332D01*
X115491867Y-111642870D01*
X115463320Y-111622454D01*
X115461880Y-111621359D01*
X115461852Y-111621338D01*
X115435316Y-111601155D01*
X115435313Y-111601153D01*
X115435312Y-111601153D01*
X115431998Y-111599258D01*
X115421246Y-111592364D01*
X114866598Y-111195702D01*
X114855487Y-111187756D01*
X114850816Y-111182578D01*
X114823393Y-111164804D01*
X114821047Y-111163126D01*
X114821046Y-111163125D01*
X114796802Y-111145787D01*
X114789519Y-111141903D01*
X114789769Y-111141433D01*
X114778813Y-111135908D01*
X114580785Y-111007556D01*
X114271361Y-110807001D01*
X114271361Y-110807002D01*
X114259978Y-110799624D01*
X114254897Y-110794501D01*
X114226866Y-110778163D01*
X114210589Y-110767613D01*
X114199636Y-110760513D01*
X114192181Y-110756966D01*
X114192388Y-110756529D01*
X114181052Y-110751459D01*
X113983823Y-110636500D01*
X113971658Y-110629409D01*
X113967293Y-110625340D01*
X113937561Y-110609534D01*
X113935414Y-110608283D01*
X113935402Y-110608277D01*
X113910778Y-110593925D01*
X113908452Y-110592569D01*
X113900840Y-110589380D01*
X113901122Y-110588705D01*
X113890264Y-110584393D01*
X113691053Y-110478497D01*
X113685757Y-110473993D01*
X113656222Y-110459981D01*
X113653672Y-110458625D01*
X113653671Y-110458624D01*
X113627330Y-110444623D01*
X113619598Y-110441733D01*
X113619785Y-110441230D01*
X113608203Y-110437200D01*
X113427213Y-110351335D01*
X113427213Y-110351334D01*
X113415252Y-110345659D01*
X113408910Y-110340815D01*
X113379636Y-110328762D01*
X113376644Y-110327343D01*
X113350988Y-110315172D01*
X113343130Y-110312637D01*
X113343231Y-110312321D01*
X113330893Y-110308694D01*
X113154760Y-110236181D01*
X113154760Y-110236182D01*
X113142922Y-110231308D01*
X113135436Y-110226263D01*
X113106456Y-110216296D01*
X113102995Y-110214871D01*
X113078116Y-110204628D01*
X113070132Y-110202508D01*
X113070166Y-110202376D01*
X113057050Y-110199305D01*
X112884504Y-110139966D01*
X112872797Y-110135939D01*
X112864126Y-110130893D01*
X112835513Y-110123117D01*
X112831580Y-110121765D01*
X112831574Y-110121763D01*
X112807466Y-110113473D01*
X112807461Y-110113472D01*
X112800655Y-110112090D01*
X112785512Y-110109530D01*
X112615347Y-110063293D01*
X112615343Y-110063292D01*
X112603754Y-110060142D01*
X112593947Y-110055340D01*
X112565723Y-110049807D01*
X112561346Y-110048618D01*
X112537944Y-110042260D01*
X112535118Y-110041878D01*
X112515238Y-110039912D01*
X112346364Y-110006813D01*
X112334869Y-110004560D01*
X112324073Y-110000261D01*
X112296195Y-109996979D01*
X112291480Y-109996055D01*
X112291465Y-109996053D01*
X112268626Y-109991576D01*
X112268422Y-109991564D01*
X112245399Y-109990999D01*
X112076865Y-109971162D01*
X112076862Y-109971162D01*
X112071253Y-109970501D01*
X112065409Y-109969813D01*
X112053890Y-109966254D01*
X112026264Y-109965205D01*
X112021303Y-109964621D01*
X112021301Y-109964620D01*
X111998805Y-109961973D01*
X111998795Y-109961974D01*
X111998260Y-109962052D01*
X111975351Y-109963273D01*
X111806320Y-109956862D01*
X111806318Y-109956862D01*
X111794846Y-109956426D01*
X111782957Y-109953773D01*
X111755476Y-109954932D01*
X111750434Y-109954741D01*
X111750418Y-109954741D01*
X111727958Y-109953890D01*
X111727957Y-109953890D01*
X111727954Y-109953890D01*
X111727945Y-109953891D01*
X111727253Y-109954049D01*
X111704610Y-109957078D01*
X111534312Y-109964264D01*
X111534313Y-109964265D01*
X111522762Y-109964752D01*
X111510897Y-109963071D01*
X111483392Y-109966414D01*
X111478431Y-109966624D01*
X111455695Y-109967583D01*
X111455690Y-109967584D01*
X111455281Y-109967713D01*
X111432776Y-109972568D01*
X111260434Y-109993520D01*
X111260432Y-109993520D01*
X111248752Y-109994939D01*
X111237286Y-109994191D01*
X111209656Y-109999691D01*
X111204922Y-110000267D01*
X111204914Y-110000269D01*
X111181631Y-110003101D01*
X111181026Y-110003256D01*
X111159421Y-110009694D01*
X110984162Y-110044591D01*
X110984161Y-110044591D01*
X110972322Y-110046948D01*
X110961556Y-110047008D01*
X110933681Y-110054641D01*
X110929293Y-110055515D01*
X110929288Y-110055517D01*
X110905291Y-110060296D01*
X110901963Y-110061426D01*
X110883984Y-110068251D01*
X110704786Y-110117325D01*
X110692781Y-110120612D01*
X110682935Y-110121307D01*
X110654789Y-110131015D01*
X110650845Y-110132096D01*
X110650822Y-110132104D01*
X110626004Y-110138901D01*
X110626002Y-110138901D01*
X110626001Y-110138902D01*
X110625999Y-110138902D01*
X110618821Y-110141922D01*
X110605710Y-110147945D01*
X110421422Y-110211515D01*
X110421423Y-110211516D01*
X110409270Y-110215708D01*
X110400446Y-110216852D01*
X110371984Y-110228570D01*
X110368508Y-110229770D01*
X110368505Y-110229770D01*
X110342889Y-110238608D01*
X110342887Y-110238608D01*
X110342884Y-110238610D01*
X110342881Y-110238611D01*
X110335496Y-110242299D01*
X110335424Y-110242155D01*
X110323627Y-110248481D01*
X110132991Y-110326975D01*
X110132992Y-110326976D01*
X110120714Y-110332031D01*
X110112951Y-110333450D01*
X110084237Y-110347052D01*
X110081222Y-110348294D01*
X110081220Y-110348294D01*
X110054859Y-110359148D01*
X110047699Y-110363263D01*
X110047525Y-110362960D01*
X110036589Y-110369625D01*
X109838293Y-110463567D01*
X109838291Y-110463568D01*
X109825923Y-110469426D01*
X109819184Y-110470977D01*
X109790286Y-110486309D01*
X109787686Y-110487541D01*
X109760680Y-110500336D01*
X109753734Y-110504821D01*
X109753441Y-110504367D01*
X109743313Y-110511232D01*
X109536037Y-110621212D01*
X109536036Y-110621211D01*
X109523599Y-110627810D01*
X109517817Y-110629382D01*
X109488751Y-110646301D01*
X109486544Y-110647473D01*
X109486532Y-110647480D01*
X109466518Y-110658099D01*
X109459007Y-110662085D01*
X109452283Y-110666872D01*
X109451872Y-110666294D01*
X109442466Y-110673244D01*
X109223702Y-110800594D01*
X109212408Y-110807167D01*
X109207485Y-110808687D01*
X109178310Y-110827017D01*
X109176447Y-110828102D01*
X109176440Y-110828107D01*
X109148481Y-110844383D01*
X109143817Y-110847988D01*
X109133803Y-110854979D01*
X108901184Y-111001136D01*
X108901185Y-111001137D01*
X108890965Y-111007558D01*
X108886813Y-111008972D01*
X108857586Y-111028530D01*
X108856025Y-111029512D01*
X108855994Y-111029533D01*
X108827696Y-111047313D01*
X108824990Y-111049556D01*
X108814685Y-111057242D01*
X108567641Y-111222574D01*
X108567640Y-111222574D01*
X108556594Y-111229965D01*
X108551628Y-111231852D01*
X108523825Y-111251895D01*
X108521962Y-111253142D01*
X108521962Y-111253143D01*
X108495257Y-111271016D01*
X108490425Y-111275260D01*
X108480974Y-111282788D01*
X107862552Y-111728639D01*
X107852903Y-111735596D01*
X107848967Y-111737218D01*
X107820860Y-111758697D01*
X107819429Y-111759729D01*
X107819426Y-111759729D01*
X107792173Y-111779378D01*
X107789912Y-111781509D01*
X107780035Y-111789896D01*
X107432021Y-112055859D01*
X107432019Y-112055860D01*
X107423677Y-112062234D01*
X107420968Y-112063413D01*
X107392351Y-112086173D01*
X107391318Y-112086963D01*
X107391282Y-112086992D01*
X107362775Y-112108779D01*
X107353147Y-112117355D01*
X107049583Y-112358802D01*
X107041170Y-112365493D01*
X107038257Y-112366834D01*
X107010251Y-112390085D01*
X107009204Y-112390918D01*
X107009182Y-112390937D01*
X106981752Y-112412755D01*
X106981725Y-112412784D01*
X106971596Y-112422179D01*
X106700411Y-112647336D01*
X106700409Y-112647337D01*
X106691972Y-112654341D01*
X106688900Y-112655839D01*
X106661650Y-112679514D01*
X106660548Y-112680430D01*
X106660499Y-112680473D01*
X106633732Y-112702698D01*
X106633276Y-112703191D01*
X106623482Y-112712678D01*
X106389954Y-112915589D01*
X106379841Y-112924375D01*
X106375090Y-112926904D01*
X106350073Y-112950240D01*
X106348389Y-112951704D01*
X106348370Y-112951722D01*
X106324184Y-112972738D01*
X106319768Y-112977727D01*
X106311376Y-112986340D01*
X105840042Y-113426043D01*
X105840041Y-113426045D01*
X105830113Y-113435305D01*
X105823947Y-113438969D01*
X105801283Y-113462200D01*
X105799099Y-113464238D01*
X105777507Y-113484382D01*
X105772260Y-113490750D01*
X105771882Y-113490439D01*
X105764226Y-113500187D01*
X105342012Y-113932986D01*
X105342013Y-113932987D01*
X105334008Y-113941193D01*
X105330720Y-113943262D01*
X105306413Y-113969480D01*
X105305275Y-113970647D01*
X105305272Y-113970648D01*
X105281466Y-113995052D01*
X105280271Y-113996651D01*
X105271779Y-114006837D01*
X105042668Y-114253972D01*
X105042429Y-114254229D01*
X104714744Y-114605726D01*
X104711686Y-114608894D01*
X104377870Y-114942775D01*
X104372281Y-114948034D01*
X103987878Y-115288309D01*
X103982909Y-115292485D01*
X103763577Y-115467347D01*
X103760180Y-115469961D01*
X103509839Y-115655977D01*
X103506592Y-115658311D01*
X103222673Y-115855608D01*
X103219671Y-115857631D01*
X102897103Y-116068306D01*
X102894393Y-116070027D01*
X102528224Y-116296088D01*
X102525826Y-116297532D01*
X102112852Y-116539984D01*
X102109797Y-116541721D01*
X101114217Y-117089472D01*
X101111073Y-117091144D01*
X99862742Y-117732678D01*
X99862623Y-117732739D01*
X99467267Y-117935389D01*
X99467268Y-117935390D01*
X99457768Y-117940259D01*
X99454711Y-117940984D01*
X99422620Y-117958276D01*
X99421455Y-117958873D01*
X99421453Y-117958873D01*
X99390086Y-117974952D01*
X99378419Y-117982095D01*
X99045304Y-118161603D01*
X99045303Y-118161604D01*
X99035803Y-118166722D01*
X99032657Y-118167539D01*
X99001106Y-118185417D01*
X98999900Y-118186068D01*
X98999872Y-118186084D01*
X98969011Y-118202716D01*
X98968851Y-118202832D01*
X98957258Y-118210267D01*
X98640835Y-118389591D01*
X98640833Y-118389592D01*
X98631343Y-118394969D01*
X98628110Y-118395885D01*
X98596987Y-118414438D01*
X98595734Y-118415149D01*
X98595716Y-118415160D01*
X98565428Y-118432325D01*
X98565039Y-118432619D01*
X98553675Y-118440260D01*
X98256356Y-118617513D01*
X98256357Y-118617514D01*
X98246901Y-118623150D01*
X98243593Y-118624170D01*
X98213001Y-118643362D01*
X98211728Y-118644121D01*
X98181918Y-118661894D01*
X98181301Y-118662382D01*
X98170176Y-118670230D01*
X97886584Y-118848151D01*
X97886582Y-118848152D01*
X97877171Y-118854057D01*
X97873793Y-118855184D01*
X97843745Y-118875026D01*
X97842479Y-118875821D01*
X97842478Y-118875822D01*
X97813163Y-118894215D01*
X97812341Y-118894896D01*
X97801469Y-118902946D01*
X97536019Y-119078253D01*
X97536018Y-119078252D01*
X97524708Y-119085721D01*
X97519576Y-119087641D01*
X97491801Y-119107454D01*
X97489899Y-119108711D01*
X97489875Y-119108728D01*
X97463272Y-119126297D01*
X97457987Y-119130883D01*
X97448604Y-119138273D01*
X96876903Y-119546139D01*
X96876901Y-119546140D01*
X96865997Y-119553918D01*
X96859008Y-119556939D01*
X96833899Y-119576816D01*
X96831316Y-119578660D01*
X96831317Y-119578660D01*
X96807792Y-119595445D01*
X96801756Y-119601075D01*
X96801481Y-119600781D01*
X96792450Y-119609634D01*
X96334020Y-119972590D01*
X96268036Y-120024832D01*
X96268035Y-120024832D01*
X96257605Y-120033089D01*
X96250593Y-120036558D01*
X96226687Y-120057567D01*
X96224141Y-120059584D01*
X96201714Y-120077342D01*
X96195963Y-120083270D01*
X96195703Y-120083018D01*
X96187050Y-120092405D01*
X95702455Y-120518331D01*
X95692470Y-120527107D01*
X95685616Y-120530949D01*
X95662845Y-120553145D01*
X95660415Y-120555282D01*
X95660403Y-120555292D01*
X95638948Y-120574151D01*
X95638947Y-120574152D01*
X95638944Y-120574155D01*
X95633509Y-120580366D01*
X95633242Y-120580132D01*
X95625072Y-120589966D01*
X95210262Y-120994332D01*
X95160334Y-121043003D01*
X95153876Y-121047060D01*
X95132077Y-121070547D01*
X95129822Y-121072746D01*
X95129819Y-121072747D01*
X95109140Y-121092907D01*
X95104030Y-121099394D01*
X95103715Y-121099145D01*
X95096134Y-121109275D01*
X94656552Y-121582927D01*
X94656553Y-121582928D01*
X94647251Y-121592951D01*
X94641558Y-121596901D01*
X94620431Y-121621849D01*
X94618473Y-121623960D01*
X94618470Y-121623964D01*
X94598152Y-121645858D01*
X94593374Y-121652591D01*
X94592935Y-121652279D01*
X94586069Y-121662430D01*
X94137919Y-122191684D01*
X94137918Y-122191683D01*
X94129115Y-122202078D01*
X94124687Y-122205396D01*
X94103622Y-122232187D01*
X94102127Y-122233953D01*
X94102123Y-122233959D01*
X94081571Y-122258231D01*
X94077697Y-122264252D01*
X94070791Y-122273945D01*
X93443868Y-123071335D01*
X93443867Y-123071336D01*
X93438734Y-123077863D01*
X93438557Y-123077998D01*
X93414601Y-123108558D01*
X93414374Y-123108847D01*
X93414254Y-123109001D01*
X93414145Y-123109139D01*
X93385325Y-123145796D01*
X93384725Y-123146674D01*
X92836808Y-123845683D01*
X92834569Y-123848457D01*
X92547268Y-124194365D01*
X92544484Y-124197604D01*
X92248221Y-124530653D01*
X92244414Y-124534746D01*
X91933966Y-124854025D01*
X91929152Y-124858719D01*
X91598264Y-125164546D01*
X91592531Y-125169532D01*
X91234710Y-125462304D01*
X91228229Y-125467266D01*
X90863707Y-125728025D01*
X90863705Y-125728026D01*
X90856367Y-125733276D01*
X90855245Y-125733708D01*
X90824297Y-125756215D01*
X90823834Y-125756547D01*
X90823813Y-125756563D01*
X90789166Y-125781348D01*
X90784916Y-125784857D01*
X90479163Y-126007232D01*
X90479161Y-126007233D01*
X90469640Y-126014157D01*
X90459263Y-126019075D01*
X90437782Y-126037326D01*
X90433937Y-126040123D01*
X90433924Y-126040134D01*
X90414951Y-126053934D01*
X90414468Y-126054393D01*
X90398760Y-126070483D01*
X90074542Y-126345978D01*
X90065142Y-126353964D01*
X90056296Y-126358904D01*
X90035107Y-126379486D01*
X90031905Y-126382208D01*
X90012579Y-126398630D01*
X90008262Y-126403401D01*
X89997966Y-126415566D01*
X89653253Y-126750436D01*
X89643907Y-126759516D01*
X89636749Y-126764052D01*
X89615606Y-126787007D01*
X89613092Y-126789451D01*
X89613089Y-126789452D01*
X89593228Y-126808747D01*
X89588109Y-126815223D01*
X89587921Y-126815074D01*
X89580062Y-126825601D01*
X89196576Y-127242007D01*
X89196575Y-127242008D01*
X89187074Y-127252323D01*
X89182045Y-127255801D01*
X89160382Y-127281305D01*
X89158661Y-127283175D01*
X89158652Y-127283186D01*
X89137631Y-127306013D01*
X89132880Y-127312762D01*
X89132314Y-127312364D01*
X89125717Y-127322121D01*
X88678227Y-127849017D01*
X88642449Y-127891144D01*
X88640893Y-127892249D01*
X88616843Y-127921293D01*
X88616366Y-127921855D01*
X88616362Y-127921857D01*
X88590606Y-127952185D01*
X88585546Y-127959089D01*
X88472946Y-128095076D01*
X88472298Y-128095852D01*
X87895830Y-128780783D01*
X87893027Y-128784001D01*
X87615282Y-129092184D01*
X87611514Y-129096185D01*
X87336788Y-129375501D01*
X87331076Y-129380956D01*
X87059632Y-129624358D01*
X87051351Y-129631171D01*
X86777731Y-129837395D01*
X86769443Y-129843136D01*
X86640853Y-129924801D01*
X86634108Y-129928796D01*
X86501786Y-130001701D01*
X86494024Y-130005634D01*
X86363554Y-130066170D01*
X86362257Y-130066772D01*
X86353449Y-130070460D01*
X86221822Y-130119796D01*
X86212035Y-130123014D01*
X86079930Y-130160547D01*
X86069305Y-130163074D01*
X85935744Y-130188777D01*
X85924519Y-130190417D01*
X85788293Y-130204093D01*
X85776771Y-130204719D01*
X85636432Y-130205904D01*
X85624954Y-130205477D01*
X85479068Y-130193378D01*
X85467966Y-130191958D01*
X85315165Y-130165477D01*
X85304708Y-130163204D01*
X85143919Y-130121023D01*
X85134297Y-130118083D01*
X84964717Y-130058776D01*
X84956032Y-130055373D01*
X84777099Y-129977502D01*
X84769376Y-129973824D01*
X84580824Y-129876049D01*
X84574032Y-129872257D01*
X84375736Y-129753359D01*
X84369807Y-129749575D01*
X84161673Y-129608415D01*
X84156519Y-129604727D01*
X84058566Y-129530839D01*
X83938535Y-129440297D01*
X83934092Y-129436785D01*
X83706323Y-129248232D01*
X83702447Y-129244889D01*
X83464807Y-129031319D01*
X83461445Y-129028184D01*
X83208672Y-128783769D01*
X83208620Y-128783678D01*
X83208600Y-128783699D01*
X82448373Y-128047434D01*
X82439535Y-128038874D01*
X82437065Y-128035017D01*
X82411135Y-128011370D01*
X82385985Y-127987013D01*
X82385979Y-127987009D01*
X82382710Y-127984583D01*
X82372915Y-127976514D01*
X81593416Y-127265656D01*
X81591622Y-127262980D01*
X81564220Y-127239030D01*
X81563221Y-127238119D01*
X81563221Y-127238118D01*
X81537335Y-127214513D01*
X81537259Y-127214460D01*
X81526376Y-127205954D01*
X80737055Y-126516085D01*
X80737066Y-126516072D01*
X80736885Y-126515936D01*
X79991587Y-125862193D01*
X79988913Y-125859780D01*
X79685065Y-125577490D01*
X79681371Y-125573914D01*
X79425367Y-125315831D01*
X79419877Y-125309931D01*
X79215232Y-125075282D01*
X79207828Y-125065933D01*
X79206785Y-125064480D01*
X79051352Y-124847896D01*
X79044843Y-124837849D01*
X79041823Y-124832662D01*
X78991394Y-124746061D01*
X78986872Y-124737561D01*
X78942618Y-124646102D01*
X78938302Y-124636096D01*
X78905427Y-124549742D01*
X78901671Y-124538243D01*
X78879090Y-124455899D01*
X78876304Y-124443206D01*
X78862989Y-124362976D01*
X78861500Y-124349604D01*
X78856879Y-124269094D01*
X78856830Y-124255610D01*
X78861003Y-124172121D01*
X78862326Y-124159164D01*
X78876102Y-124070201D01*
X78878553Y-124058242D01*
X78888827Y-124018115D01*
X78903228Y-123961866D01*
X78906450Y-123951252D01*
X78943497Y-123846163D01*
X78947137Y-123837003D01*
X78997918Y-123722524D01*
X79001693Y-123714751D01*
X79020566Y-123679052D01*
X79064666Y-123595632D01*
X79070116Y-123586316D01*
X79252525Y-123303182D01*
X79258867Y-123294224D01*
X79504147Y-122978007D01*
X79509175Y-122971932D01*
X79823279Y-122615810D01*
X79827103Y-122611667D01*
X80162564Y-122264252D01*
X80215863Y-122209054D01*
X80216075Y-122208834D01*
X80326163Y-122095375D01*
X80935395Y-121467489D01*
X80938933Y-121465242D01*
X80962914Y-121439128D01*
X80987579Y-121413709D01*
X80987581Y-121413703D01*
X80989303Y-121411390D01*
X80997611Y-121401347D01*
X81274848Y-121099466D01*
X81557674Y-120791498D01*
X81557689Y-120791512D01*
X81557746Y-120791419D01*
X81938424Y-120377639D01*
X81941862Y-120374049D01*
X82093642Y-120221832D01*
X82098600Y-120217126D01*
X82136420Y-120183133D01*
X82238691Y-120091211D01*
X82245832Y-120085254D01*
X82383715Y-119978676D01*
X82392294Y-119972602D01*
X82540916Y-119876447D01*
X82549551Y-119871338D01*
X82723050Y-119777875D01*
X82730479Y-119774185D01*
X82941624Y-119677877D01*
X82947199Y-119675496D01*
X83206530Y-119572101D01*
X83210256Y-119570684D01*
X83525593Y-119456614D01*
X83528492Y-119455606D01*
X84367412Y-119175763D01*
X84368165Y-119175515D01*
X85494839Y-118810878D01*
X85495537Y-118810840D01*
X85532428Y-118798713D01*
X85569453Y-118786731D01*
X85569456Y-118786728D01*
X85575299Y-118784838D01*
X85578315Y-118783629D01*
X87057502Y-118297415D01*
X87058818Y-118297331D01*
X87095092Y-118285060D01*
X87131420Y-118273119D01*
X87131423Y-118273116D01*
X87135609Y-118271741D01*
X87141156Y-118269476D01*
X88306129Y-117875387D01*
X88308113Y-117875234D01*
X88343617Y-117862706D01*
X88379201Y-117850669D01*
X88379204Y-117850666D01*
X88381769Y-117849799D01*
X88389952Y-117846355D01*
X89440833Y-117475554D01*
X89443260Y-117475327D01*
X89478058Y-117462419D01*
X89513146Y-117450039D01*
X89513148Y-117450037D01*
X89514683Y-117449496D01*
X89524571Y-117445166D01*
X90135811Y-117218447D01*
X90138353Y-117218166D01*
X90172858Y-117204705D01*
X90207598Y-117191820D01*
X90207598Y-117191819D01*
X90208876Y-117191346D01*
X90219125Y-117186655D01*
X90789207Y-116964269D01*
X90792065Y-116963899D01*
X90826030Y-116949905D01*
X90860238Y-116936561D01*
X90860239Y-116936559D01*
X90860857Y-116936319D01*
X90872198Y-116930883D01*
X91313393Y-116749112D01*
X91316470Y-116748649D01*
X91349912Y-116734066D01*
X91383673Y-116720157D01*
X91383675Y-116720154D01*
X91383821Y-116720095D01*
X91395904Y-116714010D01*
X91812323Y-116532430D01*
X91815657Y-116531853D01*
X91848544Y-116516636D01*
X91881752Y-116502156D01*
X91881762Y-116502147D01*
X91882190Y-116501891D01*
X91894306Y-116495461D01*
X92242260Y-116334467D01*
X92245784Y-116333771D01*
X92278133Y-116317869D01*
X92310814Y-116302748D01*
X92310822Y-116302740D01*
X92311747Y-116302156D01*
X92323561Y-116295537D01*
X92654823Y-116132700D01*
X92658539Y-116131869D01*
X92690276Y-116115272D01*
X92722415Y-116099474D01*
X92722418Y-116099471D01*
X92723870Y-116098504D01*
X92735359Y-116091696D01*
X93025077Y-115940192D01*
X93028929Y-115939225D01*
X93060084Y-115921885D01*
X93091675Y-115905366D01*
X93091685Y-115905356D01*
X93093499Y-115904082D01*
X93104685Y-115897062D01*
X93382655Y-115742363D01*
X93386631Y-115741250D01*
X93417164Y-115723157D01*
X93448187Y-115705893D01*
X93448188Y-115705891D01*
X93450356Y-115704282D01*
X93461249Y-115697036D01*
X93713052Y-115547837D01*
X93717095Y-115546583D01*
X93747034Y-115527701D01*
X93777482Y-115509661D01*
X93777490Y-115509652D01*
X93779852Y-115507798D01*
X93790471Y-115500307D01*
X94033920Y-115346779D01*
X94038015Y-115345381D01*
X94067339Y-115325704D01*
X94097189Y-115306880D01*
X94097194Y-115306874D01*
X94099710Y-115304783D01*
X94110060Y-115297037D01*
X94337540Y-115144399D01*
X94341627Y-115142872D01*
X94370323Y-115122402D01*
X94399618Y-115102746D01*
X94399621Y-115102741D01*
X94402177Y-115100492D01*
X94412273Y-115092478D01*
X94633943Y-114934360D01*
X94638010Y-114932705D01*
X94666117Y-114911410D01*
X94667579Y-114910367D01*
X94667580Y-114910367D01*
X94683468Y-114899034D01*
X94694790Y-114890958D01*
X94694798Y-114890947D01*
X94697327Y-114888590D01*
X94707174Y-114880303D01*
X94920429Y-114718740D01*
X94924418Y-114716982D01*
X94951918Y-114694882D01*
X94980024Y-114673590D01*
X94980030Y-114673581D01*
X94982428Y-114671214D01*
X94992051Y-114662631D01*
X95203232Y-114492932D01*
X95208999Y-114490095D01*
X95233991Y-114468215D01*
X95259897Y-114447398D01*
X95259900Y-114447394D01*
X95265611Y-114441422D01*
X95266079Y-114441870D01*
X95274152Y-114433054D01*
X95752155Y-114014583D01*
X95759306Y-114010574D01*
X95781846Y-113988590D01*
X95805524Y-113967862D01*
X95805530Y-113967853D01*
X95810975Y-113961656D01*
X95811196Y-113961850D01*
X95819496Y-113951870D01*
X96300977Y-113482292D01*
X96307396Y-113478261D01*
X96329227Y-113454740D01*
X96352197Y-113432339D01*
X96352200Y-113432333D01*
X96357305Y-113425851D01*
X96357630Y-113426107D01*
X96365182Y-113416003D01*
X96863225Y-112879435D01*
X96868809Y-112875571D01*
X96890070Y-112850512D01*
X96912432Y-112826422D01*
X96912434Y-112826419D01*
X96917218Y-112819679D01*
X96917686Y-112820011D01*
X96924498Y-112809937D01*
X97457317Y-112181986D01*
X97462019Y-112178457D01*
X97482851Y-112151892D01*
X97504704Y-112126139D01*
X97504704Y-112126137D01*
X97504707Y-112126135D01*
X97509180Y-112119197D01*
X97509961Y-112119700D01*
X97515933Y-112109708D01*
X98106672Y-111356450D01*
X98108977Y-111354651D01*
X98131074Y-111325335D01*
X98153699Y-111296487D01*
X98153700Y-111296484D01*
X98154055Y-111296032D01*
X98161139Y-111285448D01*
X98237177Y-111184574D01*
X98238800Y-111182471D01*
X98703146Y-110593921D01*
X98707032Y-110589234D01*
X98707493Y-110588705D01*
X99197355Y-110026044D01*
X99201232Y-110021792D01*
X99732678Y-109465322D01*
X99736257Y-109461725D01*
X100336559Y-108882346D01*
X100338821Y-108880218D01*
X100882673Y-108381606D01*
X100882974Y-108381449D01*
X100911477Y-108355198D01*
X100940740Y-108328370D01*
X100940740Y-108328368D01*
X100946056Y-108323496D01*
X100947181Y-108322316D01*
X101484742Y-107827244D01*
X101488647Y-107825051D01*
X101513791Y-107800491D01*
X101539651Y-107776676D01*
X101539656Y-107776666D01*
X101542060Y-107773789D01*
X101550736Y-107764405D01*
X101760305Y-107559713D01*
X101765325Y-107556633D01*
X101788558Y-107532118D01*
X101812700Y-107508538D01*
X101812703Y-107508533D01*
X101817805Y-107502044D01*
X101818549Y-107502629D01*
X101825414Y-107493227D01*
X102014336Y-107293883D01*
X102021310Y-107289050D01*
X102041467Y-107265256D01*
X102062926Y-107242614D01*
X102062928Y-107242611D01*
X102067777Y-107235928D01*
X102067969Y-107236067D01*
X102075395Y-107225206D01*
X102245242Y-107024723D01*
X102254077Y-107017566D01*
X102270724Y-106994644D01*
X102289037Y-106973028D01*
X102289039Y-106973022D01*
X102289041Y-106973021D01*
X102289643Y-106972086D01*
X102300838Y-106953179D01*
X102308357Y-106942826D01*
X102450206Y-106747512D01*
X102460474Y-106737447D01*
X102473359Y-106715631D01*
X102488251Y-106695128D01*
X102489620Y-106691557D01*
X102498768Y-106672613D01*
X102625682Y-106457757D01*
X102636526Y-106444406D01*
X102645720Y-106423834D01*
X102657178Y-106404437D01*
X102659276Y-106396904D01*
X102665619Y-106379311D01*
X102760992Y-106165919D01*
X102765309Y-106156260D01*
X102773260Y-106144329D01*
X102781384Y-106120294D01*
X102791743Y-106097118D01*
X102792337Y-106093399D01*
X102797390Y-106072939D01*
X102824653Y-105992291D01*
X102829676Y-105983552D01*
X102837285Y-105954924D01*
X102846766Y-105926877D01*
X102846766Y-105926866D01*
X102848075Y-105920249D01*
X102850584Y-105904888D01*
X102871231Y-105827208D01*
X102875732Y-105817990D01*
X102881358Y-105789107D01*
X102888920Y-105760658D01*
X102888920Y-105760654D01*
X102889668Y-105754886D01*
X102891249Y-105738330D01*
X102904724Y-105669155D01*
X102907074Y-105657094D01*
X102910948Y-105647582D01*
X102914615Y-105618381D01*
X102920240Y-105589507D01*
X102920240Y-105589500D01*
X102920597Y-105583698D01*
X102921058Y-105567072D01*
X102931759Y-105481874D01*
X102934942Y-105472281D01*
X102936671Y-105442760D01*
X102940359Y-105413402D01*
X102940320Y-105406827D01*
X102939701Y-105391055D01*
X102944948Y-105301505D01*
X102947430Y-105292025D01*
X102947255Y-105262141D01*
X102949004Y-105232302D01*
X102949003Y-105232295D01*
X102948412Y-105224131D01*
X102946952Y-105210223D01*
X102946401Y-105115886D01*
X102948211Y-105106698D01*
X102946171Y-105076451D01*
X102945994Y-105046131D01*
X102945994Y-105046130D01*
X102944868Y-105037953D01*
X102944943Y-105037942D01*
X102942664Y-105024464D01*
X102935947Y-104924857D01*
X102937149Y-104916101D01*
X102933293Y-104885517D01*
X102931218Y-104854738D01*
X102931216Y-104854733D01*
X102929591Y-104846641D01*
X102929759Y-104846607D01*
X102926747Y-104833588D01*
X102912974Y-104724319D01*
X102913661Y-104712182D01*
X102908044Y-104685207D01*
X102904599Y-104657877D01*
X102904347Y-104657260D01*
X102897666Y-104635373D01*
X102831382Y-104317052D01*
X102830884Y-104303060D01*
X102823352Y-104278488D01*
X102818109Y-104253308D01*
X102816626Y-104250368D01*
X102808658Y-104230550D01*
X102700637Y-103878136D01*
X102699333Y-103866555D01*
X102689081Y-103840433D01*
X102680863Y-103813622D01*
X102680861Y-103813620D01*
X102680795Y-103813476D01*
X102670405Y-103792849D01*
X102519282Y-103407786D01*
X102517618Y-103398373D01*
X102504876Y-103371080D01*
X102493869Y-103343034D01*
X102493867Y-103343031D01*
X102489874Y-103335807D01*
X102489910Y-103335786D01*
X102482867Y-103323939D01*
X102480781Y-103319471D01*
X102285249Y-102900643D01*
X102283185Y-102891967D01*
X102268566Y-102864909D01*
X102255552Y-102837033D01*
X102249814Y-102830201D01*
X102245575Y-102822355D01*
X102224452Y-102800004D01*
X102222075Y-102797173D01*
X102204663Y-102776441D01*
X102198575Y-102770868D01*
X102198680Y-102770752D01*
X102197739Y-102769940D01*
X102197641Y-102770062D01*
X102191230Y-102764848D01*
X102168171Y-102750651D01*
X102168171Y-102750650D01*
X102165020Y-102748710D01*
X102139832Y-102731090D01*
X102131448Y-102728043D01*
X102120507Y-102721307D01*
X102120506Y-102721306D01*
X100769694Y-101889675D01*
X100767139Y-101888059D01*
X99495751Y-101062616D01*
X99493071Y-101060827D01*
X99405396Y-101000663D01*
X98341600Y-100270665D01*
X98338782Y-100268674D01*
X98318904Y-100254213D01*
X97824997Y-99894899D01*
X97318084Y-99526123D01*
X97315056Y-99523850D01*
X96442081Y-98847738D01*
X96438783Y-98845094D01*
X95743327Y-98268133D01*
X95739656Y-98264967D01*
X95661131Y-98194550D01*
X95563422Y-98106930D01*
X111655400Y-98106930D01*
X111655400Y-98757063D01*
X111655401Y-98757073D01*
X111670166Y-98831301D01*
X111670165Y-98831301D01*
X111690676Y-98861996D01*
X111711892Y-98929749D01*
X111693110Y-98998216D01*
X111690677Y-99002001D01*
X111670166Y-99032697D01*
X111655400Y-99106930D01*
X111655400Y-99757063D01*
X111655401Y-99757073D01*
X111670165Y-99831300D01*
X111726416Y-99915484D01*
X111810597Y-99971733D01*
X111810599Y-99971734D01*
X111884833Y-99986500D01*
X114234966Y-99986499D01*
X114234969Y-99986498D01*
X114234973Y-99986498D01*
X114284226Y-99976701D01*
X114309201Y-99971734D01*
X114393384Y-99915484D01*
X114407139Y-99894898D01*
X114413329Y-99889724D01*
X114416680Y-99882388D01*
X114440177Y-99867286D01*
X114461615Y-99849371D01*
X114471141Y-99847387D01*
X114476406Y-99844004D01*
X114511904Y-99838900D01*
X114639892Y-99838900D01*
X114708013Y-99858902D01*
X114750462Y-99904483D01*
X114817290Y-100026788D01*
X114822896Y-100036542D01*
X114823411Y-100037395D01*
X114829486Y-100046975D01*
X114833784Y-100052353D01*
X114833413Y-100052649D01*
X114847525Y-100071078D01*
X114856094Y-100085920D01*
X114856097Y-100085924D01*
X114954672Y-100184499D01*
X114954676Y-100184502D01*
X114954679Y-100184505D01*
X114954682Y-100184506D01*
X114954685Y-100184509D01*
X115075417Y-100254213D01*
X115075421Y-100254215D01*
X115210090Y-100290300D01*
X115210093Y-100290300D01*
X115349507Y-100290300D01*
X115349510Y-100290300D01*
X115484179Y-100254215D01*
X115604921Y-100184505D01*
X115703505Y-100085921D01*
X115773215Y-99965179D01*
X115809300Y-99830510D01*
X115809300Y-99691090D01*
X115773215Y-99556421D01*
X115755723Y-99526123D01*
X115703509Y-99435685D01*
X115703506Y-99435682D01*
X115703505Y-99435679D01*
X115703502Y-99435676D01*
X115703499Y-99435672D01*
X115604927Y-99337100D01*
X115604917Y-99337092D01*
X115546274Y-99303234D01*
X115546274Y-99303235D01*
X115541053Y-99300221D01*
X115526486Y-99289840D01*
X115511018Y-99282880D01*
X115498434Y-99275614D01*
X115484178Y-99267384D01*
X115475201Y-99264979D01*
X115456116Y-99258178D01*
X115289033Y-99183002D01*
X115251637Y-99157192D01*
X115200849Y-99106404D01*
X115200839Y-99106396D01*
X115100906Y-99048700D01*
X115101742Y-99047251D01*
X115054026Y-99008805D01*
X115031600Y-98941443D01*
X115049152Y-98872650D01*
X115101110Y-98824268D01*
X115124903Y-98815230D01*
X115140058Y-98811170D01*
X115232843Y-98757601D01*
X115273615Y-98716827D01*
X115281834Y-98711449D01*
X115285549Y-98706313D01*
X115314036Y-98690377D01*
X115316739Y-98688609D01*
X115317372Y-98688360D01*
X115415859Y-98651180D01*
X115423949Y-98646597D01*
X115432284Y-98643332D01*
X115435637Y-98643036D01*
X115445645Y-98638940D01*
X115484172Y-98628617D01*
X115484172Y-98628616D01*
X115484179Y-98628615D01*
X115604921Y-98558905D01*
X115703505Y-98460321D01*
X115773215Y-98339579D01*
X115809300Y-98204910D01*
X115809300Y-98065490D01*
X115773215Y-97930821D01*
X115772003Y-97928721D01*
X115703509Y-97810085D01*
X115703506Y-97810082D01*
X115703505Y-97810079D01*
X115703502Y-97810076D01*
X115703499Y-97810072D01*
X115604927Y-97711500D01*
X115604914Y-97711490D01*
X115484182Y-97641786D01*
X115484179Y-97641785D01*
X115349510Y-97605700D01*
X115210090Y-97605700D01*
X115086461Y-97638826D01*
X115075417Y-97641786D01*
X114954685Y-97711490D01*
X114954672Y-97711500D01*
X114856100Y-97810072D01*
X114856094Y-97810080D01*
X114848233Y-97823696D01*
X114843498Y-97831263D01*
X114837193Y-97840588D01*
X114827112Y-97850931D01*
X114750568Y-97968718D01*
X114749925Y-97969670D01*
X114723433Y-97991566D01*
X114697303Y-98013977D01*
X114695973Y-98014262D01*
X114695201Y-98014901D01*
X114690219Y-98015499D01*
X114645542Y-98025100D01*
X114511904Y-98025100D01*
X114443783Y-98005098D01*
X114407139Y-97969102D01*
X114393384Y-97948516D01*
X114393383Y-97948515D01*
X114309202Y-97892266D01*
X114234967Y-97877500D01*
X111884836Y-97877500D01*
X111884826Y-97877501D01*
X111810599Y-97892265D01*
X111726415Y-97948516D01*
X111670166Y-98032697D01*
X111655400Y-98106930D01*
X95563422Y-98106930D01*
X95287174Y-97859207D01*
X95283925Y-97856188D01*
X95209202Y-97784278D01*
X95208741Y-97783832D01*
X95134340Y-97711500D01*
X94260012Y-96861480D01*
X94257661Y-96857783D01*
X94231697Y-96833952D01*
X94206422Y-96809380D01*
X94206419Y-96809378D01*
X94206418Y-96809377D01*
X94203631Y-96807300D01*
X94193716Y-96799092D01*
X94180053Y-96786552D01*
X93278903Y-95959443D01*
X93276413Y-95955768D01*
X93249799Y-95932731D01*
X93223880Y-95908941D01*
X93223878Y-95908940D01*
X93223876Y-95908938D01*
X93220884Y-95906839D01*
X93210782Y-95898956D01*
X92806610Y-95549098D01*
X92706093Y-95462089D01*
X106520700Y-95462089D01*
X106520700Y-95601510D01*
X106521021Y-95603948D01*
X106522100Y-95620400D01*
X106522100Y-96168065D01*
X106520700Y-96173290D01*
X106520700Y-96312710D01*
X106522100Y-96317934D01*
X106522100Y-96671025D01*
X106523585Y-96698733D01*
X106523587Y-96698767D01*
X106526461Y-96725496D01*
X106526466Y-96725536D01*
X106534531Y-96751293D01*
X106556723Y-96822161D01*
X106582779Y-96869878D01*
X106590752Y-96884478D01*
X106635007Y-96943594D01*
X106635017Y-96943606D01*
X106662786Y-96971375D01*
X106662794Y-96971382D01*
X106662801Y-96971389D01*
X106683460Y-96989947D01*
X106702965Y-97005666D01*
X106704205Y-97006697D01*
X106704440Y-97006856D01*
X106794152Y-97053783D01*
X106794160Y-97053787D01*
X106862281Y-97073789D01*
X106935390Y-97084300D01*
X106935393Y-97084300D01*
X114146219Y-97084300D01*
X114146223Y-97084299D01*
X114173945Y-97082814D01*
X114173959Y-97082812D01*
X114173967Y-97082812D01*
X114186086Y-97081508D01*
X114200728Y-97079935D01*
X114200736Y-97079934D01*
X114297361Y-97049677D01*
X114359673Y-97015651D01*
X114418799Y-96971389D01*
X114446589Y-96943599D01*
X114465147Y-96922940D01*
X114482050Y-96901966D01*
X114482082Y-96901926D01*
X114482085Y-96901918D01*
X114485410Y-96896828D01*
X114485678Y-96897003D01*
X114490489Y-96889363D01*
X114492310Y-96886932D01*
X114497748Y-96879391D01*
X114517040Y-96835069D01*
X114528998Y-96812200D01*
X114529773Y-96809559D01*
X114528328Y-96809135D01*
X114538158Y-96786553D01*
X114541863Y-96769519D01*
X114544077Y-96760843D01*
X114548988Y-96744121D01*
X114550127Y-96736203D01*
X114559499Y-96671016D01*
X114559500Y-96671012D01*
X114559500Y-95251381D01*
X114559499Y-95251374D01*
X114558014Y-95223655D01*
X114555135Y-95196872D01*
X114555134Y-95196864D01*
X114524877Y-95100239D01*
X114490851Y-95037927D01*
X114490102Y-95036927D01*
X114446592Y-94978805D01*
X114446582Y-94978793D01*
X114418813Y-94951024D01*
X114418794Y-94951007D01*
X114398140Y-94932453D01*
X114398137Y-94932451D01*
X114398132Y-94932446D01*
X114388494Y-94924679D01*
X114378640Y-94916738D01*
X114377394Y-94915702D01*
X114377159Y-94915543D01*
X114287447Y-94868616D01*
X114287442Y-94868614D01*
X114287440Y-94868613D01*
X114219319Y-94848611D01*
X114146210Y-94838100D01*
X106935390Y-94838100D01*
X106935374Y-94838100D01*
X106907666Y-94839585D01*
X106907632Y-94839587D01*
X106880903Y-94842461D01*
X106880863Y-94842466D01*
X106784241Y-94872722D01*
X106784240Y-94872722D01*
X106721921Y-94906752D01*
X106662805Y-94951007D01*
X106662793Y-94951017D01*
X106635021Y-94978789D01*
X106619917Y-94995601D01*
X106619880Y-94995644D01*
X106616453Y-94999460D01*
X106611289Y-95005867D01*
X106611240Y-95005926D01*
X106599548Y-95020435D01*
X106596157Y-95025609D01*
X106595907Y-95025445D01*
X106591186Y-95032935D01*
X106589252Y-95035518D01*
X106583858Y-95042998D01*
X106583857Y-95043000D01*
X106580560Y-95050572D01*
X106566436Y-95083016D01*
X106564636Y-95087152D01*
X106552635Y-95110088D01*
X106551859Y-95112728D01*
X106553316Y-95113155D01*
X106545305Y-95131559D01*
X106543443Y-95135835D01*
X106539778Y-95152681D01*
X106537877Y-95160275D01*
X106537477Y-95161685D01*
X106537461Y-95161709D01*
X106537184Y-95162652D01*
X106537160Y-95162784D01*
X106532608Y-95178289D01*
X106522100Y-95251391D01*
X106522100Y-95443198D01*
X106521022Y-95459644D01*
X106520700Y-95462089D01*
X92706093Y-95462089D01*
X92300056Y-95110616D01*
X92300054Y-95110615D01*
X92290893Y-95102685D01*
X92288301Y-95099088D01*
X92261037Y-95076840D01*
X92259638Y-95075629D01*
X92259637Y-95075627D01*
X92234430Y-95053809D01*
X92234428Y-95053807D01*
X92234425Y-95053805D01*
X92234420Y-95053803D01*
X92231379Y-95051799D01*
X92221044Y-95044207D01*
X92219562Y-95042998D01*
X91900124Y-94782339D01*
X91296406Y-94289710D01*
X91287109Y-94282124D01*
X91284476Y-94278681D01*
X91256518Y-94257161D01*
X91255102Y-94256006D01*
X91240783Y-94244322D01*
X91229168Y-94234845D01*
X91229166Y-94234844D01*
X91229165Y-94234843D01*
X91226320Y-94233085D01*
X91215706Y-94225749D01*
X90261817Y-93491545D01*
X90261816Y-93491545D01*
X90252566Y-93484425D01*
X90250011Y-93481263D01*
X90221271Y-93460337D01*
X90193090Y-93438647D01*
X90193089Y-93438646D01*
X90190886Y-93437370D01*
X90179892Y-93430210D01*
X89166732Y-92692540D01*
X89166732Y-92692541D01*
X89157861Y-92686082D01*
X89155647Y-92683465D01*
X89125915Y-92662823D01*
X89124762Y-92661983D01*
X89096663Y-92641525D01*
X89096071Y-92641203D01*
X89084456Y-92634039D01*
X87935121Y-91836086D01*
X87935120Y-91836085D01*
X87927463Y-91830769D01*
X87926438Y-91829581D01*
X87895082Y-91808287D01*
X87894510Y-91807890D01*
X87894509Y-91807889D01*
X87860733Y-91784439D01*
X87854580Y-91780782D01*
X87595115Y-91604580D01*
X87229812Y-91356503D01*
X86987920Y-91192087D01*
X86512414Y-90868883D01*
X86511409Y-90868193D01*
X85841434Y-90403268D01*
X85839295Y-90401751D01*
X85217127Y-89950533D01*
X85213764Y-89948006D01*
X84640094Y-89501996D01*
X84635501Y-89498249D01*
X84107703Y-89046519D01*
X84103553Y-89042805D01*
X83912977Y-88864514D01*
X83861320Y-88816187D01*
X83858245Y-88813211D01*
X83625884Y-88580525D01*
X83622631Y-88577144D01*
X83402142Y-88339256D01*
X83398774Y-88335472D01*
X83338560Y-88265026D01*
X83199708Y-88102578D01*
X83189985Y-88091203D01*
X83186569Y-88087029D01*
X82989272Y-87835131D01*
X82985882Y-87830597D01*
X82799880Y-87569785D01*
X82796591Y-87564938D01*
X82639451Y-87321398D01*
X82621698Y-87293884D01*
X82618582Y-87288793D01*
X82454650Y-87006138D01*
X82451763Y-87000873D01*
X82448947Y-86995435D01*
X82298645Y-86705163D01*
X82296027Y-86699799D01*
X82278116Y-86660777D01*
X82153657Y-86389616D01*
X82151338Y-86384235D01*
X82144899Y-86368286D01*
X82019683Y-86058108D01*
X82017675Y-86052789D01*
X82017378Y-86051946D01*
X81900256Y-85719201D01*
X81896824Y-85709451D01*
X81895119Y-85704251D01*
X81785080Y-85342133D01*
X81783698Y-85337222D01*
X81684612Y-84955036D01*
X81683491Y-84950334D01*
X81595521Y-84546892D01*
X81594640Y-84542468D01*
X81517936Y-84116529D01*
X81517251Y-84112315D01*
X81508651Y-84053083D01*
X81451954Y-83662581D01*
X81451462Y-83658767D01*
X81397742Y-83184193D01*
X81397384Y-83180560D01*
X81392098Y-83117565D01*
X81367524Y-82824675D01*
X81355375Y-82679879D01*
X81355139Y-82676530D01*
X81324988Y-82148745D01*
X81324850Y-82145675D01*
X81317173Y-81910791D01*
X81306671Y-81589518D01*
X81306612Y-81586727D01*
X81306351Y-81561570D01*
X81300889Y-81035920D01*
X81301016Y-81035422D01*
X81300479Y-80996484D01*
X81300073Y-80957318D01*
X81300072Y-80957315D01*
X81300003Y-80950631D01*
X81299814Y-80948203D01*
X81297556Y-80784186D01*
X81282214Y-79669786D01*
X81283139Y-79665661D01*
X81281671Y-79630304D01*
X81281184Y-79594901D01*
X81281182Y-79594896D01*
X81280750Y-79591925D01*
X81279540Y-79578983D01*
X81227536Y-78326112D01*
X81228339Y-78322005D01*
X81225899Y-78286667D01*
X81224429Y-78251242D01*
X81224427Y-78251237D01*
X81223933Y-78248396D01*
X81222363Y-78235452D01*
X81213924Y-78113217D01*
X81136805Y-76996114D01*
X81137468Y-76992174D01*
X81134085Y-76956722D01*
X81131631Y-76921168D01*
X81131628Y-76921160D01*
X81131167Y-76918882D01*
X81129230Y-76905845D01*
X81009811Y-75654212D01*
X81010303Y-75650830D01*
X81006059Y-75614885D01*
X81002621Y-75578848D01*
X81002620Y-75578844D01*
X81002479Y-75578229D01*
X81000140Y-75564752D01*
X80951626Y-75153831D01*
X80842388Y-74228555D01*
X80842580Y-74227145D01*
X80837749Y-74189263D01*
X80833278Y-74151388D01*
X80833276Y-74151385D01*
X80832794Y-74147294D01*
X80831586Y-74140933D01*
X80824744Y-74087279D01*
X80773058Y-73681937D01*
X80772982Y-73681329D01*
X80621846Y-72441756D01*
X80621470Y-72438251D01*
X80574195Y-71928851D01*
X80573815Y-71923508D01*
X80572340Y-71893941D01*
X80551975Y-71485831D01*
X80551845Y-71477037D01*
X80559369Y-71107233D01*
X80559942Y-71097540D01*
X80574451Y-70949622D01*
X80575559Y-70941233D01*
X80597725Y-70808279D01*
X80599843Y-70798159D01*
X80603380Y-70784156D01*
X80628403Y-70685063D01*
X80632025Y-70673215D01*
X80649521Y-70624650D01*
X80665857Y-70579300D01*
X80671536Y-70565990D01*
X80709562Y-70489379D01*
X80717751Y-70475263D01*
X80759634Y-70412766D01*
X80770425Y-70398870D01*
X80817450Y-70346341D01*
X80830344Y-70333857D01*
X80885753Y-70287394D01*
X80899783Y-70277191D01*
X80967992Y-70234444D01*
X80982007Y-70226852D01*
X81067380Y-70187378D01*
X81080428Y-70182208D01*
X81186209Y-70146984D01*
X81197771Y-70143739D01*
X81286533Y-70123332D01*
X81325831Y-70114297D01*
X81335705Y-70112439D01*
X81486956Y-70090206D01*
X81495213Y-70089271D01*
X81669872Y-70075328D01*
X81676678Y-70074971D01*
X81874790Y-70069994D01*
X81880420Y-70069979D01*
X82098660Y-70074260D01*
X82105174Y-70074558D01*
X82623079Y-70111808D01*
X82629195Y-70112398D01*
X83238266Y-70186405D01*
X83242207Y-70186948D01*
X83950380Y-70296398D01*
X83952530Y-70296751D01*
X84623190Y-70412766D01*
X84821523Y-70447075D01*
X84823481Y-70447430D01*
X85118182Y-70503216D01*
X85631617Y-70600408D01*
X85632933Y-70600657D01*
X85635227Y-70601112D01*
X85736453Y-70622233D01*
X86209222Y-70720874D01*
X86211724Y-70721423D01*
X86307183Y-70743374D01*
X86752089Y-70845681D01*
X86754851Y-70846349D01*
X87190638Y-70957105D01*
X87193564Y-70957887D01*
X87605390Y-71073575D01*
X87608645Y-71074539D01*
X87956155Y-71182538D01*
X87959707Y-71183699D01*
X88288490Y-71296682D01*
X88292253Y-71298044D01*
X88576622Y-71406100D01*
X88580584Y-71407683D01*
X88766773Y-71485856D01*
X88849687Y-71520668D01*
X88853882Y-71522520D01*
X89090481Y-71632249D01*
X89094800Y-71634356D01*
X89318500Y-71748875D01*
X89323041Y-71751318D01*
X89522189Y-71863827D01*
X89526787Y-71866556D01*
X89714945Y-71983809D01*
X89719665Y-71986900D01*
X89888991Y-72103295D01*
X89893739Y-72106725D01*
X90053555Y-72227894D01*
X90058284Y-72231660D01*
X90203725Y-72353344D01*
X90208351Y-72357411D01*
X90345517Y-72484109D01*
X90350000Y-72488463D01*
X90476114Y-72617204D01*
X90480443Y-72621852D01*
X90599239Y-72756029D01*
X90603335Y-72760898D01*
X90713683Y-72899053D01*
X90717487Y-72904070D01*
X90796932Y-73014545D01*
X90818093Y-73043972D01*
X90823315Y-73051840D01*
X91014116Y-73364114D01*
X91019956Y-73374801D01*
X91184952Y-73714829D01*
X91189490Y-73725382D01*
X91292824Y-73999447D01*
X91332921Y-74105792D01*
X91336244Y-74115873D01*
X91458183Y-74545914D01*
X91460453Y-74555267D01*
X91559801Y-75045635D01*
X91561218Y-75054100D01*
X91635897Y-75617595D01*
X91636663Y-75625094D01*
X91683689Y-76277797D01*
X91683986Y-76284134D01*
X91699424Y-76999756D01*
X91699447Y-77003727D01*
X91688865Y-78067437D01*
X91688862Y-78067663D01*
X91680036Y-78819291D01*
X91679909Y-78830130D01*
X91679087Y-78833325D01*
X91679444Y-78869615D01*
X91679428Y-78871031D01*
X91679018Y-78905951D01*
X91679056Y-78906263D01*
X91679940Y-78919974D01*
X91686521Y-79587202D01*
X91686521Y-79587203D01*
X91686644Y-79599791D01*
X91685595Y-79604477D01*
X91687033Y-79639258D01*
X91687053Y-79641257D01*
X91687054Y-79641261D01*
X91687379Y-79674106D01*
X91688049Y-79678833D01*
X91689187Y-79691302D01*
X91700464Y-79963878D01*
X91700970Y-79976123D01*
X91700110Y-79980585D01*
X91702599Y-80015512D01*
X91702679Y-80017432D01*
X91702680Y-80017438D01*
X91704053Y-80050625D01*
X91704738Y-80054561D01*
X91706283Y-80067198D01*
X91725059Y-80330616D01*
X91725059Y-80330617D01*
X91726037Y-80344345D01*
X91725176Y-80349905D01*
X91728840Y-80383679D01*
X91729006Y-80386004D01*
X91729008Y-80386024D01*
X91731263Y-80417649D01*
X91732760Y-80424959D01*
X91734587Y-80436644D01*
X91762327Y-80692271D01*
X91762326Y-80692271D01*
X91763810Y-80705947D01*
X91763074Y-80712657D01*
X91768065Y-80745156D01*
X91768369Y-80747954D01*
X91768371Y-80747964D01*
X91771619Y-80777889D01*
X91773574Y-80785912D01*
X91773013Y-80786048D01*
X91776149Y-80797781D01*
X91812728Y-81035920D01*
X91816597Y-81061108D01*
X91816143Y-81068987D01*
X91822583Y-81100087D01*
X91823080Y-81103321D01*
X91823082Y-81103327D01*
X91827411Y-81131513D01*
X91829721Y-81139444D01*
X91829383Y-81139542D01*
X91833280Y-81151740D01*
X91886749Y-81409929D01*
X91886763Y-81418933D01*
X91894742Y-81448533D01*
X91895502Y-81452200D01*
X91900967Y-81478587D01*
X91903685Y-81486391D01*
X91903550Y-81486437D01*
X91908349Y-81499006D01*
X91973429Y-81740424D01*
X91973429Y-81740425D01*
X91976651Y-81752379D01*
X91977328Y-81762388D01*
X91986907Y-81790426D01*
X91987988Y-81794434D01*
X91987992Y-81794446D01*
X91991241Y-81806496D01*
X91994633Y-81819076D01*
X91994635Y-81819081D01*
X91997300Y-81825486D01*
X92003667Y-81839473D01*
X92088673Y-82088251D01*
X92090192Y-82099082D01*
X92101421Y-82125560D01*
X92102886Y-82129847D01*
X92102886Y-82129849D01*
X92110721Y-82152776D01*
X92111965Y-82155286D01*
X92121502Y-82172908D01*
X92225115Y-82417220D01*
X92227606Y-82428584D01*
X92240503Y-82453505D01*
X92242385Y-82457943D01*
X92242387Y-82457946D01*
X92251466Y-82479353D01*
X92251562Y-82479516D01*
X92264006Y-82498921D01*
X92388148Y-82738793D01*
X92391663Y-82750353D01*
X92406271Y-82773811D01*
X92408572Y-82778257D01*
X92408572Y-82778260D01*
X92418961Y-82798334D01*
X92418964Y-82798337D01*
X92418966Y-82798341D01*
X92419342Y-82798753D01*
X92433190Y-82817039D01*
X92469331Y-82875077D01*
X92573717Y-83042704D01*
X92579775Y-83052433D01*
X92584262Y-83063810D01*
X92600600Y-83085874D01*
X92603285Y-83090185D01*
X92615126Y-83109200D01*
X92615129Y-83109203D01*
X92615131Y-83109206D01*
X92615696Y-83109734D01*
X92630884Y-83126770D01*
X92801795Y-83357575D01*
X92807117Y-83368449D01*
X92825250Y-83389250D01*
X92828233Y-83393279D01*
X92828236Y-83393283D01*
X92841676Y-83411433D01*
X92841677Y-83411434D01*
X92841678Y-83411435D01*
X92842146Y-83411807D01*
X92858721Y-83427648D01*
X92943172Y-83524528D01*
X93055870Y-83653811D01*
X93061816Y-83663909D01*
X93081779Y-83683533D01*
X93100166Y-83704626D01*
X93100194Y-83704645D01*
X93118205Y-83719340D01*
X93343566Y-83940875D01*
X93349891Y-83950017D01*
X93371676Y-83968508D01*
X93374959Y-83971735D01*
X93374960Y-83971736D01*
X93389767Y-83986291D01*
X93392065Y-83988550D01*
X93392072Y-83988554D01*
X93393762Y-83989828D01*
X93410830Y-84001742D01*
X93535271Y-84107366D01*
X93666424Y-84218688D01*
X93672893Y-84226797D01*
X93696485Y-84244203D01*
X93699758Y-84246981D01*
X93699761Y-84246984D01*
X93718838Y-84263177D01*
X93723295Y-84266051D01*
X93738059Y-84274877D01*
X93986675Y-84458308D01*
X94015916Y-84479883D01*
X94025998Y-84487322D01*
X94026042Y-84487354D01*
X94032452Y-84494430D01*
X94057777Y-84510769D01*
X94060958Y-84513116D01*
X94060958Y-84513117D01*
X94082029Y-84528662D01*
X94082032Y-84528664D01*
X94082034Y-84528664D01*
X94089260Y-84532657D01*
X94089238Y-84532695D01*
X94101490Y-84538970D01*
X94424104Y-84747110D01*
X94430298Y-84753209D01*
X94457255Y-84768498D01*
X94460275Y-84770446D01*
X94460277Y-84770448D01*
X94483287Y-84785293D01*
X94490754Y-84788827D01*
X94490668Y-84789007D01*
X94502822Y-84794340D01*
X94862397Y-84998273D01*
X94868263Y-85003482D01*
X94896701Y-85017728D01*
X94924394Y-85033434D01*
X94924398Y-85033435D01*
X94924400Y-85033436D01*
X94932051Y-85036537D01*
X94931915Y-85036870D01*
X94943879Y-85041362D01*
X95342790Y-85241197D01*
X95348271Y-85245629D01*
X95378082Y-85258876D01*
X95407235Y-85273481D01*
X95407237Y-85273481D01*
X95415038Y-85276184D01*
X95414867Y-85276675D01*
X95426594Y-85280434D01*
X95867255Y-85476261D01*
X95872315Y-85480018D01*
X95903332Y-85492293D01*
X95933804Y-85505835D01*
X95933806Y-85505835D01*
X95941722Y-85508174D01*
X95941530Y-85508820D01*
X95952991Y-85511947D01*
X96437807Y-85703821D01*
X96442439Y-85707002D01*
X96474498Y-85718342D01*
X96506150Y-85730869D01*
X96506159Y-85730870D01*
X96513363Y-85732679D01*
X96524701Y-85736100D01*
X97056502Y-85924213D01*
X97060720Y-85926911D01*
X97093711Y-85937375D01*
X97126373Y-85948929D01*
X97126378Y-85948929D01*
X97131681Y-85950055D01*
X97143627Y-85953208D01*
X97725426Y-86137751D01*
X97729253Y-86140044D01*
X97763063Y-86149689D01*
X97786114Y-86157001D01*
X97796585Y-86160323D01*
X97796586Y-86160323D01*
X97796592Y-86160325D01*
X97796597Y-86160325D01*
X97800253Y-86160976D01*
X97812723Y-86163857D01*
X98446681Y-86344722D01*
X98450142Y-86346675D01*
X98484648Y-86355554D01*
X98518945Y-86365339D01*
X98518952Y-86365339D01*
X98521183Y-86365670D01*
X98534123Y-86368285D01*
X99211621Y-86542622D01*
X99211620Y-86542622D01*
X99222370Y-86545388D01*
X99225497Y-86547058D01*
X99260627Y-86555233D01*
X99281464Y-86560594D01*
X99295559Y-86564222D01*
X99295561Y-86564222D01*
X99295564Y-86564223D01*
X99295566Y-86564222D01*
X99296546Y-86564342D01*
X99309921Y-86566703D01*
X100054607Y-86739994D01*
X100057427Y-86741426D01*
X100093059Y-86748942D01*
X100128587Y-86757210D01*
X100128590Y-86757209D01*
X100128651Y-86757224D01*
X100142228Y-86759313D01*
X100935333Y-86926619D01*
X100935332Y-86926619D01*
X100941847Y-86927993D01*
X100945487Y-86928761D01*
X100948034Y-86929995D01*
X100984162Y-86936919D01*
X101020140Y-86944509D01*
X101020141Y-86944508D01*
X101020882Y-86944665D01*
X101033151Y-86946308D01*
X101897122Y-87111902D01*
X101899420Y-87112969D01*
X101935930Y-87119340D01*
X101972344Y-87126320D01*
X101972344Y-87126319D01*
X101973743Y-87126588D01*
X101984829Y-87127874D01*
X102948805Y-87296107D01*
X104943502Y-87644670D01*
X105242846Y-87696979D01*
X105244780Y-87697332D01*
X105701763Y-87784557D01*
X107496847Y-88127187D01*
X107498540Y-88127523D01*
X109793405Y-88600259D01*
X109794418Y-88600473D01*
X111990388Y-89076279D01*
X113687360Y-89444091D01*
X113688583Y-89444707D01*
X113726043Y-89452475D01*
X113746980Y-89457013D01*
X113767528Y-89461468D01*
X113773704Y-89462359D01*
X114477532Y-89608330D01*
X114479174Y-89609132D01*
X114516222Y-89616354D01*
X114553218Y-89624027D01*
X114553221Y-89624026D01*
X114556236Y-89624652D01*
X114564378Y-89625741D01*
X115209491Y-89751502D01*
X115209490Y-89751502D01*
X115218228Y-89753205D01*
X115219540Y-89753461D01*
X115221962Y-89754592D01*
X115258286Y-89761014D01*
X115294575Y-89768089D01*
X115294577Y-89768088D01*
X115295650Y-89768298D01*
X115307339Y-89769687D01*
X115918516Y-89877755D01*
X115921863Y-89879221D01*
X115957426Y-89884634D01*
X115992836Y-89890896D01*
X115992843Y-89890895D01*
X115994137Y-89890953D01*
X116007545Y-89892264D01*
X116566995Y-89977432D01*
X116566994Y-89977432D01*
X116579377Y-89979317D01*
X116583792Y-89981089D01*
X116618437Y-89985263D01*
X116652902Y-89990510D01*
X116652909Y-89990509D01*
X116657514Y-89990602D01*
X116670046Y-89991480D01*
X117207016Y-90056179D01*
X117212625Y-90058180D01*
X117246207Y-90060901D01*
X117279661Y-90064932D01*
X117279663Y-90064931D01*
X117279666Y-90064932D01*
X117287925Y-90064841D01*
X117287933Y-90065598D01*
X117299611Y-90065228D01*
X117806263Y-90106284D01*
X117813157Y-90108382D01*
X117845576Y-90109470D01*
X117877941Y-90112093D01*
X117886189Y-90111680D01*
X117886213Y-90112165D01*
X117898593Y-90111250D01*
X118381813Y-90127473D01*
X118390011Y-90129479D01*
X118421246Y-90128797D01*
X118452461Y-90129845D01*
X118452469Y-90129843D01*
X118460679Y-90129042D01*
X118460703Y-90129288D01*
X118473722Y-90127651D01*
X118938190Y-90117510D01*
X118947584Y-90119194D01*
X118977621Y-90116649D01*
X119007756Y-90115992D01*
X119007762Y-90115990D01*
X119015920Y-90114735D01*
X119015926Y-90114779D01*
X119029461Y-90112258D01*
X119479645Y-90074130D01*
X119489987Y-90075262D01*
X119518936Y-90070802D01*
X119548120Y-90068331D01*
X119548125Y-90068329D01*
X119553160Y-90067228D01*
X119569983Y-90062939D01*
X120010163Y-89995135D01*
X120021075Y-89995542D01*
X120049139Y-89989131D01*
X120077578Y-89984751D01*
X120077583Y-89984748D01*
X120080389Y-89983931D01*
X120099274Y-89977679D01*
X120533532Y-89878487D01*
X120544543Y-89878101D01*
X120571975Y-89869706D01*
X120599933Y-89863321D01*
X120599935Y-89863320D01*
X120602301Y-89862441D01*
X120621112Y-89854671D01*
X121053461Y-89722378D01*
X121064097Y-89721253D01*
X121091166Y-89710841D01*
X121118896Y-89702356D01*
X121118898Y-89702355D01*
X121122389Y-89700763D01*
X121139254Y-89692343D01*
X121573747Y-89525218D01*
X121583615Y-89523513D01*
X121610553Y-89511061D01*
X121638250Y-89500408D01*
X121638256Y-89500403D01*
X121644490Y-89497013D01*
X121657589Y-89489319D01*
X122090371Y-89289276D01*
X122090592Y-89289238D01*
X122126476Y-89272587D01*
X122161993Y-89256171D01*
X122161994Y-89256169D01*
X122168874Y-89252990D01*
X122169790Y-89252490D01*
X122698330Y-89007248D01*
X122705109Y-89004343D01*
X123267975Y-88782491D01*
X123274818Y-88780019D01*
X123850718Y-88590788D01*
X123857223Y-88588845D01*
X124467653Y-88424234D01*
X124472884Y-88422944D01*
X125178361Y-88265205D01*
X125179993Y-88264853D01*
X125287732Y-88242379D01*
X125294197Y-88241437D01*
X125298194Y-88240564D01*
X125334920Y-88232542D01*
X125336009Y-88232310D01*
X125341451Y-88231174D01*
X125372815Y-88224633D01*
X125372816Y-88224632D01*
X125376830Y-88223795D01*
X125383097Y-88222020D01*
X125943604Y-88099607D01*
X125949952Y-88099640D01*
X125982153Y-88091188D01*
X126014701Y-88084080D01*
X126014703Y-88084078D01*
X126022471Y-88081279D01*
X126022697Y-88081907D01*
X126033814Y-88077628D01*
X126245733Y-88022008D01*
X126254137Y-88021587D01*
X126283887Y-88011994D01*
X126314126Y-88004058D01*
X126314128Y-88004056D01*
X126321771Y-88000937D01*
X126321866Y-88001170D01*
X126333854Y-87995883D01*
X126532015Y-87931990D01*
X126544047Y-87930419D01*
X126569537Y-87919891D01*
X126595778Y-87911431D01*
X126596303Y-87911091D01*
X126616582Y-87900462D01*
X126803917Y-87823096D01*
X126819536Y-87819348D01*
X126840337Y-87808055D01*
X126862209Y-87799023D01*
X126867132Y-87795252D01*
X126883616Y-87784560D01*
X127060548Y-87688511D01*
X127078920Y-87681488D01*
X127095163Y-87669719D01*
X127112796Y-87660148D01*
X127121020Y-87652343D01*
X127133812Y-87641719D01*
X127299310Y-87521822D01*
X127318660Y-87510961D01*
X127331206Y-87498714D01*
X127345411Y-87488424D01*
X127354816Y-87476840D01*
X127364608Y-87466111D01*
X127512085Y-87322164D01*
X127526045Y-87312097D01*
X127540276Y-87294647D01*
X127556391Y-87278919D01*
X127560391Y-87272178D01*
X127571095Y-87256860D01*
X127615788Y-87202064D01*
X127624478Y-87194753D01*
X127640703Y-87171515D01*
X127658618Y-87149551D01*
X127658620Y-87149544D01*
X127659244Y-87148536D01*
X127670045Y-87129493D01*
X127671175Y-87127875D01*
X127711003Y-87070836D01*
X127722234Y-87059128D01*
X127733558Y-87038534D01*
X127747014Y-87019264D01*
X127749206Y-87013213D01*
X127757252Y-86995444D01*
X127869995Y-86790421D01*
X127881450Y-86774968D01*
X127888978Y-86755900D01*
X127898854Y-86737942D01*
X127901410Y-86727537D01*
X127906572Y-86711341D01*
X127926537Y-86660777D01*
X128004565Y-86463155D01*
X128012747Y-86449244D01*
X128019033Y-86426513D01*
X128027696Y-86404574D01*
X128028417Y-86398289D01*
X128032152Y-86379078D01*
X128112120Y-86089927D01*
X128117767Y-86078102D01*
X128122625Y-86051946D01*
X128129718Y-86026300D01*
X128129734Y-86024285D01*
X128131849Y-86002283D01*
X128194250Y-85666321D01*
X128198097Y-85656600D01*
X128201451Y-85627550D01*
X128206791Y-85598804D01*
X128206791Y-85598801D01*
X128207050Y-85593889D01*
X128207373Y-85576259D01*
X128252312Y-85187117D01*
X128254933Y-85179277D01*
X128256837Y-85147939D01*
X128260441Y-85116733D01*
X128260439Y-85116725D01*
X128260309Y-85108473D01*
X128260587Y-85108468D01*
X128260026Y-85095447D01*
X128262567Y-85053629D01*
X128287289Y-84646799D01*
X128289091Y-84640528D01*
X128289683Y-84607406D01*
X128291693Y-84574336D01*
X128291692Y-84574330D01*
X128291114Y-84566099D01*
X128291739Y-84566055D01*
X128290636Y-84554097D01*
X128299850Y-84038987D01*
X128301268Y-84033212D01*
X128300556Y-83999504D01*
X128301159Y-83965819D01*
X128301157Y-83965813D01*
X128300227Y-83957610D01*
X128300987Y-83957523D01*
X128299425Y-83945952D01*
X128299141Y-83932514D01*
X128282882Y-83162203D01*
X128284010Y-83156760D01*
X128282049Y-83122737D01*
X128281330Y-83088657D01*
X128281330Y-83088655D01*
X128280236Y-83081516D01*
X128278991Y-83069679D01*
X128263354Y-82798334D01*
X128226176Y-82153175D01*
X128226913Y-82149052D01*
X128223903Y-82113732D01*
X128221865Y-82078361D01*
X128221863Y-82078356D01*
X128221325Y-82075534D01*
X128219547Y-82062623D01*
X128095894Y-80611491D01*
X128095916Y-80611370D01*
X128092548Y-80572227D01*
X128089187Y-80532777D01*
X128088506Y-80524781D01*
X128088415Y-80524196D01*
X127974391Y-79198758D01*
X127974193Y-79196135D01*
X127932003Y-78537009D01*
X127931831Y-78533576D01*
X127924109Y-78322005D01*
X127908475Y-77893691D01*
X127908392Y-77888885D01*
X127908407Y-77881025D01*
X127909518Y-77271499D01*
X127909690Y-77265164D01*
X127912043Y-77220131D01*
X127940833Y-76669128D01*
X127941270Y-76663337D01*
X127969212Y-76380283D01*
X127969721Y-76375919D01*
X128007277Y-76096989D01*
X128008029Y-76092126D01*
X128055472Y-75820633D01*
X128056509Y-75815370D01*
X128114417Y-75551431D01*
X128115815Y-75545706D01*
X128143021Y-75444575D01*
X128184710Y-75289603D01*
X128186520Y-75283498D01*
X128210553Y-75209343D01*
X128266953Y-75035315D01*
X128269230Y-75028889D01*
X128289239Y-74976943D01*
X128361809Y-74788544D01*
X128364590Y-74781902D01*
X128469892Y-74549454D01*
X128473228Y-74542646D01*
X128591923Y-74317986D01*
X128595825Y-74311134D01*
X128728663Y-74094099D01*
X128733132Y-74087306D01*
X128880923Y-73877773D01*
X128885916Y-73871170D01*
X129049594Y-73668963D01*
X129055074Y-73662637D01*
X129164988Y-73543945D01*
X129235672Y-73467616D01*
X129241495Y-73461730D01*
X129440126Y-73273819D01*
X129446198Y-73268436D01*
X129663949Y-73087703D01*
X129670170Y-73082862D01*
X129908243Y-72909389D01*
X129914491Y-72905121D01*
X130173911Y-72739195D01*
X130180109Y-72735479D01*
X130461962Y-72577381D01*
X130468025Y-72574195D01*
X130773372Y-72424263D01*
X130779213Y-72421579D01*
X131116582Y-72276969D01*
X131117439Y-72276607D01*
X132190409Y-71829336D01*
X132194126Y-71828745D01*
X132226888Y-71814130D01*
X132259972Y-71800339D01*
X132259980Y-71800332D01*
X132261366Y-71799529D01*
X132273291Y-71793429D01*
X133416863Y-71283293D01*
X133418424Y-71283029D01*
X133452996Y-71267175D01*
X133487681Y-71251703D01*
X133487684Y-71251699D01*
X133491074Y-71250188D01*
X133497378Y-71246822D01*
X133976936Y-71026917D01*
X135037357Y-70545514D01*
X135039469Y-70544580D01*
X135517453Y-70338884D01*
X135520436Y-70337647D01*
X135966825Y-70159448D01*
X135971371Y-70157737D01*
X136386446Y-70010722D01*
X136392980Y-70008608D01*
X136777431Y-69895802D01*
X136786369Y-69893533D01*
X137146251Y-69816129D01*
X137154727Y-69814609D01*
X137316527Y-69791296D01*
X137323159Y-69790519D01*
X137482393Y-69776152D01*
X137489747Y-69775706D01*
X137642254Y-69770959D01*
X137650354Y-69770967D01*
G37*
%TD.AperFunction*%
%TD*%
%TA.AperFunction,Conductor*%
%TO.N,+3V3*%
G36*
X114214331Y-95117602D02*
G01*
X114235305Y-95134505D01*
X114263095Y-95162295D01*
X114297121Y-95224607D01*
X114300000Y-95251390D01*
X114300000Y-96671010D01*
X114291216Y-96700925D01*
X114284588Y-96731395D01*
X114280773Y-96736490D01*
X114279998Y-96739131D01*
X114263095Y-96760105D01*
X114235305Y-96787895D01*
X114172993Y-96821921D01*
X114146210Y-96824800D01*
X106935390Y-96824800D01*
X106867269Y-96804798D01*
X106846295Y-96787895D01*
X106818505Y-96760105D01*
X106784479Y-96697793D01*
X106781600Y-96671010D01*
X106781600Y-95251390D01*
X106790383Y-95221474D01*
X106797012Y-95191005D01*
X106800826Y-95185909D01*
X106801602Y-95183269D01*
X106818505Y-95162295D01*
X106846295Y-95134505D01*
X106908607Y-95100479D01*
X106935390Y-95097600D01*
X114146210Y-95097600D01*
X114214331Y-95117602D01*
G37*
%TD.AperFunction*%
%TD*%
%TA.AperFunction,Conductor*%
%TO.N,Net-(U1-SCL)*%
G36*
X115060886Y-97988899D02*
G01*
X115060974Y-97988956D01*
X115276733Y-98132494D01*
X115281723Y-98139929D01*
X115281735Y-98139993D01*
X115331556Y-98395217D01*
X115329778Y-98403994D01*
X115324205Y-98408405D01*
X114873855Y-98578423D01*
X114864905Y-98578139D01*
X114858777Y-98571609D01*
X114858023Y-98567477D01*
X114858023Y-98283066D01*
X114859913Y-98276691D01*
X114948746Y-98139993D01*
X115044703Y-97992332D01*
X115052082Y-97987264D01*
X115060886Y-97988899D01*
G37*
%TD.AperFunction*%
%TD*%
%TA.AperFunction,Conductor*%
%TO.N,Net-(U1-SDA)*%
G36*
X114887776Y-99287023D02*
G01*
X115367166Y-99502713D01*
X115420011Y-99526490D01*
X115426149Y-99533010D01*
X115425880Y-99541961D01*
X115424958Y-99543631D01*
X115282103Y-99758836D01*
X115278836Y-99762106D01*
X115061773Y-99906511D01*
X115052986Y-99908241D01*
X115045551Y-99903251D01*
X115045025Y-99902380D01*
X114872710Y-99587022D01*
X114871277Y-99581412D01*
X114871277Y-99297694D01*
X114874704Y-99289421D01*
X114882977Y-99285994D01*
X114887776Y-99287023D01*
G37*
%TD.AperFunction*%
%TD*%
M02*
