M48
; DRILL file {KiCad 9.0.1} date 2025-05-02T15:06:35-0400
; FORMAT={-:-/ absolute / metric / decimal}
; #@! TF.CreationDate,2025-05-02T15:06:35-04:00
; #@! TF.GenerationSoftware,Kicad,Pcbnew,9.0.1
; #@! TF.FileFunction,Plated,1,6,PTH
FMAT,2
METRIC
; #@! TA.AperFunction,Plated,PTH,ViaDrill
T1C0.250
; #@! TA.AperFunction,Plated,PTH,ViaDrill
T2C0.300
; #@! TA.AperFunction,Plated,PTH,ViaDrill
T3C0.400
; #@! TA.AperFunction,Plated,PTH,ComponentDrill
T4C0.600
; #@! TA.AperFunction,Plated,PTH,ComponentDrill
T5C0.600
; #@! TA.AperFunction,Plated,PTH,ViaDrill
T6C0.700
; #@! TA.AperFunction,Plated,PTH,ComponentDrill
T7C1.200
; #@! TA.AperFunction,Plated,PTH,ComponentDrill
T8C1.500
; #@! TA.AperFunction,Plated,PTH,ComponentDrill
T9C2.200
%
G90
G05
T1
X134.023Y-105.246
X134.023Y-105.742
X135.433Y-99.771
X136.077Y-99.196
T2
X114.605Y-101.194
X114.605Y-102.006
X114.605Y-102.819
X114.605Y-103.632
X114.605Y-104.445
X114.605Y-105.258
X114.605Y-106.07
X114.605Y-106.883
X114.605Y-107.696
X115.418Y-101.194
X115.418Y-102.006
X115.418Y-102.819
X115.418Y-103.632
X115.418Y-104.445
X115.418Y-105.258
X115.418Y-106.07
X115.418Y-106.883
X115.418Y-107.696
X115.787Y-73.418
X116.226Y-89.296
X116.23Y-77.521
X116.23Y-78.13
X116.23Y-78.74
X116.23Y-79.35
X116.23Y-79.959
X116.23Y-80.67
X116.23Y-81.28
X116.23Y-81.89
X116.23Y-82.499
X116.23Y-83.109
X116.23Y-83.82
X116.23Y-84.43
X116.23Y-85.039
X116.23Y-85.649
X116.23Y-86.258
X116.23Y-86.868
X116.23Y-87.478
X116.23Y-88.087
X116.23Y-88.697
X116.23Y-89.916
X116.23Y-90.526
X116.23Y-91.135
X116.23Y-91.745
X116.23Y-92.354
X116.23Y-92.964
X116.23Y-93.574
X116.23Y-94.183
X116.23Y-94.793
X116.23Y-95.402
X116.23Y-96.012
X116.23Y-96.622
X116.23Y-97.231
X116.23Y-97.841
X116.23Y-98.45
X116.23Y-99.06
X116.23Y-101.194
X116.23Y-102.006
X116.23Y-102.819
X116.23Y-103.632
X116.23Y-104.445
X116.23Y-105.258
X116.23Y-106.07
X116.23Y-106.883
X116.23Y-107.696
X117.043Y-99.771
X117.043Y-100.381
X117.043Y-101.194
X117.043Y-102.006
X117.043Y-102.819
X117.043Y-103.632
X117.043Y-104.445
X117.043Y-105.258
X117.043Y-106.07
X117.043Y-106.883
X117.043Y-107.696
X117.043Y-108.509
X117.043Y-109.322
X117.653Y-72.339
X117.653Y-72.949
X117.653Y-73.558
X117.653Y-74.168
X117.653Y-74.778
X117.792Y-104.423
X117.83Y-105.27
X117.856Y-99.771
X117.856Y-100.381
X117.856Y-101.194
X117.856Y-102.006
X117.856Y-102.819
X117.856Y-103.632
X117.856Y-106.07
X117.856Y-106.883
X117.856Y-107.696
X117.856Y-108.509
X117.856Y-109.322
X118.262Y-72.339
X118.262Y-72.949
X118.262Y-73.558
X118.262Y-74.168
X118.262Y-74.778
X118.366Y-104.609
X118.568Y-106.632
X118.872Y-74.371
X118.872Y-74.981
X118.872Y-103.226
X119.008Y-104.648
X119.278Y-77.216
X119.278Y-77.826
X119.278Y-78.435
X119.278Y-79.045
X119.278Y-79.654
X119.278Y-80.264
X119.278Y-80.874
X119.278Y-81.483
X119.482Y-74.371
X119.482Y-74.981
X119.748Y-83.922
X119.888Y-77.216
X119.888Y-77.826
X119.888Y-78.435
X119.888Y-79.045
X119.888Y-79.654
X119.888Y-80.264
X119.888Y-80.874
X119.888Y-81.483
X120.091Y-74.371
X120.091Y-74.981
X120.091Y-97.942
X120.091Y-98.552
X120.091Y-99.162
X120.498Y-77.216
X120.498Y-77.826
X120.498Y-78.435
X120.498Y-79.045
X120.498Y-79.654
X120.498Y-80.264
X120.498Y-80.874
X120.498Y-81.483
X120.701Y-74.371
X120.701Y-74.981
X120.701Y-97.942
X120.701Y-98.552
X120.701Y-99.162
X121.107Y-77.216
X121.107Y-77.826
X121.107Y-78.435
X121.107Y-79.045
X121.107Y-79.654
X121.107Y-80.264
X121.107Y-80.874
X121.107Y-81.483
X121.196Y-96.672
X121.248Y-83.922
X121.31Y-74.371
X121.31Y-74.981
X121.31Y-97.942
X121.31Y-98.552
X121.31Y-99.162
X121.31Y-99.771
X121.31Y-100.381
X121.31Y-100.99
X121.717Y-77.216
X121.717Y-77.826
X121.717Y-78.435
X121.717Y-79.045
X121.717Y-79.654
X121.717Y-80.264
X121.717Y-80.874
X121.717Y-81.483
X121.805Y-111.995
X121.806Y-111.354
X121.92Y-74.371
X121.92Y-74.981
X121.92Y-97.942
X121.92Y-98.552
X121.92Y-99.162
X121.92Y-99.771
X121.92Y-100.381
X121.92Y-100.99
X122.123Y-72.558
X122.123Y-73.168
X122.123Y-73.777
X122.156Y-96.672
X122.326Y-103.429
X122.326Y-104.038
X122.326Y-104.648
X122.456Y-74.704
X122.482Y-111.991
X122.53Y-97.942
X122.53Y-98.552
X122.53Y-99.162
X122.53Y-99.771
X122.53Y-100.381
X122.53Y-100.99
X122.765Y-86.517
X122.936Y-72.558
X122.936Y-73.168
X122.936Y-73.777
X122.936Y-96.723
X123.139Y-92.659
X123.139Y-97.942
X123.139Y-98.552
X123.139Y-99.162
X123.139Y-99.771
X123.139Y-100.381
X123.139Y-100.99
X123.139Y-101.6
X123.139Y-102.21
X123.139Y-102.819
X123.139Y-103.429
X123.139Y-104.038
X123.139Y-104.648
X123.189Y-75.286
X123.317Y-111.997
X123.342Y-108.3
X123.546Y-96.723
X123.749Y-72.558
X123.749Y-73.168
X123.749Y-73.777
X123.749Y-74.778
X123.749Y-97.942
X123.749Y-98.552
X123.749Y-99.162
X123.749Y-99.771
X123.749Y-100.381
X123.749Y-100.99
X123.749Y-101.6
X123.749Y-102.21
X123.749Y-102.819
X123.749Y-103.429
X123.749Y-104.038
X123.749Y-104.648
X124.003Y-112.019
X124.054Y-96.723
X124.115Y-86.997
X124.192Y-75.25
X124.358Y-97.942
X124.358Y-98.552
X124.358Y-99.162
X124.358Y-99.771
X124.358Y-100.381
X124.358Y-100.99
X124.358Y-101.6
X124.358Y-102.21
X124.358Y-102.819
X124.358Y-103.429
X124.358Y-104.038
X124.358Y-104.648
X124.562Y-72.558
X124.562Y-73.168
X124.562Y-73.777
X124.612Y-113.284
X124.765Y-74.778
X124.943Y-92.584
X124.968Y-100.381
X124.968Y-100.99
X124.968Y-101.6
X124.968Y-102.21
X124.968Y-102.819
X124.968Y-103.429
X124.968Y-104.038
X124.968Y-104.648
X125.157Y-110.823
X125.171Y-111.514
X125.228Y-75.286
X125.374Y-72.558
X125.374Y-73.168
X125.374Y-73.777
X125.374Y-113.386
X125.374Y-113.995
X125.578Y-100.381
X125.578Y-100.99
X125.578Y-101.6
X125.578Y-102.21
X125.578Y-102.819
X125.578Y-103.429
X125.578Y-104.038
X125.578Y-104.648
X125.781Y-74.778
X125.984Y-113.995
X126.162Y-93.784
X126.187Y-72.558
X126.187Y-73.168
X126.187Y-73.777
X126.187Y-75.286
X126.187Y-100.381
X126.187Y-100.99
X126.187Y-101.6
X126.187Y-102.21
X126.187Y-102.819
X126.187Y-103.429
X126.187Y-104.038
X126.187Y-104.648
X126.187Y-105.258
X126.187Y-107.696
X126.4Y-110.1
X126.4Y-111.1
X126.543Y-94.984
X126.6Y-108.6
X126.797Y-74.778
X126.797Y-100.99
X126.797Y-101.6
X126.797Y-102.21
X126.797Y-102.819
X126.797Y-103.429
X126.797Y-104.038
X126.797Y-104.648
X126.797Y-105.258
X126.797Y-107.696
X126.9Y-110.6
X126.943Y-92.982
X127.0Y-72.558
X127.0Y-73.168
X127.0Y-73.777
X127.074Y-113.995
X127.134Y-86.518
X127.203Y-75.286
X127.343Y-94.984
X127.343Y-95.784
X127.343Y-96.584
X127.343Y-97.384
X127.343Y-98.984
X127.343Y-99.784
X127.343Y-98.184
X127.4Y-110.1
X127.4Y-111.1
X127.406Y-107.696
X127.737Y-93.777
X127.741Y-92.98
X127.813Y-72.558
X127.813Y-73.168
X127.813Y-73.777
X127.813Y-74.778
X128.016Y-87.782
X128.016Y-88.392
X128.016Y-89.002
X128.016Y-101.397
X128.016Y-102.006
X128.016Y-107.696
X128.143Y-94.984
X128.143Y-95.784
X128.143Y-96.584
X128.219Y-75.286
X128.422Y-84.523
X128.422Y-85.173
X128.422Y-85.797
X128.422Y-86.458
X128.484Y-84.098
X128.484Y-86.998
X128.549Y-93.777
X128.626Y-72.558
X128.626Y-73.168
X128.626Y-73.777
X128.626Y-87.782
X128.626Y-88.392
X128.626Y-89.002
X128.626Y-101.397
X128.626Y-102.006
X128.626Y-107.696
X128.687Y-108.915
X128.829Y-74.778
X128.93Y-84.523
X128.93Y-85.173
X128.93Y-85.797
X128.93Y-86.458
X128.943Y-94.984
X128.943Y-95.784
X128.943Y-96.584
X128.943Y-98.184
X128.981Y-113.995
X129.187Y-75.278
X129.235Y-83.922
X129.235Y-87.173
X129.235Y-87.782
X129.235Y-88.392
X129.235Y-89.002
X129.235Y-101.397
X129.235Y-102.006
X129.235Y-107.696
X129.235Y-109.525
X129.438Y-72.558
X129.438Y-73.168
X129.438Y-73.777
X129.438Y-84.523
X129.438Y-85.173
X129.438Y-85.797
X129.438Y-86.458
X129.687Y-74.778
X129.743Y-97.384
X129.743Y-98.984
X129.845Y-83.922
X129.845Y-87.173
X129.845Y-87.782
X129.845Y-88.392
X129.845Y-89.002
X129.845Y-101.397
X129.845Y-102.006
X129.845Y-107.29
X129.845Y-108.306
X129.845Y-110.236
X129.946Y-84.523
X129.946Y-85.173
X129.946Y-85.797
X129.946Y-86.458
X130.187Y-75.278
X130.251Y-72.558
X130.251Y-73.168
X130.251Y-73.777
X130.353Y-110.744
X130.454Y-83.922
X130.454Y-84.578
X130.454Y-85.228
X130.454Y-85.852
X130.454Y-86.512
X130.454Y-87.173
X130.454Y-87.782
X130.454Y-88.392
X130.454Y-89.002
X130.454Y-101.397
X130.454Y-102.006
X130.454Y-107.29
X130.454Y-108.915
X130.454Y-109.525
X130.543Y-97.384
X130.543Y-98.184
X130.543Y-99.784
X130.687Y-74.778
X131.064Y-72.558
X131.064Y-73.168
X131.064Y-73.777
X131.064Y-83.922
X131.064Y-87.173
X131.064Y-87.782
X131.064Y-88.392
X131.064Y-89.002
X131.064Y-101.397
X131.064Y-102.006
X131.064Y-102.616
X131.064Y-103.226
X131.064Y-107.29
X131.064Y-108.915
X131.064Y-109.525
X131.166Y-84.582
X131.166Y-85.232
X131.166Y-85.856
X131.166Y-86.516
X131.187Y-75.278
X131.343Y-96.584
X131.343Y-93.384
X131.343Y-98.984
X131.674Y-83.922
X131.674Y-84.527
X131.674Y-85.177
X131.674Y-85.801
X131.674Y-86.462
X131.674Y-87.173
X131.674Y-87.782
X131.674Y-88.392
X131.674Y-89.002
X131.674Y-101.397
X131.674Y-102.006
X131.674Y-102.616
X131.674Y-103.226
X131.687Y-74.778
X131.877Y-72.558
X131.877Y-73.168
X131.877Y-73.777
X132.143Y-97.384
X132.143Y-98.184
X132.182Y-84.527
X132.182Y-85.177
X132.182Y-85.801
X132.182Y-86.462
X132.187Y-75.278
X132.283Y-83.922
X132.283Y-87.173
X132.283Y-87.782
X132.283Y-88.392
X132.283Y-89.002
X132.283Y-101.397
X132.283Y-102.006
X132.283Y-102.616
X132.283Y-103.226
X132.41Y-105.742
X132.687Y-74.778
X132.69Y-72.558
X132.69Y-73.168
X132.69Y-73.777
X132.69Y-84.527
X132.69Y-85.177
X132.69Y-85.801
X132.69Y-86.462
X132.893Y-87.782
X132.893Y-88.392
X132.893Y-89.002
X132.893Y-101.397
X132.893Y-102.006
X132.893Y-102.616
X132.893Y-103.226
X132.994Y-94.386
X132.994Y-94.996
X133.136Y-84.078
X133.136Y-86.978
X133.187Y-75.286
X133.198Y-84.527
X133.198Y-85.177
X133.198Y-85.801
X133.198Y-86.462
X133.502Y-72.558
X133.502Y-73.168
X133.502Y-73.777
X133.502Y-87.782
X133.502Y-88.392
X133.502Y-89.002
X133.502Y-101.397
X133.502Y-102.006
X133.502Y-102.616
X133.502Y-103.226
X133.577Y-93.731
X133.687Y-74.778
X133.909Y-95.91
X133.909Y-98.349
X133.909Y-98.958
X133.909Y-99.568
X134.01Y-104.242
X134.034Y-93.276
X134.112Y-101.397
X134.112Y-102.006
X134.112Y-102.616
X134.112Y-103.226
X134.315Y-72.339
X134.315Y-72.949
X134.315Y-73.558
X134.315Y-74.168
X134.315Y-74.778
X134.447Y-92.885
X134.486Y-84.558
X134.518Y-98.958
X134.518Y-99.568
X134.722Y-101.397
X134.722Y-102.006
X134.722Y-102.616
X134.794Y-96.804
X134.925Y-72.339
X134.925Y-72.949
X134.925Y-73.558
X134.925Y-74.168
X134.925Y-74.778
X134.925Y-92.456
X135.331Y-91.999
X135.331Y-101.397
X135.534Y-97.536
X135.738Y-91.592
X135.941Y-101.397
X135.941Y-103.632
X135.941Y-104.242
X136.144Y-91.186
X136.55Y-101.397
X136.55Y-103.632
X136.55Y-104.242
X136.587Y-73.418
X136.602Y-90.839
X136.648Y-98.578
X136.754Y-113.386
X136.754Y-113.995
X136.957Y-99.771
X137.031Y-90.373
X137.16Y-101.397
X137.16Y-103.632
X137.16Y-104.242
X137.363Y-113.386
X137.363Y-113.995
X137.368Y-99.37
X137.566Y-95.301
X137.566Y-96.926
X137.607Y-86.968
X137.668Y-90.932
X137.77Y-99.826
X137.77Y-101.397
X137.77Y-103.632
X137.77Y-104.242
X137.973Y-95.707
X137.973Y-96.52
X137.973Y-97.333
X137.973Y-113.386
X137.973Y-113.995
X138.379Y-96.114
X138.379Y-96.926
X138.379Y-97.739
X138.379Y-104.242
X138.379Y-104.851
X138.379Y-105.461
X138.379Y-106.07
X138.379Y-106.68
X138.582Y-111.557
X138.582Y-113.386
X138.582Y-113.995
X138.786Y-96.52
X138.786Y-97.333
X138.957Y-84.548
X138.989Y-104.242
X138.989Y-104.851
X138.989Y-105.461
X138.989Y-106.07
X138.989Y-106.68
X139.192Y-96.926
X139.192Y-111.557
X139.192Y-113.386
X139.192Y-113.995
X139.598Y-104.242
X139.598Y-104.851
X139.598Y-105.461
X139.598Y-106.07
X139.598Y-106.68
X139.751Y-109.22
X139.751Y-110.947
X139.802Y-111.557
X139.802Y-113.386
X139.802Y-113.995
X139.903Y-82.499
X139.903Y-83.109
X140.411Y-85.446
X140.411Y-106.07
X140.411Y-106.68
X140.411Y-107.29
X140.411Y-108.712
X140.411Y-110.947
X140.411Y-111.557
X140.411Y-113.589
X140.513Y-82.499
X140.513Y-83.109
X140.646Y-90.463
X141.021Y-106.07
X141.021Y-106.68
X141.021Y-107.29
X141.021Y-108.712
X141.021Y-110.947
X141.021Y-111.557
X141.021Y-113.589
X141.122Y-81.89
X141.122Y-82.499
X141.122Y-83.109
X141.146Y-90.783
X141.615Y-91.157
X141.63Y-101.194
X141.63Y-101.803
X141.63Y-102.413
X141.63Y-103.022
X141.63Y-106.07
X141.63Y-106.68
X141.63Y-107.29
X141.63Y-108.712
X141.63Y-113.589
X141.732Y-81.89
X141.732Y-82.499
X141.732Y-83.109
X142.037Y-85.446
X142.059Y-91.56
X142.24Y-106.07
X142.24Y-106.68
X142.24Y-107.29
X142.24Y-108.712
X142.24Y-110.947
X142.24Y-111.557
X142.24Y-113.589
X142.342Y-81.89
X142.342Y-82.499
X142.342Y-83.109
X142.412Y-92.045
X142.85Y-92.456
X142.85Y-106.07
X142.85Y-106.68
X142.85Y-107.29
X142.85Y-108.712
X142.85Y-110.947
X142.85Y-111.557
X142.85Y-113.589
X142.951Y-81.89
X142.951Y-82.499
X142.951Y-83.109
X142.951Y-83.718
X142.951Y-84.328
X142.951Y-84.938
X142.951Y-85.547
X142.951Y-86.157
X142.951Y-86.766
X142.951Y-87.376
X143.459Y-92.456
X143.459Y-93.066
X143.459Y-93.675
X143.459Y-108.712
X143.459Y-109.322
X143.459Y-113.589
X143.463Y-113.027
X143.561Y-81.89
X143.561Y-82.499
X143.561Y-83.109
X143.561Y-83.718
X143.561Y-84.328
X143.561Y-84.938
X143.561Y-85.547
X143.561Y-86.157
X143.561Y-86.766
X144.069Y-92.456
X144.069Y-93.066
X144.069Y-93.675
X144.069Y-108.696
X144.069Y-109.322
X144.069Y-113.589
X144.071Y-113.027
X144.17Y-81.89
X144.17Y-82.499
X144.17Y-83.109
X144.484Y-85.544
X144.678Y-108.712
X144.678Y-109.322
X144.678Y-113.027
X144.678Y-113.589
X144.78Y-81.89
X144.78Y-82.499
X144.78Y-83.109
X145.085Y-110.947
X145.085Y-111.557
X145.39Y-81.89
X145.39Y-82.499
X145.39Y-83.109
X145.694Y-110.947
X145.694Y-111.557
X145.984Y-85.544
X145.999Y-81.89
X145.999Y-82.499
X145.999Y-83.109
X146.304Y-110.947
X146.304Y-111.557
X146.609Y-81.89
X146.609Y-82.499
X146.609Y-83.109
X146.66Y-90.196
X146.812Y-92.456
X146.812Y-93.066
X146.812Y-93.675
X146.914Y-110.914
X147.218Y-81.89
X147.218Y-82.499
X147.218Y-83.109
X147.422Y-92.456
X147.422Y-93.066
X147.422Y-93.675
X147.574Y-86.353
X147.828Y-81.89
X147.828Y-82.499
X147.828Y-83.109
X148.031Y-92.456
X148.031Y-93.066
X148.031Y-93.675
X148.641Y-92.456
X148.641Y-93.066
X148.641Y-93.675
X148.924Y-86.833
X148.946Y-112.979
X149.25Y-92.456
X149.25Y-93.066
X149.25Y-93.675
X149.454Y-103.022
X149.454Y-103.632
X149.454Y-104.242
X149.454Y-104.851
X149.454Y-105.461
X149.454Y-106.07
X149.555Y-95.91
X149.758Y-109.322
X150.142Y-88.087
X150.165Y-95.91
X150.165Y-96.52
X150.774Y-95.91
X150.774Y-96.52
X150.978Y-88.087
X151.384Y-95.91
X151.384Y-96.52
X151.689Y-88.087
X151.79Y-98.958
X151.79Y-99.568
X151.79Y-100.178
X151.79Y-100.787
X151.79Y-101.397
X151.79Y-102.006
X151.949Y-102.616
X151.994Y-95.91
X151.994Y-96.52
X152.045Y-86.353
X152.095Y-103.632
X152.095Y-104.242
X152.095Y-104.851
X152.095Y-105.461
X152.095Y-106.07
X152.298Y-88.087
X152.4Y-98.958
X152.4Y-99.568
X152.4Y-100.178
X152.4Y-100.787
X152.4Y-101.397
X152.4Y-102.006
X152.4Y-102.616
X152.603Y-95.91
X152.603Y-96.52
X152.908Y-88.087
X153.01Y-80.67
X153.01Y-81.28
X153.01Y-98.958
X153.01Y-99.568
X153.01Y-100.178
X153.01Y-100.787
X153.01Y-101.397
X153.01Y-102.006
X153.01Y-102.616
X153.213Y-94.691
X153.213Y-95.301
X153.213Y-95.91
X153.213Y-96.52
X153.314Y-84.389
X153.314Y-85.039
X153.314Y-85.663
X153.314Y-86.324
X153.395Y-83.933
X153.599Y-104.788
X153.619Y-80.061
X153.619Y-80.67
X153.619Y-81.28
X153.619Y-81.89
X153.822Y-84.389
X153.822Y-85.039
X153.822Y-85.663
X153.822Y-86.324
X153.822Y-94.691
X153.822Y-95.301
X153.822Y-95.91
X153.822Y-96.52
X154.229Y-78.842
X154.229Y-79.451
X154.229Y-80.061
X154.229Y-80.67
X154.229Y-81.28
X154.229Y-81.89
X154.28Y-107.696
X154.33Y-84.389
X154.33Y-85.039
X154.33Y-85.663
X154.33Y-86.324
X154.425Y-95.295
X154.432Y-94.691
X154.432Y-95.91
X154.432Y-96.52
X154.838Y-77.622
X154.838Y-78.232
X154.838Y-78.842
X154.838Y-79.451
X154.838Y-80.061
X154.838Y-80.67
X154.838Y-81.28
X154.838Y-81.89
X154.838Y-84.389
X154.838Y-85.039
X154.838Y-85.663
X154.838Y-86.324
X155.346Y-84.444
X155.346Y-85.094
X155.346Y-85.718
X155.346Y-86.378
X155.448Y-76.403
X155.448Y-77.013
X155.448Y-77.622
X155.448Y-78.232
X155.448Y-78.842
X155.448Y-79.451
X155.448Y-80.061
X155.448Y-80.67
X155.448Y-81.28
X155.448Y-81.89
X156.058Y-75.184
X156.058Y-75.794
X156.058Y-76.403
X156.058Y-77.013
X156.058Y-77.622
X156.058Y-78.232
X156.058Y-78.842
X156.058Y-79.451
X156.058Y-80.061
X156.058Y-80.67
X156.667Y-74.574
X156.667Y-75.184
X156.667Y-75.794
X156.667Y-76.403
X156.667Y-77.013
X156.667Y-77.622
X156.667Y-78.232
X156.667Y-78.842
X156.667Y-79.44
X156.667Y-80.061
X156.82Y-107.696
X157.117Y-112.166
X157.277Y-74.574
X157.277Y-75.184
X157.277Y-75.794
X157.277Y-76.403
X157.277Y-77.013
X157.277Y-77.622
X157.277Y-78.232
X157.277Y-78.842
X157.277Y-79.451
X157.277Y-80.061
X157.378Y-92.659
X157.886Y-75.184
X157.886Y-75.794
X157.886Y-76.403
X157.886Y-77.013
X157.886Y-77.622
X157.886Y-78.232
X157.886Y-78.842
X157.886Y-79.451
X157.886Y-80.061
X157.886Y-80.67
X157.886Y-88.189
X157.886Y-88.798
X158.09Y-107.696
X158.496Y-75.794
X158.496Y-76.403
X158.496Y-77.013
X158.496Y-77.622
X158.496Y-78.232
X158.496Y-78.842
X158.496Y-79.451
X158.496Y-80.061
X158.496Y-80.67
X159.36Y-107.696
X159.635Y-103.442
X159.635Y-106.299
X159.654Y-104.407
X159.665Y-102.502
X159.665Y-105.372
X159.817Y-93.726
X160.477Y-94.488
X160.625Y-102.502
X160.63Y-90.196
X160.63Y-107.696
X160.655Y-103.442
X160.674Y-104.407
X161.544Y-95.91
X161.544Y-96.52
X161.544Y-97.13
X161.544Y-97.739
X161.9Y-90.196
X161.95Y-102.21
X161.95Y-102.819
X161.95Y-103.429
X161.95Y-104.038
X161.95Y-104.648
X162.154Y-101.397
X162.966Y-102.21
X162.966Y-102.819
X162.966Y-103.429
X162.966Y-104.038
X162.966Y-104.648
X163.17Y-86.36
X163.17Y-86.97
X163.17Y-87.579
X163.17Y-88.189
X163.17Y-88.697
X163.17Y-90.196
T3
X115.011Y-77.826
X115.011Y-78.435
X115.011Y-79.045
X115.011Y-79.654
X115.011Y-80.975
X115.011Y-81.585
X115.011Y-82.194
X115.011Y-82.804
X115.011Y-84.125
X115.011Y-84.734
X115.011Y-85.344
X115.011Y-85.954
X115.011Y-87.376
X115.011Y-87.986
X115.011Y-88.595
X115.011Y-89.205
X115.011Y-90.627
X115.011Y-91.237
X115.011Y-91.846
X115.011Y-92.456
X115.011Y-93.878
X115.011Y-94.488
X115.011Y-95.098
X115.011Y-95.707
X115.011Y-97.13
X115.011Y-97.739
X115.011Y-98.349
X115.011Y-98.958
X120.498Y-91.948
X120.863Y-93.624
X120.863Y-94.437
X121.676Y-94.031
X122.489Y-93.624
X122.489Y-94.437
X135.128Y-103.558
X135.128Y-104.518
X141.63Y-100.381
X147.457Y-109.812
X159.332Y-99.556
X159.332Y-100.368
X160.165Y-99.911
X160.958Y-99.556
X160.958Y-100.368
T5
X118.963Y-101.555
X118.963Y-107.335
T6
X118.11Y-78.638
X118.112Y-88.24
X118.112Y-91.44
X118.112Y-94.64
X118.114Y-81.839
X118.114Y-85.039
X118.114Y-97.841
X154.05Y-99.046
X154.05Y-100.446
X154.05Y-101.846
X155.45Y-99.046
X155.45Y-100.446
X155.45Y-101.846
X156.85Y-99.046
X156.85Y-100.446
X156.85Y-101.846
X161.9Y-107.696
X163.17Y-107.696
T7
X157.074Y-81.585
X157.074Y-86.665
X159.614Y-81.585
X159.614Y-86.665
T8
X142.086Y-77.989
X144.586Y-72.989
X147.086Y-77.989
X149.586Y-72.989
X152.086Y-77.989
X154.586Y-72.989
T9
X96.0Y-84.0
X117.0Y-112.0
X161.0Y-72.5
X161.0Y-112.0
T4
G00X115.583Y-100.125
M15
G01X114.983Y-100.125
M16
G05
G00X115.583Y-108.765
M15
G01X114.983Y-108.765
M16
G05
G00X119.913Y-100.125
M15
G01X119.013Y-100.125
M16
G05
G00X119.913Y-108.765
M15
G01X119.013Y-108.765
M16
G05
M30
