M48
; DRILL file {KiCad 9.99.0-1168-g72ed3d3f11} date 2025-05-05T23:22:21-0400
; FORMAT={-:-/ absolute / metric / decimal}
; #@! TF.CreationDate,2025-05-05T23:22:21-04:00
; #@! TF.GenerationSoftware,Kicad,Pcbnew,9.99.0-1168-g72ed3d3f11
; #@! TF.FileFunction,Plated,1,6,PTH
FMAT,2
METRIC
; #@! TA.AperFunction,Plated,PTH,ViaDrill
T1C0.250
; #@! TA.AperFunction,Plated,PTH,ViaDrill
T2C0.300
; #@! TA.AperFunction,Plated,PTH,ViaDrill
T3C0.400
; #@! TA.AperFunction,Plated,PTH,ComponentDrill
T4C0.600
; #@! TA.AperFunction,Plated,PTH,ComponentDrill
T5C0.600
; #@! TA.AperFunction,Plated,PTH,ViaDrill
T6C0.700
; #@! TA.AperFunction,Plated,PTH,ComponentDrill
T7C1.200
; #@! TA.AperFunction,Plated,PTH,ComponentDrill
T8C1.500
; #@! TA.AperFunction,Plated,PTH,ComponentDrill
T9C2.200
%
G90
G05
T1
X133.807Y-105.246
X134.214Y-105.742
T2
X114.605Y-101.194
X114.605Y-102.006
X114.605Y-102.819
X114.605Y-103.632
X114.605Y-104.445
X114.605Y-105.258
X114.605Y-106.07
X114.605Y-106.883
X114.605Y-107.696
X115.418Y-101.194
X115.418Y-102.006
X115.418Y-102.819
X115.418Y-103.632
X115.418Y-104.445
X115.418Y-105.258
X115.418Y-106.07
X115.418Y-106.883
X115.418Y-107.696
X115.824Y-74.981
X115.824Y-75.59
X116.078Y-93.726
X116.078Y-94.336
X116.078Y-94.945
X116.078Y-95.555
X116.078Y-96.926
X116.078Y-97.536
X116.078Y-98.146
X116.078Y-98.755
X116.129Y-84.125
X116.129Y-84.734
X116.129Y-85.344
X116.129Y-85.954
X116.129Y-87.325
X116.129Y-87.935
X116.129Y-88.544
X116.129Y-89.154
X116.129Y-90.475
X116.129Y-91.084
X116.129Y-91.694
X116.129Y-92.304
X116.18Y-80.874
X116.18Y-81.483
X116.18Y-82.093
X116.18Y-82.702
X116.23Y-101.194
X116.23Y-102.006
X116.23Y-102.819
X116.23Y-103.632
X116.23Y-104.445
X116.23Y-105.258
X116.23Y-106.07
X116.23Y-106.883
X116.23Y-107.696
X116.434Y-72.746
X116.434Y-73.355
X116.434Y-73.965
X116.434Y-74.981
X116.434Y-75.59
X117.043Y-72.746
X117.043Y-73.355
X117.043Y-73.965
X117.043Y-74.981
X117.043Y-75.59
X117.043Y-100.381
X117.043Y-101.194
X117.043Y-102.006
X117.043Y-102.819
X117.043Y-103.632
X117.043Y-104.445
X117.043Y-105.258
X117.043Y-106.07
X117.043Y-106.883
X117.043Y-107.696
X117.043Y-108.509
X117.043Y-109.322
X117.653Y-72.746
X117.653Y-73.355
X117.653Y-73.965
X117.653Y-74.981
X117.653Y-75.59
X117.792Y-104.423
X117.83Y-105.27
X117.856Y-100.381
X117.856Y-101.194
X117.856Y-102.006
X117.856Y-102.819
X117.856Y-103.632
X117.856Y-106.07
X117.856Y-106.883
X117.856Y-107.696
X117.856Y-108.509
X117.856Y-109.322
X118.262Y-74.981
X118.262Y-75.59
X118.366Y-104.609
X118.568Y-106.632
X118.872Y-71.323
X118.872Y-71.933
X118.872Y-72.542
X118.872Y-73.152
X118.872Y-73.762
X118.872Y-74.371
X118.872Y-74.981
X118.872Y-103.226
X119.008Y-104.648
X119.075Y-93.726
X119.075Y-94.336
X119.075Y-94.945
X119.075Y-95.555
X119.075Y-96.926
X119.075Y-97.536
X119.075Y-98.146
X119.075Y-98.755
X119.126Y-84.125
X119.126Y-84.734
X119.126Y-85.344
X119.126Y-85.954
X119.126Y-87.325
X119.126Y-87.935
X119.126Y-88.544
X119.126Y-89.154
X119.126Y-90.475
X119.126Y-91.084
X119.126Y-91.694
X119.126Y-92.304
X119.177Y-80.874
X119.177Y-81.483
X119.177Y-82.093
X119.177Y-82.702
X119.482Y-71.323
X119.482Y-71.933
X119.482Y-72.542
X119.482Y-73.152
X119.482Y-73.762
X119.482Y-74.371
X119.482Y-74.981
X120.091Y-71.323
X120.091Y-71.933
X120.091Y-72.542
X120.091Y-73.152
X120.091Y-73.762
X120.091Y-74.371
X120.091Y-74.981
X120.701Y-71.323
X120.701Y-71.933
X120.701Y-72.542
X120.701Y-73.152
X120.701Y-73.762
X120.701Y-74.371
X120.701Y-74.981
X121.209Y-80.272
X121.209Y-86.563
X121.31Y-71.323
X121.31Y-71.933
X121.31Y-72.542
X121.31Y-73.152
X121.31Y-73.762
X121.31Y-74.371
X121.31Y-74.981
X121.31Y-97.942
X121.31Y-98.552
X121.31Y-99.162
X121.31Y-99.771
X121.31Y-100.381
X121.31Y-100.99
X121.805Y-111.995
X121.806Y-111.354
X121.92Y-82.601
X121.92Y-86.563
X121.92Y-97.942
X121.92Y-98.552
X121.92Y-99.162
X121.92Y-99.771
X121.92Y-100.381
X121.92Y-100.99
X122.022Y-72.542
X122.022Y-73.152
X122.022Y-73.762
X122.022Y-74.371
X122.022Y-74.981
X122.197Y-96.672
X122.326Y-103.429
X122.326Y-104.038
X122.326Y-104.648
X122.482Y-111.991
X122.53Y-97.942
X122.53Y-98.552
X122.53Y-99.162
X122.53Y-99.771
X122.53Y-100.381
X122.53Y-100.99
X122.631Y-72.542
X122.631Y-73.152
X122.631Y-73.762
X122.631Y-74.371
X122.631Y-74.981
X122.936Y-86.451
X122.977Y-96.723
X123.139Y-97.942
X123.139Y-98.552
X123.139Y-99.162
X123.139Y-99.771
X123.139Y-100.381
X123.139Y-100.99
X123.139Y-101.6
X123.139Y-102.21
X123.139Y-102.819
X123.139Y-103.429
X123.139Y-104.038
X123.139Y-104.648
X123.241Y-72.542
X123.241Y-73.152
X123.241Y-73.762
X123.241Y-74.371
X123.241Y-74.981
X123.317Y-111.997
X123.342Y-108.3
X123.473Y-92.591
X123.587Y-96.723
X123.749Y-97.942
X123.749Y-98.552
X123.749Y-99.162
X123.749Y-99.771
X123.749Y-100.381
X123.749Y-100.99
X123.749Y-101.6
X123.749Y-102.21
X123.749Y-102.819
X123.749Y-103.429
X123.749Y-104.038
X123.749Y-104.648
X123.87Y-74.86
X123.952Y-72.441
X123.952Y-73.05
X123.952Y-73.66
X123.952Y-74.27
X124.003Y-112.019
X124.206Y-86.931
X124.358Y-97.942
X124.358Y-98.552
X124.358Y-99.162
X124.358Y-99.771
X124.358Y-100.381
X124.358Y-100.99
X124.358Y-101.6
X124.358Y-102.21
X124.358Y-102.819
X124.358Y-103.429
X124.358Y-104.038
X124.358Y-104.648
X124.371Y-75.223
X124.612Y-113.284
X124.765Y-72.441
X124.765Y-73.05
X124.765Y-73.66
X124.765Y-74.27
X124.87Y-74.879
X124.943Y-92.584
X124.968Y-100.381
X124.968Y-100.99
X124.968Y-101.6
X124.968Y-102.21
X124.968Y-102.819
X124.968Y-103.429
X124.968Y-104.038
X124.968Y-104.648
X125.157Y-110.823
X125.171Y-111.514
X125.374Y-75.188
X125.374Y-113.182
X125.578Y-72.441
X125.578Y-73.05
X125.578Y-73.66
X125.578Y-74.27
X125.578Y-100.381
X125.578Y-100.99
X125.578Y-101.6
X125.578Y-102.21
X125.578Y-102.819
X125.578Y-103.429
X125.578Y-104.038
X125.578Y-104.648
X125.947Y-74.715
X126.114Y-113.182
X126.187Y-100.381
X126.187Y-100.99
X126.187Y-101.6
X126.187Y-102.21
X126.187Y-102.819
X126.187Y-103.429
X126.187Y-104.038
X126.187Y-104.648
X126.39Y-72.441
X126.39Y-73.05
X126.39Y-73.66
X126.39Y-74.27
X126.4Y-110.1
X126.4Y-111.1
X126.411Y-75.223
X126.543Y-94.984
X126.6Y-108.6
X126.797Y-100.99
X126.797Y-101.6
X126.797Y-102.21
X126.797Y-102.819
X126.797Y-103.429
X126.797Y-104.038
X126.797Y-104.648
X126.87Y-74.809
X126.9Y-110.6
X126.943Y-92.982
X127.074Y-113.182
X127.203Y-72.441
X127.203Y-73.05
X127.203Y-73.66
X127.203Y-74.27
X127.343Y-94.984
X127.343Y-95.784
X127.343Y-96.584
X127.343Y-97.384
X127.343Y-98.984
X127.343Y-99.784
X127.343Y-98.184
X127.356Y-86.431
X127.37Y-75.223
X127.4Y-110.1
X127.4Y-111.1
X127.737Y-93.777
X127.741Y-92.98
X127.87Y-74.825
X128.016Y-72.441
X128.016Y-73.05
X128.016Y-73.66
X128.016Y-74.27
X128.016Y-101.397
X128.016Y-102.006
X128.016Y-107.29
X128.143Y-94.984
X128.143Y-95.784
X128.143Y-96.584
X128.238Y-87.695
X128.238Y-88.305
X128.238Y-88.914
X128.386Y-75.223
X128.549Y-93.777
X128.626Y-101.397
X128.626Y-102.006
X128.626Y-107.29
X128.644Y-84.436
X128.644Y-85.086
X128.644Y-85.71
X128.644Y-86.37
X128.687Y-108.915
X128.706Y-86.911
X128.829Y-72.441
X128.829Y-73.05
X128.829Y-73.66
X128.829Y-74.27
X128.848Y-87.695
X128.848Y-88.305
X128.848Y-88.914
X128.87Y-74.841
X128.943Y-94.984
X128.943Y-95.784
X128.943Y-96.584
X128.943Y-98.184
X128.983Y-113.182
X129.152Y-84.436
X129.152Y-85.086
X129.152Y-85.71
X129.152Y-86.37
X129.235Y-101.397
X129.235Y-102.006
X129.235Y-107.29
X129.235Y-109.525
X129.402Y-75.223
X129.457Y-83.834
X129.457Y-87.086
X129.457Y-87.695
X129.457Y-88.305
X129.457Y-88.914
X129.642Y-72.441
X129.642Y-73.05
X129.642Y-73.66
X129.642Y-74.27
X129.66Y-84.436
X129.66Y-85.086
X129.66Y-85.71
X129.66Y-86.37
X129.743Y-97.384
X129.743Y-98.984
X129.845Y-101.397
X129.845Y-102.006
X129.845Y-107.29
X129.845Y-110.236
X130.011Y-74.715
X130.067Y-83.834
X130.067Y-87.086
X130.067Y-87.695
X130.067Y-88.305
X130.067Y-88.914
X130.168Y-84.436
X130.168Y-85.086
X130.168Y-85.71
X130.168Y-86.37
X130.353Y-110.744
X130.37Y-75.215
X130.454Y-72.441
X130.454Y-73.05
X130.454Y-73.66
X130.454Y-74.27
X130.454Y-101.397
X130.454Y-102.006
X130.454Y-107.29
X130.454Y-108.915
X130.454Y-109.525
X130.543Y-97.384
X130.543Y-98.184
X130.543Y-99.784
X130.676Y-83.834
X130.676Y-84.491
X130.676Y-85.141
X130.676Y-85.765
X130.676Y-86.425
X130.676Y-87.086
X130.676Y-87.695
X130.676Y-88.305
X130.676Y-88.914
X130.87Y-74.715
X131.064Y-101.397
X131.064Y-102.006
X131.064Y-102.616
X131.064Y-103.226
X131.064Y-107.29
X131.064Y-108.915
X131.064Y-109.525
X131.267Y-72.441
X131.267Y-73.05
X131.267Y-73.66
X131.267Y-74.27
X131.343Y-96.584
X131.343Y-93.384
X131.343Y-98.984
X131.37Y-75.215
X131.553Y-83.855
X131.553Y-87.106
X131.553Y-87.716
X131.553Y-88.325
X131.553Y-88.935
X131.655Y-84.515
X131.655Y-85.165
X131.655Y-85.789
X131.655Y-86.45
X131.674Y-101.397
X131.674Y-102.006
X131.674Y-102.616
X131.674Y-103.226
X131.87Y-74.715
X132.143Y-97.384
X132.143Y-98.184
X132.163Y-83.855
X132.163Y-84.46
X132.163Y-85.11
X132.163Y-85.734
X132.163Y-86.395
X132.163Y-87.106
X132.163Y-87.716
X132.163Y-88.325
X132.163Y-88.935
X132.283Y-101.397
X132.283Y-102.006
X132.283Y-102.616
X132.283Y-103.226
X132.37Y-75.215
X132.41Y-105.742
X132.671Y-84.46
X132.671Y-85.11
X132.671Y-85.734
X132.671Y-86.395
X132.772Y-83.855
X132.772Y-87.106
X132.772Y-87.716
X132.772Y-88.325
X132.772Y-88.935
X132.87Y-74.715
X132.893Y-101.397
X132.893Y-102.006
X132.893Y-102.616
X132.893Y-103.226
X132.994Y-94.386
X132.994Y-94.996
X133.166Y-87.716
X133.166Y-88.297
X133.179Y-84.46
X133.179Y-85.11
X133.179Y-85.734
X133.179Y-86.395
X133.37Y-75.215
X133.382Y-88.935
X133.502Y-101.397
X133.502Y-102.006
X133.502Y-102.616
X133.502Y-103.226
X133.577Y-93.731
X133.807Y-98.958
X133.807Y-99.568
X133.87Y-74.715
X133.909Y-95.91
X133.909Y-98.349
X134.01Y-104.242
X134.034Y-93.276
X134.112Y-101.397
X134.112Y-102.006
X134.112Y-102.616
X134.112Y-103.226
X134.37Y-75.223
X134.417Y-98.958
X134.417Y-99.568
X134.447Y-92.885
X134.722Y-96.825
X134.722Y-101.397
X134.722Y-102.006
X134.722Y-102.616
X134.87Y-74.715
X134.925Y-92.456
X134.976Y-84.491
X135.331Y-91.999
X135.534Y-97.536
X135.738Y-91.592
X135.941Y-103.632
X135.941Y-104.242
X135.941Y-106.68
X136.042Y-99.196
X136.144Y-91.186
X136.55Y-103.632
X136.55Y-104.242
X136.55Y-106.68
X136.602Y-90.839
X136.648Y-98.578
X136.957Y-99.771
X137.031Y-90.373
X137.16Y-103.632
X137.16Y-104.242
X137.16Y-106.68
X137.363Y-87.023
X137.368Y-99.37
X137.566Y-95.301
X137.566Y-96.926
X137.668Y-90.932
X137.77Y-73.355
X137.77Y-99.826
X137.77Y-103.632
X137.77Y-104.242
X137.77Y-106.68
X137.973Y-95.707
X137.973Y-96.52
X137.973Y-97.333
X138.379Y-96.114
X138.379Y-96.926
X138.379Y-97.739
X138.379Y-101.803
X138.379Y-102.413
X138.379Y-103.022
X138.379Y-103.632
X138.379Y-104.242
X138.379Y-104.851
X138.379Y-105.461
X138.379Y-106.07
X138.379Y-106.68
X138.786Y-96.52
X138.786Y-97.333
X138.989Y-101.803
X138.989Y-102.413
X138.989Y-103.022
X138.989Y-103.632
X138.989Y-104.242
X138.989Y-104.851
X138.989Y-105.461
X138.989Y-106.07
X138.989Y-106.68
X139.192Y-96.926
X139.374Y-84.503
X139.598Y-101.803
X139.598Y-102.413
X139.598Y-103.022
X139.598Y-103.632
X139.598Y-104.242
X139.598Y-104.851
X139.598Y-105.461
X139.598Y-106.07
X139.598Y-106.68
X139.751Y-109.22
X139.751Y-110.947
X140.157Y-82.499
X140.157Y-83.109
X140.208Y-101.803
X140.208Y-102.413
X140.208Y-103.022
X140.208Y-103.632
X140.208Y-104.242
X140.208Y-104.851
X140.208Y-105.461
X140.411Y-106.07
X140.411Y-106.68
X140.411Y-107.29
X140.411Y-108.712
X140.411Y-110.947
X140.411Y-111.557
X140.411Y-113.589
X140.646Y-90.463
X140.728Y-85.411
X140.767Y-82.499
X140.767Y-83.109
X141.021Y-106.07
X141.021Y-106.68
X141.021Y-107.29
X141.021Y-108.712
X141.021Y-110.947
X141.021Y-111.557
X141.021Y-113.589
X141.146Y-90.783
X141.376Y-81.89
X141.376Y-82.499
X141.376Y-83.109
X141.615Y-91.157
X141.63Y-106.07
X141.63Y-106.68
X141.63Y-107.29
X141.63Y-108.712
X141.63Y-113.589
X141.986Y-81.89
X141.986Y-82.499
X141.986Y-83.109
X142.059Y-91.56
X142.228Y-85.411
X142.24Y-101.194
X142.24Y-101.803
X142.24Y-102.413
X142.24Y-103.022
X142.24Y-106.07
X142.24Y-106.68
X142.24Y-107.29
X142.24Y-108.712
X142.24Y-110.947
X142.24Y-111.557
X142.24Y-113.589
X142.412Y-92.045
X142.596Y-81.89
X142.596Y-82.499
X142.596Y-83.109
X142.85Y-92.456
X142.85Y-106.07
X142.85Y-106.68
X142.85Y-107.29
X142.85Y-108.712
X142.85Y-110.947
X142.85Y-111.557
X142.85Y-113.589
X143.205Y-81.89
X143.205Y-82.499
X143.205Y-83.109
X143.205Y-83.718
X143.205Y-84.328
X143.205Y-84.938
X143.205Y-85.547
X143.205Y-86.157
X143.205Y-86.766
X143.459Y-92.456
X143.459Y-93.066
X143.459Y-93.675
X143.459Y-108.712
X143.459Y-109.322
X143.459Y-113.589
X143.463Y-113.027
X143.815Y-81.89
X143.815Y-82.499
X143.815Y-83.109
X143.815Y-83.718
X143.815Y-84.328
X143.815Y-84.938
X143.815Y-85.547
X143.815Y-86.157
X143.815Y-86.766
X144.069Y-92.456
X144.069Y-93.066
X144.069Y-93.675
X144.069Y-108.696
X144.069Y-109.322
X144.069Y-113.589
X144.071Y-113.027
X144.424Y-81.89
X144.424Y-82.499
X144.424Y-83.109
X144.678Y-108.712
X144.678Y-109.322
X144.678Y-113.027
X144.678Y-113.589
X144.792Y-85.395
X145.034Y-81.89
X145.034Y-82.499
X145.034Y-83.109
X145.085Y-110.947
X145.085Y-111.557
X145.644Y-81.89
X145.644Y-82.499
X145.644Y-83.109
X145.694Y-110.947
X145.694Y-111.557
X146.253Y-81.89
X146.253Y-82.499
X146.253Y-83.109
X146.292Y-85.395
X146.304Y-110.947
X146.304Y-111.557
X146.71Y-91.846
X146.812Y-92.456
X146.812Y-93.066
X146.812Y-93.675
X146.863Y-81.89
X146.863Y-82.499
X146.863Y-83.109
X146.914Y-110.914
X147.32Y-91.44
X147.422Y-92.456
X147.422Y-93.066
X147.422Y-93.675
X147.472Y-81.89
X147.472Y-82.499
X147.472Y-83.109
X147.574Y-86.353
X147.93Y-90.932
X148.031Y-92.456
X148.031Y-93.066
X148.031Y-93.675
X148.641Y-92.456
X148.641Y-93.066
X148.641Y-93.675
X148.742Y-86.309
X148.946Y-112.979
X149.2Y-90.932
X149.25Y-92.456
X149.25Y-93.066
X149.25Y-93.675
X149.454Y-103.022
X149.454Y-103.632
X149.454Y-104.242
X149.454Y-104.851
X149.454Y-105.461
X149.454Y-106.07
X149.555Y-95.91
X149.758Y-109.322
X150.108Y-90.932
X150.165Y-95.91
X150.165Y-96.52
X150.774Y-95.91
X150.774Y-96.52
X151.384Y-95.91
X151.384Y-96.52
X151.74Y-90.932
X151.79Y-98.958
X151.79Y-99.568
X151.79Y-100.178
X151.79Y-100.787
X151.79Y-101.397
X151.79Y-102.006
X151.79Y-102.616
X151.994Y-95.91
X151.994Y-96.52
X152.045Y-86.353
X152.095Y-103.632
X152.095Y-104.242
X152.095Y-104.851
X152.095Y-105.461
X152.095Y-106.07
X152.4Y-98.958
X152.4Y-99.568
X152.4Y-100.178
X152.4Y-100.787
X152.4Y-101.397
X152.4Y-102.006
X152.4Y-102.616
X152.603Y-95.91
X152.603Y-96.52
X153.01Y-81.28
X153.01Y-81.89
X153.01Y-82.499
X153.01Y-83.109
X153.01Y-90.932
X153.01Y-93.269
X153.01Y-98.958
X153.01Y-99.568
X153.01Y-100.178
X153.01Y-100.787
X153.01Y-101.397
X153.01Y-102.006
X153.01Y-102.616
X153.213Y-94.691
X153.213Y-95.301
X153.213Y-95.91
X153.213Y-96.52
X153.314Y-84.389
X153.314Y-85.039
X153.314Y-85.663
X153.314Y-86.324
X153.395Y-83.933
X153.599Y-104.788
X153.619Y-79.451
X153.619Y-81.28
X153.619Y-81.89
X153.619Y-82.499
X153.619Y-83.109
X153.822Y-84.389
X153.822Y-85.039
X153.822Y-85.663
X153.822Y-86.324
X153.822Y-94.691
X153.822Y-95.301
X153.822Y-95.91
X153.822Y-96.52
X154.229Y-78.232
X154.229Y-78.842
X154.229Y-79.451
X154.229Y-81.28
X154.229Y-81.89
X154.229Y-82.499
X154.229Y-83.109
X154.28Y-90.932
X154.28Y-107.696
X154.33Y-84.389
X154.33Y-85.039
X154.33Y-85.663
X154.33Y-86.324
X154.425Y-95.295
X154.432Y-94.691
X154.432Y-95.91
X154.432Y-96.52
X154.838Y-77.622
X154.838Y-78.232
X154.838Y-78.842
X154.838Y-79.451
X154.838Y-81.28
X154.838Y-81.89
X154.838Y-82.499
X154.838Y-83.109
X154.838Y-84.389
X154.838Y-85.039
X154.838Y-85.663
X154.838Y-86.324
X155.346Y-84.444
X155.346Y-85.094
X155.346Y-85.718
X155.346Y-86.378
X155.448Y-76.403
X155.448Y-77.013
X155.448Y-77.622
X155.448Y-78.232
X155.448Y-78.842
X155.448Y-79.451
X155.448Y-81.28
X155.448Y-81.89
X155.448Y-82.499
X155.448Y-83.109
X156.058Y-75.184
X156.058Y-75.794
X156.058Y-76.403
X156.058Y-77.013
X156.058Y-78.842
X156.058Y-79.451
X156.058Y-81.28
X156.058Y-81.89
X156.667Y-75.184
X156.667Y-75.794
X156.667Y-76.403
X156.667Y-79.451
X156.667Y-81.89
X156.82Y-107.696
X157.277Y-75.184
X157.277Y-75.794
X157.277Y-76.403
X157.277Y-79.451
X157.582Y-86.36
X157.582Y-87.173
X157.726Y-112.166
X157.886Y-75.184
X157.886Y-75.794
X157.886Y-76.403
X157.886Y-77.013
X157.886Y-78.842
X157.886Y-79.451
X158.09Y-107.696
X158.496Y-75.184
X158.496Y-75.794
X158.496Y-76.403
X158.496Y-77.013
X158.496Y-78.842
X158.496Y-79.451
X159.36Y-107.696
X159.635Y-103.442
X159.635Y-106.299
X159.654Y-104.407
X159.665Y-102.502
X159.665Y-105.372
X159.817Y-94.996
X160.477Y-95.758
X160.625Y-102.502
X160.63Y-107.696
X160.655Y-103.442
X160.674Y-104.407
X160.731Y-85.446
X161.544Y-85.446
X161.849Y-96.723
X161.849Y-97.333
X161.849Y-97.942
X161.849Y-98.552
X161.95Y-102.21
X161.95Y-102.819
X161.95Y-103.429
X161.95Y-104.038
X161.95Y-104.648
X162.154Y-101.397
X162.966Y-102.21
X162.966Y-102.819
X162.966Y-103.429
X162.966Y-104.038
X162.966Y-104.648
T3
X123.342Y-93.472
X123.342Y-94.488
X124.155Y-94.488
X135.128Y-103.558
X135.128Y-104.518
X142.24Y-100.381
X147.457Y-109.812
X159.332Y-99.556
X159.332Y-100.368
X160.165Y-99.911
X160.958Y-99.556
X160.958Y-100.368
T5
X118.963Y-101.555
X118.963Y-107.335
T6
X154.05Y-99.046
X154.05Y-100.446
X154.05Y-101.846
X155.45Y-99.046
X155.45Y-100.446
X155.45Y-101.846
X156.85Y-99.046
X156.85Y-100.446
X156.85Y-101.846
X161.9Y-107.696
X163.17Y-107.696
T7
X157.074Y-77.927
X157.074Y-83.007
X159.614Y-77.927
X159.614Y-83.007
T8
X142.086Y-77.989
X144.586Y-72.989
X147.086Y-77.989
X149.586Y-72.989
X152.086Y-77.989
X154.586Y-72.989
T9
X116.332Y-77.826
X117.0Y-112.0
X161.0Y-72.5
X161.0Y-112.0
T4
G00X115.583Y-100.125
M15
G01X114.983Y-100.125
M16
G05
G00X115.583Y-108.765
M15
G01X114.983Y-108.765
M16
G05
G00X119.913Y-100.125
M15
G01X119.013Y-100.125
M16
G05
G00X119.913Y-108.765
M15
G01X119.013Y-108.765
M16
G05
M30
