%TF.GenerationSoftware,KiCad,Pcbnew,9.99.0-1168-g72ed3d3f11*%
%TF.CreationDate,2025-05-05T23:22:11-04:00*%
%TF.ProjectId,main_board,6d61696e-5f62-46f6-9172-642e6b696361,rev?*%
%TF.SameCoordinates,Original*%
%TF.FileFunction,Legend,Top*%
%TF.FilePolarity,Positive*%
%FSLAX46Y46*%
G04 Gerber Fmt 4.6, Leading zero omitted, Abs format (unit mm)*
G04 Created by KiCad (PCBNEW 9.99.0-1168-g72ed3d3f11) date 2025-05-05 23:22:11*
%MOMM*%
%LPD*%
G01*
G04 APERTURE LIST*
%ADD10C,0.254000*%
%ADD11C,0.001000*%
%ADD12C,0.000000*%
%ADD13C,0.200000*%
%ADD14C,0.120000*%
%ADD15C,0.100000*%
%ADD16C,0.152400*%
%ADD17C,0.250000*%
%ADD18C,0.127000*%
G04 APERTURE END LIST*
D10*
X149656800Y-93751400D02*
X153009600Y-93751400D01*
X152501600Y-113792000D02*
X138785600Y-113792000D01*
X140004800Y-100889078D02*
X121005600Y-100838000D01*
X162407600Y-102920800D02*
X161290000Y-102920800D01*
X119888000Y-97536000D02*
X123647200Y-97536000D01*
X134478233Y-91795600D02*
X136652000Y-89763600D01*
X119888000Y-90474800D02*
X119888000Y-97536000D01*
X115261000Y-80060800D02*
X134353800Y-80060800D01*
X162407600Y-102920800D02*
X162407600Y-90576400D01*
X155964000Y-83353000D02*
X155965404Y-87533200D01*
X140004800Y-100889078D02*
X140004800Y-113792000D01*
X157988000Y-102920800D02*
X159004000Y-102920800D01*
X129743200Y-108407200D02*
X127254000Y-108407200D01*
X156173600Y-83607200D02*
X155964000Y-83353000D01*
D11*
X141336000Y-100990400D02*
X140005200Y-100990400D01*
X140005200Y-100889078D01*
X141275478Y-99618800D01*
X141336000Y-99618800D01*
X141336000Y-100990400D01*
G36*
X141336000Y-100990400D02*
G01*
X140005200Y-100990400D01*
X140005200Y-100889078D01*
X141275478Y-99618800D01*
X141336000Y-99618800D01*
X141336000Y-100990400D01*
G37*
D10*
X153873200Y-89712800D02*
X154736800Y-90576400D01*
X142290800Y-98399600D02*
X140004800Y-100889078D01*
X121005600Y-100838000D02*
X121005600Y-113792000D01*
D12*
G36*
X162407600Y-91909200D02*
G01*
X162001200Y-91909200D01*
X162001200Y-90678000D01*
X162407600Y-90678000D01*
X162407600Y-91909200D01*
G37*
D10*
X154736800Y-92608400D02*
X157988000Y-95859600D01*
X149656800Y-89712800D02*
X153873200Y-89712800D01*
X149656800Y-98450400D02*
X149656800Y-89712800D01*
X153009600Y-93751400D02*
X153009600Y-102514400D01*
X134467600Y-91795600D02*
X123647200Y-91795600D01*
D12*
G36*
X139205400Y-81822000D02*
G01*
X138272000Y-81822000D01*
X138272000Y-80170800D01*
X139205400Y-80170800D01*
X139205400Y-81822000D01*
G37*
D10*
X123647200Y-91795600D02*
X123647200Y-100838000D01*
X154432000Y-88747600D02*
X136093200Y-88747600D01*
X134416800Y-91795600D02*
X134416800Y-100838000D01*
X121005600Y-113792000D02*
X129743200Y-113792000D01*
D12*
G36*
X139157200Y-79938200D02*
G01*
X138223800Y-79938200D01*
X138223800Y-78295000D01*
X139157200Y-78295000D01*
X139157200Y-79938200D01*
G37*
D10*
X156173600Y-87507200D02*
X120294400Y-87528400D01*
X136093200Y-88747600D02*
X134366000Y-90474800D01*
X157988000Y-95859600D02*
X157988000Y-102920800D01*
X134366000Y-90474800D02*
X119888000Y-90474800D01*
X136652000Y-89763600D02*
X149656800Y-89712800D01*
X129743200Y-113792000D02*
X129743200Y-108407200D01*
X127254000Y-108407200D02*
X127254000Y-100888800D01*
X152501600Y-102514400D02*
X152501600Y-113792000D01*
X120294400Y-87528400D02*
X120294400Y-80060800D01*
X156159200Y-90576400D02*
X154432000Y-88747600D01*
X162407600Y-90576400D02*
X156159200Y-90576400D01*
X154736800Y-90576400D02*
X154736800Y-92608400D01*
X153009600Y-102514400D02*
X152501600Y-102514400D01*
X138785600Y-113792000D02*
X129743200Y-113792000D01*
X142290800Y-98399600D02*
X149656800Y-98450400D01*
D13*
G36*
X157467000Y-91359856D02*
G01*
X157276369Y-91359856D01*
X157371379Y-90942506D01*
X157467000Y-91359856D01*
G37*
G36*
X159952068Y-91317886D02*
G01*
X159994877Y-91330713D01*
X160024162Y-91349536D01*
X160045281Y-91376698D01*
X160059206Y-91415359D01*
X160064462Y-91469521D01*
X160059335Y-91522841D01*
X160045931Y-91559742D01*
X160025872Y-91584681D01*
X159997879Y-91601412D01*
X159954820Y-91613168D01*
X159890988Y-91617776D01*
X159757082Y-91617776D01*
X159757082Y-91312961D01*
X159890988Y-91312961D01*
X159952068Y-91317886D01*
G37*
G36*
X159940525Y-90922060D02*
G01*
X159975332Y-90931934D01*
X159999188Y-90946353D01*
X160016761Y-90967353D01*
X160028115Y-90996495D01*
X160032344Y-91036539D01*
X160028168Y-91076635D01*
X160017031Y-91105394D01*
X159999921Y-91125749D01*
X159976549Y-91139493D01*
X159941619Y-91149035D01*
X159890988Y-91152738D01*
X159757082Y-91152738D01*
X159757082Y-90918265D01*
X159890988Y-90918265D01*
X159940525Y-90922060D01*
G37*
G36*
X162030658Y-91908650D02*
G01*
X156101153Y-91908650D01*
X156101153Y-91268387D01*
X156212264Y-91268387D01*
X156217436Y-91374815D01*
X156231937Y-91465268D01*
X156254512Y-91541952D01*
X156284304Y-91606816D01*
X156320891Y-91661496D01*
X156367270Y-91709638D01*
X156420721Y-91747059D01*
X156482236Y-91774393D01*
X156553297Y-91791515D01*
X156635781Y-91797539D01*
X156692954Y-91794309D01*
X156746423Y-91784838D01*
X156768574Y-91778000D01*
X156973080Y-91778000D01*
X157174642Y-91778000D01*
X157236069Y-91523987D01*
X157505896Y-91523987D01*
X157568789Y-91778000D01*
X157770289Y-91778000D01*
X157873970Y-91778000D01*
X158051596Y-91778000D01*
X158051596Y-91036784D01*
X158337115Y-91778000D01*
X158552354Y-91778000D01*
X158552354Y-91152738D01*
X159562360Y-91152738D01*
X159562360Y-91617776D01*
X159562360Y-91778000D01*
X159890988Y-91778000D01*
X159994773Y-91772744D01*
X160074564Y-91758657D01*
X160134970Y-91737811D01*
X160179928Y-91711565D01*
X160217303Y-91675114D01*
X160244752Y-91628837D01*
X160262335Y-91570532D01*
X160268710Y-91497059D01*
X160264506Y-91436511D01*
X160256081Y-91400400D01*
X160391564Y-91400400D01*
X160397944Y-91507101D01*
X160415201Y-91590220D01*
X160441140Y-91654294D01*
X160474546Y-91703078D01*
X160518944Y-91742178D01*
X160575875Y-91771512D01*
X160648267Y-91790577D01*
X160739977Y-91797539D01*
X160815360Y-91793006D01*
X160877664Y-91780411D01*
X160929024Y-91760905D01*
X160971232Y-91735110D01*
X161005652Y-91703078D01*
X161038923Y-91654316D01*
X161064769Y-91590251D01*
X161081968Y-91507126D01*
X161088328Y-91400400D01*
X161088328Y-91036356D01*
X161249406Y-91036356D01*
X161256003Y-91106611D01*
X161274351Y-91163063D01*
X161303384Y-91208608D01*
X161343747Y-91245825D01*
X161409603Y-91286500D01*
X161509708Y-91330791D01*
X161608748Y-91368771D01*
X161655692Y-91392884D01*
X161687944Y-91422626D01*
X161708399Y-91459436D01*
X161715299Y-91502188D01*
X161710462Y-91540422D01*
X161696785Y-91571086D01*
X161674267Y-91595978D01*
X161645125Y-91613774D01*
X161607446Y-91625284D01*
X161558862Y-91629500D01*
X161485421Y-91622890D01*
X161409568Y-91602511D01*
X161334812Y-91569429D01*
X161253497Y-91520079D01*
X161253497Y-91727197D01*
X161325950Y-91757813D01*
X161400715Y-91779770D01*
X161477059Y-91793129D01*
X161552695Y-91797539D01*
X161646696Y-91791819D01*
X161721786Y-91776169D01*
X161781383Y-91752321D01*
X161828323Y-91721213D01*
X161866868Y-91680047D01*
X161895117Y-91629321D01*
X161913088Y-91566988D01*
X161919547Y-91490220D01*
X161912630Y-91416437D01*
X161893033Y-91354492D01*
X161861479Y-91302031D01*
X161818366Y-91257864D01*
X161759211Y-91217808D01*
X161680495Y-91182230D01*
X161593727Y-91149074D01*
X161512363Y-91113834D01*
X161475148Y-91088441D01*
X161454015Y-91057662D01*
X161446815Y-91019015D01*
X161451380Y-90984812D01*
X161464297Y-90957593D01*
X161485711Y-90935667D01*
X161513234Y-90920372D01*
X161549742Y-90910284D01*
X161597757Y-90906541D01*
X161663061Y-90912175D01*
X161730259Y-90929500D01*
X161795898Y-90957292D01*
X161862150Y-90996422D01*
X161862150Y-90801028D01*
X161792409Y-90773771D01*
X161722749Y-90754317D01*
X161652199Y-90742432D01*
X161582065Y-90738502D01*
X161504574Y-90744076D01*
X161439426Y-90759744D01*
X161384518Y-90784460D01*
X161338188Y-90817942D01*
X161299974Y-90860497D01*
X161272508Y-90910063D01*
X161255424Y-90968030D01*
X161249406Y-91036356D01*
X161088328Y-91036356D01*
X161088328Y-90758041D01*
X160886828Y-90758041D01*
X160886828Y-91450897D01*
X160882036Y-91500406D01*
X160868781Y-91539547D01*
X160847871Y-91570576D01*
X160819344Y-91594179D01*
X160784037Y-91608700D01*
X160739916Y-91613868D01*
X160695834Y-91608703D01*
X160660523Y-91594184D01*
X160631960Y-91570576D01*
X160611085Y-91539552D01*
X160597850Y-91500411D01*
X160593065Y-91450897D01*
X160593065Y-90758041D01*
X160391564Y-90758041D01*
X160391564Y-91400400D01*
X160256081Y-91400400D01*
X160252754Y-91386138D01*
X160234348Y-91344199D01*
X160209603Y-91309297D01*
X160178076Y-91280359D01*
X160139223Y-91257425D01*
X160091704Y-91240574D01*
X160033748Y-91230468D01*
X160096496Y-91218579D01*
X160144888Y-91197051D01*
X160181943Y-91166660D01*
X160209090Y-91127171D01*
X160226284Y-91077246D01*
X160232501Y-91013947D01*
X160226606Y-90951384D01*
X160210047Y-90899957D01*
X160183600Y-90857402D01*
X160146772Y-90822216D01*
X160103116Y-90796204D01*
X160047727Y-90776114D01*
X159978029Y-90762881D01*
X159890988Y-90758041D01*
X159562360Y-90758041D01*
X159562360Y-91152738D01*
X158552354Y-91152738D01*
X158552354Y-90758041D01*
X158374729Y-90758041D01*
X158374729Y-91499257D01*
X158090552Y-90758041D01*
X157873970Y-90758041D01*
X157873970Y-91778000D01*
X157770289Y-91778000D01*
X157494966Y-90758041D01*
X157248403Y-90758041D01*
X157085952Y-91359856D01*
X156973080Y-91778000D01*
X156768574Y-91778000D01*
X156797852Y-91768962D01*
X156846868Y-91746736D01*
X156846868Y-91523987D01*
X156793900Y-91567373D01*
X156746118Y-91595184D01*
X156696283Y-91612178D01*
X156645367Y-91617776D01*
X156592072Y-91611956D01*
X156547612Y-91595395D01*
X156510055Y-91568344D01*
X156478305Y-91529605D01*
X156455670Y-91485297D01*
X156437980Y-91428807D01*
X156426249Y-91357508D01*
X156421946Y-91268387D01*
X156426256Y-91178847D01*
X156437999Y-91107327D01*
X156455691Y-91050765D01*
X156478305Y-91006497D01*
X156510059Y-90967728D01*
X156547618Y-90940659D01*
X156592076Y-90924088D01*
X156645367Y-90918265D01*
X156696283Y-90923863D01*
X156746118Y-90940857D01*
X156793900Y-90968668D01*
X156846868Y-91012054D01*
X156846868Y-90789304D01*
X156798896Y-90767157D01*
X156747095Y-90751203D01*
X156693041Y-90741723D01*
X156635781Y-90738502D01*
X156553297Y-90744526D01*
X156482236Y-90761648D01*
X156420721Y-90788982D01*
X156367270Y-90826402D01*
X156320891Y-90874545D01*
X156284326Y-90929211D01*
X156254538Y-90994124D01*
X156231955Y-91070936D01*
X156217442Y-91161615D01*
X156212264Y-91268387D01*
X156101153Y-91268387D01*
X156101153Y-90627391D01*
X162030658Y-90627391D01*
X162030658Y-91908650D01*
G37*
G36*
X136998076Y-80805311D02*
G01*
X137031691Y-80825196D01*
X137061508Y-80860561D01*
X137082178Y-80903544D01*
X137095586Y-80957470D01*
X137100465Y-81024937D01*
X137095576Y-81092908D01*
X137082157Y-81147077D01*
X137061508Y-81190106D01*
X137031695Y-81225433D01*
X136998081Y-81245300D01*
X136959048Y-81251960D01*
X136920412Y-81245341D01*
X136887118Y-81225582D01*
X136857565Y-81190411D01*
X136837154Y-81147633D01*
X136823841Y-81093399D01*
X136818975Y-81024937D01*
X136823829Y-80956979D01*
X136837131Y-80902965D01*
X136857565Y-80860195D01*
X136887118Y-80825024D01*
X136920412Y-80805265D01*
X136959048Y-80798646D01*
X136998076Y-80805311D01*
G37*
G36*
X136149860Y-80809380D02*
G01*
X136183435Y-80829608D01*
X136212520Y-80865446D01*
X136232202Y-80909026D01*
X136245247Y-80965767D01*
X136250072Y-81038981D01*
X136245248Y-81112194D01*
X136232204Y-81168958D01*
X136212520Y-81212576D01*
X136183439Y-81248376D01*
X136149865Y-81268586D01*
X136110060Y-81275408D01*
X136070292Y-81268572D01*
X136036950Y-81248358D01*
X136008272Y-81212576D01*
X135988957Y-81169008D01*
X135976136Y-81112244D01*
X135971391Y-81038981D01*
X135976137Y-80965717D01*
X135988959Y-80908976D01*
X136008272Y-80865446D01*
X136036955Y-80829625D01*
X136070297Y-80809394D01*
X136110060Y-80802554D01*
X136149860Y-80809380D01*
G37*
G36*
X137870376Y-80795894D02*
G01*
X137908052Y-80809736D01*
X137936752Y-80831435D01*
X137957786Y-80860856D01*
X137971684Y-80899791D01*
X137977419Y-80951053D01*
X137662529Y-80951725D01*
X137671916Y-80901987D01*
X137688289Y-80863060D01*
X137711011Y-80832779D01*
X137740698Y-80809889D01*
X137776742Y-80795815D01*
X137820981Y-80790830D01*
X137870376Y-80795894D01*
G37*
G36*
X133658369Y-80959886D02*
G01*
X133701178Y-80972713D01*
X133730463Y-80991536D01*
X133751582Y-81018698D01*
X133765508Y-81057359D01*
X133770763Y-81111521D01*
X133765636Y-81164841D01*
X133752232Y-81201742D01*
X133732173Y-81226681D01*
X133704180Y-81243412D01*
X133661121Y-81255168D01*
X133597290Y-81259776D01*
X133463384Y-81259776D01*
X133463384Y-80954961D01*
X133597290Y-80954961D01*
X133658369Y-80959886D01*
G37*
G36*
X133646826Y-80564060D02*
G01*
X133681633Y-80573934D01*
X133705489Y-80588353D01*
X133723063Y-80609353D01*
X133734417Y-80638495D01*
X133738645Y-80678539D01*
X133734469Y-80718635D01*
X133723332Y-80747394D01*
X133706222Y-80767749D01*
X133682850Y-80781493D01*
X133647920Y-80791035D01*
X133597290Y-80794738D01*
X133463384Y-80794738D01*
X133463384Y-80560265D01*
X133597290Y-80560265D01*
X133646826Y-80564060D01*
G37*
G36*
X138290030Y-81820294D02*
G01*
X131481495Y-81820294D01*
X131481495Y-81420000D01*
X131592606Y-81420000D01*
X131794106Y-81420000D01*
X131794106Y-80962777D01*
X132046165Y-80962777D01*
X132046165Y-81420000D01*
X132247726Y-81420000D01*
X132247726Y-81107369D01*
X132410819Y-81107369D01*
X133134938Y-81107369D01*
X133134938Y-80923698D01*
X132410819Y-80923698D01*
X132410819Y-81107369D01*
X132247726Y-81107369D01*
X132247726Y-80794738D01*
X133268661Y-80794738D01*
X133268661Y-81259776D01*
X133268661Y-81420000D01*
X133597290Y-81420000D01*
X133701074Y-81414744D01*
X133780865Y-81400657D01*
X133841271Y-81379811D01*
X133886229Y-81353565D01*
X133923604Y-81317114D01*
X133951053Y-81270837D01*
X133968636Y-81212532D01*
X133975011Y-81139059D01*
X133970807Y-81078511D01*
X133959056Y-81028138D01*
X133940649Y-80986199D01*
X133915905Y-80951297D01*
X133884377Y-80922359D01*
X133845525Y-80899425D01*
X133798006Y-80882574D01*
X133740050Y-80872468D01*
X133802797Y-80860579D01*
X133851189Y-80839051D01*
X133888244Y-80808660D01*
X133915391Y-80769171D01*
X133932585Y-80719246D01*
X133938802Y-80655947D01*
X133938624Y-80654054D01*
X134224261Y-80654054D01*
X134224261Y-81420000D01*
X134424418Y-81420000D01*
X134424418Y-81267592D01*
X134965294Y-81267592D01*
X134965294Y-81420000D01*
X135663401Y-81420000D01*
X135663401Y-81267592D01*
X135414762Y-81267592D01*
X135414762Y-81037027D01*
X135771234Y-81037027D01*
X135771341Y-81038981D01*
X135776567Y-81134702D01*
X135791315Y-81214979D01*
X135813985Y-81280660D01*
X135843652Y-81334148D01*
X135883972Y-81380658D01*
X135930399Y-81413014D01*
X135984116Y-81432684D01*
X136047168Y-81439539D01*
X136092157Y-81435640D01*
X136131779Y-81424402D01*
X136167030Y-81406078D01*
X136198023Y-81380945D01*
X136225685Y-81348078D01*
X136250072Y-81306243D01*
X136250072Y-81420000D01*
X136449558Y-81420000D01*
X136449558Y-81030554D01*
X136618818Y-81030554D01*
X136624319Y-81119353D01*
X136639725Y-81193995D01*
X136663818Y-81256727D01*
X136695999Y-81309419D01*
X136738434Y-81354755D01*
X136786442Y-81386355D01*
X136841148Y-81405531D01*
X136904399Y-81412184D01*
X136950200Y-81408941D01*
X136989210Y-81399780D01*
X137022551Y-81385256D01*
X137052308Y-81364565D01*
X137078205Y-81337461D01*
X137100465Y-81303068D01*
X137100465Y-81386660D01*
X137095281Y-81440899D01*
X137081398Y-81480686D01*
X137060165Y-81509576D01*
X137030776Y-81530275D01*
X136990286Y-81543873D01*
X136935113Y-81548960D01*
X136873636Y-81545106D01*
X136814212Y-81533633D01*
X136756467Y-81514401D01*
X136698747Y-81486434D01*
X136698747Y-81670104D01*
X136762309Y-81687556D01*
X136823738Y-81699596D01*
X136885499Y-81706780D01*
X136948118Y-81709183D01*
X137043211Y-81702986D01*
X137117171Y-81686204D01*
X137174173Y-81660856D01*
X137217579Y-81627911D01*
X137251383Y-81585181D01*
X137277256Y-81529230D01*
X137294329Y-81456807D01*
X137300622Y-81363824D01*
X137300622Y-81039774D01*
X137456876Y-81039774D01*
X137461552Y-81118787D01*
X137474743Y-81186428D01*
X137495512Y-81244371D01*
X137523368Y-81294036D01*
X137558298Y-81336530D01*
X137600316Y-81372086D01*
X137649423Y-81400378D01*
X137706709Y-81421438D01*
X137773592Y-81434803D01*
X137851756Y-81439539D01*
X137931132Y-81435796D01*
X138004774Y-81424884D01*
X138076312Y-81406626D01*
X138146862Y-81380921D01*
X138146862Y-81197250D01*
X138073556Y-81234996D01*
X138006789Y-81259654D01*
X137939259Y-81274413D01*
X137870868Y-81279316D01*
X137802440Y-81273560D01*
X137751395Y-81258128D01*
X137713698Y-81234741D01*
X137685390Y-81201512D01*
X137667347Y-81157575D01*
X137660453Y-81099553D01*
X138178919Y-81099553D01*
X138178919Y-81019258D01*
X138172264Y-80927620D01*
X138153646Y-80851464D01*
X138124415Y-80788076D01*
X138084947Y-80735326D01*
X138034941Y-80692374D01*
X137975633Y-80661130D01*
X137905159Y-80641487D01*
X137820981Y-80634515D01*
X137753628Y-80639260D01*
X137694462Y-80652852D01*
X137642199Y-80674698D01*
X137595811Y-80704725D01*
X137554573Y-80743386D01*
X137513292Y-80800175D01*
X137482906Y-80867115D01*
X137463696Y-80946154D01*
X137463290Y-80951725D01*
X137456876Y-81039774D01*
X137300622Y-81039774D01*
X137300622Y-80654054D01*
X137100465Y-80654054D01*
X137100465Y-80752056D01*
X137078156Y-80717115D01*
X137051390Y-80688403D01*
X137019865Y-80665289D01*
X136984590Y-80648368D01*
X136945890Y-80638059D01*
X136902995Y-80634515D01*
X136840753Y-80641346D01*
X136786596Y-80661127D01*
X136738699Y-80693951D01*
X136695999Y-80741432D01*
X136663882Y-80796039D01*
X136639773Y-80861085D01*
X136624334Y-80938494D01*
X136619155Y-81024937D01*
X136618818Y-81030554D01*
X136449558Y-81030554D01*
X136449558Y-80357055D01*
X136250072Y-80357055D01*
X136250072Y-80762620D01*
X136223008Y-80721991D01*
X136194447Y-80690393D01*
X136164343Y-80666571D01*
X136130564Y-80648839D01*
X136094034Y-80638159D01*
X136054006Y-80634515D01*
X135988287Y-80641383D01*
X135932788Y-80660983D01*
X135885340Y-80692972D01*
X135844629Y-80738562D01*
X135814665Y-80791393D01*
X135791688Y-80856943D01*
X135776681Y-80937809D01*
X135771234Y-81037027D01*
X135414762Y-81037027D01*
X135414762Y-80654054D01*
X135018539Y-80654054D01*
X135018539Y-80806461D01*
X135214605Y-80806461D01*
X135214605Y-81267592D01*
X134965294Y-81267592D01*
X134424418Y-81267592D01*
X134424418Y-81066946D01*
X134426328Y-80995844D01*
X134430891Y-80953740D01*
X134440179Y-80918392D01*
X134453788Y-80890237D01*
X134484898Y-80852723D01*
X134527183Y-80825024D01*
X134577377Y-80808443D01*
X134638253Y-80802554D01*
X134689391Y-80806576D01*
X134734851Y-80818185D01*
X134776262Y-80837816D01*
X134811726Y-80865080D01*
X134811726Y-80673593D01*
X134775272Y-80656731D01*
X134736927Y-80644467D01*
X134697293Y-80637010D01*
X134656693Y-80634515D01*
X134603439Y-80638682D01*
X134556410Y-80650674D01*
X134514544Y-80670113D01*
X134477489Y-80697156D01*
X134447640Y-80730472D01*
X134424418Y-80770802D01*
X134424418Y-80654054D01*
X134224261Y-80654054D01*
X133938624Y-80654054D01*
X133932907Y-80593384D01*
X133916349Y-80541957D01*
X133901011Y-80517278D01*
X135214605Y-80517278D01*
X135414762Y-80517278D01*
X135414762Y-80282805D01*
X135214605Y-80282805D01*
X135214605Y-80517278D01*
X133901011Y-80517278D01*
X133889901Y-80499402D01*
X133853073Y-80464216D01*
X133809418Y-80438204D01*
X133754029Y-80418114D01*
X133684331Y-80404881D01*
X133597290Y-80400041D01*
X133268661Y-80400041D01*
X133268661Y-80794738D01*
X132247726Y-80794738D01*
X132247726Y-80400041D01*
X132046165Y-80400041D01*
X132046165Y-80786922D01*
X131794106Y-80786922D01*
X131794106Y-80400041D01*
X131592606Y-80400041D01*
X131592606Y-81420000D01*
X131481495Y-81420000D01*
X131481495Y-80171694D01*
X138290030Y-80171694D01*
X138290030Y-81820294D01*
G37*
G36*
X134326650Y-94540370D02*
G01*
X133045391Y-94540370D01*
X133045391Y-93946269D01*
X133176041Y-93946269D01*
X133623311Y-94067169D01*
X133176041Y-94188802D01*
X133176041Y-94429259D01*
X134196000Y-94429259D01*
X134196000Y-94255725D01*
X133378824Y-94255725D01*
X133824750Y-94146426D01*
X133824750Y-93985897D01*
X133378824Y-93878003D01*
X134196000Y-93878003D01*
X134196000Y-93704468D01*
X133176041Y-93704468D01*
X133176041Y-93946269D01*
X133045391Y-93946269D01*
X133045391Y-93118469D01*
X133156502Y-93118469D01*
X133162526Y-93200952D01*
X133179648Y-93272014D01*
X133206982Y-93333529D01*
X133244402Y-93386980D01*
X133292545Y-93433359D01*
X133347211Y-93469924D01*
X133412124Y-93499712D01*
X133488936Y-93522295D01*
X133579615Y-93536807D01*
X133686387Y-93541986D01*
X133792815Y-93536813D01*
X133883268Y-93522312D01*
X133959952Y-93499737D01*
X134024816Y-93469946D01*
X134079496Y-93433359D01*
X134127638Y-93386980D01*
X134165059Y-93333529D01*
X134192393Y-93272014D01*
X134209515Y-93200952D01*
X134215539Y-93118469D01*
X134212309Y-93061296D01*
X134202838Y-93007827D01*
X134186962Y-92956398D01*
X134164736Y-92907382D01*
X133941987Y-92907382D01*
X133985373Y-92960350D01*
X134013184Y-93008132D01*
X134030178Y-93057967D01*
X134035776Y-93108882D01*
X134029956Y-93162178D01*
X134013395Y-93206637D01*
X133986344Y-93244194D01*
X133947605Y-93275944D01*
X133903297Y-93298579D01*
X133846807Y-93316270D01*
X133775508Y-93328001D01*
X133686387Y-93332303D01*
X133596847Y-93327993D01*
X133525327Y-93316250D01*
X133468765Y-93298558D01*
X133424497Y-93275944D01*
X133385728Y-93244190D01*
X133358659Y-93206632D01*
X133342088Y-93162174D01*
X133336265Y-93108882D01*
X133341863Y-93057967D01*
X133358857Y-93008132D01*
X133386668Y-92960350D01*
X133430054Y-92907382D01*
X133207304Y-92907382D01*
X133185157Y-92955354D01*
X133169203Y-93007155D01*
X133159723Y-93061208D01*
X133156502Y-93118469D01*
X133045391Y-93118469D01*
X133045391Y-92236019D01*
X133176041Y-92236019D01*
X133868897Y-92236019D01*
X133918406Y-92240811D01*
X133957547Y-92254066D01*
X133988576Y-92274976D01*
X134012179Y-92303503D01*
X134026700Y-92338810D01*
X134031868Y-92382931D01*
X134026703Y-92427013D01*
X134012184Y-92462324D01*
X133988576Y-92490887D01*
X133957552Y-92511762D01*
X133918411Y-92524997D01*
X133868897Y-92529782D01*
X133176041Y-92529782D01*
X133176041Y-92731283D01*
X133818400Y-92731283D01*
X133925101Y-92724903D01*
X134008220Y-92707646D01*
X134072294Y-92681707D01*
X134121078Y-92648301D01*
X134160178Y-92603903D01*
X134189512Y-92546973D01*
X134208577Y-92474580D01*
X134215539Y-92382870D01*
X134211006Y-92307487D01*
X134198411Y-92245183D01*
X134178905Y-92193823D01*
X134153110Y-92151615D01*
X134121078Y-92117195D01*
X134072316Y-92083924D01*
X134008251Y-92058078D01*
X133925126Y-92040879D01*
X133818400Y-92034519D01*
X133176041Y-92034519D01*
X133176041Y-92236019D01*
X133045391Y-92236019D01*
X133045391Y-91923408D01*
X134326650Y-91923408D01*
X134326650Y-94540370D01*
G37*
G36*
X132041417Y-101630286D02*
G01*
X132084226Y-101643113D01*
X132113511Y-101661936D01*
X132134630Y-101689098D01*
X132148556Y-101727759D01*
X132153811Y-101781921D01*
X132148684Y-101835241D01*
X132135280Y-101872142D01*
X132115221Y-101897081D01*
X132087228Y-101913812D01*
X132044169Y-101925568D01*
X131980338Y-101930176D01*
X131846432Y-101930176D01*
X131846432Y-101625361D01*
X131980338Y-101625361D01*
X132041417Y-101630286D01*
G37*
G36*
X132029874Y-101234460D02*
G01*
X132064681Y-101244334D01*
X132088537Y-101258753D01*
X132106111Y-101279753D01*
X132117465Y-101308895D01*
X132121693Y-101348939D01*
X132117517Y-101389035D01*
X132106380Y-101417794D01*
X132089270Y-101438149D01*
X132065898Y-101451893D01*
X132030968Y-101461435D01*
X131980338Y-101465138D01*
X131846432Y-101465138D01*
X131846432Y-101230665D01*
X131980338Y-101230665D01*
X132029874Y-101234460D01*
G37*
G36*
X135022302Y-102221050D02*
G01*
X127289551Y-102221050D01*
X127289551Y-101570651D01*
X127400662Y-101570651D01*
X127400662Y-101734782D01*
X127695769Y-101734782D01*
X127695769Y-102027873D01*
X127857702Y-102027873D01*
X127857702Y-101871558D01*
X128283112Y-101871558D01*
X128283112Y-102059136D01*
X128352678Y-102080835D01*
X128426238Y-102096872D01*
X128501485Y-102106659D01*
X128578218Y-102109939D01*
X128670030Y-102104220D01*
X128744743Y-102088433D01*
X128805320Y-102064125D01*
X128854213Y-102032087D01*
X128894878Y-101989933D01*
X128924227Y-101939469D01*
X128942624Y-101879003D01*
X128949162Y-101806101D01*
X128942236Y-101734389D01*
X128922808Y-101675782D01*
X128891765Y-101627559D01*
X128849421Y-101588835D01*
X128794821Y-101559669D01*
X128725130Y-101540487D01*
X128786753Y-101523242D01*
X128835360Y-101497882D01*
X128873325Y-101464833D01*
X128901684Y-101423562D01*
X128919139Y-101374614D01*
X128925287Y-101315905D01*
X128919321Y-101255676D01*
X128902262Y-101204285D01*
X128874472Y-101159924D01*
X128835101Y-101121427D01*
X128788763Y-101092161D01*
X128733498Y-101070441D01*
X129078855Y-101070441D01*
X129321327Y-102090400D01*
X129600741Y-102090400D01*
X129652779Y-101871558D01*
X129967410Y-101871558D01*
X129967410Y-102059136D01*
X130036977Y-102080835D01*
X130110537Y-102096872D01*
X130185784Y-102106659D01*
X130262517Y-102109939D01*
X130354329Y-102104220D01*
X130429042Y-102088433D01*
X130489619Y-102064125D01*
X130538511Y-102032087D01*
X130579177Y-101989933D01*
X130608526Y-101939469D01*
X130626923Y-101879003D01*
X130633461Y-101806101D01*
X130626534Y-101734389D01*
X130607107Y-101675782D01*
X130576064Y-101627559D01*
X130533719Y-101588835D01*
X130479119Y-101559669D01*
X130409429Y-101540487D01*
X130471051Y-101523242D01*
X130519659Y-101497882D01*
X130557273Y-101465138D01*
X131651709Y-101465138D01*
X131651709Y-101930176D01*
X131651709Y-102090400D01*
X131980338Y-102090400D01*
X132084122Y-102085144D01*
X132163913Y-102071057D01*
X132224319Y-102050211D01*
X132269277Y-102023965D01*
X132306652Y-101987514D01*
X132334101Y-101941237D01*
X132351684Y-101882932D01*
X132356904Y-101822770D01*
X132517794Y-101822770D01*
X132521964Y-101895375D01*
X132533393Y-101953771D01*
X132550814Y-102000436D01*
X132573482Y-102037460D01*
X132603919Y-102068570D01*
X132640608Y-102090943D01*
X132684826Y-102104954D01*
X132738468Y-102109939D01*
X132785177Y-102105840D01*
X132825637Y-102094102D01*
X132861016Y-102075073D01*
X132891391Y-102048934D01*
X132915333Y-102016465D01*
X132933129Y-101976643D01*
X132933129Y-102090400D01*
X133133286Y-102090400D01*
X133133286Y-101708098D01*
X133365439Y-101708098D01*
X133372427Y-101802215D01*
X133392061Y-101881125D01*
X133423060Y-101947475D01*
X133465151Y-102003327D01*
X133506945Y-102040814D01*
X133554528Y-102070181D01*
X133608734Y-102091717D01*
X133670700Y-102105206D01*
X133741817Y-102109939D01*
X133807386Y-102106174D01*
X133866809Y-102095284D01*
X133881780Y-102090400D01*
X134211679Y-102090400D01*
X134411836Y-102090400D01*
X134411836Y-101797674D01*
X134480102Y-101732034D01*
X134689846Y-102090400D01*
X134911191Y-102090400D01*
X134605155Y-101610340D01*
X134894766Y-101324454D01*
X134652293Y-101324454D01*
X134411836Y-101585000D01*
X134411836Y-101027455D01*
X134211679Y-101027455D01*
X134211679Y-102090400D01*
X133881780Y-102090400D01*
X133923159Y-102076901D01*
X133975436Y-102051321D01*
X133975436Y-101867650D01*
X133928407Y-101902436D01*
X133879814Y-101926451D01*
X133827842Y-101940886D01*
X133771187Y-101945808D01*
X133723047Y-101941579D01*
X133682893Y-101929661D01*
X133649191Y-101910641D01*
X133620856Y-101884320D01*
X133592979Y-101840358D01*
X133574919Y-101782904D01*
X133568283Y-101708098D01*
X133574903Y-101633288D01*
X133592952Y-101575581D01*
X133620856Y-101531206D01*
X133649235Y-101504565D01*
X133682954Y-101485342D01*
X133723093Y-101473312D01*
X133771187Y-101469046D01*
X133826243Y-101474097D01*
X133879448Y-101489257D01*
X133929404Y-101513744D01*
X133975436Y-101547203D01*
X133975436Y-101363533D01*
X133918025Y-101337239D01*
X133861679Y-101319264D01*
X133803852Y-101308540D01*
X133743161Y-101304915D01*
X133672086Y-101309653D01*
X133610058Y-101323171D01*
X133555703Y-101344769D01*
X133507898Y-101374243D01*
X133465823Y-101411893D01*
X133423438Y-101467929D01*
X133392233Y-101534496D01*
X133372472Y-101613665D01*
X133365439Y-101708098D01*
X133133286Y-101708098D01*
X133133286Y-101324454D01*
X132933129Y-101324454D01*
X132933129Y-101763969D01*
X132929214Y-101820870D01*
X132918651Y-101864641D01*
X132902721Y-101897997D01*
X132879359Y-101924954D01*
X132851753Y-101940487D01*
X132818396Y-101945808D01*
X132784289Y-101941430D01*
X132759325Y-101929475D01*
X132741154Y-101910270D01*
X132729490Y-101885216D01*
X132721198Y-101847291D01*
X132717951Y-101791996D01*
X132717951Y-101324454D01*
X132517794Y-101324454D01*
X132517794Y-101822770D01*
X132356904Y-101822770D01*
X132358059Y-101809459D01*
X132353855Y-101748911D01*
X132342104Y-101698538D01*
X132323697Y-101656599D01*
X132298953Y-101621697D01*
X132267425Y-101592759D01*
X132228573Y-101569825D01*
X132181054Y-101552974D01*
X132123098Y-101542868D01*
X132185845Y-101530979D01*
X132234237Y-101509451D01*
X132271292Y-101479060D01*
X132298439Y-101439571D01*
X132315633Y-101389646D01*
X132321850Y-101326347D01*
X132315955Y-101263784D01*
X132299397Y-101212357D01*
X132272949Y-101169802D01*
X132236121Y-101134616D01*
X132192466Y-101108604D01*
X132137077Y-101088514D01*
X132067379Y-101075281D01*
X131980338Y-101070441D01*
X131651709Y-101070441D01*
X131651709Y-101465138D01*
X130557273Y-101465138D01*
X130557623Y-101464833D01*
X130585983Y-101423562D01*
X130603438Y-101374614D01*
X130609586Y-101315905D01*
X130603619Y-101255676D01*
X130586561Y-101204285D01*
X130558771Y-101159924D01*
X130519399Y-101121427D01*
X130473062Y-101092161D01*
X130417044Y-101070145D01*
X130349454Y-101055986D01*
X130268012Y-101050902D01*
X130204607Y-101053613D01*
X130136854Y-101062015D01*
X130068521Y-101075395D01*
X129998185Y-101093889D01*
X129998185Y-101277559D01*
X130068338Y-101253752D01*
X130134106Y-101236893D01*
X130198866Y-101226221D01*
X130257082Y-101222849D01*
X130306262Y-101226886D01*
X130344277Y-101237866D01*
X130373525Y-101254723D01*
X130396356Y-101278558D01*
X130410054Y-101307597D01*
X130414863Y-101343505D01*
X130410092Y-101377502D01*
X130396451Y-101404973D01*
X130373525Y-101427524D01*
X130344439Y-101443219D01*
X130306429Y-101453520D01*
X130257082Y-101457322D01*
X130149127Y-101457322D01*
X130149127Y-101633177D01*
X130257082Y-101633177D01*
X130313876Y-101638511D01*
X130358026Y-101653139D01*
X130392332Y-101675980D01*
X130418270Y-101707451D01*
X130434368Y-101747146D01*
X130440142Y-101797552D01*
X130434648Y-101838196D01*
X130418858Y-101871772D01*
X130392332Y-101900012D01*
X130358490Y-101920316D01*
X130315977Y-101933293D01*
X130262517Y-101937992D01*
X130181768Y-101933691D01*
X130106079Y-101921078D01*
X130033705Y-101900035D01*
X129967410Y-101871558D01*
X129652779Y-101871558D01*
X129843274Y-101070441D01*
X129640369Y-101070441D01*
X129460729Y-101922360D01*
X129281699Y-101070441D01*
X129078855Y-101070441D01*
X128733498Y-101070441D01*
X128732745Y-101070145D01*
X128665155Y-101055986D01*
X128583714Y-101050902D01*
X128520308Y-101053613D01*
X128452555Y-101062015D01*
X128384222Y-101075395D01*
X128313886Y-101093889D01*
X128313886Y-101277559D01*
X128384040Y-101253752D01*
X128449807Y-101236893D01*
X128514567Y-101226221D01*
X128572784Y-101222849D01*
X128621963Y-101226886D01*
X128659978Y-101237866D01*
X128689227Y-101254723D01*
X128712058Y-101278558D01*
X128725756Y-101307597D01*
X128730565Y-101343505D01*
X128725793Y-101377502D01*
X128712152Y-101404973D01*
X128689227Y-101427524D01*
X128660141Y-101443219D01*
X128622130Y-101453520D01*
X128572784Y-101457322D01*
X128464828Y-101457322D01*
X128464828Y-101633177D01*
X128572784Y-101633177D01*
X128629577Y-101638511D01*
X128673727Y-101653139D01*
X128708033Y-101675980D01*
X128733971Y-101707451D01*
X128750069Y-101747146D01*
X128755844Y-101797552D01*
X128750350Y-101838196D01*
X128734560Y-101871772D01*
X128708033Y-101900012D01*
X128674191Y-101920316D01*
X128631678Y-101933293D01*
X128578218Y-101937992D01*
X128497469Y-101933691D01*
X128421781Y-101921078D01*
X128349407Y-101900035D01*
X128283112Y-101871558D01*
X127857702Y-101871558D01*
X127857702Y-101734782D01*
X128151404Y-101734782D01*
X128151404Y-101570651D01*
X127857702Y-101570651D01*
X127857702Y-101277559D01*
X127695769Y-101277559D01*
X127695769Y-101570651D01*
X127400662Y-101570651D01*
X127289551Y-101570651D01*
X127289551Y-100916344D01*
X135022302Y-100916344D01*
X135022302Y-102221050D01*
G37*
G36*
X140505035Y-103797682D02*
G01*
X140533794Y-103808819D01*
X140554149Y-103825929D01*
X140567893Y-103849301D01*
X140577435Y-103884231D01*
X140581138Y-103934861D01*
X140581138Y-104068767D01*
X140346665Y-104068767D01*
X140346665Y-103934861D01*
X140350460Y-103885325D01*
X140360334Y-103850518D01*
X140374753Y-103826662D01*
X140395753Y-103809088D01*
X140424895Y-103797734D01*
X140464939Y-103793506D01*
X140505035Y-103797682D01*
G37*
G36*
X140951241Y-103766515D02*
G01*
X140988142Y-103779919D01*
X141013081Y-103799978D01*
X141029812Y-103827971D01*
X141041568Y-103871030D01*
X141046176Y-103934861D01*
X141046176Y-104068767D01*
X140741361Y-104068767D01*
X140741361Y-103934861D01*
X140746286Y-103873782D01*
X140759113Y-103830973D01*
X140777936Y-103801688D01*
X140805098Y-103780569D01*
X140843759Y-103766643D01*
X140897921Y-103761388D01*
X140951241Y-103766515D01*
G37*
G36*
X141337050Y-108625648D02*
G01*
X140032344Y-108625648D01*
X140032344Y-108057497D01*
X140393559Y-108057497D01*
X140393559Y-108219430D01*
X140686651Y-108219430D01*
X140686651Y-108514537D01*
X140850782Y-108514537D01*
X140850782Y-108219430D01*
X141143873Y-108219430D01*
X141143873Y-108057497D01*
X140850782Y-108057497D01*
X140850782Y-107763795D01*
X140686651Y-107763795D01*
X140686651Y-108057497D01*
X140393559Y-108057497D01*
X140032344Y-108057497D01*
X140032344Y-107167537D01*
X140186441Y-107167537D01*
X140186441Y-107362199D01*
X140237244Y-107573286D01*
X140420915Y-107573286D01*
X140366204Y-107363603D01*
X141030545Y-107363603D01*
X141030545Y-107589039D01*
X141206400Y-107589039D01*
X141206400Y-106942101D01*
X141030545Y-106942101D01*
X141030545Y-107167537D01*
X140186441Y-107167537D01*
X140032344Y-107167537D01*
X140032344Y-106497518D01*
X140166902Y-106497518D01*
X140170320Y-106562313D01*
X140180946Y-106631791D01*
X140197884Y-106701770D01*
X140221612Y-106774856D01*
X140409191Y-106774856D01*
X140373238Y-106701695D01*
X140348130Y-106634477D01*
X140332017Y-106568409D01*
X140327125Y-106513211D01*
X140331773Y-106464011D01*
X140344520Y-106425785D01*
X140364433Y-106396096D01*
X140391796Y-106373678D01*
X140426309Y-106359754D01*
X140470129Y-106354758D01*
X140514109Y-106360206D01*
X140560133Y-106377290D01*
X140606005Y-106404928D01*
X140664425Y-106451051D01*
X140919658Y-106687417D01*
X141035979Y-106796716D01*
X141206400Y-106796716D01*
X141206400Y-106149167D01*
X141030545Y-106149167D01*
X141030545Y-106578851D01*
X140889372Y-106438778D01*
X140739231Y-106292638D01*
X140679629Y-106240025D01*
X140615274Y-106196429D01*
X140562392Y-106170660D01*
X140508197Y-106155629D01*
X140449308Y-106150510D01*
X140385531Y-106156651D01*
X140330960Y-106174209D01*
X140283750Y-106202763D01*
X140242678Y-106243078D01*
X140210990Y-106290899D01*
X140187367Y-106347992D01*
X140172287Y-106416137D01*
X140166902Y-106497518D01*
X140032344Y-106497518D01*
X140032344Y-105432680D01*
X140186441Y-105432680D01*
X141038360Y-105612321D01*
X140186441Y-105791351D01*
X140186441Y-105994195D01*
X141206400Y-105751723D01*
X141206400Y-105472309D01*
X140186441Y-105229776D01*
X140186441Y-105432680D01*
X140032344Y-105432680D01*
X140032344Y-103934861D01*
X140186441Y-103934861D01*
X140186441Y-104263490D01*
X141206400Y-104263490D01*
X141206400Y-103934861D01*
X141201144Y-103831077D01*
X141187057Y-103751286D01*
X141166211Y-103690880D01*
X141139965Y-103645922D01*
X141103514Y-103608547D01*
X141057237Y-103581098D01*
X140998932Y-103563515D01*
X140925459Y-103557140D01*
X140864911Y-103561344D01*
X140814538Y-103573095D01*
X140772599Y-103591502D01*
X140737697Y-103616246D01*
X140708759Y-103647774D01*
X140685825Y-103686626D01*
X140668974Y-103734145D01*
X140658868Y-103792101D01*
X140646979Y-103729354D01*
X140625451Y-103680962D01*
X140595060Y-103643907D01*
X140555571Y-103616760D01*
X140505646Y-103599566D01*
X140442347Y-103593349D01*
X140379784Y-103599244D01*
X140328357Y-103615802D01*
X140285802Y-103642250D01*
X140250616Y-103679078D01*
X140224604Y-103722733D01*
X140204514Y-103778122D01*
X140191281Y-103847820D01*
X140186441Y-103934861D01*
X140032344Y-103934861D01*
X140032344Y-102982070D01*
X140440454Y-102982070D01*
X140879969Y-102982070D01*
X140936870Y-102985985D01*
X140980641Y-102996548D01*
X141013997Y-103012478D01*
X141040954Y-103035840D01*
X141056487Y-103063446D01*
X141061808Y-103096803D01*
X141057430Y-103130910D01*
X141045475Y-103155874D01*
X141026270Y-103174045D01*
X141001216Y-103185709D01*
X140963291Y-103194001D01*
X140907996Y-103197248D01*
X140440454Y-103197248D01*
X140440454Y-103397405D01*
X140938770Y-103397405D01*
X141011375Y-103393235D01*
X141069771Y-103381806D01*
X141116436Y-103364385D01*
X141153460Y-103341717D01*
X141184570Y-103311280D01*
X141206943Y-103274591D01*
X141220954Y-103230373D01*
X141225939Y-103176731D01*
X141221840Y-103130022D01*
X141210102Y-103089562D01*
X141191073Y-103054183D01*
X141164934Y-103023808D01*
X141132465Y-102999866D01*
X141092643Y-102982070D01*
X141206400Y-102982070D01*
X141206400Y-102781913D01*
X140440454Y-102781913D01*
X140440454Y-102982070D01*
X140032344Y-102982070D01*
X140032344Y-102172038D01*
X140420915Y-102172038D01*
X140425653Y-102243113D01*
X140439171Y-102305141D01*
X140460769Y-102359496D01*
X140490243Y-102407301D01*
X140527893Y-102449376D01*
X140583929Y-102491761D01*
X140650496Y-102522966D01*
X140729665Y-102542727D01*
X140824098Y-102549760D01*
X140918215Y-102542772D01*
X140997125Y-102523138D01*
X141063475Y-102492139D01*
X141119327Y-102450048D01*
X141156814Y-102408254D01*
X141186181Y-102360671D01*
X141207717Y-102306465D01*
X141221206Y-102244499D01*
X141225939Y-102173382D01*
X141222174Y-102107813D01*
X141211284Y-102048390D01*
X141192901Y-101992040D01*
X141167321Y-101939763D01*
X140983650Y-101939763D01*
X141018436Y-101986792D01*
X141042451Y-102035385D01*
X141056886Y-102087357D01*
X141061808Y-102144012D01*
X141057579Y-102192152D01*
X141045661Y-102232306D01*
X141026641Y-102266008D01*
X141000320Y-102294343D01*
X140956358Y-102322220D01*
X140898904Y-102340280D01*
X140824098Y-102346916D01*
X140749288Y-102340296D01*
X140691581Y-102322247D01*
X140647206Y-102294343D01*
X140620565Y-102265964D01*
X140601342Y-102232245D01*
X140589312Y-102192106D01*
X140585046Y-102144012D01*
X140590097Y-102088956D01*
X140605257Y-102035751D01*
X140629744Y-101985795D01*
X140663203Y-101939763D01*
X140479533Y-101939763D01*
X140453239Y-101997174D01*
X140435264Y-102053520D01*
X140424540Y-102111347D01*
X140420915Y-102172038D01*
X140032344Y-102172038D01*
X140032344Y-101503363D01*
X140143455Y-101503363D01*
X140143455Y-101703520D01*
X141206400Y-101703520D01*
X141206400Y-101503363D01*
X140913674Y-101503363D01*
X140848034Y-101435097D01*
X141206400Y-101225353D01*
X141206400Y-101004008D01*
X140726340Y-101310044D01*
X140440454Y-101020433D01*
X140440454Y-101262906D01*
X140701000Y-101503363D01*
X140143455Y-101503363D01*
X140032344Y-101503363D01*
X140032344Y-100892897D01*
X141337050Y-100892897D01*
X141337050Y-108625648D01*
G37*
G36*
X141659044Y-90721013D02*
G01*
X141653494Y-90791954D01*
X141638408Y-90846949D01*
X141615324Y-90889357D01*
X141582330Y-90922732D01*
X141542122Y-90942607D01*
X141492348Y-90949563D01*
X141458575Y-90945856D01*
X141431273Y-90935439D01*
X141409000Y-90918605D01*
X141392286Y-90896208D01*
X141381956Y-90868910D01*
X141378287Y-90835318D01*
X141383838Y-90790824D01*
X141398845Y-90758890D01*
X141422678Y-90736217D01*
X141454117Y-90721863D01*
X141503936Y-90711427D01*
X141579115Y-90707274D01*
X141659044Y-90707274D01*
X141659044Y-90721013D01*
G37*
G36*
X143261579Y-90442694D02*
G01*
X143299255Y-90456536D01*
X143327955Y-90478235D01*
X143348988Y-90507656D01*
X143362887Y-90546591D01*
X143368622Y-90597853D01*
X143053731Y-90598525D01*
X143063119Y-90548787D01*
X143079492Y-90509860D01*
X143102214Y-90479579D01*
X143131900Y-90456689D01*
X143167944Y-90442615D01*
X143212184Y-90437630D01*
X143261579Y-90442694D01*
G37*
G36*
X148314475Y-90442694D02*
G01*
X148352151Y-90456536D01*
X148380851Y-90478235D01*
X148401884Y-90507656D01*
X148415783Y-90546591D01*
X148421518Y-90597853D01*
X148106627Y-90598525D01*
X148116015Y-90548787D01*
X148132388Y-90509860D01*
X148155110Y-90479579D01*
X148184797Y-90456689D01*
X148220840Y-90442615D01*
X148265080Y-90437630D01*
X148314475Y-90442694D01*
G37*
G36*
X144878107Y-90235835D02*
G01*
X144924282Y-90250476D01*
X144960530Y-90273332D01*
X144988684Y-90304579D01*
X145008278Y-90341635D01*
X145024188Y-90393123D01*
X145035119Y-90462985D01*
X145039243Y-90555782D01*
X145035113Y-90649360D01*
X145024172Y-90719738D01*
X145008260Y-90771538D01*
X144988684Y-90808757D01*
X144960510Y-90840150D01*
X144924250Y-90863097D01*
X144878082Y-90877789D01*
X144819302Y-90883129D01*
X144764653Y-90883129D01*
X144764653Y-90230512D01*
X144819302Y-90230512D01*
X144878107Y-90235835D01*
G37*
G36*
X149577683Y-91197450D02*
G01*
X140227617Y-91197450D01*
X140227617Y-90557187D01*
X140338728Y-90557187D01*
X140343825Y-90661967D01*
X140358152Y-90751568D01*
X140380529Y-90828043D01*
X140410149Y-90893206D01*
X140446622Y-90948586D01*
X140492947Y-90997770D01*
X140545629Y-91035715D01*
X140605532Y-91063228D01*
X140673988Y-91080346D01*
X140752720Y-91086339D01*
X140830808Y-91079878D01*
X140902624Y-91060938D01*
X140969484Y-91029569D01*
X141030729Y-90985955D01*
X141030729Y-90824511D01*
X141165185Y-90824511D01*
X141166071Y-90835318D01*
X141170210Y-90885774D01*
X141184380Y-90937198D01*
X141206925Y-90980589D01*
X141237908Y-91017279D01*
X141276088Y-91046403D01*
X141321637Y-91067870D01*
X141376020Y-91081486D01*
X141441118Y-91086339D01*
X141507184Y-91079465D01*
X141566109Y-91059411D01*
X141617818Y-91026620D01*
X141659044Y-90982597D01*
X141659044Y-91066800D01*
X141857857Y-91066800D01*
X141857857Y-90629849D01*
X141851808Y-90528389D01*
X141835757Y-90452681D01*
X141812151Y-90397205D01*
X141782325Y-90357457D01*
X141742789Y-90327075D01*
X141688746Y-90303305D01*
X141677640Y-90300854D01*
X142018936Y-90300854D01*
X142018936Y-90453261D01*
X142214269Y-90453261D01*
X142214269Y-90808391D01*
X142219142Y-90885020D01*
X142232039Y-90941680D01*
X142251007Y-90982797D01*
X142275085Y-91011906D01*
X142306349Y-91032956D01*
X142352304Y-91050179D01*
X142417654Y-91062194D01*
X142508032Y-91066800D01*
X142676071Y-91066800D01*
X142676071Y-90914392D01*
X142522381Y-90914392D01*
X142484140Y-90911368D01*
X142457466Y-90903515D01*
X142439339Y-90892044D01*
X142426290Y-90875351D01*
X142417679Y-90851516D01*
X142414426Y-90818038D01*
X142414426Y-90686574D01*
X142848079Y-90686574D01*
X142852754Y-90765587D01*
X142865946Y-90833228D01*
X142886715Y-90891171D01*
X142914571Y-90940836D01*
X142949501Y-90983330D01*
X142991518Y-91018886D01*
X143040625Y-91047178D01*
X143097911Y-91068238D01*
X143164795Y-91081603D01*
X143242959Y-91086339D01*
X143322334Y-91082596D01*
X143395977Y-91071684D01*
X143467515Y-91053426D01*
X143538065Y-91027721D01*
X143538065Y-90883129D01*
X144563152Y-90883129D01*
X144563152Y-91066800D01*
X144779002Y-91066800D01*
X144882755Y-91060936D01*
X144967817Y-91044725D01*
X145037243Y-91019793D01*
X145093631Y-90987113D01*
X145139016Y-90946937D01*
X145175159Y-90898672D01*
X145205106Y-90838071D01*
X145228269Y-90762728D01*
X145243465Y-90669737D01*
X145248986Y-90555782D01*
X145243462Y-90442132D01*
X145228263Y-90349449D01*
X145213264Y-90300854D01*
X145510509Y-90300854D01*
X145510509Y-91066800D01*
X145710666Y-91066800D01*
X145710666Y-90914392D01*
X146251542Y-90914392D01*
X146251542Y-91066800D01*
X146949649Y-91066800D01*
X146949649Y-90914392D01*
X146701010Y-90914392D01*
X146701010Y-90300854D01*
X147050644Y-90300854D01*
X147293848Y-91066800D01*
X147540412Y-91066800D01*
X147661142Y-90686574D01*
X147900975Y-90686574D01*
X147905650Y-90765587D01*
X147918842Y-90833228D01*
X147939611Y-90891171D01*
X147967467Y-90940836D01*
X148002397Y-90983330D01*
X148044414Y-91018886D01*
X148093521Y-91047178D01*
X148150807Y-91068238D01*
X148217691Y-91081603D01*
X148295855Y-91086339D01*
X148375230Y-91082596D01*
X148448873Y-91071684D01*
X148520411Y-91053426D01*
X148590961Y-91027721D01*
X148590961Y-90844050D01*
X148517654Y-90881796D01*
X148450888Y-90906454D01*
X148383358Y-90921213D01*
X148314967Y-90926116D01*
X148246539Y-90920360D01*
X148195494Y-90904928D01*
X148157796Y-90881541D01*
X148129488Y-90848312D01*
X148111445Y-90804375D01*
X148104551Y-90746353D01*
X148623018Y-90746353D01*
X148623018Y-90666058D01*
X148616362Y-90574420D01*
X148597745Y-90498264D01*
X148568514Y-90434876D01*
X148529045Y-90382126D01*
X148479040Y-90339174D01*
X148419732Y-90307930D01*
X148394345Y-90300854D01*
X148879107Y-90300854D01*
X148879107Y-91066800D01*
X149079264Y-91066800D01*
X149079264Y-90713746D01*
X149081174Y-90642644D01*
X149085736Y-90600540D01*
X149095024Y-90565192D01*
X149108634Y-90537037D01*
X149139743Y-90499523D01*
X149182029Y-90471824D01*
X149232223Y-90455243D01*
X149293098Y-90449354D01*
X149344237Y-90453376D01*
X149389696Y-90464985D01*
X149431107Y-90484616D01*
X149466572Y-90511880D01*
X149466572Y-90320393D01*
X149430117Y-90303531D01*
X149391772Y-90291267D01*
X149352138Y-90283810D01*
X149311539Y-90281315D01*
X149258285Y-90285482D01*
X149211256Y-90297474D01*
X149169389Y-90316913D01*
X149132335Y-90343956D01*
X149102485Y-90377272D01*
X149079264Y-90417602D01*
X149079264Y-90300854D01*
X148879107Y-90300854D01*
X148394345Y-90300854D01*
X148349257Y-90288287D01*
X148265080Y-90281315D01*
X148197727Y-90286060D01*
X148138560Y-90299652D01*
X148086298Y-90321498D01*
X148039909Y-90351525D01*
X147998672Y-90390186D01*
X147957391Y-90446975D01*
X147927005Y-90513915D01*
X147907795Y-90592954D01*
X147907389Y-90598525D01*
X147900975Y-90686574D01*
X147661142Y-90686574D01*
X147783616Y-90300854D01*
X147580773Y-90300854D01*
X147416825Y-90898577D01*
X147253548Y-90300854D01*
X147050644Y-90300854D01*
X146701010Y-90300854D01*
X146304787Y-90300854D01*
X146304787Y-90453261D01*
X146500853Y-90453261D01*
X146500853Y-90914392D01*
X146251542Y-90914392D01*
X145710666Y-90914392D01*
X145710666Y-90713746D01*
X145712576Y-90642644D01*
X145717139Y-90600540D01*
X145726427Y-90565192D01*
X145740036Y-90537037D01*
X145771146Y-90499523D01*
X145813431Y-90471824D01*
X145863625Y-90455243D01*
X145924501Y-90449354D01*
X145975640Y-90453376D01*
X146021099Y-90464985D01*
X146062510Y-90484616D01*
X146097974Y-90511880D01*
X146097974Y-90320393D01*
X146061520Y-90303531D01*
X146023175Y-90291267D01*
X145983541Y-90283810D01*
X145942941Y-90281315D01*
X145889687Y-90285482D01*
X145842658Y-90297474D01*
X145800792Y-90316913D01*
X145763737Y-90343956D01*
X145733888Y-90377272D01*
X145710666Y-90417602D01*
X145710666Y-90300854D01*
X145510509Y-90300854D01*
X145213264Y-90300854D01*
X145205100Y-90274405D01*
X145175157Y-90214090D01*
X145139016Y-90166093D01*
X145136728Y-90164078D01*
X146500853Y-90164078D01*
X146701010Y-90164078D01*
X146701010Y-89929605D01*
X146500853Y-89929605D01*
X146500853Y-90164078D01*
X145136728Y-90164078D01*
X145093667Y-90126148D01*
X145037303Y-90093636D01*
X144967880Y-90068821D01*
X144882799Y-90052680D01*
X144779002Y-90046841D01*
X144563152Y-90046841D01*
X144563152Y-90883129D01*
X143538065Y-90883129D01*
X143538065Y-90844050D01*
X143464758Y-90881796D01*
X143397992Y-90906454D01*
X143330462Y-90921213D01*
X143262071Y-90926116D01*
X143193642Y-90920360D01*
X143142598Y-90904928D01*
X143104900Y-90881541D01*
X143076592Y-90848312D01*
X143058549Y-90804375D01*
X143051655Y-90746353D01*
X143570122Y-90746353D01*
X143570122Y-90666058D01*
X143563466Y-90574420D01*
X143544849Y-90498264D01*
X143515618Y-90434876D01*
X143476149Y-90382126D01*
X143426144Y-90339174D01*
X143366836Y-90307930D01*
X143296361Y-90288287D01*
X143212184Y-90281315D01*
X143144831Y-90286060D01*
X143085664Y-90299652D01*
X143033402Y-90321498D01*
X142987013Y-90351525D01*
X142945776Y-90390186D01*
X142904495Y-90446975D01*
X142874109Y-90513915D01*
X142854899Y-90592954D01*
X142854493Y-90598525D01*
X142848079Y-90686574D01*
X142414426Y-90686574D01*
X142414426Y-90453261D01*
X142676071Y-90453261D01*
X142676071Y-90300854D01*
X142414426Y-90300854D01*
X142414426Y-90082012D01*
X142214269Y-90082012D01*
X142214269Y-90300854D01*
X142018936Y-90300854D01*
X141677640Y-90300854D01*
X141616238Y-90287303D01*
X141520375Y-90281315D01*
X141445063Y-90284736D01*
X141375539Y-90294687D01*
X141307996Y-90311596D01*
X141240961Y-90336025D01*
X141240961Y-90507972D01*
X141314240Y-90471987D01*
X141381340Y-90448499D01*
X141449518Y-90434516D01*
X141520375Y-90429814D01*
X141565421Y-90433130D01*
X141599066Y-90441979D01*
X141623873Y-90455215D01*
X141643184Y-90474492D01*
X141654884Y-90498877D01*
X141659044Y-90530015D01*
X141659044Y-90562682D01*
X141520375Y-90562682D01*
X141426772Y-90567612D01*
X141353157Y-90580970D01*
X141295897Y-90601010D01*
X141251891Y-90626613D01*
X141214916Y-90661764D01*
X141188152Y-90705165D01*
X141171248Y-90758555D01*
X141165185Y-90824511D01*
X141030729Y-90824511D01*
X141030729Y-90519696D01*
X140716511Y-90519696D01*
X140716511Y-90687735D01*
X140854508Y-90687735D01*
X140854508Y-90883251D01*
X140838555Y-90893169D01*
X140816894Y-90900775D01*
X140762306Y-90906576D01*
X140712382Y-90900811D01*
X140670250Y-90884279D01*
X140634140Y-90856968D01*
X140603121Y-90817366D01*
X140581128Y-90772637D01*
X140563971Y-90716068D01*
X140552622Y-90645191D01*
X140548472Y-90557187D01*
X140552847Y-90466036D01*
X140564717Y-90393914D01*
X140582509Y-90337496D01*
X140605136Y-90293893D01*
X140636970Y-90256047D01*
X140675191Y-90229371D01*
X140721039Y-90212893D01*
X140776594Y-90207065D01*
X140839996Y-90214059D01*
X140897128Y-90234603D01*
X140948302Y-90268271D01*
X140994520Y-90316485D01*
X140994520Y-90093736D01*
X140940810Y-90065319D01*
X140883145Y-90044399D01*
X140823175Y-90031571D01*
X140762245Y-90027302D01*
X140680076Y-90033314D01*
X140609179Y-90050413D01*
X140547704Y-90077734D01*
X140494190Y-90115163D01*
X140447660Y-90163345D01*
X140410983Y-90218028D01*
X140381111Y-90282951D01*
X140358468Y-90359764D01*
X140343919Y-90450433D01*
X140338728Y-90557187D01*
X140227617Y-90557187D01*
X140227617Y-89818494D01*
X149577683Y-89818494D01*
X149577683Y-91197450D01*
G37*
G36*
X128649019Y-78927486D02*
G01*
X128682361Y-78947717D01*
X128711044Y-78983538D01*
X128730357Y-79027068D01*
X128743179Y-79083809D01*
X128747924Y-79157073D01*
X128743180Y-79230336D01*
X128730359Y-79287100D01*
X128711044Y-79330668D01*
X128682365Y-79366450D01*
X128649024Y-79386665D01*
X128609256Y-79393500D01*
X128569451Y-79386678D01*
X128535877Y-79366468D01*
X128506796Y-79330668D01*
X128487112Y-79287050D01*
X128474067Y-79230286D01*
X128469243Y-79157073D01*
X128474069Y-79083859D01*
X128487114Y-79027118D01*
X128506796Y-78983538D01*
X128535881Y-78947700D01*
X128569456Y-78927472D01*
X128609256Y-78920646D01*
X128649019Y-78927486D01*
G37*
G36*
X129567542Y-79196213D02*
G01*
X129561993Y-79267154D01*
X129546907Y-79322149D01*
X129523823Y-79364557D01*
X129490829Y-79397932D01*
X129450621Y-79417807D01*
X129400847Y-79424763D01*
X129367074Y-79421056D01*
X129339772Y-79410639D01*
X129317499Y-79393805D01*
X129300784Y-79371408D01*
X129290454Y-79344110D01*
X129286785Y-79310518D01*
X129292337Y-79266024D01*
X129307343Y-79234090D01*
X129331176Y-79211417D01*
X129362615Y-79197063D01*
X129412435Y-79186627D01*
X129487614Y-79182474D01*
X129567542Y-79182474D01*
X129567542Y-79196213D01*
G37*
G36*
X132843716Y-78927687D02*
G01*
X132880838Y-78948199D01*
X132912204Y-78983660D01*
X132933760Y-79027634D01*
X132947983Y-79084937D01*
X132953237Y-79159027D01*
X132947983Y-79233117D01*
X132933760Y-79290420D01*
X132912204Y-79334393D01*
X132880838Y-79369854D01*
X132843716Y-79390366D01*
X132798814Y-79397408D01*
X132754392Y-79390393D01*
X132717478Y-79369907D01*
X132686096Y-79334393D01*
X132664574Y-79290424D01*
X132650372Y-79233122D01*
X132645124Y-79159027D01*
X132650372Y-79084932D01*
X132664574Y-79027629D01*
X132686096Y-78983660D01*
X132717478Y-78948147D01*
X132754392Y-78927660D01*
X132798814Y-78920646D01*
X132843716Y-78927687D01*
G37*
G36*
X136212314Y-78927687D02*
G01*
X136249435Y-78948199D01*
X136280801Y-78983660D01*
X136302357Y-79027634D01*
X136316580Y-79084937D01*
X136321834Y-79159027D01*
X136316580Y-79233117D01*
X136302357Y-79290420D01*
X136280801Y-79334393D01*
X136249435Y-79369854D01*
X136212314Y-79390366D01*
X136167412Y-79397408D01*
X136122989Y-79390393D01*
X136086075Y-79369907D01*
X136054693Y-79334393D01*
X136033171Y-79290424D01*
X136018969Y-79233122D01*
X136013722Y-79159027D01*
X136018969Y-79084932D01*
X136033171Y-79027629D01*
X136054693Y-78983660D01*
X136086075Y-78948147D01*
X136122989Y-78927660D01*
X136167412Y-78920646D01*
X136212314Y-78927687D01*
G37*
G36*
X135365038Y-78694775D02*
G01*
X135409438Y-78706751D01*
X135438347Y-78723786D01*
X135459189Y-78749202D01*
X135473052Y-78786632D01*
X135478341Y-78840534D01*
X135473054Y-78894436D01*
X135459191Y-78931891D01*
X135438347Y-78957343D01*
X135409444Y-78974345D01*
X135365044Y-78986301D01*
X135299311Y-78990988D01*
X135216696Y-78990988D01*
X135216696Y-78690080D01*
X135299311Y-78690080D01*
X135365038Y-78694775D01*
G37*
G36*
X138275025Y-79942294D02*
G01*
X126486683Y-79942294D01*
X126486683Y-79542000D01*
X126597794Y-79542000D01*
X127233069Y-79542000D01*
X127362701Y-79542000D01*
X127596381Y-79542000D01*
X127745979Y-79284201D01*
X127896250Y-79542000D01*
X128129868Y-79542000D01*
X127849782Y-79142601D01*
X128107337Y-78776054D01*
X128269758Y-78776054D01*
X128269758Y-79157073D01*
X128269758Y-79831183D01*
X128469243Y-79831183D01*
X128469243Y-79432762D01*
X128496345Y-79473832D01*
X128524907Y-79505655D01*
X128554973Y-79529543D01*
X128588749Y-79547240D01*
X128625279Y-79557901D01*
X128665309Y-79561539D01*
X128731029Y-79554670D01*
X128786516Y-79535069D01*
X128833943Y-79503080D01*
X128874625Y-79457491D01*
X128904617Y-79404657D01*
X128927612Y-79339105D01*
X128934929Y-79299711D01*
X129073683Y-79299711D01*
X129074570Y-79310518D01*
X129078709Y-79360974D01*
X129092878Y-79412398D01*
X129115424Y-79455789D01*
X129146407Y-79492479D01*
X129184586Y-79521603D01*
X129230136Y-79543070D01*
X129284519Y-79556686D01*
X129349617Y-79561539D01*
X129415682Y-79554665D01*
X129474608Y-79534611D01*
X129526317Y-79501820D01*
X129567542Y-79457797D01*
X129567542Y-79542000D01*
X129766356Y-79542000D01*
X129766356Y-79105049D01*
X129760307Y-79003589D01*
X129744256Y-78927881D01*
X129720650Y-78872405D01*
X129690824Y-78832657D01*
X129651288Y-78802275D01*
X129597245Y-78778505D01*
X129586139Y-78776054D01*
X129969078Y-78776054D01*
X129969078Y-79542000D01*
X130167891Y-79542000D01*
X130167891Y-79103828D01*
X130171870Y-79047026D01*
X130182644Y-79003019D01*
X130198971Y-78969189D01*
X130222792Y-78941759D01*
X130250654Y-78926016D01*
X130284029Y-78920646D01*
X130317618Y-78925030D01*
X130342484Y-78937074D01*
X130360843Y-78956549D01*
X130372697Y-78981832D01*
X130381117Y-79020072D01*
X130384413Y-79075801D01*
X130384413Y-79542000D01*
X130583226Y-79542000D01*
X130583226Y-79045026D01*
X130580163Y-78990988D01*
X130811227Y-78990988D01*
X130817541Y-79051081D01*
X130835271Y-79099840D01*
X130863800Y-79139732D01*
X130902301Y-79171247D01*
X130956685Y-79198743D01*
X131031229Y-79221309D01*
X131086550Y-79233582D01*
X131173367Y-79259306D01*
X131208427Y-79277546D01*
X131227391Y-79301982D01*
X131234072Y-79336591D01*
X131230054Y-79360614D01*
X131218336Y-79380155D01*
X131197863Y-79396370D01*
X131156796Y-79411060D01*
X131091312Y-79416947D01*
X131026899Y-79412074D01*
X130958444Y-79396919D01*
X130890948Y-79372575D01*
X130823561Y-79338789D01*
X130823561Y-79514644D01*
X130898049Y-79535294D01*
X130970412Y-79549815D01*
X131042506Y-79558652D01*
X131111829Y-79561539D01*
X131191583Y-79557069D01*
X131255212Y-79544865D01*
X131305571Y-79526363D01*
X131345081Y-79502432D01*
X131378289Y-79470092D01*
X131402229Y-79430825D01*
X131415247Y-79389592D01*
X131633593Y-79389592D01*
X131633593Y-79542000D01*
X132331700Y-79542000D01*
X132331700Y-79389592D01*
X132083061Y-79389592D01*
X132083061Y-79159027D01*
X132444967Y-79159027D01*
X132451661Y-79251626D01*
X132470529Y-79329976D01*
X132500388Y-79396479D01*
X132540955Y-79453034D01*
X132592490Y-79500087D01*
X132651541Y-79533618D01*
X132719599Y-79554302D01*
X132798814Y-79561539D01*
X132878424Y-79554289D01*
X132946719Y-79533585D01*
X133005876Y-79500051D01*
X133057406Y-79453034D01*
X133097973Y-79396479D01*
X133127832Y-79329976D01*
X133146701Y-79251626D01*
X133153394Y-79159027D01*
X133146701Y-79066427D01*
X133127832Y-78988077D01*
X133097973Y-78921574D01*
X133057406Y-78865019D01*
X133005876Y-78818003D01*
X132946719Y-78784469D01*
X132918962Y-78776054D01*
X133337675Y-78776054D01*
X133337675Y-79542000D01*
X133536489Y-79542000D01*
X133536489Y-79103828D01*
X133540467Y-79047026D01*
X133551242Y-79003019D01*
X133567569Y-78969189D01*
X133591390Y-78941759D01*
X133619251Y-78926016D01*
X133652626Y-78920646D01*
X133686216Y-78925030D01*
X133711081Y-78937074D01*
X133729441Y-78956549D01*
X133741294Y-78981832D01*
X133749714Y-79020072D01*
X133753010Y-79075801D01*
X133753010Y-79542000D01*
X133951824Y-79542000D01*
X133951824Y-79045026D01*
X133948760Y-78990988D01*
X135015135Y-78990988D01*
X135015135Y-79542000D01*
X135216696Y-79542000D01*
X135216696Y-79159027D01*
X135291801Y-79159027D01*
X135813565Y-79159027D01*
X135820258Y-79251626D01*
X135839126Y-79329976D01*
X135868986Y-79396479D01*
X135909552Y-79453034D01*
X135961087Y-79500087D01*
X136020138Y-79533618D01*
X136088196Y-79554302D01*
X136167412Y-79561539D01*
X136247021Y-79554289D01*
X136315316Y-79533585D01*
X136374473Y-79500051D01*
X136426004Y-79453034D01*
X136466570Y-79396479D01*
X136496430Y-79329976D01*
X136515298Y-79251626D01*
X136521991Y-79159027D01*
X136515298Y-79066427D01*
X136496430Y-78988077D01*
X136466570Y-78921574D01*
X136426004Y-78865019D01*
X136374473Y-78818003D01*
X136315316Y-78784469D01*
X136287559Y-78776054D01*
X136787605Y-78776054D01*
X136787605Y-79542000D01*
X136987762Y-79542000D01*
X136987762Y-79188946D01*
X136989672Y-79117844D01*
X136994235Y-79075740D01*
X137003523Y-79040392D01*
X137017132Y-79012237D01*
X137048242Y-78974723D01*
X137090527Y-78947024D01*
X137140721Y-78930443D01*
X137201597Y-78924554D01*
X137252736Y-78928576D01*
X137298195Y-78940185D01*
X137339606Y-78959816D01*
X137375070Y-78987080D01*
X137375070Y-78795593D01*
X137338616Y-78778731D01*
X137330246Y-78776054D01*
X137506778Y-78776054D01*
X137506778Y-78928461D01*
X137702112Y-78928461D01*
X137702112Y-79283591D01*
X137706985Y-79360220D01*
X137719882Y-79416880D01*
X137738850Y-79457997D01*
X137762928Y-79487106D01*
X137794191Y-79508156D01*
X137840147Y-79525379D01*
X137905496Y-79537394D01*
X137995875Y-79542000D01*
X138163914Y-79542000D01*
X138163914Y-79389592D01*
X138010224Y-79389592D01*
X137971982Y-79386568D01*
X137945309Y-79378715D01*
X137927181Y-79367244D01*
X137914133Y-79350551D01*
X137905521Y-79326716D01*
X137902269Y-79293238D01*
X137902269Y-78928461D01*
X138163914Y-78928461D01*
X138163914Y-78776054D01*
X137902269Y-78776054D01*
X137902269Y-78557212D01*
X137702112Y-78557212D01*
X137702112Y-78776054D01*
X137506778Y-78776054D01*
X137330246Y-78776054D01*
X137300271Y-78766467D01*
X137260637Y-78759010D01*
X137220037Y-78756515D01*
X137166783Y-78760682D01*
X137119754Y-78772674D01*
X137077888Y-78792113D01*
X137040833Y-78819156D01*
X137010984Y-78852472D01*
X136987762Y-78892802D01*
X136987762Y-78776054D01*
X136787605Y-78776054D01*
X136287559Y-78776054D01*
X136247021Y-78763764D01*
X136167412Y-78756515D01*
X136088196Y-78763752D01*
X136020138Y-78784436D01*
X135961087Y-78817967D01*
X135909552Y-78865019D01*
X135868986Y-78921574D01*
X135839126Y-78988077D01*
X135820258Y-79066427D01*
X135813565Y-79159027D01*
X135291801Y-79159027D01*
X135400918Y-79153124D01*
X135484737Y-79137293D01*
X135548195Y-79113798D01*
X135595456Y-79084044D01*
X135633982Y-79043434D01*
X135662674Y-78991270D01*
X135681248Y-78924856D01*
X135688024Y-78840534D01*
X135681247Y-78756210D01*
X135662672Y-78689809D01*
X135633980Y-78637667D01*
X135595456Y-78597085D01*
X135548191Y-78567305D01*
X135484731Y-78543791D01*
X135400913Y-78527948D01*
X135291801Y-78522041D01*
X135015135Y-78522041D01*
X135015135Y-78990988D01*
X133948760Y-78990988D01*
X133947663Y-78971639D01*
X133936279Y-78912806D01*
X133918968Y-78865977D01*
X133896503Y-78828994D01*
X133866235Y-78797861D01*
X133829767Y-78775493D01*
X133785835Y-78761494D01*
X133732555Y-78756515D01*
X133685370Y-78760659D01*
X133644552Y-78772523D01*
X133608907Y-78791747D01*
X133578376Y-78818115D01*
X133554330Y-78850901D01*
X133536489Y-78891153D01*
X133536489Y-78776054D01*
X133337675Y-78776054D01*
X132918962Y-78776054D01*
X132878424Y-78763764D01*
X132798814Y-78756515D01*
X132719599Y-78763752D01*
X132651541Y-78784436D01*
X132592490Y-78817967D01*
X132540955Y-78865019D01*
X132500388Y-78921574D01*
X132470529Y-78988077D01*
X132451661Y-79066427D01*
X132444967Y-79159027D01*
X132083061Y-79159027D01*
X132083061Y-78776054D01*
X131686838Y-78776054D01*
X131686838Y-78928461D01*
X131882904Y-78928461D01*
X131882904Y-79389592D01*
X131633593Y-79389592D01*
X131415247Y-79389592D01*
X131417264Y-79383202D01*
X131422628Y-79325112D01*
X131416422Y-79261386D01*
X131399141Y-79210259D01*
X131371703Y-79169041D01*
X131334193Y-79136035D01*
X131282054Y-79107877D01*
X131211541Y-79085326D01*
X131154144Y-79071710D01*
X131146633Y-79069634D01*
X131069735Y-79046001D01*
X131026963Y-79022944D01*
X131006465Y-79001101D01*
X131000454Y-78979447D01*
X131004307Y-78955509D01*
X131015422Y-78936396D01*
X131034587Y-78920890D01*
X131073456Y-78906771D01*
X131135704Y-78901106D01*
X131195462Y-78905747D01*
X131255627Y-78919852D01*
X131313884Y-78942905D01*
X131370726Y-78975356D01*
X131370726Y-78799501D01*
X131309085Y-78780722D01*
X131245369Y-78767261D01*
X131180674Y-78759196D01*
X131115920Y-78756515D01*
X131042593Y-78760995D01*
X130982040Y-78773440D01*
X130932148Y-78792720D01*
X130891155Y-78818247D01*
X130856352Y-78851967D01*
X130831720Y-78891173D01*
X130816550Y-78936951D01*
X130811227Y-78990988D01*
X130580163Y-78990988D01*
X130579066Y-78971639D01*
X130567682Y-78912806D01*
X130550370Y-78865977D01*
X130527905Y-78828994D01*
X130497638Y-78797861D01*
X130461170Y-78775493D01*
X130417238Y-78761494D01*
X130363957Y-78756515D01*
X130316773Y-78760659D01*
X130275955Y-78772523D01*
X130240309Y-78791747D01*
X130209778Y-78818115D01*
X130185733Y-78850901D01*
X130167891Y-78891153D01*
X130167891Y-78776054D01*
X129969078Y-78776054D01*
X129586139Y-78776054D01*
X129524737Y-78762503D01*
X129428874Y-78756515D01*
X129353562Y-78759936D01*
X129284038Y-78769887D01*
X129216495Y-78786796D01*
X129149460Y-78811225D01*
X129149460Y-78983172D01*
X129222739Y-78947187D01*
X129289838Y-78923699D01*
X129358016Y-78909716D01*
X129428874Y-78905014D01*
X129473919Y-78908330D01*
X129507564Y-78917179D01*
X129532371Y-78930415D01*
X129551683Y-78949692D01*
X129563383Y-78974077D01*
X129567542Y-79005215D01*
X129567542Y-79037882D01*
X129428874Y-79037882D01*
X129335271Y-79042812D01*
X129261655Y-79056170D01*
X129204396Y-79076210D01*
X129160390Y-79101813D01*
X129123415Y-79136964D01*
X129096650Y-79180365D01*
X129079747Y-79233755D01*
X129073683Y-79299711D01*
X128934929Y-79299711D01*
X128942631Y-79258240D01*
X128948081Y-79159027D01*
X128942748Y-79061348D01*
X128927999Y-78981083D01*
X128905329Y-78915425D01*
X128875663Y-78861966D01*
X128835340Y-78815426D01*
X128788911Y-78783052D01*
X128735196Y-78763372D01*
X128672148Y-78756515D01*
X128627160Y-78760419D01*
X128587410Y-78771691D01*
X128551920Y-78790098D01*
X128520792Y-78815316D01*
X128493255Y-78848245D01*
X128469243Y-78890115D01*
X128469243Y-78776054D01*
X128269758Y-78776054D01*
X128107337Y-78776054D01*
X127873718Y-78776054D01*
X127745979Y-79004482D01*
X127618912Y-78776054D01*
X127385294Y-78776054D01*
X127645534Y-79142601D01*
X127362701Y-79542000D01*
X127233069Y-79542000D01*
X127233069Y-79366145D01*
X126799294Y-79366145D01*
X126799294Y-79096501D01*
X127192098Y-79096501D01*
X127192098Y-78920646D01*
X126799294Y-78920646D01*
X126799294Y-78697896D01*
X127233069Y-78697896D01*
X127233069Y-78639278D01*
X131882904Y-78639278D01*
X132083061Y-78639278D01*
X132083061Y-78404805D01*
X131882904Y-78404805D01*
X131882904Y-78639278D01*
X127233069Y-78639278D01*
X127233069Y-78522041D01*
X126597794Y-78522041D01*
X126597794Y-79542000D01*
X126486683Y-79542000D01*
X126486683Y-78293694D01*
X138275025Y-78293694D01*
X138275025Y-79942294D01*
G37*
G36*
X121556635Y-111406530D02*
G01*
X121585394Y-111417667D01*
X121605749Y-111434777D01*
X121619493Y-111458149D01*
X121629035Y-111493079D01*
X121632738Y-111543709D01*
X121632738Y-111677615D01*
X121398265Y-111677615D01*
X121398265Y-111543709D01*
X121402060Y-111494173D01*
X121411934Y-111459366D01*
X121426353Y-111435510D01*
X121447353Y-111417936D01*
X121476495Y-111406582D01*
X121516539Y-111402354D01*
X121556635Y-111406530D01*
G37*
G36*
X122002841Y-111375363D02*
G01*
X122039742Y-111388767D01*
X122064681Y-111408826D01*
X122081412Y-111436819D01*
X122093168Y-111479878D01*
X122097776Y-111543709D01*
X122097776Y-111677615D01*
X121792961Y-111677615D01*
X121792961Y-111543709D01*
X121797886Y-111482630D01*
X121810713Y-111439821D01*
X121829536Y-111410536D01*
X121856698Y-111389417D01*
X121895359Y-111375491D01*
X121949521Y-111370236D01*
X122002841Y-111375363D01*
G37*
G36*
X121610436Y-109704841D02*
G01*
X121647891Y-109718704D01*
X121673343Y-109739548D01*
X121690345Y-109768451D01*
X121702301Y-109812851D01*
X121706988Y-109878584D01*
X121706988Y-109961199D01*
X121406080Y-109961199D01*
X121406080Y-109878584D01*
X121410775Y-109812857D01*
X121422751Y-109768457D01*
X121439786Y-109739548D01*
X121465202Y-109718706D01*
X121502632Y-109704843D01*
X121556534Y-109699554D01*
X121610436Y-109704841D01*
G37*
G36*
X121840560Y-108865686D02*
G01*
X121910938Y-108876627D01*
X121962738Y-108892539D01*
X121999957Y-108912115D01*
X122031350Y-108940289D01*
X122054297Y-108976549D01*
X122068989Y-109022717D01*
X122074329Y-109081497D01*
X122074329Y-109136146D01*
X121421712Y-109136146D01*
X121421712Y-109081497D01*
X121427035Y-109022692D01*
X121441676Y-108976517D01*
X121464532Y-108940269D01*
X121495779Y-108912115D01*
X121532835Y-108892521D01*
X121584323Y-108876611D01*
X121654185Y-108865680D01*
X121746982Y-108861556D01*
X121840560Y-108865686D01*
G37*
G36*
X122388650Y-113680692D02*
G01*
X121107391Y-113680692D01*
X121107391Y-113074318D01*
X121238041Y-113074318D01*
X121930897Y-113074318D01*
X121980406Y-113079110D01*
X122019547Y-113092364D01*
X122050576Y-113113275D01*
X122074179Y-113141802D01*
X122088700Y-113177109D01*
X122093868Y-113221230D01*
X122088703Y-113265312D01*
X122074184Y-113300623D01*
X122050576Y-113329185D01*
X122019552Y-113350061D01*
X121980411Y-113363296D01*
X121930897Y-113368081D01*
X121238041Y-113368081D01*
X121238041Y-113569581D01*
X121880400Y-113569581D01*
X121987101Y-113563201D01*
X122070220Y-113545945D01*
X122134294Y-113520006D01*
X122183078Y-113486600D01*
X122222178Y-113442202D01*
X122251512Y-113385271D01*
X122270577Y-113312879D01*
X122277539Y-113221169D01*
X122273006Y-113145786D01*
X122260411Y-113083482D01*
X122240905Y-113032122D01*
X122215110Y-112989913D01*
X122183078Y-112955494D01*
X122134316Y-112922223D01*
X122070251Y-112896377D01*
X121987126Y-112879178D01*
X121880400Y-112872818D01*
X121238041Y-112872818D01*
X121238041Y-113074318D01*
X121107391Y-113074318D01*
X121107391Y-112379081D01*
X121218502Y-112379081D01*
X121224076Y-112456572D01*
X121239744Y-112521720D01*
X121264460Y-112576628D01*
X121297942Y-112622957D01*
X121340497Y-112661171D01*
X121390063Y-112688637D01*
X121448030Y-112705722D01*
X121516356Y-112711740D01*
X121586611Y-112705143D01*
X121643063Y-112686795D01*
X121688608Y-112657762D01*
X121725825Y-112617399D01*
X121766500Y-112551543D01*
X121810791Y-112451438D01*
X121848771Y-112352397D01*
X121872884Y-112305454D01*
X121902626Y-112273202D01*
X121939436Y-112252746D01*
X121982188Y-112245846D01*
X122020422Y-112250684D01*
X122051086Y-112264361D01*
X122075978Y-112286879D01*
X122093774Y-112316020D01*
X122105284Y-112353700D01*
X122109500Y-112402284D01*
X122102890Y-112475725D01*
X122082511Y-112551577D01*
X122049429Y-112626333D01*
X122000079Y-112707648D01*
X122207197Y-112707648D01*
X122237813Y-112635196D01*
X122259770Y-112560431D01*
X122273129Y-112484087D01*
X122277539Y-112408451D01*
X122271819Y-112314449D01*
X122256169Y-112239359D01*
X122232321Y-112179762D01*
X122201213Y-112132823D01*
X122160047Y-112094277D01*
X122109321Y-112066029D01*
X122046988Y-112048058D01*
X121970220Y-112041598D01*
X121896437Y-112048515D01*
X121834492Y-112068113D01*
X121782031Y-112099667D01*
X121737864Y-112142780D01*
X121697808Y-112201935D01*
X121662230Y-112280651D01*
X121629074Y-112367418D01*
X121593834Y-112448783D01*
X121568441Y-112485998D01*
X121537662Y-112507130D01*
X121499015Y-112514330D01*
X121464812Y-112509766D01*
X121437593Y-112496849D01*
X121415667Y-112475435D01*
X121400372Y-112447912D01*
X121390284Y-112411404D01*
X121386541Y-112363388D01*
X121392175Y-112298085D01*
X121409500Y-112230886D01*
X121437292Y-112165248D01*
X121476422Y-112098995D01*
X121281028Y-112098995D01*
X121253771Y-112168737D01*
X121234317Y-112238397D01*
X121222432Y-112308946D01*
X121218502Y-112379081D01*
X121107391Y-112379081D01*
X121107391Y-111543709D01*
X121238041Y-111543709D01*
X121238041Y-111872338D01*
X122258000Y-111872338D01*
X122258000Y-111543709D01*
X122252744Y-111439925D01*
X122238657Y-111360134D01*
X122217811Y-111299728D01*
X122191565Y-111254770D01*
X122155114Y-111217395D01*
X122108837Y-111189946D01*
X122050532Y-111172363D01*
X121977059Y-111165988D01*
X121916511Y-111170192D01*
X121866138Y-111181943D01*
X121824199Y-111200350D01*
X121789297Y-111225094D01*
X121760359Y-111256622D01*
X121737425Y-111295474D01*
X121720574Y-111342993D01*
X121710468Y-111400949D01*
X121698579Y-111338202D01*
X121677051Y-111289810D01*
X121646660Y-111252755D01*
X121607171Y-111225608D01*
X121557246Y-111208414D01*
X121493947Y-111202197D01*
X121431384Y-111208092D01*
X121379957Y-111224650D01*
X121337402Y-111251098D01*
X121302216Y-111287926D01*
X121276204Y-111331581D01*
X121256114Y-111386970D01*
X121242881Y-111456668D01*
X121238041Y-111543709D01*
X121107391Y-111543709D01*
X121107391Y-111045881D01*
X121761698Y-111045881D01*
X121945369Y-111045881D01*
X121945369Y-110321762D01*
X121761698Y-110321762D01*
X121761698Y-111045881D01*
X121107391Y-111045881D01*
X121107391Y-109886094D01*
X121238041Y-109886094D01*
X121238041Y-110162760D01*
X122258000Y-110162760D01*
X122258000Y-109961199D01*
X121875027Y-109961199D01*
X121875027Y-109886094D01*
X121869124Y-109776977D01*
X121853293Y-109693158D01*
X121829798Y-109629700D01*
X121800044Y-109582439D01*
X121759434Y-109543913D01*
X121707270Y-109515221D01*
X121640856Y-109496647D01*
X121556534Y-109489871D01*
X121472210Y-109496648D01*
X121405809Y-109515223D01*
X121353667Y-109543915D01*
X121313085Y-109582439D01*
X121283305Y-109629704D01*
X121259791Y-109693164D01*
X121243948Y-109776982D01*
X121238448Y-109878584D01*
X121238041Y-109886094D01*
X121107391Y-109886094D01*
X121107391Y-109121797D01*
X121238041Y-109121797D01*
X121238041Y-109337647D01*
X122258000Y-109337647D01*
X122258000Y-109121797D01*
X122252136Y-109018044D01*
X122235925Y-108932982D01*
X122210993Y-108863556D01*
X122178313Y-108807168D01*
X122138137Y-108761783D01*
X122089872Y-108725640D01*
X122029271Y-108695693D01*
X121953928Y-108672530D01*
X121860937Y-108657334D01*
X121746982Y-108651813D01*
X121633332Y-108657337D01*
X121540649Y-108672536D01*
X121465605Y-108695699D01*
X121405290Y-108725642D01*
X121357293Y-108761783D01*
X121317348Y-108807132D01*
X121284836Y-108863496D01*
X121260021Y-108932919D01*
X121243880Y-109018000D01*
X121240308Y-109081497D01*
X121238041Y-109121797D01*
X121107391Y-109121797D01*
X121107391Y-108540702D01*
X122388650Y-108540702D01*
X122388650Y-113680692D01*
G37*
D14*
%TO.C,C34*%
X143607200Y-110473014D02*
X143607200Y-110688686D01*
X144327200Y-110473014D02*
X144327200Y-110688686D01*
%TO.C,C20*%
X118313252Y-83679200D02*
X116890748Y-83679200D01*
X118313252Y-86399200D02*
X116890748Y-86399200D01*
D15*
%TO.C,U12*%
X107975000Y-79530000D02*
G75*
G02*
X107875000Y-79530000I-50000J0D01*
G01*
X107875000Y-79530000D02*
G75*
G02*
X107975000Y-79530000I50000J0D01*
G01*
D16*
%TO.C,U18*%
X158515001Y-98261200D02*
X158515001Y-101561200D01*
X158515001Y-98261200D02*
X158815001Y-98261200D01*
X158515001Y-101561200D02*
X158815001Y-101561200D01*
X161515001Y-101561200D02*
X161815001Y-101561200D01*
X161815001Y-98261200D02*
X161515001Y-98261200D01*
X161815001Y-101561200D02*
X161815001Y-98261200D01*
D14*
X158815001Y-102261200D02*
X158515001Y-101986200D01*
X158815001Y-101986200D01*
X158815001Y-102261200D01*
G36*
X158815001Y-102261200D02*
G01*
X158515001Y-101986200D01*
X158815001Y-101986200D01*
X158815001Y-102261200D01*
G37*
%TO.C,C7*%
X140372000Y-110507198D02*
X140372000Y-111929702D01*
X143092000Y-110507198D02*
X143092000Y-111929702D01*
D16*
%TO.C,U3*%
X132470300Y-103942739D02*
X132470300Y-103800839D01*
X132470300Y-106050839D02*
X132470300Y-106192739D01*
X132470300Y-106192739D02*
X133950300Y-106192739D01*
X133950300Y-103800839D02*
X132470300Y-103800839D01*
X133950300Y-103942739D02*
X133950300Y-103800839D01*
X133950300Y-106050839D02*
X133950300Y-106192739D01*
D14*
X131960300Y-104032739D02*
X131690300Y-104032739D01*
X131955300Y-103762739D01*
X131960300Y-104032739D01*
G36*
X131960300Y-104032739D02*
G01*
X131690300Y-104032739D01*
X131955300Y-103762739D01*
X131960300Y-104032739D01*
G37*
D15*
%TO.C,U21*%
X107975000Y-85500000D02*
G75*
G02*
X107875000Y-85500000I-50000J0D01*
G01*
X107875000Y-85500000D02*
G75*
G02*
X107975000Y-85500000I50000J0D01*
G01*
D14*
%TO.C,REF\u002A\u002A*%
X153100000Y-118668800D02*
G75*
G02*
X151700000Y-118668800I-700000J0D01*
G01*
X151700000Y-118668800D02*
G75*
G02*
X153100000Y-118668800I700000J0D01*
G01*
%TO.C,C43*%
X121824636Y-96312400D02*
X121608964Y-96312400D01*
X121824636Y-97032400D02*
X121608964Y-97032400D01*
D16*
%TO.C,L2*%
X131546600Y-106756200D02*
X131546600Y-107223350D01*
X131546600Y-112842250D02*
X131546600Y-113309400D01*
X131546600Y-113309400D02*
X138099800Y-113309400D01*
X138099800Y-106756200D02*
X131546600Y-106756200D01*
X138099800Y-107223350D02*
X138099800Y-106756200D01*
X138099800Y-113309400D02*
X138099800Y-112842250D01*
D14*
%TO.C,C19*%
X118313252Y-96480800D02*
X116890748Y-96480800D01*
X118313252Y-99200800D02*
X116890748Y-99200800D01*
%TO.C,C42*%
X160252636Y-102142000D02*
X160036964Y-102142000D01*
X160252636Y-102862000D02*
X160036964Y-102862000D01*
%TO.C,R30*%
X120921200Y-81706617D02*
X120921200Y-82072583D01*
X124341200Y-81706617D02*
X124341200Y-82072583D01*
D16*
%TO.C,U11*%
X151719800Y-87163200D02*
X151719800Y-86843200D01*
X151719800Y-87163200D02*
X152934800Y-87163200D01*
X151724800Y-84043200D02*
X151724800Y-83723200D01*
X151727300Y-83703200D02*
X152942300Y-83703200D01*
X155164800Y-86843200D02*
X155164800Y-87163200D01*
X155164800Y-87163200D02*
X153949800Y-87163200D01*
X155169800Y-83703200D02*
X153954800Y-83703200D01*
X155169800Y-83703200D02*
X155169800Y-84023200D01*
D14*
X151464800Y-84453200D02*
X151164800Y-84753200D01*
X151164800Y-84153200D01*
X151464800Y-84453200D01*
G36*
X151464800Y-84453200D02*
G01*
X151164800Y-84753200D01*
X151164800Y-84153200D01*
X151464800Y-84453200D01*
G37*
%TO.C,C53*%
X126485764Y-112822400D02*
X126701436Y-112822400D01*
X126485764Y-113542400D02*
X126701436Y-113542400D01*
%TO.C,C45*%
X135406790Y-99035107D02*
X135559293Y-99187610D01*
X135915907Y-98525990D02*
X136068410Y-98678493D01*
%TO.C,REF\u002A\u002A*%
X127293600Y-130048000D02*
G75*
G02*
X125893600Y-130048000I-700000J0D01*
G01*
X125893600Y-130048000D02*
G75*
G02*
X127293600Y-130048000I700000J0D01*
G01*
%TO.C,R28*%
X145359017Y-83684800D02*
X145724983Y-83684800D01*
X145359017Y-87104800D02*
X145724983Y-87104800D01*
%TO.C,C16*%
X118313252Y-90080000D02*
X116890748Y-90080000D01*
X118313252Y-92800000D02*
X116890748Y-92800000D01*
D16*
%TO.C,U16*%
X127030600Y-87240800D02*
X127030600Y-86920800D01*
X127030600Y-87240800D02*
X128245600Y-87240800D01*
X127035600Y-84120800D02*
X127035600Y-83800800D01*
X127038100Y-83780800D02*
X128253100Y-83780800D01*
X130475600Y-86920800D02*
X130475600Y-87240800D01*
X130475600Y-87240800D02*
X129260600Y-87240800D01*
X130480600Y-83780800D02*
X129265600Y-83780800D01*
X130480600Y-83780800D02*
X130480600Y-84100800D01*
D14*
X126775600Y-84530800D02*
X126475600Y-84830800D01*
X126475600Y-84230800D01*
X126775600Y-84530800D01*
G36*
X126775600Y-84530800D02*
G01*
X126475600Y-84830800D01*
X126475600Y-84230800D01*
X126775600Y-84530800D01*
G37*
D16*
%TO.C,U10*%
X120066800Y-92380800D02*
X120066800Y-95680800D01*
X120066800Y-92380800D02*
X120366800Y-92380800D01*
X120066800Y-95680800D02*
X120366800Y-95680800D01*
X123066800Y-95680800D02*
X123366800Y-95680800D01*
X123366800Y-92380800D02*
X123066800Y-92380800D01*
X123366800Y-95680800D02*
X123366800Y-92380800D01*
D14*
X120366800Y-96380800D02*
X120066800Y-96105800D01*
X120366800Y-96105800D01*
X120366800Y-96380800D01*
G36*
X120366800Y-96380800D02*
G01*
X120066800Y-96105800D01*
X120366800Y-96105800D01*
X120366800Y-96380800D01*
G37*
%TO.C,C35*%
X145537600Y-94938964D02*
X145537600Y-95154636D01*
X146257600Y-94938964D02*
X146257600Y-95154636D01*
%TO.C,R13*%
X128319559Y-112802400D02*
X128626841Y-112802400D01*
X128319559Y-113562400D02*
X128626841Y-113562400D01*
%TO.C,R19*%
X159991159Y-96940400D02*
X160298441Y-96940400D01*
X159991159Y-97700400D02*
X160298441Y-97700400D01*
%TO.C,R38*%
X159991159Y-105919000D02*
X160298441Y-105919000D01*
X159991159Y-106679000D02*
X160298441Y-106679000D01*
%TO.C,U7*%
X124423200Y-92063600D02*
X132643200Y-92063600D01*
X124423200Y-100283600D02*
X124423200Y-92063600D01*
X132643200Y-92063600D02*
X132643200Y-100283600D01*
X132643200Y-100283600D02*
X124423200Y-100283600D01*
X124243200Y-99783600D02*
X123943200Y-100083600D01*
X123943200Y-99483600D01*
X124243200Y-99783600D01*
G36*
X124243200Y-99783600D02*
G01*
X123943200Y-100083600D01*
X123943200Y-99483600D01*
X124243200Y-99783600D01*
G37*
%TO.C,R37*%
X159991159Y-104027000D02*
X160298441Y-104027000D01*
X159991159Y-104787000D02*
X160298441Y-104787000D01*
D17*
%TO.C,CN1*%
X156173600Y-74907200D02*
X156173600Y-77327200D01*
X156173600Y-74907200D02*
X163773600Y-74907200D01*
X156173600Y-78527200D02*
X156173600Y-82407200D01*
X156173600Y-83607200D02*
X156173600Y-87507200D01*
X156173600Y-87507200D02*
X163463600Y-87507200D01*
X160823600Y-74907200D02*
X160823600Y-87507200D01*
X163463600Y-87507200D02*
X163773600Y-87507200D01*
X163773600Y-74907200D02*
X163773600Y-87507200D01*
D14*
%TO.C,C29*%
X162329764Y-105012200D02*
X162545436Y-105012200D01*
X162329764Y-105732200D02*
X162545436Y-105732200D01*
D15*
%TO.C,U19*%
X107975000Y-81520000D02*
G75*
G02*
X107875000Y-81520000I-50000J0D01*
G01*
X107875000Y-81520000D02*
G75*
G02*
X107975000Y-81520000I50000J0D01*
G01*
%TO.C,U20*%
X107975000Y-83510000D02*
G75*
G02*
X107875000Y-83510000I-50000J0D01*
G01*
X107875000Y-83510000D02*
G75*
G02*
X107975000Y-83510000I50000J0D01*
G01*
D14*
%TO.C,R29*%
X141660983Y-83700800D02*
X141295017Y-83700800D01*
X141660983Y-87120800D02*
X141295017Y-87120800D01*
%TO.C,REF\u002A\u002A*%
X142330400Y-135331200D02*
G75*
G02*
X140930400Y-135331200I-700000J0D01*
G01*
X140930400Y-135331200D02*
G75*
G02*
X142330400Y-135331200I700000J0D01*
G01*
D16*
%TO.C,U5*%
X123596800Y-108027500D02*
X123596800Y-108287500D01*
X123596800Y-108287500D02*
X126871800Y-108287500D01*
X123621800Y-105012500D02*
X126871800Y-105012500D01*
X123621800Y-105272500D02*
X123621800Y-105012500D01*
X126871800Y-105272500D02*
X126871800Y-105012500D01*
X126871800Y-108027500D02*
X126871800Y-108287500D01*
D14*
X123086800Y-105662500D02*
X122786800Y-105962500D01*
X122786800Y-105362500D01*
X123086800Y-105662500D01*
G36*
X123086800Y-105662500D02*
G01*
X122786800Y-105962500D01*
X122786800Y-105362500D01*
X123086800Y-105662500D01*
G37*
%TO.C,R39*%
X160298441Y-103061800D02*
X159991159Y-103061800D01*
X160298441Y-103821800D02*
X159991159Y-103821800D01*
D16*
%TO.C,S1*%
X153544400Y-103198000D02*
X157824400Y-103198000D01*
X153544400Y-103678000D02*
X153544400Y-103198000D01*
X153544400Y-105898000D02*
X153544400Y-106378000D01*
X157824400Y-103678000D02*
X157824400Y-103198000D01*
X157824400Y-105898000D02*
X157824400Y-106378000D01*
X157824400Y-106378000D02*
X153544400Y-106378000D01*
%TO.C,U15*%
X136248600Y-87153200D02*
X136248600Y-86833200D01*
X136248600Y-87153200D02*
X137463600Y-87153200D01*
X136253600Y-83693200D02*
X137468600Y-83693200D01*
X136253600Y-84013200D02*
X136253600Y-83693200D01*
X139691100Y-87153200D02*
X138476100Y-87153200D01*
X139693600Y-86813200D02*
X139693600Y-87133200D01*
X139698600Y-83693200D02*
X138483600Y-83693200D01*
X139698600Y-83693200D02*
X139698600Y-84013200D01*
D14*
X140253600Y-86703200D02*
X139953600Y-86403200D01*
X140253600Y-86103200D01*
X140253600Y-86703200D01*
G36*
X140253600Y-86703200D02*
G01*
X139953600Y-86403200D01*
X140253600Y-86103200D01*
X140253600Y-86703200D01*
G37*
%TO.C,U1*%
D16*
X125272500Y-108947500D02*
X128572500Y-108947500D01*
X128572500Y-112247500D01*
X125272500Y-112247500D01*
X125272500Y-108947500D01*
D14*
X124922500Y-109837500D02*
X124622500Y-110137500D01*
X124622500Y-109537500D01*
X124922500Y-109837500D01*
G36*
X124922500Y-109837500D02*
G01*
X124622500Y-110137500D01*
X124622500Y-109537500D01*
X124922500Y-109837500D01*
G37*
%TO.C,C8*%
X127672000Y-105359252D02*
X127672000Y-103936748D01*
X130392000Y-105359252D02*
X130392000Y-103936748D01*
%TO.C,C40*%
X118311452Y-86879600D02*
X116888948Y-86879600D01*
X118311452Y-89599600D02*
X116888948Y-89599600D01*
%TO.C,C55*%
X148433200Y-110483764D02*
X148433200Y-110699436D01*
X149153200Y-110483764D02*
X149153200Y-110699436D01*
%TO.C,C44*%
X160252636Y-105012200D02*
X160036964Y-105012200D01*
X160252636Y-105732200D02*
X160036964Y-105732200D01*
%TO.C,REF\u002A\u002A*%
X127293600Y-119888000D02*
G75*
G02*
X125893600Y-119888000I-700000J0D01*
G01*
X125893600Y-119888000D02*
G75*
G02*
X127293600Y-119888000I700000J0D01*
G01*
%TO.C,C6*%
X149922400Y-96926452D02*
X149922400Y-95503948D01*
X152642400Y-96926452D02*
X152642400Y-95503948D01*
%TO.C,R12*%
X150343600Y-110437959D02*
X150343600Y-110745241D01*
X151103600Y-110437959D02*
X151103600Y-110745241D01*
D16*
%TO.C,U13*%
X147321400Y-87163200D02*
X147321400Y-86843200D01*
X147321400Y-87163200D02*
X148536400Y-87163200D01*
X147326400Y-84043200D02*
X147326400Y-83723200D01*
X147328900Y-83703200D02*
X148543900Y-83703200D01*
X150766400Y-86843200D02*
X150766400Y-87163200D01*
X150766400Y-87163200D02*
X149551400Y-87163200D01*
X150771400Y-83703200D02*
X149556400Y-83703200D01*
X150771400Y-83703200D02*
X150771400Y-84023200D01*
D14*
X147066400Y-84453200D02*
X146766400Y-84753200D01*
X146766400Y-84153200D01*
X147066400Y-84453200D01*
G36*
X147066400Y-84453200D02*
G01*
X146766400Y-84753200D01*
X146766400Y-84153200D01*
X147066400Y-84453200D01*
G37*
%TO.C,C22*%
X144623200Y-95154636D02*
X144623200Y-94938964D01*
X145343200Y-95154636D02*
X145343200Y-94938964D01*
D16*
%TO.C,U14*%
X131850600Y-87140800D02*
X131850600Y-86820800D01*
X131850600Y-87140800D02*
X133065600Y-87140800D01*
X131855600Y-83680800D02*
X133070600Y-83680800D01*
X131855600Y-84000800D02*
X131855600Y-83680800D01*
X135293100Y-87140800D02*
X134078100Y-87140800D01*
X135295600Y-86800800D02*
X135295600Y-87120800D01*
X135300600Y-83680800D02*
X134085600Y-83680800D01*
X135300600Y-83680800D02*
X135300600Y-84000800D01*
D14*
X135855600Y-86690800D02*
X135555600Y-86390800D01*
X135855600Y-86090800D01*
X135855600Y-86690800D01*
G36*
X135855600Y-86690800D02*
G01*
X135555600Y-86390800D01*
X135855600Y-86090800D01*
X135855600Y-86690800D01*
G37*
%TO.C,C5*%
X135190400Y-104851252D02*
X135190400Y-103428748D01*
X137910400Y-104851252D02*
X137910400Y-103428748D01*
%TO.C,C18*%
X118309652Y-93280400D02*
X116887148Y-93280400D01*
X118309652Y-96000400D02*
X116887148Y-96000400D01*
%TO.C,C21*%
X145332564Y-96058400D02*
X145548236Y-96058400D01*
X145332564Y-96778400D02*
X145548236Y-96778400D01*
D18*
%TO.C,U8*%
X134755563Y-95859323D02*
X135147583Y-96251343D01*
X135147583Y-95467303D02*
X134755563Y-95859323D01*
X139111341Y-91503545D02*
X138719321Y-91895565D01*
X139111341Y-100215101D02*
X138719321Y-99823081D01*
X139503361Y-91895565D02*
X139111341Y-91503545D01*
X139503361Y-99823081D02*
X139111341Y-100215101D01*
X143075099Y-96251343D02*
X143467119Y-95859323D01*
X143467119Y-95859323D02*
X143075099Y-95467303D01*
D14*
X143679251Y-94911800D02*
X143254987Y-94911800D01*
X143254987Y-94487536D01*
X143679251Y-94911800D01*
G36*
X143679251Y-94911800D02*
G01*
X143254987Y-94911800D01*
X143254987Y-94487536D01*
X143679251Y-94911800D01*
G37*
%TO.C,C31*%
X118313252Y-80478800D02*
X116890748Y-80478800D01*
X118313252Y-83198800D02*
X116890748Y-83198800D01*
D16*
%TO.C,S2*%
X153501200Y-110576400D02*
X157781200Y-110576400D01*
X153501200Y-111056400D02*
X153501200Y-110576400D01*
X153501200Y-113276400D02*
X153501200Y-113756400D01*
X157781200Y-111056400D02*
X157781200Y-110576400D01*
X157781200Y-113276400D02*
X157781200Y-113756400D01*
X157781200Y-113756400D02*
X153501200Y-113756400D01*
D14*
%TO.C,R18*%
X121579160Y-91009200D02*
X121886442Y-91009200D01*
X121579160Y-91769200D02*
X121886442Y-91769200D01*
D17*
%TO.C,U22*%
X115839600Y-69635200D02*
X115839600Y-72015200D01*
X115839600Y-69635200D02*
X138899600Y-69635200D01*
X115839600Y-70735200D02*
X138899600Y-70735200D01*
X115839600Y-74685200D02*
X115839600Y-75345200D01*
X115839600Y-75345200D02*
X118509600Y-75345200D01*
X138899600Y-69635200D02*
X138899600Y-72015200D01*
X138899600Y-74685200D02*
X138899600Y-75345200D01*
X138899600Y-75345200D02*
X136229600Y-75345200D01*
%TO.C,USB1*%
X111582800Y-99944800D02*
X114172800Y-99944800D01*
X111582800Y-108944800D02*
X111582800Y-99944800D01*
X111582800Y-108944800D02*
X114172800Y-108944800D01*
X116312800Y-108944800D02*
X118202800Y-108944800D01*
X116352800Y-99974800D02*
X118262800Y-99974800D01*
X120352800Y-100714800D02*
X120352800Y-100624800D01*
X120352800Y-108274800D02*
X120352800Y-108184800D01*
D16*
%TO.C,L1*%
X143014700Y-98888800D02*
X143014700Y-106762800D01*
X143014700Y-106762800D02*
X144459960Y-106762800D01*
X144459960Y-98888800D02*
X143014700Y-98888800D01*
X148554440Y-106762800D02*
X149999700Y-106762800D01*
X149999700Y-98888800D02*
X148554440Y-98888800D01*
X149999700Y-106762800D02*
X149999700Y-98888800D01*
%TO.C,U17*%
X122611400Y-87261200D02*
X122611400Y-86941200D01*
X122611400Y-87261200D02*
X123826400Y-87261200D01*
X122616400Y-84141200D02*
X122616400Y-83821200D01*
X122618900Y-83801200D02*
X123833900Y-83801200D01*
X126056400Y-86941200D02*
X126056400Y-87261200D01*
X126056400Y-87261200D02*
X124841400Y-87261200D01*
X126061400Y-83801200D02*
X124846400Y-83801200D01*
X126061400Y-83801200D02*
X126061400Y-84121200D01*
D14*
X122356400Y-84551200D02*
X122056400Y-84851200D01*
X122056400Y-84251200D01*
X122356400Y-84551200D01*
G36*
X122356400Y-84551200D02*
G01*
X122056400Y-84851200D01*
X122056400Y-84251200D01*
X122356400Y-84551200D01*
G37*
D16*
%TO.C,U2*%
X144897200Y-112155450D02*
X144897200Y-110225450D01*
X145057200Y-110225450D02*
X144897200Y-110225450D01*
X145057200Y-112155450D02*
X144897200Y-112155450D01*
X147967200Y-110225450D02*
X148127200Y-110225450D01*
X147967200Y-112155450D02*
X148127200Y-112155450D01*
X148127200Y-110225450D02*
X148127200Y-112155450D01*
D14*
X147467200Y-109060450D02*
X147167200Y-108760450D01*
X147767200Y-108760450D01*
X147467200Y-109060450D01*
G36*
X147467200Y-109060450D02*
G01*
X147167200Y-108760450D01*
X147767200Y-108760450D01*
X147467200Y-109060450D01*
G37*
%TO.C,C56*%
X162329764Y-105939000D02*
X162545436Y-105939000D01*
X162329764Y-106659000D02*
X162545436Y-106659000D01*
%TO.C,R35*%
X149378400Y-110745241D02*
X149378400Y-110437959D01*
X150138400Y-110745241D02*
X150138400Y-110437959D01*
%TO.C,C24*%
X146671200Y-95503948D02*
X146671200Y-96926452D01*
X149391200Y-95503948D02*
X149391200Y-96926452D01*
%TO.C,C36*%
X130805600Y-104451036D02*
X130805600Y-104235364D01*
X131525600Y-104451036D02*
X131525600Y-104235364D01*
%TO.C,CN3*%
D16*
X139226000Y-69588800D02*
X155966000Y-69588800D01*
X155966000Y-83318800D01*
X139226000Y-83318800D01*
X139226000Y-69588800D01*
%TD*%
M02*
