%TF.GenerationSoftware,KiCad,Pcbnew,9.99.0-1168-g72ed3d3f11*%
%TF.CreationDate,2025-05-05T23:22:11-04:00*%
%TF.ProjectId,main_board,6d61696e-5f62-46f6-9172-642e6b696361,rev?*%
%TF.SameCoordinates,Original*%
%TF.FileFunction,Paste,Bot*%
%TF.FilePolarity,Positive*%
%FSLAX46Y46*%
G04 Gerber Fmt 4.6, Leading zero omitted, Abs format (unit mm)*
G04 Created by KiCad (PCBNEW 9.99.0-1168-g72ed3d3f11) date 2025-05-05 23:22:11*
%MOMM*%
%LPD*%
G01*
G04 APERTURE LIST*
G04 Aperture macros list*
%AMRoundRect*
0 Rectangle with rounded corners*
0 $1 Rounding radius*
0 $2 $3 $4 $5 $6 $7 $8 $9 X,Y pos of 4 corners*
0 Add a 4 corners polygon primitive as box body*
4,1,4,$2,$3,$4,$5,$6,$7,$8,$9,$2,$3,0*
0 Add four circle primitives for the rounded corners*
1,1,$1+$1,$2,$3*
1,1,$1+$1,$4,$5*
1,1,$1+$1,$6,$7*
1,1,$1+$1,$8,$9*
0 Add four rect primitives between the rounded corners*
20,1,$1+$1,$2,$3,$4,$5,0*
20,1,$1+$1,$4,$5,$6,$7,0*
20,1,$1+$1,$6,$7,$8,$9,0*
20,1,$1+$1,$8,$9,$2,$3,0*%
G04 Aperture macros list end*
%ADD10RoundRect,0.250000X1.100000X-0.325000X1.100000X0.325000X-1.100000X0.325000X-1.100000X-0.325000X0*%
%ADD11RoundRect,0.135000X-0.035355X0.226274X-0.226274X0.035355X0.035355X-0.226274X0.226274X-0.035355X0*%
%ADD12RoundRect,0.250000X0.325000X1.100000X-0.325000X1.100000X-0.325000X-1.100000X0.325000X-1.100000X0*%
%ADD13RoundRect,0.140000X0.170000X-0.140000X0.170000X0.140000X-0.170000X0.140000X-0.170000X-0.140000X0*%
%ADD14RoundRect,0.140000X0.021213X-0.219203X0.219203X-0.021213X-0.021213X0.219203X-0.219203X0.021213X0*%
%ADD15RoundRect,0.140000X0.140000X0.170000X-0.140000X0.170000X-0.140000X-0.170000X0.140000X-0.170000X0*%
%ADD16RoundRect,0.135000X-0.185000X0.135000X-0.185000X-0.135000X0.185000X-0.135000X0.185000X0.135000X0*%
%ADD17R,0.900000X1.500000*%
%ADD18R,1.500000X0.900000*%
%ADD19R,0.900000X0.900000*%
%ADD20RoundRect,0.140000X-0.170000X0.140000X-0.170000X-0.140000X0.170000X-0.140000X0.170000X0.140000X0*%
%ADD21RoundRect,0.135000X0.185000X-0.135000X0.185000X0.135000X-0.185000X0.135000X-0.185000X-0.135000X0*%
%ADD22RoundRect,0.181818X-0.268182X-0.218182X0.268182X-0.218182X0.268182X0.218182X-0.268182X0.218182X0*%
%ADD23RoundRect,0.181818X0.268182X0.218182X-0.268182X0.218182X-0.268182X-0.218182X0.268182X-0.218182X0*%
%ADD24R,0.565000X0.200000*%
%ADD25R,0.565000X0.400000*%
%ADD26RoundRect,0.140000X-0.140000X-0.170000X0.140000X-0.170000X0.140000X0.170000X-0.140000X0.170000X0*%
%ADD27RoundRect,0.135000X-0.135000X-0.185000X0.135000X-0.185000X0.135000X0.185000X-0.135000X0.185000X0*%
%ADD28RoundRect,0.140000X0.219203X0.021213X0.021213X0.219203X-0.219203X-0.021213X-0.021213X-0.219203X0*%
G04 APERTURE END LIST*
D10*
%TO.C,C14*%
X133350000Y-80824600D03*
X133350000Y-77874600D03*
%TD*%
D11*
%TO.C,R31*%
X135708013Y-97717987D03*
X134986765Y-98439235D03*
%TD*%
D10*
%TO.C,C32*%
X136550400Y-80824600D03*
X136550400Y-77874600D03*
%TD*%
D12*
%TO.C,C23*%
X119077000Y-91440000D03*
X116127000Y-91440000D03*
%TD*%
D13*
%TO.C,C30*%
X132486400Y-95780800D03*
X132486400Y-94820800D03*
%TD*%
D12*
%TO.C,C38*%
X119077000Y-85039200D03*
X116127000Y-85039200D03*
%TD*%
D14*
%TO.C,C74*%
X134529565Y-95289635D03*
X135208387Y-94610813D03*
%TD*%
D13*
%TO.C,C54*%
X134023100Y-105979789D03*
X134023100Y-105019789D03*
%TD*%
D15*
%TO.C,C48*%
X129004000Y-97332800D03*
X128044000Y-97332800D03*
%TD*%
D16*
%TO.C,R21*%
X128828800Y-99261200D03*
X128828800Y-100281200D03*
%TD*%
D14*
%TO.C,C58*%
X136328778Y-97097222D03*
X137007600Y-96418400D03*
%TD*%
D13*
%TO.C,C51*%
X131572000Y-95780800D03*
X131572000Y-94820800D03*
%TD*%
D10*
%TO.C,C37*%
X130149600Y-80824600D03*
X130149600Y-77874600D03*
%TD*%
D11*
%TO.C,R32*%
X134793613Y-96803587D03*
X134072365Y-97524835D03*
%TD*%
D14*
%TO.C,C73*%
X135414378Y-96182822D03*
X136093200Y-95504000D03*
%TD*%
D17*
%TO.C,U6*%
X163169600Y-107696000D03*
X161899600Y-107696000D03*
X160629600Y-107696000D03*
X159359600Y-107696000D03*
X158089600Y-107696000D03*
X156819600Y-107696000D03*
X155549600Y-107696000D03*
X154279600Y-107696000D03*
X153009600Y-107696000D03*
X151739600Y-107696000D03*
X150469600Y-107696000D03*
X149199600Y-107696000D03*
X147929600Y-107696000D03*
X146659600Y-107696000D03*
D18*
X145409600Y-105931000D03*
X145409600Y-104661000D03*
X145409600Y-103391000D03*
X145409600Y-102121000D03*
X145409600Y-100851000D03*
X145409600Y-99581000D03*
X145409600Y-98311000D03*
X145409600Y-97041000D03*
X145409600Y-95771000D03*
X145409600Y-94501000D03*
X145409600Y-93231000D03*
X145409600Y-91961000D03*
D17*
X146659600Y-90196000D03*
X147929600Y-90196000D03*
X149199600Y-90196000D03*
X150469600Y-90196000D03*
X151739600Y-90196000D03*
X153009600Y-90196000D03*
X154279600Y-90196000D03*
X155549600Y-90196000D03*
X156819600Y-90196000D03*
X158089600Y-90196000D03*
X159359600Y-90196000D03*
X160629600Y-90196000D03*
X161899600Y-90196000D03*
X163169600Y-90196000D03*
D19*
X155449600Y-100446000D03*
X155449600Y-101846000D03*
X155449600Y-99046000D03*
X154049600Y-101846000D03*
X154049600Y-100446000D03*
X154049600Y-99046000D03*
X156849600Y-101846000D03*
X156849600Y-100446000D03*
X156849600Y-99046000D03*
%TD*%
D12*
%TO.C,C28*%
X119077000Y-94640400D03*
X116127000Y-94640400D03*
%TD*%
D20*
%TO.C,C49*%
X129641600Y-94820800D03*
X129641600Y-95780800D03*
%TD*%
D21*
%TO.C,R25*%
X133280800Y-108112400D03*
X133280800Y-107092400D03*
%TD*%
D22*
%TO.C,D4*%
X122758400Y-107391200D03*
D23*
X125958400Y-107391200D03*
%TD*%
D10*
%TO.C,C17*%
X123748800Y-80824600D03*
X123748800Y-77874600D03*
%TD*%
D13*
%TO.C,C25*%
X135128000Y-104518400D03*
X135128000Y-103558400D03*
%TD*%
D24*
%TO.C,D3*%
X123302700Y-111014000D03*
X123302700Y-111514000D03*
D25*
X123302700Y-112014000D03*
D24*
X123302700Y-112514000D03*
X123302700Y-113014000D03*
X122467700Y-113014000D03*
X122467700Y-112514000D03*
D25*
X122467700Y-112014000D03*
D24*
X122467700Y-111514000D03*
X122467700Y-111014000D03*
%TD*%
D12*
%TO.C,C15*%
X119077000Y-97840800D03*
X116127000Y-97840800D03*
%TD*%
D26*
%TO.C,C27*%
X122862400Y-109016800D03*
X123822400Y-109016800D03*
%TD*%
D16*
%TO.C,R41*%
X135991600Y-108202000D03*
X135991600Y-109222000D03*
%TD*%
D12*
%TO.C,C33*%
X119077000Y-88239600D03*
X116127000Y-88239600D03*
%TD*%
D11*
%TO.C,R33*%
X133908800Y-95910400D03*
X133187552Y-96631648D03*
%TD*%
D12*
%TO.C,C41*%
X119077000Y-81838800D03*
X116127000Y-81838800D03*
%TD*%
D27*
%TO.C,R11*%
X122830400Y-110032800D03*
X123850400Y-110032800D03*
%TD*%
%TO.C,R36*%
X124762800Y-109321600D03*
X125782800Y-109321600D03*
%TD*%
D16*
%TO.C,R34*%
X132283200Y-107082400D03*
X132283200Y-108102400D03*
%TD*%
D28*
%TO.C,C26*%
X140344211Y-98891411D03*
X139665389Y-98212589D03*
%TD*%
D16*
%TO.C,R43*%
X136956800Y-108202000D03*
X136956800Y-109222000D03*
%TD*%
%TO.C,R40*%
X137922000Y-108202000D03*
X137922000Y-109222000D03*
%TD*%
D15*
%TO.C,C46*%
X126667200Y-96596400D03*
X125707200Y-96596400D03*
%TD*%
D10*
%TO.C,C39*%
X126949200Y-80824600D03*
X126949200Y-77874600D03*
%TD*%
D15*
%TO.C,C50*%
X126604000Y-98222000D03*
X125644000Y-98222000D03*
%TD*%
D21*
%TO.C,R17*%
X130606800Y-95810800D03*
X130606800Y-94790800D03*
%TD*%
D16*
%TO.C,R42*%
X138887200Y-108202000D03*
X138887200Y-109222000D03*
%TD*%
D15*
%TO.C,C47*%
X126667200Y-95656400D03*
X125707200Y-95656400D03*
%TD*%
M02*
