%TF.GenerationSoftware,KiCad,Pcbnew,9.99.0-1168-g72ed3d3f11*%
%TF.CreationDate,2025-05-06T15:31:49-04:00*%
%TF.ProjectId,main_board,6d61696e-5f62-46f6-9172-642e6b696361,rev?*%
%TF.SameCoordinates,Original*%
%TF.FileFunction,Soldermask,Top*%
%TF.FilePolarity,Negative*%
%FSLAX46Y46*%
G04 Gerber Fmt 4.6, Leading zero omitted, Abs format (unit mm)*
G04 Created by KiCad (PCBNEW 9.99.0-1168-g72ed3d3f11) date 2025-05-06 15:31:49*
%MOMM*%
%LPD*%
G01*
G04 APERTURE LIST*
G04 Aperture macros list*
%AMRoundRect*
0 Rectangle with rounded corners*
0 $1 Rounding radius*
0 $2 $3 $4 $5 $6 $7 $8 $9 X,Y pos of 4 corners*
0 Add a 4 corners polygon primitive as box body*
4,1,4,$2,$3,$4,$5,$6,$7,$8,$9,$2,$3,0*
0 Add four circle primitives for the rounded corners*
1,1,$1+$1,$2,$3*
1,1,$1+$1,$4,$5*
1,1,$1+$1,$6,$7*
1,1,$1+$1,$8,$9*
0 Add four rect primitives between the rounded corners*
20,1,$1+$1,$2,$3,$4,$5,0*
20,1,$1+$1,$4,$5,$6,$7,0*
20,1,$1+$1,$6,$7,$8,$9,0*
20,1,$1+$1,$8,$9,$2,$3,0*%
%AMRotRect*
0 Rectangle, with rotation*
0 The origin of the aperture is its center*
0 $1 length*
0 $2 width*
0 $3 Rotation angle, in degrees counterclockwise*
0 Add horizontal line*
21,1,$1,$2,0,0,$3*%
G04 Aperture macros list end*
%ADD10C,0.100000*%
%ADD11C,1.200000*%
%ADD12C,0.158749*%
%ADD13C,0.152400*%
%ADD14C,0.200000*%
%ADD15C,0.250000*%
%ADD16C,1.700000*%
%ADD17C,2.300000*%
%ADD18R,2.300000X2.200000*%
%ADD19R,0.300000X1.250000*%
%ADD20RoundRect,0.140000X-0.170000X0.140000X-0.170000X-0.140000X0.170000X-0.140000X0.170000X0.140000X0*%
%ADD21RoundRect,0.250000X0.325000X1.100000X-0.325000X1.100000X-0.325000X-1.100000X0.325000X-1.100000X0*%
%ADD22C,3.800000*%
%ADD23R,0.304800X0.762000*%
%ADD24R,2.438400X1.651000*%
%ADD25RoundRect,0.250000X-1.100000X0.325000X-1.100000X-0.325000X1.100000X-0.325000X1.100000X0.325000X0*%
%ADD26R,0.711200X0.228600*%
%ADD27RoundRect,0.140000X0.140000X0.170000X-0.140000X0.170000X-0.140000X-0.170000X0.140000X-0.170000X0*%
%ADD28R,1.854200X5.003800*%
%ADD29RoundRect,0.250000X-1.450000X0.250000X-1.450000X-0.250000X1.450000X-0.250000X1.450000X0.250000X0*%
%ADD30R,0.660000X0.420000*%
%ADD31R,0.570000X0.600000*%
%ADD32R,1.830000X2.360000*%
%ADD33RoundRect,0.140000X-0.140000X-0.170000X0.140000X-0.170000X0.140000X0.170000X-0.140000X0.170000X0*%
%ADD34RoundRect,0.140000X-0.219203X-0.021213X-0.021213X-0.219203X0.219203X0.021213X0.021213X0.219203X0*%
%ADD35RoundRect,0.250000X-0.250000X-1.450000X0.250000X-1.450000X0.250000X1.450000X-0.250000X1.450000X0*%
%ADD36RoundRect,0.135000X-0.135000X-0.185000X0.135000X-0.185000X0.135000X0.185000X-0.135000X0.185000X0*%
%ADD37C,0.400000*%
%ADD38RoundRect,0.250000X0.250000X1.450000X-0.250000X1.450000X-0.250000X-1.450000X0.250000X-1.450000X0*%
%ADD39R,0.650000X0.350000*%
%ADD40R,1.550000X2.400000*%
%ADD41RoundRect,0.135000X0.135000X0.185000X-0.135000X0.185000X-0.135000X-0.185000X0.135000X-0.185000X0*%
%ADD42RoundRect,0.102000X0.675000X0.900000X-0.675000X0.900000X-0.675000X-0.900000X0.675000X-0.900000X0*%
%ADD43O,0.400000X0.250000*%
%ADD44O,0.250000X0.400000*%
%ADD45R,1.700000X1.700000*%
%ADD46RoundRect,0.250000X1.100000X-0.325000X1.100000X0.325000X-1.100000X0.325000X-1.100000X-0.325000X0*%
%ADD47RoundRect,0.135000X-0.185000X0.135000X-0.185000X-0.135000X0.185000X-0.135000X0.185000X0.135000X0*%
%ADD48RoundRect,0.140000X0.170000X-0.140000X0.170000X0.140000X-0.170000X0.140000X-0.170000X-0.140000X0*%
%ADD49RoundRect,0.018200X0.219203X0.377312X-0.377312X-0.219203X-0.219203X-0.377312X0.377312X0.219203X0*%
%ADD50RoundRect,0.018200X-0.219203X0.377312X-0.377312X0.219203X0.219203X-0.377312X0.377312X-0.219203X0*%
%ADD51RotRect,4.150000X4.150000X225.000000*%
%ADD52RoundRect,0.102000X-0.675000X-0.900000X0.675000X-0.900000X0.675000X0.900000X-0.675000X0.900000X0*%
%ADD53R,1.140000X0.600000*%
%ADD54R,1.140000X0.300000*%
%ADD55O,1.600000X1.000000*%
%ADD56O,1.900000X1.000000*%
%ADD57C,0.600000*%
%ADD58R,3.429000X2.489200*%
%ADD59R,0.558800X1.003300*%
%ADD60RoundRect,0.135000X0.185000X-0.135000X0.185000X0.135000X-0.185000X0.135000X-0.185000X-0.135000X0*%
G04 APERTURE END LIST*
D10*
X119500001Y-68000000D02*
X119500001Y-68000000D01*
X119500001Y-68000000D01*
X119500001Y-68000000D01*
X119500001Y-68000000D01*
X119500001Y-68000000D01*
X119500001Y-68000001D01*
X119500001Y-68000001D01*
X119500001Y-68000001D01*
X119500001Y-68000001D01*
X119500001Y-68000001D01*
X119500001Y-68000001D01*
X119500001Y-68000001D01*
X119500000Y-68000001D01*
X119500000Y-68000001D01*
X119500000Y-68000001D01*
X119500000Y-68000001D01*
X119500000Y-68000001D01*
X119500000Y-68000001D01*
X119500000Y-68000001D01*
X119500000Y-68000001D01*
X119500000Y-68000001D01*
X119500000Y-68000001D01*
X119500000Y-68000001D01*
X119500000Y-68000001D01*
X119499999Y-68000001D01*
X119499999Y-68000001D01*
X119499999Y-68000001D01*
X119499999Y-68000001D01*
X119499999Y-68000001D01*
X119499999Y-68000001D01*
X119499999Y-68000000D01*
X119499999Y-68000000D01*
X119499999Y-68000000D01*
X119499999Y-68000000D01*
X119499999Y-68000000D01*
X119499999Y-68000000D01*
X119499999Y-68000000D02*
X119499999Y-68000000D01*
X119499999Y-68000000D01*
X119499999Y-68000000D01*
X119499999Y-68000000D01*
X119499999Y-68000000D01*
X119499999Y-68000000D01*
X119499999Y-67999999D01*
X119499999Y-67999999D01*
X119499999Y-67999999D01*
X119499999Y-67999999D01*
X119499999Y-67999999D01*
X119500000Y-67999999D01*
X119500000Y-67999999D01*
X119500000Y-67999999D01*
X119500000Y-67999999D01*
X119500000Y-67999999D01*
X119500000Y-67999999D01*
X119500000Y-67999999D01*
X119500000Y-67999999D01*
X119500000Y-67999999D01*
X119500000Y-67999999D01*
X119500000Y-67999999D01*
X119500000Y-67999999D01*
X119500001Y-67999999D01*
X119500001Y-67999999D01*
X119500001Y-67999999D01*
X119500001Y-67999999D01*
X119500001Y-67999999D01*
X119500001Y-67999999D01*
X119500001Y-68000000D01*
X119500001Y-68000000D01*
X119500001Y-68000000D01*
X119500001Y-68000000D01*
X119500001Y-68000000D01*
X119500001Y-68000000D01*
X119500001Y-68000000D01*
D11*
X114500000Y-71000000D02*
G75*
G02*
X117000000Y-68500000I2500000J0D01*
G01*
D12*
X126885638Y-81716064D02*
X126889345Y-81708347D01*
X126893058Y-81700435D01*
X126896782Y-81692312D01*
X126900526Y-81683958D01*
X126904299Y-81675347D01*
X126908111Y-81666450D01*
X126911975Y-81657231D01*
X126915908Y-81647644D01*
X126919932Y-81637631D01*
X126924074Y-81627114D01*
X126928374Y-81615983D01*
X126932889Y-81604082D01*
X126937709Y-81591164D01*
X126942987Y-81576798D01*
X126949048Y-81560092D01*
X126957846Y-81535618D01*
X126962802Y-81521809D01*
X126967776Y-81508008D01*
X126972783Y-81494221D01*
X126977842Y-81480452D01*
X126980397Y-81473577D01*
X126982970Y-81466709D01*
X126985565Y-81459848D01*
X126988184Y-81452996D01*
X126990829Y-81446152D01*
X126993502Y-81439319D01*
X126996205Y-81432496D01*
X126998941Y-81425685D01*
X127001711Y-81418885D01*
X127004518Y-81412098D01*
X127007364Y-81405325D01*
X127010250Y-81398566D01*
X127013181Y-81391821D01*
X127016156Y-81385092D01*
X127019180Y-81378380D01*
X127022253Y-81371684D01*
X127025378Y-81365006D01*
X127028557Y-81358347D01*
X127031793Y-81351707D01*
X127035087Y-81345086D01*
X127038441Y-81338486D01*
X127041859Y-81331908D01*
X127045341Y-81325352D01*
X127048891Y-81318818D01*
X127783544Y-80841058D02*
X127785416Y-80840166D01*
X127787349Y-80839332D01*
X127789348Y-80838558D01*
X127791413Y-80837843D01*
X127793549Y-80837188D01*
X127795758Y-80836594D01*
X127798044Y-80836062D01*
X127800408Y-80835594D01*
X127802856Y-80835190D01*
X127805391Y-80834853D01*
X127808016Y-80834585D01*
X127810736Y-80834387D01*
X127813554Y-80834261D01*
X127816476Y-80834211D01*
X127819506Y-80834239D01*
X127822649Y-80834348D01*
X127825910Y-80834540D01*
X127829296Y-80834820D01*
X127832812Y-80835190D01*
X127836465Y-80835655D01*
X127840263Y-80836218D01*
X127844213Y-80836884D01*
X127848325Y-80837658D01*
X127852610Y-80838545D01*
X127857078Y-80839552D01*
X127861743Y-80840683D01*
X127866620Y-80841948D01*
X127871730Y-80843354D01*
X127877095Y-80844912D01*
X127882743Y-80846634D01*
X127888712Y-80848536D01*
X127895053Y-80850638D01*
X127901836Y-80852969D01*
X127909165Y-80855568D01*
X127917214Y-80858504D01*
X127926302Y-80861898D01*
X127937181Y-80866036D01*
X127946602Y-80869654D01*
X127958686Y-80874289D01*
X127964631Y-80876549D01*
X127970502Y-80878754D01*
X127976288Y-80880893D01*
X127981982Y-80882955D01*
X127987576Y-80884926D01*
X127993060Y-80886797D01*
X127998426Y-80888554D01*
X128001062Y-80889387D01*
X128003665Y-80890187D01*
X128006235Y-80890953D01*
X128008770Y-80891683D01*
X128011270Y-80892376D01*
X128013732Y-80893031D01*
X128016157Y-80893646D01*
X128018542Y-80894219D01*
X128020888Y-80894750D01*
X128023192Y-80895236D01*
X128025454Y-80895676D01*
X128027673Y-80896069D01*
X128029848Y-80896413D01*
X128031977Y-80896707D01*
X126809925Y-81520695D02*
X127318618Y-81520695D01*
X127048891Y-81318818D02*
X127050934Y-81315182D01*
X127053201Y-81311304D01*
X127055736Y-81307122D01*
X127058604Y-81302540D01*
X127061918Y-81297387D01*
X127065920Y-81291298D01*
X127071260Y-81283289D01*
X127076751Y-81275053D01*
X127079480Y-81270914D01*
X127082182Y-81266759D01*
X127084845Y-81262591D01*
X127087457Y-81258408D01*
X127090004Y-81254211D01*
X127092476Y-81250000D01*
X127093680Y-81247889D01*
X127094859Y-81245774D01*
X127096014Y-81243656D01*
X127097142Y-81241535D01*
X127098242Y-81239410D01*
X127099312Y-81237281D01*
X127100351Y-81235149D01*
X127101357Y-81233014D01*
X127102329Y-81230875D01*
X127103265Y-81228733D01*
X127104163Y-81226587D01*
X127105023Y-81224437D01*
X127105842Y-81222285D01*
X127106619Y-81220129D01*
X127107353Y-81217969D01*
X127108041Y-81215806D01*
X129425543Y-82119321D02*
X129427119Y-82119331D01*
X129428528Y-82119361D01*
X129429668Y-82119404D01*
X129430676Y-82119464D01*
X129431471Y-82119531D01*
X129432162Y-82119610D01*
X129432690Y-82119690D01*
X129433140Y-82119780D01*
X129433468Y-82119865D01*
X129433739Y-82119958D01*
X129433925Y-82120043D01*
X129434070Y-82120132D01*
X129434161Y-82120212D01*
X129434224Y-82120295D01*
X129434255Y-82120370D01*
X129434265Y-82120448D01*
X129434224Y-82120607D01*
X129434089Y-82120793D01*
X129433816Y-82121023D01*
X129433341Y-82121312D01*
X129432583Y-82121674D01*
X129431444Y-82122125D01*
X129429809Y-82122684D01*
X129427541Y-82123372D01*
X129424474Y-82124217D01*
X129420402Y-82125256D01*
X129415050Y-82126539D01*
X129408004Y-82128147D01*
X129398512Y-82130236D01*
X129382526Y-82133671D01*
X129371438Y-82136047D01*
X129360146Y-82138495D01*
X129348897Y-82140989D01*
X129343366Y-82142246D01*
X129337938Y-82143505D01*
X129332646Y-82144764D01*
X129327518Y-82146018D01*
X129322587Y-82147266D01*
X129317884Y-82148503D01*
X129313438Y-82149727D01*
X129309282Y-82150934D01*
X129307322Y-82151531D01*
X129305446Y-82152123D01*
X129303658Y-82152708D01*
X129301961Y-82153288D01*
X127746873Y-81701856D02*
X127746837Y-81673783D01*
X127746723Y-81639497D01*
X127746622Y-81615573D01*
X127746464Y-81576944D01*
X127746406Y-81557607D01*
X127746373Y-81538258D01*
X127746374Y-81518899D01*
X127746416Y-81499532D01*
X127746508Y-81480159D01*
X127746658Y-81460782D01*
X127746875Y-81441402D01*
X127747011Y-81431712D01*
X127747167Y-81422023D01*
X127747344Y-81412334D01*
X127747542Y-81402645D01*
X127747764Y-81392958D01*
X127748009Y-81383272D01*
X127748280Y-81373587D01*
X127748576Y-81363904D01*
X127748900Y-81354223D01*
X127749252Y-81344544D01*
X127749633Y-81334868D01*
X127750044Y-81325195D01*
X127750487Y-81315524D01*
X127750961Y-81305857D01*
X127751470Y-81296193D01*
X127752012Y-81286533D01*
X127752590Y-81276877D01*
X127753205Y-81267225D01*
X127753857Y-81257578D01*
X127754547Y-81247936D01*
X127755278Y-81238298D01*
X127756049Y-81228666D01*
X127756861Y-81219039D01*
X127757716Y-81209418D01*
X127758616Y-81199803D01*
X127759560Y-81190194D01*
X127760549Y-81180592D01*
X127761586Y-81170997D01*
X127762671Y-81161408D01*
X127763805Y-81151827D01*
X127764988Y-81142253D01*
X127766223Y-81132687D01*
X127767510Y-81123129D01*
X127768850Y-81113580D01*
X127770245Y-81104038D01*
X127771695Y-81094506D01*
X127773200Y-81084983D01*
X127774764Y-81075469D01*
X127776385Y-81065964D01*
X127778067Y-81056469D01*
X127779808Y-81046984D01*
X127781611Y-81037510D01*
X127783477Y-81028046D01*
X127785406Y-81018592D01*
X127787400Y-81009150D01*
X127789460Y-80999719D01*
D11*
X117000000Y-114500000D02*
X162000000Y-114500000D01*
D12*
X127789460Y-80999719D02*
X127790555Y-80994952D01*
X127791845Y-80989652D01*
X127793300Y-80983886D01*
X127794637Y-80978592D01*
X127795279Y-80975986D01*
X127795898Y-80973394D01*
X127796490Y-80970807D01*
X127797052Y-80968214D01*
X127797579Y-80965608D01*
X127798067Y-80962977D01*
X127798513Y-80960313D01*
X127798912Y-80957606D01*
X127799261Y-80954847D01*
X127799555Y-80952025D01*
X127799790Y-80949131D01*
X127799964Y-80946156D01*
X127800071Y-80943090D01*
X127800107Y-80939924D01*
D11*
X164500000Y-112000000D02*
X164500000Y-71000000D01*
D10*
X150876000Y-98628200D02*
X152095200Y-98628200D01*
X152095200Y-99796600D01*
X150876000Y-99796600D01*
X150876000Y-98628200D01*
G36*
X150876000Y-98628200D02*
G01*
X152095200Y-98628200D01*
X152095200Y-99796600D01*
X150876000Y-99796600D01*
X150876000Y-98628200D01*
G37*
D13*
X128524000Y-88290400D02*
X132638800Y-88290400D01*
X132638800Y-89509600D01*
X128524000Y-89509600D01*
X128524000Y-88290400D01*
D12*
X127227527Y-80990246D02*
X127227873Y-80989990D01*
X127228221Y-80989756D01*
X127228565Y-80989550D01*
X127228912Y-80989365D01*
X127229256Y-80989204D01*
X127229603Y-80989065D01*
X127229948Y-80988947D01*
X127230296Y-80988849D01*
X127230645Y-80988772D01*
X127230996Y-80988715D01*
X127231707Y-80988660D01*
X127232433Y-80988684D01*
X127233179Y-80988789D01*
X127233949Y-80988978D01*
X127234748Y-80989257D01*
X127235581Y-80989634D01*
X127236451Y-80990116D01*
X127237363Y-80990713D01*
X127238320Y-80991437D01*
X127239327Y-80992300D01*
X127240386Y-80993314D01*
X127241501Y-80994493D01*
X127242676Y-80995853D01*
X127243913Y-80997409D01*
X127245216Y-80999177D01*
X127246587Y-81001175D01*
X127248031Y-81003419D01*
X127249549Y-81005929D01*
X127251145Y-81008723D01*
X127252822Y-81011820D01*
X127254582Y-81015240D01*
X127256429Y-81019003D01*
X127258365Y-81023130D01*
X127260393Y-81027642D01*
X127262515Y-81032558D01*
X127264735Y-81037901D01*
X127267053Y-81043690D01*
X127269473Y-81049946D01*
X127271995Y-81056688D01*
X127274621Y-81063935D01*
X127277352Y-81071704D01*
X127280188Y-81080010D01*
X127283129Y-81088866D01*
X127286172Y-81098283D01*
X127289315Y-81108263D01*
X127292554Y-81118808D01*
X127295881Y-81129909D01*
X127299288Y-81141545D01*
X127302761Y-81153684D01*
X127306283Y-81166274D01*
X127309828Y-81179234D01*
X127313364Y-81192449D01*
X127316845Y-81205748D01*
X127320206Y-81218888D01*
X127323361Y-81231519D01*
X127326193Y-81243157D01*
X127327446Y-81248428D01*
X127328555Y-81253169D01*
X127329503Y-81257308D01*
X127330297Y-81260862D01*
X127330887Y-81263591D01*
X127331336Y-81265768D01*
X127331630Y-81267309D01*
D10*
X131470400Y-88290400D02*
X132638800Y-88290400D01*
X132638800Y-89509600D01*
X131470400Y-89509600D01*
X131470400Y-88290400D01*
G36*
X131470400Y-88290400D02*
G01*
X132638800Y-88290400D01*
X132638800Y-89509600D01*
X131470400Y-89509600D01*
X131470400Y-88290400D01*
G37*
D12*
X127800107Y-80939924D02*
X127800068Y-80938849D01*
X127799939Y-80937551D01*
X127799703Y-80935990D01*
X127799339Y-80934119D01*
X127798822Y-80931883D01*
X127798122Y-80929205D01*
X127797196Y-80925979D01*
X127795985Y-80922036D01*
X127794377Y-80917059D01*
X127792092Y-80910211D01*
X127791313Y-80907899D01*
X127789585Y-80902762D01*
X127787844Y-80897523D01*
X127786128Y-80892231D01*
X127784477Y-80886937D01*
X127783687Y-80884303D01*
X127782927Y-80881688D01*
X127782202Y-80879096D01*
X127781518Y-80876534D01*
X127780877Y-80874009D01*
X127780287Y-80871525D01*
X127779750Y-80869090D01*
X127779272Y-80866709D01*
X127778858Y-80864390D01*
X127778513Y-80862137D01*
X127778241Y-80859957D01*
X127778047Y-80857856D01*
X127777980Y-80856837D01*
X127777935Y-80855840D01*
X127777912Y-80854866D01*
X127777912Y-80853916D01*
X127777934Y-80852990D01*
X127777980Y-80852089D01*
X127778051Y-80851215D01*
X127778146Y-80850367D01*
X127778267Y-80849546D01*
X127778414Y-80848754D01*
X127778588Y-80847991D01*
X127778788Y-80847257D01*
X127779017Y-80846554D01*
X127779274Y-80845883D01*
X127779561Y-80845243D01*
X127779877Y-80844636D01*
X127780223Y-80844063D01*
X127780600Y-80843525D01*
X127781009Y-80843021D01*
X127781449Y-80842554D01*
X127781922Y-80842123D01*
X127782429Y-80841729D01*
X127782969Y-80841374D01*
X127783544Y-80841058D01*
D13*
X138430000Y-102006400D02*
X139649200Y-102006400D01*
X139649200Y-106121200D01*
X138430000Y-106121200D01*
X138430000Y-102006400D01*
D12*
X125848000Y-82177000D02*
X126976268Y-82177000D01*
X126361562Y-81543190D02*
X126365313Y-81545993D01*
X126368989Y-81548838D01*
X126372591Y-81551727D01*
X126376123Y-81554662D01*
X126379585Y-81557642D01*
X126382980Y-81560669D01*
X126386309Y-81563744D01*
X126389575Y-81566868D01*
X126392779Y-81570044D01*
X126395924Y-81573272D01*
X126399010Y-81576554D01*
X126402040Y-81579893D01*
X126405015Y-81583289D01*
X126407938Y-81586746D01*
X126410810Y-81590265D01*
X126413632Y-81593850D01*
X126416407Y-81597503D01*
X126419136Y-81601227D01*
X126421822Y-81605025D01*
X126424466Y-81608902D01*
X126427069Y-81612861D01*
X126429635Y-81616907D01*
X126432165Y-81621045D01*
X126434662Y-81625280D01*
X126437128Y-81629618D01*
X126439565Y-81634067D01*
X126441977Y-81638634D01*
X126444366Y-81643329D01*
X126446737Y-81648161D01*
X126449093Y-81653143D01*
X126451440Y-81658288D01*
X126453782Y-81663614D01*
X126456126Y-81669142D01*
X126458482Y-81674896D01*
X126460857Y-81680908D01*
X126463267Y-81687219D01*
X126465729Y-81693884D01*
X126468266Y-81700978D01*
X126470915Y-81708614D01*
X126473733Y-81716969D01*
X126476821Y-81726362D01*
X126480401Y-81737481D01*
X126484692Y-81750991D01*
X126487807Y-81760810D01*
X126490955Y-81770650D01*
X126494157Y-81780506D01*
X126495787Y-81785436D01*
X126497438Y-81790368D01*
X126499115Y-81795299D01*
X126500820Y-81800229D01*
X126502557Y-81805156D01*
X126504327Y-81810081D01*
X126506133Y-81815002D01*
X126507980Y-81819917D01*
X126509869Y-81824827D01*
X126511803Y-81829729D01*
X129144439Y-82119321D02*
X129163657Y-82119138D01*
X129184333Y-82119018D01*
X129207015Y-82118963D01*
X129232747Y-82118974D01*
X129264072Y-82119058D01*
X129286172Y-82119140D01*
X129321604Y-82119264D01*
X129339319Y-82119305D01*
X129357031Y-82119321D01*
X126521629Y-82373114D02*
X126511264Y-82373015D01*
X126500643Y-82372835D01*
X126489733Y-82372571D01*
X126478498Y-82372220D01*
X126466892Y-82371779D01*
X126454856Y-82371243D01*
X126442316Y-82370607D01*
X126429171Y-82369861D01*
X126415281Y-82368996D01*
X126400440Y-82367994D01*
X126384321Y-82366830D01*
X126366344Y-82365455D01*
X126345254Y-82363770D01*
X126318773Y-82361596D01*
X126292536Y-82359441D01*
X126279413Y-82358385D01*
X126266286Y-82357354D01*
X126253154Y-82356357D01*
X126240014Y-82355402D01*
X126226867Y-82354498D01*
X126213710Y-82353653D01*
X126200543Y-82352876D01*
X126193955Y-82352515D01*
X126187365Y-82352175D01*
X126180770Y-82351855D01*
X126174173Y-82351558D01*
X126167572Y-82351285D01*
X126160967Y-82351035D01*
X126154358Y-82350811D01*
X126147745Y-82350613D01*
X126141128Y-82350443D01*
X126134507Y-82350302D01*
X126127881Y-82350190D01*
X126121251Y-82350108D01*
X126114616Y-82350059D01*
X126107976Y-82350042D01*
D11*
X164500000Y-112000000D02*
G75*
G02*
X162000000Y-114500000I-2500000J0D01*
G01*
D12*
X128031977Y-80896707D02*
X128039551Y-80897632D01*
X128047282Y-80898496D01*
X128055181Y-80899300D01*
X128063261Y-80900042D01*
X128071539Y-80900723D01*
X128080032Y-80901342D01*
X128088762Y-80901900D01*
X128097753Y-80902395D01*
X128107037Y-80902827D01*
X128116651Y-80903197D01*
X128126643Y-80903502D01*
X128137074Y-80903742D01*
X128148026Y-80903916D01*
X128159612Y-80904022D01*
X128171998Y-80904059D01*
X128185445Y-80904022D01*
X128200412Y-80903906D01*
X128217866Y-80903698D01*
X128241971Y-80903341D01*
X128259319Y-80903079D01*
X128276639Y-80902851D01*
X128285287Y-80902759D01*
X128293925Y-80902689D01*
X128302553Y-80902644D01*
X128311170Y-80902628D01*
X128701325Y-82188535D02*
X128710565Y-82187340D01*
X128720066Y-82186031D01*
X128729859Y-82184603D01*
X128739983Y-82183046D01*
X128750486Y-82181353D01*
X128761431Y-82179508D01*
X128772901Y-82177496D01*
X128785008Y-82175293D01*
X128797919Y-82172865D01*
X128811888Y-82170161D01*
X128827352Y-82167089D01*
X128845199Y-82163470D01*
X128867899Y-82158798D01*
X128874198Y-82157495D01*
X128891014Y-82154022D01*
X128907835Y-82150574D01*
X128924663Y-82147176D01*
X128933080Y-82145504D01*
X128941499Y-82143854D01*
X128949920Y-82142230D01*
X128958343Y-82140635D01*
X128966768Y-82139071D01*
X128975196Y-82137543D01*
X128983627Y-82136053D01*
X128992060Y-82134605D01*
X129000496Y-82133201D01*
X129008935Y-82131846D01*
X129017377Y-82130541D01*
X129025822Y-82129292D01*
X129034271Y-82128100D01*
X129042722Y-82126969D01*
X129051177Y-82125902D01*
X129059636Y-82124902D01*
X129068098Y-82123973D01*
X129076564Y-82123118D01*
X129085034Y-82122340D01*
X129089270Y-82121981D01*
X129093507Y-82121642D01*
X129097746Y-82121324D01*
X129101985Y-82121028D01*
X129106226Y-82120753D01*
X129110467Y-82120500D01*
X129114710Y-82120270D01*
X129118953Y-82120063D01*
X129123198Y-82119878D01*
X129127444Y-82119718D01*
X129131691Y-82119582D01*
X129135939Y-82119470D01*
X129140189Y-82119383D01*
X129144439Y-82119321D01*
X126027950Y-81061880D02*
X126028977Y-81058973D01*
X126030016Y-81056092D01*
X126031065Y-81053243D01*
X126032126Y-81050418D01*
X126033197Y-81047624D01*
X126034280Y-81044854D01*
X126035373Y-81042113D01*
X126036479Y-81039397D01*
X126037594Y-81036708D01*
X126038721Y-81034042D01*
X126039858Y-81031404D01*
X126041008Y-81028788D01*
X126042168Y-81026198D01*
X126043339Y-81023631D01*
X126044521Y-81021088D01*
X126045715Y-81018567D01*
X126046920Y-81016070D01*
X126048137Y-81013594D01*
X126049365Y-81011141D01*
X126050604Y-81008709D01*
X126051856Y-81006299D01*
X126053118Y-81003909D01*
X126054393Y-81001540D01*
X126055679Y-80999191D01*
X126056977Y-80996862D01*
X126058287Y-80994552D01*
X126059609Y-80992261D01*
X126060943Y-80989990D01*
X126062291Y-80987736D01*
X126063649Y-80985501D01*
X126065021Y-80983283D01*
X126066405Y-80981084D01*
X126069212Y-80976734D01*
X126072071Y-80972451D01*
X126074984Y-80968231D01*
X126077951Y-80964072D01*
X126080975Y-80959971D01*
X126084056Y-80955925D01*
X126087197Y-80951933D01*
X126090400Y-80947992D01*
X126093665Y-80944099D01*
X126096997Y-80940251D01*
X126100396Y-80936448D01*
X126103865Y-80932684D01*
X126107407Y-80928960D01*
X126111025Y-80925271D01*
X126114722Y-80921615D01*
X126118502Y-80917989D01*
X126122367Y-80914391D01*
X126126323Y-80910818D01*
X126130374Y-80907267D01*
X126134523Y-80903734D01*
X126138778Y-80900217D01*
X126143142Y-80896712D01*
X126147623Y-80893215D01*
X126152228Y-80889723D01*
X126156964Y-80886231D01*
X126161840Y-80882734D01*
X126166866Y-80879227D01*
X126172053Y-80875705D01*
X126177414Y-80872161D01*
X126182962Y-80868588D01*
X126188716Y-80864977D01*
X126194693Y-80861319D01*
X126200918Y-80857602D01*
X126207418Y-80853813D01*
X126214228Y-80849935D01*
X126221390Y-80845947D01*
X126228957Y-80841824D01*
X126237002Y-80837529D01*
X126245621Y-80833016D01*
X126254954Y-80828218D01*
X126265214Y-80823029D01*
X126276764Y-80817274D01*
X126290321Y-80810600D01*
X126307820Y-80802064D01*
X126314161Y-80798979D01*
X126320155Y-80796064D01*
X126863159Y-81883011D02*
X126863127Y-81872352D01*
X126863080Y-81864625D01*
X126863023Y-81855045D01*
X126863001Y-81845503D01*
X126863014Y-81840746D01*
X126863049Y-81835999D01*
X126863109Y-81831261D01*
X126863200Y-81826532D01*
X126863325Y-81821813D01*
X126863489Y-81817104D01*
X126863696Y-81812405D01*
X126863951Y-81807716D01*
X126864257Y-81803036D01*
X126864619Y-81798366D01*
X126865042Y-81793706D01*
X126865529Y-81789056D01*
X126866086Y-81784417D01*
X126866715Y-81779787D01*
X126867059Y-81777476D01*
X126867423Y-81775167D01*
X126867807Y-81772862D01*
X126868212Y-81770558D01*
X126868638Y-81768257D01*
X126869087Y-81765959D01*
X126869558Y-81763664D01*
X126870053Y-81761371D01*
X126870571Y-81759080D01*
X126871114Y-81756792D01*
X126871681Y-81754507D01*
X126872274Y-81752225D01*
X126872892Y-81749945D01*
X126873537Y-81747667D01*
X126874209Y-81745392D01*
X126874908Y-81743120D01*
X126875635Y-81740851D01*
X126876391Y-81738584D01*
X126877176Y-81736320D01*
X126877990Y-81734059D01*
X126878835Y-81731800D01*
X126879711Y-81729544D01*
X126880617Y-81727290D01*
X126881556Y-81725040D01*
X126882526Y-81722792D01*
X126883530Y-81720546D01*
X126884567Y-81718304D01*
X126885638Y-81716064D01*
X126976268Y-82177000D02*
X127004330Y-82177039D01*
X127033083Y-82177159D01*
X127062600Y-82177360D01*
X127092971Y-82177646D01*
X127124305Y-82178020D01*
X127156738Y-82178485D01*
X127190443Y-82179048D01*
X127225644Y-82179713D01*
X127262647Y-82180490D01*
X127301881Y-82181392D01*
X127343992Y-82182437D01*
X127390031Y-82183655D01*
X127441952Y-82185104D01*
X127504320Y-82186915D01*
X127559060Y-82188537D01*
X127631835Y-82190688D01*
X127668224Y-82191743D01*
X127704614Y-82192772D01*
X127741007Y-82193768D01*
X127777403Y-82194721D01*
X127813802Y-82195623D01*
X127850206Y-82196467D01*
X127886615Y-82197242D01*
X127904822Y-82197602D01*
X127923030Y-82197942D01*
X127941240Y-82198261D01*
X127959451Y-82198557D01*
X127977665Y-82198831D01*
X127995880Y-82199080D01*
X128014097Y-82199303D01*
X128032316Y-82199501D01*
X128050537Y-82199671D01*
X128068761Y-82199812D01*
X128086987Y-82199924D01*
X128105215Y-82200005D01*
X128123446Y-82200054D01*
X128141679Y-82200071D01*
X126032682Y-81883011D02*
X126032643Y-81867873D01*
X126032523Y-81852360D01*
X126032322Y-81836431D01*
X126032036Y-81820033D01*
X126031662Y-81803103D01*
X126031196Y-81785565D01*
X126030633Y-81767315D01*
X126029966Y-81748221D01*
X126029185Y-81728099D01*
X126028276Y-81706687D01*
X126027219Y-81683577D01*
X126025976Y-81658078D01*
X126024477Y-81628815D01*
X126022527Y-81592092D01*
X126021773Y-81578065D01*
X126020104Y-81546936D01*
X126018471Y-81515809D01*
X126017679Y-81500245D01*
X126016909Y-81484680D01*
X126016165Y-81469114D01*
X126015452Y-81453546D01*
X126014775Y-81437975D01*
X126014137Y-81422403D01*
X126013543Y-81406826D01*
X126012997Y-81391247D01*
X126012505Y-81375663D01*
X126012069Y-81360075D01*
X126011695Y-81344482D01*
X126011387Y-81328883D01*
X127331630Y-81267309D02*
X127332450Y-81271913D01*
X127335935Y-81291498D01*
X127339404Y-81311116D01*
X127342837Y-81330767D01*
X127346211Y-81350448D01*
X127347869Y-81360298D01*
X127349504Y-81370156D01*
X127351114Y-81380020D01*
X127352695Y-81389890D01*
X127354246Y-81399766D01*
X127355763Y-81409648D01*
X127357244Y-81419535D01*
X127358685Y-81429427D01*
X127360085Y-81439324D01*
X127361440Y-81449226D01*
X127362749Y-81459132D01*
X127364007Y-81469042D01*
X127365212Y-81478956D01*
X127366362Y-81488873D01*
X127367455Y-81498794D01*
X127368486Y-81508718D01*
X127369454Y-81518644D01*
X127370355Y-81528573D01*
X127371188Y-81538504D01*
X127371949Y-81548438D01*
X127372636Y-81558373D01*
X127373246Y-81568309D01*
X127373521Y-81573278D01*
X127373776Y-81578247D01*
X127374010Y-81583216D01*
X127374223Y-81588185D01*
D11*
X117000000Y-114500000D02*
G75*
G02*
X114500000Y-112000000I0J2500000D01*
G01*
D12*
X126011387Y-81328883D02*
X126011174Y-81318822D01*
X126010852Y-81307163D01*
X126010380Y-81292646D01*
X126010029Y-81282518D01*
X126009553Y-81268689D01*
X126009109Y-81254719D01*
X126008912Y-81247690D01*
X126008737Y-81240638D01*
X126008589Y-81233567D01*
X126008474Y-81226479D01*
X126008396Y-81219380D01*
X126008360Y-81212273D01*
X126008370Y-81205162D01*
X126008433Y-81198051D01*
X126008551Y-81190944D01*
X126008731Y-81183844D01*
X126008977Y-81176757D01*
X126009294Y-81169685D01*
X126009481Y-81166156D01*
X126009687Y-81162633D01*
X126009913Y-81159115D01*
X126010160Y-81155604D01*
X126010429Y-81152100D01*
X126010719Y-81148603D01*
X126011032Y-81145114D01*
X126011368Y-81141633D01*
X126011728Y-81138162D01*
X126012112Y-81134699D01*
X126012521Y-81131246D01*
X126012956Y-81127804D01*
X126013417Y-81124372D01*
X126013904Y-81120952D01*
X126014419Y-81117544D01*
X126014962Y-81114148D01*
X126015534Y-81110764D01*
X126016135Y-81107394D01*
X126016765Y-81104038D01*
X126017426Y-81100695D01*
X126018118Y-81097368D01*
X126018842Y-81094056D01*
X126019598Y-81090759D01*
X126020387Y-81087479D01*
X126021209Y-81084216D01*
X126022065Y-81080969D01*
X126022956Y-81077741D01*
X126023882Y-81074530D01*
X126024843Y-81071338D01*
X126025842Y-81068166D01*
X126026877Y-81065013D01*
X126027950Y-81061880D01*
X127842694Y-81190347D02*
X127860412Y-81190386D01*
X127878781Y-81190505D01*
X127897910Y-81190707D01*
X127917944Y-81190997D01*
X127939084Y-81191381D01*
X127961623Y-81191867D01*
X127986013Y-81192469D01*
X128013042Y-81193213D01*
X128044321Y-81194146D01*
X128092586Y-81195671D01*
X128123845Y-81196666D01*
X128155113Y-81197629D01*
X128170752Y-81198090D01*
X128186394Y-81198530D01*
X128202040Y-81198948D01*
X128217690Y-81199338D01*
X128233345Y-81199697D01*
X128249006Y-81200020D01*
X128264673Y-81200305D01*
X128280346Y-81200546D01*
X128296026Y-81200741D01*
X128311713Y-81200885D01*
X128327408Y-81200974D01*
X128343111Y-81201005D01*
D14*
X153619200Y-108712000D02*
X156464000Y-108712000D01*
X156464000Y-110125200D01*
X153619200Y-110125200D01*
X153619200Y-108712000D01*
D12*
X127569215Y-82362219D02*
X127511125Y-82362969D01*
X127446533Y-82363879D01*
X127371290Y-82365011D01*
X127265738Y-82366671D01*
X127172741Y-82368137D01*
X127126244Y-82368850D01*
X127079746Y-82369539D01*
X127033248Y-82370197D01*
X126986749Y-82370816D01*
X126940248Y-82371388D01*
X126893746Y-82371904D01*
X126847242Y-82372358D01*
X126800736Y-82372741D01*
X126777482Y-82372904D01*
X126754227Y-82373045D01*
X126730972Y-82373166D01*
X126707715Y-82373263D01*
X126684458Y-82373338D01*
X126661200Y-82373387D01*
X126637941Y-82373411D01*
X126614681Y-82373409D01*
X126591419Y-82373379D01*
X126568157Y-82373320D01*
X126544894Y-82373232D01*
X126521629Y-82373114D01*
X126125549Y-81499381D02*
X126136906Y-81499348D01*
X126148469Y-81499273D01*
X126162245Y-81499187D01*
X126169170Y-81499165D01*
X126176115Y-81499167D01*
X126183076Y-81499203D01*
X126190048Y-81499280D01*
X126197026Y-81499407D01*
X126204008Y-81499592D01*
X126210988Y-81499844D01*
X126214477Y-81499997D01*
X126217963Y-81500170D01*
X126221447Y-81500364D01*
X126224929Y-81500580D01*
X126228406Y-81500819D01*
X126231880Y-81501082D01*
X126235349Y-81501369D01*
X126238813Y-81501683D01*
X126242272Y-81502024D01*
X126245724Y-81502392D01*
X126249170Y-81502790D01*
X126252609Y-81503218D01*
X126256040Y-81503678D01*
X126259463Y-81504170D01*
X126262878Y-81504695D01*
X126266283Y-81505254D01*
X126269678Y-81505849D01*
X126273063Y-81506480D01*
X126276438Y-81507149D01*
X126279801Y-81507856D01*
X126283152Y-81508603D01*
X126286491Y-81509390D01*
X126289817Y-81510219D01*
X126293130Y-81511091D01*
X126296428Y-81512007D01*
X126299713Y-81512967D01*
X126302982Y-81513974D01*
X126306236Y-81515027D01*
X126309474Y-81516128D01*
X126312695Y-81517278D01*
X126315899Y-81518478D01*
X126319086Y-81519729D01*
X126322254Y-81521032D01*
X126325404Y-81522389D01*
X126328535Y-81523799D01*
X126331646Y-81525265D01*
X126334737Y-81526787D01*
X126337808Y-81528366D01*
X126340857Y-81530004D01*
X126343884Y-81531701D01*
X126346889Y-81533459D01*
X126349871Y-81535278D01*
X126352830Y-81537160D01*
X126355765Y-81539105D01*
X126358676Y-81541115D01*
X126361562Y-81543190D01*
X126147676Y-82466041D02*
X126164346Y-82471847D01*
X126181176Y-82477624D01*
X126198172Y-82483375D01*
X126215340Y-82489099D01*
X126232686Y-82494799D01*
X126250217Y-82500475D01*
X126267941Y-82506131D01*
X126285864Y-82511767D01*
X126303996Y-82517384D01*
X126322345Y-82522986D01*
X126340921Y-82528574D01*
X126359735Y-82534151D01*
X126378797Y-82539718D01*
X126398120Y-82545279D01*
X126417719Y-82550836D01*
X126437606Y-82556392D01*
X126457800Y-82561952D01*
X126478317Y-82567519D01*
X126499179Y-82573096D01*
X126520407Y-82578689D01*
X126542026Y-82584304D01*
X126564064Y-82589946D01*
X126586555Y-82595621D01*
X126609534Y-82601338D01*
X126633043Y-82607106D01*
X126657134Y-82612935D01*
X126681863Y-82618837D01*
X126707300Y-82624827D01*
X126733529Y-82630922D01*
X126760654Y-82637145D01*
X126788804Y-82643523D01*
X126818146Y-82650090D01*
X126848901Y-82656894D01*
X126881373Y-82663998D01*
X126916003Y-82671495D01*
X126953475Y-82679528D01*
X126994963Y-82688345D01*
X127042844Y-82698447D01*
X127103754Y-82711227D01*
X127120489Y-82714733D01*
X127173119Y-82725764D01*
X127225749Y-82736837D01*
X127252061Y-82742401D01*
X127278369Y-82747990D01*
X127304673Y-82753609D01*
X127330972Y-82759264D01*
X127357264Y-82764958D01*
X127383549Y-82770697D01*
X127409826Y-82776486D01*
X127436092Y-82782330D01*
X127462348Y-82788234D01*
X127488593Y-82794202D01*
X127514824Y-82800240D01*
X127541042Y-82806353D01*
D11*
X162000000Y-68500000D02*
G75*
G02*
X164500000Y-71000000I0J-2500000D01*
G01*
D12*
X129508378Y-81408803D02*
X129515321Y-81411000D01*
X129522710Y-81413419D01*
X129530687Y-81416112D01*
X129539501Y-81419167D01*
X129549649Y-81422762D01*
X129562513Y-81427391D01*
X129566306Y-81428762D01*
X129577036Y-81432636D01*
X129587772Y-81436475D01*
X129593145Y-81438369D01*
X129598522Y-81440241D01*
X129603904Y-81442087D01*
X129609292Y-81443901D01*
X129614686Y-81445680D01*
X129620089Y-81447418D01*
X129625499Y-81449112D01*
X129630919Y-81450757D01*
X129636349Y-81452348D01*
X129641790Y-81453881D01*
X129647243Y-81455352D01*
X129652709Y-81456756D01*
D10*
X138430000Y-102006400D02*
X139649200Y-102006400D01*
X139649200Y-103174800D01*
X138430000Y-103174800D01*
X138430000Y-102006400D01*
G36*
X138430000Y-102006400D02*
G01*
X139649200Y-102006400D01*
X139649200Y-103174800D01*
X138430000Y-103174800D01*
X138430000Y-102006400D01*
G37*
D12*
X129357031Y-82119321D02*
X129425543Y-82119321D01*
X126107976Y-82350042D02*
X126100420Y-82350005D01*
X126091745Y-82349890D01*
X126080798Y-82349677D01*
X126077588Y-82349608D01*
X126068276Y-82349414D01*
X126059010Y-82349260D01*
X126054394Y-82349211D01*
X126049790Y-82349186D01*
X126045198Y-82349190D01*
X126040618Y-82349228D01*
X126036052Y-82349306D01*
X126031498Y-82349428D01*
X126026957Y-82349599D01*
X126022430Y-82349823D01*
X126017917Y-82350107D01*
X126013417Y-82350453D01*
X126008932Y-82350869D01*
X126004461Y-82351357D01*
X126002231Y-82351630D01*
X126000005Y-82351924D01*
X125997782Y-82352238D01*
X125995563Y-82352573D01*
X125993348Y-82352931D01*
X125991137Y-82353311D01*
X125988930Y-82353714D01*
X125986726Y-82354141D01*
X125984527Y-82354593D01*
X125982331Y-82355069D01*
X125980139Y-82355571D01*
X125977952Y-82356100D01*
X125975768Y-82356655D01*
X125973588Y-82357238D01*
X125971413Y-82357848D01*
X125969242Y-82358488D01*
X125967074Y-82359156D01*
X125964911Y-82359855D01*
X125962753Y-82360584D01*
X125960598Y-82361344D01*
X125958448Y-82362136D01*
X125956302Y-82362960D01*
X125954160Y-82363817D01*
X125952023Y-82364708D01*
X125949890Y-82365633D01*
X125947762Y-82366593D01*
X125945638Y-82367587D01*
X125943518Y-82368618D01*
X125941403Y-82369686D01*
X125939293Y-82370791D01*
X125937187Y-82371933D01*
X125935086Y-82373114D01*
X129304903Y-81370915D02*
X129312534Y-81372378D01*
X129320589Y-81373844D01*
X129329180Y-81375328D01*
X129338481Y-81376858D01*
X129348794Y-81378477D01*
X129360740Y-81380279D01*
X129378770Y-81382917D01*
X129395094Y-81385302D01*
X129403248Y-81386519D01*
X129411396Y-81387767D01*
X129419536Y-81389054D01*
X129427668Y-81390393D01*
X129435792Y-81391792D01*
X129443906Y-81393261D01*
X129447959Y-81394026D01*
X129452009Y-81394813D01*
X129456057Y-81395622D01*
X129460101Y-81396455D01*
X129464143Y-81397314D01*
X129468182Y-81398199D01*
X129472217Y-81399113D01*
X129476249Y-81400055D01*
X129480278Y-81401029D01*
X129484304Y-81402034D01*
X129488326Y-81403072D01*
X129492344Y-81404144D01*
X129496358Y-81405252D01*
X129500369Y-81406397D01*
X129504375Y-81407580D01*
X129508378Y-81408803D01*
D13*
X121417800Y-101801600D02*
X122637000Y-101801600D01*
X122637000Y-107145600D01*
X121417800Y-107145600D01*
X121417800Y-101801600D01*
D12*
X129041680Y-80819744D02*
X129043038Y-80820391D01*
X129044425Y-80821142D01*
X129045844Y-80822000D01*
X129047296Y-80822972D01*
X129048784Y-80824064D01*
X129050309Y-80825283D01*
X129051873Y-80826635D01*
X129053477Y-80828128D01*
X129055123Y-80829769D01*
X129056813Y-80831566D01*
X129058547Y-80833527D01*
X129060326Y-80835661D01*
X129062153Y-80837975D01*
X129064028Y-80840479D01*
X129065952Y-80843182D01*
X129067925Y-80846091D01*
X129069950Y-80849218D01*
X129072026Y-80852570D01*
X129074154Y-80856157D01*
X129076335Y-80859988D01*
X129078569Y-80864073D01*
X129080857Y-80868420D01*
X129083199Y-80873040D01*
X129085595Y-80877940D01*
X129088045Y-80883130D01*
X129090549Y-80888618D01*
X129093108Y-80894413D01*
X129095721Y-80900523D01*
X129098388Y-80906958D01*
X129101111Y-80913726D01*
X129103892Y-80920841D01*
X129106734Y-80928321D01*
X129109649Y-80936201D01*
X129112663Y-80944556D01*
X129115861Y-80953613D01*
X129117984Y-80959703D01*
X129119758Y-80964790D01*
X126320155Y-80796064D02*
X126324062Y-80794123D01*
X126329416Y-80791382D01*
X126332877Y-80789590D01*
X126338365Y-80786753D01*
X126344143Y-80783805D01*
X126347128Y-80782308D01*
X126350169Y-80780807D01*
X126353262Y-80779309D01*
X126356401Y-80777822D01*
X126359581Y-80776353D01*
X126362797Y-80774910D01*
X126366043Y-80773501D01*
X126369314Y-80772133D01*
X126372605Y-80770815D01*
X126375911Y-80769552D01*
X126379227Y-80768355D01*
X126382547Y-80767229D01*
X126385866Y-80766183D01*
X126387523Y-80765693D01*
X126389178Y-80765225D01*
X126390830Y-80764781D01*
X126392479Y-80764361D01*
X126394123Y-80763968D01*
X126395763Y-80763601D01*
X126397397Y-80763261D01*
X126399025Y-80762951D01*
X126400646Y-80762669D01*
X126402260Y-80762418D01*
X126403865Y-80762199D01*
X126405462Y-80762012D01*
X126407049Y-80761858D01*
X126408627Y-80761739D01*
X126410193Y-80761655D01*
X126411748Y-80761607D01*
X126413291Y-80761596D01*
X126414821Y-80761624D01*
X126416338Y-80761691D01*
X126417841Y-80761797D01*
X126419329Y-80761945D01*
X126420802Y-80762135D01*
X126422258Y-80762367D01*
X126423698Y-80762644D01*
X126425121Y-80762965D01*
X126426526Y-80763333D01*
X126427912Y-80763747D01*
X126429279Y-80764208D01*
X126430626Y-80764719D01*
X126431952Y-80765279D01*
X128832288Y-81116938D02*
X128833858Y-81114558D01*
X128836487Y-81110419D01*
X128840749Y-81103557D01*
X128847756Y-81092127D01*
X128856485Y-81077810D01*
X128866787Y-81060912D01*
X128878287Y-81042115D01*
X128884417Y-81032140D01*
X128890763Y-81021851D01*
X128897299Y-81011301D01*
X128903996Y-81000545D01*
X128910828Y-80989636D01*
X128917766Y-80978628D01*
X128924783Y-80967574D01*
X128931852Y-80956528D01*
X128938944Y-80945543D01*
X128946034Y-80934673D01*
X128953092Y-80923972D01*
X128960092Y-80913493D01*
X128963562Y-80908353D01*
X128967006Y-80903289D01*
X128970422Y-80898307D01*
X128973806Y-80893415D01*
X128977155Y-80888618D01*
X128980466Y-80883923D01*
X128983734Y-80879338D01*
X128986956Y-80874868D01*
X128990130Y-80870521D01*
X128993251Y-80866303D01*
X128996316Y-80862221D01*
X128999322Y-80858281D01*
X129002265Y-80854491D01*
X129005142Y-80850856D01*
X129007949Y-80847385D01*
X129010683Y-80844082D01*
X129013341Y-80840956D01*
X129015918Y-80838013D01*
X129018413Y-80835259D01*
X129020820Y-80832701D01*
X129023137Y-80830346D01*
X129024260Y-80829246D01*
X129025360Y-80828200D01*
X129026436Y-80827208D01*
X129027486Y-80826271D01*
X129028512Y-80825390D01*
X129029512Y-80824565D01*
X129030486Y-80823797D01*
X129031433Y-80823088D01*
X129032354Y-80822438D01*
X129033247Y-80821848D01*
X129034112Y-80821318D01*
X129034950Y-80820851D01*
X129035759Y-80820445D01*
X129036538Y-80820103D01*
X129037289Y-80819825D01*
X129038009Y-80819612D01*
X129038699Y-80819465D01*
X129039359Y-80819384D01*
X129039987Y-80819371D01*
X129040583Y-80819426D01*
X129041148Y-80819550D01*
X129041680Y-80819744D01*
D13*
X150876000Y-98628200D02*
X152095200Y-98628200D01*
X152095200Y-102743000D01*
X150876000Y-102743000D01*
X150876000Y-98628200D01*
D12*
X126181741Y-81443733D02*
X126180762Y-81444801D01*
X126179437Y-81446126D01*
X126177690Y-81447760D01*
X126175421Y-81449772D01*
X126172501Y-81452257D01*
X126168728Y-81455365D01*
X126163719Y-81459397D01*
X126156927Y-81464788D01*
X126149165Y-81470952D01*
X126145334Y-81474030D01*
X126141611Y-81477066D01*
X126138050Y-81480031D01*
X126134708Y-81482893D01*
X126133136Y-81484277D01*
X126131640Y-81485624D01*
X126130227Y-81486931D01*
X126128902Y-81488194D01*
X126127675Y-81489409D01*
X126126550Y-81490573D01*
X126125536Y-81491682D01*
X126124639Y-81492731D01*
X126123866Y-81493718D01*
X126123224Y-81494639D01*
X126122955Y-81495074D01*
X126122721Y-81495490D01*
X126122523Y-81495888D01*
X126122362Y-81496267D01*
X126122239Y-81496627D01*
X126122155Y-81496966D01*
X126122111Y-81497286D01*
X126122108Y-81497585D01*
X126122146Y-81497862D01*
X126122226Y-81498118D01*
X126122350Y-81498352D01*
X126122517Y-81498563D01*
X126122730Y-81498751D01*
X126122988Y-81498915D01*
X126123293Y-81499056D01*
X126123646Y-81499171D01*
X126124047Y-81499262D01*
X126124497Y-81499328D01*
X126124997Y-81499368D01*
X126125549Y-81499381D01*
X128920421Y-81273231D02*
X128930241Y-81276779D01*
X128940190Y-81280288D01*
X128950275Y-81283762D01*
X128960505Y-81287202D01*
X128970888Y-81290609D01*
X128981433Y-81293985D01*
X128992150Y-81297334D01*
X129003050Y-81300656D01*
X129014147Y-81303956D01*
X129025455Y-81307236D01*
X129036989Y-81310499D01*
X129048769Y-81313749D01*
X129060815Y-81316990D01*
X129073151Y-81320228D01*
X129085807Y-81323468D01*
X129098816Y-81326716D01*
X129112219Y-81329982D01*
X129126064Y-81333275D01*
X129140414Y-81336606D01*
X129155344Y-81339993D01*
X129170958Y-81343454D01*
X129187389Y-81347016D01*
X129204830Y-81350718D01*
X129223566Y-81354615D01*
X129244057Y-81358801D01*
X129267151Y-81363441D01*
X129294782Y-81368920D01*
X129304903Y-81370915D01*
X126452060Y-80961829D02*
X126450838Y-80968007D01*
X126449520Y-80974253D01*
X126448107Y-80980568D01*
X126446596Y-80986953D01*
X126444986Y-80993408D01*
X126443277Y-80999935D01*
X126441466Y-81006532D01*
X126439553Y-81013202D01*
X126437536Y-81019944D01*
X126435414Y-81026758D01*
X126433185Y-81033647D01*
X126430849Y-81040608D01*
X126428404Y-81047644D01*
X126425848Y-81054754D01*
X126423182Y-81061938D01*
X126420402Y-81069197D01*
X126417508Y-81076531D01*
X126414499Y-81083940D01*
X126411373Y-81091424D01*
X126408130Y-81098983D01*
X126404768Y-81106616D01*
X126401286Y-81114324D01*
X126397682Y-81122107D01*
X126393957Y-81129963D01*
X126390109Y-81137893D01*
X126386136Y-81145896D01*
X126382039Y-81153972D01*
X126377816Y-81162119D01*
X126373467Y-81170337D01*
X126368990Y-81178625D01*
X126364386Y-81186982D01*
X126359654Y-81195406D01*
X126354794Y-81203896D01*
X126349804Y-81212451D01*
X126344686Y-81221068D01*
X126339440Y-81229747D01*
X126334065Y-81238484D01*
X126328561Y-81247278D01*
X126322931Y-81256126D01*
X126317173Y-81265025D01*
X126311290Y-81273971D01*
X126305282Y-81282963D01*
X126299151Y-81291995D01*
X126292899Y-81301065D01*
X126286528Y-81310167D01*
X126280041Y-81319298D01*
X126273440Y-81328451D01*
X126266728Y-81337622D01*
X126259909Y-81346805D01*
X126252988Y-81355993D01*
X126245968Y-81365180D01*
X126238856Y-81374357D01*
X126231656Y-81383518D01*
X126224376Y-81392653D01*
X126217022Y-81401753D01*
X126209603Y-81410809D01*
X126202125Y-81419810D01*
X126194600Y-81428746D01*
X126187037Y-81437603D01*
X126181741Y-81443733D01*
D11*
X114500000Y-112000000D02*
X114500000Y-110000000D01*
D12*
X125935086Y-82373114D02*
X126147676Y-82466041D01*
X127164826Y-81103914D02*
X127165455Y-81102601D01*
X127166321Y-81100606D01*
X127167551Y-81097575D01*
X127169857Y-81091660D01*
X127172636Y-81084527D01*
X127174160Y-81080708D01*
X127175765Y-81076790D01*
X127177446Y-81072829D01*
X127179196Y-81068878D01*
X127180095Y-81066923D01*
X127181009Y-81064991D01*
X127181938Y-81063088D01*
X127182879Y-81061221D01*
X127183833Y-81059397D01*
X127184799Y-81057623D01*
X127185777Y-81055905D01*
X127186764Y-81054250D01*
X127187761Y-81052665D01*
X127188767Y-81051156D01*
X127189781Y-81049730D01*
X127190802Y-81048394D01*
X127191829Y-81047155D01*
X127192862Y-81046020D01*
X127193381Y-81045492D01*
X127193900Y-81044994D01*
X127194421Y-81044524D01*
X127194943Y-81044085D01*
X127195465Y-81043676D01*
X127195988Y-81043299D01*
X127196512Y-81042955D01*
X127197036Y-81042644D01*
X127197561Y-81042367D01*
X127198086Y-81042126D01*
X127198611Y-81041920D01*
X127199137Y-81041751D01*
D11*
X114500000Y-99000000D02*
X114500000Y-71000000D01*
D12*
X129184232Y-81373873D02*
X129185327Y-81381375D01*
X129186461Y-81389680D01*
X129187660Y-81399031D01*
X129188974Y-81409868D01*
X129190514Y-81423176D01*
X129192080Y-81437065D01*
X129193869Y-81452917D01*
X129194793Y-81460945D01*
X129195745Y-81469029D01*
X129196731Y-81477160D01*
X129197757Y-81485328D01*
X129198830Y-81493524D01*
X129199955Y-81501739D01*
X129201139Y-81509964D01*
X129202387Y-81518189D01*
X129203707Y-81526405D01*
X129204396Y-81530507D01*
X129205104Y-81534604D01*
X129205834Y-81538693D01*
X129206585Y-81542775D01*
X129207358Y-81546847D01*
X129208155Y-81550909D01*
X129208975Y-81554960D01*
X129209821Y-81558997D01*
X129210691Y-81563022D01*
X129211588Y-81567031D01*
X129212512Y-81571024D01*
X129213464Y-81575000D01*
X129214444Y-81578958D01*
X129215454Y-81582896D01*
X129216494Y-81586813D01*
X129217564Y-81590709D01*
X129218667Y-81594581D01*
X129219801Y-81598430D01*
X129220969Y-81602253D01*
X129222171Y-81606050D01*
X129223408Y-81609819D01*
X129224680Y-81613559D01*
X129225988Y-81617269D01*
X129227334Y-81620948D01*
X129228717Y-81624595D01*
X129230139Y-81628209D01*
X129231600Y-81631788D01*
X129233101Y-81635331D01*
X129234644Y-81638837D01*
X129236227Y-81642306D01*
X129237854Y-81645735D01*
X129239523Y-81649124D01*
X129241237Y-81652471D01*
X129242995Y-81655776D01*
X129244799Y-81659037D01*
X129246649Y-81662253D01*
X129248546Y-81665423D01*
X129250491Y-81668546D01*
X129252485Y-81671620D01*
X129254528Y-81674645D01*
X129256621Y-81677619D01*
X129258765Y-81680541D01*
D10*
X121417800Y-101801600D02*
X122637000Y-101801600D01*
X122637000Y-102970000D01*
X121417800Y-102970000D01*
X121417800Y-101801600D01*
G36*
X121417800Y-101801600D02*
G01*
X122637000Y-101801600D01*
X122637000Y-102970000D01*
X121417800Y-102970000D01*
X121417800Y-101801600D01*
G37*
D12*
X127541042Y-82806353D02*
X127549531Y-82808386D01*
X127558370Y-82810583D01*
X127567602Y-82812960D01*
X127577282Y-82815532D01*
X127587479Y-82818324D01*
X127598290Y-82821365D01*
X127609847Y-82824696D01*
X127622349Y-82828380D01*
X127636117Y-82832516D01*
X127651740Y-82837288D01*
X127670563Y-82843113D01*
X127688789Y-82848792D01*
X127708402Y-82854902D01*
X127728104Y-82860994D01*
X127737982Y-82864016D01*
X127747877Y-82867015D01*
X127757785Y-82869983D01*
X127767704Y-82872914D01*
X127777632Y-82875802D01*
X127787567Y-82878639D01*
X127797506Y-82881420D01*
X127807448Y-82884139D01*
X127817390Y-82886787D01*
X127827330Y-82889360D01*
X127832299Y-82890616D01*
X127837266Y-82891851D01*
X127842231Y-82893063D01*
X127847195Y-82894252D01*
X127852156Y-82895418D01*
X127857115Y-82896558D01*
X127862071Y-82897674D01*
X127867024Y-82898763D01*
X127871974Y-82899825D01*
X127876921Y-82900859D01*
X127881863Y-82901864D01*
X127886801Y-82902840D01*
X127891735Y-82903786D01*
X127896665Y-82904700D01*
X127901589Y-82905583D01*
X127906508Y-82906433D01*
X127911422Y-82907249D01*
X127916330Y-82908031D01*
X127921231Y-82908777D01*
X127926127Y-82909488D01*
X127931015Y-82910162D01*
X127935897Y-82910798D01*
X127940772Y-82911396D01*
X127945639Y-82911955D01*
X127950499Y-82912473D01*
X127955350Y-82912951D01*
X127960194Y-82913387D01*
X127965028Y-82913781D01*
X127969854Y-82914131D01*
X127974671Y-82914438D01*
X127979479Y-82914699D01*
X127984276Y-82914915D01*
X127989064Y-82915084D01*
X127993842Y-82915206D01*
X127998609Y-82915279D01*
X128003365Y-82915304D01*
X129119758Y-80964790D02*
X129121956Y-80971181D01*
X129124107Y-80977678D01*
X129126211Y-80984286D01*
X129128269Y-80991010D01*
X129130280Y-80997855D01*
X129132247Y-81004828D01*
X129134169Y-81011936D01*
X129136047Y-81019186D01*
X129137881Y-81026586D01*
X129139674Y-81034145D01*
X129141426Y-81041874D01*
X129143137Y-81049784D01*
X129144809Y-81057889D01*
X129146444Y-81066204D01*
X129148044Y-81074747D01*
X129149609Y-81083539D01*
X129151143Y-81092605D01*
X129152649Y-81101974D01*
X129154130Y-81111685D01*
X129155590Y-81121782D01*
X129157035Y-81132325D01*
X129158474Y-81143393D01*
X129159916Y-81155092D01*
X129161378Y-81167578D01*
X129162882Y-81181089D01*
X129164470Y-81196033D01*
X129166222Y-81213224D01*
X129168361Y-81234874D01*
X129169110Y-81242542D01*
X129170736Y-81259143D01*
X129172385Y-81275712D01*
X129174084Y-81292239D01*
X129174961Y-81300483D01*
X129175859Y-81308713D01*
X129176783Y-81316927D01*
X129177736Y-81325124D01*
X129178720Y-81333302D01*
X129179739Y-81341461D01*
X129180797Y-81349599D01*
X129181896Y-81357714D01*
X129183040Y-81365806D01*
X129184232Y-81373873D01*
X127108041Y-81215806D02*
X127109237Y-81212049D01*
X127110528Y-81208257D01*
X127111917Y-81204419D01*
X127113410Y-81200526D01*
X127115013Y-81196566D01*
X127116734Y-81192523D01*
X127118583Y-81188381D01*
X127120573Y-81184115D01*
X127122720Y-81179698D01*
X127125047Y-81175087D01*
X127127587Y-81170227D01*
X127130389Y-81165032D01*
X127133535Y-81159359D01*
X127137183Y-81152933D01*
X127141726Y-81145073D01*
X127144557Y-81140211D01*
X127149748Y-81131281D01*
X127152331Y-81126793D01*
X127154896Y-81122282D01*
X127157435Y-81117744D01*
X127159942Y-81113173D01*
X127162408Y-81108565D01*
X127164826Y-81103914D01*
D14*
X153619200Y-101406000D02*
X156464000Y-101406000D01*
X156464000Y-102819200D01*
X153619200Y-102819200D01*
X153619200Y-101406000D01*
D12*
X127199137Y-81041751D02*
X127200055Y-81041478D01*
X127200944Y-81041193D01*
X127201797Y-81040899D01*
X127202621Y-81040594D01*
X127203411Y-81040280D01*
X127204175Y-81039955D01*
X127204908Y-81039621D01*
X127205616Y-81039278D01*
X127206296Y-81038926D01*
X127206951Y-81038564D01*
X127207581Y-81038194D01*
X127208188Y-81037814D01*
X127208772Y-81037425D01*
X127209333Y-81037028D01*
X127209874Y-81036621D01*
X127210393Y-81036205D01*
X127210894Y-81035779D01*
X127211374Y-81035345D01*
X127212281Y-81034445D01*
X127213118Y-81033503D01*
X127213890Y-81032517D01*
X127214601Y-81031481D01*
X127215253Y-81030392D01*
X127215850Y-81029243D01*
X127216394Y-81028025D01*
X127216887Y-81026731D01*
X127217331Y-81025346D01*
X127217727Y-81023855D01*
X127218078Y-81022233D01*
X127218387Y-81020445D01*
X127218658Y-81018427D01*
X127218904Y-81016054D01*
X127219187Y-81012578D01*
X127219444Y-81009402D01*
X127219596Y-81007829D01*
X127219775Y-81006272D01*
X127219992Y-81004735D01*
X127220255Y-81003221D01*
X127220575Y-81001735D01*
X127220960Y-81000280D01*
X127221180Y-80999565D01*
X127221420Y-80998860D01*
X127221681Y-80998165D01*
X127221964Y-80997480D01*
X127222271Y-80996806D01*
X127222602Y-80996143D01*
X127222959Y-80995492D01*
X127223343Y-80994853D01*
X127223755Y-80994228D01*
X127224197Y-80993615D01*
X127224669Y-80993016D01*
X127225173Y-80992432D01*
X127225709Y-80991862D01*
X127226279Y-80991307D01*
X127226885Y-80990769D01*
X127227527Y-80990246D01*
X127318618Y-81520695D02*
X127325868Y-81520733D01*
X127333916Y-81520854D01*
X127343011Y-81521066D01*
X127353612Y-81521389D01*
X127366791Y-81521863D01*
X127378267Y-81522306D01*
X127392396Y-81522848D01*
X127406744Y-81523354D01*
X127413981Y-81523577D01*
X127421252Y-81523773D01*
X127428548Y-81523936D01*
X127435863Y-81524058D01*
X127443188Y-81524135D01*
X127450517Y-81524161D01*
X127457842Y-81524128D01*
X127465156Y-81524032D01*
X127472452Y-81523866D01*
X127476090Y-81523754D01*
X127479721Y-81523623D01*
X127483344Y-81523472D01*
X127486958Y-81523299D01*
X127490562Y-81523104D01*
X127494154Y-81522887D01*
X127497735Y-81522646D01*
X127501302Y-81522381D01*
X127504856Y-81522090D01*
X127508396Y-81521774D01*
X127511919Y-81521432D01*
X127515427Y-81521062D01*
X127518916Y-81520664D01*
X127522388Y-81520237D01*
X127525840Y-81519780D01*
X127529272Y-81519293D01*
X127532683Y-81518776D01*
X127536071Y-81518226D01*
X127539437Y-81517644D01*
X127542779Y-81517028D01*
X127546096Y-81516378D01*
X127549388Y-81515694D01*
X127552653Y-81514973D01*
X127555890Y-81514217D01*
X127559099Y-81513423D01*
X127562279Y-81512591D01*
X127565428Y-81511721D01*
X127568546Y-81510812D01*
X127571632Y-81509862D01*
X127574685Y-81508871D01*
X127577704Y-81507838D01*
X127580689Y-81506764D01*
X127583637Y-81505646D01*
X127586549Y-81504484D01*
X127589423Y-81503277D01*
X127592259Y-81502025D01*
X127595055Y-81500726D01*
X127597811Y-81499381D01*
X127374223Y-81588185D02*
X127374461Y-81594798D01*
X127374536Y-81597064D01*
X127374795Y-81604676D01*
X127375125Y-81613225D01*
X127375327Y-81617796D01*
X127375559Y-81622537D01*
X127375826Y-81627424D01*
X127376132Y-81632437D01*
X127376481Y-81637553D01*
X127376877Y-81642752D01*
X127377325Y-81648010D01*
X127377829Y-81653307D01*
X127378392Y-81658621D01*
X127379021Y-81663929D01*
X127379717Y-81669211D01*
X127380093Y-81671835D01*
X127380487Y-81674444D01*
X127380900Y-81677036D01*
X127381334Y-81679607D01*
X127381787Y-81682155D01*
X127382261Y-81684678D01*
X127382757Y-81687172D01*
X127383275Y-81689635D01*
X127383815Y-81692064D01*
X127384378Y-81694456D01*
X127384965Y-81696809D01*
X127385575Y-81699120D01*
X127386211Y-81701386D01*
X127386871Y-81703605D01*
X127387557Y-81705774D01*
X127388269Y-81707889D01*
X127389008Y-81709949D01*
X127389774Y-81711951D01*
X127390567Y-81713892D01*
X127391389Y-81715768D01*
X127392240Y-81717579D01*
X127393120Y-81719320D01*
X127394030Y-81720989D01*
X127394971Y-81722583D01*
X127395942Y-81724100D01*
X127396945Y-81725537D01*
X127397980Y-81726891D01*
X127398509Y-81727536D01*
X127399047Y-81728160D01*
X127399593Y-81728761D01*
X127400147Y-81729340D01*
X127400710Y-81729897D01*
X127401281Y-81730430D01*
X127401861Y-81730939D01*
X127402449Y-81731425D01*
X127403046Y-81731887D01*
X127403652Y-81732325D01*
X127404266Y-81732737D01*
X127404889Y-81733125D01*
X127405522Y-81733487D01*
X127406163Y-81733823D01*
X126431952Y-80765279D02*
X126433358Y-80765948D01*
X126434732Y-80766690D01*
X126436076Y-80767506D01*
X126437392Y-80768398D01*
X126438681Y-80769369D01*
X126439943Y-80770419D01*
X126441180Y-80771551D01*
X126442391Y-80772769D01*
X126443579Y-80774076D01*
X126444741Y-80775474D01*
X126445880Y-80776968D01*
X126446993Y-80778561D01*
X126448082Y-80780258D01*
X126449144Y-80782062D01*
X126450179Y-80783977D01*
X126451187Y-80786010D01*
X126452166Y-80788163D01*
X126453114Y-80790443D01*
X126454030Y-80792853D01*
X126454912Y-80795399D01*
X126455759Y-80798087D01*
X126456568Y-80800920D01*
X126457338Y-80803905D01*
X126458065Y-80807047D01*
X126458748Y-80810350D01*
X126459385Y-80813820D01*
X126459972Y-80817463D01*
X126460507Y-80821282D01*
X126460987Y-80825283D01*
X126461410Y-80829470D01*
X126461772Y-80833848D01*
X126462071Y-80838421D01*
X126462304Y-80843192D01*
X126462467Y-80848164D01*
X126462557Y-80853341D01*
X126462573Y-80858722D01*
X126462510Y-80864310D01*
X126462367Y-80870104D01*
X126462140Y-80876101D01*
X126461827Y-80882297D01*
X126461426Y-80888687D01*
X126460935Y-80895260D01*
X126460354Y-80902002D01*
X126459683Y-80908895D01*
X126458922Y-80915913D01*
X126458075Y-80923021D01*
X126457146Y-80930168D01*
X126456145Y-80937288D01*
X126455086Y-80944284D01*
X126453993Y-80951020D01*
X126452902Y-80957292D01*
X126452060Y-80961829D01*
X129301961Y-82153288D02*
X129288341Y-82158006D01*
X129274631Y-82162671D01*
X129260827Y-82167283D01*
X129246930Y-82171843D01*
X129232938Y-82176349D01*
X129218850Y-82180803D01*
X129204664Y-82185204D01*
X129190380Y-82189551D01*
X129175996Y-82193846D01*
X129161510Y-82198088D01*
X129146922Y-82202277D01*
X129132229Y-82206412D01*
X129117430Y-82210495D01*
X129102524Y-82214524D01*
X129087509Y-82218500D01*
X129072383Y-82222423D01*
X129057145Y-82226293D01*
X129041793Y-82230109D01*
X129026325Y-82233872D01*
X129010740Y-82237581D01*
X128995034Y-82241237D01*
X128979207Y-82244840D01*
X128963256Y-82248388D01*
X128947179Y-82251883D01*
X128930974Y-82255324D01*
X128914638Y-82258712D01*
X128898170Y-82262045D01*
X128881566Y-82265325D01*
X128864824Y-82268551D01*
X128847941Y-82271722D01*
X128830914Y-82274839D01*
X128813741Y-82277903D01*
X128796418Y-82280911D01*
X128778942Y-82283866D01*
X128761310Y-82286766D01*
X128743518Y-82289612D01*
X128725562Y-82292403D01*
X128707439Y-82295139D01*
X128689143Y-82297821D01*
X128670672Y-82300448D01*
X128652020Y-82303021D01*
X128633183Y-82305538D01*
X128614154Y-82308001D01*
X128594930Y-82310409D01*
X128575504Y-82312761D01*
X128555870Y-82315059D01*
X128536020Y-82317302D01*
X128515950Y-82319490D01*
X128495650Y-82321622D01*
X128475113Y-82323700D01*
X128454330Y-82325723D01*
X128433292Y-82327690D01*
X128411989Y-82329602D01*
X128390410Y-82331460D01*
X128368543Y-82333262D01*
X128346375Y-82335009D01*
X128323892Y-82336702D01*
X128301079Y-82338339D01*
X128277918Y-82339922D01*
X128254392Y-82341451D01*
X128230478Y-82342925D01*
X128206153Y-82344345D01*
X128181392Y-82345711D01*
X128156164Y-82347024D01*
X128130435Y-82348283D01*
X128104168Y-82349490D01*
X128077316Y-82350644D01*
X128049827Y-82351747D01*
X128021640Y-82352798D01*
X127992681Y-82353800D01*
X127962860Y-82354752D01*
X127932066Y-82355657D01*
X127900161Y-82356517D01*
X127866966Y-82357332D01*
X127832241Y-82358108D01*
X127795657Y-82358847D01*
X127756735Y-82359556D01*
X127714726Y-82360245D01*
X127668332Y-82360930D01*
X127614893Y-82361647D01*
X127569215Y-82362219D01*
X128619934Y-81190347D02*
X128625814Y-81190538D01*
X128631705Y-81190808D01*
X128637612Y-81191159D01*
X128643538Y-81191590D01*
X128649486Y-81192103D01*
X128655460Y-81192698D01*
X128661466Y-81193375D01*
X128667506Y-81194137D01*
X128673587Y-81194983D01*
X128679714Y-81195916D01*
X128685892Y-81196938D01*
X128692128Y-81198049D01*
X128698429Y-81199252D01*
X128704803Y-81200550D01*
X128711258Y-81201945D01*
X128717804Y-81203441D01*
X128724453Y-81205042D01*
X128731217Y-81206751D01*
X128738110Y-81208575D01*
X128745150Y-81210520D01*
X128752358Y-81212592D01*
X128759758Y-81214802D01*
X128767379Y-81217160D01*
X128775260Y-81219681D01*
X128783448Y-81222382D01*
X128792007Y-81225287D01*
X128801023Y-81228430D01*
X128810622Y-81231859D01*
X128820999Y-81235646D01*
X128832484Y-81239919D01*
X128845747Y-81244931D01*
X128862641Y-81251388D01*
X128867582Y-81253283D01*
X128880668Y-81258298D01*
X128893827Y-81263311D01*
X128907073Y-81268297D01*
X128913733Y-81270772D01*
X128920421Y-81273231D01*
D11*
X114500000Y-107500000D02*
X114500000Y-101500000D01*
X162000000Y-68500000D02*
X117000000Y-68500000D01*
D12*
X128566700Y-81531353D02*
X128567114Y-81527236D01*
X128567611Y-81523086D01*
X128568193Y-81518903D01*
X128568860Y-81514686D01*
X128569613Y-81510432D01*
X128570454Y-81506141D01*
X128571384Y-81501810D01*
X128572405Y-81497439D01*
X128573517Y-81493025D01*
X128574722Y-81488567D01*
X128576022Y-81484064D01*
X128577419Y-81479513D01*
X128578915Y-81474912D01*
X128580511Y-81470261D01*
X128582210Y-81465556D01*
X128584013Y-81460795D01*
X128585923Y-81455978D01*
X128587943Y-81451100D01*
X128590075Y-81446160D01*
X128592321Y-81441155D01*
X128594685Y-81436082D01*
X128597170Y-81430939D01*
X128599779Y-81425723D01*
X128602515Y-81420429D01*
X128605383Y-81415054D01*
X128608386Y-81409595D01*
X128611528Y-81404047D01*
X128614815Y-81398405D01*
X128618251Y-81392664D01*
X128621843Y-81386819D01*
X128625596Y-81380862D01*
X128629518Y-81374786D01*
X128633616Y-81368584D01*
X128637898Y-81362246D01*
X128642376Y-81355760D01*
X128647061Y-81349114D01*
X128651965Y-81342292D01*
X128657106Y-81335277D01*
X128662503Y-81328047D01*
X128668179Y-81320573D01*
X128674164Y-81312822D01*
X128680498Y-81304747D01*
X128687232Y-81296288D01*
X128694441Y-81287359D01*
X128702231Y-81277831D01*
X128710778Y-81267497D01*
X128720401Y-81255979D01*
X128731816Y-81242429D01*
X128743876Y-81228182D01*
X128756232Y-81213583D01*
X128762332Y-81206351D01*
X128768367Y-81199166D01*
X128774327Y-81192028D01*
X128780203Y-81184939D01*
X128785987Y-81177899D01*
X128791667Y-81170910D01*
X128797236Y-81163972D01*
X128802683Y-81157087D01*
X128807999Y-81150256D01*
X128810605Y-81146860D01*
X128813175Y-81143479D01*
X128815707Y-81140111D01*
X128818201Y-81136758D01*
X128820655Y-81133418D01*
X128823068Y-81130093D01*
X128825439Y-81126782D01*
X128827767Y-81123486D01*
X128830050Y-81120205D01*
X128832288Y-81116938D01*
X128141679Y-82200071D02*
X128160605Y-82200109D01*
X128181007Y-82200227D01*
X128203441Y-82200433D01*
X128228962Y-82200741D01*
X128260171Y-82201189D01*
X128281178Y-82201511D01*
X128307502Y-82201913D01*
X128333844Y-82202287D01*
X128360198Y-82202603D01*
X128373378Y-82202732D01*
X128386559Y-82202835D01*
X128399739Y-82202910D01*
X128412919Y-82202952D01*
X128426098Y-82202959D01*
X128439275Y-82202927D01*
X128452450Y-82202852D01*
X128465621Y-82202730D01*
X128478788Y-82202559D01*
X128491950Y-82202334D01*
X128505107Y-82202052D01*
X128518257Y-82201709D01*
X128531401Y-82201302D01*
X128544537Y-82200827D01*
X128557665Y-82200281D01*
X128570784Y-82199659D01*
X128577340Y-82199319D01*
X128583893Y-82198959D01*
X128590444Y-82198579D01*
X128596992Y-82198177D01*
X128603537Y-82197755D01*
X128610080Y-82197310D01*
X128616619Y-82196843D01*
X128623156Y-82196353D01*
X128629689Y-82195840D01*
X128636219Y-82195303D01*
X128642746Y-82194742D01*
X128649270Y-82194156D01*
X128655790Y-82193546D01*
X128662306Y-82192910D01*
X128668819Y-82192248D01*
X128675328Y-82191560D01*
X128681833Y-82190845D01*
X128688334Y-82190103D01*
X128694832Y-82189333D01*
X128701325Y-82188535D01*
D15*
G36*
X154949520Y-102649200D02*
G01*
X154314245Y-102649200D01*
X154314245Y-101629241D01*
X154949520Y-101629241D01*
X154949520Y-101805096D01*
X154515745Y-101805096D01*
X154515745Y-102027846D01*
X154908549Y-102027846D01*
X154908549Y-102203701D01*
X154515745Y-102203701D01*
X154515745Y-102473345D01*
X154949520Y-102473345D01*
X154949520Y-102649200D01*
G37*
G36*
X155122872Y-101629241D02*
G01*
X155339454Y-101629241D01*
X155623631Y-102370457D01*
X155623631Y-101629241D01*
X155801256Y-101629241D01*
X155801256Y-102649200D01*
X155586017Y-102649200D01*
X155300497Y-101907984D01*
X155300497Y-102649200D01*
X155122872Y-102649200D01*
X155122872Y-101629241D01*
G37*
D14*
G36*
X158201259Y-87949835D02*
G01*
X158247434Y-87964476D01*
X158283682Y-87987332D01*
X158311836Y-88018579D01*
X158331430Y-88055635D01*
X158347340Y-88107123D01*
X158358271Y-88176985D01*
X158362395Y-88269782D01*
X158358265Y-88363360D01*
X158347324Y-88433738D01*
X158331412Y-88485538D01*
X158311836Y-88522757D01*
X158283662Y-88554150D01*
X158247402Y-88577097D01*
X158201234Y-88591789D01*
X158142454Y-88597129D01*
X158087805Y-88597129D01*
X158087805Y-87944512D01*
X158142454Y-87944512D01*
X158201259Y-87949835D01*
G37*
G36*
X162917932Y-89227989D02*
G01*
X156077217Y-89227989D01*
X156077217Y-89116878D01*
X158977764Y-89116878D01*
X159132859Y-89116878D01*
X159132859Y-88261051D01*
X159522060Y-88261051D01*
X159522060Y-88425182D01*
X159817166Y-88425182D01*
X159817166Y-88718273D01*
X159979099Y-88718273D01*
X159979099Y-88604945D01*
X160447557Y-88604945D01*
X160447557Y-88780800D01*
X161094495Y-88780800D01*
X161094495Y-88610379D01*
X161239881Y-88610379D01*
X161239881Y-88780800D01*
X161887430Y-88780800D01*
X161887430Y-88604945D01*
X161457745Y-88604945D01*
X161597819Y-88463772D01*
X161743958Y-88313631D01*
X161796571Y-88254029D01*
X161840167Y-88189674D01*
X161865936Y-88136792D01*
X161880967Y-88082597D01*
X161886086Y-88023708D01*
X161879945Y-87959931D01*
X161862388Y-87905360D01*
X161833834Y-87858150D01*
X161793518Y-87817078D01*
X161745697Y-87785390D01*
X161688605Y-87761767D01*
X161684420Y-87760841D01*
X162042402Y-87760841D01*
X162284874Y-88780800D01*
X162564287Y-88780800D01*
X162806821Y-87760841D01*
X162603916Y-87760841D01*
X162424275Y-88612760D01*
X162245245Y-87760841D01*
X162042402Y-87760841D01*
X161684420Y-87760841D01*
X161620460Y-87746687D01*
X161539078Y-87741302D01*
X161474283Y-87744720D01*
X161404806Y-87755346D01*
X161334827Y-87772284D01*
X161261740Y-87796012D01*
X161261740Y-87983591D01*
X161334901Y-87947638D01*
X161402119Y-87922530D01*
X161468187Y-87906417D01*
X161523386Y-87901525D01*
X161572586Y-87906173D01*
X161610812Y-87918920D01*
X161640500Y-87938833D01*
X161662919Y-87966196D01*
X161676842Y-88000709D01*
X161681838Y-88044529D01*
X161676391Y-88088509D01*
X161659307Y-88134533D01*
X161631669Y-88180405D01*
X161585545Y-88238825D01*
X161349179Y-88494058D01*
X161239881Y-88610379D01*
X161094495Y-88610379D01*
X161094495Y-88604945D01*
X160869059Y-88604945D01*
X160869059Y-87760841D01*
X160674397Y-87760841D01*
X160463311Y-87811644D01*
X160463311Y-87995315D01*
X160672993Y-87940604D01*
X160672993Y-88604945D01*
X160447557Y-88604945D01*
X159979099Y-88604945D01*
X159979099Y-88425182D01*
X160272801Y-88425182D01*
X160272801Y-88261051D01*
X159979099Y-88261051D01*
X159979099Y-87967959D01*
X159817166Y-87967959D01*
X159817166Y-88261051D01*
X159522060Y-88261051D01*
X159132859Y-88261051D01*
X159132859Y-87717855D01*
X158977764Y-87717855D01*
X158977764Y-89116878D01*
X156077217Y-89116878D01*
X156077217Y-88271187D01*
X156188328Y-88271187D01*
X156193425Y-88375967D01*
X156207752Y-88465568D01*
X156230129Y-88542043D01*
X156259749Y-88607206D01*
X156296222Y-88662586D01*
X156342547Y-88711770D01*
X156395229Y-88749715D01*
X156455132Y-88777228D01*
X156523588Y-88794346D01*
X156602320Y-88800339D01*
X156680408Y-88793878D01*
X156729997Y-88780800D01*
X157031821Y-88780800D01*
X157209446Y-88780800D01*
X157209446Y-88039584D01*
X157494966Y-88780800D01*
X157710205Y-88780800D01*
X157710205Y-88597129D01*
X157886304Y-88597129D01*
X157886304Y-88780800D01*
X158102154Y-88780800D01*
X158205907Y-88774936D01*
X158290969Y-88758725D01*
X158360395Y-88733793D01*
X158416783Y-88701113D01*
X158462168Y-88660937D01*
X158498311Y-88612672D01*
X158528258Y-88552071D01*
X158551421Y-88476728D01*
X158566617Y-88383737D01*
X158572138Y-88269782D01*
X158566614Y-88156132D01*
X158551415Y-88063449D01*
X158528252Y-87988405D01*
X158498309Y-87928090D01*
X158462168Y-87880093D01*
X158416819Y-87840148D01*
X158360455Y-87807636D01*
X158291032Y-87782821D01*
X158205951Y-87766680D01*
X158102154Y-87760841D01*
X157886304Y-87760841D01*
X157886304Y-88597129D01*
X157710205Y-88597129D01*
X157710205Y-87760841D01*
X157532580Y-87760841D01*
X157532580Y-88502057D01*
X157248403Y-87760841D01*
X157031821Y-87760841D01*
X157031821Y-88780800D01*
X156729997Y-88780800D01*
X156752224Y-88774938D01*
X156819084Y-88743569D01*
X156880329Y-88699955D01*
X156880329Y-88233696D01*
X156566111Y-88233696D01*
X156566111Y-88401735D01*
X156704108Y-88401735D01*
X156704108Y-88597251D01*
X156688155Y-88607169D01*
X156666494Y-88614775D01*
X156611906Y-88620576D01*
X156561982Y-88614811D01*
X156519850Y-88598279D01*
X156483740Y-88570968D01*
X156452721Y-88531366D01*
X156430728Y-88486637D01*
X156413571Y-88430068D01*
X156402222Y-88359191D01*
X156398072Y-88271187D01*
X156402447Y-88180036D01*
X156414317Y-88107914D01*
X156432109Y-88051496D01*
X156454736Y-88007893D01*
X156486570Y-87970047D01*
X156524791Y-87943371D01*
X156570639Y-87926893D01*
X156626194Y-87921065D01*
X156689596Y-87928059D01*
X156746728Y-87948603D01*
X156797902Y-87982271D01*
X156844120Y-88030485D01*
X156844120Y-87807736D01*
X156790410Y-87779319D01*
X156732745Y-87758399D01*
X156672775Y-87745571D01*
X156611845Y-87741302D01*
X156529676Y-87747314D01*
X156458779Y-87764413D01*
X156397304Y-87791734D01*
X156343790Y-87829163D01*
X156297260Y-87877345D01*
X156260583Y-87932028D01*
X156230711Y-87996951D01*
X156208068Y-88073764D01*
X156193519Y-88164433D01*
X156188328Y-88271187D01*
X156077217Y-88271187D01*
X156077217Y-87606744D01*
X162917932Y-87606744D01*
X162917932Y-89227989D01*
G37*
G36*
X138782927Y-105593756D02*
G01*
X139017400Y-105593756D01*
X139017400Y-105358794D01*
X139148705Y-105358794D01*
X139148705Y-105593756D01*
X139383179Y-105593756D01*
X139383179Y-105723302D01*
X139148705Y-105723302D01*
X139148705Y-105959387D01*
X139017400Y-105959387D01*
X139017400Y-105723302D01*
X138782927Y-105723302D01*
X138782927Y-105593756D01*
G37*
G36*
X139067421Y-105021690D02*
G01*
X139067421Y-105108054D01*
X138926738Y-105108054D01*
X138926738Y-105021690D01*
X138923696Y-104982213D01*
X138915455Y-104951805D01*
X138902899Y-104928536D01*
X138884858Y-104910195D01*
X138862882Y-104899283D01*
X138835684Y-104895465D01*
X138806958Y-104899312D01*
X138783726Y-104910271D01*
X138764658Y-104928536D01*
X138751173Y-104951935D01*
X138742388Y-104982346D01*
X138739159Y-105021690D01*
X138741857Y-105068263D01*
X138750394Y-105120071D01*
X138763881Y-105172685D01*
X138782927Y-105228808D01*
X138635991Y-105228808D01*
X138621196Y-105172540D01*
X138610492Y-105117873D01*
X138603770Y-105063671D01*
X138601601Y-105012946D01*
X138605669Y-104947793D01*
X138616996Y-104893721D01*
X138634609Y-104848907D01*
X138658022Y-104811837D01*
X138688819Y-104780339D01*
X138724308Y-104758107D01*
X138765421Y-104744461D01*
X138813604Y-104739687D01*
X138860571Y-104744606D01*
X138899730Y-104758570D01*
X138932746Y-104781257D01*
X138959185Y-104811629D01*
X138979474Y-104850515D01*
X138993269Y-104899813D01*
X139008615Y-104844061D01*
X139031948Y-104800380D01*
X139062927Y-104766505D01*
X139101506Y-104741671D01*
X139148391Y-104726129D01*
X139205761Y-104720588D01*
X139264082Y-104725818D01*
X139312455Y-104740536D01*
X139352826Y-104764015D01*
X139386549Y-104796547D01*
X139412180Y-104835661D01*
X139431627Y-104884123D01*
X139444256Y-104943893D01*
X139448831Y-105017343D01*
X139446207Y-105078729D01*
X139438377Y-105138927D01*
X139425548Y-105197774D01*
X139408189Y-105253428D01*
X139258126Y-105253428D01*
X139280908Y-105200392D01*
X139297742Y-105142493D01*
X139307833Y-105081942D01*
X139311273Y-105017343D01*
X139307514Y-104974574D01*
X139297133Y-104940564D01*
X139280890Y-104913491D01*
X139258298Y-104892269D01*
X139231437Y-104879637D01*
X139198922Y-104875242D01*
X139158597Y-104879862D01*
X139126841Y-104892740D01*
X139101664Y-104913491D01*
X139083391Y-104940935D01*
X139071688Y-104976255D01*
X139067421Y-105021690D01*
G37*
G36*
X139298768Y-104311334D02*
G01*
X138617233Y-104167622D01*
X138617233Y-104005298D01*
X139433200Y-104199324D01*
X139433200Y-104422856D01*
X138617233Y-104616833D01*
X138617233Y-104454558D01*
X139298768Y-104311334D01*
G37*
G36*
X139067421Y-103674251D02*
G01*
X139067421Y-103760615D01*
X138926738Y-103760615D01*
X138926738Y-103674251D01*
X138923696Y-103634774D01*
X138915455Y-103604366D01*
X138902899Y-103581097D01*
X138884858Y-103562756D01*
X138862882Y-103551844D01*
X138835684Y-103548026D01*
X138806958Y-103551874D01*
X138783726Y-103562832D01*
X138764658Y-103581097D01*
X138751173Y-103604496D01*
X138742388Y-103634907D01*
X138739159Y-103674251D01*
X138741857Y-103720824D01*
X138750394Y-103772632D01*
X138763881Y-103825247D01*
X138782927Y-103881369D01*
X138635991Y-103881369D01*
X138621196Y-103825101D01*
X138610492Y-103770434D01*
X138603770Y-103716232D01*
X138601601Y-103665507D01*
X138605669Y-103600354D01*
X138616996Y-103546282D01*
X138634609Y-103501468D01*
X138658022Y-103464398D01*
X138688819Y-103432900D01*
X138724308Y-103410668D01*
X138765421Y-103397022D01*
X138813604Y-103392248D01*
X138860571Y-103397167D01*
X138899730Y-103411131D01*
X138932746Y-103433819D01*
X138959185Y-103464190D01*
X138979474Y-103503076D01*
X138993269Y-103552374D01*
X139008615Y-103496622D01*
X139031948Y-103452942D01*
X139062927Y-103419066D01*
X139101506Y-103394232D01*
X139148391Y-103378690D01*
X139205761Y-103373149D01*
X139264082Y-103378379D01*
X139312455Y-103393097D01*
X139352826Y-103416576D01*
X139386549Y-103449108D01*
X139412180Y-103488222D01*
X139431627Y-103536684D01*
X139444256Y-103596454D01*
X139448831Y-103669904D01*
X139446207Y-103731290D01*
X139438377Y-103791488D01*
X139425548Y-103850336D01*
X139408189Y-103905989D01*
X139258126Y-103905989D01*
X139280908Y-103852953D01*
X139297742Y-103795054D01*
X139307833Y-103734503D01*
X139311273Y-103669904D01*
X139307514Y-103627135D01*
X139297133Y-103593125D01*
X139280890Y-103566052D01*
X139258298Y-103544830D01*
X139231437Y-103532198D01*
X139198922Y-103527803D01*
X139158597Y-103532423D01*
X139126841Y-103545301D01*
X139101664Y-103566052D01*
X139083391Y-103593496D01*
X139071688Y-103628816D01*
X139067421Y-103674251D01*
G37*
G36*
X122286568Y-106737293D02*
G01*
X121605033Y-106593581D01*
X121605033Y-106431257D01*
X122421000Y-106625283D01*
X122421000Y-106848814D01*
X121605033Y-107042792D01*
X121605033Y-106880517D01*
X122286568Y-106737293D01*
G37*
G36*
X122255025Y-105771968D02*
G01*
X122301670Y-105786034D01*
X122338691Y-105807993D01*
X122367852Y-105837893D01*
X122388848Y-105873860D01*
X122405526Y-105922184D01*
X122416795Y-105986017D01*
X122421000Y-106069045D01*
X122421000Y-106331948D01*
X121605033Y-106331948D01*
X121605033Y-106069045D01*
X121733212Y-106069045D01*
X121733212Y-106176170D01*
X121920790Y-106176170D01*
X121920790Y-106069045D01*
X122048969Y-106069045D01*
X122048969Y-106176170D01*
X122292821Y-106176170D01*
X122292821Y-106069045D01*
X122289134Y-106017980D01*
X122279730Y-105983532D01*
X122266345Y-105961138D01*
X122246394Y-105945091D01*
X122216873Y-105934368D01*
X122174217Y-105930266D01*
X122130887Y-105934470D01*
X122099958Y-105945611D01*
X122078229Y-105962506D01*
X122063171Y-105985934D01*
X122052909Y-106020181D01*
X122048969Y-106069045D01*
X121920790Y-106069045D01*
X121917828Y-106028540D01*
X121910194Y-106000596D01*
X121899199Y-105981899D01*
X121882915Y-105968211D01*
X121859908Y-105959301D01*
X121827831Y-105955960D01*
X121795796Y-105959343D01*
X121772483Y-105968426D01*
X121755682Y-105982485D01*
X121744147Y-106001570D01*
X121736248Y-106029415D01*
X121733212Y-106069045D01*
X121605033Y-106069045D01*
X121608905Y-105999412D01*
X121619491Y-105943654D01*
X121635563Y-105899342D01*
X121656373Y-105864418D01*
X121684522Y-105834956D01*
X121718566Y-105813798D01*
X121759707Y-105800551D01*
X121809757Y-105795835D01*
X121860396Y-105800808D01*
X121900337Y-105814563D01*
X121931928Y-105836281D01*
X121956241Y-105865925D01*
X121973463Y-105904639D01*
X121982974Y-105954837D01*
X121991059Y-105908472D01*
X122004540Y-105870457D01*
X122022887Y-105839375D01*
X122046038Y-105814153D01*
X122073959Y-105794357D01*
X122107510Y-105779632D01*
X122147808Y-105770231D01*
X122196247Y-105766867D01*
X122255025Y-105771968D01*
G37*
G36*
X122118920Y-105668584D02*
G01*
X121605033Y-105668584D01*
X121605033Y-105507384D01*
X122159318Y-105507384D01*
X122198929Y-105503556D01*
X122230241Y-105492968D01*
X122255061Y-105476267D01*
X122273947Y-105453417D01*
X122285562Y-105425169D01*
X122289695Y-105389903D01*
X122285560Y-105354606D01*
X122273943Y-105326360D01*
X122255061Y-105303539D01*
X122230238Y-105286811D01*
X122198925Y-105276207D01*
X122159318Y-105272373D01*
X121605033Y-105272373D01*
X121605033Y-105111173D01*
X122118920Y-105111173D01*
X122204300Y-105116261D01*
X122270801Y-105130020D01*
X122322053Y-105150697D01*
X122361062Y-105177314D01*
X122386688Y-105204850D01*
X122407324Y-105238616D01*
X122422929Y-105279705D01*
X122433005Y-105329548D01*
X122436631Y-105389854D01*
X122431061Y-105463222D01*
X122415810Y-105521136D01*
X122392342Y-105566680D01*
X122361062Y-105602199D01*
X122322035Y-105628924D01*
X122270776Y-105649675D01*
X122204280Y-105663480D01*
X122118920Y-105668584D01*
G37*
G36*
X122063233Y-104774069D02*
G01*
X122027800Y-104854153D01*
X121995260Y-104906838D01*
X121965487Y-104939128D01*
X121929051Y-104962355D01*
X121883889Y-104977033D01*
X121827685Y-104982311D01*
X121773024Y-104977497D01*
X121726651Y-104963829D01*
X121686997Y-104941856D01*
X121652953Y-104911285D01*
X121626168Y-104874221D01*
X121606395Y-104830295D01*
X121593861Y-104778176D01*
X121589401Y-104716184D01*
X121592546Y-104660076D01*
X121602053Y-104603636D01*
X121617616Y-104547908D01*
X121639422Y-104492115D01*
X121795738Y-104492115D01*
X121764433Y-104545117D01*
X121742200Y-104597628D01*
X121728340Y-104651387D01*
X121723833Y-104703630D01*
X121726827Y-104742042D01*
X121734897Y-104771248D01*
X121747133Y-104793267D01*
X121764674Y-104810398D01*
X121786449Y-104820732D01*
X121813812Y-104824383D01*
X121844729Y-104818623D01*
X121869353Y-104801717D01*
X121889667Y-104771945D01*
X121917859Y-104706854D01*
X121944384Y-104637440D01*
X121972847Y-104574467D01*
X122004891Y-104527143D01*
X122040225Y-104492653D01*
X122082194Y-104467410D01*
X122131750Y-104451731D01*
X122190776Y-104446198D01*
X122252191Y-104451365D01*
X122302056Y-104465742D01*
X122342638Y-104488341D01*
X122375570Y-104519177D01*
X122400457Y-104556729D01*
X122419535Y-104604406D01*
X122432055Y-104664478D01*
X122436631Y-104739680D01*
X122433103Y-104800188D01*
X122422416Y-104861264D01*
X122404850Y-104921076D01*
X122380357Y-104979038D01*
X122214663Y-104979038D01*
X122254143Y-104913986D01*
X122280609Y-104854181D01*
X122296912Y-104793499D01*
X122302200Y-104734746D01*
X122298827Y-104695879D01*
X122289619Y-104665735D01*
X122275382Y-104642422D01*
X122255469Y-104624408D01*
X122230938Y-104613466D01*
X122200351Y-104609596D01*
X122166149Y-104615116D01*
X122136701Y-104631480D01*
X122112907Y-104657282D01*
X122093616Y-104694837D01*
X122063233Y-104774069D01*
G37*
G36*
X121745717Y-104285095D02*
G01*
X121605033Y-104285095D01*
X121605033Y-103799247D01*
X121745717Y-103799247D01*
X121745717Y-103961571D01*
X122280316Y-103961571D01*
X122280316Y-103799247D01*
X122421000Y-103799247D01*
X122421000Y-104285095D01*
X122280316Y-104285095D01*
X122280316Y-104122771D01*
X121745717Y-104122771D01*
X121745717Y-104285095D01*
G37*
G36*
X121605033Y-103640343D02*
G01*
X121605033Y-103467077D01*
X122198006Y-103239736D01*
X121605033Y-103239736D01*
X121605033Y-103097635D01*
X122421000Y-103097635D01*
X122421000Y-103269826D01*
X121828027Y-103498242D01*
X122421000Y-103498242D01*
X122421000Y-103640343D01*
X121605033Y-103640343D01*
G37*
G36*
X151228927Y-102215556D02*
G01*
X151463400Y-102215556D01*
X151463400Y-101980594D01*
X151594705Y-101980594D01*
X151594705Y-102215556D01*
X151829179Y-102215556D01*
X151829179Y-102345102D01*
X151594705Y-102345102D01*
X151594705Y-102581187D01*
X151463400Y-102581187D01*
X151463400Y-102345102D01*
X151228927Y-102345102D01*
X151228927Y-102215556D01*
G37*
G36*
X151738516Y-101840789D02*
G01*
X151738516Y-101660441D01*
X151207043Y-101660441D01*
X151250812Y-101828187D01*
X151103875Y-101828187D01*
X151063233Y-101659317D01*
X151063233Y-101503588D01*
X151738516Y-101503588D01*
X151738516Y-101323239D01*
X151879200Y-101323239D01*
X151879200Y-101840789D01*
X151738516Y-101840789D01*
G37*
G36*
X151738516Y-101032639D02*
G01*
X151738516Y-100688891D01*
X151879200Y-100688891D01*
X151879200Y-101206930D01*
X151742863Y-101206930D01*
X151649807Y-101119492D01*
X151445620Y-100930399D01*
X151398884Y-100893500D01*
X151362186Y-100871390D01*
X151325367Y-100857722D01*
X151290183Y-100853365D01*
X151255127Y-100857361D01*
X151227516Y-100868500D01*
X151205627Y-100886435D01*
X151189696Y-100910186D01*
X151179498Y-100940767D01*
X151175780Y-100980127D01*
X151179694Y-101024285D01*
X151192584Y-101077140D01*
X151212670Y-101130914D01*
X151241433Y-101189443D01*
X151091370Y-101189443D01*
X151072387Y-101130974D01*
X151058837Y-101074990D01*
X151050336Y-101019409D01*
X151047601Y-100967572D01*
X151051910Y-100902467D01*
X151063973Y-100847951D01*
X151082872Y-100802277D01*
X151108223Y-100764020D01*
X151141080Y-100731768D01*
X151178848Y-100708925D01*
X151222505Y-100694879D01*
X151273526Y-100689966D01*
X151320637Y-100694061D01*
X151363994Y-100706086D01*
X151406299Y-100726701D01*
X151457783Y-100761578D01*
X151505465Y-100803668D01*
X151625578Y-100920580D01*
X151738516Y-101032639D01*
G37*
G36*
X151744768Y-100259415D02*
G01*
X151063233Y-100115702D01*
X151063233Y-99953378D01*
X151879200Y-100147405D01*
X151879200Y-100370936D01*
X151063233Y-100564914D01*
X151063233Y-100402639D01*
X151744768Y-100259415D01*
G37*
G36*
X128986426Y-89159168D02*
G01*
X129130138Y-88477633D01*
X129292462Y-88477633D01*
X129098436Y-89293600D01*
X128874905Y-89293600D01*
X128680927Y-88477633D01*
X128843202Y-88477633D01*
X128986426Y-89159168D01*
G37*
G36*
X129724307Y-88481505D02*
G01*
X129780065Y-88492091D01*
X129824377Y-88508163D01*
X129859301Y-88528973D01*
X129888763Y-88557122D01*
X129909921Y-88591166D01*
X129923168Y-88632307D01*
X129927884Y-88682357D01*
X129922911Y-88732996D01*
X129909156Y-88772937D01*
X129887438Y-88804528D01*
X129857794Y-88828841D01*
X129819080Y-88846063D01*
X129768882Y-88855574D01*
X129815247Y-88863659D01*
X129853262Y-88877140D01*
X129884344Y-88895487D01*
X129909566Y-88918638D01*
X129929362Y-88946559D01*
X129944087Y-88980110D01*
X129953488Y-89020408D01*
X129956852Y-89068847D01*
X129951751Y-89127625D01*
X129937685Y-89174270D01*
X129915726Y-89211291D01*
X129885826Y-89240452D01*
X129849859Y-89261448D01*
X129801535Y-89278126D01*
X129737702Y-89289395D01*
X129654674Y-89293600D01*
X129391771Y-89293600D01*
X129391771Y-89165421D01*
X129547549Y-89165421D01*
X129654674Y-89165421D01*
X129705739Y-89161734D01*
X129740187Y-89152330D01*
X129762581Y-89138945D01*
X129778628Y-89118994D01*
X129789351Y-89089473D01*
X129793453Y-89046817D01*
X129789249Y-89003487D01*
X129778108Y-88972558D01*
X129761213Y-88950829D01*
X129737785Y-88935771D01*
X129703538Y-88925509D01*
X129654674Y-88921569D01*
X129547549Y-88921569D01*
X129547549Y-89165421D01*
X129391771Y-89165421D01*
X129391771Y-88793390D01*
X129547549Y-88793390D01*
X129654674Y-88793390D01*
X129695179Y-88790428D01*
X129723123Y-88782794D01*
X129741820Y-88771799D01*
X129755508Y-88755515D01*
X129764418Y-88732508D01*
X129767759Y-88700431D01*
X129764376Y-88668396D01*
X129755293Y-88645083D01*
X129741234Y-88628282D01*
X129722149Y-88616747D01*
X129694304Y-88608848D01*
X129654674Y-88605812D01*
X129547549Y-88605812D01*
X129547549Y-88793390D01*
X129391771Y-88793390D01*
X129391771Y-88477633D01*
X129654674Y-88477633D01*
X129724307Y-88481505D01*
G37*
G36*
X130055135Y-88991520D02*
G01*
X130055135Y-88477633D01*
X130216335Y-88477633D01*
X130216335Y-89031918D01*
X130220163Y-89071529D01*
X130230751Y-89102841D01*
X130247452Y-89127661D01*
X130270302Y-89146547D01*
X130298550Y-89158162D01*
X130333816Y-89162295D01*
X130369113Y-89158160D01*
X130397359Y-89146543D01*
X130420180Y-89127661D01*
X130436908Y-89102838D01*
X130447512Y-89071525D01*
X130451346Y-89031918D01*
X130451346Y-88477633D01*
X130612546Y-88477633D01*
X130612546Y-88991520D01*
X130607458Y-89076900D01*
X130593699Y-89143401D01*
X130573022Y-89194653D01*
X130546405Y-89233662D01*
X130518869Y-89259288D01*
X130485103Y-89279924D01*
X130444014Y-89295529D01*
X130394171Y-89305605D01*
X130333865Y-89309231D01*
X130260497Y-89303661D01*
X130202583Y-89288410D01*
X130157039Y-89264942D01*
X130121520Y-89233662D01*
X130094795Y-89194635D01*
X130074044Y-89143376D01*
X130060239Y-89076880D01*
X130055135Y-88991520D01*
G37*
G36*
X130949650Y-88935833D02*
G01*
X130869566Y-88900400D01*
X130816881Y-88867860D01*
X130784591Y-88838087D01*
X130761364Y-88801651D01*
X130746686Y-88756489D01*
X130741408Y-88700285D01*
X130746222Y-88645624D01*
X130759890Y-88599251D01*
X130781863Y-88559597D01*
X130812434Y-88525553D01*
X130849498Y-88498768D01*
X130893424Y-88478995D01*
X130945543Y-88466461D01*
X131007535Y-88462001D01*
X131063643Y-88465146D01*
X131120083Y-88474653D01*
X131175811Y-88490216D01*
X131231604Y-88512022D01*
X131231604Y-88668338D01*
X131178602Y-88637033D01*
X131126091Y-88614800D01*
X131072332Y-88600940D01*
X131020089Y-88596433D01*
X130981677Y-88599427D01*
X130952471Y-88607497D01*
X130930452Y-88619733D01*
X130913321Y-88637274D01*
X130902987Y-88659049D01*
X130899336Y-88686412D01*
X130905096Y-88717329D01*
X130922002Y-88741953D01*
X130951774Y-88762267D01*
X131016865Y-88790459D01*
X131086279Y-88816984D01*
X131149252Y-88845447D01*
X131196576Y-88877491D01*
X131231066Y-88912825D01*
X131256309Y-88954794D01*
X131271988Y-89004350D01*
X131277521Y-89063376D01*
X131272354Y-89124791D01*
X131257977Y-89174656D01*
X131235378Y-89215238D01*
X131204542Y-89248170D01*
X131166990Y-89273057D01*
X131119313Y-89292135D01*
X131059241Y-89304655D01*
X130984039Y-89309231D01*
X130923531Y-89305703D01*
X130862455Y-89295016D01*
X130802643Y-89277450D01*
X130744681Y-89252957D01*
X130744681Y-89087263D01*
X130809733Y-89126743D01*
X130869538Y-89153209D01*
X130930220Y-89169512D01*
X130988973Y-89174800D01*
X131027840Y-89171427D01*
X131057984Y-89162219D01*
X131081297Y-89147982D01*
X131099311Y-89128069D01*
X131110253Y-89103538D01*
X131114123Y-89072951D01*
X131108603Y-89038749D01*
X131092239Y-89009301D01*
X131066437Y-88985507D01*
X131028882Y-88966216D01*
X130949650Y-88935833D01*
G37*
D15*
G36*
X153895856Y-109111096D02*
G01*
X153895856Y-108935241D01*
X154503166Y-108935241D01*
X154503166Y-109111096D01*
X154300261Y-109111096D01*
X154300261Y-109779345D01*
X154503166Y-109779345D01*
X154503166Y-109955200D01*
X153895856Y-109955200D01*
X153895856Y-109779345D01*
X154098761Y-109779345D01*
X154098761Y-109111096D01*
X153895856Y-109111096D01*
G37*
G36*
X155111398Y-108921497D02*
G01*
X155171751Y-108938020D01*
X155224100Y-108964612D01*
X155269740Y-109001490D01*
X155309412Y-109049730D01*
X155339254Y-109102477D01*
X155364032Y-109166403D01*
X155383107Y-109243410D01*
X155395507Y-109335668D01*
X155399965Y-109445587D01*
X155395512Y-109555154D01*
X155383124Y-109647193D01*
X155364056Y-109724087D01*
X155339274Y-109787986D01*
X155309412Y-109840772D01*
X155269743Y-109888986D01*
X155224105Y-109925848D01*
X155171756Y-109952429D01*
X155111401Y-109968946D01*
X155041294Y-109974739D01*
X154971518Y-109968956D01*
X154911379Y-109952460D01*
X154859149Y-109925894D01*
X154813549Y-109889025D01*
X154773848Y-109840772D01*
X154744008Y-109787989D01*
X154719243Y-109724092D01*
X154700187Y-109647199D01*
X154687806Y-109555158D01*
X154683356Y-109445587D01*
X154893100Y-109445587D01*
X154898105Y-109569505D01*
X154910878Y-109655328D01*
X154928576Y-109712300D01*
X154950222Y-109750164D01*
X154975763Y-109775202D01*
X155005624Y-109789907D01*
X155041294Y-109794976D01*
X155077348Y-109789886D01*
X155107431Y-109775146D01*
X155133063Y-109750102D01*
X155154684Y-109712300D01*
X155172413Y-109655325D01*
X155185208Y-109569503D01*
X155190221Y-109445587D01*
X155185202Y-109321159D01*
X155172400Y-109235152D01*
X155154684Y-109178202D01*
X155133059Y-109140367D01*
X155107426Y-109115305D01*
X155077344Y-109100558D01*
X155041294Y-109095465D01*
X155005628Y-109100537D01*
X154975769Y-109115249D01*
X154950225Y-109140306D01*
X154928576Y-109178202D01*
X154910891Y-109235149D01*
X154898111Y-109321156D01*
X154893100Y-109445587D01*
X154683356Y-109445587D01*
X154687812Y-109335665D01*
X154700203Y-109243404D01*
X154719266Y-109166398D01*
X154744028Y-109102474D01*
X154773848Y-109049730D01*
X154813552Y-109001451D01*
X154859154Y-108964566D01*
X154911384Y-108937989D01*
X154971521Y-108921487D01*
X155041294Y-108915702D01*
X155111398Y-108921497D01*
G37*
G36*
X155950116Y-108921389D02*
G01*
X156007306Y-108937594D01*
X156056755Y-108963697D01*
X156099728Y-108999991D01*
X156136907Y-109047654D01*
X156170457Y-109113806D01*
X156196845Y-109199211D01*
X156214443Y-109308163D01*
X156220926Y-109445587D01*
X156214450Y-109582595D01*
X156196863Y-109691314D01*
X156170476Y-109776626D01*
X156136907Y-109842787D01*
X156099728Y-109890450D01*
X156056755Y-109926744D01*
X156007306Y-109952847D01*
X155950116Y-109969052D01*
X155883444Y-109974739D01*
X155817118Y-109969052D01*
X155760160Y-109952838D01*
X155710842Y-109926696D01*
X155667916Y-109890311D01*
X155630713Y-109842481D01*
X155597115Y-109776134D01*
X155572835Y-109697584D01*
X155774878Y-109697584D01*
X155781716Y-109717368D01*
X155801824Y-109757344D01*
X155825191Y-109783069D01*
X155851975Y-109797794D01*
X155883505Y-109802792D01*
X155915354Y-109797777D01*
X155942335Y-109783027D01*
X155965794Y-109757314D01*
X155985903Y-109717429D01*
X156001925Y-109658844D01*
X156013496Y-109570997D01*
X156018021Y-109444793D01*
X156013259Y-109317726D01*
X155774878Y-109697584D01*
X155572835Y-109697584D01*
X155570729Y-109690772D01*
X155553159Y-109582194D01*
X155546726Y-109446258D01*
X155749598Y-109446258D01*
X155752346Y-109552138D01*
X155987308Y-109177103D01*
X155985964Y-109173012D01*
X155965826Y-109133127D01*
X155942348Y-109107413D01*
X155915356Y-109092663D01*
X155883505Y-109087649D01*
X155851974Y-109092646D01*
X155825178Y-109107371D01*
X155801792Y-109133096D01*
X155781655Y-109173073D01*
X155765674Y-109231629D01*
X155754120Y-109319626D01*
X155749598Y-109446258D01*
X155546726Y-109446258D01*
X155546694Y-109445587D01*
X155553166Y-109308561D01*
X155570748Y-109199762D01*
X155597135Y-109114329D01*
X155630713Y-109048021D01*
X155667919Y-109000165D01*
X155710848Y-108963763D01*
X155760165Y-108937611D01*
X155817122Y-108921391D01*
X155883444Y-108915702D01*
X155950116Y-108921389D01*
G37*
D16*
%TO.C,CN1*%
X157073600Y-77927200D03*
X157073600Y-83007200D03*
X159613600Y-77927200D03*
X159613600Y-83007200D03*
%TD*%
D17*
%TO.C,CN3*%
X142086000Y-77988800D03*
X144586000Y-72988800D03*
X147086000Y-77988800D03*
X149586000Y-72988800D03*
X152086000Y-77988800D03*
X154586000Y-72988800D03*
%TD*%
D18*
%TO.C,U22*%
X137769600Y-73355200D03*
D19*
X118869600Y-76075200D03*
X119369600Y-76075200D03*
X119869600Y-76075200D03*
X120369600Y-76075200D03*
X120869600Y-76075200D03*
X121369600Y-76075200D03*
X121869600Y-76075200D03*
X122369600Y-76075200D03*
X122869600Y-76075200D03*
X123369600Y-76075200D03*
X123869600Y-76075200D03*
X124369600Y-76075200D03*
X124869600Y-76075200D03*
X125369600Y-76075200D03*
X125869600Y-76075200D03*
X126369600Y-76075200D03*
X126869600Y-76075200D03*
X127369600Y-76075200D03*
X127869600Y-76075200D03*
X128369600Y-76075200D03*
X128869600Y-76075200D03*
X129369600Y-76075200D03*
X129869600Y-76075200D03*
X130369600Y-76075200D03*
X130869600Y-76075200D03*
X131369600Y-76075200D03*
X131869600Y-76075200D03*
X132369600Y-76075200D03*
X132869600Y-76075200D03*
X133369600Y-76075200D03*
X133869600Y-76075200D03*
X134369600Y-76075200D03*
X134869600Y-76075200D03*
X135369600Y-76075200D03*
X135869600Y-76075200D03*
D18*
X116969600Y-73355200D03*
%TD*%
D20*
%TO.C,C34*%
X143967200Y-110100850D03*
X143967200Y-111060850D03*
%TD*%
D21*
%TO.C,C20*%
X119077000Y-85039200D03*
X116127000Y-85039200D03*
%TD*%
D22*
%TO.C,REF\u002A\u002A*%
X162000000Y-71000000D03*
%TD*%
D23*
%TO.C,U18*%
X159190002Y-101384400D03*
X159840000Y-101384400D03*
X160490002Y-101384400D03*
X161140000Y-101384400D03*
X161140000Y-98438000D03*
X160490002Y-98438000D03*
X159840000Y-98438000D03*
X159190002Y-98438000D03*
D24*
X160165001Y-99911200D03*
%TD*%
D25*
%TO.C,C7*%
X141732000Y-109743450D03*
X141732000Y-112693450D03*
%TD*%
D26*
%TO.C,U3*%
X132410200Y-104241600D03*
X132410200Y-104741726D03*
X132410200Y-105241852D03*
X132410200Y-105741978D03*
X134010400Y-105741978D03*
X134010400Y-105241852D03*
X134010400Y-104741726D03*
X134010400Y-104241600D03*
%TD*%
D22*
%TO.C,REF\u002A\u002A*%
X162000000Y-112000000D03*
%TD*%
D27*
%TO.C,C43*%
X122196800Y-96672400D03*
X121236800Y-96672400D03*
%TD*%
D28*
%TO.C,L2*%
X137045700Y-110032800D03*
X132600700Y-110032800D03*
%TD*%
D21*
%TO.C,C19*%
X119077000Y-97840800D03*
X116127000Y-97840800D03*
%TD*%
D27*
%TO.C,C42*%
X160624800Y-102502000D03*
X159664800Y-102502000D03*
%TD*%
D29*
%TO.C,R30*%
X122631200Y-81050000D03*
X122631200Y-82550000D03*
%TD*%
D30*
%TO.C,U11*%
X152004800Y-84463200D03*
X152004800Y-85113200D03*
X152004800Y-85753200D03*
X152004800Y-86403200D03*
X154944800Y-86403200D03*
X154944800Y-85753200D03*
X154944800Y-85113200D03*
X154944800Y-84463200D03*
D31*
X153444800Y-83983200D03*
X153444800Y-86883200D03*
D32*
X153889800Y-85433200D03*
%TD*%
D33*
%TO.C,C53*%
X126113600Y-113004600D03*
X127073600Y-113004600D03*
%TD*%
D34*
%TO.C,C45*%
X135398189Y-98517389D03*
X136077011Y-99196211D03*
%TD*%
D35*
%TO.C,R28*%
X144792000Y-85394800D03*
X146292000Y-85394800D03*
%TD*%
D21*
%TO.C,C16*%
X119077000Y-91440000D03*
X116127000Y-91440000D03*
%TD*%
D30*
%TO.C,U16*%
X127203200Y-84429600D03*
X127203200Y-85079600D03*
X127203200Y-85719600D03*
X127203200Y-86369600D03*
X130143200Y-86369600D03*
X130143200Y-85719600D03*
X130143200Y-85079600D03*
X130143200Y-84429600D03*
D31*
X128643200Y-83949600D03*
X128643200Y-86849600D03*
D32*
X129088200Y-85399600D03*
%TD*%
D22*
%TO.C,REF\u002A\u002A*%
X116332000Y-77825600D03*
%TD*%
D23*
%TO.C,U10*%
X120741801Y-95504000D03*
X121391799Y-95504000D03*
X122041801Y-95504000D03*
X122691799Y-95504000D03*
X122691799Y-92557600D03*
X122041801Y-92557600D03*
X121391799Y-92557600D03*
X120741801Y-92557600D03*
D24*
X121716800Y-94030800D03*
%TD*%
D20*
%TO.C,C35*%
X145897600Y-94566800D03*
X145897600Y-95526800D03*
%TD*%
D36*
%TO.C,R13*%
X127963200Y-113004600D03*
X128983200Y-113004600D03*
%TD*%
%TO.C,R19*%
X159634800Y-97320400D03*
X160654800Y-97320400D03*
%TD*%
%TO.C,R38*%
X159634800Y-106299000D03*
X160654800Y-106299000D03*
%TD*%
D37*
%TO.C,U7*%
X124943200Y-99783600D03*
X124943200Y-98983600D03*
X124943200Y-98183600D03*
X124943200Y-97383600D03*
X124943200Y-96583600D03*
X124943200Y-95783600D03*
X124943200Y-94983600D03*
X124943200Y-94183600D03*
X124943200Y-93383600D03*
X124943200Y-92583600D03*
X125743200Y-99783600D03*
X125743200Y-98983600D03*
X125743200Y-98183600D03*
X125743200Y-97383600D03*
X125743200Y-96583600D03*
X125743200Y-95783600D03*
X125743200Y-94983600D03*
X125743200Y-94183600D03*
X125743200Y-93383600D03*
X125743200Y-92583600D03*
X126543200Y-99783600D03*
X126543200Y-98983600D03*
X126543200Y-98183600D03*
X126543200Y-97383600D03*
X126543200Y-96583600D03*
X126543200Y-95783600D03*
X126543200Y-94983600D03*
X126543200Y-94183600D03*
X126543200Y-93383600D03*
X126543200Y-92583600D03*
X127343200Y-99783600D03*
X127343200Y-98983600D03*
X127343200Y-98183600D03*
X127343200Y-97383600D03*
X127343200Y-96583600D03*
X127343200Y-95783600D03*
X127343200Y-94983600D03*
X127343200Y-94183600D03*
X127343200Y-93383600D03*
X127343200Y-92583600D03*
X128143200Y-99783600D03*
X128143200Y-98983600D03*
X128143200Y-98183600D03*
X128143200Y-97383600D03*
X128143200Y-96583600D03*
X128143200Y-95783600D03*
X128143200Y-94983600D03*
X128143200Y-94183600D03*
X128143200Y-93383600D03*
X128143200Y-92583600D03*
X128943200Y-99783600D03*
X128943200Y-98983600D03*
X128943200Y-98183600D03*
X128943200Y-97383600D03*
X128943200Y-96583600D03*
X128943200Y-95783600D03*
X128943200Y-94983600D03*
X128943200Y-94183600D03*
X128943200Y-93383600D03*
X128943200Y-92583600D03*
X129743200Y-99783600D03*
X129743200Y-98983600D03*
X129743200Y-98183600D03*
X129743200Y-97383600D03*
X129743200Y-96583600D03*
X129743200Y-95783600D03*
X129743200Y-94983600D03*
X129743200Y-94183600D03*
X129743200Y-93383600D03*
X129743200Y-92583600D03*
X130543200Y-99783600D03*
X130543200Y-98983600D03*
X130543200Y-98183600D03*
X130543200Y-97383600D03*
X130543200Y-96583600D03*
X130543200Y-95783600D03*
X130543200Y-94983600D03*
X130543200Y-94183600D03*
X130543200Y-93383600D03*
X130543200Y-92583600D03*
X131343200Y-99783600D03*
X131343200Y-98983600D03*
X131343200Y-98183600D03*
X131343200Y-97383600D03*
X131343200Y-96583600D03*
X131343200Y-95783600D03*
X131343200Y-94983600D03*
X131343200Y-94183600D03*
X131343200Y-93383600D03*
X131343200Y-92583600D03*
X132143200Y-99783600D03*
X132143200Y-98983600D03*
X132143200Y-98183600D03*
X132143200Y-97383600D03*
X132143200Y-96583600D03*
X132143200Y-95783600D03*
X132143200Y-94983600D03*
X132143200Y-94183600D03*
X132143200Y-93383600D03*
X132143200Y-92583600D03*
%TD*%
D36*
%TO.C,R37*%
X159634800Y-104407000D03*
X160654800Y-104407000D03*
%TD*%
D33*
%TO.C,C29*%
X161957600Y-105372200D03*
X162917600Y-105372200D03*
%TD*%
D38*
%TO.C,R29*%
X142228000Y-85410800D03*
X140728000Y-85410800D03*
%TD*%
D39*
%TO.C,U5*%
X123696800Y-105677500D03*
X123696800Y-106327500D03*
X123696800Y-106977500D03*
X123696800Y-107627500D03*
X126796800Y-107627500D03*
X126796800Y-106977500D03*
X126796800Y-106327500D03*
X126796800Y-105677500D03*
D40*
X125246800Y-106652500D03*
%TD*%
D41*
%TO.C,R39*%
X160654800Y-103441800D03*
X159634800Y-103441800D03*
%TD*%
D42*
%TO.C,S1*%
X157749400Y-104788000D03*
X153599400Y-104788000D03*
%TD*%
D30*
%TO.C,U15*%
X139413600Y-86393200D03*
X139413600Y-85743200D03*
X139413600Y-85103200D03*
X139413600Y-84453200D03*
X136473600Y-84453200D03*
X136473600Y-85103200D03*
X136473600Y-85743200D03*
X136473600Y-86393200D03*
D31*
X137973600Y-86873200D03*
X137973600Y-83973200D03*
D32*
X137528600Y-85423200D03*
%TD*%
D43*
%TO.C,U1*%
X125612500Y-109837500D03*
X125612500Y-110337500D03*
X125612500Y-110837500D03*
X125612500Y-111337500D03*
D44*
X126162500Y-111887500D03*
X126662500Y-111887500D03*
X127162500Y-111887500D03*
X127662500Y-111887500D03*
D43*
X128212500Y-111337500D03*
X128212500Y-110837500D03*
X128212500Y-110337500D03*
X128212500Y-109837500D03*
D44*
X127662500Y-109287500D03*
X127162500Y-109287500D03*
X126662500Y-109287500D03*
X126162500Y-109287500D03*
D45*
X126912500Y-110587500D03*
%TD*%
D46*
%TO.C,C8*%
X129032000Y-106123000D03*
X129032000Y-103173000D03*
%TD*%
D21*
%TO.C,C40*%
X119075200Y-88239600D03*
X116125200Y-88239600D03*
%TD*%
D20*
%TO.C,C55*%
X148793200Y-110111600D03*
X148793200Y-111071600D03*
%TD*%
D27*
%TO.C,C44*%
X160624800Y-105372200D03*
X159664800Y-105372200D03*
%TD*%
D46*
%TO.C,C6*%
X151282400Y-97690200D03*
X151282400Y-94740200D03*
%TD*%
D47*
%TO.C,R12*%
X150723600Y-110081600D03*
X150723600Y-111101600D03*
%TD*%
D30*
%TO.C,U13*%
X147606400Y-84463200D03*
X147606400Y-85113200D03*
X147606400Y-85753200D03*
X147606400Y-86403200D03*
X150546400Y-86403200D03*
X150546400Y-85753200D03*
X150546400Y-85113200D03*
X150546400Y-84463200D03*
D31*
X149046400Y-83983200D03*
X149046400Y-86883200D03*
D32*
X149491400Y-85433200D03*
%TD*%
D48*
%TO.C,C22*%
X144983200Y-95526800D03*
X144983200Y-94566800D03*
%TD*%
D30*
%TO.C,U14*%
X135015600Y-86380800D03*
X135015600Y-85730800D03*
X135015600Y-85090800D03*
X135015600Y-84440800D03*
X132075600Y-84440800D03*
X132075600Y-85090800D03*
X132075600Y-85730800D03*
X132075600Y-86380800D03*
D31*
X133575600Y-86860800D03*
X133575600Y-83960800D03*
D32*
X133130600Y-85410800D03*
%TD*%
D46*
%TO.C,C5*%
X136550400Y-105615000D03*
X136550400Y-102665000D03*
%TD*%
D21*
%TO.C,C18*%
X119073400Y-94640400D03*
X116123400Y-94640400D03*
%TD*%
D33*
%TO.C,C21*%
X144960400Y-96418400D03*
X145920400Y-96418400D03*
%TD*%
D49*
%TO.C,U8*%
X142777690Y-95374955D03*
X142424136Y-95021401D03*
X142070583Y-94667848D03*
X141717029Y-94314295D03*
X141363476Y-93960741D03*
X141009923Y-93607188D03*
X140656369Y-93253635D03*
X140302816Y-92900081D03*
X139949263Y-92546528D03*
X139595709Y-92192974D03*
D50*
X138626973Y-92192974D03*
X138273419Y-92546528D03*
X137919866Y-92900081D03*
X137566313Y-93253635D03*
X137212759Y-93607188D03*
X136859206Y-93960741D03*
X136505653Y-94314295D03*
X136152099Y-94667848D03*
X135798546Y-95021401D03*
X135444992Y-95374955D03*
D49*
X135444992Y-96343691D03*
X135798546Y-96697245D03*
X136152099Y-97050798D03*
X136505653Y-97404351D03*
X136859206Y-97757905D03*
X137212759Y-98111458D03*
X137566313Y-98465011D03*
X137919866Y-98818565D03*
X138273419Y-99172118D03*
X138626973Y-99525672D03*
D50*
X139595709Y-99525672D03*
X139949263Y-99172118D03*
X140302816Y-98818565D03*
X140656369Y-98465011D03*
X141009923Y-98111458D03*
X141363476Y-97757905D03*
X141717029Y-97404351D03*
X142070583Y-97050798D03*
X142424136Y-96697245D03*
X142777690Y-96343691D03*
D51*
X139111341Y-95859323D03*
%TD*%
D21*
%TO.C,C31*%
X119077000Y-81838800D03*
X116127000Y-81838800D03*
%TD*%
D52*
%TO.C,S2*%
X153576200Y-112166400D03*
X157726200Y-112166400D03*
%TD*%
D36*
%TO.C,R18*%
X121222801Y-91389200D03*
X122242801Y-91389200D03*
%TD*%
D53*
%TO.C,USB1*%
X120032800Y-107644800D03*
X120032800Y-106844800D03*
D54*
X120032800Y-106194800D03*
X120032800Y-105694800D03*
X120032800Y-105194800D03*
X120032800Y-104694800D03*
X120032800Y-104194800D03*
X120032800Y-103694800D03*
X120032800Y-103194800D03*
X120032800Y-102694800D03*
D53*
X120032800Y-102044800D03*
X120032800Y-101244800D03*
D55*
X115282800Y-108764800D03*
X115282800Y-100124800D03*
D56*
X119462800Y-100124800D03*
X119462800Y-108764800D03*
D57*
X118962800Y-107334800D03*
X118962800Y-101554800D03*
%TD*%
D58*
%TO.C,L1*%
X146507200Y-100108000D03*
X146507200Y-105543600D03*
%TD*%
D30*
%TO.C,U17*%
X122790000Y-84429600D03*
X122790000Y-85079600D03*
X122790000Y-85719600D03*
X122790000Y-86369600D03*
X125730000Y-86369600D03*
X125730000Y-85719600D03*
X125730000Y-85079600D03*
X125730000Y-84429600D03*
D31*
X124230000Y-83949600D03*
X124230000Y-86849600D03*
D32*
X124675000Y-85399600D03*
%TD*%
D59*
%TO.C,U2*%
X147457201Y-109812500D03*
X146507200Y-109812500D03*
X145557199Y-109812500D03*
X145557199Y-112568400D03*
X146507200Y-112568400D03*
X147457201Y-112568400D03*
%TD*%
D33*
%TO.C,C56*%
X161957600Y-106299000D03*
X162917600Y-106299000D03*
%TD*%
D60*
%TO.C,R35*%
X149758400Y-111101600D03*
X149758400Y-110081600D03*
%TD*%
D25*
%TO.C,C24*%
X148031200Y-94740200D03*
X148031200Y-97690200D03*
%TD*%
D48*
%TO.C,C36*%
X131165600Y-104823200D03*
X131165600Y-103863200D03*
%TD*%
D22*
%TO.C,REF\u002A\u002A*%
X117000000Y-112000000D03*
%TD*%
M02*
