%TF.GenerationSoftware,KiCad,Pcbnew,9.0.1*%
%TF.CreationDate,2025-05-02T15:06:27-04:00*%
%TF.ProjectId,main_board,6d61696e-5f62-46f6-9172-642e6b696361,rev?*%
%TF.SameCoordinates,Original*%
%TF.FileFunction,Copper,L3,Inr*%
%TF.FilePolarity,Positive*%
%FSLAX46Y46*%
G04 Gerber Fmt 4.6, Leading zero omitted, Abs format (unit mm)*
G04 Created by KiCad (PCBNEW 9.0.1) date 2025-05-02 15:06:27*
%MOMM*%
%LPD*%
G01*
G04 APERTURE LIST*
%TA.AperFunction,ComponentPad*%
%ADD10C,3.800000*%
%TD*%
%TA.AperFunction,ComponentPad*%
%ADD11C,1.700000*%
%TD*%
%TA.AperFunction,ComponentPad*%
%ADD12C,0.600000*%
%TD*%
%TA.AperFunction,ComponentPad*%
%ADD13O,1.900000X1.000000*%
%TD*%
%TA.AperFunction,ComponentPad*%
%ADD14O,1.600000X1.000000*%
%TD*%
%TA.AperFunction,ComponentPad*%
%ADD15C,2.300000*%
%TD*%
%TA.AperFunction,ViaPad*%
%ADD16C,0.400000*%
%TD*%
%TA.AperFunction,ViaPad*%
%ADD17C,1.000000*%
%TD*%
%TA.AperFunction,ViaPad*%
%ADD18C,0.500000*%
%TD*%
%TA.AperFunction,ViaPad*%
%ADD19C,0.350000*%
%TD*%
%TA.AperFunction,Conductor*%
%ADD20C,0.100000*%
%TD*%
%TA.AperFunction,Conductor*%
%ADD21C,0.203200*%
%TD*%
%TA.AperFunction,Conductor*%
%ADD22C,0.127000*%
%TD*%
G04 APERTURE END LIST*
D10*
%TO.N,N/C*%
%TO.C,REF\u002A\u002A*%
X161000000Y-72500000D03*
%TD*%
%TO.N,N/C*%
%TO.C,REF\u002A\u002A*%
X161000000Y-112000000D03*
%TD*%
%TO.N,N/C*%
%TO.C,REF\u002A\u002A*%
X96000000Y-84000000D03*
%TD*%
D11*
%TO.N,GND*%
%TO.C,CN1*%
X157073600Y-81584800D03*
X157073600Y-86664800D03*
%TO.N,+12V*%
X159613600Y-81584800D03*
X159613600Y-86664800D03*
%TD*%
D10*
%TO.N,N/C*%
%TO.C,REF\u002A\u002A*%
X117000000Y-112000000D03*
%TD*%
D12*
%TO.N,*%
%TO.C,USB1*%
X118962800Y-101554800D03*
X118962800Y-107334800D03*
D13*
%TO.N,GND*%
X119462800Y-100124800D03*
X119462800Y-108764800D03*
D14*
X115282800Y-108764800D03*
X115282800Y-100124800D03*
%TD*%
D15*
%TO.N,/Motor/Gate Driver/H_BRIDGE_SHC*%
%TO.C,CN3*%
X142086000Y-77988800D03*
X144586000Y-72988800D03*
%TO.N,/Motor/Gate Driver/H_BRIDGE_SHB*%
X147086000Y-77988800D03*
X149586000Y-72988800D03*
%TO.N,/Motor/Gate Driver/H_BRIDGE_SHA*%
X152086000Y-77988800D03*
X154586000Y-72988800D03*
%TD*%
D16*
%TO.N,*%
X126187200Y-100380800D03*
%TO.N,+3V3*%
X127343200Y-94983600D03*
X136753600Y-113385600D03*
X139598400Y-106680000D03*
X139192000Y-113385600D03*
X120091200Y-74371200D03*
X131343199Y-96583601D03*
X134518400Y-99568000D03*
X161544000Y-96520000D03*
X138379200Y-104241600D03*
X161544000Y-97739200D03*
X137160000Y-104241600D03*
X161950400Y-102819200D03*
X133908800Y-98958400D03*
X161950400Y-104648000D03*
X139801600Y-111556800D03*
X138582400Y-113385600D03*
X118872000Y-74980800D03*
X138988800Y-105460800D03*
X139192000Y-111556800D03*
X125984000Y-113995200D03*
X138379200Y-106680000D03*
X137363200Y-113385600D03*
X133908800Y-99568000D03*
X121310400Y-74371200D03*
X127736600Y-93776800D03*
X138379200Y-104851200D03*
X139598400Y-105460800D03*
X137363200Y-113995200D03*
X121920000Y-74980800D03*
X128943200Y-94983600D03*
X138988800Y-104241600D03*
X138988800Y-106680000D03*
X118872000Y-74371200D03*
X138988800Y-104851200D03*
X128549400Y-93776800D03*
X136753600Y-113995200D03*
X139192000Y-113995200D03*
X120700800Y-74980800D03*
X134518400Y-98958400D03*
X159634800Y-106299000D03*
X138379200Y-106070400D03*
X121310400Y-74980800D03*
X136550400Y-104241600D03*
X139598400Y-104851200D03*
X160654800Y-103441800D03*
X122155799Y-96672400D03*
X127343202Y-98183600D03*
X161950400Y-104038400D03*
X135940800Y-104241600D03*
X137972800Y-113995200D03*
X127343200Y-96583600D03*
X125374400Y-113995200D03*
X125374400Y-113385600D03*
X122936000Y-96723200D03*
X128943200Y-96583600D03*
D17*
X161899600Y-107696000D03*
D16*
X139598400Y-104241600D03*
X119481600Y-74371200D03*
X160624800Y-102502000D03*
X120700800Y-74371200D03*
X119481600Y-74980800D03*
X121920000Y-74371200D03*
X138582400Y-111556800D03*
X138988800Y-106070400D03*
X161950400Y-103428800D03*
X139801600Y-113995200D03*
X139598400Y-106070400D03*
X120091200Y-74980800D03*
X123139200Y-92659200D03*
X138379200Y-105460800D03*
X161544000Y-97129600D03*
X161544000Y-95910400D03*
X123545600Y-96723200D03*
X137972800Y-113385600D03*
X124053600Y-96723200D03*
X137769600Y-104241600D03*
X126162216Y-93783600D03*
X161950400Y-102209600D03*
X139801600Y-113385600D03*
X138582400Y-113995200D03*
%TO.N,GND*%
X134924800Y-73558400D03*
X116230400Y-102006400D03*
X116230400Y-106070400D03*
X119278400Y-81483200D03*
X116230400Y-83108800D03*
X134315200Y-74168000D03*
X163169600Y-86360000D03*
X134315200Y-74777600D03*
X131064000Y-73777200D03*
X123748800Y-73777200D03*
X115417600Y-103632000D03*
X153822400Y-95910400D03*
X151993600Y-96520000D03*
X163169600Y-88188800D03*
X134721600Y-102006400D03*
X145999200Y-82499200D03*
X142240000Y-113588800D03*
X117856000Y-108508800D03*
X142341600Y-81889600D03*
X142951200Y-82499200D03*
X132892800Y-103225600D03*
X134924800Y-72948800D03*
X116230400Y-101193600D03*
X132994400Y-94386400D03*
X128625600Y-102006400D03*
X114604800Y-103632000D03*
X127000000Y-73777200D03*
X116230400Y-88696800D03*
X147828000Y-82499200D03*
X115417600Y-106070400D03*
X122481627Y-111991270D03*
X115787200Y-73417600D03*
X116230400Y-96621600D03*
X140512800Y-82499200D03*
X138379200Y-96926400D03*
X116230400Y-78740000D03*
X139903200Y-82499200D03*
D18*
X115011200Y-91846400D03*
D16*
X116230400Y-96012000D03*
X138379200Y-96113600D03*
X116230400Y-97231200D03*
X143459200Y-113588800D03*
X134112000Y-102006400D03*
X115417600Y-102819200D03*
D18*
X115011200Y-85953600D03*
D16*
X142951200Y-85547200D03*
D17*
X154049600Y-101846000D03*
D16*
X121716800Y-81483200D03*
X119888000Y-80264000D03*
X143560800Y-84328000D03*
X129438400Y-72558000D03*
D17*
X156849600Y-99046000D03*
D16*
X145389600Y-81889600D03*
X117043200Y-107696000D03*
X162966400Y-104648000D03*
X122123200Y-72558000D03*
D18*
X115011200Y-95097600D03*
D16*
X142036800Y-85445600D03*
X119278400Y-80873600D03*
X117856000Y-102006400D03*
X122936000Y-73167600D03*
X117043200Y-101193600D03*
X137160000Y-101396800D03*
X144484431Y-85543501D03*
X122123200Y-73777200D03*
X137566400Y-96926400D03*
X134315200Y-72339200D03*
D17*
X163169600Y-107696000D03*
D16*
X128943200Y-95783600D03*
D18*
X115011200Y-88595200D03*
D16*
X142951200Y-81889600D03*
X139192000Y-96926400D03*
X143560800Y-82499200D03*
X121804989Y-111995011D03*
X136550400Y-103632000D03*
X133502400Y-73777200D03*
X131064000Y-102006400D03*
X145694400Y-111556800D03*
X131876800Y-73167600D03*
X119747600Y-83921600D03*
X128981200Y-113995200D03*
X153212800Y-95910400D03*
D18*
X115011200Y-84734400D03*
D16*
X144068800Y-113588800D03*
X116230400Y-88087200D03*
X144780000Y-82499200D03*
X116230400Y-92354400D03*
X134924800Y-74777600D03*
X151993600Y-95910400D03*
X124561600Y-73777200D03*
X163169600Y-86969600D03*
X131673600Y-102006400D03*
X142951200Y-86156800D03*
X115417600Y-105257600D03*
X129438400Y-73167600D03*
X123748800Y-73167600D03*
X127000000Y-72558000D03*
X117043200Y-105257600D03*
X118262400Y-74168000D03*
X162966400Y-104038400D03*
X120497600Y-80873600D03*
D18*
X135128000Y-103558400D03*
D16*
X145999200Y-83108800D03*
X117856000Y-103632000D03*
D18*
X115011200Y-94488000D03*
D16*
X142849600Y-111556800D03*
X127073600Y-113995200D03*
X119888000Y-80873600D03*
D18*
X115011200Y-82804000D03*
D16*
X145694400Y-110947200D03*
D18*
X115011200Y-97739200D03*
D16*
X127343200Y-95783600D03*
X132283200Y-102006400D03*
X143560800Y-84937600D03*
X128625600Y-73777200D03*
D18*
X115011200Y-78435200D03*
D16*
X125374400Y-72558000D03*
D18*
X115011200Y-87985600D03*
D16*
X129438400Y-73777200D03*
X116230400Y-89916000D03*
X116230400Y-83820000D03*
X154432000Y-94691200D03*
X116230400Y-95402400D03*
X141732000Y-82499200D03*
X163169600Y-88696800D03*
D18*
X115011200Y-84124800D03*
D16*
X146608800Y-83108800D03*
X162966400Y-103428800D03*
X145389600Y-83108800D03*
X122936000Y-72558000D03*
X132410200Y-105741978D03*
X114604800Y-106883200D03*
X141020800Y-110947200D03*
X130251200Y-73777200D03*
X131064000Y-103225600D03*
X133502400Y-102616000D03*
D18*
X115011200Y-95707200D03*
D16*
X147218400Y-83108800D03*
X117043200Y-108508800D03*
X116230400Y-78130400D03*
X116230400Y-85648800D03*
X141732000Y-83108800D03*
D18*
X115011200Y-92456000D03*
D16*
X151384000Y-95910400D03*
X143560800Y-83718400D03*
X153822400Y-95300800D03*
X117652800Y-73558400D03*
X121107200Y-81483200D03*
X144170400Y-82499200D03*
X145084800Y-111556800D03*
X145084800Y-110947200D03*
D17*
X155449600Y-99046000D03*
D16*
X128143200Y-96583600D03*
X117856000Y-101193600D03*
X117856000Y-100380800D03*
X115417600Y-102006400D03*
X128016000Y-101396800D03*
X123317500Y-111996798D03*
X141020800Y-113588800D03*
X142849600Y-110947200D03*
D18*
X115011200Y-89204800D03*
D16*
X131064000Y-101396800D03*
X117856000Y-109321600D03*
D18*
X120497600Y-91948000D03*
X115011200Y-97129600D03*
D16*
X132689600Y-73167600D03*
X116230400Y-94792800D03*
X124561600Y-73167600D03*
X143560800Y-86766400D03*
X149758400Y-109321600D03*
X142849600Y-113588800D03*
X122936000Y-73777200D03*
X146304000Y-110947200D03*
X116230400Y-93573600D03*
X116230400Y-79349600D03*
X116230400Y-98450400D03*
X142951200Y-87376000D03*
X131064000Y-72558000D03*
D18*
X115011200Y-98348800D03*
D16*
X130251200Y-72558000D03*
X134112000Y-101396800D03*
D18*
X115011200Y-79654400D03*
D16*
X114604800Y-102819200D03*
D18*
X115011200Y-82194400D03*
X115011200Y-91236800D03*
D16*
X121107200Y-80873600D03*
X160674000Y-104407000D03*
X116230400Y-87477600D03*
D17*
X155449600Y-101846000D03*
D16*
X134315200Y-73558400D03*
X120497600Y-81483200D03*
X131876800Y-73777200D03*
X131673600Y-103225600D03*
X154432000Y-96520000D03*
X153599400Y-104788000D03*
X126187200Y-72558000D03*
X116230400Y-106883200D03*
X127400000Y-111100000D03*
X134721600Y-102616000D03*
X133502400Y-103225600D03*
X116230400Y-102819200D03*
X127000000Y-73167600D03*
X117043200Y-109321600D03*
X116230400Y-92964000D03*
X132143200Y-97383600D03*
X133502400Y-73167600D03*
X114604800Y-102006400D03*
X117830273Y-105270493D03*
X144170400Y-81889600D03*
X142951200Y-86766400D03*
X144071476Y-113027042D03*
X140411200Y-113588800D03*
X150164800Y-95910400D03*
X134315200Y-72948800D03*
D18*
X160957600Y-100368400D03*
D16*
X138379200Y-97739200D03*
X116230400Y-90525600D03*
X143560800Y-86156800D03*
X133502400Y-72558000D03*
X142240000Y-111556800D03*
X147828000Y-81889600D03*
X115417600Y-106883200D03*
X121195799Y-96672400D03*
X152603200Y-96520000D03*
X133502400Y-102006400D03*
X141732000Y-81889600D03*
X115417600Y-104444800D03*
D19*
X135432800Y-99771200D03*
D16*
X116230400Y-97840800D03*
X134924800Y-74168000D03*
X146304000Y-111556800D03*
D17*
X156849600Y-101846000D03*
D16*
X137769600Y-103632000D03*
X123748800Y-72558000D03*
X117652800Y-74168000D03*
X138785600Y-97332800D03*
D18*
X115011200Y-80975200D03*
D16*
X132283200Y-102616000D03*
X116230400Y-77520800D03*
D19*
X136077011Y-99196211D03*
D16*
X117043200Y-102819200D03*
X118262400Y-74777600D03*
X126400000Y-110100000D03*
X116230400Y-86258400D03*
X121716800Y-80873600D03*
X163169600Y-87579200D03*
X121716800Y-80264000D03*
X139903200Y-83108800D03*
X117043200Y-99771200D03*
X116230400Y-91135200D03*
D18*
X160957600Y-99555600D03*
D16*
X116230400Y-99060000D03*
D18*
X120862999Y-93624400D03*
D16*
X142341600Y-83108800D03*
D18*
X159332000Y-99555600D03*
D16*
X154432000Y-95910400D03*
X150774400Y-95910400D03*
X134112000Y-102616000D03*
X132994400Y-94996000D03*
X116230400Y-84429600D03*
X159664800Y-102502000D03*
X144170400Y-83108800D03*
X125374400Y-73777200D03*
X114604800Y-104444800D03*
X117043200Y-104444800D03*
X116226141Y-89296198D03*
X116230400Y-107696000D03*
X132689600Y-73777200D03*
X130454400Y-102006400D03*
X140645748Y-90463119D03*
D18*
X115011200Y-90627200D03*
D17*
X154049600Y-99046000D03*
D16*
X140411200Y-110947200D03*
X116230400Y-80670400D03*
X142951200Y-84937600D03*
X144678400Y-113588800D03*
X114604800Y-101193600D03*
X117043200Y-103632000D03*
X117856000Y-99771200D03*
X121107200Y-80264000D03*
X117652800Y-72339200D03*
D18*
X122488599Y-94437200D03*
D16*
X127812800Y-73777200D03*
D18*
X121675799Y-94030800D03*
D16*
X124561600Y-72558000D03*
X118262400Y-72339200D03*
X132283200Y-103225600D03*
X142951200Y-83718400D03*
X137160000Y-103632000D03*
D18*
X115011200Y-98958400D03*
D16*
X116230400Y-79959200D03*
X118262400Y-72948800D03*
X137769600Y-101396800D03*
X143462633Y-113027042D03*
X117856000Y-107696000D03*
X154424572Y-95295195D03*
D18*
X115011200Y-77825600D03*
X115011200Y-79044800D03*
D16*
X129844800Y-101396800D03*
D18*
X159332000Y-100368400D03*
D16*
X117043200Y-100380800D03*
X122123200Y-73167600D03*
X141630400Y-113588800D03*
X142240000Y-110947200D03*
X129235200Y-101396800D03*
X137972800Y-96520000D03*
X115417600Y-107696000D03*
X119278400Y-80264000D03*
X159664800Y-105372200D03*
X127812800Y-72558000D03*
X141020800Y-111556800D03*
X117043200Y-102006400D03*
X144678400Y-113027042D03*
X114604800Y-105257600D03*
X128143200Y-95783600D03*
X131673600Y-102616000D03*
X119888000Y-81483200D03*
X141122400Y-81889600D03*
X116230400Y-85039200D03*
X146608800Y-82499200D03*
X116230400Y-81280000D03*
X149555200Y-95910400D03*
X130454400Y-101396800D03*
X147828000Y-83108800D03*
X120497600Y-80264000D03*
X133502400Y-101396800D03*
X128625600Y-72558000D03*
X116230400Y-81889600D03*
X142341600Y-82499200D03*
X117652800Y-72948800D03*
X136550400Y-101396800D03*
X131064000Y-73167600D03*
X137972800Y-95707200D03*
X131673600Y-101396800D03*
X117856000Y-106070400D03*
D18*
X122488599Y-93624400D03*
D16*
X143560800Y-81889600D03*
D18*
X115011200Y-85344000D03*
D16*
X153822400Y-96520000D03*
X117652800Y-74777600D03*
X157116600Y-112166400D03*
X142951200Y-84328000D03*
X135940800Y-103632000D03*
X136587200Y-73417600D03*
X116230400Y-82499200D03*
X126187200Y-73777200D03*
X143560800Y-85547200D03*
X117791706Y-104423267D03*
X162966400Y-102209600D03*
X151384000Y-96520000D03*
X116230400Y-91744800D03*
D17*
X156849600Y-100446000D03*
D18*
X115011200Y-87376000D03*
D16*
X117856000Y-106883200D03*
X153822400Y-94691200D03*
X128625600Y-101396800D03*
X129844800Y-102006400D03*
X150164800Y-96520000D03*
X116230400Y-94183200D03*
X145999200Y-81889600D03*
X127343200Y-98983600D03*
D17*
X155449600Y-100446000D03*
D16*
X138785600Y-96520000D03*
X146913600Y-110914062D03*
X114604800Y-106070400D03*
X163169600Y-90196000D03*
D18*
X115011200Y-93878400D03*
D17*
X154049600Y-100446000D03*
D18*
X115011200Y-81584800D03*
D16*
X132892800Y-102616000D03*
D18*
X160165001Y-99911200D03*
D16*
X127812800Y-73167600D03*
X135331200Y-101396800D03*
X147218400Y-81889600D03*
X126400000Y-111100000D03*
X144780000Y-83108800D03*
X132283200Y-101396800D03*
X118262400Y-73558400D03*
X133577236Y-93731227D03*
X117043200Y-106883200D03*
X116230400Y-86868000D03*
X117043200Y-106070400D03*
X141122400Y-82499200D03*
X150774400Y-96520000D03*
X144780000Y-81889600D03*
X132892800Y-101396800D03*
X128625600Y-73167600D03*
X153212800Y-96520000D03*
X116230400Y-104444800D03*
X127400000Y-110100000D03*
X129235200Y-102006400D03*
X117856000Y-102819200D03*
X137566400Y-95300800D03*
X134924800Y-72339200D03*
X153212800Y-94691200D03*
X115417600Y-101193600D03*
X141122400Y-83108800D03*
X131876800Y-72558000D03*
X126900000Y-110600000D03*
X135940800Y-101396800D03*
X132689600Y-72558000D03*
X116230400Y-105257600D03*
X132892800Y-102006400D03*
X137972800Y-97332800D03*
X128016000Y-102006400D03*
D18*
X147457201Y-109812498D03*
D16*
X147218400Y-82499200D03*
X134112000Y-103225600D03*
X131064000Y-102616000D03*
X143560800Y-83108800D03*
X128143200Y-94983600D03*
X152603200Y-95910400D03*
X145389600Y-82499200D03*
X114604800Y-107696000D03*
X125374400Y-73167600D03*
X142951200Y-83108800D03*
X153212800Y-95300800D03*
X140512800Y-83108800D03*
X116230400Y-103632000D03*
X140411200Y-111556800D03*
X126187200Y-73167600D03*
D18*
X120862999Y-94437200D03*
D16*
X137668000Y-90932000D03*
X130251200Y-73167600D03*
X162966400Y-102819200D03*
X134721600Y-101396800D03*
X146608800Y-81889600D03*
%TO.N,+12V*%
X153009600Y-98958400D03*
X153009600Y-102616000D03*
X152400000Y-102006400D03*
X153009600Y-100177600D03*
X151790400Y-98958400D03*
X151790400Y-100177600D03*
X152400000Y-100787200D03*
X151790400Y-100787200D03*
X151790400Y-101396800D03*
X151949100Y-102616000D03*
X152400000Y-102616000D03*
X153009600Y-100787200D03*
X153009600Y-99568000D03*
X152400000Y-101396800D03*
X152400000Y-98958400D03*
X153009600Y-102006400D03*
X153009600Y-101396800D03*
X151790400Y-99568000D03*
X151790400Y-102006400D03*
X152400000Y-100177600D03*
X152400000Y-99568000D03*
%TO.N,VBUS*%
X131673600Y-85177200D03*
X156667200Y-78841600D03*
X128422400Y-85173200D03*
X122529600Y-99161600D03*
X128016000Y-87782400D03*
X146812000Y-93675200D03*
X123139200Y-100990400D03*
X130454400Y-107289600D03*
X121310400Y-99771200D03*
X158496000Y-80670400D03*
X144068800Y-92456000D03*
X124358400Y-102209600D03*
X144678400Y-108712000D03*
X155448000Y-77622400D03*
X133502400Y-87782400D03*
X132283200Y-89001600D03*
X132283200Y-87782400D03*
X132283200Y-88392000D03*
X148640800Y-93675200D03*
X124358400Y-103428800D03*
X132181600Y-86461600D03*
D17*
X118113600Y-85039200D03*
D16*
X121716800Y-77216000D03*
X128483600Y-86998000D03*
X158496000Y-79451200D03*
X131673600Y-83921600D03*
X141630400Y-106070400D03*
X140411200Y-106680000D03*
X154838400Y-85663200D03*
X123748800Y-100990400D03*
D17*
X118113600Y-81838800D03*
D16*
X156057600Y-79451200D03*
X156667200Y-75793600D03*
X123139200Y-102819200D03*
X154838400Y-79451200D03*
X148031200Y-92456000D03*
X157886400Y-77622400D03*
X126796800Y-100990400D03*
X123748800Y-103428800D03*
X124968000Y-100380800D03*
X133197600Y-85177200D03*
X120497600Y-79654400D03*
X119278400Y-77825600D03*
X124358400Y-102819200D03*
X157886400Y-75793600D03*
X120700800Y-98552000D03*
X129438400Y-84523200D03*
X154838400Y-78841600D03*
X124968000Y-102209600D03*
X132181600Y-84527200D03*
X154838400Y-80060800D03*
X121107200Y-79654400D03*
X154228800Y-78841600D03*
X129946400Y-85797200D03*
X141020800Y-106680000D03*
X130454400Y-87782400D03*
X128016000Y-88392000D03*
D17*
X118111800Y-91440000D03*
D16*
X132689600Y-85177200D03*
X124968000Y-104648000D03*
X120700800Y-99161600D03*
X129946400Y-86457600D03*
D17*
X118110000Y-78638400D03*
D16*
X141020800Y-107289600D03*
X128625600Y-89001600D03*
X130454400Y-109524800D03*
X131064000Y-88392000D03*
X141020800Y-108712000D03*
X143459200Y-109321600D03*
X154330400Y-86323600D03*
X120497600Y-78435200D03*
X119278400Y-79654400D03*
X156057600Y-80060800D03*
X130454400Y-83921600D03*
X154330400Y-85039200D03*
X121107200Y-79044800D03*
X129844800Y-88392000D03*
X128422400Y-85797200D03*
X144068800Y-93065600D03*
X154228800Y-79451200D03*
X153619200Y-80670400D03*
X144678400Y-109321600D03*
X123748800Y-101600000D03*
X123139200Y-101600000D03*
X122529600Y-98552000D03*
X149250400Y-92456000D03*
X148031200Y-93675200D03*
X126796800Y-101600000D03*
X153619200Y-81889600D03*
X124358400Y-101600000D03*
X123139200Y-100380800D03*
X154838400Y-85039200D03*
X157886400Y-80060800D03*
X157886400Y-80670400D03*
X125577600Y-101600000D03*
X128930400Y-86457600D03*
X158496000Y-75793600D03*
X156057600Y-80670400D03*
X156057600Y-78841600D03*
X157276800Y-77012800D03*
X155448000Y-80670400D03*
X132689600Y-86461600D03*
X157886400Y-75184000D03*
X131165600Y-84582000D03*
X132892800Y-88392000D03*
X155346400Y-84444000D03*
X142849600Y-106680000D03*
X153619200Y-81280000D03*
X132181600Y-85801200D03*
X147421600Y-93065600D03*
X132283200Y-83921600D03*
X128930400Y-85173200D03*
X156667200Y-74574400D03*
X120497600Y-77216000D03*
X121920000Y-98552000D03*
X132689600Y-85801200D03*
X154838400Y-80670400D03*
X131165600Y-85856000D03*
X129844800Y-107289600D03*
X123139200Y-97942400D03*
X130454400Y-88392000D03*
X126187200Y-102209600D03*
X147421600Y-92456000D03*
X119278400Y-77216000D03*
X157276800Y-76403200D03*
X126187200Y-101600000D03*
X142849600Y-106070400D03*
X141630400Y-107289600D03*
X153314400Y-85663200D03*
X129235200Y-107696000D03*
X131064000Y-107289600D03*
X131165600Y-86516400D03*
X120091200Y-99161600D03*
X155448000Y-79451200D03*
X140411200Y-107289600D03*
X156057600Y-77012800D03*
X127406400Y-107696000D03*
X128930400Y-84523200D03*
X126187200Y-100990400D03*
X129235200Y-88392000D03*
X124358400Y-97942400D03*
X129438400Y-85173200D03*
X144068800Y-108696000D03*
X124968000Y-100990400D03*
X128625600Y-88392000D03*
X133136400Y-86977600D03*
X133197600Y-85801200D03*
X123139200Y-98552000D03*
X121107200Y-77216000D03*
D17*
X118111800Y-94640400D03*
D16*
X126796800Y-104038400D03*
X130454400Y-87172800D03*
X128016000Y-89001600D03*
X158496000Y-76403200D03*
X155448000Y-78232000D03*
X153822400Y-85663200D03*
X121310400Y-100380800D03*
X155448000Y-80060800D03*
X125577600Y-104038400D03*
X123139200Y-103428800D03*
X156057600Y-75184000D03*
X123748800Y-104648000D03*
X157276800Y-77622400D03*
X119888000Y-78435200D03*
X153314400Y-86323600D03*
X156667200Y-76403200D03*
X126187200Y-104648000D03*
X128422400Y-84523200D03*
X155346400Y-86378400D03*
X121716800Y-79044800D03*
X126187200Y-107696000D03*
X157276800Y-75184000D03*
X157886400Y-78841600D03*
X154838400Y-86323600D03*
X124968000Y-103428800D03*
X132689600Y-84527200D03*
X124358400Y-100380800D03*
X126796800Y-103428800D03*
X128483600Y-84098000D03*
X142240000Y-106680000D03*
X156057600Y-78232000D03*
X121107200Y-77825600D03*
X123748800Y-104038400D03*
X131673600Y-87782400D03*
X129844800Y-87782400D03*
X133197600Y-84527200D03*
X126796800Y-105257600D03*
X157276800Y-80060800D03*
X124968000Y-104038400D03*
X143459200Y-92456000D03*
X123748800Y-102209600D03*
X122529600Y-97942400D03*
X154838400Y-77622400D03*
X132283200Y-87172800D03*
X128930400Y-85797200D03*
X121920000Y-100990400D03*
X129235200Y-83921600D03*
X126187200Y-105257600D03*
X123139200Y-104038400D03*
X156057600Y-76403200D03*
X157276800Y-78841600D03*
X129844800Y-108305600D03*
X158496000Y-77012800D03*
X125577600Y-104648000D03*
X125577600Y-100380800D03*
X154228800Y-80060800D03*
X155448000Y-77012800D03*
X143459200Y-93675200D03*
X153822400Y-85039200D03*
X157276800Y-78232000D03*
X120497600Y-79044800D03*
D17*
X118111800Y-88239600D03*
D16*
X156667200Y-75184000D03*
X142849600Y-92456000D03*
X154838400Y-81280000D03*
X119278400Y-79044800D03*
X126796800Y-102819200D03*
X121920000Y-99161600D03*
X123748800Y-102819200D03*
X131673600Y-89001600D03*
X124968000Y-102819200D03*
X158496000Y-78232000D03*
X126187200Y-102819200D03*
X132181600Y-85177200D03*
X121107200Y-78435200D03*
X144068800Y-109321600D03*
X156057600Y-75793600D03*
X153314400Y-84389200D03*
X157886400Y-76403200D03*
X142849600Y-107289600D03*
X149250400Y-93675200D03*
X156667200Y-77622400D03*
X121310400Y-100990400D03*
X146812000Y-92456000D03*
X142240000Y-106070400D03*
X128422400Y-86457600D03*
X146812000Y-93065600D03*
X153619200Y-80060800D03*
X132892800Y-89001600D03*
X154838400Y-81889600D03*
X153009600Y-80670400D03*
X143459200Y-108712000D03*
X125577600Y-102819200D03*
X122529600Y-100990400D03*
X157886400Y-77012800D03*
X122529600Y-99771200D03*
X130454400Y-85852000D03*
X154228800Y-81280000D03*
X155448000Y-81889600D03*
X123139200Y-99771200D03*
X125577600Y-102209600D03*
X123748800Y-99771200D03*
X123748800Y-99161600D03*
X121920000Y-100380800D03*
X154330400Y-84389200D03*
X155448000Y-81280000D03*
X155346400Y-85718000D03*
X119278400Y-78435200D03*
X141630400Y-108712000D03*
X140411200Y-108712000D03*
X154330400Y-85663200D03*
X133197600Y-86461600D03*
X121920000Y-97942400D03*
X129946400Y-85173200D03*
X149250400Y-93065600D03*
X148640800Y-92456000D03*
X157276800Y-79451200D03*
X133502400Y-88392000D03*
X119888000Y-77825600D03*
X119888000Y-77216000D03*
X124358400Y-98552000D03*
X123139200Y-99161600D03*
X126187200Y-103428800D03*
X131673600Y-85801200D03*
X129235200Y-89001600D03*
X130454400Y-86512400D03*
X148640800Y-93065600D03*
X120700800Y-97942400D03*
X126796800Y-107696000D03*
X157886400Y-78232000D03*
X130454400Y-85228000D03*
X119888000Y-79044800D03*
X153009600Y-81280000D03*
X158496000Y-78841600D03*
X131064000Y-87172800D03*
X142849600Y-108712000D03*
X156057600Y-77622400D03*
X126796800Y-104648000D03*
X121310400Y-97942400D03*
X129946400Y-84523200D03*
X129438400Y-86457600D03*
X157276800Y-75793600D03*
X126796800Y-102209600D03*
X129235200Y-87782400D03*
X124358400Y-100990400D03*
X128625600Y-87782400D03*
X144068800Y-93675200D03*
X121920000Y-99771200D03*
X129844800Y-83921600D03*
X131064000Y-109524800D03*
X132892800Y-87782400D03*
X133502400Y-89001600D03*
X156667200Y-79440000D03*
X120091200Y-98552000D03*
X124968000Y-101600000D03*
X140411200Y-106070400D03*
X130454400Y-89001600D03*
X128016000Y-107696000D03*
X131064000Y-83921600D03*
X124358400Y-99771200D03*
X124358400Y-99161600D03*
X157886400Y-79451200D03*
X141020800Y-106070400D03*
X147421600Y-93675200D03*
X121310400Y-98552000D03*
X141630400Y-106680000D03*
X129235200Y-87172800D03*
X129844800Y-89001600D03*
X142240000Y-107289600D03*
X153822400Y-86323600D03*
X123748800Y-97942400D03*
X154228800Y-81889600D03*
X158496000Y-80060800D03*
X121716800Y-78435200D03*
X131064000Y-89001600D03*
X131673600Y-84527200D03*
X143459200Y-93065600D03*
D17*
X118113600Y-97840800D03*
D16*
X130454400Y-108915200D03*
X156667200Y-77012800D03*
X155346400Y-85094000D03*
X119888000Y-79654400D03*
X156667200Y-78232000D03*
X154838400Y-78232000D03*
X154228800Y-80670400D03*
X123748800Y-100380800D03*
X131673600Y-87172800D03*
X129438400Y-85797200D03*
X121310400Y-99161600D03*
X155448000Y-78841600D03*
X133136400Y-84077600D03*
X120497600Y-77825600D03*
X124358400Y-104648000D03*
X123139200Y-102209600D03*
X131165600Y-85232000D03*
X154838400Y-84389200D03*
X153822400Y-84389200D03*
X131673600Y-86461600D03*
X125577600Y-103428800D03*
X122529600Y-100380800D03*
X157276800Y-74574400D03*
X121716800Y-79654400D03*
X120091200Y-97942400D03*
X142240000Y-108712000D03*
X155448000Y-76403200D03*
X158496000Y-77622400D03*
X126187200Y-104038400D03*
X156667200Y-80060800D03*
X124358400Y-104038400D03*
X123748800Y-98552000D03*
X121716800Y-77825600D03*
X153394800Y-83933200D03*
X131064000Y-108915200D03*
X123139200Y-104648000D03*
X128625600Y-107696000D03*
X131673600Y-88392000D03*
X125577600Y-100990400D03*
X131064000Y-87782400D03*
X153314400Y-85039200D03*
X129844800Y-87172800D03*
X148031200Y-93065600D03*
X130454400Y-84578000D03*
D18*
%TO.N,Net-(U3-SS)*%
X135128000Y-104518400D03*
%TO.N,Net-(U8-DVDD)*%
X141630400Y-100380800D03*
D16*
%TO.N,/Power/VBUS_IN*%
X122326400Y-104648000D03*
X122326400Y-104038400D03*
X122326400Y-103428800D03*
%TO.N,Net-(D4-A)*%
X123342400Y-108300000D03*
%TO.N,Net-(U6-EN)*%
X160629600Y-107696000D03*
D19*
%TO.N,Net-(U3-SW)*%
X134023100Y-105741978D03*
%TO.N,Net-(U3-BST)*%
X134023100Y-105245789D03*
D16*
%TO.N,/Motor/Gate Driver/MOTOR_C_CURRENT_SENSE*%
X133908800Y-98348800D03*
X132143200Y-98183600D03*
%TO.N,/Motor/Gate Driver/MOTOR_B_CURRENT_SENSE*%
X131343200Y-98983600D03*
%TO.N,/Motor/Gate Driver/MOTOR_A_CURRENT_SENSE*%
X130543200Y-98183600D03*
%TO.N,/MCU/USB_D-*%
X118365747Y-104608549D03*
X124612400Y-113284000D03*
%TO.N,/MCU/USB_D+*%
X124002800Y-112018800D03*
X119008401Y-104648000D03*
%TO.N,Net-(U1-CC2)*%
X125171200Y-111514000D03*
X121806325Y-111353600D03*
X118567546Y-106631961D03*
%TO.N,Net-(U1-CC1)*%
X125157000Y-110822832D03*
X118872000Y-103225600D03*
%TO.N,/MCU/STM32_EN*%
X128943200Y-98183600D03*
%TO.N,Net-(U3-FB)*%
X134010400Y-104241600D03*
%TO.N,/Motor/Gate Driver/GATE_DRIVER_NFAULT*%
X131343200Y-93383600D03*
%TO.N,/Motor/Gate Driver/H_BRIDGE_SPA*%
X141145797Y-90782713D03*
X145984431Y-85543501D03*
%TO.N,/Motor/Gate Driver/H_BRIDGE_SPB*%
X140411200Y-85445600D03*
X137031097Y-90372534D03*
%TO.N,Net-(U8-SOA)*%
X135534400Y-97536000D03*
%TO.N,Net-(U8-SOB)*%
X134793613Y-96803587D03*
%TO.N,Net-(U8-SOC)*%
X133908800Y-95910400D03*
%TO.N,/Power/VBUS_SWITCH_GATE*%
X126600000Y-108600000D03*
%TO.N,/MCU/EN_12V*%
X148945600Y-112979200D03*
X159654000Y-104407000D03*
X159359600Y-107696000D03*
%TO.N,/MCU/PD_SCL*%
X129844800Y-110236000D03*
%TO.N,/MCU/PD_INT_N*%
X158089600Y-107696000D03*
X129235200Y-109524800D03*
%TO.N,/MCU/PD_FAULT*%
X156819600Y-107696000D03*
X128687499Y-108915200D03*
%TO.N,/MCU/PD_SDA*%
X139750800Y-109220000D03*
X139750800Y-110947200D03*
X130352800Y-110744000D03*
%TO.N,/CAN Transceiver1/CAN_RX*%
X162153600Y-101396800D03*
%TO.N,/CAN Transceiver1/CAN_TX*%
X154279600Y-107696000D03*
%TO.N,/Motor/Gate Driver/H_BRIDGE_SPC*%
X121247600Y-83921600D03*
X134033575Y-93276376D03*
%TO.N,/Motor/Gate Driver/GATE_DRIVER_INHA*%
X141630400Y-101193600D03*
X129743200Y-97383600D03*
%TO.N,/Motor/Gate Driver/GATE_DRIVER_SDI*%
X127343200Y-97383600D03*
X136956800Y-99771200D03*
%TO.N,/Expansion Port/ENCODER_SDA*%
X122455856Y-74703856D03*
X127741000Y-92980000D03*
%TO.N,/Motor/Gate Driver/GATE_DRIVER_NSCS*%
X137769600Y-99826051D03*
X130543200Y-97383600D03*
%TO.N,/Motor/Gate Driver/GATE_DRIVER_SDO*%
X136647724Y-98578263D03*
X124943200Y-92583600D03*
%TO.N,/Motor/Gate Driver/GATE_DRIVER_INHB*%
X129743200Y-98983600D03*
X141630400Y-101803200D03*
%TO.N,/Motor/Gate Driver/GATE_DRIVER_SCLK*%
X126543200Y-94983600D03*
X137368416Y-99370016D03*
%TO.N,/Expansion Port/ENCODER_SCL*%
X123188800Y-75285600D03*
X126943000Y-92982000D03*
%TO.N,/Motor/Gate Driver/GATE_DRIVER_INLA*%
X141630400Y-103022400D03*
X127343200Y-99783600D03*
%TO.N,/Motor/Gate Driver/GATE_DRIVER_INHC*%
X141630400Y-102412800D03*
X130543200Y-99783600D03*
%TO.N,/Motor/Gate Driver/H_BRIDGE_GHC*%
X127133600Y-86518000D03*
X135331200Y-91998800D03*
%TO.N,/Motor/Gate Driver/H_BRIDGE_GHA*%
X142412067Y-92045430D03*
X152044800Y-86353200D03*
%TO.N,/Motor/Gate Driver/H_BRIDGE_GLC*%
X122764800Y-86517200D03*
X134446693Y-92885154D03*
%TO.N,/Motor/Gate Driver/H_BRIDGE_GLA*%
X141614785Y-91156950D03*
X147574400Y-86353200D03*
%TO.N,/Motor/Gate Driver/H_BRIDGE_GHB*%
X134486400Y-84557600D03*
X135737600Y-91592400D03*
%TO.N,/Motor/Gate Driver/H_BRIDGE_GLB*%
X136602199Y-90838987D03*
X138956800Y-84548000D03*
%TO.N,/Expansion Port/EXPANSION_IO41*%
X132187200Y-75277600D03*
X157886400Y-88188800D03*
%TO.N,Net-(U6-IO0)*%
X146659600Y-90196000D03*
X159634800Y-103441800D03*
%TO.N,/Expansion Port/EXPANSION_IO1*%
X161899600Y-90196000D03*
X133687200Y-74777600D03*
%TO.N,/Expansion Port/EXPANSION_IO36*%
X150977600Y-88087200D03*
X130187200Y-75277600D03*
%TO.N,/Expansion Port/EXPANSION_IO2*%
X133187200Y-75285600D03*
X160629600Y-90196000D03*
%TO.N,/Expansion Port/EXPANSION_IO45*%
X157378400Y-92659200D03*
X129187200Y-75277600D03*
%TO.N,/Expansion Port/EXPANSION_IO46*%
X124192000Y-75250042D03*
X149453600Y-105460800D03*
%TO.N,/Expansion Port/EXPANSION_IO48*%
X152095200Y-103632000D03*
X128828800Y-74777600D03*
%TO.N,/Expansion Port/EXPANSION_IO3*%
X123748800Y-74777600D03*
X149453600Y-106070400D03*
%TO.N,/Expansion Port/EXPANSION_IO35*%
X129687200Y-74777600D03*
X150141856Y-88087200D03*
%TO.N,/Expansion Port/EXPANSION_IO14*%
X127203200Y-75285600D03*
X152095200Y-105460800D03*
%TO.N,/Expansion Port/EXPANSION_IO42*%
X132687200Y-74777600D03*
X157886400Y-88798400D03*
%TO.N,/Expansion Port/EXPANSION_IO21*%
X152095200Y-104851200D03*
X127812800Y-74777600D03*
%TO.N,/Expansion Port/EXPANSION_IO12*%
X126187200Y-75285600D03*
X149453600Y-103022400D03*
%TO.N,/Expansion Port/EXPANSION_IO38*%
X131187200Y-75277600D03*
X152298400Y-88087200D03*
%TO.N,/Expansion Port/EXPANSION_IO13*%
X126796800Y-74777600D03*
X152095200Y-106070400D03*
%TO.N,/Expansion Port/EXPANSION_IO9*%
X124764800Y-74777600D03*
X149453600Y-104851200D03*
%TO.N,/Expansion Port/EXPANSION_IO40*%
X152908000Y-88087200D03*
X131687200Y-74777600D03*
%TO.N,/Expansion Port/EXPANSION_IO37*%
X130687200Y-74777600D03*
X151688800Y-88087200D03*
%TO.N,/Expansion Port/EXPANSION_IO10*%
X125228300Y-75285600D03*
X149453600Y-104241600D03*
%TO.N,/Expansion Port/EXPANSION_IO11*%
X125780800Y-74777600D03*
X149453600Y-103632000D03*
%TO.N,/Expansion Port/EXPANSION_IO47*%
X152095200Y-104241600D03*
X128219200Y-75285600D03*
%TO.N,/Motor/Gate Driver/H_BRIDGE_SHC*%
X124114800Y-86997200D03*
X134924800Y-92456000D03*
%TO.N,/Motor/Gate Driver/H_BRIDGE_SHB*%
X137606800Y-86968000D03*
X136144000Y-91186000D03*
%TO.N,/Motor/Gate Driver/H_BRIDGE_SHA*%
X142058938Y-91560350D03*
X148924400Y-86833200D03*
%TO.N,/CAN_N*%
X159816800Y-93726000D03*
X160477200Y-94488000D03*
%TD*%
D20*
%TO.N,/Motor/Gate Driver/MOTOR_C_CURRENT_SENSE*%
X132143200Y-98183600D02*
X133743600Y-98183600D01*
X133743600Y-98183600D02*
X133908800Y-98348800D01*
D21*
%TO.N,Net-(U1-CC2)*%
X121806325Y-108293525D02*
X121806325Y-111353600D01*
X118567546Y-106631961D02*
X120144761Y-106631961D01*
X120144761Y-106631961D02*
X121806325Y-108293525D01*
%TO.N,/MCU/EN_12V*%
X158902400Y-106680000D02*
X158902400Y-104851200D01*
X159359600Y-109067600D02*
X159359600Y-107696000D01*
X159359600Y-107696000D02*
X159359600Y-107137200D01*
X159359600Y-107137200D02*
X158902400Y-106680000D01*
X158902400Y-104851200D02*
X159346600Y-104407000D01*
X159346600Y-104407000D02*
X159654000Y-104407000D01*
X155448000Y-112979200D02*
X159359600Y-109067600D01*
X148945600Y-112979200D02*
X155448000Y-112979200D01*
%TO.N,/MCU/PD_INT_N*%
X158089600Y-107696000D02*
X157530800Y-108254800D01*
X157530800Y-108254800D02*
X130556000Y-108254800D01*
X129286000Y-109524800D02*
X129235200Y-109524800D01*
X130556000Y-108254800D02*
X129286000Y-109524800D01*
%TO.N,/MCU/PD_FAULT*%
X152949830Y-107696000D02*
X153890630Y-106755200D01*
X153890630Y-106755200D02*
X155726400Y-106755200D01*
X156667200Y-107696000D02*
X156819600Y-107696000D01*
X129946400Y-107696000D02*
X152949830Y-107696000D01*
X128687499Y-108915200D02*
X128727200Y-108915200D01*
X128727200Y-108915200D02*
X129946400Y-107696000D01*
X155726400Y-106755200D02*
X156667200Y-107696000D01*
%TO.N,/MCU/PD_SDA*%
X139750800Y-109220000D02*
X139750800Y-110947200D01*
D22*
%TO.N,/Motor/Gate Driver/GATE_DRIVER_SDI*%
X136906000Y-99720400D02*
X136956800Y-99771200D01*
X130619474Y-95282800D02*
X130675354Y-95282800D01*
X135890000Y-99720400D02*
X136906000Y-99720400D01*
X127343200Y-97383600D02*
X128981200Y-97383600D01*
X130898874Y-96292800D02*
X130954754Y-96292800D01*
X131178274Y-96062800D02*
X132232400Y-96062800D01*
X130787114Y-95394560D02*
X130787114Y-96181040D01*
X130302000Y-96062800D02*
X130395954Y-96062800D01*
X131066514Y-96181040D02*
X131066514Y-96174560D01*
X130507714Y-95951040D02*
X130507714Y-95394560D01*
X132232400Y-96062800D02*
X135890000Y-99720400D01*
X128981200Y-97383600D02*
X130302000Y-96062800D01*
X130507714Y-95394560D02*
G75*
G02*
X130619474Y-95282814I111786J-40D01*
G01*
X130675354Y-95282800D02*
G75*
G02*
X130787200Y-95394560I46J-111800D01*
G01*
X130954754Y-96292800D02*
G75*
G03*
X131066600Y-96181040I46J111800D01*
G01*
X130395954Y-96062800D02*
G75*
G03*
X130507800Y-95951040I46J111800D01*
G01*
X130787114Y-96181040D02*
G75*
G03*
X130898874Y-96292786I111786J40D01*
G01*
X131066514Y-96174560D02*
G75*
G02*
X131178274Y-96062814I111786J-40D01*
G01*
%TO.N,/Expansion Port/ENCODER_SDA*%
X125476000Y-93370400D02*
X124256800Y-93370400D01*
X127249000Y-93472000D02*
X126593600Y-93472000D01*
X122455856Y-81917456D02*
X122455856Y-74703856D01*
X124256800Y-93370400D02*
X123952000Y-93065600D01*
X123952000Y-93065600D02*
X123952000Y-91744800D01*
X126593600Y-93472000D02*
X126488300Y-93366700D01*
X127741000Y-92980000D02*
X127249000Y-93472000D01*
X123952000Y-91744800D02*
X124663200Y-91033600D01*
X124663200Y-91033600D02*
X124663200Y-84124800D01*
X124663200Y-84124800D02*
X122455856Y-81917456D01*
X126488300Y-93366700D02*
X125479700Y-93366700D01*
D20*
%TO.N,/Motor/Gate Driver/GATE_DRIVER_NSCS*%
X133540400Y-100380800D02*
X137214851Y-100380800D01*
X130543200Y-97383600D02*
X133540400Y-100380800D01*
X137214851Y-100380800D02*
X137769600Y-99826051D01*
D22*
%TO.N,/Motor/Gate Driver/GATE_DRIVER_SDO*%
X125070800Y-92456000D02*
X129692400Y-92456000D01*
X135369100Y-98132700D02*
X136202161Y-98132700D01*
X129692400Y-92456000D02*
X135369100Y-98132700D01*
X124943200Y-92583600D02*
X125070800Y-92456000D01*
X136202161Y-98132700D02*
X136647724Y-98578263D01*
D20*
%TO.N,/Motor/Gate Driver/GATE_DRIVER_SCLK*%
X130930461Y-94580200D02*
X131257800Y-94580200D01*
X129610461Y-94940200D02*
X129698461Y-94940200D01*
X130314461Y-94475200D02*
X130314461Y-94764200D01*
X129979461Y-94370200D02*
X130209461Y-94370200D01*
X129434461Y-94756200D02*
X129434461Y-94764200D01*
X129874461Y-94764200D02*
X129874461Y-94475200D01*
X131257800Y-94580200D02*
X135077200Y-98399600D01*
X135839200Y-98399600D02*
X136467863Y-99028263D01*
X130754461Y-94764200D02*
X130754461Y-94756200D01*
X135077200Y-98399600D02*
X135839200Y-98399600D01*
X126543200Y-94983600D02*
X126946600Y-94580200D01*
X126946600Y-94580200D02*
X129258461Y-94580200D01*
X136467863Y-99028263D02*
X137026663Y-99028263D01*
X130490461Y-94940200D02*
X130578461Y-94940200D01*
X137026663Y-99028263D02*
X137368416Y-99370016D01*
X129258461Y-94580200D02*
G75*
G02*
X129434500Y-94756200I39J-176000D01*
G01*
X130314461Y-94764200D02*
G75*
G03*
X130490461Y-94940239I176039J0D01*
G01*
X130754461Y-94756200D02*
G75*
G02*
X130930461Y-94580161I176039J0D01*
G01*
X129698461Y-94940200D02*
G75*
G03*
X129874500Y-94764200I39J176000D01*
G01*
X129874461Y-94475200D02*
G75*
G02*
X129979461Y-94370161I105039J0D01*
G01*
X129434461Y-94764200D02*
G75*
G03*
X129610461Y-94940239I176039J0D01*
G01*
X130578461Y-94940200D02*
G75*
G03*
X130754500Y-94764200I39J176000D01*
G01*
X130209461Y-94370200D02*
G75*
G02*
X130314500Y-94475200I39J-105000D01*
G01*
D22*
%TO.N,/Expansion Port/ENCODER_SCL*%
X125171200Y-89814400D02*
X125171200Y-91135200D01*
X124358400Y-91948000D02*
X124358400Y-92862400D01*
X125327200Y-88978597D02*
X125775200Y-88978597D01*
X125327200Y-88198597D02*
X125775200Y-88198597D01*
X125775200Y-89368597D02*
X125327200Y-89368597D01*
X124561600Y-93065600D02*
X126859400Y-93065600D01*
X124358400Y-92862400D02*
X124561600Y-93065600D01*
X125066200Y-88978597D02*
X125171200Y-88978597D01*
X125171200Y-83616800D02*
X125171200Y-88042597D01*
X123188800Y-75285600D02*
X123188800Y-81634400D01*
X125327200Y-88588597D02*
X125171200Y-88588597D01*
X125931200Y-89134597D02*
X125931200Y-89212597D01*
X126859400Y-93065600D02*
X126943000Y-92982000D01*
X125171200Y-88978597D02*
X125327200Y-88978597D01*
X123188800Y-81634400D02*
X125171200Y-83616800D01*
X125171200Y-89524597D02*
X125171200Y-89602597D01*
X125171200Y-88588597D02*
X125066200Y-88588597D01*
X125171200Y-89602597D02*
X125171200Y-89814400D01*
X125171200Y-91135200D02*
X124358400Y-91948000D01*
X125931200Y-88354597D02*
X125931200Y-88432597D01*
X125775200Y-88588597D02*
X125327200Y-88588597D01*
X124961200Y-88693597D02*
X124961200Y-88873597D01*
X125775200Y-88978597D02*
G75*
G02*
X125931203Y-89134597I0J-156003D01*
G01*
X125066200Y-88588597D02*
G75*
G03*
X124961197Y-88693597I0J-105003D01*
G01*
X125327200Y-89368597D02*
G75*
G03*
X125171197Y-89524597I0J-156003D01*
G01*
X125931200Y-89212597D02*
G75*
G02*
X125775200Y-89368600I-156000J-3D01*
G01*
X125171200Y-88042597D02*
G75*
G03*
X125327200Y-88198600I156000J-3D01*
G01*
X124961200Y-88873597D02*
G75*
G03*
X125066200Y-88978600I105000J-3D01*
G01*
X125931200Y-88432597D02*
G75*
G02*
X125775200Y-88588600I-156000J-3D01*
G01*
X125775200Y-88198597D02*
G75*
G02*
X125931203Y-88354597I0J-156003D01*
G01*
D20*
%TO.N,/Motor/Gate Driver/GATE_DRIVER_INLA*%
X139598400Y-100990400D02*
X141630400Y-103022400D01*
X128550000Y-100990400D02*
X139598400Y-100990400D01*
X127343200Y-99783600D02*
X128550000Y-100990400D01*
%TO.N,/Motor/Gate Driver/GATE_DRIVER_INHC*%
X131445200Y-100685600D02*
X139903200Y-100685600D01*
X139903200Y-100685600D02*
X141630400Y-102412800D01*
X130543200Y-99783600D02*
X131445200Y-100685600D01*
D22*
%TO.N,/Expansion Port/EXPANSION_IO41*%
X153416000Y-83515200D02*
X148742400Y-78841600D01*
X157886400Y-88188800D02*
X158140500Y-87934700D01*
X158140500Y-86004500D02*
X155651200Y-83515200D01*
X148742400Y-77012800D02*
X147929600Y-76200000D01*
X148742400Y-78841600D02*
X148742400Y-77012800D01*
X158140500Y-87934700D02*
X158140500Y-86004500D01*
X155651200Y-83515200D02*
X153416000Y-83515200D01*
X132187200Y-75799200D02*
X132187200Y-75277600D01*
X132588000Y-76200000D02*
X132187200Y-75799200D01*
X147929600Y-76200000D02*
X132588000Y-76200000D01*
D21*
%TO.N,Net-(U6-IO0)*%
X157988000Y-96723200D02*
X151460800Y-90196000D01*
X151460800Y-90196000D02*
X146659600Y-90196000D01*
X157988000Y-102717600D02*
X157988000Y-96723200D01*
X159634800Y-103441800D02*
X158712200Y-103441800D01*
X158712200Y-103441800D02*
X157988000Y-102717600D01*
D22*
%TO.N,/Expansion Port/EXPANSION_IO1*%
X149352000Y-74777600D02*
X133687200Y-74777600D01*
X156362400Y-83007200D02*
X155676600Y-82321400D01*
X161899600Y-90196000D02*
X161899600Y-86487888D01*
X150571200Y-79451200D02*
X150571200Y-75996800D01*
X158418912Y-83007200D02*
X156362400Y-83007200D01*
X150571200Y-75996800D02*
X149352000Y-74777600D01*
X155676600Y-82321400D02*
X153441400Y-82321400D01*
X161899600Y-86487888D02*
X158418912Y-83007200D01*
X153441400Y-82321400D02*
X150571200Y-79451200D01*
%TO.N,/Expansion Port/EXPANSION_IO36*%
X149758400Y-86563200D02*
X150977600Y-87782400D01*
X130187200Y-77050400D02*
X130962400Y-77825600D01*
X139395200Y-80467200D02*
X148742400Y-80467200D01*
X150977600Y-87782400D02*
X150977600Y-88087200D01*
X149758400Y-81483200D02*
X149758400Y-86563200D01*
X130187200Y-75277600D02*
X130187200Y-77050400D01*
X136753600Y-77825600D02*
X139395200Y-80467200D01*
X148742400Y-80467200D02*
X149758400Y-81483200D01*
X130962400Y-77825600D02*
X136753600Y-77825600D01*
%TO.N,/Expansion Port/EXPANSION_IO2*%
X149961600Y-76403200D02*
X148844000Y-75285600D01*
X156260800Y-83312000D02*
X155651200Y-82702400D01*
X148844000Y-75285600D02*
X133187200Y-75285600D01*
X158089600Y-83312000D02*
X156260800Y-83312000D01*
X160731200Y-90094400D02*
X160731200Y-85953600D01*
X155651200Y-82702400D02*
X153416000Y-82702400D01*
X153416000Y-82702400D02*
X149961600Y-79248000D01*
X160731200Y-85953600D02*
X158089600Y-83312000D01*
X160629600Y-90196000D02*
X160731200Y-90094400D01*
X149961600Y-79248000D02*
X149961600Y-76403200D01*
%TO.N,/Expansion Port/EXPANSION_IO45*%
X129187200Y-77676000D02*
X130149600Y-78638400D01*
X149949868Y-88675244D02*
X150333844Y-88675244D01*
X148336000Y-81483200D02*
X148336000Y-87477600D01*
X157378400Y-89916000D02*
X157378400Y-92659200D01*
X147929600Y-81076800D02*
X148336000Y-81483200D01*
X129187200Y-75277600D02*
X129187200Y-77676000D01*
X148336000Y-87477600D02*
X149453600Y-88595200D01*
X138785600Y-81076800D02*
X147929600Y-81076800D01*
X149453600Y-88595200D02*
X149869824Y-88595200D01*
X156057600Y-88595200D02*
X157378400Y-89916000D01*
X136347200Y-78638400D02*
X138785600Y-81076800D01*
X130149600Y-78638400D02*
X136347200Y-78638400D01*
X149869824Y-88595200D02*
X149949868Y-88675244D01*
X150413888Y-88595200D02*
X156057600Y-88595200D01*
X150333844Y-88675244D02*
X150413888Y-88595200D01*
%TO.N,/Expansion Port/EXPANSION_IO46*%
X138582400Y-94589600D02*
X138582400Y-90525600D01*
X133096000Y-82702400D02*
X126085600Y-82702400D01*
X134416800Y-88696800D02*
X134416800Y-85355268D01*
X149453600Y-105460800D02*
X138582400Y-94589600D01*
X126085600Y-82702400D02*
X124138968Y-80755768D01*
X135128000Y-89408000D02*
X134416800Y-88696800D01*
X134010400Y-84948868D02*
X134010400Y-83616800D01*
X134416800Y-85355268D02*
X134010400Y-84948868D01*
X124138968Y-75303074D02*
X124192000Y-75250042D01*
X134010400Y-83616800D02*
X133096000Y-82702400D01*
X137464800Y-89408000D02*
X135128000Y-89408000D01*
X124138968Y-80755768D02*
X124138968Y-75303074D01*
X138582400Y-90525600D02*
X137464800Y-89408000D01*
%TO.N,/Expansion Port/EXPANSION_IO48*%
X137363200Y-84226400D02*
X137363200Y-83312000D01*
X133096000Y-79044800D02*
X129743200Y-79044800D01*
X141224000Y-88087200D02*
X137363200Y-84226400D01*
X128727200Y-78028800D02*
X128727200Y-74879200D01*
X151180800Y-101600000D02*
X145999200Y-96418400D01*
X145999200Y-90220800D02*
X143865600Y-88087200D01*
X129743200Y-79044800D02*
X128727200Y-78028800D01*
X137363200Y-83312000D02*
X133096000Y-79044800D01*
X145999200Y-96418400D02*
X145999200Y-90220800D01*
X152095200Y-103632000D02*
X152095200Y-103530400D01*
X143865600Y-88087200D02*
X141224000Y-88087200D01*
X152095200Y-103530400D02*
X151180800Y-102616000D01*
X128727200Y-74879200D02*
X128828800Y-74777600D01*
X151180800Y-102616000D02*
X151180800Y-101600000D01*
%TO.N,/Expansion Port/EXPANSION_IO3*%
X149453600Y-106070400D02*
X138176000Y-94792800D01*
X138176000Y-90728800D02*
X137261600Y-89814400D01*
X134112000Y-85445600D02*
X133705600Y-85039200D01*
X132994400Y-83108800D02*
X125679200Y-83108800D01*
X125679200Y-83108800D02*
X123675468Y-81105068D01*
X138176000Y-94792800D02*
X138176000Y-90728800D01*
X134112000Y-89001600D02*
X134112000Y-85445600D01*
X123675468Y-74850932D02*
X123748800Y-74777600D01*
X123675468Y-81105068D02*
X123675468Y-74850932D01*
X133705600Y-85039200D02*
X133705600Y-83820000D01*
X137261600Y-89814400D02*
X134924800Y-89814400D01*
X133705600Y-83820000D02*
X132994400Y-83108800D01*
X134924800Y-89814400D02*
X134112000Y-89001600D01*
%TO.N,/Expansion Port/EXPANSION_IO35*%
X150141856Y-87556256D02*
X150141856Y-88087200D01*
X149352000Y-86766400D02*
X150141856Y-87556256D01*
X139090400Y-80772000D02*
X148640800Y-80772000D01*
X130556000Y-78232000D02*
X136550400Y-78232000D01*
X129687200Y-77363200D02*
X130556000Y-78232000D01*
X148640800Y-80772000D02*
X149352000Y-81483200D01*
X129687200Y-74777600D02*
X129687200Y-77363200D01*
X136550400Y-78232000D02*
X139090400Y-80772000D01*
X149352000Y-81483200D02*
X149352000Y-86766400D01*
%TO.N,/Expansion Port/EXPANSION_IO14*%
X140919200Y-89001600D02*
X136448800Y-84531200D01*
X150266400Y-102514400D02*
X145084800Y-97332800D01*
X127203200Y-78841600D02*
X127203200Y-75285600D01*
X133096000Y-80264000D02*
X128625600Y-80264000D01*
X136448800Y-84531200D02*
X136448800Y-83616800D01*
X136448800Y-83616800D02*
X133096000Y-80264000D01*
X145084800Y-90525600D02*
X143560800Y-89001600D01*
X151079200Y-105460800D02*
X150266400Y-104648000D01*
X152095200Y-105460800D02*
X151079200Y-105460800D01*
X150266400Y-104648000D02*
X150266400Y-102514400D01*
X143560800Y-89001600D02*
X140919200Y-89001600D01*
X145084800Y-97332800D02*
X145084800Y-90525600D01*
X128625600Y-80264000D02*
X127203200Y-78841600D01*
%TO.N,/Expansion Port/EXPANSION_IO42*%
X155662468Y-83108800D02*
X153404732Y-83108800D01*
X148336000Y-75793600D02*
X132994400Y-75793600D01*
X157784800Y-83616800D02*
X156170468Y-83616800D01*
X156170468Y-83616800D02*
X155662468Y-83108800D01*
X153404732Y-83108800D02*
X149352000Y-79056068D01*
X132687200Y-75486400D02*
X132687200Y-74777600D01*
X149352000Y-76809600D02*
X148336000Y-75793600D01*
X149352000Y-79056068D02*
X149352000Y-76809600D01*
X158496000Y-88437888D02*
X158496000Y-84328000D01*
X158135488Y-88798400D02*
X158496000Y-88437888D01*
X132994400Y-75793600D02*
X132687200Y-75486400D01*
X158496000Y-84328000D02*
X157784800Y-83616800D01*
X157886400Y-88798400D02*
X158135488Y-88798400D01*
%TO.N,/Expansion Port/EXPANSION_IO21*%
X145389600Y-90424000D02*
X145389600Y-97028000D01*
X145389600Y-97028000D02*
X150571200Y-102209600D01*
X128930400Y-79857600D02*
X133096000Y-79857600D01*
X150571200Y-104038400D02*
X151384000Y-104851200D01*
X141020800Y-88696800D02*
X143662400Y-88696800D01*
X127711200Y-74879200D02*
X127711200Y-78638400D01*
X136753600Y-83515200D02*
X136753600Y-84429600D01*
X143662400Y-88696800D02*
X145389600Y-90424000D01*
X133096000Y-79857600D02*
X136753600Y-83515200D01*
X151384000Y-104851200D02*
X152095200Y-104851200D01*
X136753600Y-84429600D02*
X141020800Y-88696800D01*
X127711200Y-78638400D02*
X128930400Y-79857600D01*
X150571200Y-102209600D02*
X150571200Y-104038400D01*
X127812800Y-74777600D02*
X127711200Y-74879200D01*
%TO.N,/Expansion Port/EXPANSION_IO12*%
X133096000Y-81076800D02*
X127711200Y-81076800D01*
X135839200Y-87680800D02*
X135839200Y-83820000D01*
X140208000Y-93776800D02*
X140208000Y-89712800D01*
X138277600Y-87782400D02*
X135940800Y-87782400D01*
X126187200Y-79552800D02*
X126187200Y-75285600D01*
X140208000Y-89712800D02*
X138277600Y-87782400D01*
X135940800Y-87782400D02*
X135839200Y-87680800D01*
X127711200Y-81076800D02*
X126187200Y-79552800D01*
X149453600Y-103022400D02*
X140208000Y-93776800D01*
X135839200Y-83820000D02*
X133096000Y-81076800D01*
%TO.N,/Expansion Port/EXPANSION_IO38*%
X150571200Y-81483200D02*
X150571200Y-86156800D01*
X131775200Y-77012800D02*
X137160000Y-77012800D01*
X131187200Y-76424800D02*
X131775200Y-77012800D01*
X140004800Y-79857600D02*
X148945600Y-79857600D01*
X150571200Y-86156800D02*
X152298400Y-87884000D01*
X152298400Y-87884000D02*
X152298400Y-88087200D01*
X131187200Y-75277600D02*
X131187200Y-76424800D01*
X148945600Y-79857600D02*
X150571200Y-81483200D01*
X137160000Y-77012800D02*
X140004800Y-79857600D01*
%TO.N,/Expansion Port/EXPANSION_IO13*%
X126695200Y-79248000D02*
X126695200Y-74879200D01*
X140817600Y-89306400D02*
X136144000Y-84632800D01*
X126695200Y-74879200D02*
X126796800Y-74777600D01*
X136144000Y-83718400D02*
X133096000Y-80670400D01*
X149961600Y-102819200D02*
X144780000Y-97637600D01*
X143459200Y-89306400D02*
X140817600Y-89306400D01*
X144780000Y-97637600D02*
X144780000Y-90627200D01*
X144780000Y-90627200D02*
X143459200Y-89306400D01*
X133096000Y-80670400D02*
X128117600Y-80670400D01*
X128117600Y-80670400D02*
X126695200Y-79248000D01*
X149961600Y-105257600D02*
X149961600Y-102819200D01*
X150774400Y-106070400D02*
X149961600Y-105257600D01*
X136144000Y-84632800D02*
X136144000Y-83718400D01*
X152095200Y-106070400D02*
X150774400Y-106070400D01*
%TO.N,/Expansion Port/EXPANSION_IO9*%
X149453600Y-104851200D02*
X138988800Y-94386400D01*
X134924800Y-84124800D02*
X133096000Y-82296000D01*
X137668000Y-89001600D02*
X135331200Y-89001600D01*
X133096000Y-82296000D02*
X126585088Y-82296000D01*
X138988800Y-90322400D02*
X137668000Y-89001600D01*
X134924800Y-88595200D02*
X134924800Y-84124800D01*
X135331200Y-89001600D02*
X134924800Y-88595200D01*
X126585088Y-82296000D02*
X124764800Y-80475712D01*
X138988800Y-94386400D02*
X138988800Y-90322400D01*
X124764800Y-80475712D02*
X124764800Y-74777600D01*
%TO.N,/Expansion Port/EXPANSION_IO40*%
X152908000Y-88087200D02*
X152908000Y-87884000D01*
X152908000Y-87884000D02*
X151079200Y-86055200D01*
X151079200Y-86055200D02*
X151079200Y-81584800D01*
X131687200Y-76112000D02*
X131687200Y-74777600D01*
X140309600Y-79552800D02*
X137363200Y-76606400D01*
X149047200Y-79552800D02*
X140309600Y-79552800D01*
X151079200Y-81584800D02*
X149047200Y-79552800D01*
X132181600Y-76606400D02*
X131687200Y-76112000D01*
X137363200Y-76606400D02*
X132181600Y-76606400D01*
%TO.N,/Expansion Port/EXPANSION_IO37*%
X131368800Y-77419200D02*
X136956800Y-77419200D01*
X148844000Y-80162400D02*
X150164800Y-81483200D01*
X139700000Y-80162400D02*
X148844000Y-80162400D01*
X130687200Y-76737600D02*
X131368800Y-77419200D01*
X136956800Y-77419200D02*
X139700000Y-80162400D01*
X151688800Y-87884000D02*
X151688800Y-88087200D01*
X150164800Y-86360000D02*
X151688800Y-87884000D01*
X130687200Y-74777600D02*
X130687200Y-76737600D01*
X150164800Y-81483200D02*
X150164800Y-86360000D01*
%TO.N,/Expansion Port/EXPANSION_IO10*%
X125228300Y-80219500D02*
X125228300Y-75285600D01*
X133096000Y-81889600D02*
X126898400Y-81889600D01*
X149453600Y-104241600D02*
X139395200Y-94183200D01*
X139395200Y-90119200D02*
X137871200Y-88595200D01*
X135229600Y-88290400D02*
X135229600Y-84023200D01*
X137871200Y-88595200D02*
X135534400Y-88595200D01*
X135229600Y-84023200D02*
X133096000Y-81889600D01*
X135534400Y-88595200D02*
X135229600Y-88290400D01*
X126898400Y-81889600D02*
X125228300Y-80219500D01*
X139395200Y-94183200D02*
X139395200Y-90119200D01*
%TO.N,/Expansion Port/EXPANSION_IO11*%
X133096000Y-81483200D02*
X127304800Y-81483200D01*
X135534400Y-87985600D02*
X135534400Y-83921600D01*
X139801600Y-89916000D02*
X138074400Y-88188800D01*
X139801600Y-93980000D02*
X139801600Y-89916000D01*
X127304800Y-81483200D02*
X125679200Y-79857600D01*
X135534400Y-83921600D02*
X133096000Y-81483200D01*
X149453600Y-103632000D02*
X139801600Y-93980000D01*
X135737600Y-88188800D02*
X135534400Y-87985600D01*
X125679200Y-79857600D02*
X125679200Y-74879200D01*
X125679200Y-74879200D02*
X125780800Y-74777600D01*
X138074400Y-88188800D02*
X135737600Y-88188800D01*
%TO.N,/Expansion Port/EXPANSION_IO47*%
X128219200Y-75285600D02*
X128219200Y-78333600D01*
X145694400Y-96723200D02*
X150876000Y-101904800D01*
X145694400Y-90322400D02*
X145694400Y-96723200D01*
X150876000Y-101904800D02*
X150876000Y-103428799D01*
X143764000Y-88392000D02*
X145694400Y-90322400D01*
X150876000Y-103428799D02*
X151688801Y-104241600D01*
X151688801Y-104241600D02*
X152095200Y-104241600D01*
X137058400Y-84328000D02*
X141122400Y-88392000D01*
X133096000Y-79451200D02*
X137058400Y-83413600D01*
X141122400Y-88392000D02*
X143764000Y-88392000D01*
X129336800Y-79451200D02*
X133096000Y-79451200D01*
X137058400Y-83413600D02*
X137058400Y-84328000D01*
X128219200Y-78333600D02*
X129336800Y-79451200D01*
%TD*%
%TA.AperFunction,Conductor*%
%TO.N,/Motor/Gate Driver/MOTOR_C_CURRENT_SENSE*%
G36*
X132194816Y-97991780D02*
G01*
X132282682Y-98022033D01*
X132285446Y-98023418D01*
X132331133Y-98054497D01*
X132349588Y-98067052D01*
X132415117Y-98107471D01*
X132429481Y-98116332D01*
X132429483Y-98116332D01*
X132429484Y-98116333D01*
X132440439Y-98119249D01*
X132476843Y-98128941D01*
X132528527Y-98132792D01*
X132536522Y-98136825D01*
X132539357Y-98144460D01*
X132539357Y-98222815D01*
X132535930Y-98231088D01*
X132528608Y-98234476D01*
X132472139Y-98239079D01*
X132422341Y-98253756D01*
X132349593Y-98300144D01*
X132289839Y-98341428D01*
X132288048Y-98342445D01*
X132243701Y-98362695D01*
X132241943Y-98363333D01*
X132194282Y-98376439D01*
X132185397Y-98375329D01*
X132179899Y-98368260D01*
X132179721Y-98367520D01*
X132142677Y-98185938D01*
X132142677Y-98181261D01*
X132150185Y-98144460D01*
X132179553Y-98000505D01*
X132184564Y-97993086D01*
X132193355Y-97991382D01*
X132194816Y-97991780D01*
G37*
%TD.AperFunction*%
%TD*%
%TA.AperFunction,Conductor*%
%TO.N,/Motor/Gate Driver/MOTOR_C_CURRENT_SENSE*%
G36*
X133819121Y-98132329D02*
G01*
X133820663Y-98132470D01*
X133935861Y-98150746D01*
X133943495Y-98155426D01*
X133945583Y-98164134D01*
X133945514Y-98164527D01*
X133910732Y-98343990D01*
X133905794Y-98351460D01*
X133905719Y-98351510D01*
X133753548Y-98452579D01*
X133744761Y-98454302D01*
X133737329Y-98449306D01*
X133736605Y-98448053D01*
X133711518Y-98397627D01*
X133710750Y-98395648D01*
X133694385Y-98338505D01*
X133682163Y-98295162D01*
X133653197Y-98252036D01*
X133653194Y-98252034D01*
X133653195Y-98252034D01*
X133624081Y-98238404D01*
X133591472Y-98234761D01*
X133583630Y-98230436D01*
X133581071Y-98223133D01*
X133581071Y-98145064D01*
X133584498Y-98136791D01*
X133592532Y-98133366D01*
X133701628Y-98131143D01*
X133701685Y-98131141D01*
X133701689Y-98131141D01*
X133703287Y-98131087D01*
X133729903Y-98130192D01*
X133730522Y-98130189D01*
X133819121Y-98132329D01*
G37*
%TD.AperFunction*%
%TD*%
%TA.AperFunction,Conductor*%
%TO.N,Net-(U1-CC2)*%
G36*
X121905654Y-110960870D02*
G01*
X121909018Y-110967930D01*
X121920456Y-111077688D01*
X121950410Y-111156724D01*
X121961338Y-111181127D01*
X121961843Y-111182469D01*
X121998690Y-111302255D01*
X121997847Y-111311170D01*
X121990947Y-111316878D01*
X121989846Y-111317159D01*
X121808664Y-111354122D01*
X121803986Y-111354122D01*
X121622375Y-111317072D01*
X121614954Y-111312060D01*
X121613250Y-111303269D01*
X121613419Y-111302555D01*
X121613500Y-111302255D01*
X121635297Y-111221624D01*
X121635783Y-111220204D01*
X121662242Y-111156714D01*
X121687840Y-111093105D01*
X121700114Y-111036276D01*
X121704081Y-110968460D01*
X121707985Y-110960401D01*
X121715761Y-110957443D01*
X121897381Y-110957443D01*
X121905654Y-110960870D01*
G37*
%TD.AperFunction*%
%TD*%
%TA.AperFunction,Conductor*%
%TO.N,Net-(U1-CC2)*%
G36*
X118618587Y-106439054D02*
G01*
X118699515Y-106460932D01*
X118700945Y-106461421D01*
X118764431Y-106487878D01*
X118828041Y-106513476D01*
X118857927Y-106519931D01*
X118884862Y-106525749D01*
X118884866Y-106525749D01*
X118884869Y-106525750D01*
X118952687Y-106529716D01*
X118960745Y-106533620D01*
X118963703Y-106541396D01*
X118963703Y-106723016D01*
X118960276Y-106731289D01*
X118953216Y-106734653D01*
X118843458Y-106746092D01*
X118764408Y-106776052D01*
X118740020Y-106786973D01*
X118738679Y-106787478D01*
X118618890Y-106824326D01*
X118609975Y-106823483D01*
X118604267Y-106816583D01*
X118603986Y-106815482D01*
X118567023Y-106634300D01*
X118567023Y-106629622D01*
X118585022Y-106541396D01*
X118604073Y-106448009D01*
X118609085Y-106440590D01*
X118617876Y-106438886D01*
X118618587Y-106439054D01*
G37*
%TD.AperFunction*%
%TD*%
%TA.AperFunction,Conductor*%
%TO.N,/MCU/EN_12V*%
G36*
X159543549Y-107732527D02*
G01*
X159550970Y-107737539D01*
X159552674Y-107746330D01*
X159552505Y-107747044D01*
X159530631Y-107827960D01*
X159530136Y-107829408D01*
X159503683Y-107892884D01*
X159503657Y-107892948D01*
X159503656Y-107892951D01*
X159478086Y-107956490D01*
X159478085Y-107956492D01*
X159465811Y-108013316D01*
X159465810Y-108013325D01*
X159461844Y-108081140D01*
X159457940Y-108089199D01*
X159450164Y-108092157D01*
X159268544Y-108092157D01*
X159260271Y-108088730D01*
X159256907Y-108081670D01*
X159245468Y-107971912D01*
X159245468Y-107971910D01*
X159215517Y-107892885D01*
X159204583Y-107868466D01*
X159204081Y-107867132D01*
X159167234Y-107747344D01*
X159168077Y-107738429D01*
X159174977Y-107732721D01*
X159176071Y-107732441D01*
X159357262Y-107695477D01*
X159361938Y-107695477D01*
X159543549Y-107732527D01*
G37*
%TD.AperFunction*%
%TD*%
%TA.AperFunction,Conductor*%
%TO.N,/MCU/EN_12V*%
G36*
X159458929Y-107303270D02*
G01*
X159462293Y-107310330D01*
X159473731Y-107420088D01*
X159503685Y-107499124D01*
X159514613Y-107523527D01*
X159515118Y-107524869D01*
X159551965Y-107644655D01*
X159551122Y-107653570D01*
X159544222Y-107659278D01*
X159543121Y-107659559D01*
X159361939Y-107696522D01*
X159357261Y-107696522D01*
X159175650Y-107659472D01*
X159168229Y-107654460D01*
X159166525Y-107645669D01*
X159166694Y-107644955D01*
X159166775Y-107644655D01*
X159188572Y-107564024D01*
X159189058Y-107562604D01*
X159215517Y-107499114D01*
X159241115Y-107435505D01*
X159253389Y-107378676D01*
X159257356Y-107310860D01*
X159261260Y-107302801D01*
X159269036Y-107299843D01*
X159450656Y-107299843D01*
X159458929Y-107303270D01*
G37*
%TD.AperFunction*%
%TD*%
%TA.AperFunction,Conductor*%
%TO.N,/MCU/EN_12V*%
G36*
X159548587Y-104249148D02*
G01*
X159651965Y-104402232D01*
X159653755Y-104411006D01*
X159653738Y-104411094D01*
X159617688Y-104589744D01*
X159612692Y-104597176D01*
X159603905Y-104598899D01*
X159602152Y-104598400D01*
X159549112Y-104578735D01*
X159546766Y-104577551D01*
X159496069Y-104544328D01*
X159495937Y-104544240D01*
X159461908Y-104521272D01*
X159428590Y-104511751D01*
X159415261Y-104507943D01*
X159415260Y-104507943D01*
X159387243Y-104516815D01*
X159363842Y-104535193D01*
X159355219Y-104537607D01*
X159348343Y-104534264D01*
X159220869Y-104406790D01*
X159217442Y-104398517D01*
X159220869Y-104390244D01*
X159221442Y-104389709D01*
X159260375Y-104355864D01*
X159262039Y-104354658D01*
X159302846Y-104330260D01*
X159305474Y-104329102D01*
X159382365Y-104306051D01*
X159382862Y-104305916D01*
X159437192Y-104292550D01*
X159533740Y-104245191D01*
X159542675Y-104244625D01*
X159548587Y-104249148D01*
G37*
%TD.AperFunction*%
%TD*%
%TA.AperFunction,Conductor*%
%TO.N,/MCU/EN_12V*%
G36*
X148996641Y-112786293D02*
G01*
X149077569Y-112808171D01*
X149078999Y-112808660D01*
X149142485Y-112835117D01*
X149206095Y-112860715D01*
X149235981Y-112867170D01*
X149262916Y-112872988D01*
X149262920Y-112872988D01*
X149262923Y-112872989D01*
X149330741Y-112876955D01*
X149338799Y-112880859D01*
X149341757Y-112888635D01*
X149341757Y-113070255D01*
X149338330Y-113078528D01*
X149331270Y-113081892D01*
X149221512Y-113093331D01*
X149142462Y-113123291D01*
X149118074Y-113134212D01*
X149116733Y-113134717D01*
X148996944Y-113171565D01*
X148988029Y-113170722D01*
X148982321Y-113163822D01*
X148982040Y-113162721D01*
X148945077Y-112981539D01*
X148945077Y-112976861D01*
X148963076Y-112888635D01*
X148982127Y-112795248D01*
X148987139Y-112787829D01*
X148995930Y-112786125D01*
X148996641Y-112786293D01*
G37*
%TD.AperFunction*%
%TD*%
%TA.AperFunction,Conductor*%
%TO.N,/MCU/PD_INT_N*%
G36*
X157933086Y-107591417D02*
G01*
X157934053Y-107591991D01*
X157940544Y-107596282D01*
X158088315Y-107693976D01*
X158091623Y-107697284D01*
X158193843Y-107851901D01*
X158195547Y-107860692D01*
X158190535Y-107868113D01*
X158189910Y-107868499D01*
X158117224Y-107910248D01*
X158115851Y-107910921D01*
X158052284Y-107937091D01*
X157989186Y-107963977D01*
X157989179Y-107963981D01*
X157940328Y-107995476D01*
X157940319Y-107995483D01*
X157889562Y-108040632D01*
X157881103Y-108043570D01*
X157873513Y-108040163D01*
X157745088Y-107911738D01*
X157741661Y-107903465D01*
X157744274Y-107896096D01*
X157813798Y-107810394D01*
X157848499Y-107733337D01*
X157858038Y-107708328D01*
X157858617Y-107707051D01*
X157917272Y-107596281D01*
X157924171Y-107590574D01*
X157933086Y-107591417D01*
G37*
%TD.AperFunction*%
%TD*%
%TA.AperFunction,Conductor*%
%TO.N,/MCU/PD_INT_N*%
G36*
X129476594Y-109205944D02*
G01*
X129604739Y-109334089D01*
X129608166Y-109342362D01*
X129605184Y-109350165D01*
X129523075Y-109441893D01*
X129472015Y-109522020D01*
X129407839Y-109625666D01*
X129400571Y-109630896D01*
X129391733Y-109629454D01*
X129391440Y-109629267D01*
X129236484Y-109526823D01*
X129233176Y-109523515D01*
X129131292Y-109369406D01*
X129129588Y-109360615D01*
X129134600Y-109353194D01*
X129135702Y-109352549D01*
X129216398Y-109311168D01*
X129218858Y-109310241D01*
X129291547Y-109291899D01*
X129375137Y-109267732D01*
X129418956Y-109241593D01*
X129460650Y-109205382D01*
X129469143Y-109202546D01*
X129476594Y-109205944D01*
G37*
%TD.AperFunction*%
%TD*%
%TA.AperFunction,Conductor*%
%TO.N,/MCU/PD_FAULT*%
G36*
X128923361Y-108590811D02*
G01*
X129051571Y-108719021D01*
X129054998Y-108727294D01*
X129052098Y-108735005D01*
X128974332Y-108823754D01*
X128937768Y-108885054D01*
X128928176Y-108901136D01*
X128919399Y-108915907D01*
X128860063Y-109015761D01*
X128852891Y-109021122D01*
X128844028Y-109019842D01*
X128843553Y-109019544D01*
X128688783Y-108917223D01*
X128685475Y-108913915D01*
X128583516Y-108759693D01*
X128581813Y-108750904D01*
X128586825Y-108743483D01*
X128587822Y-108742892D01*
X128667005Y-108701261D01*
X128669225Y-108700372D01*
X128740083Y-108680176D01*
X128819564Y-108654995D01*
X128864227Y-108627933D01*
X128907398Y-108590267D01*
X128915883Y-108587411D01*
X128923361Y-108590811D01*
G37*
%TD.AperFunction*%
%TD*%
%TA.AperFunction,Conductor*%
%TO.N,/MCU/PD_FAULT*%
G36*
X156563448Y-107447102D02*
G01*
X156601697Y-107478529D01*
X156642477Y-107496268D01*
X156722536Y-107496842D01*
X156753049Y-107493863D01*
X156754840Y-107493829D01*
X156845253Y-107499068D01*
X156853313Y-107502967D01*
X156856255Y-107511425D01*
X156856060Y-107512983D01*
X156820761Y-107694369D01*
X156818972Y-107698682D01*
X156715375Y-107852091D01*
X156707905Y-107857029D01*
X156699131Y-107855239D01*
X156698659Y-107854902D01*
X156589027Y-107772438D01*
X156587600Y-107771170D01*
X156514842Y-107694951D01*
X156419261Y-107592313D01*
X156416131Y-107583925D01*
X156419550Y-107576069D01*
X156547750Y-107447869D01*
X156556022Y-107444443D01*
X156563448Y-107447102D01*
G37*
%TD.AperFunction*%
%TD*%
%TA.AperFunction,Conductor*%
%TO.N,/MCU/PD_SDA*%
G36*
X139934749Y-109256527D02*
G01*
X139942170Y-109261539D01*
X139943874Y-109270330D01*
X139943705Y-109271044D01*
X139921831Y-109351960D01*
X139921336Y-109353408D01*
X139894883Y-109416884D01*
X139894857Y-109416948D01*
X139894856Y-109416951D01*
X139869286Y-109480490D01*
X139869285Y-109480492D01*
X139857011Y-109537316D01*
X139857010Y-109537325D01*
X139853044Y-109605140D01*
X139849140Y-109613199D01*
X139841364Y-109616157D01*
X139659744Y-109616157D01*
X139651471Y-109612730D01*
X139648107Y-109605670D01*
X139636668Y-109495912D01*
X139636668Y-109495910D01*
X139606717Y-109416885D01*
X139595783Y-109392466D01*
X139595281Y-109391132D01*
X139558434Y-109271344D01*
X139559277Y-109262429D01*
X139566177Y-109256721D01*
X139567271Y-109256441D01*
X139748462Y-109219477D01*
X139753138Y-109219477D01*
X139934749Y-109256527D01*
G37*
%TD.AperFunction*%
%TD*%
%TA.AperFunction,Conductor*%
%TO.N,/MCU/PD_SDA*%
G36*
X139850129Y-110554470D02*
G01*
X139853493Y-110561530D01*
X139864931Y-110671288D01*
X139894885Y-110750324D01*
X139905813Y-110774727D01*
X139906318Y-110776069D01*
X139943165Y-110895855D01*
X139942322Y-110904770D01*
X139935422Y-110910478D01*
X139934321Y-110910759D01*
X139753139Y-110947722D01*
X139748461Y-110947722D01*
X139566850Y-110910672D01*
X139559429Y-110905660D01*
X139557725Y-110896869D01*
X139557894Y-110896155D01*
X139557975Y-110895855D01*
X139579772Y-110815224D01*
X139580258Y-110813804D01*
X139606717Y-110750314D01*
X139632315Y-110686705D01*
X139644589Y-110629876D01*
X139648556Y-110562060D01*
X139652460Y-110554001D01*
X139660236Y-110551043D01*
X139841856Y-110551043D01*
X139850129Y-110554470D01*
G37*
%TD.AperFunction*%
%TD*%
%TA.AperFunction,Conductor*%
%TO.N,/Motor/Gate Driver/GATE_DRIVER_SDI*%
G36*
X136914477Y-99579580D02*
G01*
X136920089Y-99586558D01*
X136920324Y-99587504D01*
X136956818Y-99766391D01*
X136955114Y-99775182D01*
X136955055Y-99775270D01*
X136852888Y-99926810D01*
X136845422Y-99931755D01*
X136836647Y-99929971D01*
X136835751Y-99929303D01*
X136749688Y-99858349D01*
X136749079Y-99857809D01*
X136739013Y-99848208D01*
X136739012Y-99848207D01*
X136739010Y-99848205D01*
X136676556Y-99802552D01*
X136676555Y-99802551D01*
X136630391Y-99788731D01*
X136630390Y-99788730D01*
X136630387Y-99788730D01*
X136576354Y-99784706D01*
X136568358Y-99780674D01*
X136565523Y-99773038D01*
X136565523Y-99667609D01*
X136568950Y-99659336D01*
X136576189Y-99655956D01*
X136686389Y-99646205D01*
X136766719Y-99620083D01*
X136774991Y-99616862D01*
X136775918Y-99616547D01*
X136905575Y-99578614D01*
X136914477Y-99579580D01*
G37*
%TD.AperFunction*%
%TD*%
%TA.AperFunction,Conductor*%
%TO.N,/Motor/Gate Driver/GATE_DRIVER_SDI*%
G36*
X127394676Y-97191494D02*
G01*
X127481215Y-97219633D01*
X127483675Y-97220764D01*
X127548020Y-97259911D01*
X127624781Y-97302937D01*
X127673928Y-97315455D01*
X127728485Y-97319328D01*
X127736495Y-97323332D01*
X127739357Y-97330999D01*
X127739357Y-97436226D01*
X127735930Y-97444499D01*
X127728513Y-97447895D01*
X127672171Y-97452029D01*
X127622115Y-97465258D01*
X127547997Y-97507301D01*
X127494465Y-97540956D01*
X127492962Y-97541754D01*
X127446592Y-97562189D01*
X127444938Y-97562773D01*
X127394248Y-97576499D01*
X127385367Y-97575354D01*
X127379897Y-97568264D01*
X127379730Y-97567563D01*
X127342677Y-97385938D01*
X127342677Y-97381261D01*
X127354495Y-97323332D01*
X127379598Y-97200281D01*
X127384610Y-97192862D01*
X127393401Y-97191158D01*
X127394676Y-97191494D01*
G37*
%TD.AperFunction*%
%TD*%
%TA.AperFunction,Conductor*%
%TO.N,/Motor/Gate Driver/GATE_DRIVER_NSCS*%
G36*
X130714583Y-97283147D02*
G01*
X130715339Y-97284470D01*
X130756071Y-97367980D01*
X130757049Y-97370922D01*
X130771547Y-97447114D01*
X130793196Y-97538467D01*
X130793197Y-97538468D01*
X130817770Y-97580872D01*
X130851592Y-97620141D01*
X130854395Y-97628645D01*
X130851000Y-97636049D01*
X130795596Y-97691453D01*
X130787323Y-97694880D01*
X130779749Y-97692098D01*
X130736569Y-97655426D01*
X130736567Y-97655425D01*
X130736566Y-97655424D01*
X130690976Y-97630591D01*
X130690975Y-97630590D01*
X130690974Y-97630590D01*
X130655351Y-97622708D01*
X130606717Y-97611948D01*
X130597537Y-97610269D01*
X130535285Y-97598889D01*
X130533300Y-97598342D01*
X130487632Y-97581308D01*
X130485937Y-97580517D01*
X130442962Y-97556079D01*
X130437465Y-97549010D01*
X130438575Y-97540124D01*
X130438976Y-97539471D01*
X130541178Y-97384881D01*
X130544481Y-97381578D01*
X130698372Y-97279838D01*
X130707162Y-97278135D01*
X130714583Y-97283147D01*
G37*
%TD.AperFunction*%
%TD*%
%TA.AperFunction,Conductor*%
%TO.N,/Motor/Gate Driver/GATE_DRIVER_NSCS*%
G36*
X137613075Y-99721426D02*
G01*
X137613741Y-99721836D01*
X137759404Y-99818136D01*
X137768315Y-99824027D01*
X137771623Y-99827335D01*
X137873360Y-99981222D01*
X137875064Y-99990013D01*
X137870052Y-99997434D01*
X137868729Y-99998190D01*
X137785219Y-100038922D01*
X137782277Y-100039900D01*
X137706084Y-100054398D01*
X137614732Y-100076047D01*
X137614731Y-100076048D01*
X137572327Y-100100621D01*
X137572326Y-100100621D01*
X137533058Y-100134443D01*
X137524553Y-100137246D01*
X137517150Y-100133851D01*
X137461746Y-100078447D01*
X137458319Y-100070174D01*
X137461100Y-100062601D01*
X137497775Y-100019417D01*
X137522608Y-99973827D01*
X137541251Y-99889569D01*
X137554310Y-99818133D01*
X137554857Y-99816151D01*
X137571894Y-99770476D01*
X137572678Y-99768795D01*
X137597122Y-99725811D01*
X137604189Y-99720316D01*
X137613075Y-99721426D01*
G37*
%TD.AperFunction*%
%TD*%
%TA.AperFunction,Conductor*%
%TO.N,/Motor/Gate Driver/GATE_DRIVER_SDO*%
G36*
X125092353Y-92402118D02*
G01*
X125170023Y-92398580D01*
X125280732Y-92393106D01*
X125289162Y-92396120D01*
X125292994Y-92404214D01*
X125293008Y-92404792D01*
X125293008Y-92509272D01*
X125289581Y-92517545D01*
X125282873Y-92520867D01*
X125235166Y-92527305D01*
X125235163Y-92527306D01*
X125197746Y-92548621D01*
X125173338Y-92580298D01*
X125154626Y-92618988D01*
X125154432Y-92619372D01*
X125119229Y-92685814D01*
X125117058Y-92688713D01*
X125064348Y-92740109D01*
X125056032Y-92743431D01*
X125047803Y-92739900D01*
X125046479Y-92738272D01*
X124944944Y-92587670D01*
X124943160Y-92578895D01*
X124943181Y-92578791D01*
X124949336Y-92548621D01*
X124980035Y-92398140D01*
X124985046Y-92390722D01*
X124993041Y-92388885D01*
X125092353Y-92402118D01*
G37*
%TD.AperFunction*%
%TD*%
%TA.AperFunction,Conductor*%
%TO.N,/Motor/Gate Driver/GATE_DRIVER_SDO*%
G36*
X136420730Y-98260342D02*
G01*
X136463492Y-98297258D01*
X136508244Y-98323299D01*
X136590354Y-98345972D01*
X136652034Y-98360034D01*
X136653650Y-98360529D01*
X136700895Y-98378872D01*
X136702479Y-98379629D01*
X136748027Y-98405765D01*
X136753497Y-98412855D01*
X136752352Y-98421736D01*
X136751964Y-98422365D01*
X136649747Y-98576978D01*
X136646439Y-98580286D01*
X136492361Y-98682150D01*
X136483570Y-98683854D01*
X136476149Y-98678842D01*
X136475483Y-98677699D01*
X136434192Y-98596617D01*
X136433250Y-98594076D01*
X136429572Y-98578970D01*
X136415433Y-98520893D01*
X136391579Y-98436192D01*
X136365678Y-98392589D01*
X136329838Y-98351271D01*
X136327006Y-98342776D01*
X136330403Y-98335333D01*
X136404812Y-98260924D01*
X136413084Y-98257498D01*
X136420730Y-98260342D01*
G37*
%TD.AperFunction*%
%TD*%
%TA.AperFunction,Conductor*%
%TO.N,/Motor/Gate Driver/GATE_DRIVER_SCLK*%
G36*
X126795649Y-94675799D02*
G01*
X126851053Y-94731203D01*
X126854480Y-94739476D01*
X126851698Y-94747050D01*
X126815026Y-94790230D01*
X126790190Y-94835825D01*
X126790190Y-94835826D01*
X126780720Y-94878626D01*
X126771548Y-94920082D01*
X126771545Y-94920096D01*
X126771545Y-94920098D01*
X126758489Y-94991514D01*
X126757942Y-94993499D01*
X126740908Y-95039166D01*
X126740117Y-95040860D01*
X126715679Y-95083836D01*
X126708610Y-95089334D01*
X126699725Y-95088224D01*
X126699056Y-95087813D01*
X126544484Y-94985623D01*
X126541176Y-94982315D01*
X126439439Y-94828428D01*
X126437735Y-94819637D01*
X126442747Y-94812216D01*
X126444061Y-94811464D01*
X126527585Y-94770725D01*
X126530516Y-94769750D01*
X126606718Y-94755251D01*
X126698065Y-94733604D01*
X126740472Y-94709030D01*
X126779742Y-94675206D01*
X126788245Y-94672404D01*
X126795649Y-94675799D01*
G37*
%TD.AperFunction*%
%TD*%
%TA.AperFunction,Conductor*%
%TO.N,/Motor/Gate Driver/GATE_DRIVER_SCLK*%
G36*
X137131866Y-99061517D02*
G01*
X137132625Y-99062162D01*
X137175050Y-99098191D01*
X137220639Y-99123024D01*
X137304897Y-99141667D01*
X137376330Y-99154726D01*
X137378314Y-99155272D01*
X137423984Y-99172308D01*
X137425676Y-99173098D01*
X137468652Y-99197536D01*
X137474150Y-99204605D01*
X137473040Y-99213490D01*
X137472629Y-99214159D01*
X137370439Y-99368731D01*
X137367131Y-99372039D01*
X137213244Y-99473776D01*
X137204453Y-99475480D01*
X137197032Y-99470468D01*
X137196276Y-99469145D01*
X137155543Y-99385634D01*
X137154566Y-99382695D01*
X137140067Y-99306497D01*
X137118420Y-99215151D01*
X137118419Y-99215150D01*
X137118419Y-99215148D01*
X137118418Y-99215147D01*
X137093845Y-99172743D01*
X137093469Y-99172307D01*
X137067081Y-99141669D01*
X137060023Y-99133474D01*
X137057220Y-99124970D01*
X137060614Y-99117567D01*
X137116020Y-99062161D01*
X137124292Y-99058735D01*
X137131866Y-99061517D01*
G37*
%TD.AperFunction*%
%TD*%
%TA.AperFunction,Conductor*%
%TO.N,/Motor/Gate Driver/GATE_DRIVER_INLA*%
G36*
X141393850Y-102713901D02*
G01*
X141394609Y-102714546D01*
X141437034Y-102750575D01*
X141482623Y-102775408D01*
X141566881Y-102794051D01*
X141638314Y-102807110D01*
X141640298Y-102807656D01*
X141685968Y-102824692D01*
X141687660Y-102825482D01*
X141730636Y-102849920D01*
X141736134Y-102856989D01*
X141735024Y-102865874D01*
X141734613Y-102866543D01*
X141632423Y-103021115D01*
X141629115Y-103024423D01*
X141475228Y-103126160D01*
X141466437Y-103127864D01*
X141459016Y-103122852D01*
X141458260Y-103121529D01*
X141417527Y-103038018D01*
X141416550Y-103035079D01*
X141402051Y-102958881D01*
X141380404Y-102867535D01*
X141380403Y-102867534D01*
X141380403Y-102867532D01*
X141380402Y-102867531D01*
X141355829Y-102825127D01*
X141355453Y-102824691D01*
X141329065Y-102794053D01*
X141322007Y-102785858D01*
X141319204Y-102777354D01*
X141322598Y-102769951D01*
X141378004Y-102714545D01*
X141386276Y-102711119D01*
X141393850Y-102713901D01*
G37*
%TD.AperFunction*%
%TD*%
%TA.AperFunction,Conductor*%
%TO.N,/Motor/Gate Driver/GATE_DRIVER_INLA*%
G36*
X127514583Y-99683147D02*
G01*
X127515339Y-99684470D01*
X127556071Y-99767980D01*
X127557049Y-99770922D01*
X127571547Y-99847114D01*
X127593196Y-99938467D01*
X127593197Y-99938468D01*
X127617770Y-99980872D01*
X127651592Y-100020141D01*
X127654395Y-100028645D01*
X127651000Y-100036049D01*
X127595596Y-100091453D01*
X127587323Y-100094880D01*
X127579749Y-100092098D01*
X127536569Y-100055426D01*
X127536567Y-100055425D01*
X127536566Y-100055424D01*
X127490976Y-100030591D01*
X127490975Y-100030590D01*
X127490974Y-100030590D01*
X127455351Y-100022708D01*
X127406717Y-100011948D01*
X127397537Y-100010269D01*
X127335285Y-99998889D01*
X127333300Y-99998342D01*
X127287632Y-99981308D01*
X127285937Y-99980517D01*
X127242962Y-99956079D01*
X127237465Y-99949010D01*
X127238575Y-99940124D01*
X127238976Y-99939471D01*
X127341178Y-99784881D01*
X127344481Y-99781578D01*
X127498372Y-99679838D01*
X127507162Y-99678135D01*
X127514583Y-99683147D01*
G37*
%TD.AperFunction*%
%TD*%
%TA.AperFunction,Conductor*%
%TO.N,/Motor/Gate Driver/GATE_DRIVER_INHC*%
G36*
X141393850Y-102104301D02*
G01*
X141394609Y-102104946D01*
X141437034Y-102140975D01*
X141482623Y-102165808D01*
X141566881Y-102184451D01*
X141638314Y-102197510D01*
X141640298Y-102198056D01*
X141685968Y-102215092D01*
X141687660Y-102215882D01*
X141730636Y-102240320D01*
X141736134Y-102247389D01*
X141735024Y-102256274D01*
X141734613Y-102256943D01*
X141632423Y-102411515D01*
X141629115Y-102414823D01*
X141475228Y-102516560D01*
X141466437Y-102518264D01*
X141459016Y-102513252D01*
X141458260Y-102511929D01*
X141417527Y-102428418D01*
X141416550Y-102425479D01*
X141402051Y-102349281D01*
X141380404Y-102257935D01*
X141380403Y-102257934D01*
X141380403Y-102257932D01*
X141380402Y-102257931D01*
X141355829Y-102215527D01*
X141355453Y-102215091D01*
X141329065Y-102184453D01*
X141322007Y-102176258D01*
X141319204Y-102167754D01*
X141322598Y-102160351D01*
X141378004Y-102104945D01*
X141386276Y-102101519D01*
X141393850Y-102104301D01*
G37*
%TD.AperFunction*%
%TD*%
%TA.AperFunction,Conductor*%
%TO.N,/Motor/Gate Driver/GATE_DRIVER_INHC*%
G36*
X130714583Y-99683147D02*
G01*
X130715339Y-99684470D01*
X130756071Y-99767980D01*
X130757049Y-99770922D01*
X130771547Y-99847114D01*
X130793196Y-99938467D01*
X130793197Y-99938468D01*
X130817770Y-99980872D01*
X130851592Y-100020141D01*
X130854395Y-100028645D01*
X130851000Y-100036049D01*
X130795596Y-100091453D01*
X130787323Y-100094880D01*
X130779749Y-100092098D01*
X130736569Y-100055426D01*
X130736567Y-100055425D01*
X130736566Y-100055424D01*
X130690976Y-100030591D01*
X130690975Y-100030590D01*
X130690974Y-100030590D01*
X130655351Y-100022708D01*
X130606717Y-100011948D01*
X130597537Y-100010269D01*
X130535285Y-99998889D01*
X130533300Y-99998342D01*
X130487632Y-99981308D01*
X130485937Y-99980517D01*
X130442962Y-99956079D01*
X130437465Y-99949010D01*
X130438575Y-99940124D01*
X130438976Y-99939471D01*
X130541178Y-99784881D01*
X130544481Y-99781578D01*
X130698372Y-99679838D01*
X130707162Y-99678135D01*
X130714583Y-99683147D01*
G37*
%TD.AperFunction*%
%TD*%
M02*
