%TF.GenerationSoftware,KiCad,Pcbnew,9.0.1*%
%TF.CreationDate,2025-05-02T15:06:27-04:00*%
%TF.ProjectId,main_board,6d61696e-5f62-46f6-9172-642e6b696361,rev?*%
%TF.SameCoordinates,Original*%
%TF.FileFunction,Paste,Top*%
%TF.FilePolarity,Positive*%
%FSLAX46Y46*%
G04 Gerber Fmt 4.6, Leading zero omitted, Abs format (unit mm)*
G04 Created by KiCad (PCBNEW 9.0.1) date 2025-05-02 15:06:27*
%MOMM*%
%LPD*%
G01*
G04 APERTURE LIST*
G04 Aperture macros list*
%AMRoundRect*
0 Rectangle with rounded corners*
0 $1 Rounding radius*
0 $2 $3 $4 $5 $6 $7 $8 $9 X,Y pos of 4 corners*
0 Add a 4 corners polygon primitive as box body*
4,1,4,$2,$3,$4,$5,$6,$7,$8,$9,$2,$3,0*
0 Add four circle primitives for the rounded corners*
1,1,$1+$1,$2,$3*
1,1,$1+$1,$4,$5*
1,1,$1+$1,$6,$7*
1,1,$1+$1,$8,$9*
0 Add four rect primitives between the rounded corners*
20,1,$1+$1,$2,$3,$4,$5,0*
20,1,$1+$1,$4,$5,$6,$7,0*
20,1,$1+$1,$6,$7,$8,$9,0*
20,1,$1+$1,$8,$9,$2,$3,0*%
%AMRotRect*
0 Rectangle, with rotation*
0 The origin of the aperture is its center*
0 $1 length*
0 $2 width*
0 $3 Rotation angle, in degrees counterclockwise*
0 Add horizontal line*
21,1,$1,$2,0,0,$3*%
G04 Aperture macros list end*
%ADD10RoundRect,0.140000X-0.170000X0.140000X-0.170000X-0.140000X0.170000X-0.140000X0.170000X0.140000X0*%
%ADD11RoundRect,0.250000X0.325000X1.100000X-0.325000X1.100000X-0.325000X-1.100000X0.325000X-1.100000X0*%
%ADD12RoundRect,0.147500X-0.147500X-0.172500X0.147500X-0.172500X0.147500X0.172500X-0.147500X0.172500X0*%
%ADD13R,0.304800X0.762000*%
%ADD14R,2.438400X1.651000*%
%ADD15RoundRect,0.250000X-1.100000X0.325000X-1.100000X-0.325000X1.100000X-0.325000X1.100000X0.325000X0*%
%ADD16R,0.711200X0.228600*%
%ADD17RoundRect,0.140000X0.140000X0.170000X-0.140000X0.170000X-0.140000X-0.170000X0.140000X-0.170000X0*%
%ADD18R,1.854200X5.003800*%
%ADD19RoundRect,0.250000X-0.250000X-1.450000X0.250000X-1.450000X0.250000X1.450000X-0.250000X1.450000X0*%
%ADD20R,0.660000X0.420000*%
%ADD21R,0.570000X0.600000*%
%ADD22R,2.300000X2.400000*%
%ADD23RoundRect,0.140000X-0.140000X-0.170000X0.140000X-0.170000X0.140000X0.170000X-0.140000X0.170000X0*%
%ADD24RoundRect,0.140000X-0.219203X-0.021213X-0.021213X-0.219203X0.219203X0.021213X0.021213X0.219203X0*%
%ADD25RoundRect,0.135000X-0.135000X-0.185000X0.135000X-0.185000X0.135000X0.185000X-0.135000X0.185000X0*%
%ADD26C,0.400000*%
%ADD27RoundRect,0.250000X0.250000X1.450000X-0.250000X1.450000X-0.250000X-1.450000X0.250000X-1.450000X0*%
%ADD28R,0.600000X1.000000*%
%ADD29R,0.650000X0.350000*%
%ADD30RoundRect,0.135000X0.135000X0.185000X-0.135000X0.185000X-0.135000X-0.185000X0.135000X-0.185000X0*%
%ADD31R,1.350000X1.800000*%
%ADD32R,0.000001X0.000001*%
%ADD33O,0.400000X0.250000*%
%ADD34O,0.250000X0.400000*%
%ADD35RoundRect,0.250000X1.100000X-0.325000X1.100000X0.325000X-1.100000X0.325000X-1.100000X-0.325000X0*%
%ADD36RoundRect,0.135000X-0.185000X0.135000X-0.185000X-0.135000X0.185000X-0.135000X0.185000X0.135000X0*%
%ADD37RoundRect,0.140000X0.170000X-0.140000X0.170000X0.140000X-0.170000X0.140000X-0.170000X-0.140000X0*%
%ADD38RoundRect,0.018200X0.219203X0.377312X-0.377312X-0.219203X-0.219203X-0.377312X0.377312X0.219203X0*%
%ADD39RoundRect,0.018200X-0.219203X0.377312X-0.377312X0.219203X0.219203X-0.377312X0.377312X-0.219203X0*%
%ADD40RotRect,4.150000X4.150000X225.000000*%
%ADD41R,0.300000X1.250000*%
%ADD42R,2.300000X2.200000*%
%ADD43R,1.140000X0.600000*%
%ADD44R,1.140000X0.300000*%
%ADD45R,3.429000X2.489200*%
%ADD46R,0.558800X1.003300*%
%ADD47RoundRect,0.135000X0.185000X-0.135000X0.185000X0.135000X-0.185000X0.135000X-0.185000X-0.135000X0*%
G04 APERTURE END LIST*
D10*
%TO.C,C34*%
X143967200Y-110100850D03*
X143967200Y-111060850D03*
%TD*%
D11*
%TO.C,C20*%
X118113600Y-85039200D03*
X115163600Y-85039200D03*
%TD*%
D12*
%TO.C,U12*%
X87090000Y-55360400D03*
X88060000Y-55360400D03*
%TD*%
D13*
%TO.C,U18*%
X159190002Y-101384400D03*
X159840000Y-101384400D03*
X160490002Y-101384400D03*
X161140000Y-101384400D03*
X161140000Y-98438000D03*
X160490002Y-98438000D03*
X159840000Y-98438000D03*
X159190002Y-98438000D03*
D14*
X160165001Y-99911200D03*
%TD*%
D11*
%TO.C,C32*%
X118110000Y-78638400D03*
X115160000Y-78638400D03*
%TD*%
D15*
%TO.C,C7*%
X141732000Y-109743450D03*
X141732000Y-112693450D03*
%TD*%
D16*
%TO.C,U3*%
X132410200Y-104241600D03*
X132410200Y-104741726D03*
X132410200Y-105241852D03*
X132410200Y-105741978D03*
X134010400Y-105741978D03*
X134010400Y-105241852D03*
X134010400Y-104741726D03*
X134010400Y-104241600D03*
%TD*%
D12*
%TO.C,U21*%
X87090000Y-61330400D03*
X88060000Y-61330400D03*
%TD*%
D17*
%TO.C,C43*%
X122155799Y-96672400D03*
X121195799Y-96672400D03*
%TD*%
D18*
%TO.C,L2*%
X137045700Y-110032800D03*
X132600700Y-110032800D03*
%TD*%
D11*
%TO.C,C19*%
X118113600Y-97840800D03*
X115163600Y-97840800D03*
%TD*%
D17*
%TO.C,C42*%
X160624800Y-102502000D03*
X159664800Y-102502000D03*
%TD*%
D19*
%TO.C,R30*%
X119747600Y-83921600D03*
X121247600Y-83921600D03*
%TD*%
D20*
%TO.C,U11*%
X152044800Y-84413200D03*
X152044800Y-85063200D03*
X152044800Y-85703200D03*
X152044800Y-86353200D03*
X155244800Y-86353200D03*
X155244800Y-85703200D03*
X155244800Y-85063200D03*
X155244800Y-84413200D03*
D21*
X153394800Y-83933200D03*
X153394800Y-86833200D03*
D22*
X154044800Y-85383200D03*
%TD*%
D23*
%TO.C,C53*%
X126113600Y-113182400D03*
X127073600Y-113182400D03*
%TD*%
D24*
%TO.C,C45*%
X135398189Y-98517389D03*
X136077011Y-99196211D03*
%TD*%
D19*
%TO.C,R28*%
X144538000Y-85410800D03*
X146038000Y-85410800D03*
%TD*%
D11*
%TO.C,C16*%
X118113600Y-91440000D03*
X115163600Y-91440000D03*
%TD*%
D20*
%TO.C,U16*%
X127133600Y-84578000D03*
X127133600Y-85228000D03*
X127133600Y-85868000D03*
X127133600Y-86518000D03*
X130333600Y-86518000D03*
X130333600Y-85868000D03*
X130333600Y-85228000D03*
X130333600Y-84578000D03*
D21*
X128483600Y-84098000D03*
X128483600Y-86998000D03*
D22*
X129133600Y-85548000D03*
%TD*%
D13*
%TO.C,U10*%
X120700800Y-95504000D03*
X121350798Y-95504000D03*
X122000800Y-95504000D03*
X122650798Y-95504000D03*
X122650798Y-92557600D03*
X122000800Y-92557600D03*
X121350798Y-92557600D03*
X120700800Y-92557600D03*
D14*
X121675799Y-94030800D03*
%TD*%
D10*
%TO.C,C35*%
X145897600Y-94312800D03*
X145897600Y-95272800D03*
%TD*%
D25*
%TO.C,R13*%
X127963200Y-113182400D03*
X128983200Y-113182400D03*
%TD*%
%TO.C,R19*%
X159634800Y-97320400D03*
X160654800Y-97320400D03*
%TD*%
%TO.C,R38*%
X159634800Y-106299000D03*
X160654800Y-106299000D03*
%TD*%
D26*
%TO.C,U7*%
X124943200Y-99783600D03*
X124943200Y-98983600D03*
X124943200Y-98183600D03*
X124943200Y-97383600D03*
X124943200Y-96583600D03*
X124943200Y-95783600D03*
X124943200Y-94983600D03*
X124943200Y-94183600D03*
X124943200Y-93383600D03*
X124943200Y-92583600D03*
X125743200Y-99783600D03*
X125743200Y-98983600D03*
X125743200Y-98183600D03*
X125743200Y-97383600D03*
X125743200Y-96583600D03*
X125743200Y-95783600D03*
X125743200Y-94983600D03*
X125743200Y-94183600D03*
X125743200Y-93383600D03*
X125743200Y-92583600D03*
X126543200Y-99783600D03*
X126543200Y-98983600D03*
X126543200Y-98183600D03*
X126543200Y-97383600D03*
X126543200Y-96583600D03*
X126543200Y-95783600D03*
X126543200Y-94983600D03*
X126543200Y-94183600D03*
X126543200Y-93383600D03*
X126543200Y-92583600D03*
X127343200Y-99783600D03*
X127343200Y-98983600D03*
X127343200Y-98183600D03*
X127343200Y-97383600D03*
X127343200Y-96583600D03*
X127343200Y-95783600D03*
X127343200Y-94983600D03*
X127343200Y-94183600D03*
X127343200Y-93383600D03*
X127343200Y-92583600D03*
X128143200Y-99783600D03*
X128143200Y-98983600D03*
X128143200Y-98183600D03*
X128143200Y-97383600D03*
X128143200Y-96583600D03*
X128143200Y-95783600D03*
X128143200Y-94983600D03*
X128143200Y-94183600D03*
X128143200Y-93383600D03*
X128143200Y-92583600D03*
X128943200Y-99783600D03*
X128943200Y-98983600D03*
X128943200Y-98183600D03*
X128943200Y-97383600D03*
X128943200Y-96583600D03*
X128943200Y-95783600D03*
X128943200Y-94983600D03*
X128943200Y-94183600D03*
X128943200Y-93383600D03*
X128943200Y-92583600D03*
X129743200Y-99783600D03*
X129743200Y-98983600D03*
X129743200Y-98183600D03*
X129743200Y-97383600D03*
X129743200Y-96583600D03*
X129743200Y-95783600D03*
X129743200Y-94983600D03*
X129743200Y-94183600D03*
X129743200Y-93383600D03*
X129743200Y-92583600D03*
X130543200Y-99783600D03*
X130543200Y-98983600D03*
X130543200Y-98183600D03*
X130543200Y-97383600D03*
X130543200Y-96583600D03*
X130543200Y-95783600D03*
X130543200Y-94983600D03*
X130543200Y-94183600D03*
X130543200Y-93383600D03*
X130543200Y-92583600D03*
X131343200Y-99783600D03*
X131343200Y-98983600D03*
X131343200Y-98183600D03*
X131343200Y-97383600D03*
X131343200Y-96583600D03*
X131343200Y-95783600D03*
X131343200Y-94983600D03*
X131343200Y-94183600D03*
X131343200Y-93383600D03*
X131343200Y-92583600D03*
X132143200Y-99783600D03*
X132143200Y-98983600D03*
X132143200Y-98183600D03*
X132143200Y-97383600D03*
X132143200Y-96583600D03*
X132143200Y-95783600D03*
X132143200Y-94983600D03*
X132143200Y-94183600D03*
X132143200Y-93383600D03*
X132143200Y-92583600D03*
%TD*%
D25*
%TO.C,R37*%
X159634800Y-104407000D03*
X160654800Y-104407000D03*
%TD*%
D23*
%TO.C,C29*%
X161957600Y-105372200D03*
X162917600Y-105372200D03*
%TD*%
D12*
%TO.C,U19*%
X87090000Y-57350400D03*
X88060000Y-57350400D03*
%TD*%
%TO.C,U20*%
X87090000Y-59340400D03*
X88060000Y-59340400D03*
%TD*%
D27*
%TO.C,R29*%
X141974000Y-85410800D03*
X140474000Y-85410800D03*
%TD*%
D28*
%TO.C,U5*%
X123390200Y-106052500D03*
X123390200Y-107252500D03*
X124165200Y-106052500D03*
X124165200Y-107252500D03*
D29*
X122227700Y-105677500D03*
X122227700Y-106327500D03*
X122227700Y-106977500D03*
X122227700Y-107627500D03*
X125327700Y-107627500D03*
X125327700Y-106977500D03*
X125327700Y-106327500D03*
X125327700Y-105677500D03*
%TD*%
D30*
%TO.C,R39*%
X160654800Y-103441800D03*
X159634800Y-103441800D03*
%TD*%
D31*
%TO.C,S1*%
X157749400Y-104788000D03*
X153599400Y-104788000D03*
%TD*%
D20*
%TO.C,U15*%
X138956800Y-86488000D03*
X138956800Y-85838000D03*
X138956800Y-85198000D03*
X138956800Y-84548000D03*
X135756800Y-84548000D03*
X135756800Y-85198000D03*
X135756800Y-85838000D03*
X135756800Y-86488000D03*
D21*
X137606800Y-86968000D03*
X137606800Y-84068000D03*
D22*
X136956800Y-85518000D03*
%TD*%
D32*
%TO.C,U1*%
X126275000Y-109950000D03*
X126275000Y-110375000D03*
X126275000Y-110800000D03*
X126275000Y-111225000D03*
X126700000Y-109950000D03*
X126700000Y-110375000D03*
X126700000Y-110800000D03*
X126700000Y-111225000D03*
X127125000Y-109950000D03*
X127125000Y-110375000D03*
X127125000Y-110800000D03*
X127125000Y-111225000D03*
X127550000Y-109950000D03*
X127550000Y-110375000D03*
X127550000Y-110800000D03*
X127550000Y-111225000D03*
D33*
X125612500Y-109837500D03*
X125612500Y-110337500D03*
X125612500Y-110837500D03*
X125612500Y-111337500D03*
D34*
X126162500Y-111887500D03*
X126662500Y-111887500D03*
X127162500Y-111887500D03*
X127662500Y-111887500D03*
D33*
X128212500Y-111337500D03*
X128212500Y-110837500D03*
X128212500Y-110337500D03*
X128212500Y-109837500D03*
D34*
X127662500Y-109287500D03*
X127162500Y-109287500D03*
X126662500Y-109287500D03*
X126162500Y-109287500D03*
%TD*%
D35*
%TO.C,C8*%
X129032000Y-106123000D03*
X129032000Y-103173000D03*
%TD*%
D11*
%TO.C,C40*%
X118111800Y-88239600D03*
X115161800Y-88239600D03*
%TD*%
D10*
%TO.C,C55*%
X148844000Y-110111600D03*
X148844000Y-111071600D03*
%TD*%
D17*
%TO.C,C44*%
X160624800Y-105372200D03*
X159664800Y-105372200D03*
%TD*%
D35*
%TO.C,C6*%
X151282400Y-97690200D03*
X151282400Y-94740200D03*
%TD*%
D36*
%TO.C,R12*%
X150723600Y-110081600D03*
X150723600Y-111101600D03*
%TD*%
D20*
%TO.C,U13*%
X147574400Y-84413200D03*
X147574400Y-85063200D03*
X147574400Y-85703200D03*
X147574400Y-86353200D03*
X150774400Y-86353200D03*
X150774400Y-85703200D03*
X150774400Y-85063200D03*
X150774400Y-84413200D03*
D21*
X148924400Y-83933200D03*
X148924400Y-86833200D03*
D22*
X149574400Y-85383200D03*
%TD*%
D37*
%TO.C,C22*%
X144983200Y-95272800D03*
X144983200Y-94312800D03*
%TD*%
D20*
%TO.C,U14*%
X134486400Y-86497600D03*
X134486400Y-85847600D03*
X134486400Y-85207600D03*
X134486400Y-84557600D03*
X131286400Y-84557600D03*
X131286400Y-85207600D03*
X131286400Y-85847600D03*
X131286400Y-86497600D03*
D21*
X133136400Y-86977600D03*
X133136400Y-84077600D03*
D22*
X132486400Y-85527600D03*
%TD*%
D35*
%TO.C,C5*%
X136550400Y-105615000D03*
X136550400Y-102665000D03*
%TD*%
D11*
%TO.C,C18*%
X118110000Y-94640400D03*
X115160000Y-94640400D03*
%TD*%
D23*
%TO.C,C21*%
X144960400Y-96164400D03*
X145920400Y-96164400D03*
%TD*%
D38*
%TO.C,U8*%
X142777690Y-95374955D03*
X142424136Y-95021401D03*
X142070583Y-94667848D03*
X141717029Y-94314295D03*
X141363476Y-93960741D03*
X141009923Y-93607188D03*
X140656369Y-93253635D03*
X140302816Y-92900081D03*
X139949263Y-92546528D03*
X139595709Y-92192974D03*
D39*
X138626973Y-92192974D03*
X138273419Y-92546528D03*
X137919866Y-92900081D03*
X137566313Y-93253635D03*
X137212759Y-93607188D03*
X136859206Y-93960741D03*
X136505653Y-94314295D03*
X136152099Y-94667848D03*
X135798546Y-95021401D03*
X135444992Y-95374955D03*
D38*
X135444992Y-96343691D03*
X135798546Y-96697245D03*
X136152099Y-97050798D03*
X136505653Y-97404351D03*
X136859206Y-97757905D03*
X137212759Y-98111458D03*
X137566313Y-98465011D03*
X137919866Y-98818565D03*
X138273419Y-99172118D03*
X138626973Y-99525672D03*
D39*
X139595709Y-99525672D03*
X139949263Y-99172118D03*
X140302816Y-98818565D03*
X140656369Y-98465011D03*
X141009923Y-98111458D03*
X141363476Y-97757905D03*
X141717029Y-97404351D03*
X142070583Y-97050798D03*
X142424136Y-96697245D03*
X142777690Y-96343691D03*
D40*
X139111341Y-95859323D03*
%TD*%
D11*
%TO.C,C31*%
X118113600Y-81838800D03*
X115163600Y-81838800D03*
%TD*%
D31*
%TO.C,S2*%
X152966600Y-112166400D03*
X157116600Y-112166400D03*
%TD*%
D25*
%TO.C,R18*%
X121165799Y-91389200D03*
X122185799Y-91389200D03*
%TD*%
D41*
%TO.C,U22*%
X134687200Y-76137600D03*
X134187200Y-76137600D03*
X133687200Y-76137600D03*
X133187200Y-76137600D03*
X132687200Y-76137600D03*
X132187200Y-76137600D03*
X131687200Y-76137600D03*
X131187200Y-76137600D03*
X130687200Y-76137600D03*
X130187200Y-76137600D03*
X129687200Y-76137600D03*
X129187200Y-76137600D03*
X128687200Y-76137600D03*
X128187200Y-76137600D03*
X127687200Y-76137600D03*
X127187200Y-76137600D03*
X126687200Y-76137600D03*
X126187200Y-76137600D03*
X125687200Y-76137600D03*
X125187200Y-76137600D03*
X124687200Y-76137600D03*
X124187200Y-76137600D03*
X123687200Y-76137600D03*
X123187200Y-76137600D03*
X122687200Y-76137600D03*
X122187200Y-76137600D03*
X121687200Y-76137600D03*
X121187200Y-76137600D03*
X120687200Y-76137600D03*
X120187200Y-76137600D03*
X119687200Y-76137600D03*
X119187200Y-76137600D03*
X118687200Y-76137600D03*
X118187200Y-76137600D03*
X117687200Y-76137600D03*
D42*
X115787200Y-73417600D03*
X136587200Y-73417600D03*
%TD*%
D43*
%TO.C,USB1*%
X120032800Y-101244800D03*
X120032800Y-102044800D03*
D44*
X120032800Y-103194800D03*
X120032800Y-104194800D03*
X120032800Y-104694800D03*
X120032800Y-105694800D03*
D43*
X120032800Y-107644800D03*
X120032800Y-106844800D03*
D44*
X120032800Y-106194800D03*
X120032800Y-105194800D03*
X120032800Y-103694800D03*
X120032800Y-102694800D03*
%TD*%
D45*
%TO.C,L1*%
X146507200Y-100108000D03*
X146507200Y-105543600D03*
%TD*%
D20*
%TO.C,U17*%
X122764800Y-84577200D03*
X122764800Y-85227200D03*
X122764800Y-85867200D03*
X122764800Y-86517200D03*
X125964800Y-86517200D03*
X125964800Y-85867200D03*
X125964800Y-85227200D03*
X125964800Y-84577200D03*
D21*
X124114800Y-84097200D03*
X124114800Y-86997200D03*
D22*
X124764800Y-85547200D03*
%TD*%
D46*
%TO.C,U2*%
X147457201Y-109812500D03*
X146507200Y-109812500D03*
X145557199Y-109812500D03*
X145557199Y-112568400D03*
X146507200Y-112568400D03*
X147457201Y-112568400D03*
%TD*%
D23*
%TO.C,C56*%
X161957600Y-106299000D03*
X162917600Y-106299000D03*
%TD*%
D47*
%TO.C,R35*%
X149758400Y-111101600D03*
X149758400Y-110081600D03*
%TD*%
D15*
%TO.C,C24*%
X148031200Y-94740200D03*
X148031200Y-97690200D03*
%TD*%
D37*
%TO.C,C36*%
X131165600Y-104823200D03*
X131165600Y-103863200D03*
%TD*%
M02*
