%TF.GenerationSoftware,KiCad,Pcbnew,9.0.1*%
%TF.CreationDate,2025-05-01T00:05:03-04:00*%
%TF.ProjectId,main_board,6d61696e-5f62-46f6-9172-642e6b696361,rev?*%
%TF.SameCoordinates,Original*%
%TF.FileFunction,Copper,L1,Top*%
%TF.FilePolarity,Positive*%
%FSLAX46Y46*%
G04 Gerber Fmt 4.6, Leading zero omitted, Abs format (unit mm)*
G04 Created by KiCad (PCBNEW 9.0.1) date 2025-05-01 00:05:03*
%MOMM*%
%LPD*%
G01*
G04 APERTURE LIST*
G04 Aperture macros list*
%AMRoundRect*
0 Rectangle with rounded corners*
0 $1 Rounding radius*
0 $2 $3 $4 $5 $6 $7 $8 $9 X,Y pos of 4 corners*
0 Add a 4 corners polygon primitive as box body*
4,1,4,$2,$3,$4,$5,$6,$7,$8,$9,$2,$3,0*
0 Add four circle primitives for the rounded corners*
1,1,$1+$1,$2,$3*
1,1,$1+$1,$4,$5*
1,1,$1+$1,$6,$7*
1,1,$1+$1,$8,$9*
0 Add four rect primitives between the rounded corners*
20,1,$1+$1,$2,$3,$4,$5,0*
20,1,$1+$1,$4,$5,$6,$7,0*
20,1,$1+$1,$6,$7,$8,$9,0*
20,1,$1+$1,$8,$9,$2,$3,0*%
%AMRotRect*
0 Rectangle, with rotation*
0 The origin of the aperture is its center*
0 $1 length*
0 $2 width*
0 $3 Rotation angle, in degrees counterclockwise*
0 Add horizontal line*
21,1,$1,$2,0,0,$3*%
G04 Aperture macros list end*
%TA.AperFunction,ComponentPad*%
%ADD10C,3.800000*%
%TD*%
%TA.AperFunction,SMDPad,CuDef*%
%ADD11RoundRect,0.140000X-0.170000X0.140000X-0.170000X-0.140000X0.170000X-0.140000X0.170000X0.140000X0*%
%TD*%
%TA.AperFunction,SMDPad,CuDef*%
%ADD12RoundRect,0.250000X-0.325000X-1.100000X0.325000X-1.100000X0.325000X1.100000X-0.325000X1.100000X0*%
%TD*%
%TA.AperFunction,SMDPad,CuDef*%
%ADD13RoundRect,0.147500X-0.147500X-0.172500X0.147500X-0.172500X0.147500X0.172500X-0.147500X0.172500X0*%
%TD*%
%TA.AperFunction,SMDPad,CuDef*%
%ADD14R,0.304800X0.762000*%
%TD*%
%TA.AperFunction,SMDPad,CuDef*%
%ADD15R,2.438400X1.651000*%
%TD*%
%TA.AperFunction,SMDPad,CuDef*%
%ADD16R,0.711200X0.228600*%
%TD*%
%TA.AperFunction,SMDPad,CuDef*%
%ADD17R,1.854200X5.003800*%
%TD*%
%TA.AperFunction,SMDPad,CuDef*%
%ADD18RoundRect,0.140000X0.140000X0.170000X-0.140000X0.170000X-0.140000X-0.170000X0.140000X-0.170000X0*%
%TD*%
%TA.AperFunction,SMDPad,CuDef*%
%ADD19RoundRect,0.250000X-0.250000X-1.450000X0.250000X-1.450000X0.250000X1.450000X-0.250000X1.450000X0*%
%TD*%
%TA.AperFunction,SMDPad,CuDef*%
%ADD20R,0.660000X0.420000*%
%TD*%
%TA.AperFunction,SMDPad,CuDef*%
%ADD21R,0.570000X0.600000*%
%TD*%
%TA.AperFunction,SMDPad,CuDef*%
%ADD22R,2.300000X2.400000*%
%TD*%
%TA.AperFunction,SMDPad,CuDef*%
%ADD23RoundRect,0.140000X-0.140000X-0.170000X0.140000X-0.170000X0.140000X0.170000X-0.140000X0.170000X0*%
%TD*%
%TA.AperFunction,SMDPad,CuDef*%
%ADD24RoundRect,0.140000X-0.219203X-0.021213X-0.021213X-0.219203X0.219203X0.021213X0.021213X0.219203X0*%
%TD*%
%TA.AperFunction,SMDPad,CuDef*%
%ADD25R,1.651000X2.438400*%
%TD*%
%TA.AperFunction,SMDPad,CuDef*%
%ADD26R,0.762000X0.304800*%
%TD*%
%TA.AperFunction,SMDPad,CuDef*%
%ADD27RoundRect,0.135000X-0.135000X-0.185000X0.135000X-0.185000X0.135000X0.185000X-0.135000X0.185000X0*%
%TD*%
%TA.AperFunction,BGAPad,CuDef*%
%ADD28C,0.400000*%
%TD*%
%TA.AperFunction,SMDPad,CuDef*%
%ADD29RoundRect,0.250000X0.250000X1.450000X-0.250000X1.450000X-0.250000X-1.450000X0.250000X-1.450000X0*%
%TD*%
%TA.AperFunction,SMDPad,CuDef*%
%ADD30R,0.650000X0.350000*%
%TD*%
%TA.AperFunction,SMDPad,CuDef*%
%ADD31R,1.550000X2.400000*%
%TD*%
%TA.AperFunction,SMDPad,CuDef*%
%ADD32RoundRect,0.135000X0.135000X0.185000X-0.135000X0.185000X-0.135000X-0.185000X0.135000X-0.185000X0*%
%TD*%
%TA.AperFunction,SMDPad,CuDef*%
%ADD33R,1.350000X1.800000*%
%TD*%
%TA.AperFunction,SMDPad,CuDef*%
%ADD34O,0.400000X0.250000*%
%TD*%
%TA.AperFunction,SMDPad,CuDef*%
%ADD35O,0.250000X0.400000*%
%TD*%
%TA.AperFunction,SMDPad,CuDef*%
%ADD36R,1.700000X1.700000*%
%TD*%
%TA.AperFunction,SMDPad,CuDef*%
%ADD37RoundRect,0.250000X1.100000X-0.325000X1.100000X0.325000X-1.100000X0.325000X-1.100000X-0.325000X0*%
%TD*%
%TA.AperFunction,SMDPad,CuDef*%
%ADD38RoundRect,0.250000X-0.312500X-1.075000X0.312500X-1.075000X0.312500X1.075000X-0.312500X1.075000X0*%
%TD*%
%TA.AperFunction,SMDPad,CuDef*%
%ADD39RoundRect,0.140000X0.170000X-0.140000X0.170000X0.140000X-0.170000X0.140000X-0.170000X-0.140000X0*%
%TD*%
%TA.AperFunction,SMDPad,CuDef*%
%ADD40RoundRect,0.250000X1.075000X-0.312500X1.075000X0.312500X-1.075000X0.312500X-1.075000X-0.312500X0*%
%TD*%
%TA.AperFunction,SMDPad,CuDef*%
%ADD41R,0.300000X1.250000*%
%TD*%
%TA.AperFunction,SMDPad,CuDef*%
%ADD42R,2.300000X2.200000*%
%TD*%
%TA.AperFunction,SMDPad,CuDef*%
%ADD43RoundRect,0.018200X0.219203X0.377312X-0.377312X-0.219203X-0.219203X-0.377312X0.377312X0.219203X0*%
%TD*%
%TA.AperFunction,SMDPad,CuDef*%
%ADD44RoundRect,0.018200X-0.219203X0.377312X-0.377312X0.219203X0.219203X-0.377312X0.377312X-0.219203X0*%
%TD*%
%TA.AperFunction,SMDPad,CuDef*%
%ADD45RotRect,4.150000X4.150000X225.000000*%
%TD*%
%TA.AperFunction,SMDPad,CuDef*%
%ADD46RoundRect,0.135000X0.185000X-0.135000X0.185000X0.135000X-0.185000X0.135000X-0.185000X-0.135000X0*%
%TD*%
%TA.AperFunction,ComponentPad*%
%ADD47C,0.600000*%
%TD*%
%TA.AperFunction,ComponentPad*%
%ADD48O,1.900000X1.000000*%
%TD*%
%TA.AperFunction,ComponentPad*%
%ADD49O,1.600000X1.000000*%
%TD*%
%TA.AperFunction,SMDPad,CuDef*%
%ADD50R,1.140000X0.600000*%
%TD*%
%TA.AperFunction,SMDPad,CuDef*%
%ADD51R,1.140000X0.300000*%
%TD*%
%TA.AperFunction,SMDPad,CuDef*%
%ADD52R,3.429000X2.489200*%
%TD*%
%TA.AperFunction,SMDPad,CuDef*%
%ADD53R,0.558800X1.003300*%
%TD*%
%TA.AperFunction,SMDPad,CuDef*%
%ADD54RoundRect,0.250000X-1.100000X0.325000X-1.100000X-0.325000X1.100000X-0.325000X1.100000X0.325000X0*%
%TD*%
%TA.AperFunction,ComponentPad*%
%ADD55C,2.300000*%
%TD*%
%TA.AperFunction,ComponentPad*%
%ADD56C,1.700000*%
%TD*%
%TA.AperFunction,ViaPad*%
%ADD57C,0.400000*%
%TD*%
%TA.AperFunction,ViaPad*%
%ADD58C,1.000000*%
%TD*%
%TA.AperFunction,ViaPad*%
%ADD59C,0.500000*%
%TD*%
%TA.AperFunction,ViaPad*%
%ADD60C,0.350000*%
%TD*%
%TA.AperFunction,Conductor*%
%ADD61C,0.304800*%
%TD*%
%TA.AperFunction,Conductor*%
%ADD62C,0.203200*%
%TD*%
%TA.AperFunction,Conductor*%
%ADD63C,0.100000*%
%TD*%
%TA.AperFunction,Conductor*%
%ADD64C,0.076200*%
%TD*%
%TA.AperFunction,Conductor*%
%ADD65C,0.158242*%
%TD*%
%TA.AperFunction,Conductor*%
%ADD66C,0.200000*%
%TD*%
%TA.AperFunction,Conductor*%
%ADD67C,0.431800*%
%TD*%
%TA.AperFunction,Conductor*%
%ADD68C,0.127000*%
%TD*%
G04 APERTURE END LIST*
D10*
%TO.P,REF\u002A\u002A,1*%
%TO.N,N/C*%
X117000000Y-112000000D03*
%TD*%
D11*
%TO.P,C35,2*%
%TO.N,GND*%
X145440400Y-94561600D03*
%TO.P,C35,1*%
%TO.N,VBUS*%
X145440400Y-93601600D03*
%TD*%
%TO.P,C34,1*%
%TO.N,VBUS*%
X143967200Y-110100850D03*
%TO.P,C34,2*%
%TO.N,GND*%
X143967200Y-111060850D03*
%TD*%
D12*
%TO.P,C14,1*%
%TO.N,VBUS*%
X56997600Y-67564000D03*
%TO.P,C14,2*%
%TO.N,GND*%
X59947600Y-67564000D03*
%TD*%
%TO.P,C20,1*%
%TO.N,VBUS*%
X68297600Y-67564000D03*
%TO.P,C20,2*%
%TO.N,GND*%
X71247600Y-67564000D03*
%TD*%
D13*
%TO.P,U12,1*%
%TO.N,GND*%
X87090000Y-55360400D03*
%TO.P,U12,2*%
%TO.N,unconnected-(U12-Pad2)*%
X88060000Y-55360400D03*
%TD*%
D10*
%TO.P,REF\u002A\u002A,1*%
%TO.N,N/C*%
X161000000Y-76000000D03*
%TD*%
D14*
%TO.P,U18,1,TXD*%
%TO.N,/CAN Transceiver1/CAN_TX*%
X158760402Y-101193600D03*
%TO.P,U18,2,GND*%
%TO.N,GND*%
X159410400Y-101193600D03*
%TO.P,U18,3,VCC*%
%TO.N,+3V3*%
X160060402Y-101193600D03*
%TO.P,U18,4,RXD*%
%TO.N,/CAN Transceiver1/CAN_RX*%
X160710400Y-101193600D03*
%TO.P,U18,5,VIO*%
%TO.N,+3V3*%
X160710400Y-98247200D03*
%TO.P,U18,6,CANL*%
%TO.N,/CAN_N*%
X160060402Y-98247200D03*
%TO.P,U18,7,CANH*%
%TO.N,/CAN_P*%
X159410400Y-98247200D03*
%TO.P,U18,8,S*%
%TO.N,GND*%
X158760402Y-98247200D03*
D15*
%TO.P,U18,9,EPAD*%
X159735401Y-99720400D03*
%TD*%
D12*
%TO.P,C32,1*%
%TO.N,VBUS*%
X73947600Y-71814000D03*
%TO.P,C32,2*%
%TO.N,GND*%
X76897600Y-71814000D03*
%TD*%
D16*
%TO.P,U3,1,RT*%
%TO.N,unconnected-(U3-RT-Pad1)*%
X132410200Y-104241600D03*
%TO.P,U3,2,EN*%
%TO.N,VBUS*%
X132410200Y-104741726D03*
%TO.P,U3,3,VIN*%
X132410200Y-105241852D03*
%TO.P,U3,4,GND*%
%TO.N,GND*%
X132410200Y-105741978D03*
%TO.P,U3,5,SW*%
%TO.N,Net-(U3-SW)*%
X134010400Y-105741978D03*
%TO.P,U3,6,BST*%
%TO.N,Net-(U3-BST)*%
X134010400Y-105241852D03*
%TO.P,U3,7,SS*%
%TO.N,Net-(U3-SS)*%
X134010400Y-104741726D03*
%TO.P,U3,8,FB*%
%TO.N,Net-(U3-FB)*%
X134010400Y-104241600D03*
%TD*%
D10*
%TO.P,REF\u002A\u002A,1*%
%TO.N,N/C*%
X161000000Y-112000000D03*
%TD*%
D12*
%TO.P,C23,1*%
%TO.N,VBUS*%
X68297600Y-71814000D03*
%TO.P,C23,2*%
%TO.N,GND*%
X71247600Y-71814000D03*
%TD*%
D13*
%TO.P,U21,1*%
%TO.N,GND*%
X87090000Y-61330400D03*
%TO.P,U21,2*%
%TO.N,unconnected-(U21-Pad2)*%
X88060000Y-61330400D03*
%TD*%
D11*
%TO.P,C43,1*%
%TO.N,+3V3*%
X122326400Y-95796603D03*
%TO.P,C43,2*%
%TO.N,GND*%
X122326400Y-96756603D03*
%TD*%
D10*
%TO.P,REF\u002A\u002A,1*%
%TO.N,N/C*%
X117000000Y-81000000D03*
%TD*%
D17*
%TO.P,L2,1*%
%TO.N,+3V3*%
X137045700Y-110032800D03*
%TO.P,L2,2*%
%TO.N,Net-(U3-SW)*%
X132600700Y-110032800D03*
%TD*%
D12*
%TO.P,C19,1*%
%TO.N,VBUS*%
X62647600Y-76064000D03*
%TO.P,C19,2*%
%TO.N,GND*%
X65597600Y-76064000D03*
%TD*%
D18*
%TO.P,C42,1*%
%TO.N,+3V3*%
X160040201Y-102362000D03*
%TO.P,C42,2*%
%TO.N,GND*%
X159080201Y-102362000D03*
%TD*%
D19*
%TO.P,R30,1*%
%TO.N,GND*%
X115074000Y-85953600D03*
%TO.P,R30,2*%
%TO.N,/Motor/Gate Driver/H_BRIDGE_SPC*%
X116574000Y-85953600D03*
%TD*%
D20*
%TO.P,U11,1*%
%TO.N,/Motor/Gate Driver/H_BRIDGE_SHA*%
X151272800Y-84989797D03*
%TO.P,U11,2*%
X151272800Y-85639797D03*
%TO.P,U11,3*%
X151272800Y-86279797D03*
%TO.P,U11,4*%
%TO.N,/Motor/Gate Driver/H_BRIDGE_GHA*%
X151272800Y-86929797D03*
%TO.P,U11,5*%
%TO.N,VBUS*%
X154472800Y-86929797D03*
%TO.P,U11,6*%
X154472800Y-86279797D03*
%TO.P,U11,7*%
X154472800Y-85639797D03*
%TO.P,U11,8*%
X154472800Y-84989797D03*
D21*
%TO.P,U11,9*%
X152622800Y-84509797D03*
%TO.P,U11,10*%
X152622800Y-87409797D03*
D22*
%TO.P,U11,11*%
X153272800Y-85959797D03*
%TD*%
D23*
%TO.P,C53,1*%
%TO.N,+3V3*%
X125420000Y-113200000D03*
%TO.P,C53,2*%
%TO.N,GND*%
X126380000Y-113200000D03*
%TD*%
D24*
%TO.P,C45,1*%
%TO.N,+3V3*%
X135194989Y-99126989D03*
%TO.P,C45,2*%
%TO.N,GND*%
X135873811Y-99805811D03*
%TD*%
D19*
%TO.P,R28,1*%
%TO.N,GND*%
X143541600Y-85987397D03*
%TO.P,R28,2*%
%TO.N,/Motor/Gate Driver/H_BRIDGE_SPA*%
X145041600Y-85987397D03*
%TD*%
D12*
%TO.P,C16,1*%
%TO.N,VBUS*%
X56997600Y-76064000D03*
%TO.P,C16,2*%
%TO.N,GND*%
X59947600Y-76064000D03*
%TD*%
D20*
%TO.P,U16,1*%
%TO.N,/Motor/Gate Driver/H_BRIDGE_SHC*%
X122955600Y-84900597D03*
%TO.P,U16,2*%
X122955600Y-85550597D03*
%TO.P,U16,3*%
X122955600Y-86190597D03*
%TO.P,U16,4*%
%TO.N,/Motor/Gate Driver/H_BRIDGE_GHC*%
X122955600Y-86840597D03*
%TO.P,U16,5*%
%TO.N,VBUS*%
X126155600Y-86840597D03*
%TO.P,U16,6*%
X126155600Y-86190597D03*
%TO.P,U16,7*%
X126155600Y-85550597D03*
%TO.P,U16,8*%
X126155600Y-84900597D03*
D21*
%TO.P,U16,9*%
X124305600Y-84420597D03*
%TO.P,U16,10*%
X124305600Y-87320597D03*
D22*
%TO.P,U16,11*%
X124955600Y-85870597D03*
%TD*%
D12*
%TO.P,C28,1*%
%TO.N,VBUS*%
X68297600Y-76064000D03*
%TO.P,C28,2*%
%TO.N,GND*%
X71247600Y-76064000D03*
%TD*%
D25*
%TO.P,U10,9,EPAD*%
%TO.N,GND*%
X119684800Y-96276603D03*
D26*
%TO.P,U10,8,S*%
X118211600Y-97251602D03*
%TO.P,U10,7,CANH*%
%TO.N,/CAN_P*%
X118211600Y-96601604D03*
%TO.P,U10,6,CANL*%
%TO.N,/CAN_N*%
X118211600Y-95951602D03*
%TO.P,U10,5,VIO*%
%TO.N,+3V3*%
X118211600Y-95301604D03*
%TO.P,U10,4,RXD*%
%TO.N,/CAN Transceiver/CAN_RX*%
X121158000Y-95301604D03*
%TO.P,U10,3,VCC*%
%TO.N,+3V3*%
X121158000Y-95951602D03*
%TO.P,U10,2,GND*%
%TO.N,GND*%
X121158000Y-96601604D03*
%TO.P,U10,1,TXD*%
%TO.N,/CAN Transceiver/CAN_TX*%
X121158000Y-97251602D03*
%TD*%
D27*
%TO.P,R13,1*%
%TO.N,Net-(U1-ADDR{slash}ORIENT)*%
X128522000Y-113182400D03*
%TO.P,R13,2*%
%TO.N,GND*%
X129542000Y-113182400D03*
%TD*%
%TO.P,R19,1*%
%TO.N,/CAN_P*%
X159205200Y-97129600D03*
%TO.P,R19,2*%
%TO.N,/CAN_N*%
X160225200Y-97129600D03*
%TD*%
%TO.P,R38,1*%
%TO.N,+3V3*%
X159021200Y-106311400D03*
%TO.P,R38,2*%
%TO.N,Net-(U6-EN)*%
X160041200Y-106311400D03*
%TD*%
D28*
%TO.P,U7,A1,PE4*%
%TO.N,unconnected-(U7B-PE4-PadA1)*%
X124943200Y-99783600D03*
%TO.P,U7,A2,PB9*%
%TO.N,unconnected-(U7A-PB9-PadA2)*%
X124943200Y-98983600D03*
%TO.P,U7,A3,PB8-BOOT0*%
%TO.N,unconnected-(U7A-PB8-BOOT0-PadA3)*%
X124943200Y-98183600D03*
%TO.P,U7,A4,PB6*%
%TO.N,/CAN Transceiver/CAN_TX*%
X124943200Y-97383600D03*
%TO.P,U7,A5,PB3*%
%TO.N,unconnected-(U7A-PB3-PadA5)*%
X124943200Y-96583600D03*
%TO.P,U7,A6,PD6*%
%TO.N,unconnected-(U7A-PD6-PadA6)*%
X124943200Y-95783600D03*
%TO.P,U7,A7,PD5*%
%TO.N,unconnected-(U7A-PD5-PadA7)*%
X124943200Y-94983600D03*
%TO.P,U7,A8,PD4*%
%TO.N,unconnected-(U7A-PD4-PadA8)*%
X124943200Y-94183600D03*
%TO.P,U7,A9,PD1*%
%TO.N,unconnected-(U7A-PD1-PadA9)*%
X124943200Y-93383600D03*
%TO.P,U7,A10,PC12*%
%TO.N,/Motor/Gate Driver/GATE_DRIVER_SDO*%
X124943200Y-92583600D03*
%TO.P,U7,B1,PE5*%
%TO.N,unconnected-(U7B-PE5-PadB1)*%
X125743200Y-99783600D03*
%TO.P,U7,B2,PE3*%
%TO.N,unconnected-(U7B-PE3-PadB2)*%
X125743200Y-98983600D03*
%TO.P,U7,B3,PE1*%
%TO.N,unconnected-(U7B-PE1-PadB3)*%
X125743200Y-98183600D03*
%TO.P,U7,B4,PB7*%
%TO.N,unconnected-(U7A-PB7-PadB4)*%
X125743200Y-97383600D03*
%TO.P,U7,B5,PB5*%
%TO.N,/CAN Transceiver/CAN_RX*%
X125743200Y-96583600D03*
%TO.P,U7,B6,PD7*%
%TO.N,unconnected-(U7A-PD7-PadB6)*%
X125743200Y-95783600D03*
%TO.P,U7,B7,PD2*%
%TO.N,unconnected-(U7A-PD2-PadB7)*%
X125743200Y-94983600D03*
%TO.P,U7,B8,PD0*%
%TO.N,unconnected-(U7A-PD0-PadB8)*%
X125743200Y-94183600D03*
%TO.P,U7,B9,PA15*%
%TO.N,unconnected-(U7A-PA15-PadB9)*%
X125743200Y-93383600D03*
%TO.P,U7,B10,PA14*%
%TO.N,unconnected-(U7A-PA14-PadB10)*%
X125743200Y-92583600D03*
%TO.P,U7,C1,PC14-OSC32_IN*%
%TO.N,/Motor/Gate Driver/GATE_DRIVER_ENABLE*%
X126543200Y-99783600D03*
%TO.P,U7,C2,PE6*%
%TO.N,unconnected-(U7B-PE6-PadC2)*%
X126543200Y-98983600D03*
%TO.P,U7,C3,PE2*%
%TO.N,unconnected-(U7B-PE2-PadC3)*%
X126543200Y-98183600D03*
%TO.P,U7,C4,PE0*%
%TO.N,unconnected-(U7B-PE0-PadC4)*%
X126543200Y-97383600D03*
%TO.P,U7,C5,PB4*%
%TO.N,unconnected-(U7A-PB4-PadC5)*%
X126543200Y-96583600D03*
%TO.P,U7,C6,PD3*%
%TO.N,unconnected-(U7A-PD3-PadC6)*%
X126543200Y-95783600D03*
%TO.P,U7,C7,PC11*%
%TO.N,/Motor/Gate Driver/GATE_DRIVER_SCLK*%
X126543200Y-94983600D03*
%TO.P,U7,C8,PC10*%
%TO.N,unconnected-(U7A-PC10-PadC8)*%
X126543200Y-94183600D03*
%TO.P,U7,C9,PA12*%
%TO.N,unconnected-(U7A-PA12-PadC9)*%
X126543200Y-93383600D03*
%TO.P,U7,C10,PA11*%
%TO.N,/Expansion Port/ENCODER_SCL*%
X126543200Y-92583600D03*
%TO.P,U7,D1,PC15-OSC32_OUT*%
%TO.N,/Motor/Gate Driver/GATE_DRIVER_INLA*%
X127343200Y-99783600D03*
%TO.P,U7,D2,VSS*%
%TO.N,GND*%
X127343200Y-98983600D03*
%TO.P,U7,D3,VBAT*%
%TO.N,+3V3*%
X127343200Y-98183600D03*
%TO.P,U7,D4,PC13*%
%TO.N,/Motor/Gate Driver/GATE_DRIVER_SDI*%
X127343200Y-97383600D03*
%TO.P,U7,D5,VDD*%
%TO.N,+3V3*%
X127343200Y-96583600D03*
%TO.P,U7,D6,VSS*%
%TO.N,GND*%
X127343200Y-95783600D03*
%TO.P,U7,D7,VDD*%
%TO.N,+3V3*%
X127343200Y-94983600D03*
%TO.P,U7,D8,PA13*%
%TO.N,unconnected-(U7A-PA13-PadD8)*%
X127343200Y-94183600D03*
%TO.P,U7,D9,PA10*%
%TO.N,/Expansion Port/ENCODER_SDA*%
X127343200Y-93383600D03*
%TO.P,U7,D10,PA9*%
%TO.N,unconnected-(U7A-PA9-PadD10)*%
X127343200Y-92583600D03*
%TO.P,U7,E1,PF0-OSC_IN*%
%TO.N,unconnected-(U7B-PF0-OSC_IN-PadE1)*%
X128143200Y-99783600D03*
%TO.P,U7,E2,PF1-OSC_OUT*%
%TO.N,unconnected-(U7B-PF1-OSC_OUT-PadE2)*%
X128143200Y-98983600D03*
%TO.P,U7,E3,PF9*%
%TO.N,unconnected-(U7B-PF9-PadE3)*%
X128143200Y-98183600D03*
%TO.P,U7,E4,PF10*%
%TO.N,unconnected-(U7B-PF10-PadE4)*%
X128143200Y-97383600D03*
%TO.P,U7,E5,VSS*%
%TO.N,GND*%
X128143200Y-96583600D03*
%TO.P,U7,E6,VSS*%
X128143200Y-95783600D03*
%TO.P,U7,E7,VSS*%
X128143200Y-94983600D03*
%TO.P,U7,E8,PC8*%
%TO.N,unconnected-(U7A-PC8-PadE8)*%
X128143200Y-94183600D03*
%TO.P,U7,E9,PC9*%
%TO.N,unconnected-(U7A-PC9-PadE9)*%
X128143200Y-93383600D03*
%TO.P,U7,E10,PA8*%
%TO.N,unconnected-(U7A-PA8-PadE10)*%
X128143200Y-92583600D03*
%TO.P,U7,F1,PC2*%
%TO.N,unconnected-(U7A-PC2-PadF1)*%
X128943200Y-99783600D03*
%TO.P,U7,F2,PC0*%
%TO.N,unconnected-(U7A-PC0-PadF2)*%
X128943200Y-98983600D03*
%TO.P,U7,F3,PG10-NRST*%
%TO.N,/MCU/STM32_EN*%
X128943200Y-98183600D03*
%TO.P,U7,F4,PC1*%
%TO.N,unconnected-(U7A-PC1-PadF4)*%
X128943200Y-97383600D03*
%TO.P,U7,F5,VDD*%
%TO.N,+3V3*%
X128943200Y-96583600D03*
%TO.P,U7,F6,VSS*%
%TO.N,GND*%
X128943200Y-95783600D03*
%TO.P,U7,F7,VDD*%
%TO.N,+3V3*%
X128943200Y-94983600D03*
%TO.P,U7,F8,PD14*%
%TO.N,unconnected-(U7A-PD14-PadF8)*%
X128943200Y-94183600D03*
%TO.P,U7,F9,PC6*%
%TO.N,unconnected-(U7A-PC6-PadF9)*%
X128943200Y-93383600D03*
%TO.P,U7,F10,PC7*%
%TO.N,unconnected-(U7A-PC7-PadF10)*%
X128943200Y-92583600D03*
%TO.P,U7,G1,PC3*%
%TO.N,unconnected-(U7A-PC3-PadG1)*%
X129743200Y-99783600D03*
%TO.P,U7,G2,PA1*%
%TO.N,/Motor/Gate Driver/GATE_DRIVER_INHB*%
X129743200Y-98983600D03*
%TO.P,U7,G3,PF2*%
%TO.N,unconnected-(U7B-PF2-PadG3)*%
X129743200Y-98183600D03*
%TO.P,U7,G4,PA0*%
%TO.N,/Motor/Gate Driver/GATE_DRIVER_INHA*%
X129743200Y-97383600D03*
%TO.P,U7,G5,PE7*%
%TO.N,unconnected-(U7B-PE7-PadG5)*%
X129743200Y-96583600D03*
%TO.P,U7,G6,PE12*%
%TO.N,unconnected-(U7B-PE12-PadG6)*%
X129743200Y-95783600D03*
%TO.P,U7,G7,PD10*%
%TO.N,unconnected-(U7A-PD10-PadG7)*%
X129743200Y-94983600D03*
%TO.P,U7,G8,PD9*%
%TO.N,unconnected-(U7A-PD9-PadG8)*%
X129743200Y-94183600D03*
%TO.P,U7,G9,PD13*%
%TO.N,unconnected-(U7A-PD13-PadG9)*%
X129743200Y-93383600D03*
%TO.P,U7,G10,PD15*%
%TO.N,unconnected-(U7A-PD15-PadG10)*%
X129743200Y-92583600D03*
%TO.P,U7,H1,PA2*%
%TO.N,/Motor/Gate Driver/GATE_DRIVER_INHC*%
X130543200Y-99783600D03*
%TO.P,U7,H2,PA4*%
%TO.N,unconnected-(U7A-PA4-PadH2)*%
X130543200Y-98983600D03*
%TO.P,U7,H3,PA3*%
%TO.N,/Motor/Gate Driver/MOTOR_A_CURRENT_SENSE*%
X130543200Y-98183600D03*
%TO.P,U7,H4,PB0*%
%TO.N,/Motor/Gate Driver/GATE_DRIVER_NSCS*%
X130543200Y-97383600D03*
%TO.P,U7,H5,PE8*%
%TO.N,unconnected-(U7B-PE8-PadH5)*%
X130543200Y-96583600D03*
%TO.P,U7,H6,PE9*%
%TO.N,unconnected-(U7B-PE9-PadH6)*%
X130543200Y-95783600D03*
%TO.P,U7,H7,PE15*%
%TO.N,unconnected-(U7B-PE15-PadH7)*%
X130543200Y-94983600D03*
%TO.P,U7,H8,PB11*%
%TO.N,unconnected-(U7A-PB11-PadH8)*%
X130543200Y-94183600D03*
%TO.P,U7,H9,PB14*%
%TO.N,unconnected-(U7A-PB14-PadH9)*%
X130543200Y-93383600D03*
%TO.P,U7,H10,PD11*%
%TO.N,unconnected-(U7A-PD11-PadH10)*%
X130543200Y-92583600D03*
%TO.P,U7,J1,PA5*%
%TO.N,unconnected-(U7A-PA5-PadJ1)*%
X131343200Y-99783600D03*
%TO.P,U7,J2,PA6*%
%TO.N,/Motor/Gate Driver/MOTOR_B_CURRENT_SENSE*%
X131343200Y-98983600D03*
%TO.P,U7,J3,PC5*%
%TO.N,unconnected-(U7A-PC5-PadJ3)*%
X131343200Y-98183600D03*
%TO.P,U7,J4,PB2*%
%TO.N,unconnected-(U7A-PB2-PadJ4)*%
X131343200Y-97383600D03*
%TO.P,U7,J5,VDDA*%
%TO.N,+3V3*%
X131343200Y-96583600D03*
%TO.P,U7,J6,PE11*%
%TO.N,unconnected-(U7B-PE11-PadJ6)*%
X131343200Y-95783600D03*
%TO.P,U7,J7,PE14*%
%TO.N,unconnected-(U7B-PE14-PadJ7)*%
X131343200Y-94983600D03*
%TO.P,U7,J8,PB10*%
%TO.N,unconnected-(U7A-PB10-PadJ8)*%
X131343200Y-94183600D03*
%TO.P,U7,J9,PB13*%
%TO.N,/Motor/Gate Driver/GATE_DRIVER_NFAULT*%
X131343200Y-93383600D03*
%TO.P,U7,J10,PD12*%
%TO.N,unconnected-(U7A-PD12-PadJ10)*%
X131343200Y-92583600D03*
%TO.P,U7,K1,PA7*%
%TO.N,unconnected-(U7A-PA7-PadK1)*%
X132143200Y-99783600D03*
%TO.P,U7,K2,PC4*%
%TO.N,unconnected-(U7A-PC4-PadK2)*%
X132143200Y-98983600D03*
%TO.P,U7,K3,PB1*%
%TO.N,/Motor/Gate Driver/MOTOR_C_CURRENT_SENSE*%
X132143200Y-98183600D03*
%TO.P,U7,K4,VSSA*%
%TO.N,GND*%
X132143200Y-97383600D03*
%TO.P,U7,K5,VREF+*%
%TO.N,+3V3*%
X132143200Y-96583600D03*
%TO.P,U7,K6,PE10*%
%TO.N,unconnected-(U7B-PE10-PadK6)*%
X132143200Y-95783600D03*
%TO.P,U7,K7,PE13*%
%TO.N,unconnected-(U7B-PE13-PadK7)*%
X132143200Y-94983600D03*
%TO.P,U7,K8,PB12*%
%TO.N,unconnected-(U7A-PB12-PadK8)*%
X132143200Y-94183600D03*
%TO.P,U7,K9,PB15*%
%TO.N,unconnected-(U7A-PB15-PadK9)*%
X132143200Y-93383600D03*
%TO.P,U7,K10,PD8*%
%TO.N,unconnected-(U7A-PD8-PadK10)*%
X132143200Y-92583600D03*
%TD*%
D27*
%TO.P,R37,1*%
%TO.N,/MCU/EN_12V*%
X159021200Y-104419400D03*
%TO.P,R37,2*%
%TO.N,GND*%
X160041200Y-104419400D03*
%TD*%
D12*
%TO.P,C17,1*%
%TO.N,VBUS*%
X62647600Y-67564000D03*
%TO.P,C17,2*%
%TO.N,GND*%
X65597600Y-67564000D03*
%TD*%
D23*
%TO.P,C29,1*%
%TO.N,+3V3*%
X161324800Y-105384600D03*
%TO.P,C29,2*%
%TO.N,GND*%
X162284800Y-105384600D03*
%TD*%
D13*
%TO.P,U19,1*%
%TO.N,GND*%
X87090000Y-57350400D03*
%TO.P,U19,2*%
%TO.N,unconnected-(U19-Pad2)*%
X88060000Y-57350400D03*
%TD*%
D12*
%TO.P,C15,1*%
%TO.N,VBUS*%
X56997600Y-71814000D03*
%TO.P,C15,2*%
%TO.N,GND*%
X59947600Y-71814000D03*
%TD*%
D13*
%TO.P,U20,1*%
%TO.N,GND*%
X87090000Y-59340400D03*
%TO.P,U20,2*%
%TO.N,unconnected-(U20-Pad2)*%
X88060000Y-59340400D03*
%TD*%
D29*
%TO.P,R29,1*%
%TO.N,GND*%
X140793600Y-85987397D03*
%TO.P,R29,2*%
%TO.N,/Motor/Gate Driver/H_BRIDGE_SPB*%
X139293600Y-85987397D03*
%TD*%
D30*
%TO.P,U5,1*%
%TO.N,/Power/VBUS_IN*%
X122227700Y-105677500D03*
%TO.P,U5,2*%
X122227700Y-106327500D03*
%TO.P,U5,3*%
X122227700Y-106977500D03*
%TO.P,U5,4*%
%TO.N,Net-(D4-A)*%
X122227700Y-107627500D03*
%TO.P,U5,5*%
%TO.N,VBUS*%
X125327700Y-107627500D03*
%TO.P,U5,6*%
X125327700Y-106977500D03*
%TO.P,U5,7*%
X125327700Y-106327500D03*
%TO.P,U5,8*%
X125327700Y-105677500D03*
D31*
%TO.P,U5,9*%
X123777700Y-106652500D03*
%TD*%
D32*
%TO.P,R39,1*%
%TO.N,+3V3*%
X160041200Y-103454200D03*
%TO.P,R39,2*%
%TO.N,Net-(U6-IO0)*%
X159021200Y-103454200D03*
%TD*%
D33*
%TO.P,S1,1*%
%TO.N,Net-(U6-EN)*%
X157034200Y-104317800D03*
%TO.P,S1,2*%
%TO.N,GND*%
X152884200Y-104317800D03*
%TD*%
D20*
%TO.P,U15,1*%
%TO.N,/Motor/Gate Driver/H_BRIDGE_SPB*%
X137554000Y-87064597D03*
%TO.P,U15,2*%
X137554000Y-86414597D03*
%TO.P,U15,3*%
X137554000Y-85774597D03*
%TO.P,U15,4*%
%TO.N,/Motor/Gate Driver/H_BRIDGE_GLB*%
X137554000Y-85124597D03*
%TO.P,U15,5*%
%TO.N,/Motor/Gate Driver/H_BRIDGE_SHB*%
X134354000Y-85124597D03*
%TO.P,U15,6*%
X134354000Y-85774597D03*
%TO.P,U15,7*%
X134354000Y-86414597D03*
%TO.P,U15,8*%
X134354000Y-87064597D03*
D21*
%TO.P,U15,9*%
X136204000Y-87544597D03*
%TO.P,U15,10*%
X136204000Y-84644597D03*
D22*
%TO.P,U15,11*%
X135554000Y-86094597D03*
%TD*%
D34*
%TO.P,U1,1,D+*%
%TO.N,/MCU/USB_D+*%
X125612500Y-109837500D03*
%TO.P,U1,2,D-*%
%TO.N,/MCU/USB_D-*%
X125612500Y-110337500D03*
%TO.P,U1,3,CC1*%
%TO.N,Net-(U1-CC1)*%
X125612500Y-110837500D03*
%TO.P,U1,4,CC2*%
%TO.N,Net-(U1-CC2)*%
X125612500Y-111337500D03*
D35*
%TO.P,U1,5,VDD*%
%TO.N,+3V3*%
X126162500Y-111887500D03*
%TO.P,U1,6,DEBUG_N*%
%TO.N,unconnected-(U1-DEBUG_N-Pad6)*%
X126662500Y-111887500D03*
%TO.P,U1,7,EN_HVDCP/OUT1*%
%TO.N,unconnected-(U1-EN_HVDCP{slash}OUT1-Pad7)*%
X127162500Y-111887500D03*
%TO.P,U1,8,ADDR/ORIENT*%
%TO.N,Net-(U1-ADDR{slash}ORIENT)*%
X127662500Y-111887500D03*
D34*
%TO.P,U1,9,SDA/SNK_VSET*%
%TO.N,/MCU/PD_SDA*%
X128212500Y-111337500D03*
%TO.P,U1,10,SCL/SNK_ISET*%
%TO.N,/MCU/PD_SCL*%
X128212500Y-110837500D03*
%TO.P,U1,11,INT_N*%
%TO.N,/MCU/PD_INT_N*%
X128212500Y-110337500D03*
%TO.P,U1,12,EN_N*%
%TO.N,GND*%
X128212500Y-109837500D03*
D35*
%TO.P,U1,13,FAULT/OUT2*%
%TO.N,/MCU/PD_FAULT*%
X127662500Y-109287500D03*
%TO.P,U1,14,FLGIN*%
%TO.N,unconnected-(U1-FLGIN-Pad14)*%
X127162500Y-109287500D03*
%TO.P,U1,15,GATE*%
%TO.N,/Power/VBUS_SWITCH_GATE*%
X126662500Y-109287500D03*
%TO.P,U1,16,VBUS*%
%TO.N,/Power/VBUS_IN*%
X126162500Y-109287500D03*
D36*
%TO.P,U1,17,GND*%
%TO.N,GND*%
X126912500Y-110587500D03*
%TD*%
D37*
%TO.P,C8,1*%
%TO.N,VBUS*%
X129032000Y-106123000D03*
%TO.P,C8,2*%
%TO.N,GND*%
X129032000Y-103173000D03*
%TD*%
D12*
%TO.P,C33,1*%
%TO.N,VBUS*%
X73947600Y-76064000D03*
%TO.P,C33,2*%
%TO.N,GND*%
X76897600Y-76064000D03*
%TD*%
D18*
%TO.P,C44,1*%
%TO.N,Net-(U6-EN)*%
X160011200Y-105384600D03*
%TO.P,C44,2*%
%TO.N,GND*%
X159051200Y-105384600D03*
%TD*%
D38*
%TO.P,C6,1*%
%TO.N,+12V*%
X152156700Y-96723200D03*
%TO.P,C6,2*%
%TO.N,GND*%
X155081700Y-96723200D03*
%TD*%
D20*
%TO.P,U13,1*%
%TO.N,/Motor/Gate Driver/H_BRIDGE_SPA*%
X146802400Y-84989797D03*
%TO.P,U13,2*%
X146802400Y-85639797D03*
%TO.P,U13,3*%
X146802400Y-86279797D03*
%TO.P,U13,4*%
%TO.N,/Motor/Gate Driver/H_BRIDGE_GLA*%
X146802400Y-86929797D03*
%TO.P,U13,5*%
%TO.N,/Motor/Gate Driver/H_BRIDGE_SHA*%
X150002400Y-86929797D03*
%TO.P,U13,6*%
X150002400Y-86279797D03*
%TO.P,U13,7*%
X150002400Y-85639797D03*
%TO.P,U13,8*%
X150002400Y-84989797D03*
D21*
%TO.P,U13,9*%
X148152400Y-84509797D03*
%TO.P,U13,10*%
X148152400Y-87409797D03*
D22*
%TO.P,U13,11*%
X148802400Y-85959797D03*
%TD*%
D39*
%TO.P,C22,1*%
%TO.N,VBUS*%
X144475200Y-95323600D03*
%TO.P,C22,2*%
%TO.N,Net-(U8-VCP)*%
X144475200Y-94363600D03*
%TD*%
D20*
%TO.P,U14,1*%
%TO.N,/Motor/Gate Driver/H_BRIDGE_SHB*%
X132931600Y-87074197D03*
%TO.P,U14,2*%
X132931600Y-86424197D03*
%TO.P,U14,3*%
X132931600Y-85784197D03*
%TO.P,U14,4*%
%TO.N,/Motor/Gate Driver/H_BRIDGE_GHB*%
X132931600Y-85134197D03*
%TO.P,U14,5*%
%TO.N,VBUS*%
X129731600Y-85134197D03*
%TO.P,U14,6*%
X129731600Y-85784197D03*
%TO.P,U14,7*%
X129731600Y-86424197D03*
%TO.P,U14,8*%
X129731600Y-87074197D03*
D21*
%TO.P,U14,9*%
X131581600Y-87554197D03*
%TO.P,U14,10*%
X131581600Y-84654197D03*
D22*
%TO.P,U14,11*%
X130931600Y-86104197D03*
%TD*%
D40*
%TO.P,C5,1*%
%TO.N,+3V3*%
X136550400Y-105602500D03*
%TO.P,C5,2*%
%TO.N,GND*%
X136550400Y-102677500D03*
%TD*%
D12*
%TO.P,C18,1*%
%TO.N,VBUS*%
X62647600Y-71814000D03*
%TO.P,C18,2*%
%TO.N,GND*%
X65597600Y-71814000D03*
%TD*%
D41*
%TO.P,U9,1,1*%
%TO.N,unconnected-(U9-Pad1)*%
X134687200Y-76950400D03*
%TO.P,U9,2,2*%
%TO.N,unconnected-(U9-Pad2)*%
X134187200Y-76950400D03*
%TO.P,U9,3,3*%
%TO.N,unconnected-(U9-Pad3)*%
X133687200Y-76950400D03*
%TO.P,U9,4,4*%
%TO.N,unconnected-(U9-Pad4)*%
X133187200Y-76950400D03*
%TO.P,U9,5,5*%
%TO.N,unconnected-(U9-Pad5)*%
X132687200Y-76950400D03*
%TO.P,U9,6,6*%
%TO.N,unconnected-(U9-Pad6)*%
X132187200Y-76950400D03*
%TO.P,U9,7,7*%
%TO.N,unconnected-(U9-Pad7)*%
X131687200Y-76950400D03*
%TO.P,U9,8,8*%
%TO.N,unconnected-(U9-Pad8)*%
X131187200Y-76950400D03*
%TO.P,U9,9,9*%
%TO.N,unconnected-(U9-Pad9)*%
X130687200Y-76950400D03*
%TO.P,U9,10,10*%
%TO.N,unconnected-(U9-Pad10)*%
X130187200Y-76950400D03*
%TO.P,U9,11,11*%
%TO.N,unconnected-(U9-Pad11)*%
X129687200Y-76950400D03*
%TO.P,U9,12,12*%
%TO.N,unconnected-(U9-Pad12)*%
X129187200Y-76950400D03*
%TO.P,U9,13,13*%
%TO.N,unconnected-(U9-Pad13)*%
X128687200Y-76950400D03*
%TO.P,U9,14,14*%
%TO.N,unconnected-(U9-Pad14)*%
X128187200Y-76950400D03*
%TO.P,U9,15,15*%
%TO.N,unconnected-(U9-Pad15)*%
X127687200Y-76950400D03*
%TO.P,U9,16,16*%
%TO.N,unconnected-(U9-Pad16)*%
X127187200Y-76950400D03*
%TO.P,U9,17,17*%
%TO.N,unconnected-(U9-Pad17)*%
X126687200Y-76950400D03*
%TO.P,U9,18,18*%
%TO.N,unconnected-(U9-Pad18)*%
X126187200Y-76950400D03*
%TO.P,U9,19,19*%
%TO.N,unconnected-(U9-Pad19)*%
X125687200Y-76950400D03*
%TO.P,U9,20,20*%
%TO.N,unconnected-(U9-Pad20)*%
X125187200Y-76950400D03*
%TO.P,U9,21,21*%
%TO.N,unconnected-(U9-Pad21)*%
X124687200Y-76950400D03*
%TO.P,U9,22,22*%
%TO.N,unconnected-(U9-Pad22)*%
X124187200Y-76950400D03*
%TO.P,U9,23,23*%
%TO.N,unconnected-(U9-Pad23)*%
X123687200Y-76950400D03*
%TO.P,U9,24,24*%
%TO.N,unconnected-(U9-Pad24)*%
X123187200Y-76950400D03*
%TO.P,U9,25,25*%
%TO.N,unconnected-(U9-Pad25)*%
X122687200Y-76950400D03*
%TO.P,U9,26,26*%
%TO.N,unconnected-(U9-Pad26)*%
X122187200Y-76950400D03*
%TO.P,U9,27,27*%
%TO.N,unconnected-(U9-Pad27)*%
X121687200Y-76950400D03*
%TO.P,U9,28,28*%
%TO.N,unconnected-(U9-Pad28)*%
X121187200Y-76950400D03*
%TO.P,U9,29,29*%
%TO.N,unconnected-(U9-Pad29)*%
X120687200Y-76950400D03*
%TO.P,U9,30,30*%
%TO.N,unconnected-(U9-Pad30)*%
X120187200Y-76950400D03*
%TO.P,U9,31,31*%
%TO.N,unconnected-(U9-Pad31)*%
X119687200Y-76950400D03*
%TO.P,U9,32,32*%
%TO.N,unconnected-(U9-Pad32)*%
X119187200Y-76950400D03*
%TO.P,U9,33,33*%
%TO.N,unconnected-(U9-Pad33)*%
X118687200Y-76950400D03*
%TO.P,U9,34,34*%
%TO.N,unconnected-(U9-Pad34)*%
X118187200Y-76950400D03*
%TO.P,U9,35,35*%
%TO.N,unconnected-(U9-Pad35)*%
X117687200Y-76950400D03*
D42*
%TO.P,U9,36,36*%
%TO.N,unconnected-(U9-Pad36)*%
X115787200Y-74230400D03*
%TO.P,U9,37,37*%
%TO.N,unconnected-(U9-Pad37)*%
X136587200Y-74230400D03*
%TD*%
D43*
%TO.P,U8,1,CPL*%
%TO.N,Net-(U8-CPL)*%
X142777690Y-95374955D03*
%TO.P,U8,2,CPH*%
%TO.N,Net-(U8-CPH)*%
X142424136Y-95021401D03*
%TO.P,U8,3,VCP*%
%TO.N,Net-(U8-VCP)*%
X142070583Y-94667848D03*
%TO.P,U8,4,VM*%
%TO.N,VBUS*%
X141717029Y-94314295D03*
%TO.P,U8,5,VDRAIN*%
X141363476Y-93960741D03*
%TO.P,U8,6,GHA*%
%TO.N,/Motor/Gate Driver/H_BRIDGE_GHA*%
X141009923Y-93607188D03*
%TO.P,U8,7,SHA*%
%TO.N,/Motor/Gate Driver/H_BRIDGE_SHA*%
X140656369Y-93253635D03*
%TO.P,U8,8,GLA*%
%TO.N,/Motor/Gate Driver/H_BRIDGE_GLA*%
X140302816Y-92900081D03*
%TO.P,U8,9,SPA*%
%TO.N,/Motor/Gate Driver/H_BRIDGE_SPA*%
X139949263Y-92546528D03*
%TO.P,U8,10,SNA*%
%TO.N,GND*%
X139595709Y-92192974D03*
D44*
%TO.P,U8,11,SNB*%
X138626973Y-92192974D03*
%TO.P,U8,12,SPB*%
%TO.N,/Motor/Gate Driver/H_BRIDGE_SPB*%
X138273419Y-92546528D03*
%TO.P,U8,13,GLB*%
%TO.N,/Motor/Gate Driver/H_BRIDGE_GLB*%
X137919866Y-92900081D03*
%TO.P,U8,14,SHB*%
%TO.N,/Motor/Gate Driver/H_BRIDGE_SHB*%
X137566313Y-93253635D03*
%TO.P,U8,15,GHB*%
%TO.N,/Motor/Gate Driver/H_BRIDGE_GHB*%
X137212759Y-93607188D03*
%TO.P,U8,16,GHC*%
%TO.N,/Motor/Gate Driver/H_BRIDGE_GHC*%
X136859206Y-93960741D03*
%TO.P,U8,17,SHC*%
%TO.N,/Motor/Gate Driver/H_BRIDGE_SHC*%
X136505653Y-94314295D03*
%TO.P,U8,18,GLC*%
%TO.N,/Motor/Gate Driver/H_BRIDGE_GLC*%
X136152099Y-94667848D03*
%TO.P,U8,19,SPC*%
%TO.N,/Motor/Gate Driver/H_BRIDGE_SPC*%
X135798546Y-95021401D03*
%TO.P,U8,20,SNC*%
%TO.N,GND*%
X135444992Y-95374955D03*
D43*
%TO.P,U8,21,SOC*%
%TO.N,Net-(U8-SOC)*%
X135444992Y-96343691D03*
%TO.P,U8,22,SOB*%
%TO.N,Net-(U8-SOB)*%
X135798546Y-96697245D03*
%TO.P,U8,23,SOA*%
%TO.N,Net-(U8-SOA)*%
X136152099Y-97050798D03*
%TO.P,U8,24,VREF*%
%TO.N,+3V3*%
X136505653Y-97404351D03*
%TO.P,U8,25,NFAULT*%
%TO.N,/Motor/Gate Driver/GATE_DRIVER_NFAULT*%
X136859206Y-97757905D03*
%TO.P,U8,26,SDO*%
%TO.N,/Motor/Gate Driver/GATE_DRIVER_SDO*%
X137212759Y-98111458D03*
%TO.P,U8,27,SDI*%
%TO.N,/Motor/Gate Driver/GATE_DRIVER_SDI*%
X137566313Y-98465011D03*
%TO.P,U8,28,SCLK*%
%TO.N,/Motor/Gate Driver/GATE_DRIVER_SCLK*%
X137919866Y-98818565D03*
%TO.P,U8,29,NSCS*%
%TO.N,/Motor/Gate Driver/GATE_DRIVER_NSCS*%
X138273419Y-99172118D03*
%TO.P,U8,30,ENABLE*%
%TO.N,/Motor/Gate Driver/GATE_DRIVER_ENABLE*%
X138626973Y-99525672D03*
D44*
%TO.P,U8,31,CAL*%
%TO.N,unconnected-(U8-CAL-Pad31)*%
X139595709Y-99525672D03*
%TO.P,U8,32,AGND*%
%TO.N,GND*%
X139949263Y-99172118D03*
%TO.P,U8,33,DVDD*%
%TO.N,Net-(U8-DVDD)*%
X140302816Y-98818565D03*
%TO.P,U8,34,INHA*%
%TO.N,/Motor/Gate Driver/GATE_DRIVER_INHA*%
X140656369Y-98465011D03*
%TO.P,U8,35,INLA*%
%TO.N,/Motor/Gate Driver/GATE_DRIVER_INLA*%
X141009923Y-98111458D03*
%TO.P,U8,36,INHB*%
%TO.N,/Motor/Gate Driver/GATE_DRIVER_INHB*%
X141363476Y-97757905D03*
%TO.P,U8,37,INLB*%
%TO.N,/Motor/Gate Driver/GATE_DRIVER_INLA*%
X141717029Y-97404351D03*
%TO.P,U8,38,INHC*%
%TO.N,/Motor/Gate Driver/GATE_DRIVER_INHC*%
X142070583Y-97050798D03*
%TO.P,U8,39,INLC*%
%TO.N,/Motor/Gate Driver/GATE_DRIVER_INLA*%
X142424136Y-96697245D03*
%TO.P,U8,40,PGND*%
%TO.N,GND*%
X142777690Y-96343691D03*
D45*
%TO.P,U8,41,EXP*%
X139111341Y-95859323D03*
%TD*%
D12*
%TO.P,C31,1*%
%TO.N,VBUS*%
X73947600Y-67564000D03*
%TO.P,C31,2*%
%TO.N,GND*%
X76897600Y-67564000D03*
%TD*%
D33*
%TO.P,S2,1*%
%TO.N,Net-(U6-IO0)*%
X151747400Y-111556800D03*
%TO.P,S2,2*%
%TO.N,GND*%
X155897400Y-111556800D03*
%TD*%
D46*
%TO.P,R18,1*%
%TO.N,/CAN_P*%
X117043200Y-96786603D03*
%TO.P,R18,2*%
%TO.N,/CAN_N*%
X117043200Y-95766603D03*
%TD*%
D47*
%TO.P,USB1,*%
%TO.N,*%
X118962800Y-101554800D03*
X118962800Y-107334800D03*
D48*
%TO.P,USB1,1*%
%TO.N,GND*%
X119462800Y-100124800D03*
%TO.P,USB1,2*%
X119462800Y-108764800D03*
D49*
%TO.P,USB1,3*%
X115282800Y-108764800D03*
%TO.P,USB1,4*%
X115282800Y-100124800D03*
D50*
%TO.P,USB1,A1B12*%
X120032800Y-101244800D03*
%TO.P,USB1,A4B9*%
%TO.N,Net-(USB1-VBUS)*%
X120032800Y-102044800D03*
D51*
%TO.P,USB1,A5,CC1*%
%TO.N,Net-(U1-CC1)*%
X120032800Y-103194800D03*
%TO.P,USB1,A6,D+*%
%TO.N,/MCU/USB_D+*%
X120032800Y-104194800D03*
%TO.P,USB1,A7,D-*%
%TO.N,/MCU/USB_D-*%
X120032800Y-104694800D03*
%TO.P,USB1,A8,SBU1*%
%TO.N,Net-(USB1-SBU1)*%
X120032800Y-105694800D03*
D50*
%TO.P,USB1,B1A12*%
%TO.N,GND*%
X120032800Y-107644800D03*
%TO.P,USB1,B4A9*%
%TO.N,Net-(USB1-VBUS)*%
X120032800Y-106844800D03*
D51*
%TO.P,USB1,B5,CC2*%
%TO.N,Net-(U1-CC2)*%
X120032800Y-106194800D03*
%TO.P,USB1,B6*%
%TO.N,/MCU/USB_D+*%
X120032800Y-105194800D03*
%TO.P,USB1,B7*%
%TO.N,/MCU/USB_D-*%
X120032800Y-103694800D03*
%TO.P,USB1,B8,SBU2*%
%TO.N,Net-(USB1-SBU2)*%
X120032800Y-102694800D03*
%TD*%
D52*
%TO.P,L1,1*%
%TO.N,+12V*%
X146507200Y-100108000D03*
%TO.P,L1,2*%
%TO.N,Net-(U2-SW)*%
X146507200Y-105543600D03*
%TD*%
D20*
%TO.P,U17,1*%
%TO.N,/Motor/Gate Driver/H_BRIDGE_SPC*%
X118333200Y-84900597D03*
%TO.P,U17,2*%
X118333200Y-85550597D03*
%TO.P,U17,3*%
X118333200Y-86190597D03*
%TO.P,U17,4*%
%TO.N,/Motor/Gate Driver/H_BRIDGE_GLC*%
X118333200Y-86840597D03*
%TO.P,U17,5*%
%TO.N,/Motor/Gate Driver/H_BRIDGE_SHC*%
X121533200Y-86840597D03*
%TO.P,U17,6*%
X121533200Y-86190597D03*
%TO.P,U17,7*%
X121533200Y-85550597D03*
%TO.P,U17,8*%
X121533200Y-84900597D03*
D21*
%TO.P,U17,9*%
X119683200Y-84420597D03*
%TO.P,U17,10*%
X119683200Y-87320597D03*
D22*
%TO.P,U17,11*%
X120333200Y-85870597D03*
%TD*%
D53*
%TO.P,U2,1,GND*%
%TO.N,GND*%
X147457201Y-109812500D03*
%TO.P,U2,2,SW*%
%TO.N,Net-(U2-SW)*%
X146507200Y-109812500D03*
%TO.P,U2,3,VIN*%
%TO.N,VBUS*%
X145557199Y-109812500D03*
%TO.P,U2,4,FB*%
%TO.N,Net-(U2-FB)*%
X145557199Y-112568400D03*
%TO.P,U2,5,EN*%
%TO.N,/MCU/EN_12V*%
X146507200Y-112568400D03*
%TO.P,U2,6,CB*%
%TO.N,Net-(U2-CB)*%
X147457201Y-112568400D03*
%TD*%
D23*
%TO.P,C56,1*%
%TO.N,+3V3*%
X161324800Y-106311400D03*
%TO.P,C56,2*%
%TO.N,GND*%
X162284800Y-106311400D03*
%TD*%
D54*
%TO.P,C24,2*%
%TO.N,GND*%
X147828000Y-96623401D03*
%TO.P,C24,1*%
%TO.N,VBUS*%
X147828000Y-93673399D03*
%TD*%
D39*
%TO.P,C36,1*%
%TO.N,VBUS*%
X131165600Y-104823200D03*
%TO.P,C36,2*%
%TO.N,GND*%
X131165600Y-103863200D03*
%TD*%
D55*
%TO.P,CN3,1,1*%
%TO.N,/Motor/Gate Driver/H_BRIDGE_SHA*%
X141070000Y-77074400D03*
X143570000Y-72074400D03*
%TO.P,CN3,2,2*%
%TO.N,/Motor/Gate Driver/H_BRIDGE_SHB*%
X146070000Y-77074400D03*
X148570000Y-72074400D03*
%TO.P,CN3,3,3*%
%TO.N,/Motor/Gate Driver/H_BRIDGE_SHC*%
X151070000Y-77074400D03*
X153570000Y-72074400D03*
%TD*%
D54*
%TO.P,C7,1*%
%TO.N,VBUS*%
X141732000Y-109743450D03*
%TO.P,C7,2*%
%TO.N,GND*%
X141732000Y-112693450D03*
%TD*%
D56*
%TO.P,CN1,1,1*%
%TO.N,GND*%
X156230000Y-82460000D03*
X156230000Y-87540000D03*
%TO.P,CN1,2,2*%
%TO.N,+12V*%
X158770000Y-82460000D03*
X158770000Y-87540000D03*
%TD*%
D57*
%TO.N,VBUS*%
X119481600Y-97953003D03*
X120091200Y-97942400D03*
X120700800Y-97942400D03*
X120080563Y-99154588D03*
X120700800Y-99161600D03*
X119481600Y-99161600D03*
X120700800Y-98552000D03*
X120091200Y-98552000D03*
X119481600Y-98552000D03*
X121310400Y-99364800D03*
X121310400Y-99974400D03*
X121310400Y-100584000D03*
X121310400Y-101193600D03*
X129438400Y-107289600D03*
X127000000Y-107289600D03*
X127000000Y-107899200D03*
X128828800Y-107899200D03*
X128219200Y-107899200D03*
X127609600Y-107899200D03*
X128828800Y-107289600D03*
X128219200Y-107289600D03*
X127609600Y-107289600D03*
X126187200Y-106070400D03*
X126796800Y-106070400D03*
X126796800Y-105460800D03*
X126187200Y-105460800D03*
X121310400Y-98145600D03*
X121920000Y-98145600D03*
X123139200Y-98145600D03*
X122529600Y-98145600D03*
X123748800Y-98145600D03*
X123139200Y-99974400D03*
X121920000Y-98755200D03*
X121310400Y-98755200D03*
X123748800Y-98755200D03*
X121920000Y-101193600D03*
X121920000Y-100584000D03*
X126187200Y-100584000D03*
X125577600Y-100584000D03*
X123139200Y-100584000D03*
X124358400Y-100584000D03*
X123139200Y-99364800D03*
X123139200Y-98755200D03*
X121920000Y-99974400D03*
X122529600Y-100584000D03*
X124968000Y-100584000D03*
X122529600Y-98755200D03*
X123748800Y-100584000D03*
X122529600Y-99974400D03*
X121920000Y-99364800D03*
X122529600Y-101193600D03*
X123748800Y-99364800D03*
X123748800Y-99974400D03*
X122529600Y-99364800D03*
X125577600Y-101193600D03*
X126796800Y-101193600D03*
X124968000Y-101193600D03*
X123139200Y-101193600D03*
X124358400Y-101193600D03*
X126187200Y-101193600D03*
X123748800Y-101193600D03*
X126796800Y-101803200D03*
X125577600Y-101803200D03*
X123139200Y-101803200D03*
X124968000Y-101803200D03*
X123748800Y-101803200D03*
X126187200Y-101803200D03*
X124358400Y-101803200D03*
X126796800Y-102412800D03*
X125577600Y-102412800D03*
X123139200Y-102412800D03*
X124968000Y-102412800D03*
X123748800Y-102412800D03*
X126187200Y-102412800D03*
X124358400Y-102412800D03*
X126796800Y-103022400D03*
X125577600Y-103022400D03*
X123139200Y-103022400D03*
X124968000Y-103022400D03*
X123748800Y-103022400D03*
X126187200Y-103022400D03*
X124358400Y-103022400D03*
X126796800Y-103632000D03*
X125577600Y-103632000D03*
X123139200Y-103632000D03*
X124968000Y-103632000D03*
X123748800Y-103632000D03*
X126187200Y-103632000D03*
X124358400Y-103632000D03*
X126796800Y-104241600D03*
X125577600Y-104241600D03*
X123139200Y-104241600D03*
X124968000Y-104241600D03*
X123748800Y-104241600D03*
X126187200Y-104241600D03*
X124358400Y-104241600D03*
X130454400Y-104851200D03*
X129844800Y-104851200D03*
X129235200Y-104851200D03*
X128625600Y-104851200D03*
X128016000Y-104851200D03*
X127406400Y-104851200D03*
X126796800Y-104851200D03*
X126187200Y-104851200D03*
X125577600Y-104851200D03*
X124968000Y-104851200D03*
X124358400Y-104851200D03*
X123748800Y-104851200D03*
X123139200Y-104851200D03*
%TO.N,*%
X135940800Y-104241600D03*
X136550400Y-104241600D03*
X137160000Y-104241600D03*
X137769600Y-104241600D03*
%TO.N,+3V3*%
X135331200Y-106680000D03*
X135940800Y-106680000D03*
X136550400Y-106680000D03*
X137160000Y-106680000D03*
X137769600Y-106680000D03*
X139598400Y-106070400D03*
X138379200Y-106680000D03*
X139598400Y-106680000D03*
X138988800Y-106070400D03*
X138988800Y-106680000D03*
X138379200Y-106070400D03*
X139598400Y-104851200D03*
X138379200Y-105460800D03*
X139598400Y-105460800D03*
X138988800Y-104851200D03*
X138988800Y-105460800D03*
X138379200Y-104851200D03*
X139598400Y-103632000D03*
X138379200Y-104241600D03*
X139598400Y-104241600D03*
X138988800Y-103632000D03*
X138988800Y-104241600D03*
X138379200Y-103632000D03*
X139598400Y-102412800D03*
X138379200Y-103022400D03*
X139598400Y-103022400D03*
X138988800Y-102412800D03*
X138988800Y-103022400D03*
X138379200Y-102412800D03*
X138379200Y-101803200D03*
X138988800Y-101803200D03*
X139598400Y-101803200D03*
X139598400Y-101193600D03*
X138988800Y-101193600D03*
X138379200Y-101193600D03*
%TO.N,GND*%
X144068800Y-111760000D03*
X145084800Y-111556800D03*
X145084800Y-110947200D03*
X142240000Y-110947200D03*
X142849600Y-110947200D03*
X142849600Y-111556800D03*
X142240000Y-111556800D03*
X141020800Y-111556800D03*
X141020800Y-110947200D03*
X140411200Y-110947200D03*
X140411200Y-111556800D03*
X144678400Y-112979200D03*
X144068800Y-112979200D03*
X143459200Y-112979200D03*
%TO.N,/MCU/PD_SDA*%
X139750800Y-109220000D03*
X139750800Y-110947200D03*
X130606800Y-110490000D03*
%TO.N,/MCU/PD_SCL*%
X129844800Y-110236000D03*
%TO.N,/MCU/USB_D+*%
X124002800Y-112166400D03*
%TO.N,/MCU/USB_D-*%
X124612400Y-113284000D03*
%TO.N,Net-(U1-CC1)*%
X125157000Y-110822832D03*
%TO.N,Net-(U1-CC2)*%
X125391400Y-111449859D03*
%TO.N,/MCU/USB_D+*%
X119008401Y-104648000D03*
%TO.N,*%
X162211200Y-103263400D03*
X127000000Y-86766400D03*
X162211200Y-103873000D03*
X162211200Y-104482600D03*
X162211200Y-101434600D03*
X162820800Y-102653800D03*
X127609600Y-83718400D03*
X162820800Y-100825000D03*
X127000000Y-83108800D03*
X162211200Y-102044200D03*
X125171200Y-83108800D03*
X162820800Y-101434600D03*
X127609600Y-83108800D03*
X123952000Y-83718400D03*
X127609600Y-84328000D03*
X162820800Y-103873000D03*
X162820800Y-102044200D03*
X125780800Y-83718400D03*
X124561600Y-83718400D03*
X127000000Y-86156800D03*
X124561600Y-83108800D03*
X127000000Y-85547200D03*
X125171200Y-83718400D03*
X162211200Y-102653800D03*
X162820800Y-103263400D03*
X127000000Y-83718400D03*
X125780800Y-83108800D03*
X127000000Y-84937600D03*
X123952000Y-83108800D03*
X127000000Y-84328000D03*
X126390400Y-83108800D03*
X127609600Y-85547200D03*
X126390400Y-83718400D03*
X162211200Y-100825000D03*
X162820800Y-104482600D03*
X127609600Y-86766400D03*
X127609600Y-84937600D03*
X127609600Y-86156800D03*
%TO.N,+3V3*%
X127343200Y-94983600D03*
X131343199Y-96583601D03*
X128943200Y-94983600D03*
X127343202Y-98183600D03*
X127343200Y-96583600D03*
X128943200Y-96583600D03*
D58*
X161266800Y-107708400D03*
D57*
%TO.N,GND*%
X116230400Y-102006400D03*
X116230400Y-106070400D03*
X148945600Y-112166400D03*
X115417600Y-103632000D03*
X134721600Y-102006400D03*
X142240000Y-113588800D03*
X148336000Y-112166400D03*
X117856000Y-108508800D03*
X132892800Y-103225600D03*
X116230400Y-101193600D03*
X128625600Y-102006400D03*
X114604800Y-103632000D03*
X115417600Y-106070400D03*
X143459200Y-113588800D03*
X134112000Y-102006400D03*
X115417600Y-102819200D03*
D58*
X153416800Y-101858400D03*
X156216800Y-99058400D03*
D57*
X117043200Y-107696000D03*
X140793600Y-85987397D03*
X117856000Y-102006400D03*
X117043200Y-101193600D03*
X137160000Y-101396800D03*
X143541600Y-85987397D03*
D58*
X162536800Y-107708400D03*
D57*
X128943200Y-95783600D03*
X121804989Y-111995011D03*
X136550400Y-103632000D03*
X159051200Y-105384600D03*
X148945600Y-111556800D03*
X131064000Y-102006400D03*
X145694400Y-111556800D03*
X155897400Y-111556800D03*
X130657600Y-113487200D03*
X144068800Y-113588800D03*
X131673600Y-102006400D03*
X115417600Y-105257600D03*
X117043200Y-105257600D03*
D59*
X135128000Y-103558400D03*
D57*
X117856000Y-103632000D03*
X127300000Y-113500000D03*
X145694400Y-110947200D03*
X127343200Y-95783600D03*
X132283200Y-102006400D03*
X132410200Y-105741978D03*
D59*
X118872000Y-98105403D03*
D57*
X114604800Y-106883200D03*
X131064000Y-103225600D03*
X133502400Y-102616000D03*
X117043200Y-108508800D03*
D58*
X154816800Y-99058400D03*
D57*
X128143200Y-96583600D03*
X117856000Y-101193600D03*
X117856000Y-100380800D03*
X115417600Y-102006400D03*
X128016000Y-101396800D03*
X141020800Y-113588800D03*
X131064000Y-101396800D03*
X117856000Y-109321600D03*
D59*
X118059201Y-98105404D03*
D57*
X142849600Y-113588800D03*
X146304000Y-110947200D03*
X134112000Y-101396800D03*
X115074000Y-85953600D03*
X114604800Y-102819200D03*
X160041200Y-104419400D03*
D58*
X154816800Y-101858400D03*
D57*
X131673600Y-103225600D03*
X116230400Y-106883200D03*
X127400000Y-111100000D03*
X134721600Y-102616000D03*
X133502400Y-103225600D03*
X116230400Y-102819200D03*
X117043200Y-109321600D03*
X132143200Y-97383600D03*
X114604800Y-102006400D03*
X117830273Y-105270493D03*
X140411200Y-113588800D03*
D59*
X160528000Y-100177600D03*
D57*
X115417600Y-106883200D03*
X133502400Y-102006400D03*
X115417600Y-104444800D03*
X146304000Y-111556800D03*
D58*
X156216800Y-101858400D03*
D57*
X137769600Y-103632000D03*
X132283200Y-102616000D03*
X117043200Y-102819200D03*
X126400000Y-110100000D03*
X117043200Y-99568000D03*
D59*
X160528000Y-99364800D03*
X119278400Y-97089403D03*
X157073600Y-98145600D03*
X158902400Y-99364800D03*
D57*
X134112000Y-102616000D03*
X114604800Y-104444800D03*
X117043200Y-104444800D03*
X116230400Y-107696000D03*
X130454400Y-102006400D03*
X139598400Y-91236800D03*
D58*
X153416800Y-99058400D03*
D57*
X144678400Y-113588800D03*
X114604800Y-101193600D03*
X117043200Y-103632000D03*
X117856000Y-99568000D03*
D59*
X120091200Y-95463803D03*
X119684800Y-96276603D03*
D57*
X132283200Y-103225600D03*
X137160000Y-103632000D03*
X152884200Y-104317800D03*
X137769600Y-101396800D03*
X117856000Y-107696000D03*
X129844800Y-101396800D03*
D59*
X123240800Y-96683003D03*
D57*
X153416000Y-110229600D03*
D59*
X158902400Y-100177600D03*
D57*
X117043200Y-100380800D03*
X141630400Y-113588800D03*
X129235200Y-101396800D03*
X115417600Y-107696000D03*
X117043200Y-102006400D03*
X114604800Y-105257600D03*
X128143200Y-95783600D03*
X131673600Y-102616000D03*
X130454400Y-101396800D03*
X133502400Y-101396800D03*
X136550400Y-101396800D03*
X131673600Y-101396800D03*
X117856000Y-106070400D03*
D59*
X119278400Y-95463803D03*
D57*
X135940800Y-103632000D03*
X117791706Y-104423267D03*
D58*
X156216800Y-100458400D03*
D57*
X117856000Y-106883200D03*
X128625600Y-101396800D03*
X129844800Y-102006400D03*
X127343200Y-98983600D03*
D58*
X154816800Y-100458400D03*
D57*
X146913600Y-110914062D03*
X114604800Y-106070400D03*
D58*
X153416800Y-100458400D03*
D57*
X132892800Y-102616000D03*
D59*
X159735401Y-99720400D03*
D57*
X135331200Y-101396800D03*
X126400000Y-111100000D03*
X132283200Y-101396800D03*
X133197600Y-93370400D03*
X117043200Y-106883200D03*
X117043200Y-106070400D03*
X149086168Y-111019137D03*
X132892800Y-101396800D03*
X116230400Y-104444800D03*
X127400000Y-110100000D03*
X129235200Y-102006400D03*
X117856000Y-102819200D03*
X115417600Y-101193600D03*
D59*
X157886400Y-98145600D03*
D57*
X126900000Y-110600000D03*
X135940800Y-101396800D03*
X116230400Y-105257600D03*
X132892800Y-102006400D03*
X128016000Y-102006400D03*
D59*
X147457201Y-109812498D03*
D57*
X134112000Y-103225600D03*
X131064000Y-102616000D03*
X128143200Y-94983600D03*
X114604800Y-107696000D03*
X116230400Y-103632000D03*
D59*
X120091200Y-97089403D03*
D57*
X138582400Y-91236800D03*
X134721600Y-101396800D03*
%TO.N,VBUS*%
X152622800Y-87409797D03*
X141839535Y-92925312D03*
D59*
%TO.N,Net-(U8-CPH)*%
X143515147Y-94856437D03*
%TO.N,Net-(U8-CPL)*%
X143459200Y-96012000D03*
%TO.N,Net-(U3-SS)*%
X135128000Y-104518400D03*
%TO.N,Net-(U8-DVDD)*%
X141630400Y-99372800D03*
D57*
%TO.N,Net-(D4-A)*%
X123342400Y-108300000D03*
%TO.N,Net-(U6-EN)*%
X159996800Y-107708400D03*
D60*
%TO.N,Net-(U3-SW)*%
X134023100Y-105741978D03*
%TO.N,Net-(U3-BST)*%
X134023100Y-105245789D03*
D57*
%TO.N,Net-(U2-SW)*%
X149758400Y-110236000D03*
%TO.N,/Motor/Gate Driver/MOTOR_C_CURRENT_SENSE*%
X134416800Y-98907600D03*
X132143200Y-98183600D03*
%TO.N,/Motor/Gate Driver/MOTOR_B_CURRENT_SENSE*%
X131343200Y-98983600D03*
%TO.N,/Motor/Gate Driver/MOTOR_A_CURRENT_SENSE*%
X130543200Y-98183600D03*
%TO.N,/MCU/USB_D-*%
X118365747Y-104608549D03*
%TO.N,Net-(U1-CC2)*%
X118567546Y-106631961D03*
%TO.N,Net-(U1-CC1)*%
X118872000Y-103225600D03*
%TO.N,Net-(U2-FB)*%
X145491200Y-113588800D03*
%TO.N,/MCU/STM32_EN*%
X128943200Y-98183600D03*
%TO.N,Net-(U3-FB)*%
X134010400Y-104241600D03*
%TO.N,/Motor/Gate Driver/GATE_DRIVER_NFAULT*%
X131343200Y-93383600D03*
%TO.N,/Motor/Gate Driver/H_BRIDGE_SPA*%
X140309600Y-91236800D03*
X145041600Y-85987397D03*
%TO.N,/Motor/Gate Driver/H_BRIDGE_SPB*%
X139293600Y-85987397D03*
X137766855Y-91568127D03*
%TO.N,Net-(U8-SOA)*%
X135636000Y-97637600D03*
%TO.N,Net-(U8-SOB)*%
X134793613Y-96803587D03*
%TO.N,Net-(U8-SOC)*%
X133980813Y-95889187D03*
%TO.N,/Power/VBUS_SWITCH_GATE*%
X126600000Y-108600000D03*
%TO.N,/MCU/EN_12V*%
X159021200Y-104419400D03*
X158726800Y-107708400D03*
%TO.N,/MCU/PD_INT_N*%
X157456800Y-107708400D03*
X129235200Y-109524800D03*
%TO.N,/MCU/PD_FAULT*%
X156186800Y-107708400D03*
X128687499Y-108915200D03*
%TO.N,/CAN Transceiver1/CAN_RX*%
X161442400Y-100787200D03*
%TO.N,/CAN Transceiver1/CAN_TX*%
X153646800Y-109467600D03*
%TO.N,/Motor/Gate Driver/H_BRIDGE_SPC*%
X116574000Y-85953600D03*
X133908800Y-93370400D03*
%TO.N,/Motor/Gate Driver/GATE_DRIVER_INHA*%
X142240000Y-98653600D03*
X129743200Y-97383600D03*
%TO.N,/Motor/Gate Driver/GATE_DRIVER_SDI*%
X127343200Y-97383600D03*
X135934113Y-99086093D03*
%TO.N,/Motor/Gate Driver/GATE_DRIVER_NSCS*%
X137668000Y-99720400D03*
X130543200Y-97383600D03*
%TO.N,/Motor/Gate Driver/GATE_DRIVER_SDO*%
X136748911Y-98573043D03*
X124943200Y-92583600D03*
%TO.N,/Motor/Gate Driver/GATE_DRIVER_INHB*%
X129743200Y-98983600D03*
X143002000Y-97993200D03*
%TO.N,/Motor/Gate Driver/GATE_DRIVER_SCLK*%
X126543200Y-94983600D03*
X136652000Y-99684763D03*
%TO.N,/Motor/Gate Driver/GATE_DRIVER_INLA*%
X143443643Y-96961867D03*
X127343200Y-99783600D03*
%TO.N,/Motor/Gate Driver/GATE_DRIVER_INHC*%
X143408400Y-97536000D03*
X130543200Y-99783600D03*
%TO.N,/Motor/Gate Driver/H_BRIDGE_GHC*%
X135636000Y-92760800D03*
X122955600Y-86840597D03*
%TO.N,/Motor/Gate Driver/H_BRIDGE_GHA*%
X141783185Y-92327961D03*
X151272800Y-86929797D03*
%TO.N,/Motor/Gate Driver/H_BRIDGE_GLC*%
X118333200Y-86840597D03*
X134924800Y-93776800D03*
%TO.N,/Motor/Gate Driver/H_BRIDGE_GLA*%
X140734739Y-91745628D03*
X146802400Y-86929797D03*
%TO.N,/Motor/Gate Driver/H_BRIDGE_GHB*%
X132931600Y-85134197D03*
X136245600Y-92557600D03*
%TO.N,/Motor/Gate Driver/H_BRIDGE_GLB*%
X137554000Y-85124597D03*
X137109200Y-91744800D03*
%TO.N,/Motor/Gate Driver/H_BRIDGE_SHC*%
X135026400Y-93167200D03*
X119683200Y-87320597D03*
%TO.N,/Motor/Gate Driver/H_BRIDGE_SHB*%
X136204000Y-87544597D03*
X137032239Y-92665756D03*
%TO.N,/Motor/Gate Driver/H_BRIDGE_SHA*%
X141268851Y-92018990D03*
X148152400Y-87409797D03*
%TO.N,/CAN_P*%
X116199800Y-91795600D03*
X115143989Y-92606505D03*
%TO.N,Net-(U1-CC2)*%
X121806325Y-111170862D03*
%TO.N,GND*%
X123317500Y-111996798D03*
X122481627Y-111991270D03*
%TD*%
D61*
%TO.N,Net-(U8-VCP)*%
X142070583Y-94667848D02*
X142523345Y-94215086D01*
X142523345Y-94215086D02*
X144428286Y-94215086D01*
X144428286Y-94215086D02*
X144475200Y-94262000D01*
X144475200Y-94262000D02*
X144475200Y-94363600D01*
%TO.N,Net-(U8-CPH)*%
X142424136Y-95021401D02*
X142772251Y-94673286D01*
X142772251Y-94673286D02*
X143331996Y-94673286D01*
X143331996Y-94673286D02*
X143515147Y-94856437D01*
D62*
%TO.N,VBUS*%
X141363476Y-93960741D02*
X141839535Y-93484682D01*
X141839535Y-93484682D02*
X141839535Y-92925312D01*
%TO.N,/Motor/Gate Driver/H_BRIDGE_SPB*%
X137766855Y-92039964D02*
X137766855Y-91568127D01*
X138273419Y-92546528D02*
X137766855Y-92039964D01*
D63*
%TO.N,/CAN_P*%
X116051800Y-91113429D02*
X116051800Y-91700597D01*
X116355102Y-90810127D02*
X116051800Y-91113429D01*
%TO.N,/CAN_N*%
X160225200Y-96649599D02*
X160225200Y-97129600D01*
X159890200Y-96314599D02*
X160225200Y-96649599D01*
X159890200Y-92739113D02*
X159890200Y-96314599D01*
X115344200Y-91323225D02*
X116208712Y-90458713D01*
X115344200Y-92027000D02*
X115344200Y-91323225D01*
X115671600Y-92354400D02*
X115344200Y-92027000D01*
X115671600Y-94920028D02*
X115671600Y-92354400D01*
X116518175Y-95766603D02*
X115671600Y-94920028D01*
X117043200Y-95766603D02*
X116518175Y-95766603D01*
%TO.N,/CAN_P*%
X159540200Y-96314599D02*
X159540200Y-92884087D01*
X159205200Y-97129600D02*
X159205200Y-96649599D01*
X159205200Y-96649599D02*
X159540200Y-96314599D01*
X115207882Y-94951285D02*
X115207882Y-92670398D01*
X115207882Y-92670398D02*
X115143989Y-92606505D01*
X115207882Y-92634072D02*
X115180315Y-92606505D01*
X115180315Y-92606505D02*
X115143989Y-92606505D01*
D64*
%TO.N,/CAN Transceiver/CAN_RX*%
X121158000Y-95301604D02*
X123648004Y-95301604D01*
X123648004Y-95301604D02*
X124521500Y-96175100D01*
X124521500Y-96175100D02*
X125334700Y-96175100D01*
X125334700Y-96175100D02*
X125743200Y-96583600D01*
D63*
%TO.N,/CAN Transceiver/CAN_TX*%
X124943200Y-97383600D02*
X124811202Y-97251602D01*
X124811202Y-97251602D02*
X121158000Y-97251602D01*
D62*
%TO.N,/MCU/EN_12V*%
X146507200Y-112568400D02*
X146507200Y-113284000D01*
X146862800Y-113639600D02*
X156260800Y-113639600D01*
X156260800Y-113639600D02*
X158726800Y-111173600D01*
X146507200Y-113284000D02*
X146862800Y-113639600D01*
X158726800Y-111173600D02*
X158726800Y-107708400D01*
%TO.N,/CAN Transceiver1/CAN_TX*%
X156011078Y-102664800D02*
X154025600Y-104650278D01*
X154025600Y-107329600D02*
X153646800Y-107708400D01*
X158760402Y-101422200D02*
X157517802Y-102664800D01*
X157517802Y-102664800D02*
X156011078Y-102664800D01*
X158760402Y-101193600D02*
X158760402Y-101422200D01*
X153646800Y-107708400D02*
X153646800Y-109467600D01*
X154025600Y-104650278D02*
X154025600Y-107329600D01*
%TO.N,/MCU/PD_SCL*%
X129243300Y-110837500D02*
X129844800Y-110236000D01*
X128212500Y-110837500D02*
X129243300Y-110837500D01*
%TO.N,/MCU/PD_SDA*%
X129759300Y-111337500D02*
X130606800Y-110490000D01*
X128212500Y-111337500D02*
X129759300Y-111337500D01*
D65*
%TO.N,/MCU/USB_D-*%
X124532600Y-110735598D02*
X124532600Y-112826800D01*
X124532600Y-113204200D02*
X124532600Y-112826800D01*
X124612400Y-113284000D02*
X124532600Y-113204200D01*
%TO.N,/MCU/USB_D+*%
X124082600Y-110549202D02*
X124082600Y-111810800D01*
X124002800Y-112166400D02*
X124082600Y-112086600D01*
X124082600Y-112086600D02*
X124082600Y-111810800D01*
X125612500Y-109837500D02*
X125412500Y-109837500D01*
D66*
X125412500Y-109837500D02*
X125387500Y-109862500D01*
D65*
X124769302Y-109862500D02*
X124082600Y-110549202D01*
X125387500Y-109862500D02*
X124769302Y-109862500D01*
%TO.N,/MCU/USB_D-*%
X125612500Y-110337500D02*
X125412500Y-110337500D01*
D66*
X125412500Y-110337500D02*
X125387500Y-110312500D01*
D65*
X125387500Y-110312500D02*
X124955698Y-110312500D01*
X124955698Y-110312500D02*
X124532600Y-110735598D01*
D62*
%TO.N,Net-(U1-CC1)*%
X125171668Y-110837500D02*
X125157000Y-110822832D01*
X125612500Y-110837500D02*
X125171668Y-110837500D01*
D61*
%TO.N,GND*%
X121804989Y-111995011D02*
X121809978Y-112000000D01*
X123314298Y-112000000D02*
X122490357Y-112000000D01*
X122490357Y-112000000D02*
X122481627Y-111991270D01*
X123317500Y-111996798D02*
X123314298Y-112000000D01*
X122472897Y-112000000D02*
X122481627Y-111991270D01*
X121809978Y-112000000D02*
X122472897Y-112000000D01*
D62*
%TO.N,Net-(U1-CC2)*%
X125402159Y-111337500D02*
X125391400Y-111348259D01*
X125391400Y-111348259D02*
X125391400Y-111449859D01*
X125612500Y-111337500D02*
X125402159Y-111337500D01*
D65*
%TO.N,/MCU/USB_D-*%
X119012400Y-103694800D02*
X118405198Y-104302002D01*
X120032800Y-103694800D02*
X119012400Y-103694800D01*
X118405198Y-104302002D02*
X118405198Y-104569098D01*
X118405198Y-104569098D02*
X118365747Y-104608549D01*
%TO.N,/MCU/USB_D+*%
X119149400Y-104167400D02*
X119973800Y-104167400D01*
X119973800Y-105167400D02*
X119243000Y-105167400D01*
X119001000Y-104315800D02*
X119149400Y-104167400D01*
X119243000Y-105167400D02*
X119001000Y-104925400D01*
X119001000Y-104925400D02*
X119001000Y-104315800D01*
%TO.N,/MCU/USB_D-*%
X120032800Y-103694800D02*
X120763600Y-103694800D01*
X121005600Y-104546400D02*
X120857200Y-104694800D01*
X120857200Y-104694800D02*
X120032800Y-104694800D01*
X120763600Y-103694800D02*
X121005600Y-103936800D01*
X121005600Y-103936800D02*
X121005600Y-104546400D01*
D62*
%TO.N,Net-(U1-CC1)*%
X119972400Y-103194800D02*
X118902800Y-103194800D01*
X118902800Y-103194800D02*
X118872000Y-103225600D01*
%TO.N,/Motor/Gate Driver/GATE_DRIVER_ENABLE*%
X138626973Y-99525672D02*
X137517845Y-100634800D01*
X137517845Y-100634800D02*
X126847600Y-100634800D01*
X126847600Y-100634800D02*
X126543200Y-100330400D01*
X126543200Y-100330400D02*
X126543200Y-99783600D01*
%TO.N,/Motor/Gate Driver/GATE_DRIVER_SDO*%
X137210496Y-98111458D02*
X136748911Y-98573043D01*
X137212759Y-98111458D02*
X137210496Y-98111458D01*
%TO.N,/Motor/Gate Driver/GATE_DRIVER_SDI*%
X136848161Y-99183163D02*
X136031183Y-99183163D01*
X137566313Y-98465011D02*
X136848161Y-99183163D01*
X136031183Y-99183163D02*
X135934113Y-99086093D01*
D61*
%TO.N,+3V3*%
X161324800Y-107650400D02*
X161266800Y-107708400D01*
X161324800Y-105295400D02*
X161324800Y-107650400D01*
X122171401Y-95951602D02*
X122326400Y-95796603D01*
X132143200Y-96583600D02*
X131343199Y-96583601D01*
X121158000Y-95951602D02*
X122171401Y-95951602D01*
%TO.N,GND*%
X159410400Y-101193600D02*
X159410400Y-100045401D01*
X127000000Y-113200000D02*
X127300000Y-113500000D01*
D67*
X123167200Y-96756603D02*
X123240800Y-96683003D01*
D62*
X138626973Y-92192974D02*
X138379200Y-91945201D01*
D61*
X126380000Y-113200000D02*
X127000000Y-113200000D01*
X162284800Y-105295400D02*
X162284800Y-107456400D01*
D62*
X127662500Y-109837500D02*
X127400000Y-110100000D01*
X138379200Y-91440000D02*
X138582400Y-91236800D01*
D61*
X158658802Y-98145600D02*
X157886400Y-98145600D01*
D67*
X122326400Y-96756603D02*
X123167200Y-96756603D01*
D62*
X139595709Y-92192974D02*
X139293600Y-91890865D01*
X139293600Y-91890865D02*
X139293600Y-91541600D01*
D61*
X118059201Y-98105404D02*
X118872000Y-98105403D01*
X118160800Y-97231401D02*
X118059200Y-97333001D01*
D62*
X128212500Y-109837500D02*
X127662500Y-109837500D01*
D61*
X121158000Y-96601604D02*
X122171401Y-96601604D01*
X158760402Y-98247200D02*
X158658802Y-98145600D01*
X162284800Y-107456400D02*
X162536800Y-107708400D01*
X159410400Y-100045401D02*
X159735401Y-99720400D01*
D62*
X129542000Y-113182400D02*
X130251200Y-113182400D01*
X135444992Y-95374955D02*
X135202155Y-95374955D01*
X130556000Y-113487200D02*
X130657600Y-113487200D01*
D61*
X119116201Y-97251602D02*
X119278400Y-97089403D01*
X118211600Y-97251602D02*
X119116201Y-97251602D01*
X121158000Y-96601604D02*
X120009801Y-96601604D01*
D62*
X130251200Y-113182400D02*
X130556000Y-113487200D01*
D61*
X157886400Y-98145600D02*
X157073600Y-98145600D01*
X122171401Y-96601604D02*
X122326400Y-96756603D01*
D62*
X135202155Y-95374955D02*
X133197600Y-93370400D01*
D61*
X118059200Y-97333001D02*
X118059201Y-98105404D01*
D62*
X139293600Y-91541600D02*
X139598400Y-91236800D01*
D61*
X120009801Y-96601604D02*
X119684800Y-96276603D01*
D62*
X138379200Y-91945201D02*
X138379200Y-91440000D01*
D61*
%TO.N,Net-(U8-CPL)*%
X142777690Y-95374955D02*
X143414735Y-96012000D01*
X143414735Y-96012000D02*
X143459200Y-96012000D01*
D62*
%TO.N,Net-(U3-SS)*%
X135128000Y-104518400D02*
X134904674Y-104741726D01*
X134904674Y-104741726D02*
X134010400Y-104741726D01*
D61*
%TO.N,Net-(U8-DVDD)*%
X141536800Y-99466400D02*
X141630400Y-99372800D01*
X140950651Y-99466400D02*
X141536800Y-99466400D01*
X140302816Y-98818565D02*
X140950651Y-99466400D01*
D62*
%TO.N,Net-(D4-A)*%
X122516450Y-108300000D02*
X123342400Y-108300000D01*
X122227700Y-107627500D02*
X122227700Y-108011250D01*
X122227700Y-108011250D02*
X122516450Y-108300000D01*
%TO.N,Net-(U6-EN)*%
X157034200Y-105726200D02*
X158292800Y-106984800D01*
X160041200Y-106984800D02*
X160041200Y-107664000D01*
X157034200Y-104317800D02*
X157034200Y-105726200D01*
X158292800Y-106984800D02*
X160041200Y-106984800D01*
X160041200Y-105414600D02*
X160011200Y-105384600D01*
X160041200Y-106311400D02*
X160041200Y-105414600D01*
X160041200Y-107664000D02*
X159996800Y-107708400D01*
X160041200Y-106311400D02*
X160041200Y-106984800D01*
%TO.N,Net-(U2-SW)*%
X146507200Y-106070400D02*
X146507200Y-105543600D01*
X149758400Y-110236000D02*
X149758400Y-109321600D01*
X149758400Y-109321600D02*
X146507200Y-106070400D01*
%TO.N,Net-(U1-CC2)*%
X120027200Y-106249600D02*
X118955577Y-106249600D01*
X118955577Y-106249600D02*
X118573216Y-106631961D01*
X118573216Y-106631961D02*
X118567546Y-106631961D01*
%TO.N,Net-(U2-FB)*%
X145557199Y-112568400D02*
X145557199Y-113522801D01*
X145557199Y-113522801D02*
X145491200Y-113588800D01*
%TO.N,Net-(U1-ADDR{slash}ORIENT)*%
X127662500Y-112322900D02*
X128522000Y-113182400D01*
X127662500Y-111887500D02*
X127662500Y-112322900D01*
D64*
%TO.N,/Motor/Gate Driver/GATE_DRIVER_NFAULT*%
X136354727Y-98126971D02*
X135957787Y-98523911D01*
X135957787Y-98523911D02*
X135658711Y-98523911D01*
X135658711Y-98523911D02*
X133400800Y-96266000D01*
X133400800Y-94234000D02*
X132943600Y-93776800D01*
X132943600Y-93776800D02*
X131736400Y-93776800D01*
X133400800Y-96266000D02*
X133400800Y-94234000D01*
X136859206Y-97757905D02*
X136490140Y-98126971D01*
X131736400Y-93776800D02*
X131343200Y-93383600D01*
X136490140Y-98126971D02*
X136354727Y-98126971D01*
D62*
%TO.N,/Motor/Gate Driver/H_BRIDGE_SPA*%
X139949263Y-92546528D02*
X140246578Y-92249213D01*
X140246578Y-91299822D02*
X140309600Y-91236800D01*
X140246578Y-92249213D02*
X140246578Y-91299822D01*
%TO.N,Net-(U8-SOA)*%
X136152099Y-97121501D02*
X135636000Y-97637600D01*
X136152099Y-97050798D02*
X136152099Y-97121501D01*
%TO.N,Net-(U8-SOB)*%
X135465930Y-97029861D02*
X135798546Y-96697245D01*
X134793613Y-96803587D02*
X135019887Y-97029861D01*
X134936578Y-96994560D02*
X134930941Y-96988923D01*
X135019887Y-97029861D02*
X135465930Y-97029861D01*
%TO.N,Net-(U8-SOC)*%
X134990488Y-95889187D02*
X135444992Y-96343691D01*
X133980813Y-95889187D02*
X134990488Y-95889187D01*
%TO.N,/Power/VBUS_SWITCH_GATE*%
X126662500Y-109287500D02*
X126662500Y-108662500D01*
X126662500Y-108662500D02*
X126600000Y-108600000D01*
%TO.N,/MCU/PD_INT_N*%
X128422500Y-110337500D02*
X129235200Y-109524800D01*
X128212500Y-110337500D02*
X128422500Y-110337500D01*
%TO.N,/MCU/PD_FAULT*%
X127662500Y-109287500D02*
X128315199Y-109287500D01*
X128315199Y-109287500D02*
X128687499Y-108915200D01*
%TO.N,/CAN Transceiver1/CAN_RX*%
X161036000Y-101193600D02*
X161442400Y-100787200D01*
X160710400Y-101193600D02*
X161036000Y-101193600D01*
%TO.N,/Motor/Gate Driver/H_BRIDGE_SPC*%
X135061945Y-94284800D02*
X134721600Y-94284800D01*
X133908800Y-93472000D02*
X133908800Y-93370400D01*
X135798546Y-95021401D02*
X135061945Y-94284800D01*
X134721600Y-94284800D02*
X133908800Y-93472000D01*
%TO.N,/Motor/Gate Driver/GATE_DRIVER_INHA*%
X141454558Y-98653600D02*
X142240000Y-98653600D01*
X140656369Y-98465011D02*
X141149758Y-98958400D01*
X141149758Y-98958400D02*
X141454558Y-98653600D01*
%TO.N,/Motor/Gate Driver/GATE_DRIVER_NSCS*%
X138273419Y-99172118D02*
X138216282Y-99172118D01*
X138216282Y-99172118D02*
X137668000Y-99720400D01*
%TO.N,/Motor/Gate Driver/GATE_DRIVER_INHB*%
X141751171Y-98145600D02*
X142849600Y-98145600D01*
X142849600Y-98145600D02*
X143002000Y-97993200D01*
X141363476Y-97757905D02*
X141751171Y-98145600D01*
%TO.N,/Motor/Gate Driver/GATE_DRIVER_SCLK*%
X137053668Y-99684763D02*
X136652000Y-99684763D01*
X137919866Y-98818565D02*
X137053668Y-99684763D01*
D63*
%TO.N,/Motor/Gate Driver/GATE_DRIVER_INLA*%
X140614400Y-97597075D02*
X140614400Y-97715935D01*
X142043691Y-96316800D02*
X141894675Y-96316800D01*
X141717029Y-97404351D02*
X141701951Y-97404351D01*
X141894675Y-96316800D02*
X141254537Y-96956937D01*
X141701951Y-97404351D02*
X141254537Y-96956937D01*
X140614400Y-97715935D02*
X141009923Y-98111458D01*
D62*
X142782403Y-97055512D02*
X143349998Y-97055512D01*
D63*
X141254537Y-96956937D02*
X140614400Y-97597075D01*
D62*
X143349998Y-97055512D02*
X143443643Y-96961867D01*
D63*
X142424136Y-96697245D02*
X142043691Y-96316800D01*
D62*
X142424136Y-96697245D02*
X142782403Y-97055512D01*
%TO.N,/Motor/Gate Driver/GATE_DRIVER_INHC*%
X142070583Y-97050798D02*
X142555785Y-97536000D01*
X142555785Y-97536000D02*
X143408400Y-97536000D01*
%TO.N,/Motor/Gate Driver/H_BRIDGE_GHC*%
X136859206Y-93861918D02*
X135758088Y-92760800D01*
X136859206Y-93960741D02*
X136859206Y-93861918D01*
X135758088Y-92760800D02*
X135636000Y-92760800D01*
%TO.N,/Motor/Gate Driver/H_BRIDGE_GHA*%
X141009923Y-93607188D02*
X141332000Y-93285111D01*
X141332000Y-93285111D02*
X141332000Y-92779146D01*
X141332000Y-92779146D02*
X141783185Y-92327961D01*
%TO.N,/Motor/Gate Driver/H_BRIDGE_GLC*%
X136152099Y-94644764D02*
X135284135Y-93776800D01*
X136152099Y-94667848D02*
X136152099Y-94644764D01*
X135284135Y-93776800D02*
X134924800Y-93776800D01*
%TO.N,/Motor/Gate Driver/H_BRIDGE_GLA*%
X140620800Y-92582097D02*
X140620800Y-91859567D01*
X140302816Y-92900081D02*
X140620800Y-92582097D01*
X140620800Y-91859567D02*
X140734739Y-91745628D01*
%TO.N,/Motor/Gate Driver/H_BRIDGE_GHB*%
X137212759Y-93607188D02*
X137212759Y-93524759D01*
X137212759Y-93524759D02*
X136245600Y-92557600D01*
%TO.N,/Motor/Gate Driver/H_BRIDGE_GLB*%
X137919866Y-92900081D02*
X137109200Y-92089415D01*
X137109200Y-92089415D02*
X137109200Y-91744800D01*
%TO.N,Net-(U6-IO0)*%
X154736800Y-104444800D02*
X154736800Y-110337600D01*
X158191200Y-103022400D02*
X156159200Y-103022400D01*
X156159200Y-103022400D02*
X154736800Y-104444800D01*
X153517600Y-111556800D02*
X151747400Y-111556800D01*
X159021200Y-103454200D02*
X158623000Y-103454200D01*
X158623000Y-103454200D02*
X158191200Y-103022400D01*
X154736800Y-110337600D02*
X153517600Y-111556800D01*
D68*
%TO.N,/Motor/Gate Driver/H_BRIDGE_SHC*%
X135413800Y-93167200D02*
X135026400Y-93167200D01*
D62*
X136505653Y-94314295D02*
X135358558Y-93167200D01*
X135358558Y-93167200D02*
X135026400Y-93167200D01*
%TO.N,/Motor/Gate Driver/H_BRIDGE_SHB*%
X137566313Y-93199830D02*
X137032239Y-92665756D01*
X137566313Y-93253635D02*
X137566313Y-93199830D01*
%TO.N,/Motor/Gate Driver/H_BRIDGE_SHA*%
X140976400Y-92933604D02*
X140976400Y-92311441D01*
X140656369Y-93253635D02*
X140976400Y-92933604D01*
X140976400Y-92311441D02*
X141268851Y-92018990D01*
D63*
%TO.N,/CAN_P*%
X159205200Y-97129600D02*
X159382800Y-97307200D01*
X117271600Y-96540202D02*
X117291802Y-96520000D01*
X117043200Y-96786603D02*
X117271600Y-96558203D01*
X117271600Y-96558203D02*
X117271600Y-96540202D01*
X159471802Y-97307200D02*
X159471802Y-98247200D01*
X117291802Y-96520000D02*
X118211600Y-96520000D01*
X159382800Y-97307200D02*
X159471802Y-97307200D01*
X115207882Y-94951285D02*
X117043200Y-96786603D01*
%TO.N,/CAN_N*%
X160176600Y-97129600D02*
X159999000Y-97307200D01*
X160225200Y-97129600D02*
X160176600Y-97129600D01*
X117043200Y-95766603D02*
X117043200Y-95784604D01*
X159999000Y-97307200D02*
X159999000Y-98247200D01*
X117271600Y-96013004D02*
X118211600Y-96013004D01*
X117043200Y-95784604D02*
X117271600Y-96013004D01*
D61*
%TO.N,+3V3*%
X125600000Y-112000000D02*
X126050000Y-112000000D01*
X125420000Y-112180000D02*
X125600000Y-112000000D01*
X125420000Y-113200000D02*
X125420000Y-112180000D01*
X125600000Y-112000000D02*
X125550138Y-112049862D01*
X126050000Y-112000000D02*
X126162500Y-111887500D01*
%TD*%
%TA.AperFunction,Conductor*%
%TO.N,/Power/VBUS_IN*%
G36*
X122673539Y-102026085D02*
G01*
X122719294Y-102078889D01*
X122730500Y-102130400D01*
X122730500Y-107180876D01*
X122710815Y-107247915D01*
X122658011Y-107293670D01*
X122588853Y-107303614D01*
X122582314Y-107302494D01*
X122567761Y-107299600D01*
X121887645Y-107299600D01*
X121843041Y-107308472D01*
X121843038Y-107308473D01*
X121792466Y-107342265D01*
X121758671Y-107392843D01*
X121758670Y-107392845D01*
X121749800Y-107437440D01*
X121749800Y-107440262D01*
X121749381Y-107441685D01*
X121749203Y-107443503D01*
X121748858Y-107443469D01*
X121730115Y-107507301D01*
X121677311Y-107553056D01*
X121608153Y-107563000D01*
X121544597Y-107533975D01*
X121506823Y-107475197D01*
X121504183Y-107464456D01*
X121497427Y-107430493D01*
X121485733Y-107391944D01*
X121467219Y-107347248D01*
X121448231Y-107311724D01*
X121448226Y-107311716D01*
X121448219Y-107311705D01*
X121420581Y-107270341D01*
X121395019Y-107239194D01*
X121360805Y-107204980D01*
X121329662Y-107179421D01*
X121329657Y-107179417D01*
X121288295Y-107151780D01*
X121288287Y-107151775D01*
X121288279Y-107151770D01*
X121252749Y-107132779D01*
X121252746Y-107132777D01*
X121252739Y-107132774D01*
X121208051Y-107114265D01*
X121169503Y-107102572D01*
X121169500Y-107102571D01*
X121169499Y-107102571D01*
X121169497Y-107102570D01*
X121108467Y-107090431D01*
X121108449Y-107090428D01*
X121088540Y-107087474D01*
X121088513Y-107087471D01*
X121064337Y-107085090D01*
X121059296Y-107084842D01*
X121044188Y-107084100D01*
X120879699Y-107084100D01*
X120812660Y-107064415D01*
X120766905Y-107011611D01*
X120755699Y-106960100D01*
X120755699Y-106529745D01*
X120755699Y-106529743D01*
X120746828Y-106485142D01*
X120746827Y-106485141D01*
X120744445Y-106473163D01*
X120747652Y-106472525D01*
X120742304Y-106422785D01*
X120745027Y-106413513D01*
X120747828Y-106399429D01*
X120755700Y-106359857D01*
X120755699Y-106029744D01*
X120746828Y-105985142D01*
X120746827Y-105985141D01*
X120744445Y-105973163D01*
X120747652Y-105972525D01*
X120742304Y-105922785D01*
X120745027Y-105913513D01*
X120747828Y-105899429D01*
X120755700Y-105859857D01*
X120755699Y-105529744D01*
X120755699Y-105523652D01*
X120757749Y-105523652D01*
X120769008Y-105464207D01*
X120776291Y-105451802D01*
X120794681Y-105424280D01*
X120799619Y-105399457D01*
X120806500Y-105364866D01*
X120806500Y-105096331D01*
X120826185Y-105029292D01*
X120878989Y-104983537D01*
X120898398Y-104976558D01*
X120966365Y-104958347D01*
X121030856Y-104921113D01*
X121231913Y-104720056D01*
X121269147Y-104655565D01*
X121288421Y-104583634D01*
X121288421Y-104509166D01*
X121288421Y-103899566D01*
X121269147Y-103827635D01*
X121231913Y-103763144D01*
X121179256Y-103710487D01*
X120937256Y-103468487D01*
X120872765Y-103431253D01*
X120847603Y-103424510D01*
X120787945Y-103388147D01*
X120757416Y-103325300D01*
X120755699Y-103304746D01*
X120755699Y-103029744D01*
X120746828Y-102985142D01*
X120746827Y-102985141D01*
X120744445Y-102973163D01*
X120747652Y-102972525D01*
X120742304Y-102922785D01*
X120745027Y-102913513D01*
X120747828Y-102899429D01*
X120755700Y-102859857D01*
X120755699Y-102529744D01*
X120746828Y-102485142D01*
X120746827Y-102485141D01*
X120744445Y-102473163D01*
X120747652Y-102472525D01*
X120742304Y-102422785D01*
X120745027Y-102413513D01*
X120747828Y-102399429D01*
X120755700Y-102359857D01*
X120755699Y-102130398D01*
X120775383Y-102063361D01*
X120828187Y-102017606D01*
X120879699Y-102006400D01*
X122606500Y-102006400D01*
X122673539Y-102026085D01*
G37*
%TD.AperFunction*%
%TD*%
%TA.AperFunction,Conductor*%
%TO.N,VBUS*%
G36*
X124301439Y-97962085D02*
G01*
X124347194Y-98014889D01*
X124358400Y-98066400D01*
X124358400Y-100380800D01*
X126151871Y-100380800D01*
X126218910Y-100400485D01*
X126259257Y-100442799D01*
X126301460Y-100515895D01*
X126662103Y-100876538D01*
X126730994Y-100916314D01*
X126807824Y-100936899D01*
X126807828Y-100936900D01*
X126807831Y-100936900D01*
X127098338Y-100936900D01*
X127165377Y-100956585D01*
X127186019Y-100973219D01*
X127370081Y-101157281D01*
X127403566Y-101218604D01*
X127406400Y-101244962D01*
X127406400Y-101396800D01*
X121028000Y-101396800D01*
X120960961Y-101377115D01*
X120915206Y-101324311D01*
X120904000Y-101272800D01*
X120904000Y-99364800D01*
X119402400Y-99364800D01*
X119335361Y-99345115D01*
X119289606Y-99292311D01*
X119278400Y-99240800D01*
X119278400Y-98335722D01*
X119291231Y-98287849D01*
X119288689Y-98286797D01*
X119291798Y-98279290D01*
X119291799Y-98279289D01*
X119322500Y-98164712D01*
X119322500Y-98066400D01*
X119342185Y-97999361D01*
X119394989Y-97953606D01*
X119446500Y-97942400D01*
X124234400Y-97942400D01*
X124301439Y-97962085D01*
G37*
%TD.AperFunction*%
%TD*%
%TA.AperFunction,Conductor*%
%TO.N,Net-(U2-SW)*%
G36*
X149295039Y-104464485D02*
G01*
X149340794Y-104517289D01*
X149352000Y-104568800D01*
X149352000Y-108791200D01*
X149332315Y-108858239D01*
X149279511Y-108903994D01*
X149228000Y-108915200D01*
X147015200Y-108915200D01*
X147015200Y-109155694D01*
X146995515Y-109222733D01*
X146994304Y-109224583D01*
X146988932Y-109232621D01*
X146977301Y-109291097D01*
X146977301Y-110333900D01*
X146983561Y-110365370D01*
X146977334Y-110434961D01*
X146934472Y-110490139D01*
X146889600Y-110510439D01*
X146875950Y-110513562D01*
X146860873Y-110513562D01*
X146772770Y-110537168D01*
X146770549Y-110537677D01*
X146767857Y-110537513D01*
X146742893Y-110540800D01*
X146224800Y-110540800D01*
X146157761Y-110521115D01*
X146112006Y-110468311D01*
X146100800Y-110416800D01*
X146100800Y-108712000D01*
X146100799Y-108711999D01*
X143934145Y-107628672D01*
X143882987Y-107581085D01*
X143865600Y-107517763D01*
X143865600Y-104568800D01*
X143885285Y-104501761D01*
X143938089Y-104456006D01*
X143989600Y-104444800D01*
X149228000Y-104444800D01*
X149295039Y-104464485D01*
G37*
%TD.AperFunction*%
%TD*%
%TA.AperFunction,Conductor*%
%TO.N,+3V3*%
G36*
X139947839Y-101010085D02*
G01*
X139993594Y-101062889D01*
X140004800Y-101114400D01*
X140004800Y-102918334D01*
X140003538Y-102935980D01*
X140002500Y-102943198D01*
X140002500Y-108711214D01*
X139982815Y-108778253D01*
X139930011Y-108824008D01*
X139860853Y-108833952D01*
X139846409Y-108830989D01*
X139803531Y-108819500D01*
X139803527Y-108819500D01*
X139698073Y-108819500D01*
X139596213Y-108846793D01*
X139596210Y-108846794D01*
X139504885Y-108899521D01*
X139430321Y-108974085D01*
X139377594Y-109065410D01*
X139377593Y-109065413D01*
X139350300Y-109167273D01*
X139350300Y-109272727D01*
X139377593Y-109374587D01*
X139430320Y-109465913D01*
X139504887Y-109540480D01*
X139596213Y-109593207D01*
X139698073Y-109620500D01*
X139698075Y-109620500D01*
X139803525Y-109620500D01*
X139803527Y-109620500D01*
X139846408Y-109609010D01*
X139916256Y-109610673D01*
X139974119Y-109649836D01*
X140001623Y-109714064D01*
X140002500Y-109728785D01*
X140002500Y-110414508D01*
X140003701Y-110425671D01*
X139991296Y-110494431D01*
X139943686Y-110545568D01*
X139875987Y-110562848D01*
X139848320Y-110558702D01*
X139803527Y-110546700D01*
X139698073Y-110546700D01*
X139596213Y-110573993D01*
X139596210Y-110573994D01*
X139504885Y-110626721D01*
X139430321Y-110701285D01*
X139377594Y-110792610D01*
X139377593Y-110792613D01*
X139350300Y-110894473D01*
X139350300Y-110999927D01*
X139377593Y-111101787D01*
X139430320Y-111193113D01*
X139504887Y-111267680D01*
X139596213Y-111320407D01*
X139698073Y-111347700D01*
X139698075Y-111347700D01*
X139803525Y-111347700D01*
X139803527Y-111347700D01*
X139846408Y-111336210D01*
X139916256Y-111337873D01*
X139974119Y-111377036D01*
X140001623Y-111441264D01*
X140002500Y-111455985D01*
X140002500Y-112550400D01*
X139982815Y-112617439D01*
X139930011Y-112663194D01*
X139878500Y-112674400D01*
X135048800Y-112674400D01*
X134981761Y-112654715D01*
X134936006Y-112601911D01*
X134924800Y-112550400D01*
X134924800Y-105144239D01*
X134944485Y-105077200D01*
X134992088Y-105033968D01*
X135003888Y-105027899D01*
X135021281Y-105023239D01*
X135089225Y-104984010D01*
X135091911Y-104982629D01*
X135111160Y-104978938D01*
X135148623Y-104968900D01*
X135187306Y-104968900D01*
X135187309Y-104968900D01*
X135301886Y-104938199D01*
X135404613Y-104878889D01*
X135488489Y-104795013D01*
X135537572Y-104709998D01*
X135540256Y-104707439D01*
X135541338Y-104703892D01*
X135565350Y-104683513D01*
X135588140Y-104661784D01*
X135592606Y-104660381D01*
X135594609Y-104658682D01*
X135605119Y-104656452D01*
X135628574Y-104649087D01*
X135636728Y-104648000D01*
X135737600Y-104648000D01*
X135737600Y-104634553D01*
X135794725Y-104626938D01*
X135809935Y-104629284D01*
X135843201Y-104630076D01*
X135888073Y-104642100D01*
X135888075Y-104642100D01*
X135993525Y-104642100D01*
X135993527Y-104642100D01*
X136095387Y-104614807D01*
X136183604Y-104563874D01*
X136251499Y-104547403D01*
X136307594Y-104563874D01*
X136395813Y-104614807D01*
X136497673Y-104642100D01*
X136497675Y-104642100D01*
X136603125Y-104642100D01*
X136603127Y-104642100D01*
X136704987Y-104614807D01*
X136793204Y-104563874D01*
X136861099Y-104547403D01*
X136917194Y-104563874D01*
X137005413Y-104614807D01*
X137107273Y-104642100D01*
X137107275Y-104642100D01*
X137212725Y-104642100D01*
X137212727Y-104642100D01*
X137314587Y-104614807D01*
X137402804Y-104563874D01*
X137470699Y-104547403D01*
X137526794Y-104563874D01*
X137615013Y-104614807D01*
X137716873Y-104642100D01*
X137716875Y-104642100D01*
X137822325Y-104642100D01*
X137822327Y-104642100D01*
X137924187Y-104614807D01*
X138015513Y-104562080D01*
X138090080Y-104487513D01*
X138142807Y-104396187D01*
X138170100Y-104294327D01*
X138170100Y-104188873D01*
X138142807Y-104087013D01*
X138110565Y-104031169D01*
X138107933Y-104020317D01*
X138101331Y-104011306D01*
X138099842Y-103986969D01*
X138094094Y-103963274D01*
X138097636Y-103950900D01*
X138097066Y-103941566D01*
X138109738Y-103908631D01*
X138115321Y-103898653D01*
X138141333Y-103873171D01*
X138139681Y-103871519D01*
X138176000Y-103835200D01*
X138176000Y-103736066D01*
X138177262Y-103718419D01*
X138178300Y-103711199D01*
X138178300Y-101317608D01*
X138178299Y-101317591D01*
X138176711Y-101302821D01*
X138176000Y-101289565D01*
X138176000Y-101114400D01*
X138195685Y-101047361D01*
X138248489Y-101001606D01*
X138300000Y-100990400D01*
X139880800Y-100990400D01*
X139947839Y-101010085D01*
G37*
%TD.AperFunction*%
%TD*%
%TA.AperFunction,Conductor*%
%TO.N,GND*%
G36*
X137915839Y-101213285D02*
G01*
X137961594Y-101266089D01*
X137972800Y-101317600D01*
X137972800Y-103711200D01*
X137953115Y-103778239D01*
X137900311Y-103823994D01*
X137848800Y-103835200D01*
X133400800Y-103835200D01*
X133400800Y-103632000D01*
X132994400Y-103632000D01*
X132994400Y-103835200D01*
X131673600Y-103835200D01*
X131673600Y-104117600D01*
X131653915Y-104184639D01*
X131601111Y-104230394D01*
X131549600Y-104241600D01*
X127733600Y-104241600D01*
X127666561Y-104221915D01*
X127620806Y-104169111D01*
X127609600Y-104117600D01*
X127609600Y-101420846D01*
X127609631Y-101418084D01*
X127609911Y-101405514D01*
X127611900Y-101396800D01*
X127611900Y-101316229D01*
X127611931Y-101314838D01*
X127622121Y-101282790D01*
X127631585Y-101250561D01*
X127632667Y-101249622D01*
X127633103Y-101248254D01*
X127659022Y-101226786D01*
X127684389Y-101204806D01*
X127685978Y-101204460D01*
X127686913Y-101203686D01*
X127692832Y-101202969D01*
X127735900Y-101193600D01*
X137848800Y-101193600D01*
X137915839Y-101213285D01*
G37*
%TD.AperFunction*%
%TD*%
%TA.AperFunction,Conductor*%
%TO.N,GND*%
G36*
X119093826Y-99384485D02*
G01*
X119128676Y-99422303D01*
X119130360Y-99421147D01*
X119134301Y-99426886D01*
X119180060Y-99479695D01*
X119197642Y-99497639D01*
X119197646Y-99497643D01*
X119197647Y-99497644D01*
X119197649Y-99497645D01*
X119277459Y-99542288D01*
X119277463Y-99542290D01*
X119344502Y-99561975D01*
X119402400Y-99570300D01*
X120574500Y-99570300D01*
X120641539Y-99589985D01*
X120687294Y-99642789D01*
X120698500Y-99694300D01*
X120698500Y-100938951D01*
X120696117Y-100963143D01*
X120686277Y-101012610D01*
X120667763Y-101057308D01*
X120640109Y-101098696D01*
X120605895Y-101132909D01*
X120564508Y-101160562D01*
X120519812Y-101179076D01*
X120471789Y-101188629D01*
X120458778Y-101191217D01*
X120434588Y-101193600D01*
X119684800Y-101193600D01*
X119630917Y-101247483D01*
X119575521Y-101302878D01*
X119514197Y-101336362D01*
X119444506Y-101331377D01*
X119388572Y-101289506D01*
X119380453Y-101277196D01*
X119377915Y-101272800D01*
X119363300Y-101247486D01*
X119270114Y-101154300D01*
X119210909Y-101120118D01*
X119155987Y-101088408D01*
X119092339Y-101071354D01*
X119028692Y-101054300D01*
X118896908Y-101054300D01*
X118769612Y-101088408D01*
X118655486Y-101154300D01*
X118655483Y-101154302D01*
X118562302Y-101247483D01*
X118562300Y-101247486D01*
X118496408Y-101361612D01*
X118462300Y-101488908D01*
X118462300Y-101620691D01*
X118496408Y-101747987D01*
X118529354Y-101805050D01*
X118562300Y-101862114D01*
X118655486Y-101955300D01*
X118769614Y-102021192D01*
X118896908Y-102055300D01*
X118896910Y-102055300D01*
X119028689Y-102055300D01*
X119028692Y-102055300D01*
X119106210Y-102034529D01*
X119176056Y-102036192D01*
X119233918Y-102075354D01*
X119261423Y-102139582D01*
X119262300Y-102154304D01*
X119262300Y-102364547D01*
X119273451Y-102420610D01*
X119273451Y-102468990D01*
X119262300Y-102525052D01*
X119262300Y-102768700D01*
X119259749Y-102777385D01*
X119261038Y-102786347D01*
X119250059Y-102810387D01*
X119242615Y-102835739D01*
X119235774Y-102841666D01*
X119232013Y-102849903D01*
X119209778Y-102864192D01*
X119189811Y-102881494D01*
X119179296Y-102883781D01*
X119173235Y-102887677D01*
X119138300Y-102892700D01*
X119129626Y-102892700D01*
X119067626Y-102876087D01*
X119047023Y-102864192D01*
X119026587Y-102852393D01*
X118924727Y-102825100D01*
X118819273Y-102825100D01*
X118717413Y-102852393D01*
X118717410Y-102852394D01*
X118626085Y-102905121D01*
X118551521Y-102979685D01*
X118498794Y-103071010D01*
X118498793Y-103071013D01*
X118471500Y-103172873D01*
X118471500Y-103278326D01*
X118498793Y-103380186D01*
X118498794Y-103380189D01*
X118551521Y-103471514D01*
X118605937Y-103525930D01*
X118639422Y-103587253D01*
X118634438Y-103656945D01*
X118605937Y-103701292D01*
X118231542Y-104075689D01*
X118178887Y-104128343D01*
X118178885Y-104128346D01*
X118141650Y-104192837D01*
X118141650Y-104192838D01*
X118125034Y-104254849D01*
X118092942Y-104310434D01*
X118042709Y-104360667D01*
X118042704Y-104360674D01*
X117989559Y-104452723D01*
X117989559Y-104452724D01*
X117989558Y-104452726D01*
X117962047Y-104555401D01*
X117962047Y-104661697D01*
X117989558Y-104764372D01*
X118042706Y-104856427D01*
X118117869Y-104931590D01*
X118209924Y-104984738D01*
X118312599Y-105012249D01*
X118312601Y-105012249D01*
X118418893Y-105012249D01*
X118418895Y-105012249D01*
X118521570Y-104984738D01*
X118557019Y-104964271D01*
X118624916Y-104947798D01*
X118690943Y-104970649D01*
X118734135Y-105025570D01*
X118735803Y-105030581D01*
X118737452Y-105034564D01*
X118737453Y-105034565D01*
X118774687Y-105099056D01*
X119016687Y-105341056D01*
X119069344Y-105393713D01*
X119133835Y-105430947D01*
X119170395Y-105440743D01*
X119230053Y-105477106D01*
X119260583Y-105539953D01*
X119262300Y-105560517D01*
X119262300Y-105823500D01*
X119242615Y-105890539D01*
X119189811Y-105936294D01*
X119138300Y-105947500D01*
X118915801Y-105947500D01*
X118838971Y-105968085D01*
X118770080Y-106007861D01*
X118581046Y-106196896D01*
X118522532Y-106228847D01*
X118522669Y-106229358D01*
X118520563Y-106229922D01*
X118519723Y-106230381D01*
X118517225Y-106230816D01*
X118412959Y-106258754D01*
X118412956Y-106258755D01*
X118321631Y-106311482D01*
X118247067Y-106386046D01*
X118194340Y-106477371D01*
X118194339Y-106477374D01*
X118167046Y-106579234D01*
X118167046Y-106684688D01*
X118194339Y-106786548D01*
X118247066Y-106877874D01*
X118321633Y-106952441D01*
X118412959Y-107005168D01*
X118412964Y-107005169D01*
X118420466Y-107008277D01*
X118419052Y-107011688D01*
X118464261Y-107038836D01*
X118495205Y-107101479D01*
X118492836Y-107154944D01*
X118462300Y-107268908D01*
X118462300Y-107400691D01*
X118496408Y-107527987D01*
X118512473Y-107555812D01*
X118562300Y-107642114D01*
X118655486Y-107735300D01*
X118769614Y-107801192D01*
X118896908Y-107835300D01*
X118896910Y-107835300D01*
X119028690Y-107835300D01*
X119028692Y-107835300D01*
X119155986Y-107801192D01*
X119270114Y-107735300D01*
X119363300Y-107642114D01*
X119429192Y-107527986D01*
X119453516Y-107437205D01*
X119489881Y-107377546D01*
X119552728Y-107347017D01*
X119573291Y-107345300D01*
X120622550Y-107345300D01*
X120622551Y-107345299D01*
X120637368Y-107342352D01*
X120681029Y-107333668D01*
X120681029Y-107333667D01*
X120681031Y-107333667D01*
X120701331Y-107320102D01*
X120715706Y-107310498D01*
X120782383Y-107289620D01*
X120784597Y-107289600D01*
X121044188Y-107289600D01*
X121068380Y-107291983D01*
X121129411Y-107304123D01*
X121174109Y-107322637D01*
X121215496Y-107350291D01*
X121249709Y-107384504D01*
X121277362Y-107425891D01*
X121295876Y-107470587D01*
X121308017Y-107531619D01*
X121310400Y-107555812D01*
X121310400Y-109258587D01*
X121308017Y-109282780D01*
X121295876Y-109343812D01*
X121277362Y-109388508D01*
X121249709Y-109429895D01*
X121215495Y-109464109D01*
X121174108Y-109491762D01*
X121129412Y-109510276D01*
X121081389Y-109519829D01*
X121068378Y-109522417D01*
X121044188Y-109524800D01*
X114324500Y-109524800D01*
X114257461Y-109505115D01*
X114211706Y-109452311D01*
X114200500Y-109400800D01*
X114200500Y-99488800D01*
X114220185Y-99421761D01*
X114272989Y-99376006D01*
X114324500Y-99364800D01*
X119026787Y-99364800D01*
X119093826Y-99384485D01*
G37*
%TD.AperFunction*%
%TD*%
%TA.AperFunction,Conductor*%
%TO.N,GND*%
G36*
X149091839Y-109341285D02*
G01*
X149137594Y-109394089D01*
X149148800Y-109445600D01*
X149148800Y-112245600D01*
X149129115Y-112312639D01*
X149076311Y-112358394D01*
X149024800Y-112369600D01*
X148061101Y-112369600D01*
X148054224Y-112367580D01*
X148047165Y-112368814D01*
X148021144Y-112357867D01*
X147994062Y-112349915D01*
X147989369Y-112344499D01*
X147982762Y-112341720D01*
X147966788Y-112318439D01*
X147948307Y-112297111D01*
X147946323Y-112288613D01*
X147943232Y-112284108D01*
X147938854Y-112256613D01*
X147937157Y-112249341D01*
X147937101Y-112247485D01*
X147937101Y-112047002D01*
X147929967Y-112011139D01*
X147929656Y-112000820D01*
X147929882Y-111999951D01*
X147929600Y-111997079D01*
X147929600Y-111760000D01*
X145084800Y-111760000D01*
X145084800Y-111997079D01*
X145082417Y-112021271D01*
X145082199Y-112022370D01*
X145077299Y-112047002D01*
X145077299Y-113089798D01*
X145082417Y-113115530D01*
X145084800Y-113139719D01*
X145084800Y-113871200D01*
X145065115Y-113938239D01*
X145012311Y-113983994D01*
X144960800Y-113995200D01*
X140332000Y-113995200D01*
X140264961Y-113975515D01*
X140219206Y-113922711D01*
X140208000Y-113871200D01*
X140208000Y-110868000D01*
X140227685Y-110800961D01*
X140280489Y-110755206D01*
X140332000Y-110744000D01*
X146199934Y-110744000D01*
X146217580Y-110745262D01*
X146218798Y-110745437D01*
X146224800Y-110746300D01*
X146224801Y-110746300D01*
X146742899Y-110746300D01*
X146771746Y-110744409D01*
X146771749Y-110744469D01*
X146781308Y-110744000D01*
X147116800Y-110744000D01*
X147116800Y-110632732D01*
X147136485Y-110565693D01*
X147138594Y-110562617D01*
X147138554Y-110562590D01*
X147139616Y-110561034D01*
X147139623Y-110561026D01*
X147153800Y-110540270D01*
X147182016Y-110453276D01*
X147188243Y-110383685D01*
X147185112Y-110325278D01*
X147185110Y-110325271D01*
X147184560Y-110320886D01*
X147184713Y-110320866D01*
X147182801Y-110301448D01*
X147182801Y-109445600D01*
X147202486Y-109378561D01*
X147255290Y-109332806D01*
X147306801Y-109321600D01*
X149024800Y-109321600D01*
X149091839Y-109341285D01*
G37*
%TD.AperFunction*%
%TD*%
%TA.AperFunction,Conductor*%
%TO.N,Net-(U3-SW)*%
G36*
X133849262Y-105579014D02*
G01*
X133878156Y-105595696D01*
X133878157Y-105595697D01*
X133878159Y-105595697D01*
X133878162Y-105595699D01*
X133973665Y-105621289D01*
X133973667Y-105621289D01*
X134072532Y-105621289D01*
X134072535Y-105621289D01*
X134168038Y-105595699D01*
X134168040Y-105595697D01*
X134168042Y-105595697D01*
X134168043Y-105595696D01*
X134196938Y-105579014D01*
X134258939Y-105562400D01*
X134595300Y-105562400D01*
X134662339Y-105582085D01*
X134708094Y-105634889D01*
X134719300Y-105686400D01*
X134719300Y-112550407D01*
X134723997Y-112594086D01*
X134735197Y-112645574D01*
X134736792Y-112652099D01*
X134737690Y-112655773D01*
X134758746Y-112695287D01*
X134772902Y-112763705D01*
X134747819Y-112828917D01*
X134691462Y-112870217D01*
X134649314Y-112877600D01*
X131289600Y-112877600D01*
X131222561Y-112857915D01*
X131176806Y-112805111D01*
X131165600Y-112753600D01*
X131165600Y-106194400D01*
X131185285Y-106127361D01*
X131238089Y-106081606D01*
X131289600Y-106070400D01*
X131814929Y-106070400D01*
X131881351Y-106089690D01*
X131893460Y-106097371D01*
X131897646Y-106101643D01*
X131919206Y-106113703D01*
X131922091Y-106115533D01*
X131922834Y-106116381D01*
X131930986Y-106121738D01*
X131935834Y-106125445D01*
X131944070Y-106129206D01*
X131944070Y-106129204D01*
X131954989Y-106134191D01*
X131954996Y-106134195D01*
X131959598Y-106136297D01*
X131977463Y-106146290D01*
X131988709Y-106149591D01*
X131996772Y-106153274D01*
X131996770Y-106153274D01*
X131999384Y-106154468D01*
X131999388Y-106154469D01*
X132022859Y-106163496D01*
X132031060Y-106164166D01*
X132040083Y-106165509D01*
X132040108Y-106165341D01*
X132044488Y-106165971D01*
X132044492Y-106165972D01*
X132088862Y-106172353D01*
X132102399Y-106174300D01*
X132102400Y-106174300D01*
X133276791Y-106174300D01*
X133276800Y-106174300D01*
X133320484Y-106169603D01*
X133349675Y-106163252D01*
X133371974Y-106158402D01*
X133371990Y-106158398D01*
X133371995Y-106158397D01*
X133382173Y-106155910D01*
X133462885Y-106112900D01*
X133515689Y-106067145D01*
X133533643Y-106049554D01*
X133578290Y-105969737D01*
X133597975Y-105902698D01*
X133606300Y-105844800D01*
X133606300Y-105686400D01*
X133608850Y-105677714D01*
X133607562Y-105668753D01*
X133618540Y-105644712D01*
X133625985Y-105619361D01*
X133632825Y-105613433D01*
X133636587Y-105605197D01*
X133658821Y-105590907D01*
X133678789Y-105573606D01*
X133689303Y-105571318D01*
X133695365Y-105567423D01*
X133730300Y-105562400D01*
X133787261Y-105562400D01*
X133849262Y-105579014D01*
G37*
%TD.AperFunction*%
%TD*%
%TA.AperFunction,Conductor*%
%TO.N,VBUS*%
G36*
X142995839Y-102838885D02*
G01*
X143041594Y-102891689D01*
X143052800Y-102943200D01*
X143052800Y-107373271D01*
X143678880Y-107667896D01*
X143728621Y-107710371D01*
X143743021Y-107731551D01*
X143769684Y-107756352D01*
X143794181Y-107779139D01*
X143842243Y-107812477D01*
X145604222Y-108693466D01*
X145826754Y-108804732D01*
X145877913Y-108852319D01*
X145895300Y-108915641D01*
X145895300Y-110414500D01*
X145875615Y-110481539D01*
X145822811Y-110527294D01*
X145771300Y-110538500D01*
X140332000Y-110538500D01*
X140264961Y-110518815D01*
X140219206Y-110466011D01*
X140208000Y-110414500D01*
X140208000Y-102943200D01*
X140227685Y-102876161D01*
X140280489Y-102830406D01*
X140332000Y-102819200D01*
X142928800Y-102819200D01*
X142995839Y-102838885D01*
G37*
%TD.AperFunction*%
%TD*%
%TA.AperFunction,Conductor*%
%TO.N,GND*%
G36*
X133400800Y-103835200D02*
G01*
X133400800Y-105844800D01*
X133381115Y-105911839D01*
X133328311Y-105957594D01*
X133276800Y-105968800D01*
X132102400Y-105968800D01*
X132093714Y-105966249D01*
X132084753Y-105967538D01*
X132060712Y-105956559D01*
X132035361Y-105949115D01*
X132029433Y-105942274D01*
X132021197Y-105938513D01*
X132006907Y-105916278D01*
X131989606Y-105896311D01*
X131987318Y-105885796D01*
X131983423Y-105879735D01*
X131978400Y-105844800D01*
X131978400Y-105686400D01*
X131998085Y-105619361D01*
X132050889Y-105573606D01*
X132102400Y-105562400D01*
X132994400Y-105562400D01*
X132994400Y-103835200D01*
X132994400Y-103632000D01*
X133400800Y-103632000D01*
X133400800Y-103835200D01*
G37*
%TD.AperFunction*%
%TD*%
%TA.AperFunction,Conductor*%
%TO.N,VBUS*%
G36*
X127404462Y-101400933D02*
G01*
X127404462Y-101400938D01*
X127404182Y-101413464D01*
X127404143Y-101415800D01*
X127404113Y-101418534D01*
X127404100Y-101420844D01*
X127404100Y-104117605D01*
X127405689Y-104132377D01*
X127406400Y-104145634D01*
X127406400Y-104444800D01*
X127708734Y-104444800D01*
X127726380Y-104446062D01*
X127727598Y-104446237D01*
X127733600Y-104447100D01*
X127733601Y-104447100D01*
X131549591Y-104447100D01*
X131549600Y-104447100D01*
X131564378Y-104445510D01*
X131577634Y-104444800D01*
X131806583Y-104444800D01*
X131873622Y-104464485D01*
X131909686Y-104499910D01*
X131910048Y-104500452D01*
X131976369Y-104544767D01*
X131976370Y-104544768D01*
X132034847Y-104556399D01*
X132034850Y-104556400D01*
X132664900Y-104556400D01*
X132731939Y-104576085D01*
X132777694Y-104628889D01*
X132788900Y-104680400D01*
X132788900Y-105232900D01*
X132786349Y-105241585D01*
X132787638Y-105250547D01*
X132776659Y-105274587D01*
X132769215Y-105299939D01*
X132762374Y-105305866D01*
X132758613Y-105314103D01*
X132736378Y-105328392D01*
X132716411Y-105345694D01*
X132705896Y-105347981D01*
X132699835Y-105351877D01*
X132664900Y-105356900D01*
X132536808Y-105356900D01*
X132504715Y-105352675D01*
X132501737Y-105351877D01*
X132462927Y-105341478D01*
X132357473Y-105341478D01*
X132315685Y-105352675D01*
X132283592Y-105356900D01*
X132102392Y-105356900D01*
X132058713Y-105361597D01*
X132007225Y-105372797D01*
X131997027Y-105375290D01*
X131916316Y-105418299D01*
X131916315Y-105418300D01*
X131902219Y-105430513D01*
X131838665Y-105459538D01*
X131821018Y-105460800D01*
X131064000Y-105460800D01*
X131064000Y-105906929D01*
X131044315Y-105973968D01*
X131037615Y-105982198D01*
X131038144Y-105982602D01*
X131032754Y-105989649D01*
X130988111Y-106069459D01*
X130988109Y-106069464D01*
X130968426Y-106136496D01*
X130960100Y-106194403D01*
X130960100Y-110016745D01*
X130940415Y-110083784D01*
X130887611Y-110129539D01*
X130818453Y-110139483D01*
X130774103Y-110124134D01*
X130761389Y-110116794D01*
X130761388Y-110116793D01*
X130761387Y-110116793D01*
X130659527Y-110089500D01*
X130554073Y-110089500D01*
X130452206Y-110116795D01*
X130451690Y-110117009D01*
X130451219Y-110117059D01*
X130444362Y-110118897D01*
X130444075Y-110117827D01*
X130382220Y-110124472D01*
X130319743Y-110093192D01*
X130308997Y-110081837D01*
X128828800Y-108305600D01*
X126921993Y-108305600D01*
X126854954Y-108285915D01*
X126846511Y-108279979D01*
X126845915Y-108279521D01*
X126754589Y-108226794D01*
X126754588Y-108226793D01*
X126754587Y-108226793D01*
X126652727Y-108199500D01*
X126547273Y-108199500D01*
X126445413Y-108226793D01*
X126445410Y-108226794D01*
X126354084Y-108279521D01*
X126353489Y-108279979D01*
X126352895Y-108280208D01*
X126347049Y-108283584D01*
X126346522Y-108282671D01*
X126288319Y-108305171D01*
X126278007Y-108305600D01*
X123853677Y-108305600D01*
X123786638Y-108285915D01*
X123740883Y-108233111D01*
X123733902Y-108213693D01*
X123730099Y-108199500D01*
X123715607Y-108145413D01*
X123662880Y-108054087D01*
X123588313Y-107979520D01*
X123496987Y-107926793D01*
X123395127Y-107899500D01*
X123289673Y-107899500D01*
X123187813Y-107926793D01*
X123187810Y-107926794D01*
X123122000Y-107964790D01*
X123054100Y-107981263D01*
X122988073Y-107958410D01*
X122944882Y-107903489D01*
X122936000Y-107857403D01*
X122936000Y-101396800D01*
X127404975Y-101396800D01*
X127404462Y-101400933D01*
G37*
%TD.AperFunction*%
%TD*%
M02*
