%TF.GenerationSoftware,KiCad,Pcbnew,9.0.1*%
%TF.CreationDate,2025-05-01T00:05:03-04:00*%
%TF.ProjectId,main_board,6d61696e-5f62-46f6-9172-642e6b696361,rev?*%
%TF.SameCoordinates,Original*%
%TF.FileFunction,Copper,L6,Bot*%
%TF.FilePolarity,Positive*%
%FSLAX46Y46*%
G04 Gerber Fmt 4.6, Leading zero omitted, Abs format (unit mm)*
G04 Created by KiCad (PCBNEW 9.0.1) date 2025-05-01 00:05:03*
%MOMM*%
%LPD*%
G01*
G04 APERTURE LIST*
G04 Aperture macros list*
%AMRoundRect*
0 Rectangle with rounded corners*
0 $1 Rounding radius*
0 $2 $3 $4 $5 $6 $7 $8 $9 X,Y pos of 4 corners*
0 Add a 4 corners polygon primitive as box body*
4,1,4,$2,$3,$4,$5,$6,$7,$8,$9,$2,$3,0*
0 Add four circle primitives for the rounded corners*
1,1,$1+$1,$2,$3*
1,1,$1+$1,$4,$5*
1,1,$1+$1,$6,$7*
1,1,$1+$1,$8,$9*
0 Add four rect primitives between the rounded corners*
20,1,$1+$1,$2,$3,$4,$5,0*
20,1,$1+$1,$4,$5,$6,$7,0*
20,1,$1+$1,$6,$7,$8,$9,0*
20,1,$1+$1,$8,$9,$2,$3,0*%
G04 Aperture macros list end*
%TA.AperFunction,ComponentPad*%
%ADD10C,3.800000*%
%TD*%
%TA.AperFunction,SMDPad,CuDef*%
%ADD11RoundRect,0.135000X-0.185000X0.135000X-0.185000X-0.135000X0.185000X-0.135000X0.185000X0.135000X0*%
%TD*%
%TA.AperFunction,ComponentPad*%
%ADD12C,0.600000*%
%TD*%
%TA.AperFunction,ComponentPad*%
%ADD13O,1.900000X1.000000*%
%TD*%
%TA.AperFunction,ComponentPad*%
%ADD14O,1.600000X1.000000*%
%TD*%
%TA.AperFunction,ComponentPad*%
%ADD15C,2.300000*%
%TD*%
%TA.AperFunction,SMDPad,CuDef*%
%ADD16RoundRect,0.135000X-0.035355X0.226274X-0.226274X0.035355X0.035355X-0.226274X0.226274X-0.035355X0*%
%TD*%
%TA.AperFunction,SMDPad,CuDef*%
%ADD17RoundRect,0.140000X0.170000X-0.140000X0.170000X0.140000X-0.170000X0.140000X-0.170000X-0.140000X0*%
%TD*%
%TA.AperFunction,SMDPad,CuDef*%
%ADD18RoundRect,0.140000X0.021213X-0.219203X0.219203X-0.021213X-0.021213X0.219203X-0.219203X0.021213X0*%
%TD*%
%TA.AperFunction,SMDPad,CuDef*%
%ADD19R,0.900000X1.500000*%
%TD*%
%TA.AperFunction,SMDPad,CuDef*%
%ADD20R,1.500000X0.900000*%
%TD*%
%TA.AperFunction,SMDPad,CuDef*%
%ADD21R,0.900000X0.900000*%
%TD*%
%TA.AperFunction,SMDPad,CuDef*%
%ADD22RoundRect,0.135000X0.185000X-0.135000X0.185000X0.135000X-0.185000X0.135000X-0.185000X-0.135000X0*%
%TD*%
%TA.AperFunction,SMDPad,CuDef*%
%ADD23RoundRect,0.181818X-0.268182X-0.218182X0.268182X-0.218182X0.268182X0.218182X-0.268182X0.218182X0*%
%TD*%
%TA.AperFunction,SMDPad,CuDef*%
%ADD24RoundRect,0.181818X0.268182X0.218182X-0.268182X0.218182X-0.268182X-0.218182X0.268182X-0.218182X0*%
%TD*%
%TA.AperFunction,SMDPad,CuDef*%
%ADD25RoundRect,0.140000X-0.140000X-0.170000X0.140000X-0.170000X0.140000X0.170000X-0.140000X0.170000X0*%
%TD*%
%TA.AperFunction,SMDPad,CuDef*%
%ADD26RoundRect,0.140000X-0.170000X0.140000X-0.170000X-0.140000X0.170000X-0.140000X0.170000X0.140000X0*%
%TD*%
%TA.AperFunction,SMDPad,CuDef*%
%ADD27RoundRect,0.135000X-0.135000X-0.185000X0.135000X-0.185000X0.135000X0.185000X-0.135000X0.185000X0*%
%TD*%
%TA.AperFunction,SMDPad,CuDef*%
%ADD28RoundRect,0.140000X0.219203X0.021213X0.021213X0.219203X-0.219203X-0.021213X-0.021213X-0.219203X0*%
%TD*%
%TA.AperFunction,SMDPad,CuDef*%
%ADD29RoundRect,0.140000X-0.219203X-0.021213X-0.021213X-0.219203X0.219203X0.021213X0.021213X0.219203X0*%
%TD*%
%TA.AperFunction,SMDPad,CuDef*%
%ADD30RoundRect,0.140000X0.140000X0.170000X-0.140000X0.170000X-0.140000X-0.170000X0.140000X-0.170000X0*%
%TD*%
%TA.AperFunction,SMDPad,CuDef*%
%ADD31R,0.565000X0.200000*%
%TD*%
%TA.AperFunction,SMDPad,CuDef*%
%ADD32R,0.565000X0.400000*%
%TD*%
%TA.AperFunction,ComponentPad*%
%ADD33C,1.700000*%
%TD*%
%TA.AperFunction,ViaPad*%
%ADD34C,0.400000*%
%TD*%
%TA.AperFunction,ViaPad*%
%ADD35C,1.000000*%
%TD*%
%TA.AperFunction,ViaPad*%
%ADD36C,0.500000*%
%TD*%
%TA.AperFunction,ViaPad*%
%ADD37C,0.350000*%
%TD*%
%TA.AperFunction,Conductor*%
%ADD38C,0.304800*%
%TD*%
%TA.AperFunction,Conductor*%
%ADD39C,0.100000*%
%TD*%
%TA.AperFunction,Conductor*%
%ADD40C,0.203200*%
%TD*%
%TA.AperFunction,Conductor*%
%ADD41C,0.158242*%
%TD*%
%TA.AperFunction,Conductor*%
%ADD42C,0.076200*%
%TD*%
G04 APERTURE END LIST*
D10*
%TO.P,REF\u002A\u002A,1*%
%TO.N,N/C*%
X117000000Y-112000000D03*
%TD*%
D11*
%TO.P,R43,2*%
%TO.N,/MCU/PD_SCL*%
X136956800Y-109222000D03*
%TO.P,R43,1*%
%TO.N,+3V3*%
X136956800Y-108202000D03*
%TD*%
%TO.P,R42,1*%
%TO.N,+3V3*%
X138887200Y-108202000D03*
%TO.P,R42,2*%
%TO.N,/MCU/PD_SDA*%
X138887200Y-109222000D03*
%TD*%
%TO.P,R41,2*%
%TO.N,/MCU/PD_SCL*%
X135991600Y-109222000D03*
%TO.P,R41,1*%
%TO.N,+3V3*%
X135991600Y-108202000D03*
%TD*%
%TO.P,R40,1*%
%TO.N,+3V3*%
X137922000Y-108202000D03*
%TO.P,R40,2*%
%TO.N,/MCU/PD_SDA*%
X137922000Y-109222000D03*
%TD*%
D10*
%TO.P,REF\u002A\u002A,1*%
%TO.N,N/C*%
X161000000Y-76000000D03*
%TD*%
%TO.P,REF\u002A\u002A,1*%
%TO.N,N/C*%
X161000000Y-112000000D03*
%TD*%
%TO.P,REF\u002A\u002A,1*%
%TO.N,N/C*%
X117000000Y-81000000D03*
%TD*%
D12*
%TO.P,USB1,*%
%TO.N,*%
X118962800Y-101554800D03*
X118962800Y-107334800D03*
D13*
%TO.P,USB1,1*%
%TO.N,GND*%
X119462800Y-100124800D03*
%TO.P,USB1,2*%
X119462800Y-108764800D03*
D14*
%TO.P,USB1,3*%
X115282800Y-108764800D03*
%TO.P,USB1,4*%
X115282800Y-100124800D03*
%TD*%
D15*
%TO.P,CN3,1,1*%
%TO.N,/Motor/Gate Driver/H_BRIDGE_SHA*%
X141070000Y-77074400D03*
X143570000Y-72074400D03*
%TO.P,CN3,2,2*%
%TO.N,/Motor/Gate Driver/H_BRIDGE_SHB*%
X146070000Y-77074400D03*
X148570000Y-72074400D03*
%TO.P,CN3,3,3*%
%TO.N,/Motor/Gate Driver/H_BRIDGE_SHC*%
X151070000Y-77074400D03*
X153570000Y-72074400D03*
%TD*%
D16*
%TO.P,R31,1*%
%TO.N,Net-(U8-SOA)*%
X135708013Y-97717987D03*
%TO.P,R31,2*%
%TO.N,/Motor/Gate Driver/MOTOR_C_CURRENT_SENSE*%
X134986765Y-98439235D03*
%TD*%
D17*
%TO.P,C30,1*%
%TO.N,+3V3*%
X132270800Y-95783600D03*
%TO.P,C30,2*%
%TO.N,GND*%
X132270800Y-94823600D03*
%TD*%
D18*
%TO.P,C74,1*%
%TO.N,/Motor/Gate Driver/MOTOR_A_CURRENT_SENSE*%
X134601578Y-95268422D03*
%TO.P,C74,2*%
%TO.N,GND*%
X135280400Y-94589600D03*
%TD*%
D17*
%TO.P,C54,1*%
%TO.N,Net-(U3-SW)*%
X134023100Y-105979789D03*
%TO.P,C54,2*%
%TO.N,Net-(U3-BST)*%
X134023100Y-105019789D03*
%TD*%
%TO.P,C48,1*%
%TO.N,+3V3*%
X129603200Y-96504400D03*
%TO.P,C48,2*%
%TO.N,GND*%
X129603200Y-95544400D03*
%TD*%
D11*
%TO.P,R21,1*%
%TO.N,/MCU/STM32_EN*%
X128270000Y-98194400D03*
%TO.P,R21,2*%
%TO.N,GND*%
X128270000Y-99214400D03*
%TD*%
D18*
%TO.P,C58,1*%
%TO.N,/Motor/Gate Driver/MOTOR_C_CURRENT_SENSE*%
X136328778Y-97097222D03*
%TO.P,C58,2*%
%TO.N,GND*%
X137007600Y-96418400D03*
%TD*%
D17*
%TO.P,C51,1*%
%TO.N,+3V3*%
X131356400Y-95783600D03*
%TO.P,C51,2*%
%TO.N,GND*%
X131356400Y-94823600D03*
%TD*%
D16*
%TO.P,R32,1*%
%TO.N,Net-(U8-SOB)*%
X134793613Y-96803587D03*
%TO.P,R32,2*%
%TO.N,/Motor/Gate Driver/MOTOR_B_CURRENT_SENSE*%
X134072365Y-97524835D03*
%TD*%
D18*
%TO.P,C73,1*%
%TO.N,/Motor/Gate Driver/MOTOR_B_CURRENT_SENSE*%
X135414378Y-96182822D03*
%TO.P,C73,2*%
%TO.N,GND*%
X136093200Y-95504000D03*
%TD*%
D19*
%TO.P,U6,1,GND*%
%TO.N,GND*%
X162536800Y-107708400D03*
%TO.P,U6,2,3V3*%
%TO.N,+3V3*%
X161266800Y-107708400D03*
%TO.P,U6,3,EN*%
%TO.N,Net-(U6-EN)*%
X159996800Y-107708400D03*
%TO.P,U6,4,IO4*%
%TO.N,/MCU/EN_12V*%
X158726800Y-107708400D03*
%TO.P,U6,5,IO5*%
%TO.N,/MCU/PD_INT_N*%
X157456800Y-107708400D03*
%TO.P,U6,6,IO6*%
%TO.N,/MCU/PD_FAULT*%
X156186800Y-107708400D03*
%TO.P,U6,7,IO7*%
%TO.N,/CAN Transceiver1/CAN_RX*%
X154916800Y-107708400D03*
%TO.P,U6,8,IO15*%
%TO.N,/CAN Transceiver1/CAN_TX*%
X153646800Y-107708400D03*
%TO.P,U6,9,IO16*%
%TO.N,/Expansion Port/EXPANSION_IO16*%
X152376800Y-107708400D03*
%TO.P,U6,10,IO17*%
%TO.N,/MCU/USB_D-*%
X151106800Y-107708400D03*
%TO.P,U6,11,IO18*%
%TO.N,/MCU/USB_D+*%
X149836800Y-107708400D03*
%TO.P,U6,12,IO8*%
%TO.N,/Expansion Port/EXPANSION_IO8*%
X148566800Y-107708400D03*
%TO.P,U6,13,IO19*%
%TO.N,/MCU/PD_SDA*%
X147296800Y-107708400D03*
%TO.P,U6,14,IO20*%
%TO.N,/MCU/PD_SCL*%
X146026800Y-107708400D03*
D20*
%TO.P,U6,15,IO3*%
%TO.N,/Expansion Port/EXPANSION_IO3*%
X144776800Y-105943400D03*
%TO.P,U6,16,IO46*%
%TO.N,/Expansion Port/EXPANSION_IO46*%
X144776800Y-104673400D03*
%TO.P,U6,17,IO9*%
%TO.N,/Expansion Port/EXPANSION_IO9*%
X144776800Y-103403400D03*
%TO.P,U6,18,IO10*%
%TO.N,/Expansion Port/EXPANSION_IO10*%
X144776800Y-102133400D03*
%TO.P,U6,19,IO11*%
%TO.N,/Expansion Port/EXPANSION_IO11*%
X144776800Y-100863400D03*
%TO.P,U6,20,IO12*%
%TO.N,/Expansion Port/EXPANSION_IO12*%
X144776800Y-99593400D03*
%TO.P,U6,21,IO13*%
%TO.N,/Expansion Port/EXPANSION_IO13*%
X144776800Y-98323400D03*
%TO.P,U6,22,IO14*%
%TO.N,/Expansion Port/EXPANSION_IO14*%
X144776800Y-97053400D03*
%TO.P,U6,23,IO21*%
%TO.N,/Expansion Port/EXPANSION_IO21*%
X144776800Y-95783400D03*
%TO.P,U6,24,IO47*%
%TO.N,/Expansion Port/EXPANSION_IO47*%
X144776800Y-94513400D03*
%TO.P,U6,25,IO48*%
%TO.N,/Expansion Port/EXPANSION_IO48*%
X144776800Y-93243400D03*
%TO.P,U6,26,IO45*%
%TO.N,/Expansion Port/EXPANSION_IO45*%
X144776800Y-91973400D03*
D19*
%TO.P,U6,27,IO0*%
%TO.N,Net-(U6-IO0)*%
X146026800Y-90208400D03*
%TO.P,U6,28,IO35*%
%TO.N,/Expansion Port/EXPANSION_IO35*%
X147296800Y-90208400D03*
%TO.P,U6,29,IO36*%
%TO.N,/Expansion Port/EXPANSION_IO36*%
X148566800Y-90208400D03*
%TO.P,U6,30,IO37*%
%TO.N,/Expansion Port/EXPANSION_IO37*%
X149836800Y-90208400D03*
%TO.P,U6,31,IO38*%
%TO.N,/Expansion Port/EXPANSION_IO38*%
X151106800Y-90208400D03*
%TO.P,U6,32,IO39*%
%TO.N,/MCU/STM32_EN*%
X152376800Y-90208400D03*
%TO.P,U6,33,IO40*%
%TO.N,/Expansion Port/EXPANSION_IO40*%
X153646800Y-90208400D03*
%TO.P,U6,34,IO41*%
%TO.N,/Expansion Port/EXPANSION_IO41*%
X154916800Y-90208400D03*
%TO.P,U6,35,IO42*%
%TO.N,/Expansion Port/EXPANSION_IO42*%
X156186800Y-90208400D03*
%TO.P,U6,36,RXD0*%
%TO.N,unconnected-(U6-RXD0-Pad36)*%
X157456800Y-90208400D03*
%TO.P,U6,37,TXD0*%
%TO.N,unconnected-(U6-TXD0-Pad37)*%
X158726800Y-90208400D03*
%TO.P,U6,38,IO2*%
%TO.N,/Expansion Port/EXPANSION_IO2*%
X159996800Y-90208400D03*
%TO.P,U6,39,IO1*%
%TO.N,/Expansion Port/EXPANSION_IO1*%
X161266800Y-90208400D03*
%TO.P,U6,40,GND*%
%TO.N,GND*%
X162536800Y-90208400D03*
D21*
%TO.P,U6,41_1,EPAD*%
X154816800Y-100458400D03*
%TO.P,U6,41_2,EPAD*%
X154816800Y-101858400D03*
%TO.P,U6,41_3,EPAD*%
X154816800Y-99058400D03*
%TO.P,U6,41_4,EPAD*%
X153416800Y-101858400D03*
%TO.P,U6,41_5,EPAD*%
X153416800Y-100458400D03*
%TO.P,U6,41_6,EPAD*%
X153416800Y-99058400D03*
%TO.P,U6,41_7,EPAD*%
X156216800Y-101858400D03*
%TO.P,U6,41_8,EPAD*%
X156216800Y-100458400D03*
%TO.P,U6,41_9,EPAD*%
X156216800Y-99058400D03*
%TD*%
D17*
%TO.P,C49,1*%
%TO.N,+3V3*%
X128968800Y-94218800D03*
%TO.P,C49,2*%
%TO.N,GND*%
X128968800Y-93258800D03*
%TD*%
D22*
%TO.P,R25,1*%
%TO.N,+3V3*%
X133280800Y-108112400D03*
%TO.P,R25,2*%
%TO.N,Net-(U3-FB)*%
X133280800Y-107092400D03*
%TD*%
D23*
%TO.P,D4,1,C*%
%TO.N,/Power/VBUS_IN*%
X122758400Y-107391200D03*
D24*
%TO.P,D4,2,A*%
%TO.N,Net-(D4-A)*%
X125958400Y-107391200D03*
%TD*%
D17*
%TO.P,C25,1*%
%TO.N,Net-(U3-SS)*%
X135128000Y-104518400D03*
%TO.P,C25,2*%
%TO.N,GND*%
X135128000Y-103558400D03*
%TD*%
D25*
%TO.P,C27,1*%
%TO.N,/Power/VBUS_IN*%
X122862400Y-109016800D03*
%TO.P,C27,2*%
%TO.N,Net-(D4-A)*%
X123822400Y-109016800D03*
%TD*%
D16*
%TO.P,R33,1*%
%TO.N,Net-(U8-SOC)*%
X133980813Y-95889187D03*
%TO.P,R33,2*%
%TO.N,/Motor/Gate Driver/MOTOR_A_CURRENT_SENSE*%
X133259565Y-96610435D03*
%TD*%
D26*
%TO.P,C55,1*%
%TO.N,Net-(U2-SW)*%
X150571200Y-110162400D03*
%TO.P,C55,2*%
%TO.N,Net-(U2-CB)*%
X150571200Y-111122400D03*
%TD*%
D27*
%TO.P,R11,1*%
%TO.N,/Power/VBUS_IN*%
X122830400Y-110032800D03*
%TO.P,R11,2*%
%TO.N,Net-(D4-A)*%
X123850400Y-110032800D03*
%TD*%
%TO.P,R36,1*%
%TO.N,Net-(D4-A)*%
X124762800Y-109321600D03*
%TO.P,R36,2*%
%TO.N,/Power/VBUS_SWITCH_GATE*%
X125782800Y-109321600D03*
%TD*%
D11*
%TO.P,R34,1*%
%TO.N,Net-(U3-FB)*%
X132283200Y-107082400D03*
%TO.P,R34,2*%
%TO.N,GND*%
X132283200Y-108102400D03*
%TD*%
%TO.P,R12,1*%
%TO.N,+12V*%
X151587200Y-110130400D03*
%TO.P,R12,2*%
%TO.N,Net-(U2-FB)*%
X151587200Y-111150400D03*
%TD*%
D28*
%TO.P,C26,1*%
%TO.N,Net-(U8-DVDD)*%
X140344211Y-98891411D03*
%TO.P,C26,2*%
%TO.N,GND*%
X139665389Y-98212589D03*
%TD*%
D29*
%TO.P,C21,1*%
%TO.N,Net-(U8-CPH)*%
X142205389Y-94859789D03*
%TO.P,C21,2*%
%TO.N,Net-(U8-CPL)*%
X142884211Y-95538611D03*
%TD*%
D30*
%TO.P,C46,1*%
%TO.N,+3V3*%
X127441600Y-96596400D03*
%TO.P,C46,2*%
%TO.N,GND*%
X126481600Y-96596400D03*
%TD*%
%TO.P,C50,1*%
%TO.N,+3V3*%
X126604000Y-98222000D03*
%TO.P,C50,2*%
%TO.N,GND*%
X125644000Y-98222000D03*
%TD*%
D11*
%TO.P,R17,1*%
%TO.N,+3V3*%
X132295600Y-92923600D03*
%TO.P,R17,2*%
%TO.N,/Motor/Gate Driver/GATE_DRIVER_NFAULT*%
X132295600Y-93943600D03*
%TD*%
D22*
%TO.P,R35,1*%
%TO.N,Net-(U2-FB)*%
X152603200Y-111150400D03*
%TO.P,R35,2*%
%TO.N,GND*%
X152603200Y-110130400D03*
%TD*%
D30*
%TO.P,C47,1*%
%TO.N,+3V3*%
X127441600Y-94195600D03*
%TO.P,C47,2*%
%TO.N,GND*%
X126481600Y-94195600D03*
%TD*%
D31*
%TO.P,D3,1*%
%TO.N,Net-(U1-CC1)*%
X123302700Y-111014000D03*
%TO.P,D3,2*%
%TO.N,Net-(U1-CC2)*%
X123302700Y-111514000D03*
D32*
%TO.P,D3,3,GND*%
%TO.N,GND*%
X123302700Y-112014000D03*
D31*
%TO.P,D3,4*%
%TO.N,/MCU/USB_D+*%
X123302700Y-112514000D03*
%TO.P,D3,5*%
%TO.N,/MCU/USB_D-*%
X123302700Y-113014000D03*
%TO.P,D3,6*%
X122467700Y-113014000D03*
%TO.P,D3,7*%
%TO.N,/MCU/USB_D+*%
X122467700Y-112514000D03*
D32*
%TO.P,D3,8,GND*%
%TO.N,GND*%
X122467700Y-112014000D03*
D31*
%TO.P,D3,9*%
%TO.N,Net-(U1-CC2)*%
X122467700Y-111514000D03*
%TO.P,D3,10*%
%TO.N,Net-(U1-CC1)*%
X122467700Y-111014000D03*
%TD*%
D33*
%TO.P,CN1,1,1*%
%TO.N,GND*%
X156230000Y-82460000D03*
X156230000Y-87540000D03*
%TO.P,CN1,2,2*%
%TO.N,+12V*%
X158770000Y-82460000D03*
X158770000Y-87540000D03*
%TD*%
D34*
%TO.N,VBUS*%
X119481600Y-97953003D03*
X120091200Y-97942400D03*
X120700800Y-97942400D03*
X120080563Y-99154588D03*
X120700800Y-99161600D03*
X119481600Y-99161600D03*
X120700800Y-98552000D03*
X120091200Y-98552000D03*
X119481600Y-98552000D03*
X121310400Y-99364800D03*
X121310400Y-99974400D03*
X121310400Y-100584000D03*
X121310400Y-101193600D03*
X129438400Y-107289600D03*
X127000000Y-107289600D03*
X127000000Y-107899200D03*
X128828800Y-107899200D03*
X128219200Y-107899200D03*
X127609600Y-107899200D03*
X128828800Y-107289600D03*
X128219200Y-107289600D03*
X127609600Y-107289600D03*
X126187200Y-106070400D03*
X126796800Y-106070400D03*
X126796800Y-105460800D03*
X126187200Y-105460800D03*
X121310400Y-98145600D03*
X121920000Y-98145600D03*
X123139200Y-98145600D03*
X122529600Y-98145600D03*
X123748800Y-98145600D03*
X123139200Y-99974400D03*
X121920000Y-98755200D03*
X121310400Y-98755200D03*
X123748800Y-98755200D03*
X121920000Y-101193600D03*
X121920000Y-100584000D03*
X126187200Y-100584000D03*
X125577600Y-100584000D03*
X123139200Y-100584000D03*
X124358400Y-100584000D03*
X123139200Y-99364800D03*
X123139200Y-98755200D03*
X121920000Y-99974400D03*
X122529600Y-100584000D03*
X124968000Y-100584000D03*
X122529600Y-98755200D03*
X123748800Y-100584000D03*
X122529600Y-99974400D03*
X121920000Y-99364800D03*
X122529600Y-101193600D03*
X123748800Y-99364800D03*
X123748800Y-99974400D03*
X122529600Y-99364800D03*
X125577600Y-101193600D03*
X126796800Y-101193600D03*
X124968000Y-101193600D03*
X123139200Y-101193600D03*
X124358400Y-101193600D03*
X126187200Y-101193600D03*
X123748800Y-101193600D03*
X126796800Y-101803200D03*
X125577600Y-101803200D03*
X123139200Y-101803200D03*
X124968000Y-101803200D03*
X123748800Y-101803200D03*
X126187200Y-101803200D03*
X124358400Y-101803200D03*
X126796800Y-102412800D03*
X125577600Y-102412800D03*
X123139200Y-102412800D03*
X124968000Y-102412800D03*
X123748800Y-102412800D03*
X126187200Y-102412800D03*
X124358400Y-102412800D03*
X126796800Y-103022400D03*
X125577600Y-103022400D03*
X123139200Y-103022400D03*
X124968000Y-103022400D03*
X123748800Y-103022400D03*
X126187200Y-103022400D03*
X124358400Y-103022400D03*
X126796800Y-103632000D03*
X125577600Y-103632000D03*
X123139200Y-103632000D03*
X124968000Y-103632000D03*
X123748800Y-103632000D03*
X126187200Y-103632000D03*
X124358400Y-103632000D03*
X126796800Y-104241600D03*
X125577600Y-104241600D03*
X123139200Y-104241600D03*
X124968000Y-104241600D03*
X123748800Y-104241600D03*
X126187200Y-104241600D03*
X124358400Y-104241600D03*
X130454400Y-104851200D03*
X129844800Y-104851200D03*
X129235200Y-104851200D03*
X128625600Y-104851200D03*
X128016000Y-104851200D03*
X127406400Y-104851200D03*
X126796800Y-104851200D03*
X126187200Y-104851200D03*
X125577600Y-104851200D03*
X124968000Y-104851200D03*
X124358400Y-104851200D03*
X123748800Y-104851200D03*
X123139200Y-104851200D03*
%TO.N,*%
X135940800Y-104241600D03*
X136550400Y-104241600D03*
X137160000Y-104241600D03*
X137769600Y-104241600D03*
%TO.N,+3V3*%
X135331200Y-106680000D03*
X135940800Y-106680000D03*
X136550400Y-106680000D03*
X137160000Y-106680000D03*
X137769600Y-106680000D03*
X139598400Y-106070400D03*
X138379200Y-106680000D03*
X139598400Y-106680000D03*
X138988800Y-106070400D03*
X138988800Y-106680000D03*
X138379200Y-106070400D03*
X139598400Y-104851200D03*
X138379200Y-105460800D03*
X139598400Y-105460800D03*
X138988800Y-104851200D03*
X138988800Y-105460800D03*
X138379200Y-104851200D03*
X139598400Y-103632000D03*
X138379200Y-104241600D03*
X139598400Y-104241600D03*
X138988800Y-103632000D03*
X138988800Y-104241600D03*
X138379200Y-103632000D03*
X139598400Y-102412800D03*
X138379200Y-103022400D03*
X139598400Y-103022400D03*
X138988800Y-102412800D03*
X138988800Y-103022400D03*
X138379200Y-102412800D03*
X138379200Y-101803200D03*
X138988800Y-101803200D03*
X139598400Y-101803200D03*
X139598400Y-101193600D03*
X138988800Y-101193600D03*
X138379200Y-101193600D03*
%TO.N,GND*%
X144068800Y-111760000D03*
X145084800Y-111556800D03*
X145084800Y-110947200D03*
X142240000Y-110947200D03*
X142849600Y-110947200D03*
X142849600Y-111556800D03*
X142240000Y-111556800D03*
X141020800Y-111556800D03*
X141020800Y-110947200D03*
X140411200Y-110947200D03*
X140411200Y-111556800D03*
X144678400Y-112979200D03*
X144068800Y-112979200D03*
X143459200Y-112979200D03*
%TO.N,/MCU/PD_SDA*%
X139750800Y-109220000D03*
X139750800Y-110947200D03*
X130606800Y-110490000D03*
%TO.N,/MCU/PD_SCL*%
X129844800Y-110236000D03*
%TO.N,/MCU/USB_D+*%
X124002800Y-112166400D03*
%TO.N,/MCU/USB_D-*%
X124612400Y-113284000D03*
%TO.N,Net-(U1-CC1)*%
X125157000Y-110822832D03*
%TO.N,Net-(U1-CC2)*%
X125391400Y-111449859D03*
%TO.N,/MCU/USB_D+*%
X119008401Y-104648000D03*
%TO.N,*%
X162211200Y-103263400D03*
X127000000Y-86766400D03*
X162211200Y-103873000D03*
X162211200Y-104482600D03*
X162211200Y-101434600D03*
X162820800Y-102653800D03*
X127609600Y-83718400D03*
X162820800Y-100825000D03*
X127000000Y-83108800D03*
X162211200Y-102044200D03*
X125171200Y-83108800D03*
X162820800Y-101434600D03*
X127609600Y-83108800D03*
X123952000Y-83718400D03*
X127609600Y-84328000D03*
X162820800Y-103873000D03*
X162820800Y-102044200D03*
X125780800Y-83718400D03*
X124561600Y-83718400D03*
X127000000Y-86156800D03*
X124561600Y-83108800D03*
X127000000Y-85547200D03*
X125171200Y-83718400D03*
X162211200Y-102653800D03*
X162820800Y-103263400D03*
X127000000Y-83718400D03*
X125780800Y-83108800D03*
X127000000Y-84937600D03*
X123952000Y-83108800D03*
X127000000Y-84328000D03*
X126390400Y-83108800D03*
X127609600Y-85547200D03*
X126390400Y-83718400D03*
X162211200Y-100825000D03*
X162820800Y-104482600D03*
X127609600Y-86766400D03*
X127609600Y-84937600D03*
X127609600Y-86156800D03*
%TO.N,+3V3*%
X127343200Y-94983600D03*
X131343199Y-96583601D03*
X128943200Y-94983600D03*
X127343202Y-98183600D03*
X127343200Y-96583600D03*
X128943200Y-96583600D03*
D35*
X161266800Y-107708400D03*
D34*
%TO.N,GND*%
X116230400Y-102006400D03*
X116230400Y-106070400D03*
X148945600Y-112166400D03*
X115417600Y-103632000D03*
X134721600Y-102006400D03*
X142240000Y-113588800D03*
X148336000Y-112166400D03*
X117856000Y-108508800D03*
X132892800Y-103225600D03*
X116230400Y-101193600D03*
X128625600Y-102006400D03*
X114604800Y-103632000D03*
X115417600Y-106070400D03*
X143459200Y-113588800D03*
X134112000Y-102006400D03*
X115417600Y-102819200D03*
D35*
X153416800Y-101858400D03*
X156216800Y-99058400D03*
D34*
X117043200Y-107696000D03*
X140793600Y-85987397D03*
X117856000Y-102006400D03*
X117043200Y-101193600D03*
X137160000Y-101396800D03*
X143541600Y-85987397D03*
D35*
X162536800Y-107708400D03*
D34*
X128943200Y-95783600D03*
X121804989Y-111995011D03*
X136550400Y-103632000D03*
X159051200Y-105384600D03*
X148945600Y-111556800D03*
X131064000Y-102006400D03*
X145694400Y-111556800D03*
X155897400Y-111556800D03*
X130657600Y-113487200D03*
X144068800Y-113588800D03*
X131673600Y-102006400D03*
X115417600Y-105257600D03*
X117043200Y-105257600D03*
D36*
X135128000Y-103558400D03*
D34*
X117856000Y-103632000D03*
X127300000Y-113500000D03*
X145694400Y-110947200D03*
X127343200Y-95783600D03*
X132283200Y-102006400D03*
X132410200Y-105741978D03*
D36*
X118872000Y-98105403D03*
D34*
X114604800Y-106883200D03*
X131064000Y-103225600D03*
X133502400Y-102616000D03*
X117043200Y-108508800D03*
D35*
X154816800Y-99058400D03*
D34*
X128143200Y-96583600D03*
X117856000Y-101193600D03*
X117856000Y-100380800D03*
X115417600Y-102006400D03*
X128016000Y-101396800D03*
X141020800Y-113588800D03*
X131064000Y-101396800D03*
X117856000Y-109321600D03*
D36*
X118059201Y-98105404D03*
D34*
X142849600Y-113588800D03*
X146304000Y-110947200D03*
X134112000Y-101396800D03*
X115074000Y-85953600D03*
X114604800Y-102819200D03*
X160041200Y-104419400D03*
D35*
X154816800Y-101858400D03*
D34*
X131673600Y-103225600D03*
X116230400Y-106883200D03*
X127400000Y-111100000D03*
X134721600Y-102616000D03*
X133502400Y-103225600D03*
X116230400Y-102819200D03*
X117043200Y-109321600D03*
X132143200Y-97383600D03*
X114604800Y-102006400D03*
X117830273Y-105270493D03*
X140411200Y-113588800D03*
D36*
X160528000Y-100177600D03*
D34*
X115417600Y-106883200D03*
X133502400Y-102006400D03*
X115417600Y-104444800D03*
X146304000Y-111556800D03*
D35*
X156216800Y-101858400D03*
D34*
X137769600Y-103632000D03*
X132283200Y-102616000D03*
X117043200Y-102819200D03*
X126400000Y-110100000D03*
X117043200Y-99568000D03*
D36*
X160528000Y-99364800D03*
X119278400Y-97089403D03*
X157073600Y-98145600D03*
X158902400Y-99364800D03*
D34*
X134112000Y-102616000D03*
X114604800Y-104444800D03*
X117043200Y-104444800D03*
X116230400Y-107696000D03*
X130454400Y-102006400D03*
X139598400Y-91236800D03*
D35*
X153416800Y-99058400D03*
D34*
X144678400Y-113588800D03*
X114604800Y-101193600D03*
X117043200Y-103632000D03*
X117856000Y-99568000D03*
D36*
X120091200Y-95463803D03*
X119684800Y-96276603D03*
D34*
X132283200Y-103225600D03*
X137160000Y-103632000D03*
X152884200Y-104317800D03*
X137769600Y-101396800D03*
X117856000Y-107696000D03*
X129844800Y-101396800D03*
D36*
X123240800Y-96683003D03*
D34*
X153416000Y-110229600D03*
D36*
X158902400Y-100177600D03*
D34*
X117043200Y-100380800D03*
X141630400Y-113588800D03*
X129235200Y-101396800D03*
X115417600Y-107696000D03*
X117043200Y-102006400D03*
X114604800Y-105257600D03*
X128143200Y-95783600D03*
X131673600Y-102616000D03*
X130454400Y-101396800D03*
X133502400Y-101396800D03*
X136550400Y-101396800D03*
X131673600Y-101396800D03*
X117856000Y-106070400D03*
D36*
X119278400Y-95463803D03*
D34*
X135940800Y-103632000D03*
X117791706Y-104423267D03*
D35*
X156216800Y-100458400D03*
D34*
X117856000Y-106883200D03*
X128625600Y-101396800D03*
X129844800Y-102006400D03*
X127343200Y-98983600D03*
D35*
X154816800Y-100458400D03*
D34*
X146913600Y-110914062D03*
X114604800Y-106070400D03*
D35*
X153416800Y-100458400D03*
D34*
X132892800Y-102616000D03*
D36*
X159735401Y-99720400D03*
D34*
X135331200Y-101396800D03*
X126400000Y-111100000D03*
X132283200Y-101396800D03*
X133197600Y-93370400D03*
X117043200Y-106883200D03*
X117043200Y-106070400D03*
X149086168Y-111019137D03*
X132892800Y-101396800D03*
X116230400Y-104444800D03*
X127400000Y-110100000D03*
X129235200Y-102006400D03*
X117856000Y-102819200D03*
X115417600Y-101193600D03*
D36*
X157886400Y-98145600D03*
D34*
X126900000Y-110600000D03*
X135940800Y-101396800D03*
X116230400Y-105257600D03*
X132892800Y-102006400D03*
X128016000Y-102006400D03*
D36*
X147457201Y-109812498D03*
D34*
X134112000Y-103225600D03*
X131064000Y-102616000D03*
X128143200Y-94983600D03*
X114604800Y-107696000D03*
X116230400Y-103632000D03*
D36*
X120091200Y-97089403D03*
D34*
X138582400Y-91236800D03*
X134721600Y-101396800D03*
%TO.N,VBUS*%
X152622800Y-87409797D03*
X141839535Y-92925312D03*
D36*
%TO.N,Net-(U8-CPH)*%
X143515147Y-94856437D03*
%TO.N,Net-(U8-CPL)*%
X143459200Y-96012000D03*
%TO.N,Net-(U3-SS)*%
X135128000Y-104518400D03*
%TO.N,Net-(U8-DVDD)*%
X141630400Y-99372800D03*
D34*
%TO.N,Net-(D4-A)*%
X123342400Y-108300000D03*
%TO.N,Net-(U6-EN)*%
X159996800Y-107708400D03*
D37*
%TO.N,Net-(U3-SW)*%
X134023100Y-105741978D03*
%TO.N,Net-(U3-BST)*%
X134023100Y-105245789D03*
D34*
%TO.N,Net-(U2-SW)*%
X149758400Y-110236000D03*
%TO.N,/Motor/Gate Driver/MOTOR_C_CURRENT_SENSE*%
X134416800Y-98907600D03*
X132143200Y-98183600D03*
%TO.N,/Motor/Gate Driver/MOTOR_B_CURRENT_SENSE*%
X131343200Y-98983600D03*
%TO.N,/Motor/Gate Driver/MOTOR_A_CURRENT_SENSE*%
X130543200Y-98183600D03*
%TO.N,/MCU/USB_D-*%
X118365747Y-104608549D03*
%TO.N,Net-(U1-CC2)*%
X118567546Y-106631961D03*
%TO.N,Net-(U1-CC1)*%
X118872000Y-103225600D03*
%TO.N,Net-(U2-FB)*%
X145491200Y-113588800D03*
%TO.N,/MCU/STM32_EN*%
X128943200Y-98183600D03*
%TO.N,Net-(U3-FB)*%
X134010400Y-104241600D03*
%TO.N,/Motor/Gate Driver/GATE_DRIVER_NFAULT*%
X131343200Y-93383600D03*
%TO.N,/Motor/Gate Driver/H_BRIDGE_SPA*%
X140309600Y-91236800D03*
X145041600Y-85987397D03*
%TO.N,/Motor/Gate Driver/H_BRIDGE_SPB*%
X139293600Y-85987397D03*
X137766855Y-91568127D03*
%TO.N,Net-(U8-SOA)*%
X135636000Y-97637600D03*
%TO.N,Net-(U8-SOB)*%
X134793613Y-96803587D03*
%TO.N,Net-(U8-SOC)*%
X133980813Y-95889187D03*
%TO.N,/Power/VBUS_SWITCH_GATE*%
X126600000Y-108600000D03*
%TO.N,/MCU/EN_12V*%
X159021200Y-104419400D03*
X158726800Y-107708400D03*
%TO.N,/MCU/PD_INT_N*%
X157456800Y-107708400D03*
X129235200Y-109524800D03*
%TO.N,/MCU/PD_FAULT*%
X156186800Y-107708400D03*
X128687499Y-108915200D03*
%TO.N,/CAN Transceiver1/CAN_RX*%
X161442400Y-100787200D03*
%TO.N,/CAN Transceiver1/CAN_TX*%
X153646800Y-109467600D03*
%TO.N,/Motor/Gate Driver/H_BRIDGE_SPC*%
X116574000Y-85953600D03*
X133908800Y-93370400D03*
%TO.N,/Motor/Gate Driver/GATE_DRIVER_INHA*%
X142240000Y-98653600D03*
X129743200Y-97383600D03*
%TO.N,/Motor/Gate Driver/GATE_DRIVER_SDI*%
X127343200Y-97383600D03*
X135934113Y-99086093D03*
%TO.N,/Motor/Gate Driver/GATE_DRIVER_NSCS*%
X137668000Y-99720400D03*
X130543200Y-97383600D03*
%TO.N,/Motor/Gate Driver/GATE_DRIVER_SDO*%
X136748911Y-98573043D03*
X124943200Y-92583600D03*
%TO.N,/Motor/Gate Driver/GATE_DRIVER_INHB*%
X129743200Y-98983600D03*
X143002000Y-97993200D03*
%TO.N,/Motor/Gate Driver/GATE_DRIVER_SCLK*%
X126543200Y-94983600D03*
X136652000Y-99684763D03*
%TO.N,/Motor/Gate Driver/GATE_DRIVER_INLA*%
X143443643Y-96961867D03*
X127343200Y-99783600D03*
%TO.N,/Motor/Gate Driver/GATE_DRIVER_INHC*%
X143408400Y-97536000D03*
X130543200Y-99783600D03*
%TO.N,/Motor/Gate Driver/H_BRIDGE_GHC*%
X135636000Y-92760800D03*
X122955600Y-86840597D03*
%TO.N,/Motor/Gate Driver/H_BRIDGE_GHA*%
X141783185Y-92327961D03*
X151272800Y-86929797D03*
%TO.N,/Motor/Gate Driver/H_BRIDGE_GLC*%
X118333200Y-86840597D03*
X134924800Y-93776800D03*
%TO.N,/Motor/Gate Driver/H_BRIDGE_GLA*%
X140734739Y-91745628D03*
X146802400Y-86929797D03*
%TO.N,/Motor/Gate Driver/H_BRIDGE_GHB*%
X132931600Y-85134197D03*
X136245600Y-92557600D03*
%TO.N,/Motor/Gate Driver/H_BRIDGE_GLB*%
X137554000Y-85124597D03*
X137109200Y-91744800D03*
%TO.N,/Motor/Gate Driver/H_BRIDGE_SHC*%
X135026400Y-93167200D03*
X119683200Y-87320597D03*
%TO.N,/Motor/Gate Driver/H_BRIDGE_SHB*%
X136204000Y-87544597D03*
X137032239Y-92665756D03*
%TO.N,/Motor/Gate Driver/H_BRIDGE_SHA*%
X141268851Y-92018990D03*
X148152400Y-87409797D03*
%TO.N,/CAN_P*%
X116199800Y-91795600D03*
X115143989Y-92606505D03*
%TO.N,Net-(U1-CC2)*%
X121806325Y-111170862D03*
%TO.N,GND*%
X123317500Y-111996798D03*
X122481627Y-111991270D03*
%TD*%
D38*
%TO.N,Net-(U8-CPH)*%
X143511795Y-94859789D02*
X143515147Y-94856437D01*
X142205389Y-94859789D02*
X143511795Y-94859789D01*
D39*
%TO.N,/CAN_P*%
X115874800Y-91795600D02*
X116199800Y-91795600D01*
X115143989Y-92526411D02*
X115874800Y-91795600D01*
X115143989Y-92606505D02*
X115143989Y-92526411D01*
D40*
%TO.N,/MCU/PD_SDA*%
X147296800Y-107708400D02*
X147296800Y-108735200D01*
X147296800Y-108735200D02*
X145542000Y-110490000D01*
X145542000Y-110490000D02*
X139496800Y-110490000D01*
%TO.N,+3V3*%
X135991600Y-108202000D02*
X138887200Y-108202000D01*
%TO.N,/MCU/PD_SDA*%
X138887200Y-109222000D02*
X139748800Y-109222000D01*
X139748800Y-109222000D02*
X139750800Y-109220000D01*
X139750800Y-110490000D02*
X139750800Y-110947200D01*
%TO.N,/MCU/PD_SCL*%
X145084800Y-110032800D02*
X136702800Y-110032800D01*
X136956800Y-109222000D02*
X136956800Y-110032800D01*
X135991600Y-109222000D02*
X136956800Y-109222000D01*
X134440921Y-109269706D02*
G75*
G03*
X134298681Y-109127479I-142221J6D01*
G01*
X146026800Y-109090800D02*
X145084800Y-110032800D01*
X134583161Y-110032800D02*
G75*
G02*
X134441000Y-109890560I39J142200D01*
G01*
X133871961Y-110032800D02*
X132552518Y-110032800D01*
X134298681Y-109127466D02*
X134227561Y-109127466D01*
X132552518Y-110032800D02*
X130048000Y-110032800D01*
X134227561Y-109127466D02*
G75*
G03*
X134085366Y-109269706I39J-142234D01*
G01*
X134085321Y-109890560D02*
G75*
G02*
X133943081Y-110032821I-142221J-40D01*
G01*
X130048000Y-110032800D02*
X129844800Y-110236000D01*
X134440921Y-109890560D02*
X134440921Y-109269706D01*
X133943081Y-110032800D02*
X133871961Y-110032800D01*
X136702800Y-110032800D02*
X134583161Y-110032800D01*
X134085321Y-109269706D02*
X134085321Y-109890560D01*
X146026800Y-107708400D02*
X146026800Y-109090800D01*
%TO.N,/MCU/PD_SDA*%
X139496800Y-110490000D02*
X130606800Y-110490000D01*
D41*
%TO.N,/MCU/USB_D+*%
X123787130Y-112545879D02*
X124002800Y-112545879D01*
X124002800Y-112166400D02*
X124002800Y-112545879D01*
%TO.N,/MCU/USB_D-*%
X123787130Y-112954121D02*
X124612400Y-112954121D01*
X124612400Y-113284000D02*
X124612400Y-112954121D01*
D40*
%TO.N,Net-(U1-CC1)*%
X123331500Y-111014000D02*
X124965832Y-111014000D01*
X124965832Y-111014000D02*
X125157000Y-110822832D01*
D41*
%TO.N,/MCU/USB_D+*%
X134314049Y-111165479D02*
G75*
G02*
X134458721Y-111310055I51J-144621D01*
G01*
X135181509Y-112020903D02*
G75*
G03*
X135326085Y-112165491I144591J3D01*
G01*
X133952607Y-112165479D02*
G75*
G03*
X134097179Y-112020903I-7J144579D01*
G01*
X134675491Y-112165479D02*
G75*
G03*
X134820079Y-112020903I9J144579D01*
G01*
X135181509Y-111310055D02*
X135181509Y-112020903D01*
X134097183Y-111310055D02*
G75*
G02*
X134241759Y-111165483I144617J-45D01*
G01*
X135036933Y-111165479D02*
G75*
G02*
X135181521Y-111310055I-33J-144621D01*
G01*
X134458625Y-112020903D02*
G75*
G03*
X134603201Y-112165475I144575J3D01*
G01*
X134820067Y-112020903D02*
X134820067Y-111310055D01*
X134820067Y-111310055D02*
G75*
G02*
X134964643Y-111165567I144533J-45D01*
G01*
X134458625Y-111310055D02*
X134458625Y-112020903D01*
X134964643Y-111165479D02*
X135036933Y-111165479D01*
X134603201Y-112165479D02*
X134675491Y-112165479D01*
X134241759Y-111165479D02*
X134314049Y-111165479D01*
X134097183Y-112020903D02*
X134097183Y-111310055D01*
D40*
%TO.N,Net-(U1-CC2)*%
X123353500Y-111514000D02*
X125327259Y-111514000D01*
X125327259Y-111514000D02*
X125391400Y-111449859D01*
X122149463Y-111514000D02*
X121806325Y-111170862D01*
X122468500Y-111514000D02*
X122149463Y-111514000D01*
D41*
%TO.N,/MCU/USB_D-*%
X122123200Y-113000000D02*
X123741251Y-113000000D01*
X124612400Y-112954121D02*
X130869751Y-112954121D01*
X123741251Y-113000000D02*
X123787130Y-112954121D01*
X131250151Y-112573721D02*
X146693351Y-112573721D01*
X150675921Y-108139279D02*
X151106800Y-107708400D01*
X130869751Y-112954121D02*
X131250151Y-112573721D01*
X146693351Y-112573721D02*
X150675921Y-108591151D01*
X150675921Y-108591151D02*
X150675921Y-108139279D01*
X120698958Y-107678030D02*
X120698958Y-112469358D01*
X118502678Y-104745480D02*
X118502678Y-105481750D01*
X118502678Y-105481750D02*
X120698958Y-107678030D01*
X120698958Y-112469358D02*
X121108121Y-112878521D01*
X118405198Y-104648000D02*
X118502678Y-104745480D01*
X121108121Y-112878521D02*
X122001721Y-112878521D01*
X122001721Y-112878521D02*
X122123200Y-113000000D01*
D38*
%TO.N,+3V3*%
X128968800Y-94958000D02*
X128943200Y-94983600D01*
X127441600Y-94195600D02*
X127317600Y-94319600D01*
X127343200Y-96583600D02*
X127356000Y-96596400D01*
X127317600Y-94958000D02*
X127343200Y-94983600D01*
X126604000Y-98222000D02*
X127304802Y-98222000D01*
X131356400Y-96570400D02*
X131343199Y-96583601D01*
X127304802Y-98222000D02*
X127343202Y-98183600D01*
X127356000Y-96596400D02*
X127441600Y-96596400D01*
X132270800Y-95783600D02*
X131356400Y-95783600D01*
D40*
X129603200Y-96504400D02*
X129524000Y-96583600D01*
D38*
X131356400Y-95783600D02*
X131356400Y-96570400D01*
X128968800Y-94218800D02*
X128968800Y-94958000D01*
X127317600Y-94319600D02*
X127317600Y-94958000D01*
D40*
X129524000Y-96583600D02*
X128943200Y-96583600D01*
D38*
%TO.N,GND*%
X132283200Y-108102400D02*
X131572000Y-108102400D01*
D40*
X153316800Y-110130400D02*
X153416000Y-110229600D01*
D38*
X131470400Y-106070400D02*
X131798822Y-105741978D01*
D40*
X152603200Y-110130400D02*
X153316800Y-110130400D01*
D38*
X131572000Y-108102400D02*
X131470400Y-108000800D01*
X131470400Y-108000800D02*
X131470400Y-106070400D01*
X131798822Y-105741978D02*
X132410200Y-105741978D01*
%TO.N,Net-(U8-CPL)*%
X142985811Y-95538611D02*
X143459200Y-96012000D01*
X142884211Y-95538611D02*
X142985811Y-95538611D01*
%TO.N,Net-(U8-DVDD)*%
X140344211Y-98891411D02*
X141149011Y-98891411D01*
X141149011Y-98891411D02*
X141630400Y-99372800D01*
D40*
%TO.N,/Power/VBUS_IN*%
X122830400Y-110032800D02*
X122830400Y-109048800D01*
X122830400Y-109048800D02*
X122862400Y-109016800D01*
X122862400Y-109016800D02*
X122862400Y-107495200D01*
X122862400Y-107495200D02*
X122758400Y-107391200D01*
%TO.N,Net-(D4-A)*%
X125049600Y-108300000D02*
X123342400Y-108300000D01*
X124051600Y-110032800D02*
X124762800Y-109321600D01*
X123822400Y-109016800D02*
X123822400Y-110004800D01*
X124762800Y-109321600D02*
X124764800Y-109319600D01*
X123822400Y-110004800D02*
X123850400Y-110032800D01*
X124764800Y-109319600D02*
X124764800Y-108300000D01*
X125958400Y-107391200D02*
X125049600Y-108300000D01*
X123850400Y-110032800D02*
X124051600Y-110032800D01*
D38*
%TO.N,Net-(U3-SW)*%
X134023100Y-105979789D02*
X134023100Y-105741978D01*
%TO.N,Net-(U3-BST)*%
X134023100Y-105019789D02*
X134023100Y-105245789D01*
D40*
%TO.N,Net-(U2-SW)*%
X149758400Y-110236000D02*
X150497600Y-110236000D01*
X150497600Y-110236000D02*
X150571200Y-110162400D01*
%TO.N,/Motor/Gate Driver/MOTOR_C_CURRENT_SENSE*%
X134968901Y-98411323D02*
X135142071Y-98584493D01*
X136650325Y-97745899D02*
X136650325Y-97408721D01*
X135142071Y-98584493D02*
X135811731Y-98584493D01*
D42*
X134986765Y-98439235D02*
X134518400Y-98907600D01*
X134518400Y-98907600D02*
X134416800Y-98907600D01*
D40*
X135811731Y-98584493D02*
X136650325Y-97745899D01*
X136650325Y-97408721D02*
X136310914Y-97069310D01*
D42*
%TO.N,/Motor/Gate Driver/MOTOR_B_CURRENT_SENSE*%
X134072365Y-97524835D02*
X132613600Y-98983600D01*
D40*
X134072365Y-97524835D02*
X134422941Y-97875411D01*
X135753789Y-96859411D02*
X135753789Y-96522233D01*
X134737789Y-97875411D02*
X135753789Y-96859411D01*
X134422941Y-97875411D02*
X134737789Y-97875411D01*
D42*
X132613600Y-98983600D02*
X131343200Y-98983600D01*
D40*
X135753789Y-96522233D02*
X135414378Y-96182822D01*
D42*
%TO.N,/Motor/Gate Driver/MOTOR_A_CURRENT_SENSE*%
X133259565Y-96610435D02*
X132994400Y-96875600D01*
X132689600Y-97790000D02*
X130936800Y-97790000D01*
D40*
X134940989Y-95843411D02*
X134940989Y-95607833D01*
D42*
X130936800Y-97790000D02*
X130543200Y-98183600D01*
X132994400Y-97485200D02*
X132689600Y-97790000D01*
D40*
X133259565Y-96610435D02*
X133610141Y-96961011D01*
X133610141Y-96961011D02*
X133823389Y-96961011D01*
X133823389Y-96961011D02*
X134940989Y-95843411D01*
D42*
X132994400Y-96875600D02*
X132994400Y-97485200D01*
D40*
X134940989Y-95607833D02*
X134601578Y-95268422D01*
%TO.N,Net-(U1-CC1)*%
X121716800Y-106273600D02*
X121005600Y-105562400D01*
X122482500Y-111000000D02*
X122482500Y-110696900D01*
X120599200Y-103225600D02*
X118872000Y-103225600D01*
X122326400Y-110540800D02*
X122123200Y-110540800D01*
X122123200Y-110540800D02*
X121716800Y-110134400D01*
X121716800Y-110134400D02*
X121716800Y-106273600D01*
X121005600Y-105562400D02*
X121005600Y-103632000D01*
X121005600Y-103632000D02*
X120599200Y-103225600D01*
X122482500Y-110696900D02*
X122326400Y-110540800D01*
%TO.N,Net-(U2-FB)*%
X149758400Y-113588800D02*
X151587200Y-111760000D01*
X151587200Y-111150400D02*
X152603200Y-111150400D01*
X151587200Y-111760000D02*
X151587200Y-111150400D01*
X145491200Y-113588800D02*
X149758400Y-113588800D01*
%TO.N,/MCU/STM32_EN*%
X128270000Y-98194400D02*
X128932400Y-98194400D01*
X128932400Y-98194400D02*
X128943200Y-98183600D01*
D38*
%TO.N,Net-(U3-FB)*%
X133280800Y-107092400D02*
X133280800Y-104463200D01*
X133280800Y-104463200D02*
X133502400Y-104241600D01*
X132293200Y-107092400D02*
X132283200Y-107082400D01*
X133280800Y-107092400D02*
X132293200Y-107092400D01*
X133502400Y-104241600D02*
X134010400Y-104241600D01*
D40*
%TO.N,/Motor/Gate Driver/GATE_DRIVER_NFAULT*%
X132295600Y-93943600D02*
X131903200Y-93943600D01*
X131903200Y-93943600D02*
X131343200Y-93383600D01*
%TO.N,/Power/VBUS_SWITCH_GATE*%
X125984000Y-108610400D02*
X126589600Y-108610400D01*
X125782800Y-109321600D02*
X125782800Y-108811600D01*
X126589600Y-108610400D02*
X126600000Y-108600000D01*
X125782800Y-108811600D02*
X125984000Y-108610400D01*
%TO.N,/CAN Transceiver1/CAN_RX*%
X161442400Y-100787200D02*
X160426400Y-100787200D01*
X154916800Y-106296800D02*
X154916800Y-107708400D01*
X160426400Y-100787200D02*
X154916800Y-106296800D01*
D39*
%TO.N,/Motor/Gate Driver/GATE_DRIVER_INHA*%
X138531600Y-99872800D02*
X138226800Y-100177600D01*
X141986000Y-99872800D02*
X138531600Y-99872800D01*
X142240000Y-98653600D02*
X142240000Y-99618800D01*
X131927600Y-100177600D02*
X129743200Y-97993200D01*
X142240000Y-99618800D02*
X141986000Y-99872800D01*
X138226800Y-100177600D02*
X131927600Y-100177600D01*
X129743200Y-97993200D02*
X129743200Y-97383600D01*
D42*
%TO.N,/Motor/Gate Driver/GATE_DRIVER_INHB*%
X142138400Y-100126800D02*
X143002000Y-99263200D01*
X138633200Y-100126800D02*
X142138400Y-100126800D01*
X143002000Y-99263200D02*
X143002000Y-97993200D01*
X131775200Y-100431600D02*
X138328400Y-100431600D01*
X129743200Y-98983600D02*
X130327200Y-98983600D01*
X138328400Y-100431600D02*
X138633200Y-100126800D01*
X130327200Y-98983600D02*
X131775200Y-100431600D01*
D41*
%TO.N,/MCU/USB_D+*%
X146524249Y-112165479D02*
X150267679Y-108422049D01*
X123741251Y-112500000D02*
X123787130Y-112545879D01*
X131081049Y-112165479D02*
X133952607Y-112165479D01*
X121107200Y-112300258D02*
X121306942Y-112500000D01*
X121306942Y-112500000D02*
X123741251Y-112500000D01*
X119008401Y-104648000D02*
X118910920Y-104745481D01*
X118910920Y-104745481D02*
X118910920Y-105312648D01*
X150267679Y-108139279D02*
X149836800Y-107708400D01*
X124002800Y-112545879D02*
X130700649Y-112545879D01*
X130700649Y-112545879D02*
X131081049Y-112165479D01*
X118910920Y-105312648D02*
X121107200Y-107508928D01*
X121107200Y-107508928D02*
X121107200Y-112300258D01*
X135326085Y-112165479D02*
X146524249Y-112165479D01*
X150267679Y-108422049D02*
X150267679Y-108139279D01*
%TD*%
M02*
