%TF.GenerationSoftware,KiCad,Pcbnew,9.0.1*%
%TF.CreationDate,2025-05-01T00:05:03-04:00*%
%TF.ProjectId,main_board,6d61696e-5f62-46f6-9172-642e6b696361,rev?*%
%TF.SameCoordinates,Original*%
%TF.FileFunction,Legend,Top*%
%TF.FilePolarity,Positive*%
%FSLAX46Y46*%
G04 Gerber Fmt 4.6, Leading zero omitted, Abs format (unit mm)*
G04 Created by KiCad (PCBNEW 9.0.1) date 2025-05-01 00:05:03*
%MOMM*%
%LPD*%
G01*
G04 APERTURE LIST*
%ADD10C,0.150000*%
%ADD11C,0.120000*%
%ADD12C,0.100000*%
%ADD13C,0.152400*%
%ADD14C,0.250000*%
%ADD15C,0.127000*%
G04 APERTURE END LIST*
D10*
X148613819Y-109558499D02*
X148851914Y-109558499D01*
X148756676Y-109796594D02*
X148851914Y-109558499D01*
X148851914Y-109558499D02*
X148756676Y-109320404D01*
X149042390Y-109701356D02*
X148851914Y-109558499D01*
X148851914Y-109558499D02*
X149042390Y-109415642D01*
X148613819Y-109558499D02*
X148851914Y-109558499D01*
X148756676Y-109796594D02*
X148851914Y-109558499D01*
X148851914Y-109558499D02*
X148756676Y-109320404D01*
X149042390Y-109701356D02*
X148851914Y-109558499D01*
X148851914Y-109558499D02*
X149042390Y-109415642D01*
D11*
%TO.C,C35*%
X145080400Y-93973764D02*
X145080400Y-94189436D01*
X145800400Y-93973764D02*
X145800400Y-94189436D01*
%TO.C,C34*%
X143607200Y-110473014D02*
X143607200Y-110688686D01*
X144327200Y-110473014D02*
X144327200Y-110688686D01*
%TO.C,C14*%
X57761348Y-66204000D02*
X59183852Y-66204000D01*
X57761348Y-68924000D02*
X59183852Y-68924000D01*
%TO.C,C20*%
X69061348Y-66204000D02*
X70483852Y-66204000D01*
X69061348Y-68924000D02*
X70483852Y-68924000D01*
D12*
%TO.C,U12*%
X86535000Y-55360400D02*
G75*
G02*
X86435000Y-55360400I-50000J0D01*
G01*
X86435000Y-55360400D02*
G75*
G02*
X86535000Y-55360400I50000J0D01*
G01*
D13*
%TO.C,U18*%
X158059001Y-98044000D02*
X158059001Y-101396800D01*
X161411801Y-101396800D02*
X161411801Y-98044000D01*
X158862001Y-102275400D02*
G75*
G02*
X158658801Y-102275400I-101600J0D01*
G01*
X158658801Y-102275400D02*
G75*
G02*
X158862001Y-102275400I101600J0D01*
G01*
D11*
%TO.C,C32*%
X74711348Y-70454000D02*
X76133852Y-70454000D01*
X74711348Y-73174000D02*
X76133852Y-73174000D01*
D13*
%TO.C,U3*%
X132435600Y-106223689D02*
X133985000Y-106223689D01*
X133985000Y-103759889D02*
X132435600Y-103759889D01*
X131605274Y-104241600D02*
G75*
G02*
X131402074Y-104241600I-101600J0D01*
G01*
X131402074Y-104241600D02*
G75*
G02*
X131605274Y-104241600I101600J0D01*
G01*
D11*
%TO.C,C23*%
X69061348Y-70454000D02*
X70483852Y-70454000D01*
X69061348Y-73174000D02*
X70483852Y-73174000D01*
D12*
%TO.C,U21*%
X86535000Y-61330400D02*
G75*
G02*
X86435000Y-61330400I-50000J0D01*
G01*
X86435000Y-61330400D02*
G75*
G02*
X86535000Y-61330400I50000J0D01*
G01*
D11*
%TO.C,C43*%
X121966400Y-96168767D02*
X121966400Y-96384439D01*
X122686400Y-96168767D02*
X122686400Y-96384439D01*
D13*
%TO.C,L2*%
X131546600Y-106756200D02*
X131546600Y-107223350D01*
X131546600Y-112842250D02*
X131546600Y-113309400D01*
X131546600Y-113309400D02*
X138099800Y-113309400D01*
X138099800Y-106756200D02*
X131546600Y-106756200D01*
X138099800Y-107223350D02*
X138099800Y-106756200D01*
X138099800Y-113309400D02*
X138099800Y-112842250D01*
D11*
%TO.C,C19*%
X63411348Y-74704000D02*
X64833852Y-74704000D01*
X63411348Y-77424000D02*
X64833852Y-77424000D01*
%TO.C,C42*%
X159668037Y-102002000D02*
X159452365Y-102002000D01*
X159668037Y-102722000D02*
X159452365Y-102722000D01*
%TO.C,R30*%
X115641017Y-84243600D02*
X116006983Y-84243600D01*
X115641017Y-87663600D02*
X116006983Y-87663600D01*
D14*
%TO.C,U11*%
X151172800Y-84409797D02*
X151172800Y-84549797D01*
X151172800Y-87379797D02*
X151172800Y-87509797D01*
X151172800Y-87509797D02*
X152112800Y-87509797D01*
X152112800Y-84409797D02*
X151172800Y-84409797D01*
X153142800Y-87509797D02*
X154272800Y-87509797D01*
X154272800Y-87509797D02*
X154272800Y-87359797D01*
X154322800Y-84409797D02*
X153142800Y-84409797D01*
X154322800Y-84529797D02*
X154322800Y-84409797D01*
X150842800Y-84309797D02*
G75*
G02*
X150582800Y-84309797I-130000J0D01*
G01*
X150582800Y-84309797D02*
G75*
G02*
X150842800Y-84309797I130000J0D01*
G01*
D11*
%TO.C,C53*%
X125792164Y-112840000D02*
X126007836Y-112840000D01*
X125792164Y-113560000D02*
X126007836Y-113560000D01*
%TO.C,C45*%
X135203590Y-99644707D02*
X135356093Y-99797210D01*
X135712707Y-99135590D02*
X135865210Y-99288093D01*
%TO.C,R28*%
X144108617Y-84277397D02*
X144474583Y-84277397D01*
X144108617Y-87697397D02*
X144474583Y-87697397D01*
%TO.C,C16*%
X57761348Y-74704000D02*
X59183852Y-74704000D01*
X57761348Y-77424000D02*
X59183852Y-77424000D01*
D14*
%TO.C,U16*%
X122855600Y-84320597D02*
X122855600Y-84460597D01*
X122855600Y-87290597D02*
X122855600Y-87420597D01*
X122855600Y-87420597D02*
X123795600Y-87420597D01*
X123795600Y-84320597D02*
X122855600Y-84320597D01*
X124825600Y-87420597D02*
X125955600Y-87420597D01*
X125955600Y-87420597D02*
X125955600Y-87270597D01*
X126005600Y-84320597D02*
X124825600Y-84320597D01*
X126005600Y-84440597D02*
X126005600Y-84320597D01*
X122525600Y-84220597D02*
G75*
G02*
X122265600Y-84220597I-130000J0D01*
G01*
X122265600Y-84220597D02*
G75*
G02*
X122525600Y-84220597I130000J0D01*
G01*
D11*
%TO.C,C28*%
X69061348Y-74704000D02*
X70483852Y-74704000D01*
X69061348Y-77424000D02*
X70483852Y-77424000D01*
D13*
%TO.C,U10*%
X122341400Y-97251603D02*
G75*
G02*
X122138200Y-97251603I-101600J0D01*
G01*
X122138200Y-97251603D02*
G75*
G02*
X122341400Y-97251603I101600J0D01*
G01*
X121361200Y-94600203D02*
X118008400Y-94600203D01*
X118008400Y-97953003D02*
X121361200Y-97953003D01*
D11*
%TO.C,R13*%
X128878359Y-112802400D02*
X129185641Y-112802400D01*
X128878359Y-113562400D02*
X129185641Y-113562400D01*
%TO.C,R19*%
X159561559Y-96749600D02*
X159868841Y-96749600D01*
X159561559Y-97509600D02*
X159868841Y-97509600D01*
%TO.C,R38*%
X159377559Y-105931400D02*
X159684841Y-105931400D01*
X159377559Y-106691400D02*
X159684841Y-106691400D01*
%TO.C,U7*%
X124433200Y-92073600D02*
X132653200Y-92073600D01*
X124433200Y-99293600D02*
X124433200Y-92073600D01*
X132653200Y-92073600D02*
X132653200Y-100293600D01*
X132653200Y-100293600D02*
X125433200Y-100293600D01*
X124433200Y-100793600D02*
X123933200Y-100293600D01*
X124433200Y-100293600D01*
X124433200Y-100793600D01*
G36*
X124433200Y-100793600D02*
G01*
X123933200Y-100293600D01*
X124433200Y-100293600D01*
X124433200Y-100793600D01*
G37*
%TO.C,R37*%
X159377559Y-104039400D02*
X159684841Y-104039400D01*
X159377559Y-104799400D02*
X159684841Y-104799400D01*
%TO.C,C17*%
X63411348Y-66204000D02*
X64833852Y-66204000D01*
X63411348Y-68924000D02*
X64833852Y-68924000D01*
%TO.C,C29*%
X161696964Y-105024600D02*
X161912636Y-105024600D01*
X161696964Y-105744600D02*
X161912636Y-105744600D01*
D12*
%TO.C,U19*%
X86535000Y-57350400D02*
G75*
G02*
X86435000Y-57350400I-50000J0D01*
G01*
X86435000Y-57350400D02*
G75*
G02*
X86535000Y-57350400I50000J0D01*
G01*
D11*
%TO.C,C15*%
X57761348Y-70454000D02*
X59183852Y-70454000D01*
X57761348Y-73174000D02*
X59183852Y-73174000D01*
D12*
%TO.C,U20*%
X86535000Y-59340400D02*
G75*
G02*
X86435000Y-59340400I-50000J0D01*
G01*
X86435000Y-59340400D02*
G75*
G02*
X86535000Y-59340400I50000J0D01*
G01*
D11*
%TO.C,R29*%
X140226583Y-84277397D02*
X139860617Y-84277397D01*
X140226583Y-87697397D02*
X139860617Y-87697397D01*
%TO.C,U5*%
X122277700Y-105042500D02*
X125277700Y-105042500D01*
X122277700Y-108262500D02*
X125277700Y-108262500D01*
X125337700Y-105092500D02*
X125337700Y-105242500D01*
X121717700Y-105312500D02*
X121237700Y-105312500D01*
X121717700Y-104832500D01*
X121717700Y-105312500D01*
G36*
X121717700Y-105312500D02*
G01*
X121237700Y-105312500D01*
X121717700Y-104832500D01*
X121717700Y-105312500D01*
G37*
%TO.C,R39*%
X159684841Y-103074200D02*
X159377559Y-103074200D01*
X159684841Y-103834200D02*
X159377559Y-103834200D01*
D15*
%TO.C,S1*%
X152959200Y-102867800D02*
X152959200Y-103097800D01*
X152959200Y-102867800D02*
X156959200Y-102867800D01*
X152959200Y-105767800D02*
X152959200Y-105537800D01*
X156959200Y-102867800D02*
X156959200Y-103097800D01*
X156959200Y-105537800D02*
X156959200Y-105767800D01*
X156959200Y-105767800D02*
X152959200Y-105767800D01*
D14*
%TO.C,U15*%
X134504000Y-87524597D02*
X134504000Y-87644597D01*
X134504000Y-87644597D02*
X135684000Y-87644597D01*
X134554000Y-84544597D02*
X134554000Y-84694597D01*
X135684000Y-84544597D02*
X134554000Y-84544597D01*
X136714000Y-87644597D02*
X137654000Y-87644597D01*
X137654000Y-84544597D02*
X136714000Y-84544597D01*
X137654000Y-84674597D02*
X137654000Y-84544597D01*
X137654000Y-87644597D02*
X137654000Y-87504597D01*
X138244000Y-87744597D02*
G75*
G02*
X137984000Y-87744597I-130000J0D01*
G01*
X137984000Y-87744597D02*
G75*
G02*
X138244000Y-87744597I130000J0D01*
G01*
D11*
%TO.C,U1*%
X125262500Y-112237500D02*
X125262500Y-111837500D01*
X125662500Y-108937500D02*
X125212500Y-108937500D01*
X125662500Y-112237500D02*
X125262500Y-112237500D01*
X128162500Y-108937500D02*
X128562500Y-108937500D01*
X128162500Y-112237500D02*
X128562500Y-112237500D01*
X128562500Y-108937500D02*
X128562500Y-109337500D01*
X128562500Y-112237500D02*
X128562500Y-111837500D01*
%TO.C,C8*%
X127672000Y-105359252D02*
X127672000Y-103936748D01*
X130392000Y-105359252D02*
X130392000Y-103936748D01*
%TO.C,C33*%
X74711348Y-74704000D02*
X76133852Y-74704000D01*
X74711348Y-77424000D02*
X76133852Y-77424000D01*
%TO.C,C44*%
X159639036Y-105024600D02*
X159423364Y-105024600D01*
X159639036Y-105744600D02*
X159423364Y-105744600D01*
%TO.C,C6*%
X152895463Y-95368200D02*
X154342937Y-95368200D01*
X152895463Y-98078200D02*
X154342937Y-98078200D01*
D14*
%TO.C,U13*%
X146702400Y-84409797D02*
X146702400Y-84549797D01*
X146702400Y-87379797D02*
X146702400Y-87509797D01*
X146702400Y-87509797D02*
X147642400Y-87509797D01*
X147642400Y-84409797D02*
X146702400Y-84409797D01*
X148672400Y-87509797D02*
X149802400Y-87509797D01*
X149802400Y-87509797D02*
X149802400Y-87359797D01*
X149852400Y-84409797D02*
X148672400Y-84409797D01*
X149852400Y-84529797D02*
X149852400Y-84409797D01*
X146372400Y-84309797D02*
G75*
G02*
X146112400Y-84309797I-130000J0D01*
G01*
X146112400Y-84309797D02*
G75*
G02*
X146372400Y-84309797I130000J0D01*
G01*
D11*
%TO.C,C22*%
X144115200Y-94951436D02*
X144115200Y-94735764D01*
X144835200Y-94951436D02*
X144835200Y-94735764D01*
D14*
%TO.C,U14*%
X129881600Y-87534197D02*
X129881600Y-87654197D01*
X129881600Y-87654197D02*
X131061600Y-87654197D01*
X129931600Y-84554197D02*
X129931600Y-84704197D01*
X131061600Y-84554197D02*
X129931600Y-84554197D01*
X132091600Y-87654197D02*
X133031600Y-87654197D01*
X133031600Y-84554197D02*
X132091600Y-84554197D01*
X133031600Y-84684197D02*
X133031600Y-84554197D01*
X133031600Y-87654197D02*
X133031600Y-87514197D01*
X133621600Y-87754197D02*
G75*
G02*
X133361600Y-87754197I-130000J0D01*
G01*
X133361600Y-87754197D02*
G75*
G02*
X133621600Y-87754197I130000J0D01*
G01*
D11*
%TO.C,C5*%
X135195400Y-104863737D02*
X135195400Y-103416263D01*
X137905400Y-104863737D02*
X137905400Y-103416263D01*
%TO.C,C18*%
X63411348Y-70454000D02*
X64833852Y-70454000D01*
X63411348Y-73174000D02*
X64833852Y-73174000D01*
D14*
%TO.C,U9*%
X114657200Y-70510400D02*
X114657200Y-72890400D01*
X114657200Y-70510400D02*
X137717200Y-70510400D01*
X114657200Y-71610400D02*
X137717200Y-71610400D01*
X114657200Y-75560400D02*
X114657200Y-76220400D01*
X114657200Y-76220400D02*
X117327200Y-76220400D01*
X137717200Y-70510400D02*
X137717200Y-72890400D01*
X137717200Y-75560400D02*
X137717200Y-76220400D01*
X137717200Y-76220400D02*
X135047200Y-76220400D01*
D15*
%TO.C,U8*%
X134755563Y-95859323D02*
X135147583Y-96251343D01*
X135147583Y-95467303D02*
X134755563Y-95859323D01*
X139111341Y-91503545D02*
X138719321Y-91895565D01*
X139111341Y-100215101D02*
X138719321Y-99823081D01*
X139503361Y-91895565D02*
X139111341Y-91503545D01*
X139503361Y-99823081D02*
X139111341Y-100215101D01*
X143075099Y-96251343D02*
X143467119Y-95859323D01*
X143467119Y-95859323D02*
X143075099Y-95467303D01*
D12*
X143368626Y-94834018D02*
G75*
G02*
X143268626Y-94834018I-50000J0D01*
G01*
X143268626Y-94834018D02*
G75*
G02*
X143368626Y-94834018I50000J0D01*
G01*
D11*
%TO.C,C31*%
X74711348Y-66204000D02*
X76133852Y-66204000D01*
X74711348Y-68924000D02*
X76133852Y-68924000D01*
D15*
%TO.C,S2*%
X151822400Y-110106800D02*
X155822400Y-110106800D01*
X151822400Y-110336800D02*
X151822400Y-110106800D01*
X151822400Y-113006800D02*
X151822400Y-112776800D01*
X155822400Y-110106800D02*
X155822400Y-110336800D01*
X155822400Y-113006800D02*
X151822400Y-113006800D01*
X155822400Y-113006800D02*
X155822400Y-112776800D01*
D11*
%TO.C,R18*%
X116663200Y-96430244D02*
X116663200Y-96122962D01*
X117423200Y-96430244D02*
X117423200Y-96122962D01*
D14*
%TO.C,USB1*%
X111582800Y-99944800D02*
X114172800Y-99944800D01*
X111582800Y-108944800D02*
X111582800Y-99944800D01*
X111582800Y-108944800D02*
X114172800Y-108944800D01*
X116312800Y-108944800D02*
X118202800Y-108944800D01*
X116352800Y-99974800D02*
X118262800Y-99974800D01*
X120352800Y-100714800D02*
X120352800Y-100624800D01*
X120352800Y-108274800D02*
X120352800Y-108184800D01*
D13*
%TO.C,L1*%
X143014700Y-98888800D02*
X143014700Y-106762800D01*
X143014700Y-106762800D02*
X144459960Y-106762800D01*
X144459960Y-98888800D02*
X143014700Y-98888800D01*
X148554440Y-106762800D02*
X149999700Y-106762800D01*
X149999700Y-98888800D02*
X148554440Y-98888800D01*
X149999700Y-106762800D02*
X149999700Y-98888800D01*
D14*
%TO.C,U17*%
X118233200Y-84320597D02*
X118233200Y-84460597D01*
X118233200Y-87290597D02*
X118233200Y-87420597D01*
X118233200Y-87420597D02*
X119173200Y-87420597D01*
X119173200Y-84320597D02*
X118233200Y-84320597D01*
X120203200Y-87420597D02*
X121333200Y-87420597D01*
X121333200Y-87420597D02*
X121333200Y-87270597D01*
X121383200Y-84320597D02*
X120203200Y-84320597D01*
X121383200Y-84440597D02*
X121383200Y-84320597D01*
X117903200Y-84220597D02*
G75*
G02*
X117643200Y-84220597I-130000J0D01*
G01*
X117643200Y-84220597D02*
G75*
G02*
X117903200Y-84220597I130000J0D01*
G01*
D13*
%TO.C,U2*%
X144856200Y-110187150D02*
X144856200Y-112193750D01*
X148158200Y-112193750D02*
X148158200Y-110187150D01*
D11*
%TO.C,C56*%
X161696964Y-105951400D02*
X161912636Y-105951400D01*
X161696964Y-106671400D02*
X161912636Y-106671400D01*
%TO.C,C24*%
X149188000Y-94437148D02*
X149188000Y-95859652D01*
X146468000Y-94437148D02*
X146468000Y-95859652D01*
%TO.C,C36*%
X130805600Y-104451036D02*
X130805600Y-104235364D01*
X131525600Y-104451036D02*
X131525600Y-104235364D01*
D14*
%TO.C,CN3*%
X138320000Y-68774400D02*
X138320000Y-83774400D01*
X138320000Y-68774400D02*
X154820000Y-68774400D01*
X138320000Y-80534400D02*
X154820000Y-80534400D01*
X138320000Y-83774400D02*
X154820000Y-83774400D01*
X139570000Y-68774400D02*
X139570000Y-83774400D01*
X154820000Y-68774400D02*
X154820000Y-71494400D01*
X154820000Y-72654400D02*
X154820000Y-83774400D01*
D11*
%TO.C,C7*%
X140372000Y-110507198D02*
X140372000Y-111929702D01*
X143092000Y-110507198D02*
X143092000Y-111929702D01*
D14*
%TO.C,CN1*%
X155330000Y-79440000D02*
X155330000Y-81860000D01*
X155330000Y-79440000D02*
X162930000Y-79440000D01*
X155330000Y-83060000D02*
X155330000Y-86940000D01*
X155330000Y-88140000D02*
X155330000Y-92040000D01*
X155330000Y-92040000D02*
X162620000Y-92040000D01*
X159980000Y-79440000D02*
X159980000Y-92040000D01*
X162620000Y-92040000D02*
X162930000Y-92040000D01*
X162930000Y-79440000D02*
X162930000Y-92040000D01*
%TD*%
M02*
