%TF.GenerationSoftware,KiCad,Pcbnew,9.0.1*%
%TF.CreationDate,2025-05-01T00:05:03-04:00*%
%TF.ProjectId,main_board,6d61696e-5f62-46f6-9172-642e6b696361,rev?*%
%TF.SameCoordinates,Original*%
%TF.FileFunction,Soldermask,Bot*%
%TF.FilePolarity,Negative*%
%FSLAX46Y46*%
G04 Gerber Fmt 4.6, Leading zero omitted, Abs format (unit mm)*
G04 Created by KiCad (PCBNEW 9.0.1) date 2025-05-01 00:05:03*
%MOMM*%
%LPD*%
G01*
G04 APERTURE LIST*
G04 APERTURE END LIST*
G36*
X117378085Y-110099238D02*
G01*
X117622950Y-110164849D01*
X117857155Y-110261861D01*
X118076695Y-110388612D01*
X118277812Y-110542934D01*
X118457066Y-110722188D01*
X118611388Y-110923305D01*
X118738139Y-111142845D01*
X118835151Y-111377050D01*
X118900762Y-111621915D01*
X118933851Y-111873249D01*
X118933851Y-112126751D01*
X118900762Y-112378085D01*
X118835151Y-112622950D01*
X118738139Y-112857155D01*
X118611388Y-113076695D01*
X118457066Y-113277812D01*
X118277812Y-113457066D01*
X118076695Y-113611388D01*
X117857155Y-113738139D01*
X117622950Y-113835151D01*
X117378085Y-113900762D01*
X117126751Y-113933851D01*
X116873249Y-113933851D01*
X116621915Y-113900762D01*
X116377050Y-113835151D01*
X116142845Y-113738139D01*
X115923305Y-113611388D01*
X115722188Y-113457066D01*
X115542934Y-113277812D01*
X115388612Y-113076695D01*
X115261861Y-112857155D01*
X115164849Y-112622950D01*
X115099238Y-112378085D01*
X115066149Y-112126751D01*
X115066149Y-111873249D01*
X115099238Y-111621915D01*
X115164849Y-111377050D01*
X115261861Y-111142845D01*
X115388612Y-110923305D01*
X115542934Y-110722188D01*
X115722188Y-110542934D01*
X115923305Y-110388612D01*
X116142845Y-110261861D01*
X116377050Y-110164849D01*
X116621915Y-110099238D01*
X116873249Y-110066149D01*
X117126751Y-110066149D01*
X117378085Y-110099238D01*
G37*
G36*
X161378085Y-110099238D02*
G01*
X161622950Y-110164849D01*
X161857155Y-110261861D01*
X162076695Y-110388612D01*
X162277812Y-110542934D01*
X162457066Y-110722188D01*
X162611388Y-110923305D01*
X162738139Y-111142845D01*
X162835151Y-111377050D01*
X162900762Y-111621915D01*
X162933851Y-111873249D01*
X162933851Y-112126751D01*
X162900762Y-112378085D01*
X162835151Y-112622950D01*
X162738139Y-112857155D01*
X162611388Y-113076695D01*
X162457066Y-113277812D01*
X162277812Y-113457066D01*
X162076695Y-113611388D01*
X161857155Y-113738139D01*
X161622950Y-113835151D01*
X161378085Y-113900762D01*
X161126751Y-113933851D01*
X160873249Y-113933851D01*
X160621915Y-113900762D01*
X160377050Y-113835151D01*
X160142845Y-113738139D01*
X159923305Y-113611388D01*
X159722188Y-113457066D01*
X159542934Y-113277812D01*
X159388612Y-113076695D01*
X159261861Y-112857155D01*
X159164849Y-112622950D01*
X159099238Y-112378085D01*
X159066149Y-112126751D01*
X159066149Y-111873249D01*
X159099238Y-111621915D01*
X159164849Y-111377050D01*
X159261861Y-111142845D01*
X159388612Y-110923305D01*
X159542934Y-110722188D01*
X159722188Y-110542934D01*
X159923305Y-110388612D01*
X160142845Y-110261861D01*
X160377050Y-110164849D01*
X160621915Y-110099238D01*
X160873249Y-110066149D01*
X161126751Y-110066149D01*
X161378085Y-110099238D01*
G37*
G36*
X122827271Y-112836929D02*
G01*
X122830200Y-112844000D01*
X122830200Y-113184000D01*
X122827271Y-113191071D01*
X122820200Y-113194000D01*
X122810256Y-113194000D01*
X122125144Y-113194000D01*
X122115200Y-113194000D01*
X122108129Y-113191071D01*
X122105200Y-113184000D01*
X122105200Y-112844000D01*
X122108129Y-112836929D01*
X122115200Y-112834000D01*
X122820200Y-112834000D01*
X122827271Y-112836929D01*
G37*
G36*
X123662271Y-112836929D02*
G01*
X123665200Y-112844000D01*
X123665200Y-113184000D01*
X123662271Y-113191071D01*
X123655200Y-113194000D01*
X123645256Y-113194000D01*
X122960144Y-113194000D01*
X122950200Y-113194000D01*
X122943129Y-113191071D01*
X122940200Y-113184000D01*
X122940200Y-112844000D01*
X122943129Y-112836929D01*
X122950200Y-112834000D01*
X123655200Y-112834000D01*
X123662271Y-112836929D01*
G37*
G36*
X122827271Y-111336929D02*
G01*
X122830200Y-111344000D01*
X122830200Y-111684000D01*
X122827271Y-111691071D01*
X122822297Y-111693131D01*
X122817773Y-111704054D01*
X122817773Y-111723946D01*
X122822297Y-111734868D01*
X122827271Y-111736929D01*
X122830200Y-111744000D01*
X122830200Y-112284000D01*
X122827271Y-112291071D01*
X122822297Y-112293131D01*
X122817773Y-112304054D01*
X122817773Y-112323946D01*
X122822297Y-112334868D01*
X122827271Y-112336929D01*
X122830200Y-112344000D01*
X122830200Y-112684000D01*
X122827271Y-112691071D01*
X122820200Y-112694000D01*
X122810256Y-112694000D01*
X122125144Y-112694000D01*
X122115200Y-112694000D01*
X122108129Y-112691071D01*
X122105200Y-112684000D01*
X122105200Y-112344000D01*
X122108129Y-112336929D01*
X122113100Y-112334869D01*
X122117626Y-112323945D01*
X122117626Y-112304055D01*
X122113101Y-112293130D01*
X122108129Y-112291071D01*
X122105200Y-112284000D01*
X122105200Y-111744000D01*
X122108129Y-111736929D01*
X122113100Y-111734869D01*
X122117626Y-111723945D01*
X122117626Y-111704055D01*
X122113101Y-111693130D01*
X122108129Y-111691071D01*
X122105200Y-111684000D01*
X122105200Y-111344000D01*
X122108129Y-111336929D01*
X122115200Y-111334000D01*
X122820200Y-111334000D01*
X122827271Y-111336929D01*
G37*
G36*
X123662271Y-111336929D02*
G01*
X123665200Y-111344000D01*
X123665200Y-111684000D01*
X123662271Y-111691071D01*
X123657297Y-111693131D01*
X123652773Y-111704054D01*
X123652773Y-111723946D01*
X123657297Y-111734868D01*
X123662271Y-111736929D01*
X123665200Y-111744000D01*
X123665200Y-112284000D01*
X123662271Y-112291071D01*
X123657297Y-112293131D01*
X123652773Y-112304054D01*
X123652773Y-112323946D01*
X123657297Y-112334868D01*
X123662271Y-112336929D01*
X123665200Y-112344000D01*
X123665200Y-112684000D01*
X123662271Y-112691071D01*
X123655200Y-112694000D01*
X123645256Y-112694000D01*
X122960144Y-112694000D01*
X122950200Y-112694000D01*
X122943129Y-112691071D01*
X122940200Y-112684000D01*
X122940200Y-112344000D01*
X122943129Y-112336929D01*
X122948100Y-112334869D01*
X122952626Y-112323945D01*
X122952626Y-112304055D01*
X122948101Y-112293130D01*
X122943129Y-112291071D01*
X122940200Y-112284000D01*
X122940200Y-111744000D01*
X122943129Y-111736929D01*
X122948100Y-111734869D01*
X122952626Y-111723945D01*
X122952626Y-111704055D01*
X122948101Y-111693130D01*
X122943129Y-111691071D01*
X122940200Y-111684000D01*
X122940200Y-111344000D01*
X122943129Y-111336929D01*
X122950200Y-111334000D01*
X123655200Y-111334000D01*
X123662271Y-111336929D01*
G37*
G36*
X151838404Y-110855569D02*
G01*
X151894529Y-110893071D01*
X151932031Y-110949196D01*
X151945200Y-111015400D01*
X151945200Y-111285400D01*
X151932031Y-111351604D01*
X151894529Y-111407729D01*
X151838404Y-111445231D01*
X151772200Y-111458400D01*
X151402200Y-111458400D01*
X151335996Y-111445231D01*
X151279871Y-111407729D01*
X151242369Y-111351604D01*
X151229200Y-111285400D01*
X151229200Y-111015400D01*
X151242369Y-110949196D01*
X151279871Y-110893071D01*
X151335996Y-110855569D01*
X151402200Y-110842400D01*
X151772200Y-110842400D01*
X151838404Y-110855569D01*
G37*
G36*
X152854404Y-110855569D02*
G01*
X152910529Y-110893071D01*
X152948031Y-110949196D01*
X152961200Y-111015400D01*
X152961200Y-111285400D01*
X152948031Y-111351604D01*
X152910529Y-111407729D01*
X152854404Y-111445231D01*
X152788200Y-111458400D01*
X152418200Y-111458400D01*
X152351996Y-111445231D01*
X152295871Y-111407729D01*
X152258369Y-111351604D01*
X152245200Y-111285400D01*
X152245200Y-111015400D01*
X152258369Y-110949196D01*
X152295871Y-110893071D01*
X152351996Y-110855569D01*
X152418200Y-110842400D01*
X152788200Y-110842400D01*
X152854404Y-110855569D01*
G37*
G36*
X150809318Y-110817949D02*
G01*
X150867065Y-110856535D01*
X150905651Y-110914282D01*
X150919200Y-110982400D01*
X150919200Y-111262400D01*
X150905651Y-111330518D01*
X150867065Y-111388265D01*
X150809318Y-111426851D01*
X150741200Y-111440400D01*
X150401200Y-111440400D01*
X150333082Y-111426851D01*
X150275335Y-111388265D01*
X150236749Y-111330518D01*
X150223200Y-111262400D01*
X150223200Y-110982400D01*
X150236749Y-110914282D01*
X150275335Y-110856535D01*
X150333082Y-110817949D01*
X150401200Y-110804400D01*
X150741200Y-110804400D01*
X150809318Y-110817949D01*
G37*
G36*
X122827271Y-110836929D02*
G01*
X122830200Y-110844000D01*
X122830200Y-111184000D01*
X122827271Y-111191071D01*
X122820200Y-111194000D01*
X122810256Y-111194000D01*
X122125144Y-111194000D01*
X122115200Y-111194000D01*
X122108129Y-111191071D01*
X122105200Y-111184000D01*
X122105200Y-110844000D01*
X122108129Y-110836929D01*
X122115200Y-110834000D01*
X122820200Y-110834000D01*
X122827271Y-110836929D01*
G37*
G36*
X123662271Y-110836929D02*
G01*
X123665200Y-110844000D01*
X123665200Y-111184000D01*
X123662271Y-111191071D01*
X123655200Y-111194000D01*
X123645256Y-111194000D01*
X122960144Y-111194000D01*
X122950200Y-111194000D01*
X122943129Y-111191071D01*
X122940200Y-111184000D01*
X122940200Y-110844000D01*
X122943129Y-110836929D01*
X122950200Y-110834000D01*
X123655200Y-110834000D01*
X123662271Y-110836929D01*
G37*
G36*
X150809318Y-109857949D02*
G01*
X150867065Y-109896535D01*
X150905651Y-109954282D01*
X150919200Y-110022400D01*
X150919200Y-110302400D01*
X150905651Y-110370518D01*
X150867065Y-110428265D01*
X150809318Y-110466851D01*
X150741200Y-110480400D01*
X150401200Y-110480400D01*
X150333082Y-110466851D01*
X150275335Y-110428265D01*
X150236749Y-110370518D01*
X150223200Y-110302400D01*
X150223200Y-110022400D01*
X150236749Y-109954282D01*
X150275335Y-109896535D01*
X150333082Y-109857949D01*
X150401200Y-109844400D01*
X150741200Y-109844400D01*
X150809318Y-109857949D01*
G37*
G36*
X151838404Y-109835569D02*
G01*
X151894529Y-109873071D01*
X151932031Y-109929196D01*
X151945200Y-109995400D01*
X151945200Y-110265400D01*
X151932031Y-110331604D01*
X151894529Y-110387729D01*
X151838404Y-110425231D01*
X151772200Y-110438400D01*
X151402200Y-110438400D01*
X151335996Y-110425231D01*
X151279871Y-110387729D01*
X151242369Y-110331604D01*
X151229200Y-110265400D01*
X151229200Y-109995400D01*
X151242369Y-109929196D01*
X151279871Y-109873071D01*
X151335996Y-109835569D01*
X151402200Y-109822400D01*
X151772200Y-109822400D01*
X151838404Y-109835569D01*
G37*
G36*
X152854404Y-109835569D02*
G01*
X152910529Y-109873071D01*
X152948031Y-109929196D01*
X152961200Y-109995400D01*
X152961200Y-110265400D01*
X152948031Y-110331604D01*
X152910529Y-110387729D01*
X152854404Y-110425231D01*
X152788200Y-110438400D01*
X152418200Y-110438400D01*
X152351996Y-110425231D01*
X152295871Y-110387729D01*
X152258369Y-110331604D01*
X152245200Y-110265400D01*
X152245200Y-109995400D01*
X152258369Y-109929196D01*
X152295871Y-109873071D01*
X152351996Y-109835569D01*
X152418200Y-109822400D01*
X152788200Y-109822400D01*
X152854404Y-109835569D01*
G37*
G36*
X123031604Y-109687969D02*
G01*
X123087729Y-109725471D01*
X123125231Y-109781596D01*
X123138400Y-109847800D01*
X123138400Y-110217800D01*
X123125231Y-110284004D01*
X123087729Y-110340129D01*
X123031604Y-110377631D01*
X122965400Y-110390800D01*
X122695400Y-110390800D01*
X122629196Y-110377631D01*
X122573071Y-110340129D01*
X122535569Y-110284004D01*
X122522400Y-110217800D01*
X122522400Y-109847800D01*
X122535569Y-109781596D01*
X122573071Y-109725471D01*
X122629196Y-109687969D01*
X122695400Y-109674800D01*
X122965400Y-109674800D01*
X123031604Y-109687969D01*
G37*
G36*
X124051604Y-109687969D02*
G01*
X124107729Y-109725471D01*
X124145231Y-109781596D01*
X124158400Y-109847800D01*
X124158400Y-110217800D01*
X124145231Y-110284004D01*
X124107729Y-110340129D01*
X124051604Y-110377631D01*
X123985400Y-110390800D01*
X123715400Y-110390800D01*
X123649196Y-110377631D01*
X123593071Y-110340129D01*
X123555569Y-110284004D01*
X123542400Y-110217800D01*
X123542400Y-109847800D01*
X123555569Y-109781596D01*
X123593071Y-109725471D01*
X123649196Y-109687969D01*
X123715400Y-109674800D01*
X123985400Y-109674800D01*
X124051604Y-109687969D01*
G37*
G36*
X124964004Y-108976769D02*
G01*
X125020129Y-109014271D01*
X125057631Y-109070396D01*
X125070800Y-109136600D01*
X125070800Y-109506600D01*
X125057631Y-109572804D01*
X125020129Y-109628929D01*
X124964004Y-109666431D01*
X124897800Y-109679600D01*
X124627800Y-109679600D01*
X124561596Y-109666431D01*
X124505471Y-109628929D01*
X124467969Y-109572804D01*
X124454800Y-109506600D01*
X124454800Y-109136600D01*
X124467969Y-109070396D01*
X124505471Y-109014271D01*
X124561596Y-108976769D01*
X124627800Y-108963600D01*
X124897800Y-108963600D01*
X124964004Y-108976769D01*
G37*
G36*
X125984004Y-108976769D02*
G01*
X126040129Y-109014271D01*
X126077631Y-109070396D01*
X126090800Y-109136600D01*
X126090800Y-109506600D01*
X126077631Y-109572804D01*
X126040129Y-109628929D01*
X125984004Y-109666431D01*
X125917800Y-109679600D01*
X125647800Y-109679600D01*
X125581596Y-109666431D01*
X125525471Y-109628929D01*
X125487969Y-109572804D01*
X125474800Y-109506600D01*
X125474800Y-109136600D01*
X125487969Y-109070396D01*
X125525471Y-109014271D01*
X125581596Y-108976769D01*
X125647800Y-108963600D01*
X125917800Y-108963600D01*
X125984004Y-108976769D01*
G37*
G36*
X136242804Y-108927169D02*
G01*
X136298929Y-108964671D01*
X136336431Y-109020796D01*
X136349600Y-109087000D01*
X136349600Y-109357000D01*
X136336431Y-109423204D01*
X136298929Y-109479329D01*
X136242804Y-109516831D01*
X136176600Y-109530000D01*
X135806600Y-109530000D01*
X135740396Y-109516831D01*
X135684271Y-109479329D01*
X135646769Y-109423204D01*
X135633600Y-109357000D01*
X135633600Y-109087000D01*
X135646769Y-109020796D01*
X135684271Y-108964671D01*
X135740396Y-108927169D01*
X135806600Y-108914000D01*
X136176600Y-108914000D01*
X136242804Y-108927169D01*
G37*
G36*
X137208004Y-108927169D02*
G01*
X137264129Y-108964671D01*
X137301631Y-109020796D01*
X137314800Y-109087000D01*
X137314800Y-109357000D01*
X137301631Y-109423204D01*
X137264129Y-109479329D01*
X137208004Y-109516831D01*
X137141800Y-109530000D01*
X136771800Y-109530000D01*
X136705596Y-109516831D01*
X136649471Y-109479329D01*
X136611969Y-109423204D01*
X136598800Y-109357000D01*
X136598800Y-109087000D01*
X136611969Y-109020796D01*
X136649471Y-108964671D01*
X136705596Y-108927169D01*
X136771800Y-108914000D01*
X137141800Y-108914000D01*
X137208004Y-108927169D01*
G37*
G36*
X138173204Y-108927169D02*
G01*
X138229329Y-108964671D01*
X138266831Y-109020796D01*
X138280000Y-109087000D01*
X138280000Y-109357000D01*
X138266831Y-109423204D01*
X138229329Y-109479329D01*
X138173204Y-109516831D01*
X138107000Y-109530000D01*
X137737000Y-109530000D01*
X137670796Y-109516831D01*
X137614671Y-109479329D01*
X137577169Y-109423204D01*
X137564000Y-109357000D01*
X137564000Y-109087000D01*
X137577169Y-109020796D01*
X137614671Y-108964671D01*
X137670796Y-108927169D01*
X137737000Y-108914000D01*
X138107000Y-108914000D01*
X138173204Y-108927169D01*
G37*
G36*
X139138404Y-108927169D02*
G01*
X139194529Y-108964671D01*
X139232031Y-109020796D01*
X139245200Y-109087000D01*
X139245200Y-109357000D01*
X139232031Y-109423204D01*
X139194529Y-109479329D01*
X139138404Y-109516831D01*
X139072200Y-109530000D01*
X138702200Y-109530000D01*
X138635996Y-109516831D01*
X138579871Y-109479329D01*
X138542369Y-109423204D01*
X138529200Y-109357000D01*
X138529200Y-109087000D01*
X138542369Y-109020796D01*
X138579871Y-108964671D01*
X138635996Y-108927169D01*
X138702200Y-108914000D01*
X139072200Y-108914000D01*
X139138404Y-108927169D01*
G37*
G36*
X123070518Y-108682349D02*
G01*
X123128265Y-108720935D01*
X123166851Y-108778682D01*
X123180400Y-108846800D01*
X123180400Y-109186800D01*
X123166851Y-109254918D01*
X123128265Y-109312665D01*
X123070518Y-109351251D01*
X123002400Y-109364800D01*
X122722400Y-109364800D01*
X122654282Y-109351251D01*
X122596535Y-109312665D01*
X122557949Y-109254918D01*
X122544400Y-109186800D01*
X122544400Y-108846800D01*
X122557949Y-108778682D01*
X122596535Y-108720935D01*
X122654282Y-108682349D01*
X122722400Y-108668800D01*
X123002400Y-108668800D01*
X123070518Y-108682349D01*
G37*
G36*
X124030518Y-108682349D02*
G01*
X124088265Y-108720935D01*
X124126851Y-108778682D01*
X124140400Y-108846800D01*
X124140400Y-109186800D01*
X124126851Y-109254918D01*
X124088265Y-109312665D01*
X124030518Y-109351251D01*
X123962400Y-109364800D01*
X123682400Y-109364800D01*
X123614282Y-109351251D01*
X123556535Y-109312665D01*
X123517949Y-109254918D01*
X123504400Y-109186800D01*
X123504400Y-108846800D01*
X123517949Y-108778682D01*
X123556535Y-108720935D01*
X123614282Y-108682349D01*
X123682400Y-108668800D01*
X123962400Y-108668800D01*
X124030518Y-108682349D01*
G37*
G36*
X115653023Y-108231403D02*
G01*
X115788684Y-108267753D01*
X115910314Y-108337976D01*
X116009624Y-108437286D01*
X116079847Y-108558916D01*
X116116197Y-108694577D01*
X116116197Y-108835023D01*
X116079847Y-108970684D01*
X116009624Y-109092314D01*
X115910314Y-109191624D01*
X115788684Y-109261847D01*
X115653023Y-109298197D01*
X115582800Y-109302800D01*
X115581163Y-109302800D01*
X114984437Y-109302800D01*
X114982800Y-109302800D01*
X114912577Y-109298197D01*
X114776916Y-109261847D01*
X114655286Y-109191624D01*
X114555976Y-109092314D01*
X114485753Y-108970684D01*
X114449403Y-108835023D01*
X114449403Y-108694577D01*
X114485753Y-108558916D01*
X114555976Y-108437286D01*
X114655286Y-108337976D01*
X114776916Y-108267753D01*
X114912577Y-108231403D01*
X114982800Y-108226800D01*
X115582800Y-108226800D01*
X115653023Y-108231403D01*
G37*
G36*
X119983023Y-108231403D02*
G01*
X120118684Y-108267753D01*
X120240314Y-108337976D01*
X120339624Y-108437286D01*
X120409847Y-108558916D01*
X120446197Y-108694577D01*
X120446197Y-108835023D01*
X120409847Y-108970684D01*
X120339624Y-109092314D01*
X120240314Y-109191624D01*
X120118684Y-109261847D01*
X119983023Y-109298197D01*
X119912800Y-109302800D01*
X119911163Y-109302800D01*
X119014437Y-109302800D01*
X119012800Y-109302800D01*
X118942577Y-109298197D01*
X118806916Y-109261847D01*
X118685286Y-109191624D01*
X118585976Y-109092314D01*
X118515753Y-108970684D01*
X118479403Y-108835023D01*
X118479403Y-108694577D01*
X118515753Y-108558916D01*
X118585976Y-108437286D01*
X118685286Y-108337976D01*
X118806916Y-108267753D01*
X118942577Y-108231403D01*
X119012800Y-108226800D01*
X119912800Y-108226800D01*
X119983023Y-108231403D01*
G37*
G36*
X146515834Y-106864164D02*
G01*
X146548925Y-106886275D01*
X146571036Y-106919366D01*
X146578800Y-106958400D01*
X146578800Y-108458400D01*
X146571036Y-108497434D01*
X146548925Y-108530525D01*
X146515834Y-108552636D01*
X146476800Y-108560400D01*
X145576800Y-108560400D01*
X145537766Y-108552636D01*
X145504675Y-108530525D01*
X145482564Y-108497434D01*
X145474800Y-108458400D01*
X145474800Y-106958400D01*
X145482564Y-106919366D01*
X145504675Y-106886275D01*
X145537766Y-106864164D01*
X145576800Y-106856400D01*
X146476800Y-106856400D01*
X146515834Y-106864164D01*
G37*
G36*
X147785834Y-106864164D02*
G01*
X147818925Y-106886275D01*
X147841036Y-106919366D01*
X147848800Y-106958400D01*
X147848800Y-108458400D01*
X147841036Y-108497434D01*
X147818925Y-108530525D01*
X147785834Y-108552636D01*
X147746800Y-108560400D01*
X146846800Y-108560400D01*
X146807766Y-108552636D01*
X146774675Y-108530525D01*
X146752564Y-108497434D01*
X146744800Y-108458400D01*
X146744800Y-106958400D01*
X146752564Y-106919366D01*
X146774675Y-106886275D01*
X146807766Y-106864164D01*
X146846800Y-106856400D01*
X147746800Y-106856400D01*
X147785834Y-106864164D01*
G37*
G36*
X149055834Y-106864164D02*
G01*
X149088925Y-106886275D01*
X149111036Y-106919366D01*
X149118800Y-106958400D01*
X149118800Y-108458400D01*
X149111036Y-108497434D01*
X149088925Y-108530525D01*
X149055834Y-108552636D01*
X149016800Y-108560400D01*
X148116800Y-108560400D01*
X148077766Y-108552636D01*
X148044675Y-108530525D01*
X148022564Y-108497434D01*
X148014800Y-108458400D01*
X148014800Y-106958400D01*
X148022564Y-106919366D01*
X148044675Y-106886275D01*
X148077766Y-106864164D01*
X148116800Y-106856400D01*
X149016800Y-106856400D01*
X149055834Y-106864164D01*
G37*
G36*
X150325834Y-106864164D02*
G01*
X150358925Y-106886275D01*
X150381036Y-106919366D01*
X150388800Y-106958400D01*
X150388800Y-108458400D01*
X150381036Y-108497434D01*
X150358925Y-108530525D01*
X150325834Y-108552636D01*
X150286800Y-108560400D01*
X149386800Y-108560400D01*
X149347766Y-108552636D01*
X149314675Y-108530525D01*
X149292564Y-108497434D01*
X149284800Y-108458400D01*
X149284800Y-106958400D01*
X149292564Y-106919366D01*
X149314675Y-106886275D01*
X149347766Y-106864164D01*
X149386800Y-106856400D01*
X150286800Y-106856400D01*
X150325834Y-106864164D01*
G37*
G36*
X151595834Y-106864164D02*
G01*
X151628925Y-106886275D01*
X151651036Y-106919366D01*
X151658800Y-106958400D01*
X151658800Y-108458400D01*
X151651036Y-108497434D01*
X151628925Y-108530525D01*
X151595834Y-108552636D01*
X151556800Y-108560400D01*
X150656800Y-108560400D01*
X150617766Y-108552636D01*
X150584675Y-108530525D01*
X150562564Y-108497434D01*
X150554800Y-108458400D01*
X150554800Y-106958400D01*
X150562564Y-106919366D01*
X150584675Y-106886275D01*
X150617766Y-106864164D01*
X150656800Y-106856400D01*
X151556800Y-106856400D01*
X151595834Y-106864164D01*
G37*
G36*
X152865834Y-106864164D02*
G01*
X152898925Y-106886275D01*
X152921036Y-106919366D01*
X152928800Y-106958400D01*
X152928800Y-108458400D01*
X152921036Y-108497434D01*
X152898925Y-108530525D01*
X152865834Y-108552636D01*
X152826800Y-108560400D01*
X151926800Y-108560400D01*
X151887766Y-108552636D01*
X151854675Y-108530525D01*
X151832564Y-108497434D01*
X151824800Y-108458400D01*
X151824800Y-106958400D01*
X151832564Y-106919366D01*
X151854675Y-106886275D01*
X151887766Y-106864164D01*
X151926800Y-106856400D01*
X152826800Y-106856400D01*
X152865834Y-106864164D01*
G37*
G36*
X154135834Y-106864164D02*
G01*
X154168925Y-106886275D01*
X154191036Y-106919366D01*
X154198800Y-106958400D01*
X154198800Y-108458400D01*
X154191036Y-108497434D01*
X154168925Y-108530525D01*
X154135834Y-108552636D01*
X154096800Y-108560400D01*
X153196800Y-108560400D01*
X153157766Y-108552636D01*
X153124675Y-108530525D01*
X153102564Y-108497434D01*
X153094800Y-108458400D01*
X153094800Y-106958400D01*
X153102564Y-106919366D01*
X153124675Y-106886275D01*
X153157766Y-106864164D01*
X153196800Y-106856400D01*
X154096800Y-106856400D01*
X154135834Y-106864164D01*
G37*
G36*
X155405834Y-106864164D02*
G01*
X155438925Y-106886275D01*
X155461036Y-106919366D01*
X155468800Y-106958400D01*
X155468800Y-108458400D01*
X155461036Y-108497434D01*
X155438925Y-108530525D01*
X155405834Y-108552636D01*
X155366800Y-108560400D01*
X154466800Y-108560400D01*
X154427766Y-108552636D01*
X154394675Y-108530525D01*
X154372564Y-108497434D01*
X154364800Y-108458400D01*
X154364800Y-106958400D01*
X154372564Y-106919366D01*
X154394675Y-106886275D01*
X154427766Y-106864164D01*
X154466800Y-106856400D01*
X155366800Y-106856400D01*
X155405834Y-106864164D01*
G37*
G36*
X156675834Y-106864164D02*
G01*
X156708925Y-106886275D01*
X156731036Y-106919366D01*
X156738800Y-106958400D01*
X156738800Y-108458400D01*
X156731036Y-108497434D01*
X156708925Y-108530525D01*
X156675834Y-108552636D01*
X156636800Y-108560400D01*
X155736800Y-108560400D01*
X155697766Y-108552636D01*
X155664675Y-108530525D01*
X155642564Y-108497434D01*
X155634800Y-108458400D01*
X155634800Y-106958400D01*
X155642564Y-106919366D01*
X155664675Y-106886275D01*
X155697766Y-106864164D01*
X155736800Y-106856400D01*
X156636800Y-106856400D01*
X156675834Y-106864164D01*
G37*
G36*
X157945834Y-106864164D02*
G01*
X157978925Y-106886275D01*
X158001036Y-106919366D01*
X158008800Y-106958400D01*
X158008800Y-108458400D01*
X158001036Y-108497434D01*
X157978925Y-108530525D01*
X157945834Y-108552636D01*
X157906800Y-108560400D01*
X157006800Y-108560400D01*
X156967766Y-108552636D01*
X156934675Y-108530525D01*
X156912564Y-108497434D01*
X156904800Y-108458400D01*
X156904800Y-106958400D01*
X156912564Y-106919366D01*
X156934675Y-106886275D01*
X156967766Y-106864164D01*
X157006800Y-106856400D01*
X157906800Y-106856400D01*
X157945834Y-106864164D01*
G37*
G36*
X159215834Y-106864164D02*
G01*
X159248925Y-106886275D01*
X159271036Y-106919366D01*
X159278800Y-106958400D01*
X159278800Y-108458400D01*
X159271036Y-108497434D01*
X159248925Y-108530525D01*
X159215834Y-108552636D01*
X159176800Y-108560400D01*
X158276800Y-108560400D01*
X158237766Y-108552636D01*
X158204675Y-108530525D01*
X158182564Y-108497434D01*
X158174800Y-108458400D01*
X158174800Y-106958400D01*
X158182564Y-106919366D01*
X158204675Y-106886275D01*
X158237766Y-106864164D01*
X158276800Y-106856400D01*
X159176800Y-106856400D01*
X159215834Y-106864164D01*
G37*
G36*
X160485834Y-106864164D02*
G01*
X160518925Y-106886275D01*
X160541036Y-106919366D01*
X160548800Y-106958400D01*
X160548800Y-108458400D01*
X160541036Y-108497434D01*
X160518925Y-108530525D01*
X160485834Y-108552636D01*
X160446800Y-108560400D01*
X159546800Y-108560400D01*
X159507766Y-108552636D01*
X159474675Y-108530525D01*
X159452564Y-108497434D01*
X159444800Y-108458400D01*
X159444800Y-106958400D01*
X159452564Y-106919366D01*
X159474675Y-106886275D01*
X159507766Y-106864164D01*
X159546800Y-106856400D01*
X160446800Y-106856400D01*
X160485834Y-106864164D01*
G37*
G36*
X161755834Y-106864164D02*
G01*
X161788925Y-106886275D01*
X161811036Y-106919366D01*
X161818800Y-106958400D01*
X161818800Y-108458400D01*
X161811036Y-108497434D01*
X161788925Y-108530525D01*
X161755834Y-108552636D01*
X161716800Y-108560400D01*
X160816800Y-108560400D01*
X160777766Y-108552636D01*
X160744675Y-108530525D01*
X160722564Y-108497434D01*
X160714800Y-108458400D01*
X160714800Y-106958400D01*
X160722564Y-106919366D01*
X160744675Y-106886275D01*
X160777766Y-106864164D01*
X160816800Y-106856400D01*
X161716800Y-106856400D01*
X161755834Y-106864164D01*
G37*
G36*
X163025834Y-106864164D02*
G01*
X163058925Y-106886275D01*
X163081036Y-106919366D01*
X163088800Y-106958400D01*
X163088800Y-108458400D01*
X163081036Y-108497434D01*
X163058925Y-108530525D01*
X163025834Y-108552636D01*
X162986800Y-108560400D01*
X162086800Y-108560400D01*
X162047766Y-108552636D01*
X162014675Y-108530525D01*
X161992564Y-108497434D01*
X161984800Y-108458400D01*
X161984800Y-106958400D01*
X161992564Y-106919366D01*
X162014675Y-106886275D01*
X162047766Y-106864164D01*
X162086800Y-106856400D01*
X162986800Y-106856400D01*
X163025834Y-106864164D01*
G37*
G36*
X136242804Y-107907169D02*
G01*
X136298929Y-107944671D01*
X136336431Y-108000796D01*
X136349600Y-108067000D01*
X136349600Y-108337000D01*
X136336431Y-108403204D01*
X136298929Y-108459329D01*
X136242804Y-108496831D01*
X136176600Y-108510000D01*
X135806600Y-108510000D01*
X135740396Y-108496831D01*
X135684271Y-108459329D01*
X135646769Y-108403204D01*
X135633600Y-108337000D01*
X135633600Y-108067000D01*
X135646769Y-108000796D01*
X135684271Y-107944671D01*
X135740396Y-107907169D01*
X135806600Y-107894000D01*
X136176600Y-107894000D01*
X136242804Y-107907169D01*
G37*
G36*
X137208004Y-107907169D02*
G01*
X137264129Y-107944671D01*
X137301631Y-108000796D01*
X137314800Y-108067000D01*
X137314800Y-108337000D01*
X137301631Y-108403204D01*
X137264129Y-108459329D01*
X137208004Y-108496831D01*
X137141800Y-108510000D01*
X136771800Y-108510000D01*
X136705596Y-108496831D01*
X136649471Y-108459329D01*
X136611969Y-108403204D01*
X136598800Y-108337000D01*
X136598800Y-108067000D01*
X136611969Y-108000796D01*
X136649471Y-107944671D01*
X136705596Y-107907169D01*
X136771800Y-107894000D01*
X137141800Y-107894000D01*
X137208004Y-107907169D01*
G37*
G36*
X138173204Y-107907169D02*
G01*
X138229329Y-107944671D01*
X138266831Y-108000796D01*
X138280000Y-108067000D01*
X138280000Y-108337000D01*
X138266831Y-108403204D01*
X138229329Y-108459329D01*
X138173204Y-108496831D01*
X138107000Y-108510000D01*
X137737000Y-108510000D01*
X137670796Y-108496831D01*
X137614671Y-108459329D01*
X137577169Y-108403204D01*
X137564000Y-108337000D01*
X137564000Y-108067000D01*
X137577169Y-108000796D01*
X137614671Y-107944671D01*
X137670796Y-107907169D01*
X137737000Y-107894000D01*
X138107000Y-107894000D01*
X138173204Y-107907169D01*
G37*
G36*
X139138404Y-107907169D02*
G01*
X139194529Y-107944671D01*
X139232031Y-108000796D01*
X139245200Y-108067000D01*
X139245200Y-108337000D01*
X139232031Y-108403204D01*
X139194529Y-108459329D01*
X139138404Y-108496831D01*
X139072200Y-108510000D01*
X138702200Y-108510000D01*
X138635996Y-108496831D01*
X138579871Y-108459329D01*
X138542369Y-108403204D01*
X138529200Y-108337000D01*
X138529200Y-108067000D01*
X138542369Y-108000796D01*
X138579871Y-107944671D01*
X138635996Y-107907169D01*
X138702200Y-107894000D01*
X139072200Y-107894000D01*
X139138404Y-107907169D01*
G37*
G36*
X133532004Y-107817569D02*
G01*
X133588129Y-107855071D01*
X133625631Y-107911196D01*
X133638800Y-107977400D01*
X133638800Y-108247400D01*
X133625631Y-108313604D01*
X133588129Y-108369729D01*
X133532004Y-108407231D01*
X133465800Y-108420400D01*
X133095800Y-108420400D01*
X133029596Y-108407231D01*
X132973471Y-108369729D01*
X132935969Y-108313604D01*
X132922800Y-108247400D01*
X132922800Y-107977400D01*
X132935969Y-107911196D01*
X132973471Y-107855071D01*
X133029596Y-107817569D01*
X133095800Y-107804400D01*
X133465800Y-107804400D01*
X133532004Y-107817569D01*
G37*
G36*
X132534404Y-107807569D02*
G01*
X132590529Y-107845071D01*
X132628031Y-107901196D01*
X132641200Y-107967400D01*
X132641200Y-108237400D01*
X132628031Y-108303604D01*
X132590529Y-108359729D01*
X132534404Y-108397231D01*
X132468200Y-108410400D01*
X132098200Y-108410400D01*
X132031996Y-108397231D01*
X131975871Y-108359729D01*
X131938369Y-108303604D01*
X131925200Y-108237400D01*
X131925200Y-107967400D01*
X131938369Y-107901196D01*
X131975871Y-107845071D01*
X132031996Y-107807569D01*
X132098200Y-107794400D01*
X132468200Y-107794400D01*
X132534404Y-107807569D01*
G37*
G36*
X123110703Y-106969933D02*
G01*
X123182017Y-107017583D01*
X123229667Y-107088897D01*
X123246400Y-107173018D01*
X123246400Y-107609382D01*
X123229667Y-107693503D01*
X123182017Y-107764817D01*
X123110703Y-107812467D01*
X123026582Y-107829200D01*
X122490218Y-107829200D01*
X122406097Y-107812467D01*
X122334783Y-107764817D01*
X122287133Y-107693503D01*
X122270400Y-107609382D01*
X122270400Y-107173018D01*
X122287133Y-107088897D01*
X122334783Y-107017583D01*
X122406097Y-106969933D01*
X122490218Y-106953200D01*
X123026582Y-106953200D01*
X123110703Y-106969933D01*
G37*
G36*
X126310703Y-106969933D02*
G01*
X126382017Y-107017583D01*
X126429667Y-107088897D01*
X126446400Y-107173018D01*
X126446400Y-107609382D01*
X126429667Y-107693503D01*
X126382017Y-107764817D01*
X126310703Y-107812467D01*
X126226582Y-107829200D01*
X125690218Y-107829200D01*
X125606097Y-107812467D01*
X125534783Y-107764817D01*
X125487133Y-107693503D01*
X125470400Y-107609382D01*
X125470400Y-107173018D01*
X125487133Y-107088897D01*
X125534783Y-107017583D01*
X125606097Y-106969933D01*
X125690218Y-106953200D01*
X126226582Y-106953200D01*
X126310703Y-106969933D01*
G37*
G36*
X119092147Y-107022529D02*
G01*
X119168561Y-107066647D01*
X119230953Y-107129039D01*
X119275071Y-107205453D01*
X119297908Y-107290682D01*
X119297908Y-107378918D01*
X119275071Y-107464147D01*
X119230953Y-107540561D01*
X119168561Y-107602953D01*
X119092147Y-107647071D01*
X119006918Y-107669908D01*
X118918682Y-107669908D01*
X118833453Y-107647071D01*
X118757039Y-107602953D01*
X118694647Y-107540561D01*
X118650529Y-107464147D01*
X118627692Y-107378918D01*
X118627692Y-107290682D01*
X118650529Y-107205453D01*
X118694647Y-107129039D01*
X118757039Y-107066647D01*
X118833453Y-107022529D01*
X118918682Y-106999692D01*
X119006918Y-106999692D01*
X119092147Y-107022529D01*
G37*
G36*
X133532004Y-106797569D02*
G01*
X133588129Y-106835071D01*
X133625631Y-106891196D01*
X133638800Y-106957400D01*
X133638800Y-107227400D01*
X133625631Y-107293604D01*
X133588129Y-107349729D01*
X133532004Y-107387231D01*
X133465800Y-107400400D01*
X133095800Y-107400400D01*
X133029596Y-107387231D01*
X132973471Y-107349729D01*
X132935969Y-107293604D01*
X132922800Y-107227400D01*
X132922800Y-106957400D01*
X132935969Y-106891196D01*
X132973471Y-106835071D01*
X133029596Y-106797569D01*
X133095800Y-106784400D01*
X133465800Y-106784400D01*
X133532004Y-106797569D01*
G37*
G36*
X132534404Y-106787569D02*
G01*
X132590529Y-106825071D01*
X132628031Y-106881196D01*
X132641200Y-106947400D01*
X132641200Y-107217400D01*
X132628031Y-107283604D01*
X132590529Y-107339729D01*
X132534404Y-107377231D01*
X132468200Y-107390400D01*
X132098200Y-107390400D01*
X132031996Y-107377231D01*
X131975871Y-107339729D01*
X131938369Y-107283604D01*
X131925200Y-107217400D01*
X131925200Y-106947400D01*
X131938369Y-106881196D01*
X131975871Y-106825071D01*
X132031996Y-106787569D01*
X132098200Y-106774400D01*
X132468200Y-106774400D01*
X132534404Y-106787569D01*
G37*
G36*
X145565834Y-105399164D02*
G01*
X145598925Y-105421275D01*
X145621036Y-105454366D01*
X145628800Y-105493400D01*
X145628800Y-106393400D01*
X145621036Y-106432434D01*
X145598925Y-106465525D01*
X145565834Y-106487636D01*
X145526800Y-106495400D01*
X144026800Y-106495400D01*
X143987766Y-106487636D01*
X143954675Y-106465525D01*
X143932564Y-106432434D01*
X143924800Y-106393400D01*
X143924800Y-105493400D01*
X143932564Y-105454366D01*
X143954675Y-105421275D01*
X143987766Y-105399164D01*
X144026800Y-105391400D01*
X145526800Y-105391400D01*
X145565834Y-105399164D01*
G37*
G36*
X134261218Y-105675338D02*
G01*
X134318965Y-105713924D01*
X134357551Y-105771671D01*
X134371100Y-105839789D01*
X134371100Y-106119789D01*
X134357551Y-106187907D01*
X134318965Y-106245654D01*
X134261218Y-106284240D01*
X134193100Y-106297789D01*
X133853100Y-106297789D01*
X133784982Y-106284240D01*
X133727235Y-106245654D01*
X133688649Y-106187907D01*
X133675100Y-106119789D01*
X133675100Y-105839789D01*
X133688649Y-105771671D01*
X133727235Y-105713924D01*
X133784982Y-105675338D01*
X133853100Y-105661789D01*
X134193100Y-105661789D01*
X134261218Y-105675338D01*
G37*
G36*
X134261218Y-104715338D02*
G01*
X134318965Y-104753924D01*
X134357551Y-104811671D01*
X134371100Y-104879789D01*
X134371100Y-105159789D01*
X134357551Y-105227907D01*
X134318965Y-105285654D01*
X134261218Y-105324240D01*
X134193100Y-105337789D01*
X133853100Y-105337789D01*
X133784982Y-105324240D01*
X133727235Y-105285654D01*
X133688649Y-105227907D01*
X133675100Y-105159789D01*
X133675100Y-104879789D01*
X133688649Y-104811671D01*
X133727235Y-104753924D01*
X133784982Y-104715338D01*
X133853100Y-104701789D01*
X134193100Y-104701789D01*
X134261218Y-104715338D01*
G37*
G36*
X145565834Y-104129164D02*
G01*
X145598925Y-104151275D01*
X145621036Y-104184366D01*
X145628800Y-104223400D01*
X145628800Y-105123400D01*
X145621036Y-105162434D01*
X145598925Y-105195525D01*
X145565834Y-105217636D01*
X145526800Y-105225400D01*
X144026800Y-105225400D01*
X143987766Y-105217636D01*
X143954675Y-105195525D01*
X143932564Y-105162434D01*
X143924800Y-105123400D01*
X143924800Y-104223400D01*
X143932564Y-104184366D01*
X143954675Y-104151275D01*
X143987766Y-104129164D01*
X144026800Y-104121400D01*
X145526800Y-104121400D01*
X145565834Y-104129164D01*
G37*
G36*
X135366118Y-104213949D02*
G01*
X135423865Y-104252535D01*
X135462451Y-104310282D01*
X135476000Y-104378400D01*
X135476000Y-104658400D01*
X135462451Y-104726518D01*
X135423865Y-104784265D01*
X135366118Y-104822851D01*
X135298000Y-104836400D01*
X134958000Y-104836400D01*
X134889882Y-104822851D01*
X134832135Y-104784265D01*
X134793549Y-104726518D01*
X134780000Y-104658400D01*
X134780000Y-104378400D01*
X134793549Y-104310282D01*
X134832135Y-104252535D01*
X134889882Y-104213949D01*
X134958000Y-104200400D01*
X135298000Y-104200400D01*
X135366118Y-104213949D01*
G37*
G36*
X145565834Y-102859164D02*
G01*
X145598925Y-102881275D01*
X145621036Y-102914366D01*
X145628800Y-102953400D01*
X145628800Y-103853400D01*
X145621036Y-103892434D01*
X145598925Y-103925525D01*
X145565834Y-103947636D01*
X145526800Y-103955400D01*
X144026800Y-103955400D01*
X143987766Y-103947636D01*
X143954675Y-103925525D01*
X143932564Y-103892434D01*
X143924800Y-103853400D01*
X143924800Y-102953400D01*
X143932564Y-102914366D01*
X143954675Y-102881275D01*
X143987766Y-102859164D01*
X144026800Y-102851400D01*
X145526800Y-102851400D01*
X145565834Y-102859164D01*
G37*
G36*
X135366118Y-103253949D02*
G01*
X135423865Y-103292535D01*
X135462451Y-103350282D01*
X135476000Y-103418400D01*
X135476000Y-103698400D01*
X135462451Y-103766518D01*
X135423865Y-103824265D01*
X135366118Y-103862851D01*
X135298000Y-103876400D01*
X134958000Y-103876400D01*
X134889882Y-103862851D01*
X134832135Y-103824265D01*
X134793549Y-103766518D01*
X134780000Y-103698400D01*
X134780000Y-103418400D01*
X134793549Y-103350282D01*
X134832135Y-103292535D01*
X134889882Y-103253949D01*
X134958000Y-103240400D01*
X135298000Y-103240400D01*
X135366118Y-103253949D01*
G37*
G36*
X145565834Y-101589164D02*
G01*
X145598925Y-101611275D01*
X145621036Y-101644366D01*
X145628800Y-101683400D01*
X145628800Y-102583400D01*
X145621036Y-102622434D01*
X145598925Y-102655525D01*
X145565834Y-102677636D01*
X145526800Y-102685400D01*
X144026800Y-102685400D01*
X143987766Y-102677636D01*
X143954675Y-102655525D01*
X143932564Y-102622434D01*
X143924800Y-102583400D01*
X143924800Y-101683400D01*
X143932564Y-101644366D01*
X143954675Y-101611275D01*
X143987766Y-101589164D01*
X144026800Y-101581400D01*
X145526800Y-101581400D01*
X145565834Y-101589164D01*
G37*
G36*
X153905834Y-101314164D02*
G01*
X153938925Y-101336275D01*
X153961036Y-101369366D01*
X153968800Y-101408400D01*
X153968800Y-102308400D01*
X153961036Y-102347434D01*
X153938925Y-102380525D01*
X153905834Y-102402636D01*
X153866800Y-102410400D01*
X152966800Y-102410400D01*
X152927766Y-102402636D01*
X152894675Y-102380525D01*
X152872564Y-102347434D01*
X152864800Y-102308400D01*
X152864800Y-101408400D01*
X152872564Y-101369366D01*
X152894675Y-101336275D01*
X152927766Y-101314164D01*
X152966800Y-101306400D01*
X153866800Y-101306400D01*
X153905834Y-101314164D01*
G37*
G36*
X155305834Y-101314164D02*
G01*
X155338925Y-101336275D01*
X155361036Y-101369366D01*
X155368800Y-101408400D01*
X155368800Y-102308400D01*
X155361036Y-102347434D01*
X155338925Y-102380525D01*
X155305834Y-102402636D01*
X155266800Y-102410400D01*
X154366800Y-102410400D01*
X154327766Y-102402636D01*
X154294675Y-102380525D01*
X154272564Y-102347434D01*
X154264800Y-102308400D01*
X154264800Y-101408400D01*
X154272564Y-101369366D01*
X154294675Y-101336275D01*
X154327766Y-101314164D01*
X154366800Y-101306400D01*
X155266800Y-101306400D01*
X155305834Y-101314164D01*
G37*
G36*
X156705834Y-101314164D02*
G01*
X156738925Y-101336275D01*
X156761036Y-101369366D01*
X156768800Y-101408400D01*
X156768800Y-102308400D01*
X156761036Y-102347434D01*
X156738925Y-102380525D01*
X156705834Y-102402636D01*
X156666800Y-102410400D01*
X155766800Y-102410400D01*
X155727766Y-102402636D01*
X155694675Y-102380525D01*
X155672564Y-102347434D01*
X155664800Y-102308400D01*
X155664800Y-101408400D01*
X155672564Y-101369366D01*
X155694675Y-101336275D01*
X155727766Y-101314164D01*
X155766800Y-101306400D01*
X156666800Y-101306400D01*
X156705834Y-101314164D01*
G37*
G36*
X119092147Y-101242529D02*
G01*
X119168561Y-101286647D01*
X119230953Y-101349039D01*
X119275071Y-101425453D01*
X119297908Y-101510682D01*
X119297908Y-101598918D01*
X119275071Y-101684147D01*
X119230953Y-101760561D01*
X119168561Y-101822953D01*
X119092147Y-101867071D01*
X119006918Y-101889908D01*
X118918682Y-101889908D01*
X118833453Y-101867071D01*
X118757039Y-101822953D01*
X118694647Y-101760561D01*
X118650529Y-101684147D01*
X118627692Y-101598918D01*
X118627692Y-101510682D01*
X118650529Y-101425453D01*
X118694647Y-101349039D01*
X118757039Y-101286647D01*
X118833453Y-101242529D01*
X118918682Y-101219692D01*
X119006918Y-101219692D01*
X119092147Y-101242529D01*
G37*
G36*
X145565834Y-100319164D02*
G01*
X145598925Y-100341275D01*
X145621036Y-100374366D01*
X145628800Y-100413400D01*
X145628800Y-101313400D01*
X145621036Y-101352434D01*
X145598925Y-101385525D01*
X145565834Y-101407636D01*
X145526800Y-101415400D01*
X144026800Y-101415400D01*
X143987766Y-101407636D01*
X143954675Y-101385525D01*
X143932564Y-101352434D01*
X143924800Y-101313400D01*
X143924800Y-100413400D01*
X143932564Y-100374366D01*
X143954675Y-100341275D01*
X143987766Y-100319164D01*
X144026800Y-100311400D01*
X145526800Y-100311400D01*
X145565834Y-100319164D01*
G37*
G36*
X153905834Y-99914164D02*
G01*
X153938925Y-99936275D01*
X153961036Y-99969366D01*
X153968800Y-100008400D01*
X153968800Y-100908400D01*
X153961036Y-100947434D01*
X153938925Y-100980525D01*
X153905834Y-101002636D01*
X153866800Y-101010400D01*
X152966800Y-101010400D01*
X152927766Y-101002636D01*
X152894675Y-100980525D01*
X152872564Y-100947434D01*
X152864800Y-100908400D01*
X152864800Y-100008400D01*
X152872564Y-99969366D01*
X152894675Y-99936275D01*
X152927766Y-99914164D01*
X152966800Y-99906400D01*
X153866800Y-99906400D01*
X153905834Y-99914164D01*
G37*
G36*
X155305834Y-99914164D02*
G01*
X155338925Y-99936275D01*
X155361036Y-99969366D01*
X155368800Y-100008400D01*
X155368800Y-100908400D01*
X155361036Y-100947434D01*
X155338925Y-100980525D01*
X155305834Y-101002636D01*
X155266800Y-101010400D01*
X154366800Y-101010400D01*
X154327766Y-101002636D01*
X154294675Y-100980525D01*
X154272564Y-100947434D01*
X154264800Y-100908400D01*
X154264800Y-100008400D01*
X154272564Y-99969366D01*
X154294675Y-99936275D01*
X154327766Y-99914164D01*
X154366800Y-99906400D01*
X155266800Y-99906400D01*
X155305834Y-99914164D01*
G37*
G36*
X156705834Y-99914164D02*
G01*
X156738925Y-99936275D01*
X156761036Y-99969366D01*
X156768800Y-100008400D01*
X156768800Y-100908400D01*
X156761036Y-100947434D01*
X156738925Y-100980525D01*
X156705834Y-101002636D01*
X156666800Y-101010400D01*
X155766800Y-101010400D01*
X155727766Y-101002636D01*
X155694675Y-100980525D01*
X155672564Y-100947434D01*
X155664800Y-100908400D01*
X155664800Y-100008400D01*
X155672564Y-99969366D01*
X155694675Y-99936275D01*
X155727766Y-99914164D01*
X155766800Y-99906400D01*
X156666800Y-99906400D01*
X156705834Y-99914164D01*
G37*
G36*
X115653023Y-99591403D02*
G01*
X115788684Y-99627753D01*
X115910314Y-99697976D01*
X116009624Y-99797286D01*
X116079847Y-99918916D01*
X116116197Y-100054577D01*
X116116197Y-100195023D01*
X116079847Y-100330684D01*
X116009624Y-100452314D01*
X115910314Y-100551624D01*
X115788684Y-100621847D01*
X115653023Y-100658197D01*
X115582800Y-100662800D01*
X115581163Y-100662800D01*
X114984437Y-100662800D01*
X114982800Y-100662800D01*
X114912577Y-100658197D01*
X114776916Y-100621847D01*
X114655286Y-100551624D01*
X114555976Y-100452314D01*
X114485753Y-100330684D01*
X114449403Y-100195023D01*
X114449403Y-100054577D01*
X114485753Y-99918916D01*
X114555976Y-99797286D01*
X114655286Y-99697976D01*
X114776916Y-99627753D01*
X114912577Y-99591403D01*
X114982800Y-99586800D01*
X115582800Y-99586800D01*
X115653023Y-99591403D01*
G37*
G36*
X119983023Y-99591403D02*
G01*
X120118684Y-99627753D01*
X120240314Y-99697976D01*
X120339624Y-99797286D01*
X120409847Y-99918916D01*
X120446197Y-100054577D01*
X120446197Y-100195023D01*
X120409847Y-100330684D01*
X120339624Y-100452314D01*
X120240314Y-100551624D01*
X120118684Y-100621847D01*
X119983023Y-100658197D01*
X119912800Y-100662800D01*
X119911163Y-100662800D01*
X119014437Y-100662800D01*
X119012800Y-100662800D01*
X118942577Y-100658197D01*
X118806916Y-100621847D01*
X118685286Y-100551624D01*
X118585976Y-100452314D01*
X118515753Y-100330684D01*
X118479403Y-100195023D01*
X118479403Y-100054577D01*
X118515753Y-99918916D01*
X118585976Y-99797286D01*
X118685286Y-99697976D01*
X118806916Y-99627753D01*
X118942577Y-99591403D01*
X119012800Y-99586800D01*
X119912800Y-99586800D01*
X119983023Y-99591403D01*
G37*
G36*
X145565834Y-99049164D02*
G01*
X145598925Y-99071275D01*
X145621036Y-99104366D01*
X145628800Y-99143400D01*
X145628800Y-100043400D01*
X145621036Y-100082434D01*
X145598925Y-100115525D01*
X145565834Y-100137636D01*
X145526800Y-100145400D01*
X144026800Y-100145400D01*
X143987766Y-100137636D01*
X143954675Y-100115525D01*
X143932564Y-100082434D01*
X143924800Y-100043400D01*
X143924800Y-99143400D01*
X143932564Y-99104366D01*
X143954675Y-99071275D01*
X143987766Y-99049164D01*
X144026800Y-99041400D01*
X145526800Y-99041400D01*
X145565834Y-99049164D01*
G37*
G36*
X153905834Y-98514164D02*
G01*
X153938925Y-98536275D01*
X153961036Y-98569366D01*
X153968800Y-98608400D01*
X153968800Y-99508400D01*
X153961036Y-99547434D01*
X153938925Y-99580525D01*
X153905834Y-99602636D01*
X153866800Y-99610400D01*
X152966800Y-99610400D01*
X152927766Y-99602636D01*
X152894675Y-99580525D01*
X152872564Y-99547434D01*
X152864800Y-99508400D01*
X152864800Y-98608400D01*
X152872564Y-98569366D01*
X152894675Y-98536275D01*
X152927766Y-98514164D01*
X152966800Y-98506400D01*
X153866800Y-98506400D01*
X153905834Y-98514164D01*
G37*
G36*
X155305834Y-98514164D02*
G01*
X155338925Y-98536275D01*
X155361036Y-98569366D01*
X155368800Y-98608400D01*
X155368800Y-99508400D01*
X155361036Y-99547434D01*
X155338925Y-99580525D01*
X155305834Y-99602636D01*
X155266800Y-99610400D01*
X154366800Y-99610400D01*
X154327766Y-99602636D01*
X154294675Y-99580525D01*
X154272564Y-99547434D01*
X154264800Y-99508400D01*
X154264800Y-98608400D01*
X154272564Y-98569366D01*
X154294675Y-98536275D01*
X154327766Y-98514164D01*
X154366800Y-98506400D01*
X155266800Y-98506400D01*
X155305834Y-98514164D01*
G37*
G36*
X156705834Y-98514164D02*
G01*
X156738925Y-98536275D01*
X156761036Y-98569366D01*
X156768800Y-98608400D01*
X156768800Y-99508400D01*
X156761036Y-99547434D01*
X156738925Y-99580525D01*
X156705834Y-99602636D01*
X156666800Y-99610400D01*
X155766800Y-99610400D01*
X155727766Y-99602636D01*
X155694675Y-99580525D01*
X155672564Y-99547434D01*
X155664800Y-99508400D01*
X155664800Y-98608400D01*
X155672564Y-98569366D01*
X155694675Y-98536275D01*
X155727766Y-98514164D01*
X155766800Y-98506400D01*
X156666800Y-98506400D01*
X156705834Y-98514164D01*
G37*
G36*
X128521204Y-98919569D02*
G01*
X128577329Y-98957071D01*
X128614831Y-99013196D01*
X128628000Y-99079400D01*
X128628000Y-99349400D01*
X128614831Y-99415604D01*
X128577329Y-99471729D01*
X128521204Y-99509231D01*
X128455000Y-99522400D01*
X128085000Y-99522400D01*
X128018796Y-99509231D01*
X127962671Y-99471729D01*
X127925169Y-99415604D01*
X127912000Y-99349400D01*
X127912000Y-99079400D01*
X127925169Y-99013196D01*
X127962671Y-98957071D01*
X128018796Y-98919569D01*
X128085000Y-98906400D01*
X128455000Y-98906400D01*
X128521204Y-98919569D01*
G37*
G36*
X140433542Y-98507757D02*
G01*
X140491289Y-98546343D01*
X140545343Y-98600397D01*
X140685795Y-98740848D01*
X140685797Y-98740851D01*
X140689279Y-98744333D01*
X140727865Y-98802080D01*
X140741414Y-98870198D01*
X140727865Y-98938316D01*
X140689279Y-98996063D01*
X140448863Y-99236479D01*
X140391116Y-99275065D01*
X140322998Y-99288614D01*
X140254880Y-99275065D01*
X140197133Y-99236479D01*
X140065020Y-99104366D01*
X140002626Y-99041973D01*
X140002623Y-99041969D01*
X139999143Y-99038489D01*
X139960557Y-98980742D01*
X139947008Y-98912624D01*
X139960557Y-98844506D01*
X139999143Y-98786759D01*
X140177502Y-98608400D01*
X140236078Y-98549823D01*
X140236081Y-98549820D01*
X140239559Y-98546343D01*
X140297306Y-98507757D01*
X140365424Y-98494208D01*
X140433542Y-98507757D01*
G37*
G36*
X145565834Y-97779164D02*
G01*
X145598925Y-97801275D01*
X145621036Y-97834366D01*
X145628800Y-97873400D01*
X145628800Y-98773400D01*
X145621036Y-98812434D01*
X145598925Y-98845525D01*
X145565834Y-98867636D01*
X145526800Y-98875400D01*
X144026800Y-98875400D01*
X143987766Y-98867636D01*
X143954675Y-98845525D01*
X143932564Y-98812434D01*
X143924800Y-98773400D01*
X143924800Y-97873400D01*
X143932564Y-97834366D01*
X143954675Y-97801275D01*
X143987766Y-97779164D01*
X144026800Y-97771400D01*
X145526800Y-97771400D01*
X145565834Y-97779164D01*
G37*
G36*
X135017614Y-98053130D02*
G01*
X135073739Y-98090631D01*
X135335369Y-98352261D01*
X135372870Y-98408386D01*
X135386039Y-98474590D01*
X135372870Y-98540795D01*
X135335369Y-98596920D01*
X135144450Y-98787839D01*
X135088325Y-98825340D01*
X135022120Y-98838509D01*
X134955916Y-98825340D01*
X134899791Y-98787839D01*
X134638161Y-98526209D01*
X134600660Y-98470084D01*
X134587491Y-98403880D01*
X134600660Y-98337675D01*
X134638161Y-98281550D01*
X134829080Y-98090631D01*
X134885205Y-98053130D01*
X134951410Y-98039961D01*
X135017614Y-98053130D01*
G37*
G36*
X139754720Y-97828935D02*
G01*
X139812467Y-97867521D01*
X139868075Y-97923129D01*
X140006973Y-98062026D01*
X140006975Y-98062029D01*
X140010457Y-98065511D01*
X140049043Y-98123258D01*
X140062592Y-98191376D01*
X140049043Y-98259494D01*
X140010457Y-98317241D01*
X139770041Y-98557657D01*
X139712294Y-98596243D01*
X139644176Y-98609792D01*
X139576058Y-98596243D01*
X139518311Y-98557657D01*
X139411690Y-98451036D01*
X139323804Y-98363151D01*
X139323801Y-98363147D01*
X139320321Y-98359667D01*
X139281735Y-98301920D01*
X139268186Y-98233802D01*
X139281735Y-98165684D01*
X139320321Y-98107937D01*
X139491187Y-97937071D01*
X139557256Y-97871001D01*
X139557259Y-97870998D01*
X139560737Y-97867521D01*
X139618484Y-97828935D01*
X139686602Y-97815386D01*
X139754720Y-97828935D01*
G37*
G36*
X125852118Y-97887549D02*
G01*
X125909865Y-97926135D01*
X125948451Y-97983882D01*
X125962000Y-98052000D01*
X125962000Y-98392000D01*
X125948451Y-98460118D01*
X125909865Y-98517865D01*
X125852118Y-98556451D01*
X125784000Y-98570000D01*
X125504000Y-98570000D01*
X125435882Y-98556451D01*
X125378135Y-98517865D01*
X125339549Y-98460118D01*
X125326000Y-98392000D01*
X125326000Y-98052000D01*
X125339549Y-97983882D01*
X125378135Y-97926135D01*
X125435882Y-97887549D01*
X125504000Y-97874000D01*
X125784000Y-97874000D01*
X125852118Y-97887549D01*
G37*
G36*
X126812118Y-97887549D02*
G01*
X126869865Y-97926135D01*
X126908451Y-97983882D01*
X126922000Y-98052000D01*
X126922000Y-98392000D01*
X126908451Y-98460118D01*
X126869865Y-98517865D01*
X126812118Y-98556451D01*
X126744000Y-98570000D01*
X126464000Y-98570000D01*
X126395882Y-98556451D01*
X126338135Y-98517865D01*
X126299549Y-98460118D01*
X126286000Y-98392000D01*
X126286000Y-98052000D01*
X126299549Y-97983882D01*
X126338135Y-97926135D01*
X126395882Y-97887549D01*
X126464000Y-97874000D01*
X126744000Y-97874000D01*
X126812118Y-97887549D01*
G37*
G36*
X128521204Y-97899569D02*
G01*
X128577329Y-97937071D01*
X128614831Y-97993196D01*
X128628000Y-98059400D01*
X128628000Y-98329400D01*
X128614831Y-98395604D01*
X128577329Y-98451729D01*
X128521204Y-98489231D01*
X128455000Y-98502400D01*
X128085000Y-98502400D01*
X128018796Y-98489231D01*
X127962671Y-98451729D01*
X127925169Y-98395604D01*
X127912000Y-98329400D01*
X127912000Y-98059400D01*
X127925169Y-97993196D01*
X127962671Y-97937071D01*
X128018796Y-97899569D01*
X128085000Y-97886400D01*
X128455000Y-97886400D01*
X128521204Y-97899569D01*
G37*
G36*
X135738862Y-97331882D02*
G01*
X135794987Y-97369383D01*
X136056617Y-97631013D01*
X136094118Y-97687138D01*
X136107287Y-97753342D01*
X136094118Y-97819547D01*
X136056617Y-97875672D01*
X135865698Y-98066591D01*
X135809573Y-98104092D01*
X135743368Y-98117261D01*
X135677164Y-98104092D01*
X135621039Y-98066591D01*
X135359409Y-97804961D01*
X135321908Y-97748836D01*
X135308739Y-97682632D01*
X135321908Y-97616427D01*
X135359409Y-97560302D01*
X135550328Y-97369383D01*
X135606453Y-97331882D01*
X135672658Y-97318713D01*
X135738862Y-97331882D01*
G37*
G36*
X134103214Y-97138730D02*
G01*
X134159339Y-97176231D01*
X134420969Y-97437861D01*
X134458470Y-97493986D01*
X134471639Y-97560190D01*
X134458470Y-97626395D01*
X134420969Y-97682520D01*
X134230050Y-97873439D01*
X134173925Y-97910940D01*
X134107720Y-97924109D01*
X134041516Y-97910940D01*
X133985391Y-97873439D01*
X133723761Y-97611809D01*
X133686260Y-97555684D01*
X133673091Y-97489480D01*
X133686260Y-97423275D01*
X133723761Y-97367150D01*
X133914680Y-97176231D01*
X133970805Y-97138730D01*
X134037010Y-97125561D01*
X134103214Y-97138730D01*
G37*
G36*
X145565834Y-96509164D02*
G01*
X145598925Y-96531275D01*
X145621036Y-96564366D01*
X145628800Y-96603400D01*
X145628800Y-97503400D01*
X145621036Y-97542434D01*
X145598925Y-97575525D01*
X145565834Y-97597636D01*
X145526800Y-97605400D01*
X144026800Y-97605400D01*
X143987766Y-97597636D01*
X143954675Y-97575525D01*
X143932564Y-97542434D01*
X143924800Y-97503400D01*
X143924800Y-96603400D01*
X143932564Y-96564366D01*
X143954675Y-96531275D01*
X143987766Y-96509164D01*
X144026800Y-96501400D01*
X145526800Y-96501400D01*
X145565834Y-96509164D01*
G37*
G36*
X136375683Y-96713568D02*
G01*
X136433430Y-96752154D01*
X136673846Y-96992570D01*
X136712432Y-97050317D01*
X136725981Y-97118435D01*
X136712432Y-97186553D01*
X136673846Y-97244300D01*
X136475856Y-97442290D01*
X136418109Y-97480876D01*
X136349991Y-97494425D01*
X136281873Y-97480876D01*
X136224126Y-97442290D01*
X135983710Y-97201874D01*
X135945124Y-97144127D01*
X135931575Y-97076009D01*
X135945124Y-97007891D01*
X135983710Y-96950144D01*
X136029083Y-96904771D01*
X136178215Y-96755637D01*
X136178221Y-96755632D01*
X136181700Y-96752154D01*
X136239447Y-96713568D01*
X136307565Y-96700019D01*
X136375683Y-96713568D01*
G37*
G36*
X134824462Y-96417482D02*
G01*
X134880587Y-96454983D01*
X135142217Y-96716613D01*
X135179718Y-96772738D01*
X135192887Y-96838942D01*
X135179718Y-96905147D01*
X135142217Y-96961272D01*
X134951298Y-97152191D01*
X134895173Y-97189692D01*
X134828968Y-97202861D01*
X134762764Y-97189692D01*
X134706639Y-97152191D01*
X134445009Y-96890561D01*
X134407508Y-96834436D01*
X134394339Y-96768232D01*
X134407508Y-96702027D01*
X134445009Y-96645902D01*
X134635928Y-96454983D01*
X134692053Y-96417482D01*
X134758258Y-96404313D01*
X134824462Y-96417482D01*
G37*
G36*
X133290414Y-96224330D02*
G01*
X133346539Y-96261831D01*
X133608169Y-96523461D01*
X133645670Y-96579586D01*
X133658839Y-96645790D01*
X133645670Y-96711995D01*
X133608169Y-96768120D01*
X133417250Y-96959039D01*
X133361125Y-96996540D01*
X133294920Y-97009709D01*
X133228716Y-96996540D01*
X133172591Y-96959039D01*
X132910961Y-96697409D01*
X132873460Y-96641284D01*
X132860291Y-96575080D01*
X132873460Y-96508875D01*
X132910961Y-96452750D01*
X133101880Y-96261831D01*
X133158005Y-96224330D01*
X133224210Y-96211161D01*
X133290414Y-96224330D01*
G37*
G36*
X126689718Y-96261949D02*
G01*
X126747465Y-96300535D01*
X126786051Y-96358282D01*
X126799600Y-96426400D01*
X126799600Y-96766400D01*
X126786051Y-96834518D01*
X126747465Y-96892265D01*
X126689718Y-96930851D01*
X126621600Y-96944400D01*
X126341600Y-96944400D01*
X126273482Y-96930851D01*
X126215735Y-96892265D01*
X126177149Y-96834518D01*
X126163600Y-96766400D01*
X126163600Y-96426400D01*
X126177149Y-96358282D01*
X126215735Y-96300535D01*
X126273482Y-96261949D01*
X126341600Y-96248400D01*
X126621600Y-96248400D01*
X126689718Y-96261949D01*
G37*
G36*
X127649718Y-96261949D02*
G01*
X127707465Y-96300535D01*
X127746051Y-96358282D01*
X127759600Y-96426400D01*
X127759600Y-96766400D01*
X127746051Y-96834518D01*
X127707465Y-96892265D01*
X127649718Y-96930851D01*
X127581600Y-96944400D01*
X127301600Y-96944400D01*
X127233482Y-96930851D01*
X127175735Y-96892265D01*
X127137149Y-96834518D01*
X127123600Y-96766400D01*
X127123600Y-96426400D01*
X127137149Y-96358282D01*
X127175735Y-96300535D01*
X127233482Y-96261949D01*
X127301600Y-96248400D01*
X127581600Y-96248400D01*
X127649718Y-96261949D01*
G37*
G36*
X129841318Y-96199949D02*
G01*
X129899065Y-96238535D01*
X129937651Y-96296282D01*
X129951200Y-96364400D01*
X129951200Y-96644400D01*
X129937651Y-96712518D01*
X129899065Y-96770265D01*
X129841318Y-96808851D01*
X129773200Y-96822400D01*
X129433200Y-96822400D01*
X129365082Y-96808851D01*
X129307335Y-96770265D01*
X129268749Y-96712518D01*
X129255200Y-96644400D01*
X129255200Y-96364400D01*
X129268749Y-96296282D01*
X129307335Y-96238535D01*
X129365082Y-96199949D01*
X129433200Y-96186400D01*
X129773200Y-96186400D01*
X129841318Y-96199949D01*
G37*
G36*
X137054505Y-96034746D02*
G01*
X137112252Y-96073332D01*
X137352668Y-96313748D01*
X137391254Y-96371495D01*
X137404803Y-96439613D01*
X137391254Y-96507731D01*
X137352668Y-96565478D01*
X137154678Y-96763468D01*
X137096931Y-96802054D01*
X137028813Y-96815603D01*
X136960695Y-96802054D01*
X136902948Y-96763468D01*
X136662532Y-96523052D01*
X136623946Y-96465305D01*
X136610397Y-96397187D01*
X136623946Y-96329069D01*
X136662532Y-96271322D01*
X136709524Y-96224330D01*
X136857037Y-96076815D01*
X136857043Y-96076810D01*
X136860522Y-96073332D01*
X136918269Y-96034746D01*
X136986387Y-96021197D01*
X137054505Y-96034746D01*
G37*
G36*
X135461283Y-95799168D02*
G01*
X135519030Y-95837754D01*
X135759446Y-96078170D01*
X135798032Y-96135917D01*
X135811581Y-96204035D01*
X135798032Y-96272153D01*
X135759446Y-96329900D01*
X135561456Y-96527890D01*
X135503709Y-96566476D01*
X135435591Y-96580025D01*
X135367473Y-96566476D01*
X135309726Y-96527890D01*
X135069310Y-96287474D01*
X135030724Y-96229727D01*
X135017175Y-96161609D01*
X135030724Y-96093491D01*
X135069310Y-96035744D01*
X135114683Y-95990371D01*
X135263815Y-95841237D01*
X135263821Y-95841232D01*
X135267300Y-95837754D01*
X135325047Y-95799168D01*
X135393165Y-95785619D01*
X135461283Y-95799168D01*
G37*
G36*
X145565834Y-95239164D02*
G01*
X145598925Y-95261275D01*
X145621036Y-95294366D01*
X145628800Y-95333400D01*
X145628800Y-96233400D01*
X145621036Y-96272434D01*
X145598925Y-96305525D01*
X145565834Y-96327636D01*
X145526800Y-96335400D01*
X144026800Y-96335400D01*
X143987766Y-96327636D01*
X143954675Y-96305525D01*
X143932564Y-96272434D01*
X143924800Y-96233400D01*
X143924800Y-95333400D01*
X143932564Y-95294366D01*
X143954675Y-95261275D01*
X143987766Y-95239164D01*
X144026800Y-95231400D01*
X145526800Y-95231400D01*
X145565834Y-95239164D01*
G37*
G36*
X134011662Y-95503082D02*
G01*
X134067787Y-95540583D01*
X134329417Y-95802213D01*
X134366918Y-95858338D01*
X134380087Y-95924542D01*
X134366918Y-95990747D01*
X134329417Y-96046872D01*
X134138498Y-96237791D01*
X134082373Y-96275292D01*
X134016168Y-96288461D01*
X133949964Y-96275292D01*
X133893839Y-96237791D01*
X133632209Y-95976161D01*
X133594708Y-95920036D01*
X133581539Y-95853832D01*
X133594708Y-95787627D01*
X133632209Y-95731502D01*
X133823128Y-95540583D01*
X133879253Y-95503082D01*
X133945458Y-95489913D01*
X134011662Y-95503082D01*
G37*
G36*
X131594518Y-95479149D02*
G01*
X131652265Y-95517735D01*
X131690851Y-95575482D01*
X131704400Y-95643600D01*
X131704400Y-95923600D01*
X131690851Y-95991718D01*
X131652265Y-96049465D01*
X131594518Y-96088051D01*
X131526400Y-96101600D01*
X131186400Y-96101600D01*
X131118282Y-96088051D01*
X131060535Y-96049465D01*
X131021949Y-95991718D01*
X131008400Y-95923600D01*
X131008400Y-95643600D01*
X131021949Y-95575482D01*
X131060535Y-95517735D01*
X131118282Y-95479149D01*
X131186400Y-95465600D01*
X131526400Y-95465600D01*
X131594518Y-95479149D01*
G37*
G36*
X132508918Y-95479149D02*
G01*
X132566665Y-95517735D01*
X132605251Y-95575482D01*
X132618800Y-95643600D01*
X132618800Y-95923600D01*
X132605251Y-95991718D01*
X132566665Y-96049465D01*
X132508918Y-96088051D01*
X132440800Y-96101600D01*
X132100800Y-96101600D01*
X132032682Y-96088051D01*
X131974935Y-96049465D01*
X131936349Y-95991718D01*
X131922800Y-95923600D01*
X131922800Y-95643600D01*
X131936349Y-95575482D01*
X131974935Y-95517735D01*
X132032682Y-95479149D01*
X132100800Y-95465600D01*
X132440800Y-95465600D01*
X132508918Y-95479149D01*
G37*
G36*
X142973542Y-95154957D02*
G01*
X143031289Y-95193543D01*
X143084955Y-95247209D01*
X143225795Y-95388048D01*
X143225797Y-95388051D01*
X143229279Y-95391533D01*
X143267865Y-95449280D01*
X143281414Y-95517398D01*
X143267865Y-95585516D01*
X143229279Y-95643263D01*
X142988863Y-95883679D01*
X142931116Y-95922265D01*
X142862998Y-95935814D01*
X142794880Y-95922265D01*
X142737133Y-95883679D01*
X142605595Y-95752141D01*
X142542626Y-95689173D01*
X142542623Y-95689169D01*
X142539143Y-95685689D01*
X142500557Y-95627942D01*
X142487008Y-95559824D01*
X142500557Y-95491706D01*
X142539143Y-95433959D01*
X142717089Y-95256013D01*
X142776078Y-95197023D01*
X142776081Y-95197020D01*
X142779559Y-95193543D01*
X142837306Y-95154957D01*
X142905424Y-95141408D01*
X142973542Y-95154957D01*
G37*
G36*
X136140105Y-95120346D02*
G01*
X136197852Y-95158932D01*
X136438268Y-95399348D01*
X136476854Y-95457095D01*
X136490403Y-95525213D01*
X136476854Y-95593331D01*
X136438268Y-95651078D01*
X136240278Y-95849068D01*
X136182531Y-95887654D01*
X136114413Y-95901203D01*
X136046295Y-95887654D01*
X135988548Y-95849068D01*
X135748132Y-95608652D01*
X135709546Y-95550905D01*
X135695997Y-95482787D01*
X135709546Y-95414669D01*
X135748132Y-95356922D01*
X135790101Y-95314953D01*
X135942637Y-95162415D01*
X135942643Y-95162410D01*
X135946122Y-95158932D01*
X136003869Y-95120346D01*
X136071987Y-95106797D01*
X136140105Y-95120346D01*
G37*
G36*
X129841318Y-95239949D02*
G01*
X129899065Y-95278535D01*
X129937651Y-95336282D01*
X129951200Y-95404400D01*
X129951200Y-95684400D01*
X129937651Y-95752518D01*
X129899065Y-95810265D01*
X129841318Y-95848851D01*
X129773200Y-95862400D01*
X129433200Y-95862400D01*
X129365082Y-95848851D01*
X129307335Y-95810265D01*
X129268749Y-95752518D01*
X129255200Y-95684400D01*
X129255200Y-95404400D01*
X129268749Y-95336282D01*
X129307335Y-95278535D01*
X129365082Y-95239949D01*
X129433200Y-95226400D01*
X129773200Y-95226400D01*
X129841318Y-95239949D01*
G37*
G36*
X134648483Y-94884768D02*
G01*
X134706230Y-94923354D01*
X134946646Y-95163770D01*
X134985232Y-95221517D01*
X134998781Y-95289635D01*
X134985232Y-95357753D01*
X134946646Y-95415500D01*
X134748656Y-95613490D01*
X134690909Y-95652076D01*
X134622791Y-95665625D01*
X134554673Y-95652076D01*
X134496926Y-95613490D01*
X134256510Y-95373074D01*
X134217924Y-95315327D01*
X134204375Y-95247209D01*
X134217924Y-95179091D01*
X134256510Y-95121344D01*
X134289082Y-95088772D01*
X134451015Y-94926837D01*
X134451021Y-94926832D01*
X134454500Y-94923354D01*
X134512247Y-94884768D01*
X134580365Y-94871219D01*
X134648483Y-94884768D01*
G37*
G36*
X142294720Y-94476135D02*
G01*
X142352467Y-94514721D01*
X142406133Y-94568387D01*
X142546973Y-94709226D01*
X142546975Y-94709229D01*
X142550457Y-94712711D01*
X142589043Y-94770458D01*
X142602592Y-94838576D01*
X142589043Y-94906694D01*
X142550457Y-94964441D01*
X142310041Y-95204857D01*
X142252294Y-95243443D01*
X142184176Y-95256992D01*
X142116058Y-95243443D01*
X142058311Y-95204857D01*
X141918853Y-95065399D01*
X141863804Y-95010351D01*
X141863801Y-95010347D01*
X141860321Y-95006867D01*
X141821735Y-94949120D01*
X141808186Y-94881002D01*
X141821735Y-94812884D01*
X141860321Y-94755137D01*
X142004645Y-94610813D01*
X142097256Y-94518201D01*
X142097259Y-94518198D01*
X142100737Y-94514721D01*
X142158484Y-94476135D01*
X142226602Y-94462586D01*
X142294720Y-94476135D01*
G37*
G36*
X131594518Y-94519149D02*
G01*
X131652265Y-94557735D01*
X131690851Y-94615482D01*
X131704400Y-94683600D01*
X131704400Y-94963600D01*
X131690851Y-95031718D01*
X131652265Y-95089465D01*
X131594518Y-95128051D01*
X131526400Y-95141600D01*
X131186400Y-95141600D01*
X131118282Y-95128051D01*
X131060535Y-95089465D01*
X131021949Y-95031718D01*
X131008400Y-94963600D01*
X131008400Y-94683600D01*
X131021949Y-94615482D01*
X131060535Y-94557735D01*
X131118282Y-94519149D01*
X131186400Y-94505600D01*
X131526400Y-94505600D01*
X131594518Y-94519149D01*
G37*
G36*
X132508918Y-94519149D02*
G01*
X132566665Y-94557735D01*
X132605251Y-94615482D01*
X132618800Y-94683600D01*
X132618800Y-94963600D01*
X132605251Y-95031718D01*
X132566665Y-95089465D01*
X132508918Y-95128051D01*
X132440800Y-95141600D01*
X132100800Y-95141600D01*
X132032682Y-95128051D01*
X131974935Y-95089465D01*
X131936349Y-95031718D01*
X131922800Y-94963600D01*
X131922800Y-94683600D01*
X131936349Y-94615482D01*
X131974935Y-94557735D01*
X132032682Y-94519149D01*
X132100800Y-94505600D01*
X132440800Y-94505600D01*
X132508918Y-94519149D01*
G37*
G36*
X145565834Y-93969164D02*
G01*
X145598925Y-93991275D01*
X145621036Y-94024366D01*
X145628800Y-94063400D01*
X145628800Y-94963400D01*
X145621036Y-95002434D01*
X145598925Y-95035525D01*
X145565834Y-95057636D01*
X145526800Y-95065400D01*
X144026800Y-95065400D01*
X143987766Y-95057636D01*
X143954675Y-95035525D01*
X143932564Y-95002434D01*
X143924800Y-94963400D01*
X143924800Y-94063400D01*
X143932564Y-94024366D01*
X143954675Y-93991275D01*
X143987766Y-93969164D01*
X144026800Y-93961400D01*
X145526800Y-93961400D01*
X145565834Y-93969164D01*
G37*
G36*
X135327305Y-94205946D02*
G01*
X135385052Y-94244532D01*
X135625468Y-94484948D01*
X135664054Y-94542695D01*
X135677603Y-94610813D01*
X135664054Y-94678931D01*
X135625468Y-94736678D01*
X135427478Y-94934668D01*
X135369731Y-94973254D01*
X135301613Y-94986803D01*
X135233495Y-94973254D01*
X135175748Y-94934668D01*
X134935332Y-94694252D01*
X134896746Y-94636505D01*
X134883197Y-94568387D01*
X134896746Y-94500269D01*
X134935332Y-94442522D01*
X134951313Y-94426541D01*
X135129837Y-94248015D01*
X135129843Y-94248010D01*
X135133322Y-94244532D01*
X135191069Y-94205946D01*
X135259187Y-94192397D01*
X135327305Y-94205946D01*
G37*
G36*
X126689718Y-93861149D02*
G01*
X126747465Y-93899735D01*
X126786051Y-93957482D01*
X126799600Y-94025600D01*
X126799600Y-94365600D01*
X126786051Y-94433718D01*
X126747465Y-94491465D01*
X126689718Y-94530051D01*
X126621600Y-94543600D01*
X126341600Y-94543600D01*
X126273482Y-94530051D01*
X126215735Y-94491465D01*
X126177149Y-94433718D01*
X126163600Y-94365600D01*
X126163600Y-94025600D01*
X126177149Y-93957482D01*
X126215735Y-93899735D01*
X126273482Y-93861149D01*
X126341600Y-93847600D01*
X126621600Y-93847600D01*
X126689718Y-93861149D01*
G37*
G36*
X127649718Y-93861149D02*
G01*
X127707465Y-93899735D01*
X127746051Y-93957482D01*
X127759600Y-94025600D01*
X127759600Y-94365600D01*
X127746051Y-94433718D01*
X127707465Y-94491465D01*
X127649718Y-94530051D01*
X127581600Y-94543600D01*
X127301600Y-94543600D01*
X127233482Y-94530051D01*
X127175735Y-94491465D01*
X127137149Y-94433718D01*
X127123600Y-94365600D01*
X127123600Y-94025600D01*
X127137149Y-93957482D01*
X127175735Y-93899735D01*
X127233482Y-93861149D01*
X127301600Y-93847600D01*
X127581600Y-93847600D01*
X127649718Y-93861149D01*
G37*
G36*
X129206918Y-93914349D02*
G01*
X129264665Y-93952935D01*
X129303251Y-94010682D01*
X129316800Y-94078800D01*
X129316800Y-94358800D01*
X129303251Y-94426918D01*
X129264665Y-94484665D01*
X129206918Y-94523251D01*
X129138800Y-94536800D01*
X128798800Y-94536800D01*
X128730682Y-94523251D01*
X128672935Y-94484665D01*
X128634349Y-94426918D01*
X128620800Y-94358800D01*
X128620800Y-94078800D01*
X128634349Y-94010682D01*
X128672935Y-93952935D01*
X128730682Y-93914349D01*
X128798800Y-93900800D01*
X129138800Y-93900800D01*
X129206918Y-93914349D01*
G37*
G36*
X132546804Y-93648769D02*
G01*
X132602929Y-93686271D01*
X132640431Y-93742396D01*
X132653600Y-93808600D01*
X132653600Y-94078600D01*
X132640431Y-94144804D01*
X132602929Y-94200929D01*
X132546804Y-94238431D01*
X132480600Y-94251600D01*
X132110600Y-94251600D01*
X132044396Y-94238431D01*
X131988271Y-94200929D01*
X131950769Y-94144804D01*
X131937600Y-94078600D01*
X131937600Y-93808600D01*
X131950769Y-93742396D01*
X131988271Y-93686271D01*
X132044396Y-93648769D01*
X132110600Y-93635600D01*
X132480600Y-93635600D01*
X132546804Y-93648769D01*
G37*
G36*
X145565834Y-92699164D02*
G01*
X145598925Y-92721275D01*
X145621036Y-92754366D01*
X145628800Y-92793400D01*
X145628800Y-93693400D01*
X145621036Y-93732434D01*
X145598925Y-93765525D01*
X145565834Y-93787636D01*
X145526800Y-93795400D01*
X144026800Y-93795400D01*
X143987766Y-93787636D01*
X143954675Y-93765525D01*
X143932564Y-93732434D01*
X143924800Y-93693400D01*
X143924800Y-92793400D01*
X143932564Y-92754366D01*
X143954675Y-92721275D01*
X143987766Y-92699164D01*
X144026800Y-92691400D01*
X145526800Y-92691400D01*
X145565834Y-92699164D01*
G37*
G36*
X129206918Y-92954349D02*
G01*
X129264665Y-92992935D01*
X129303251Y-93050682D01*
X129316800Y-93118800D01*
X129316800Y-93398800D01*
X129303251Y-93466918D01*
X129264665Y-93524665D01*
X129206918Y-93563251D01*
X129138800Y-93576800D01*
X128798800Y-93576800D01*
X128730682Y-93563251D01*
X128672935Y-93524665D01*
X128634349Y-93466918D01*
X128620800Y-93398800D01*
X128620800Y-93118800D01*
X128634349Y-93050682D01*
X128672935Y-92992935D01*
X128730682Y-92954349D01*
X128798800Y-92940800D01*
X129138800Y-92940800D01*
X129206918Y-92954349D01*
G37*
G36*
X132546804Y-92628769D02*
G01*
X132602929Y-92666271D01*
X132640431Y-92722396D01*
X132653600Y-92788600D01*
X132653600Y-93058600D01*
X132640431Y-93124804D01*
X132602929Y-93180929D01*
X132546804Y-93218431D01*
X132480600Y-93231600D01*
X132110600Y-93231600D01*
X132044396Y-93218431D01*
X131988271Y-93180929D01*
X131950769Y-93124804D01*
X131937600Y-93058600D01*
X131937600Y-92788600D01*
X131950769Y-92722396D01*
X131988271Y-92666271D01*
X132044396Y-92628769D01*
X132110600Y-92615600D01*
X132480600Y-92615600D01*
X132546804Y-92628769D01*
G37*
G36*
X145565834Y-91429164D02*
G01*
X145598925Y-91451275D01*
X145621036Y-91484366D01*
X145628800Y-91523400D01*
X145628800Y-92423400D01*
X145621036Y-92462434D01*
X145598925Y-92495525D01*
X145565834Y-92517636D01*
X145526800Y-92525400D01*
X144026800Y-92525400D01*
X143987766Y-92517636D01*
X143954675Y-92495525D01*
X143932564Y-92462434D01*
X143924800Y-92423400D01*
X143924800Y-91523400D01*
X143932564Y-91484366D01*
X143954675Y-91451275D01*
X143987766Y-91429164D01*
X144026800Y-91421400D01*
X145526800Y-91421400D01*
X145565834Y-91429164D01*
G37*
G36*
X146515834Y-89364164D02*
G01*
X146548925Y-89386275D01*
X146571036Y-89419366D01*
X146578800Y-89458400D01*
X146578800Y-90958400D01*
X146571036Y-90997434D01*
X146548925Y-91030525D01*
X146515834Y-91052636D01*
X146476800Y-91060400D01*
X145576800Y-91060400D01*
X145537766Y-91052636D01*
X145504675Y-91030525D01*
X145482564Y-90997434D01*
X145474800Y-90958400D01*
X145474800Y-89458400D01*
X145482564Y-89419366D01*
X145504675Y-89386275D01*
X145537766Y-89364164D01*
X145576800Y-89356400D01*
X146476800Y-89356400D01*
X146515834Y-89364164D01*
G37*
G36*
X147785834Y-89364164D02*
G01*
X147818925Y-89386275D01*
X147841036Y-89419366D01*
X147848800Y-89458400D01*
X147848800Y-90958400D01*
X147841036Y-90997434D01*
X147818925Y-91030525D01*
X147785834Y-91052636D01*
X147746800Y-91060400D01*
X146846800Y-91060400D01*
X146807766Y-91052636D01*
X146774675Y-91030525D01*
X146752564Y-90997434D01*
X146744800Y-90958400D01*
X146744800Y-89458400D01*
X146752564Y-89419366D01*
X146774675Y-89386275D01*
X146807766Y-89364164D01*
X146846800Y-89356400D01*
X147746800Y-89356400D01*
X147785834Y-89364164D01*
G37*
G36*
X149055834Y-89364164D02*
G01*
X149088925Y-89386275D01*
X149111036Y-89419366D01*
X149118800Y-89458400D01*
X149118800Y-90958400D01*
X149111036Y-90997434D01*
X149088925Y-91030525D01*
X149055834Y-91052636D01*
X149016800Y-91060400D01*
X148116800Y-91060400D01*
X148077766Y-91052636D01*
X148044675Y-91030525D01*
X148022564Y-90997434D01*
X148014800Y-90958400D01*
X148014800Y-89458400D01*
X148022564Y-89419366D01*
X148044675Y-89386275D01*
X148077766Y-89364164D01*
X148116800Y-89356400D01*
X149016800Y-89356400D01*
X149055834Y-89364164D01*
G37*
G36*
X150325834Y-89364164D02*
G01*
X150358925Y-89386275D01*
X150381036Y-89419366D01*
X150388800Y-89458400D01*
X150388800Y-90958400D01*
X150381036Y-90997434D01*
X150358925Y-91030525D01*
X150325834Y-91052636D01*
X150286800Y-91060400D01*
X149386800Y-91060400D01*
X149347766Y-91052636D01*
X149314675Y-91030525D01*
X149292564Y-90997434D01*
X149284800Y-90958400D01*
X149284800Y-89458400D01*
X149292564Y-89419366D01*
X149314675Y-89386275D01*
X149347766Y-89364164D01*
X149386800Y-89356400D01*
X150286800Y-89356400D01*
X150325834Y-89364164D01*
G37*
G36*
X151595834Y-89364164D02*
G01*
X151628925Y-89386275D01*
X151651036Y-89419366D01*
X151658800Y-89458400D01*
X151658800Y-90958400D01*
X151651036Y-90997434D01*
X151628925Y-91030525D01*
X151595834Y-91052636D01*
X151556800Y-91060400D01*
X150656800Y-91060400D01*
X150617766Y-91052636D01*
X150584675Y-91030525D01*
X150562564Y-90997434D01*
X150554800Y-90958400D01*
X150554800Y-89458400D01*
X150562564Y-89419366D01*
X150584675Y-89386275D01*
X150617766Y-89364164D01*
X150656800Y-89356400D01*
X151556800Y-89356400D01*
X151595834Y-89364164D01*
G37*
G36*
X152865834Y-89364164D02*
G01*
X152898925Y-89386275D01*
X152921036Y-89419366D01*
X152928800Y-89458400D01*
X152928800Y-90958400D01*
X152921036Y-90997434D01*
X152898925Y-91030525D01*
X152865834Y-91052636D01*
X152826800Y-91060400D01*
X151926800Y-91060400D01*
X151887766Y-91052636D01*
X151854675Y-91030525D01*
X151832564Y-90997434D01*
X151824800Y-90958400D01*
X151824800Y-89458400D01*
X151832564Y-89419366D01*
X151854675Y-89386275D01*
X151887766Y-89364164D01*
X151926800Y-89356400D01*
X152826800Y-89356400D01*
X152865834Y-89364164D01*
G37*
G36*
X154135834Y-89364164D02*
G01*
X154168925Y-89386275D01*
X154191036Y-89419366D01*
X154198800Y-89458400D01*
X154198800Y-90958400D01*
X154191036Y-90997434D01*
X154168925Y-91030525D01*
X154135834Y-91052636D01*
X154096800Y-91060400D01*
X153196800Y-91060400D01*
X153157766Y-91052636D01*
X153124675Y-91030525D01*
X153102564Y-90997434D01*
X153094800Y-90958400D01*
X153094800Y-89458400D01*
X153102564Y-89419366D01*
X153124675Y-89386275D01*
X153157766Y-89364164D01*
X153196800Y-89356400D01*
X154096800Y-89356400D01*
X154135834Y-89364164D01*
G37*
G36*
X155405834Y-89364164D02*
G01*
X155438925Y-89386275D01*
X155461036Y-89419366D01*
X155468800Y-89458400D01*
X155468800Y-90958400D01*
X155461036Y-90997434D01*
X155438925Y-91030525D01*
X155405834Y-91052636D01*
X155366800Y-91060400D01*
X154466800Y-91060400D01*
X154427766Y-91052636D01*
X154394675Y-91030525D01*
X154372564Y-90997434D01*
X154364800Y-90958400D01*
X154364800Y-89458400D01*
X154372564Y-89419366D01*
X154394675Y-89386275D01*
X154427766Y-89364164D01*
X154466800Y-89356400D01*
X155366800Y-89356400D01*
X155405834Y-89364164D01*
G37*
G36*
X156675834Y-89364164D02*
G01*
X156708925Y-89386275D01*
X156731036Y-89419366D01*
X156738800Y-89458400D01*
X156738800Y-90958400D01*
X156731036Y-90997434D01*
X156708925Y-91030525D01*
X156675834Y-91052636D01*
X156636800Y-91060400D01*
X155736800Y-91060400D01*
X155697766Y-91052636D01*
X155664675Y-91030525D01*
X155642564Y-90997434D01*
X155634800Y-90958400D01*
X155634800Y-89458400D01*
X155642564Y-89419366D01*
X155664675Y-89386275D01*
X155697766Y-89364164D01*
X155736800Y-89356400D01*
X156636800Y-89356400D01*
X156675834Y-89364164D01*
G37*
G36*
X157945834Y-89364164D02*
G01*
X157978925Y-89386275D01*
X158001036Y-89419366D01*
X158008800Y-89458400D01*
X158008800Y-90958400D01*
X158001036Y-90997434D01*
X157978925Y-91030525D01*
X157945834Y-91052636D01*
X157906800Y-91060400D01*
X157006800Y-91060400D01*
X156967766Y-91052636D01*
X156934675Y-91030525D01*
X156912564Y-90997434D01*
X156904800Y-90958400D01*
X156904800Y-89458400D01*
X156912564Y-89419366D01*
X156934675Y-89386275D01*
X156967766Y-89364164D01*
X157006800Y-89356400D01*
X157906800Y-89356400D01*
X157945834Y-89364164D01*
G37*
G36*
X159215834Y-89364164D02*
G01*
X159248925Y-89386275D01*
X159271036Y-89419366D01*
X159278800Y-89458400D01*
X159278800Y-90958400D01*
X159271036Y-90997434D01*
X159248925Y-91030525D01*
X159215834Y-91052636D01*
X159176800Y-91060400D01*
X158276800Y-91060400D01*
X158237766Y-91052636D01*
X158204675Y-91030525D01*
X158182564Y-90997434D01*
X158174800Y-90958400D01*
X158174800Y-89458400D01*
X158182564Y-89419366D01*
X158204675Y-89386275D01*
X158237766Y-89364164D01*
X158276800Y-89356400D01*
X159176800Y-89356400D01*
X159215834Y-89364164D01*
G37*
G36*
X160485834Y-89364164D02*
G01*
X160518925Y-89386275D01*
X160541036Y-89419366D01*
X160548800Y-89458400D01*
X160548800Y-90958400D01*
X160541036Y-90997434D01*
X160518925Y-91030525D01*
X160485834Y-91052636D01*
X160446800Y-91060400D01*
X159546800Y-91060400D01*
X159507766Y-91052636D01*
X159474675Y-91030525D01*
X159452564Y-90997434D01*
X159444800Y-90958400D01*
X159444800Y-89458400D01*
X159452564Y-89419366D01*
X159474675Y-89386275D01*
X159507766Y-89364164D01*
X159546800Y-89356400D01*
X160446800Y-89356400D01*
X160485834Y-89364164D01*
G37*
G36*
X161755834Y-89364164D02*
G01*
X161788925Y-89386275D01*
X161811036Y-89419366D01*
X161818800Y-89458400D01*
X161818800Y-90958400D01*
X161811036Y-90997434D01*
X161788925Y-91030525D01*
X161755834Y-91052636D01*
X161716800Y-91060400D01*
X160816800Y-91060400D01*
X160777766Y-91052636D01*
X160744675Y-91030525D01*
X160722564Y-90997434D01*
X160714800Y-90958400D01*
X160714800Y-89458400D01*
X160722564Y-89419366D01*
X160744675Y-89386275D01*
X160777766Y-89364164D01*
X160816800Y-89356400D01*
X161716800Y-89356400D01*
X161755834Y-89364164D01*
G37*
G36*
X163025834Y-89364164D02*
G01*
X163058925Y-89386275D01*
X163081036Y-89419366D01*
X163088800Y-89458400D01*
X163088800Y-90958400D01*
X163081036Y-90997434D01*
X163058925Y-91030525D01*
X163025834Y-91052636D01*
X162986800Y-91060400D01*
X162086800Y-91060400D01*
X162047766Y-91052636D01*
X162014675Y-91030525D01*
X161992564Y-90997434D01*
X161984800Y-90958400D01*
X161984800Y-89458400D01*
X161992564Y-89419366D01*
X162014675Y-89386275D01*
X162047766Y-89364164D01*
X162086800Y-89356400D01*
X162986800Y-89356400D01*
X163025834Y-89364164D01*
G37*
G36*
X156487773Y-86690237D02*
G01*
X156648600Y-86756854D01*
X156793341Y-86853567D01*
X156916433Y-86976659D01*
X157013146Y-87121400D01*
X157079763Y-87282227D01*
X157113724Y-87452961D01*
X157113724Y-87627039D01*
X157079763Y-87797773D01*
X157013146Y-87958600D01*
X156916433Y-88103341D01*
X156793341Y-88226433D01*
X156648600Y-88323146D01*
X156487773Y-88389763D01*
X156317039Y-88423724D01*
X156142961Y-88423724D01*
X155972227Y-88389763D01*
X155811400Y-88323146D01*
X155666659Y-88226433D01*
X155543567Y-88103341D01*
X155446854Y-87958600D01*
X155380237Y-87797773D01*
X155346276Y-87627039D01*
X155346276Y-87452961D01*
X155380237Y-87282227D01*
X155446854Y-87121400D01*
X155543567Y-86976659D01*
X155666659Y-86853567D01*
X155811400Y-86756854D01*
X155972227Y-86690237D01*
X156142961Y-86656276D01*
X156317039Y-86656276D01*
X156487773Y-86690237D01*
G37*
G36*
X159027773Y-86690237D02*
G01*
X159188600Y-86756854D01*
X159333341Y-86853567D01*
X159456433Y-86976659D01*
X159553146Y-87121400D01*
X159619763Y-87282227D01*
X159653724Y-87452961D01*
X159653724Y-87627039D01*
X159619763Y-87797773D01*
X159553146Y-87958600D01*
X159456433Y-88103341D01*
X159333341Y-88226433D01*
X159188600Y-88323146D01*
X159027773Y-88389763D01*
X158857039Y-88423724D01*
X158682961Y-88423724D01*
X158512227Y-88389763D01*
X158351400Y-88323146D01*
X158206659Y-88226433D01*
X158083567Y-88103341D01*
X157986854Y-87958600D01*
X157920237Y-87797773D01*
X157886276Y-87627039D01*
X157886276Y-87452961D01*
X157920237Y-87282227D01*
X157986854Y-87121400D01*
X158083567Y-86976659D01*
X158206659Y-86853567D01*
X158351400Y-86756854D01*
X158512227Y-86690237D01*
X158682961Y-86656276D01*
X158857039Y-86656276D01*
X159027773Y-86690237D01*
G37*
G36*
X156487773Y-81610237D02*
G01*
X156648600Y-81676854D01*
X156793341Y-81773567D01*
X156916433Y-81896659D01*
X157013146Y-82041400D01*
X157079763Y-82202227D01*
X157113724Y-82372961D01*
X157113724Y-82547039D01*
X157079763Y-82717773D01*
X157013146Y-82878600D01*
X156916433Y-83023341D01*
X156793341Y-83146433D01*
X156648600Y-83243146D01*
X156487773Y-83309763D01*
X156317039Y-83343724D01*
X156142961Y-83343724D01*
X155972227Y-83309763D01*
X155811400Y-83243146D01*
X155666659Y-83146433D01*
X155543567Y-83023341D01*
X155446854Y-82878600D01*
X155380237Y-82717773D01*
X155346276Y-82547039D01*
X155346276Y-82372961D01*
X155380237Y-82202227D01*
X155446854Y-82041400D01*
X155543567Y-81896659D01*
X155666659Y-81773567D01*
X155811400Y-81676854D01*
X155972227Y-81610237D01*
X156142961Y-81576276D01*
X156317039Y-81576276D01*
X156487773Y-81610237D01*
G37*
G36*
X159027773Y-81610237D02*
G01*
X159188600Y-81676854D01*
X159333341Y-81773567D01*
X159456433Y-81896659D01*
X159553146Y-82041400D01*
X159619763Y-82202227D01*
X159653724Y-82372961D01*
X159653724Y-82547039D01*
X159619763Y-82717773D01*
X159553146Y-82878600D01*
X159456433Y-83023341D01*
X159333341Y-83146433D01*
X159188600Y-83243146D01*
X159027773Y-83309763D01*
X158857039Y-83343724D01*
X158682961Y-83343724D01*
X158512227Y-83309763D01*
X158351400Y-83243146D01*
X158206659Y-83146433D01*
X158083567Y-83023341D01*
X157986854Y-82878600D01*
X157920237Y-82717773D01*
X157886276Y-82547039D01*
X157886276Y-82372961D01*
X157920237Y-82202227D01*
X157986854Y-82041400D01*
X158083567Y-81896659D01*
X158206659Y-81773567D01*
X158351400Y-81676854D01*
X158512227Y-81610237D01*
X158682961Y-81576276D01*
X158857039Y-81576276D01*
X159027773Y-81610237D01*
G37*
G36*
X117378085Y-79099238D02*
G01*
X117622950Y-79164849D01*
X117857155Y-79261861D01*
X118076695Y-79388612D01*
X118277812Y-79542934D01*
X118457066Y-79722188D01*
X118611388Y-79923305D01*
X118738139Y-80142845D01*
X118835151Y-80377050D01*
X118900762Y-80621915D01*
X118933851Y-80873249D01*
X118933851Y-81126751D01*
X118900762Y-81378085D01*
X118835151Y-81622950D01*
X118738139Y-81857155D01*
X118611388Y-82076695D01*
X118457066Y-82277812D01*
X118277812Y-82457066D01*
X118076695Y-82611388D01*
X117857155Y-82738139D01*
X117622950Y-82835151D01*
X117378085Y-82900762D01*
X117126751Y-82933851D01*
X116873249Y-82933851D01*
X116621915Y-82900762D01*
X116377050Y-82835151D01*
X116142845Y-82738139D01*
X115923305Y-82611388D01*
X115722188Y-82457066D01*
X115542934Y-82277812D01*
X115388612Y-82076695D01*
X115261861Y-81857155D01*
X115164849Y-81622950D01*
X115099238Y-81378085D01*
X115066149Y-81126751D01*
X115066149Y-80873249D01*
X115099238Y-80621915D01*
X115164849Y-80377050D01*
X115261861Y-80142845D01*
X115388612Y-79923305D01*
X115542934Y-79722188D01*
X115722188Y-79542934D01*
X115923305Y-79388612D01*
X116142845Y-79261861D01*
X116377050Y-79164849D01*
X116621915Y-79099238D01*
X116873249Y-79066149D01*
X117126751Y-79066149D01*
X117378085Y-79099238D01*
G37*
G36*
X141347333Y-75919225D02*
G01*
X141524628Y-75976831D01*
X141690728Y-76061463D01*
X141841544Y-76171038D01*
X141973362Y-76302856D01*
X142082937Y-76453672D01*
X142167569Y-76619772D01*
X142225175Y-76797067D01*
X142254338Y-76981191D01*
X142254338Y-77167609D01*
X142225175Y-77351733D01*
X142167569Y-77529028D01*
X142082937Y-77695128D01*
X141973362Y-77845944D01*
X141841544Y-77977762D01*
X141690728Y-78087337D01*
X141524628Y-78171969D01*
X141347333Y-78229575D01*
X141163209Y-78258738D01*
X140976791Y-78258738D01*
X140792667Y-78229575D01*
X140615372Y-78171969D01*
X140449272Y-78087337D01*
X140298456Y-77977762D01*
X140166638Y-77845944D01*
X140057063Y-77695128D01*
X139972431Y-77529028D01*
X139914825Y-77351733D01*
X139885662Y-77167609D01*
X139885662Y-76981191D01*
X139914825Y-76797067D01*
X139972431Y-76619772D01*
X140057063Y-76453672D01*
X140166638Y-76302856D01*
X140298456Y-76171038D01*
X140449272Y-76061463D01*
X140615372Y-75976831D01*
X140792667Y-75919225D01*
X140976791Y-75890062D01*
X141163209Y-75890062D01*
X141347333Y-75919225D01*
G37*
G36*
X146347333Y-75919225D02*
G01*
X146524628Y-75976831D01*
X146690728Y-76061463D01*
X146841544Y-76171038D01*
X146973362Y-76302856D01*
X147082937Y-76453672D01*
X147167569Y-76619772D01*
X147225175Y-76797067D01*
X147254338Y-76981191D01*
X147254338Y-77167609D01*
X147225175Y-77351733D01*
X147167569Y-77529028D01*
X147082937Y-77695128D01*
X146973362Y-77845944D01*
X146841544Y-77977762D01*
X146690728Y-78087337D01*
X146524628Y-78171969D01*
X146347333Y-78229575D01*
X146163209Y-78258738D01*
X145976791Y-78258738D01*
X145792667Y-78229575D01*
X145615372Y-78171969D01*
X145449272Y-78087337D01*
X145298456Y-77977762D01*
X145166638Y-77845944D01*
X145057063Y-77695128D01*
X144972431Y-77529028D01*
X144914825Y-77351733D01*
X144885662Y-77167609D01*
X144885662Y-76981191D01*
X144914825Y-76797067D01*
X144972431Y-76619772D01*
X145057063Y-76453672D01*
X145166638Y-76302856D01*
X145298456Y-76171038D01*
X145449272Y-76061463D01*
X145615372Y-75976831D01*
X145792667Y-75919225D01*
X145976791Y-75890062D01*
X146163209Y-75890062D01*
X146347333Y-75919225D01*
G37*
G36*
X151347333Y-75919225D02*
G01*
X151524628Y-75976831D01*
X151690728Y-76061463D01*
X151841544Y-76171038D01*
X151973362Y-76302856D01*
X152082937Y-76453672D01*
X152167569Y-76619772D01*
X152225175Y-76797067D01*
X152254338Y-76981191D01*
X152254338Y-77167609D01*
X152225175Y-77351733D01*
X152167569Y-77529028D01*
X152082937Y-77695128D01*
X151973362Y-77845944D01*
X151841544Y-77977762D01*
X151690728Y-78087337D01*
X151524628Y-78171969D01*
X151347333Y-78229575D01*
X151163209Y-78258738D01*
X150976791Y-78258738D01*
X150792667Y-78229575D01*
X150615372Y-78171969D01*
X150449272Y-78087337D01*
X150298456Y-77977762D01*
X150166638Y-77845944D01*
X150057063Y-77695128D01*
X149972431Y-77529028D01*
X149914825Y-77351733D01*
X149885662Y-77167609D01*
X149885662Y-76981191D01*
X149914825Y-76797067D01*
X149972431Y-76619772D01*
X150057063Y-76453672D01*
X150166638Y-76302856D01*
X150298456Y-76171038D01*
X150449272Y-76061463D01*
X150615372Y-75976831D01*
X150792667Y-75919225D01*
X150976791Y-75890062D01*
X151163209Y-75890062D01*
X151347333Y-75919225D01*
G37*
G36*
X161378085Y-74099238D02*
G01*
X161622950Y-74164849D01*
X161857155Y-74261861D01*
X162076695Y-74388612D01*
X162277812Y-74542934D01*
X162457066Y-74722188D01*
X162611388Y-74923305D01*
X162738139Y-75142845D01*
X162835151Y-75377050D01*
X162900762Y-75621915D01*
X162933851Y-75873249D01*
X162933851Y-76126751D01*
X162900762Y-76378085D01*
X162835151Y-76622950D01*
X162738139Y-76857155D01*
X162611388Y-77076695D01*
X162457066Y-77277812D01*
X162277812Y-77457066D01*
X162076695Y-77611388D01*
X161857155Y-77738139D01*
X161622950Y-77835151D01*
X161378085Y-77900762D01*
X161126751Y-77933851D01*
X160873249Y-77933851D01*
X160621915Y-77900762D01*
X160377050Y-77835151D01*
X160142845Y-77738139D01*
X159923305Y-77611388D01*
X159722188Y-77457066D01*
X159542934Y-77277812D01*
X159388612Y-77076695D01*
X159261861Y-76857155D01*
X159164849Y-76622950D01*
X159099238Y-76378085D01*
X159066149Y-76126751D01*
X159066149Y-75873249D01*
X159099238Y-75621915D01*
X159164849Y-75377050D01*
X159261861Y-75142845D01*
X159388612Y-74923305D01*
X159542934Y-74722188D01*
X159722188Y-74542934D01*
X159923305Y-74388612D01*
X160142845Y-74261861D01*
X160377050Y-74164849D01*
X160621915Y-74099238D01*
X160873249Y-74066149D01*
X161126751Y-74066149D01*
X161378085Y-74099238D01*
G37*
G36*
X143847333Y-70919225D02*
G01*
X144024628Y-70976831D01*
X144190728Y-71061463D01*
X144341544Y-71171038D01*
X144473362Y-71302856D01*
X144582937Y-71453672D01*
X144667569Y-71619772D01*
X144725175Y-71797067D01*
X144754338Y-71981191D01*
X144754338Y-72167609D01*
X144725175Y-72351733D01*
X144667569Y-72529028D01*
X144582937Y-72695128D01*
X144473362Y-72845944D01*
X144341544Y-72977762D01*
X144190728Y-73087337D01*
X144024628Y-73171969D01*
X143847333Y-73229575D01*
X143663209Y-73258738D01*
X143476791Y-73258738D01*
X143292667Y-73229575D01*
X143115372Y-73171969D01*
X142949272Y-73087337D01*
X142798456Y-72977762D01*
X142666638Y-72845944D01*
X142557063Y-72695128D01*
X142472431Y-72529028D01*
X142414825Y-72351733D01*
X142385662Y-72167609D01*
X142385662Y-71981191D01*
X142414825Y-71797067D01*
X142472431Y-71619772D01*
X142557063Y-71453672D01*
X142666638Y-71302856D01*
X142798456Y-71171038D01*
X142949272Y-71061463D01*
X143115372Y-70976831D01*
X143292667Y-70919225D01*
X143476791Y-70890062D01*
X143663209Y-70890062D01*
X143847333Y-70919225D01*
G37*
G36*
X148847333Y-70919225D02*
G01*
X149024628Y-70976831D01*
X149190728Y-71061463D01*
X149341544Y-71171038D01*
X149473362Y-71302856D01*
X149582937Y-71453672D01*
X149667569Y-71619772D01*
X149725175Y-71797067D01*
X149754338Y-71981191D01*
X149754338Y-72167609D01*
X149725175Y-72351733D01*
X149667569Y-72529028D01*
X149582937Y-72695128D01*
X149473362Y-72845944D01*
X149341544Y-72977762D01*
X149190728Y-73087337D01*
X149024628Y-73171969D01*
X148847333Y-73229575D01*
X148663209Y-73258738D01*
X148476791Y-73258738D01*
X148292667Y-73229575D01*
X148115372Y-73171969D01*
X147949272Y-73087337D01*
X147798456Y-72977762D01*
X147666638Y-72845944D01*
X147557063Y-72695128D01*
X147472431Y-72529028D01*
X147414825Y-72351733D01*
X147385662Y-72167609D01*
X147385662Y-71981191D01*
X147414825Y-71797067D01*
X147472431Y-71619772D01*
X147557063Y-71453672D01*
X147666638Y-71302856D01*
X147798456Y-71171038D01*
X147949272Y-71061463D01*
X148115372Y-70976831D01*
X148292667Y-70919225D01*
X148476791Y-70890062D01*
X148663209Y-70890062D01*
X148847333Y-70919225D01*
G37*
G36*
X153847333Y-70919225D02*
G01*
X154024628Y-70976831D01*
X154190728Y-71061463D01*
X154341544Y-71171038D01*
X154473362Y-71302856D01*
X154582937Y-71453672D01*
X154667569Y-71619772D01*
X154725175Y-71797067D01*
X154754338Y-71981191D01*
X154754338Y-72167609D01*
X154725175Y-72351733D01*
X154667569Y-72529028D01*
X154582937Y-72695128D01*
X154473362Y-72845944D01*
X154341544Y-72977762D01*
X154190728Y-73087337D01*
X154024628Y-73171969D01*
X153847333Y-73229575D01*
X153663209Y-73258738D01*
X153476791Y-73258738D01*
X153292667Y-73229575D01*
X153115372Y-73171969D01*
X152949272Y-73087337D01*
X152798456Y-72977762D01*
X152666638Y-72845944D01*
X152557063Y-72695128D01*
X152472431Y-72529028D01*
X152414825Y-72351733D01*
X152385662Y-72167609D01*
X152385662Y-71981191D01*
X152414825Y-71797067D01*
X152472431Y-71619772D01*
X152557063Y-71453672D01*
X152666638Y-71302856D01*
X152798456Y-71171038D01*
X152949272Y-71061463D01*
X153115372Y-70976831D01*
X153292667Y-70919225D01*
X153476791Y-70890062D01*
X153663209Y-70890062D01*
X153847333Y-70919225D01*
G37*
M02*
