%TF.GenerationSoftware,KiCad,Pcbnew,9.0.1*%
%TF.CreationDate,2025-05-01T00:05:03-04:00*%
%TF.ProjectId,main_board,6d61696e-5f62-46f6-9172-642e6b696361,rev?*%
%TF.SameCoordinates,Original*%
%TF.FileFunction,Copper,L2,Inr*%
%TF.FilePolarity,Positive*%
%FSLAX46Y46*%
G04 Gerber Fmt 4.6, Leading zero omitted, Abs format (unit mm)*
G04 Created by KiCad (PCBNEW 9.0.1) date 2025-05-01 00:05:03*
%MOMM*%
%LPD*%
G01*
G04 APERTURE LIST*
%TA.AperFunction,ComponentPad*%
%ADD10C,3.800000*%
%TD*%
%TA.AperFunction,ComponentPad*%
%ADD11C,0.600000*%
%TD*%
%TA.AperFunction,ComponentPad*%
%ADD12O,1.900000X1.000000*%
%TD*%
%TA.AperFunction,ComponentPad*%
%ADD13O,1.600000X1.000000*%
%TD*%
%TA.AperFunction,ComponentPad*%
%ADD14C,2.300000*%
%TD*%
%TA.AperFunction,ComponentPad*%
%ADD15C,1.700000*%
%TD*%
%TA.AperFunction,ViaPad*%
%ADD16C,0.400000*%
%TD*%
%TA.AperFunction,ViaPad*%
%ADD17C,1.000000*%
%TD*%
%TA.AperFunction,ViaPad*%
%ADD18C,0.500000*%
%TD*%
%TA.AperFunction,ViaPad*%
%ADD19C,0.350000*%
%TD*%
G04 APERTURE END LIST*
D10*
%TO.N,N/C*%
%TO.C,REF\u002A\u002A*%
X117000000Y-112000000D03*
%TD*%
%TO.N,N/C*%
%TO.C,REF\u002A\u002A*%
X161000000Y-76000000D03*
%TD*%
%TO.N,N/C*%
%TO.C,REF\u002A\u002A*%
X161000000Y-112000000D03*
%TD*%
%TO.N,N/C*%
%TO.C,REF\u002A\u002A*%
X117000000Y-81000000D03*
%TD*%
D11*
%TO.N,*%
%TO.C,USB1*%
X118962800Y-101554800D03*
X118962800Y-107334800D03*
D12*
%TO.N,GND*%
X119462800Y-100124800D03*
X119462800Y-108764800D03*
D13*
X115282800Y-108764800D03*
X115282800Y-100124800D03*
%TD*%
D14*
%TO.N,/Motor/Gate Driver/H_BRIDGE_SHA*%
%TO.C,CN3*%
X141070000Y-77074400D03*
X143570000Y-72074400D03*
%TO.N,/Motor/Gate Driver/H_BRIDGE_SHB*%
X146070000Y-77074400D03*
X148570000Y-72074400D03*
%TO.N,/Motor/Gate Driver/H_BRIDGE_SHC*%
X151070000Y-77074400D03*
X153570000Y-72074400D03*
%TD*%
D15*
%TO.N,GND*%
%TO.C,CN1*%
X156230000Y-82460000D03*
X156230000Y-87540000D03*
%TO.N,+12V*%
X158770000Y-82460000D03*
X158770000Y-87540000D03*
%TD*%
D16*
%TO.N,VBUS*%
X119481600Y-97953003D03*
X120091200Y-97942400D03*
X120700800Y-97942400D03*
X120080563Y-99154588D03*
X120700800Y-99161600D03*
X119481600Y-99161600D03*
X120700800Y-98552000D03*
X120091200Y-98552000D03*
X119481600Y-98552000D03*
X121310400Y-99364800D03*
X121310400Y-99974400D03*
X121310400Y-100584000D03*
X121310400Y-101193600D03*
X129438400Y-107289600D03*
X127000000Y-107289600D03*
X127000000Y-107899200D03*
X128828800Y-107899200D03*
X128219200Y-107899200D03*
X127609600Y-107899200D03*
X128828800Y-107289600D03*
X128219200Y-107289600D03*
X127609600Y-107289600D03*
X126187200Y-106070400D03*
X126796800Y-106070400D03*
X126796800Y-105460800D03*
X126187200Y-105460800D03*
X121310400Y-98145600D03*
X121920000Y-98145600D03*
X123139200Y-98145600D03*
X122529600Y-98145600D03*
X123748800Y-98145600D03*
X123139200Y-99974400D03*
X121920000Y-98755200D03*
X121310400Y-98755200D03*
X123748800Y-98755200D03*
X121920000Y-101193600D03*
X121920000Y-100584000D03*
X126187200Y-100584000D03*
X125577600Y-100584000D03*
X123139200Y-100584000D03*
X124358400Y-100584000D03*
X123139200Y-99364800D03*
X123139200Y-98755200D03*
X121920000Y-99974400D03*
X122529600Y-100584000D03*
X124968000Y-100584000D03*
X122529600Y-98755200D03*
X123748800Y-100584000D03*
X122529600Y-99974400D03*
X121920000Y-99364800D03*
X122529600Y-101193600D03*
X123748800Y-99364800D03*
X123748800Y-99974400D03*
X122529600Y-99364800D03*
X125577600Y-101193600D03*
X126796800Y-101193600D03*
X124968000Y-101193600D03*
X123139200Y-101193600D03*
X124358400Y-101193600D03*
X126187200Y-101193600D03*
X123748800Y-101193600D03*
X126796800Y-101803200D03*
X125577600Y-101803200D03*
X123139200Y-101803200D03*
X124968000Y-101803200D03*
X123748800Y-101803200D03*
X126187200Y-101803200D03*
X124358400Y-101803200D03*
X126796800Y-102412800D03*
X125577600Y-102412800D03*
X123139200Y-102412800D03*
X124968000Y-102412800D03*
X123748800Y-102412800D03*
X126187200Y-102412800D03*
X124358400Y-102412800D03*
X126796800Y-103022400D03*
X125577600Y-103022400D03*
X123139200Y-103022400D03*
X124968000Y-103022400D03*
X123748800Y-103022400D03*
X126187200Y-103022400D03*
X124358400Y-103022400D03*
X126796800Y-103632000D03*
X125577600Y-103632000D03*
X123139200Y-103632000D03*
X124968000Y-103632000D03*
X123748800Y-103632000D03*
X126187200Y-103632000D03*
X124358400Y-103632000D03*
X126796800Y-104241600D03*
X125577600Y-104241600D03*
X123139200Y-104241600D03*
X124968000Y-104241600D03*
X123748800Y-104241600D03*
X126187200Y-104241600D03*
X124358400Y-104241600D03*
X130454400Y-104851200D03*
X129844800Y-104851200D03*
X129235200Y-104851200D03*
X128625600Y-104851200D03*
X128016000Y-104851200D03*
X127406400Y-104851200D03*
X126796800Y-104851200D03*
X126187200Y-104851200D03*
X125577600Y-104851200D03*
X124968000Y-104851200D03*
X124358400Y-104851200D03*
X123748800Y-104851200D03*
X123139200Y-104851200D03*
%TO.N,*%
X135940800Y-104241600D03*
X136550400Y-104241600D03*
X137160000Y-104241600D03*
X137769600Y-104241600D03*
%TO.N,+3V3*%
X135331200Y-106680000D03*
X135940800Y-106680000D03*
X136550400Y-106680000D03*
X137160000Y-106680000D03*
X137769600Y-106680000D03*
X139598400Y-106070400D03*
X138379200Y-106680000D03*
X139598400Y-106680000D03*
X138988800Y-106070400D03*
X138988800Y-106680000D03*
X138379200Y-106070400D03*
X139598400Y-104851200D03*
X138379200Y-105460800D03*
X139598400Y-105460800D03*
X138988800Y-104851200D03*
X138988800Y-105460800D03*
X138379200Y-104851200D03*
X139598400Y-103632000D03*
X138379200Y-104241600D03*
X139598400Y-104241600D03*
X138988800Y-103632000D03*
X138988800Y-104241600D03*
X138379200Y-103632000D03*
X139598400Y-102412800D03*
X138379200Y-103022400D03*
X139598400Y-103022400D03*
X138988800Y-102412800D03*
X138988800Y-103022400D03*
X138379200Y-102412800D03*
X138379200Y-101803200D03*
X138988800Y-101803200D03*
X139598400Y-101803200D03*
X139598400Y-101193600D03*
X138988800Y-101193600D03*
X138379200Y-101193600D03*
%TO.N,GND*%
X144068800Y-111760000D03*
X145084800Y-111556800D03*
X145084800Y-110947200D03*
X142240000Y-110947200D03*
X142849600Y-110947200D03*
X142849600Y-111556800D03*
X142240000Y-111556800D03*
X141020800Y-111556800D03*
X141020800Y-110947200D03*
X140411200Y-110947200D03*
X140411200Y-111556800D03*
X144678400Y-112979200D03*
X144068800Y-112979200D03*
X143459200Y-112979200D03*
%TO.N,/MCU/PD_SDA*%
X139750800Y-109220000D03*
X139750800Y-110947200D03*
X130606800Y-110490000D03*
%TO.N,/MCU/PD_SCL*%
X129844800Y-110236000D03*
%TO.N,/MCU/USB_D+*%
X124002800Y-112166400D03*
%TO.N,/MCU/USB_D-*%
X124612400Y-113284000D03*
%TO.N,Net-(U1-CC1)*%
X125157000Y-110822832D03*
%TO.N,Net-(U1-CC2)*%
X125391400Y-111449859D03*
%TO.N,/MCU/USB_D+*%
X119008401Y-104648000D03*
%TO.N,*%
X162211200Y-103263400D03*
X127000000Y-86766400D03*
X162211200Y-103873000D03*
X162211200Y-104482600D03*
X162211200Y-101434600D03*
X162820800Y-102653800D03*
X127609600Y-83718400D03*
X162820800Y-100825000D03*
X127000000Y-83108800D03*
X162211200Y-102044200D03*
X125171200Y-83108800D03*
X162820800Y-101434600D03*
X127609600Y-83108800D03*
X123952000Y-83718400D03*
X127609600Y-84328000D03*
X162820800Y-103873000D03*
X162820800Y-102044200D03*
X125780800Y-83718400D03*
X124561600Y-83718400D03*
X127000000Y-86156800D03*
X124561600Y-83108800D03*
X127000000Y-85547200D03*
X125171200Y-83718400D03*
X162211200Y-102653800D03*
X162820800Y-103263400D03*
X127000000Y-83718400D03*
X125780800Y-83108800D03*
X127000000Y-84937600D03*
X123952000Y-83108800D03*
X127000000Y-84328000D03*
X126390400Y-83108800D03*
X127609600Y-85547200D03*
X126390400Y-83718400D03*
X162211200Y-100825000D03*
X162820800Y-104482600D03*
X127609600Y-86766400D03*
X127609600Y-84937600D03*
X127609600Y-86156800D03*
%TO.N,+3V3*%
X127343200Y-94983600D03*
X131343199Y-96583601D03*
X128943200Y-94983600D03*
X127343202Y-98183600D03*
X127343200Y-96583600D03*
X128943200Y-96583600D03*
D17*
X161266800Y-107708400D03*
D16*
%TO.N,GND*%
X116230400Y-102006400D03*
X116230400Y-106070400D03*
X148945600Y-112166400D03*
X115417600Y-103632000D03*
X134721600Y-102006400D03*
X142240000Y-113588800D03*
X148336000Y-112166400D03*
X117856000Y-108508800D03*
X132892800Y-103225600D03*
X116230400Y-101193600D03*
X128625600Y-102006400D03*
X114604800Y-103632000D03*
X115417600Y-106070400D03*
X143459200Y-113588800D03*
X134112000Y-102006400D03*
X115417600Y-102819200D03*
D17*
X153416800Y-101858400D03*
X156216800Y-99058400D03*
D16*
X117043200Y-107696000D03*
X140793600Y-85987397D03*
X117856000Y-102006400D03*
X117043200Y-101193600D03*
X137160000Y-101396800D03*
X143541600Y-85987397D03*
D17*
X162536800Y-107708400D03*
D16*
X128943200Y-95783600D03*
X121804989Y-111995011D03*
X136550400Y-103632000D03*
X159051200Y-105384600D03*
X148945600Y-111556800D03*
X131064000Y-102006400D03*
X145694400Y-111556800D03*
X155897400Y-111556800D03*
X130657600Y-113487200D03*
X144068800Y-113588800D03*
X131673600Y-102006400D03*
X115417600Y-105257600D03*
X117043200Y-105257600D03*
D18*
X135128000Y-103558400D03*
D16*
X117856000Y-103632000D03*
X127300000Y-113500000D03*
X145694400Y-110947200D03*
X127343200Y-95783600D03*
X132283200Y-102006400D03*
X132410200Y-105741978D03*
D18*
X118872000Y-98105403D03*
D16*
X114604800Y-106883200D03*
X131064000Y-103225600D03*
X133502400Y-102616000D03*
X117043200Y-108508800D03*
D17*
X154816800Y-99058400D03*
D16*
X128143200Y-96583600D03*
X117856000Y-101193600D03*
X117856000Y-100380800D03*
X115417600Y-102006400D03*
X128016000Y-101396800D03*
X141020800Y-113588800D03*
X131064000Y-101396800D03*
X117856000Y-109321600D03*
D18*
X118059201Y-98105404D03*
D16*
X142849600Y-113588800D03*
X146304000Y-110947200D03*
X134112000Y-101396800D03*
X115074000Y-85953600D03*
X114604800Y-102819200D03*
X160041200Y-104419400D03*
D17*
X154816800Y-101858400D03*
D16*
X131673600Y-103225600D03*
X116230400Y-106883200D03*
X127400000Y-111100000D03*
X134721600Y-102616000D03*
X133502400Y-103225600D03*
X116230400Y-102819200D03*
X117043200Y-109321600D03*
X132143200Y-97383600D03*
X114604800Y-102006400D03*
X117830273Y-105270493D03*
X140411200Y-113588800D03*
D18*
X160528000Y-100177600D03*
D16*
X115417600Y-106883200D03*
X133502400Y-102006400D03*
X115417600Y-104444800D03*
X146304000Y-111556800D03*
D17*
X156216800Y-101858400D03*
D16*
X137769600Y-103632000D03*
X132283200Y-102616000D03*
X117043200Y-102819200D03*
X126400000Y-110100000D03*
X117043200Y-99568000D03*
D18*
X160528000Y-99364800D03*
X119278400Y-97089403D03*
X157073600Y-98145600D03*
X158902400Y-99364800D03*
D16*
X134112000Y-102616000D03*
X114604800Y-104444800D03*
X117043200Y-104444800D03*
X116230400Y-107696000D03*
X130454400Y-102006400D03*
X139598400Y-91236800D03*
D17*
X153416800Y-99058400D03*
D16*
X144678400Y-113588800D03*
X114604800Y-101193600D03*
X117043200Y-103632000D03*
X117856000Y-99568000D03*
D18*
X120091200Y-95463803D03*
X119684800Y-96276603D03*
D16*
X132283200Y-103225600D03*
X137160000Y-103632000D03*
X152884200Y-104317800D03*
X137769600Y-101396800D03*
X117856000Y-107696000D03*
X129844800Y-101396800D03*
D18*
X123240800Y-96683003D03*
D16*
X153416000Y-110229600D03*
D18*
X158902400Y-100177600D03*
D16*
X117043200Y-100380800D03*
X141630400Y-113588800D03*
X129235200Y-101396800D03*
X115417600Y-107696000D03*
X117043200Y-102006400D03*
X114604800Y-105257600D03*
X128143200Y-95783600D03*
X131673600Y-102616000D03*
X130454400Y-101396800D03*
X133502400Y-101396800D03*
X136550400Y-101396800D03*
X131673600Y-101396800D03*
X117856000Y-106070400D03*
D18*
X119278400Y-95463803D03*
D16*
X135940800Y-103632000D03*
X117791706Y-104423267D03*
D17*
X156216800Y-100458400D03*
D16*
X117856000Y-106883200D03*
X128625600Y-101396800D03*
X129844800Y-102006400D03*
X127343200Y-98983600D03*
D17*
X154816800Y-100458400D03*
D16*
X146913600Y-110914062D03*
X114604800Y-106070400D03*
D17*
X153416800Y-100458400D03*
D16*
X132892800Y-102616000D03*
D18*
X159735401Y-99720400D03*
D16*
X135331200Y-101396800D03*
X126400000Y-111100000D03*
X132283200Y-101396800D03*
X133197600Y-93370400D03*
X117043200Y-106883200D03*
X117043200Y-106070400D03*
X149086168Y-111019137D03*
X132892800Y-101396800D03*
X116230400Y-104444800D03*
X127400000Y-110100000D03*
X129235200Y-102006400D03*
X117856000Y-102819200D03*
X115417600Y-101193600D03*
D18*
X157886400Y-98145600D03*
D16*
X126900000Y-110600000D03*
X135940800Y-101396800D03*
X116230400Y-105257600D03*
X132892800Y-102006400D03*
X128016000Y-102006400D03*
D18*
X147457201Y-109812498D03*
D16*
X134112000Y-103225600D03*
X131064000Y-102616000D03*
X128143200Y-94983600D03*
X114604800Y-107696000D03*
X116230400Y-103632000D03*
D18*
X120091200Y-97089403D03*
D16*
X138582400Y-91236800D03*
X134721600Y-101396800D03*
%TO.N,VBUS*%
X152622800Y-87409797D03*
X141839535Y-92925312D03*
D18*
%TO.N,Net-(U8-CPH)*%
X143515147Y-94856437D03*
%TO.N,Net-(U8-CPL)*%
X143459200Y-96012000D03*
%TO.N,Net-(U3-SS)*%
X135128000Y-104518400D03*
%TO.N,Net-(U8-DVDD)*%
X141630400Y-99372800D03*
D16*
%TO.N,Net-(D4-A)*%
X123342400Y-108300000D03*
%TO.N,Net-(U6-EN)*%
X159996800Y-107708400D03*
D19*
%TO.N,Net-(U3-SW)*%
X134023100Y-105741978D03*
%TO.N,Net-(U3-BST)*%
X134023100Y-105245789D03*
D16*
%TO.N,Net-(U2-SW)*%
X149758400Y-110236000D03*
%TO.N,/Motor/Gate Driver/MOTOR_C_CURRENT_SENSE*%
X134416800Y-98907600D03*
X132143200Y-98183600D03*
%TO.N,/Motor/Gate Driver/MOTOR_B_CURRENT_SENSE*%
X131343200Y-98983600D03*
%TO.N,/Motor/Gate Driver/MOTOR_A_CURRENT_SENSE*%
X130543200Y-98183600D03*
%TO.N,/MCU/USB_D-*%
X118365747Y-104608549D03*
%TO.N,Net-(U1-CC2)*%
X118567546Y-106631961D03*
%TO.N,Net-(U1-CC1)*%
X118872000Y-103225600D03*
%TO.N,Net-(U2-FB)*%
X145491200Y-113588800D03*
%TO.N,/MCU/STM32_EN*%
X128943200Y-98183600D03*
%TO.N,Net-(U3-FB)*%
X134010400Y-104241600D03*
%TO.N,/Motor/Gate Driver/GATE_DRIVER_NFAULT*%
X131343200Y-93383600D03*
%TO.N,/Motor/Gate Driver/H_BRIDGE_SPA*%
X140309600Y-91236800D03*
X145041600Y-85987397D03*
%TO.N,/Motor/Gate Driver/H_BRIDGE_SPB*%
X139293600Y-85987397D03*
X137766855Y-91568127D03*
%TO.N,Net-(U8-SOA)*%
X135636000Y-97637600D03*
%TO.N,Net-(U8-SOB)*%
X134793613Y-96803587D03*
%TO.N,Net-(U8-SOC)*%
X133980813Y-95889187D03*
%TO.N,/Power/VBUS_SWITCH_GATE*%
X126600000Y-108600000D03*
%TO.N,/MCU/EN_12V*%
X159021200Y-104419400D03*
X158726800Y-107708400D03*
%TO.N,/MCU/PD_INT_N*%
X157456800Y-107708400D03*
X129235200Y-109524800D03*
%TO.N,/MCU/PD_FAULT*%
X156186800Y-107708400D03*
X128687499Y-108915200D03*
%TO.N,/CAN Transceiver1/CAN_RX*%
X161442400Y-100787200D03*
%TO.N,/CAN Transceiver1/CAN_TX*%
X153646800Y-109467600D03*
%TO.N,/Motor/Gate Driver/H_BRIDGE_SPC*%
X116574000Y-85953600D03*
X133908800Y-93370400D03*
%TO.N,/Motor/Gate Driver/GATE_DRIVER_INHA*%
X142240000Y-98653600D03*
X129743200Y-97383600D03*
%TO.N,/Motor/Gate Driver/GATE_DRIVER_SDI*%
X127343200Y-97383600D03*
X135934113Y-99086093D03*
%TO.N,/Motor/Gate Driver/GATE_DRIVER_NSCS*%
X137668000Y-99720400D03*
X130543200Y-97383600D03*
%TO.N,/Motor/Gate Driver/GATE_DRIVER_SDO*%
X136748911Y-98573043D03*
X124943200Y-92583600D03*
%TO.N,/Motor/Gate Driver/GATE_DRIVER_INHB*%
X129743200Y-98983600D03*
X143002000Y-97993200D03*
%TO.N,/Motor/Gate Driver/GATE_DRIVER_SCLK*%
X126543200Y-94983600D03*
X136652000Y-99684763D03*
%TO.N,/Motor/Gate Driver/GATE_DRIVER_INLA*%
X143443643Y-96961867D03*
X127343200Y-99783600D03*
%TO.N,/Motor/Gate Driver/GATE_DRIVER_INHC*%
X143408400Y-97536000D03*
X130543200Y-99783600D03*
%TO.N,/Motor/Gate Driver/H_BRIDGE_GHC*%
X135636000Y-92760800D03*
X122955600Y-86840597D03*
%TO.N,/Motor/Gate Driver/H_BRIDGE_GHA*%
X141783185Y-92327961D03*
X151272800Y-86929797D03*
%TO.N,/Motor/Gate Driver/H_BRIDGE_GLC*%
X118333200Y-86840597D03*
X134924800Y-93776800D03*
%TO.N,/Motor/Gate Driver/H_BRIDGE_GLA*%
X140734739Y-91745628D03*
X146802400Y-86929797D03*
%TO.N,/Motor/Gate Driver/H_BRIDGE_GHB*%
X132931600Y-85134197D03*
X136245600Y-92557600D03*
%TO.N,/Motor/Gate Driver/H_BRIDGE_GLB*%
X137554000Y-85124597D03*
X137109200Y-91744800D03*
%TO.N,/Motor/Gate Driver/H_BRIDGE_SHC*%
X135026400Y-93167200D03*
X119683200Y-87320597D03*
%TO.N,/Motor/Gate Driver/H_BRIDGE_SHB*%
X136204000Y-87544597D03*
X137032239Y-92665756D03*
%TO.N,/Motor/Gate Driver/H_BRIDGE_SHA*%
X141268851Y-92018990D03*
X148152400Y-87409797D03*
%TO.N,/CAN_P*%
X116199800Y-91795600D03*
X115143989Y-92606505D03*
%TO.N,Net-(U1-CC2)*%
X121806325Y-111170862D03*
%TO.N,GND*%
X123317500Y-111996798D03*
X122481627Y-111991270D03*
%TD*%
%TA.AperFunction,Conductor*%
%TO.N,GND*%
G36*
X154742539Y-68220185D02*
G01*
X154788294Y-68272989D01*
X154799500Y-68324500D01*
X154799500Y-71039883D01*
X154801325Y-71044290D01*
X154830024Y-71113574D01*
X154886426Y-71169976D01*
X154960118Y-71200500D01*
X155039882Y-71200500D01*
X163675500Y-71200500D01*
X163742539Y-71220185D01*
X163788294Y-71272989D01*
X163799500Y-71324500D01*
X163799500Y-114675500D01*
X163779815Y-114742539D01*
X163727011Y-114788294D01*
X163675500Y-114799500D01*
X114324500Y-114799500D01*
X114257461Y-114779815D01*
X114211706Y-114727011D01*
X114200500Y-114675500D01*
X114200500Y-111862332D01*
X114899500Y-111862332D01*
X114899500Y-112137667D01*
X114899501Y-112137684D01*
X114935438Y-112410655D01*
X114935439Y-112410660D01*
X114935440Y-112410666D01*
X114956547Y-112489438D01*
X115006704Y-112676630D01*
X115112075Y-112931017D01*
X115112080Y-112931028D01*
X115172755Y-113036119D01*
X115249751Y-113169479D01*
X115249753Y-113169481D01*
X115249754Y-113169483D01*
X115417370Y-113387926D01*
X115417376Y-113387933D01*
X115612066Y-113582623D01*
X115612072Y-113582628D01*
X115830521Y-113750249D01*
X115983778Y-113838732D01*
X116068971Y-113887919D01*
X116068976Y-113887921D01*
X116068979Y-113887923D01*
X116323368Y-113993295D01*
X116589334Y-114064560D01*
X116862326Y-114100500D01*
X116862333Y-114100500D01*
X117137667Y-114100500D01*
X117137674Y-114100500D01*
X117410666Y-114064560D01*
X117676632Y-113993295D01*
X117931021Y-113887923D01*
X118169479Y-113750249D01*
X118387928Y-113582628D01*
X118582628Y-113387928D01*
X118703156Y-113230852D01*
X124208700Y-113230852D01*
X124208700Y-113337148D01*
X124236211Y-113439823D01*
X124289359Y-113531878D01*
X124364522Y-113607041D01*
X124456577Y-113660189D01*
X124559252Y-113687700D01*
X124559254Y-113687700D01*
X124665546Y-113687700D01*
X124665548Y-113687700D01*
X124768223Y-113660189D01*
X124860278Y-113607041D01*
X124931246Y-113536073D01*
X145090700Y-113536073D01*
X145090700Y-113641527D01*
X145117993Y-113743387D01*
X145170720Y-113834713D01*
X145245287Y-113909280D01*
X145336613Y-113962007D01*
X145438473Y-113989300D01*
X145438475Y-113989300D01*
X145543925Y-113989300D01*
X145543927Y-113989300D01*
X145645787Y-113962007D01*
X145737113Y-113909280D01*
X145811680Y-113834713D01*
X145864407Y-113743387D01*
X145891700Y-113641527D01*
X145891700Y-113536073D01*
X145864407Y-113434213D01*
X145811680Y-113342887D01*
X145737113Y-113268320D01*
X145645787Y-113215593D01*
X145543927Y-113188300D01*
X145438473Y-113188300D01*
X145336613Y-113215593D01*
X145336610Y-113215594D01*
X145245285Y-113268321D01*
X145170721Y-113342885D01*
X145117994Y-113434210D01*
X145117993Y-113434213D01*
X145090700Y-113536073D01*
X124931246Y-113536073D01*
X124935441Y-113531878D01*
X124988589Y-113439823D01*
X125016100Y-113337148D01*
X125016100Y-113230852D01*
X124988589Y-113128177D01*
X124935441Y-113036122D01*
X124860278Y-112960959D01*
X124768223Y-112907811D01*
X124665548Y-112880300D01*
X124559252Y-112880300D01*
X124456577Y-112907811D01*
X124456575Y-112907812D01*
X124456574Y-112907812D01*
X124364525Y-112960957D01*
X124364519Y-112960961D01*
X124289361Y-113036119D01*
X124289357Y-113036125D01*
X124236212Y-113128174D01*
X124236212Y-113128175D01*
X124236211Y-113128177D01*
X124208700Y-113230852D01*
X118703156Y-113230852D01*
X118750249Y-113169479D01*
X118774097Y-113128174D01*
X118887919Y-112931028D01*
X118887919Y-112931027D01*
X118887923Y-112931021D01*
X118993295Y-112676632D01*
X119064560Y-112410666D01*
X119100500Y-112137674D01*
X119100500Y-112113252D01*
X123599100Y-112113252D01*
X123599100Y-112219548D01*
X123626611Y-112322223D01*
X123679759Y-112414278D01*
X123754922Y-112489441D01*
X123846977Y-112542589D01*
X123949652Y-112570100D01*
X123949654Y-112570100D01*
X124055946Y-112570100D01*
X124055948Y-112570100D01*
X124158623Y-112542589D01*
X124250678Y-112489441D01*
X124325841Y-112414278D01*
X124378989Y-112322223D01*
X124406500Y-112219548D01*
X124406500Y-112113252D01*
X124378989Y-112010577D01*
X124325841Y-111918522D01*
X124269651Y-111862332D01*
X158899500Y-111862332D01*
X158899500Y-112137667D01*
X158899501Y-112137684D01*
X158935438Y-112410655D01*
X158935439Y-112410660D01*
X158935440Y-112410666D01*
X158956547Y-112489438D01*
X159006704Y-112676630D01*
X159112075Y-112931017D01*
X159112080Y-112931028D01*
X159172755Y-113036119D01*
X159249751Y-113169479D01*
X159249753Y-113169481D01*
X159249754Y-113169483D01*
X159417370Y-113387926D01*
X159417376Y-113387933D01*
X159612066Y-113582623D01*
X159612072Y-113582628D01*
X159830521Y-113750249D01*
X159983778Y-113838732D01*
X160068971Y-113887919D01*
X160068976Y-113887921D01*
X160068979Y-113887923D01*
X160323368Y-113993295D01*
X160589334Y-114064560D01*
X160862326Y-114100500D01*
X160862333Y-114100500D01*
X161137667Y-114100500D01*
X161137674Y-114100500D01*
X161410666Y-114064560D01*
X161676632Y-113993295D01*
X161931021Y-113887923D01*
X162169479Y-113750249D01*
X162387928Y-113582628D01*
X162582628Y-113387928D01*
X162750249Y-113169479D01*
X162887923Y-112931021D01*
X162993295Y-112676632D01*
X163064560Y-112410666D01*
X163100500Y-112137674D01*
X163100500Y-111862326D01*
X163064560Y-111589334D01*
X162993295Y-111323368D01*
X162887923Y-111068979D01*
X162887921Y-111068976D01*
X162887919Y-111068971D01*
X162804766Y-110924947D01*
X162750249Y-110830521D01*
X162601372Y-110636500D01*
X162582629Y-110612073D01*
X162582623Y-110612066D01*
X162387933Y-110417376D01*
X162387926Y-110417370D01*
X162169483Y-110249754D01*
X162169482Y-110249753D01*
X162169479Y-110249751D01*
X162074407Y-110194861D01*
X161931028Y-110112080D01*
X161931017Y-110112075D01*
X161676630Y-110006704D01*
X161488722Y-109956355D01*
X161410666Y-109935440D01*
X161410660Y-109935439D01*
X161410655Y-109935438D01*
X161137684Y-109899501D01*
X161137679Y-109899500D01*
X161137674Y-109899500D01*
X160862326Y-109899500D01*
X160862320Y-109899500D01*
X160862315Y-109899501D01*
X160589344Y-109935438D01*
X160589337Y-109935439D01*
X160589334Y-109935440D01*
X160533125Y-109950500D01*
X160323369Y-110006704D01*
X160068982Y-110112075D01*
X160068971Y-110112080D01*
X159830516Y-110249754D01*
X159612073Y-110417370D01*
X159612066Y-110417376D01*
X159417376Y-110612066D01*
X159417370Y-110612073D01*
X159249754Y-110830516D01*
X159112080Y-111068971D01*
X159112075Y-111068982D01*
X159006704Y-111323369D01*
X158935441Y-111589331D01*
X158935438Y-111589344D01*
X158899501Y-111862315D01*
X158899500Y-111862332D01*
X124269651Y-111862332D01*
X124250678Y-111843359D01*
X124158623Y-111790211D01*
X124055948Y-111762700D01*
X123949652Y-111762700D01*
X123846977Y-111790211D01*
X123846975Y-111790212D01*
X123846974Y-111790212D01*
X123754925Y-111843357D01*
X123754919Y-111843361D01*
X123679761Y-111918519D01*
X123679757Y-111918525D01*
X123626612Y-112010574D01*
X123626612Y-112010575D01*
X123626611Y-112010577D01*
X123599100Y-112113252D01*
X119100500Y-112113252D01*
X119100500Y-111862326D01*
X119064560Y-111589334D01*
X118993295Y-111323368D01*
X118947577Y-111212995D01*
X118924574Y-111157461D01*
X118908284Y-111118135D01*
X121405825Y-111118135D01*
X121405825Y-111223589D01*
X121433118Y-111325449D01*
X121485845Y-111416775D01*
X121560412Y-111491342D01*
X121651738Y-111544069D01*
X121753598Y-111571362D01*
X121753600Y-111571362D01*
X121859050Y-111571362D01*
X121859052Y-111571362D01*
X121960912Y-111544069D01*
X122052238Y-111491342D01*
X122126805Y-111416775D01*
X122179532Y-111325449D01*
X122206825Y-111223589D01*
X122206825Y-111118135D01*
X122179532Y-111016275D01*
X122126805Y-110924949D01*
X122052238Y-110850382D01*
X121983122Y-110810478D01*
X121960914Y-110797656D01*
X121960913Y-110797655D01*
X121960912Y-110797655D01*
X121859052Y-110770362D01*
X121753598Y-110770362D01*
X121651738Y-110797655D01*
X121651735Y-110797656D01*
X121560410Y-110850383D01*
X121485846Y-110924947D01*
X121433119Y-111016272D01*
X121433118Y-111016275D01*
X121405825Y-111118135D01*
X118908284Y-111118135D01*
X118901513Y-111101789D01*
X118887923Y-111068979D01*
X118887920Y-111068974D01*
X118887919Y-111068971D01*
X118804766Y-110924947D01*
X118750249Y-110830521D01*
X118703890Y-110770105D01*
X124756500Y-110770105D01*
X124756500Y-110875559D01*
X124783793Y-110977419D01*
X124836520Y-111068745D01*
X124911087Y-111143312D01*
X124956706Y-111169650D01*
X125004921Y-111220216D01*
X125018144Y-111288823D01*
X125014480Y-111309129D01*
X125010107Y-111325448D01*
X124990900Y-111397132D01*
X124990900Y-111502586D01*
X125018193Y-111604446D01*
X125070920Y-111695772D01*
X125145487Y-111770339D01*
X125236813Y-111823066D01*
X125338673Y-111850359D01*
X125338675Y-111850359D01*
X125444125Y-111850359D01*
X125444127Y-111850359D01*
X125545987Y-111823066D01*
X125637313Y-111770339D01*
X125711880Y-111695772D01*
X125764607Y-111604446D01*
X125791900Y-111502586D01*
X125791900Y-111397132D01*
X125764607Y-111295272D01*
X125711880Y-111203946D01*
X125637313Y-111129379D01*
X125591691Y-111103039D01*
X125543478Y-111052473D01*
X125530256Y-110983866D01*
X125533915Y-110963576D01*
X125552432Y-110894473D01*
X139350300Y-110894473D01*
X139350300Y-110999927D01*
X139368804Y-111068983D01*
X139377593Y-111101786D01*
X139377594Y-111101789D01*
X139387033Y-111118137D01*
X139430320Y-111193113D01*
X139504887Y-111267680D01*
X139596213Y-111320407D01*
X139698073Y-111347700D01*
X139698075Y-111347700D01*
X139803525Y-111347700D01*
X139803527Y-111347700D01*
X139905387Y-111320407D01*
X139996713Y-111267680D01*
X140071280Y-111193113D01*
X140124007Y-111101787D01*
X140151300Y-110999927D01*
X140151300Y-110894473D01*
X140124007Y-110792613D01*
X140071280Y-110701287D01*
X139996713Y-110626720D01*
X139905387Y-110573993D01*
X139803527Y-110546700D01*
X139698073Y-110546700D01*
X139596213Y-110573993D01*
X139596210Y-110573994D01*
X139504885Y-110626721D01*
X139430321Y-110701285D01*
X139377594Y-110792610D01*
X139377593Y-110792613D01*
X139350300Y-110894473D01*
X125552432Y-110894473D01*
X125557500Y-110875559D01*
X125557500Y-110770105D01*
X125530207Y-110668245D01*
X125477480Y-110576919D01*
X125402913Y-110502352D01*
X125311587Y-110449625D01*
X125209727Y-110422332D01*
X125104273Y-110422332D01*
X125002413Y-110449625D01*
X125002410Y-110449626D01*
X124911085Y-110502353D01*
X124836521Y-110576917D01*
X124783794Y-110668242D01*
X124783793Y-110668245D01*
X124756500Y-110770105D01*
X118703890Y-110770105D01*
X118601372Y-110636500D01*
X118582629Y-110612073D01*
X118582623Y-110612066D01*
X118387933Y-110417376D01*
X118387926Y-110417370D01*
X118169483Y-110249754D01*
X118169482Y-110249753D01*
X118169479Y-110249751D01*
X118074407Y-110194861D01*
X117931028Y-110112080D01*
X117931017Y-110112075D01*
X117676630Y-110006704D01*
X117488722Y-109956355D01*
X117410666Y-109935440D01*
X117410660Y-109935439D01*
X117410655Y-109935438D01*
X117137684Y-109899501D01*
X117137679Y-109899500D01*
X117137674Y-109899500D01*
X116862326Y-109899500D01*
X116862320Y-109899500D01*
X116862315Y-109899501D01*
X116589344Y-109935438D01*
X116589337Y-109935439D01*
X116589334Y-109935440D01*
X116533125Y-109950500D01*
X116323369Y-110006704D01*
X116068982Y-110112075D01*
X116068971Y-110112080D01*
X115830516Y-110249754D01*
X115612073Y-110417370D01*
X115612066Y-110417376D01*
X115417376Y-110612066D01*
X115417370Y-110612073D01*
X115249754Y-110830516D01*
X115112080Y-111068971D01*
X115112075Y-111068982D01*
X115006704Y-111323369D01*
X114935441Y-111589331D01*
X114935438Y-111589344D01*
X114899501Y-111862315D01*
X114899500Y-111862332D01*
X114200500Y-111862332D01*
X114200500Y-108247273D01*
X122941900Y-108247273D01*
X122941900Y-108352727D01*
X122969193Y-108454587D01*
X123021920Y-108545913D01*
X123096487Y-108620480D01*
X123187813Y-108673207D01*
X123289673Y-108700500D01*
X123289675Y-108700500D01*
X123395125Y-108700500D01*
X123395127Y-108700500D01*
X123496987Y-108673207D01*
X123588313Y-108620480D01*
X123661520Y-108547273D01*
X126199500Y-108547273D01*
X126199500Y-108652727D01*
X126226793Y-108754587D01*
X126279520Y-108845913D01*
X126354087Y-108920480D01*
X126445413Y-108973207D01*
X126547273Y-109000500D01*
X126547275Y-109000500D01*
X126652725Y-109000500D01*
X126652727Y-109000500D01*
X126754587Y-108973207D01*
X126845913Y-108920480D01*
X126920480Y-108845913D01*
X126973207Y-108754587D01*
X127000500Y-108652727D01*
X127000500Y-108547273D01*
X126974198Y-108449111D01*
X126974211Y-108448563D01*
X126973928Y-108448090D01*
X126975041Y-108413676D01*
X126975861Y-108379265D01*
X126976170Y-108378808D01*
X126976188Y-108378257D01*
X126995722Y-108349918D01*
X127015023Y-108321402D01*
X127015635Y-108321032D01*
X127015843Y-108320731D01*
X127017724Y-108319771D01*
X127046136Y-108302620D01*
X127053818Y-108299407D01*
X127154587Y-108272407D01*
X127245913Y-108219680D01*
X127246939Y-108218653D01*
X127256963Y-108214462D01*
X127284129Y-108211449D01*
X127310699Y-108205003D01*
X127319348Y-108207542D01*
X127326407Y-108206760D01*
X127340489Y-108213750D01*
X127366794Y-108221474D01*
X127455013Y-108272407D01*
X127556873Y-108299700D01*
X127556875Y-108299700D01*
X127662325Y-108299700D01*
X127662327Y-108299700D01*
X127764187Y-108272407D01*
X127852404Y-108221474D01*
X127920299Y-108205003D01*
X127976394Y-108221474D01*
X128064613Y-108272407D01*
X128166473Y-108299700D01*
X128166475Y-108299700D01*
X128271925Y-108299700D01*
X128271927Y-108299700D01*
X128373787Y-108272407D01*
X128462004Y-108221474D01*
X128472383Y-108218956D01*
X128480951Y-108212576D01*
X128505740Y-108210863D01*
X128529899Y-108205003D01*
X128541838Y-108208370D01*
X128550655Y-108207762D01*
X128579883Y-108219102D01*
X128583693Y-108220177D01*
X128584818Y-108220795D01*
X128674213Y-108272407D01*
X128683152Y-108274802D01*
X128696283Y-108282014D01*
X128710785Y-108296588D01*
X128728347Y-108307293D01*
X128734934Y-108320855D01*
X128745567Y-108331540D01*
X128749888Y-108351641D01*
X128758874Y-108370141D01*
X128757083Y-108385111D01*
X128760252Y-108399849D01*
X128753019Y-108419097D01*
X128750577Y-108439517D01*
X128740977Y-108451142D01*
X128735675Y-108465253D01*
X128719183Y-108477535D01*
X128706089Y-108493393D01*
X128691728Y-108497982D01*
X128679639Y-108506987D01*
X128659125Y-108508403D01*
X128642828Y-108513612D01*
X128642832Y-108513639D01*
X128642685Y-108513658D01*
X128639536Y-108514665D01*
X128636590Y-108514700D01*
X128634772Y-108514700D01*
X128532912Y-108541993D01*
X128532909Y-108541994D01*
X128441584Y-108594721D01*
X128367020Y-108669285D01*
X128314293Y-108760610D01*
X128314292Y-108760613D01*
X128286999Y-108862473D01*
X128286999Y-108967927D01*
X128314292Y-109069787D01*
X128367019Y-109161113D01*
X128441586Y-109235680D01*
X128532912Y-109288407D01*
X128634772Y-109315700D01*
X128634774Y-109315700D01*
X128715000Y-109315700D01*
X128782039Y-109335385D01*
X128827794Y-109388189D01*
X128837738Y-109457347D01*
X128834776Y-109471788D01*
X128834700Y-109472068D01*
X128834700Y-109472073D01*
X128834700Y-109577527D01*
X128861993Y-109679387D01*
X128914720Y-109770713D01*
X128989287Y-109845280D01*
X129080613Y-109898007D01*
X129182473Y-109925300D01*
X129182475Y-109925300D01*
X129287925Y-109925300D01*
X129287927Y-109925300D01*
X129324381Y-109915532D01*
X129394228Y-109917193D01*
X129452092Y-109956355D01*
X129479597Y-110020583D01*
X129472353Y-110073202D01*
X129473697Y-110073562D01*
X129471593Y-110081411D01*
X129471593Y-110081413D01*
X129444300Y-110183273D01*
X129444300Y-110288727D01*
X129471593Y-110390587D01*
X129524320Y-110481913D01*
X129598887Y-110556480D01*
X129690213Y-110609207D01*
X129792073Y-110636500D01*
X129792075Y-110636500D01*
X129897525Y-110636500D01*
X129897527Y-110636500D01*
X129999387Y-110609207D01*
X130054116Y-110577608D01*
X130122012Y-110561136D01*
X130188039Y-110583987D01*
X130230674Y-110637541D01*
X130233592Y-110644585D01*
X130233593Y-110644587D01*
X130286320Y-110735913D01*
X130360887Y-110810480D01*
X130452213Y-110863207D01*
X130554073Y-110890500D01*
X130554075Y-110890500D01*
X130659525Y-110890500D01*
X130659527Y-110890500D01*
X130761387Y-110863207D01*
X130852713Y-110810480D01*
X130927280Y-110735913D01*
X130980007Y-110644587D01*
X131007300Y-110542727D01*
X131007300Y-110437273D01*
X130980007Y-110335413D01*
X130927280Y-110244087D01*
X130866466Y-110183273D01*
X149357900Y-110183273D01*
X149357900Y-110288727D01*
X149385193Y-110390587D01*
X149437920Y-110481913D01*
X149512487Y-110556480D01*
X149603813Y-110609207D01*
X149705673Y-110636500D01*
X149705675Y-110636500D01*
X149811125Y-110636500D01*
X149811127Y-110636500D01*
X149912987Y-110609207D01*
X150004313Y-110556480D01*
X150078880Y-110481913D01*
X150131607Y-110390587D01*
X150158900Y-110288727D01*
X150158900Y-110183273D01*
X150131607Y-110081413D01*
X150078880Y-109990087D01*
X150004313Y-109915520D01*
X149912987Y-109862793D01*
X149811127Y-109835500D01*
X149705673Y-109835500D01*
X149603813Y-109862793D01*
X149603810Y-109862794D01*
X149512485Y-109915521D01*
X149437921Y-109990085D01*
X149385194Y-110081410D01*
X149385193Y-110081413D01*
X149357900Y-110183273D01*
X130866466Y-110183273D01*
X130852713Y-110169520D01*
X130761387Y-110116793D01*
X130659527Y-110089500D01*
X130554073Y-110089500D01*
X130452213Y-110116793D01*
X130452210Y-110116794D01*
X130397485Y-110148390D01*
X130329585Y-110164863D01*
X130263558Y-110142010D01*
X130220923Y-110088454D01*
X130218008Y-110081418D01*
X130218007Y-110081413D01*
X130165280Y-109990087D01*
X130090713Y-109915520D01*
X129999387Y-109862793D01*
X129897527Y-109835500D01*
X129792073Y-109835500D01*
X129792071Y-109835500D01*
X129755617Y-109845268D01*
X129685767Y-109843605D01*
X129627905Y-109804442D01*
X129600402Y-109740213D01*
X129607649Y-109687598D01*
X129606303Y-109687238D01*
X129608407Y-109679386D01*
X129635700Y-109577527D01*
X129635700Y-109472073D01*
X129608407Y-109370213D01*
X129555680Y-109278887D01*
X129481113Y-109204320D01*
X129416946Y-109167273D01*
X139350300Y-109167273D01*
X139350300Y-109272727D01*
X139377593Y-109374587D01*
X139430320Y-109465913D01*
X139504887Y-109540480D01*
X139596213Y-109593207D01*
X139698073Y-109620500D01*
X139698075Y-109620500D01*
X139803525Y-109620500D01*
X139803527Y-109620500D01*
X139905387Y-109593207D01*
X139996713Y-109540480D01*
X140071280Y-109465913D01*
X140100748Y-109414873D01*
X153246300Y-109414873D01*
X153246300Y-109520327D01*
X153273593Y-109622187D01*
X153326320Y-109713513D01*
X153400887Y-109788080D01*
X153492213Y-109840807D01*
X153594073Y-109868100D01*
X153594075Y-109868100D01*
X153699525Y-109868100D01*
X153699527Y-109868100D01*
X153801387Y-109840807D01*
X153892713Y-109788080D01*
X153967280Y-109713513D01*
X154020007Y-109622187D01*
X154047300Y-109520327D01*
X154047300Y-109414873D01*
X154020007Y-109313013D01*
X153967280Y-109221687D01*
X153892713Y-109147120D01*
X153801387Y-109094393D01*
X153699527Y-109067100D01*
X153594073Y-109067100D01*
X153492213Y-109094393D01*
X153492210Y-109094394D01*
X153400885Y-109147121D01*
X153326321Y-109221685D01*
X153273594Y-109313010D01*
X153273593Y-109313013D01*
X153246300Y-109414873D01*
X140100748Y-109414873D01*
X140124007Y-109374587D01*
X140151300Y-109272727D01*
X140151300Y-109167273D01*
X140124007Y-109065413D01*
X140071280Y-108974087D01*
X139996713Y-108899520D01*
X139905387Y-108846793D01*
X139803527Y-108819500D01*
X139698073Y-108819500D01*
X139596213Y-108846793D01*
X139596210Y-108846794D01*
X139504885Y-108899521D01*
X139430321Y-108974085D01*
X139377594Y-109065410D01*
X139377593Y-109065413D01*
X139350300Y-109167273D01*
X129416946Y-109167273D01*
X129389787Y-109151593D01*
X129287927Y-109124300D01*
X129207699Y-109124300D01*
X129140660Y-109104615D01*
X129094905Y-109051811D01*
X129084961Y-108982653D01*
X129087923Y-108968212D01*
X129087998Y-108967931D01*
X129087999Y-108967925D01*
X129087999Y-108862475D01*
X129087999Y-108862473D01*
X129060706Y-108760613D01*
X129007979Y-108669287D01*
X128933412Y-108594720D01*
X128851231Y-108547273D01*
X128842088Y-108541994D01*
X128834579Y-108538884D01*
X128835688Y-108536206D01*
X128787952Y-108507107D01*
X128757425Y-108444259D01*
X128765722Y-108374883D01*
X128810210Y-108321007D01*
X128873470Y-108300787D01*
X128873467Y-108300761D01*
X128873613Y-108300741D01*
X128876763Y-108299735D01*
X128879709Y-108299700D01*
X128881525Y-108299700D01*
X128881527Y-108299700D01*
X128983387Y-108272407D01*
X129074713Y-108219680D01*
X129149280Y-108145113D01*
X129202007Y-108053787D01*
X129229300Y-107951927D01*
X129229300Y-107846473D01*
X129227651Y-107840319D01*
X129229312Y-107770472D01*
X129268473Y-107712608D01*
X129332701Y-107685102D01*
X129379517Y-107688450D01*
X129385673Y-107690100D01*
X129385676Y-107690100D01*
X129491125Y-107690100D01*
X129491127Y-107690100D01*
X129592987Y-107662807D01*
X129605343Y-107655673D01*
X155786300Y-107655673D01*
X155786300Y-107761127D01*
X155806175Y-107835300D01*
X155813593Y-107862986D01*
X155813594Y-107862989D01*
X155827722Y-107887459D01*
X155866320Y-107954313D01*
X155940887Y-108028880D01*
X156032213Y-108081607D01*
X156134073Y-108108900D01*
X156134075Y-108108900D01*
X156239525Y-108108900D01*
X156239527Y-108108900D01*
X156341387Y-108081607D01*
X156432713Y-108028880D01*
X156507280Y-107954313D01*
X156560007Y-107862987D01*
X156587300Y-107761127D01*
X156587300Y-107655673D01*
X157056300Y-107655673D01*
X157056300Y-107761127D01*
X157076175Y-107835300D01*
X157083593Y-107862986D01*
X157083594Y-107862989D01*
X157097722Y-107887459D01*
X157136320Y-107954313D01*
X157210887Y-108028880D01*
X157302213Y-108081607D01*
X157404073Y-108108900D01*
X157404075Y-108108900D01*
X157509525Y-108108900D01*
X157509527Y-108108900D01*
X157611387Y-108081607D01*
X157702713Y-108028880D01*
X157777280Y-107954313D01*
X157830007Y-107862987D01*
X157857300Y-107761127D01*
X157857300Y-107655673D01*
X158326300Y-107655673D01*
X158326300Y-107761127D01*
X158346175Y-107835300D01*
X158353593Y-107862986D01*
X158353594Y-107862989D01*
X158367722Y-107887459D01*
X158406320Y-107954313D01*
X158480887Y-108028880D01*
X158572213Y-108081607D01*
X158674073Y-108108900D01*
X158674075Y-108108900D01*
X158779525Y-108108900D01*
X158779527Y-108108900D01*
X158881387Y-108081607D01*
X158972713Y-108028880D01*
X159047280Y-107954313D01*
X159100007Y-107862987D01*
X159127300Y-107761127D01*
X159127300Y-107655673D01*
X159596300Y-107655673D01*
X159596300Y-107761127D01*
X159616175Y-107835300D01*
X159623593Y-107862986D01*
X159623594Y-107862989D01*
X159637722Y-107887459D01*
X159676320Y-107954313D01*
X159750887Y-108028880D01*
X159842213Y-108081607D01*
X159944073Y-108108900D01*
X159944075Y-108108900D01*
X160049525Y-108108900D01*
X160049527Y-108108900D01*
X160151387Y-108081607D01*
X160242713Y-108028880D01*
X160317280Y-107954313D01*
X160363934Y-107873504D01*
X160414501Y-107825289D01*
X160483108Y-107812066D01*
X160547973Y-107838034D01*
X160588501Y-107894949D01*
X160592938Y-107911310D01*
X160593219Y-107912726D01*
X160593221Y-107912732D01*
X160646021Y-108040204D01*
X160646028Y-108040217D01*
X160722685Y-108154941D01*
X160722688Y-108154945D01*
X160820254Y-108252511D01*
X160820258Y-108252514D01*
X160934982Y-108329171D01*
X160934995Y-108329178D01*
X161033890Y-108370141D01*
X161062472Y-108381980D01*
X161062476Y-108381980D01*
X161062477Y-108381981D01*
X161197804Y-108408900D01*
X161197807Y-108408900D01*
X161335795Y-108408900D01*
X161426841Y-108390789D01*
X161471128Y-108381980D01*
X161569724Y-108341140D01*
X161598604Y-108329178D01*
X161598604Y-108329177D01*
X161598611Y-108329175D01*
X161713342Y-108252514D01*
X161810914Y-108154942D01*
X161887575Y-108040211D01*
X161940380Y-107912728D01*
X161955238Y-107838034D01*
X161967300Y-107777395D01*
X161967300Y-107639404D01*
X161940381Y-107504077D01*
X161940380Y-107504076D01*
X161940380Y-107504072D01*
X161915575Y-107444187D01*
X161887578Y-107376595D01*
X161887571Y-107376582D01*
X161810914Y-107261858D01*
X161810911Y-107261854D01*
X161713345Y-107164288D01*
X161713341Y-107164285D01*
X161598617Y-107087628D01*
X161598604Y-107087621D01*
X161471132Y-107034821D01*
X161471122Y-107034818D01*
X161335795Y-107007900D01*
X161335793Y-107007900D01*
X161197807Y-107007900D01*
X161197805Y-107007900D01*
X161062477Y-107034818D01*
X161062467Y-107034821D01*
X160934995Y-107087621D01*
X160934982Y-107087628D01*
X160820258Y-107164285D01*
X160820254Y-107164288D01*
X160722688Y-107261854D01*
X160722685Y-107261858D01*
X160646028Y-107376582D01*
X160646021Y-107376595D01*
X160593221Y-107504067D01*
X160593218Y-107504078D01*
X160592937Y-107505492D01*
X160592585Y-107506163D01*
X160591451Y-107509904D01*
X160590741Y-107509688D01*
X160560548Y-107567401D01*
X160499831Y-107601972D01*
X160430061Y-107598228D01*
X160373392Y-107557359D01*
X160363934Y-107543295D01*
X160359442Y-107535514D01*
X160317280Y-107462487D01*
X160242713Y-107387920D01*
X160175859Y-107349322D01*
X160151389Y-107335194D01*
X160151388Y-107335193D01*
X160151387Y-107335193D01*
X160049527Y-107307900D01*
X159944073Y-107307900D01*
X159842213Y-107335193D01*
X159842210Y-107335194D01*
X159750885Y-107387921D01*
X159676321Y-107462485D01*
X159623594Y-107553810D01*
X159623593Y-107553813D01*
X159596300Y-107655673D01*
X159127300Y-107655673D01*
X159100007Y-107553813D01*
X159047280Y-107462487D01*
X158972713Y-107387920D01*
X158905859Y-107349322D01*
X158881389Y-107335194D01*
X158881388Y-107335193D01*
X158881387Y-107335193D01*
X158779527Y-107307900D01*
X158674073Y-107307900D01*
X158572213Y-107335193D01*
X158572210Y-107335194D01*
X158480885Y-107387921D01*
X158406321Y-107462485D01*
X158353594Y-107553810D01*
X158353593Y-107553813D01*
X158326300Y-107655673D01*
X157857300Y-107655673D01*
X157830007Y-107553813D01*
X157777280Y-107462487D01*
X157702713Y-107387920D01*
X157635859Y-107349322D01*
X157611389Y-107335194D01*
X157611388Y-107335193D01*
X157611387Y-107335193D01*
X157509527Y-107307900D01*
X157404073Y-107307900D01*
X157302213Y-107335193D01*
X157302210Y-107335194D01*
X157210885Y-107387921D01*
X157136321Y-107462485D01*
X157083594Y-107553810D01*
X157083593Y-107553813D01*
X157056300Y-107655673D01*
X156587300Y-107655673D01*
X156560007Y-107553813D01*
X156507280Y-107462487D01*
X156432713Y-107387920D01*
X156365859Y-107349322D01*
X156341389Y-107335194D01*
X156341388Y-107335193D01*
X156341387Y-107335193D01*
X156239527Y-107307900D01*
X156134073Y-107307900D01*
X156032213Y-107335193D01*
X156032210Y-107335194D01*
X155940885Y-107387921D01*
X155866321Y-107462485D01*
X155813594Y-107553810D01*
X155813593Y-107553813D01*
X155786300Y-107655673D01*
X129605343Y-107655673D01*
X129684313Y-107610080D01*
X129758880Y-107535513D01*
X129811607Y-107444187D01*
X129838900Y-107342327D01*
X129838900Y-107236873D01*
X129811607Y-107135013D01*
X129758880Y-107043687D01*
X129684313Y-106969120D01*
X129592987Y-106916393D01*
X129491127Y-106889100D01*
X129385673Y-106889100D01*
X129283813Y-106916393D01*
X129283810Y-106916394D01*
X129195600Y-106967323D01*
X129127700Y-106983796D01*
X129071600Y-106967323D01*
X129045820Y-106952439D01*
X128983387Y-106916393D01*
X128881527Y-106889100D01*
X128776073Y-106889100D01*
X128674213Y-106916393D01*
X128674210Y-106916394D01*
X128586000Y-106967323D01*
X128518100Y-106983796D01*
X128462000Y-106967323D01*
X128436220Y-106952439D01*
X128373787Y-106916393D01*
X128271927Y-106889100D01*
X128166473Y-106889100D01*
X128064613Y-106916393D01*
X128064610Y-106916394D01*
X127976400Y-106967323D01*
X127908500Y-106983796D01*
X127852400Y-106967323D01*
X127826620Y-106952439D01*
X127764187Y-106916393D01*
X127662327Y-106889100D01*
X127556873Y-106889100D01*
X127455013Y-106916393D01*
X127455010Y-106916394D01*
X127366800Y-106967323D01*
X127298900Y-106983796D01*
X127242800Y-106967323D01*
X127217020Y-106952439D01*
X127154587Y-106916393D01*
X127052727Y-106889100D01*
X126947273Y-106889100D01*
X126845413Y-106916393D01*
X126845410Y-106916394D01*
X126754085Y-106969121D01*
X126679521Y-107043685D01*
X126626794Y-107135010D01*
X126626793Y-107135013D01*
X126599500Y-107236873D01*
X126599500Y-107342327D01*
X126626793Y-107444187D01*
X126675174Y-107527986D01*
X126677723Y-107532400D01*
X126694196Y-107600300D01*
X126677723Y-107656400D01*
X126626794Y-107744610D01*
X126626793Y-107744613D01*
X126599500Y-107846473D01*
X126599500Y-107951927D01*
X126606894Y-107979521D01*
X126625801Y-108050085D01*
X126624138Y-108119935D01*
X126584975Y-108177797D01*
X126538119Y-108201952D01*
X126470105Y-108220177D01*
X126445413Y-108226793D01*
X126445410Y-108226794D01*
X126354085Y-108279521D01*
X126279521Y-108354085D01*
X126226794Y-108445410D01*
X126226793Y-108445413D01*
X126199500Y-108547273D01*
X123661520Y-108547273D01*
X123662880Y-108545913D01*
X123715607Y-108454587D01*
X123742900Y-108352727D01*
X123742900Y-108247273D01*
X123715607Y-108145413D01*
X123662880Y-108054087D01*
X123588313Y-107979520D01*
X123496987Y-107926793D01*
X123395127Y-107899500D01*
X123289673Y-107899500D01*
X123187813Y-107926793D01*
X123187810Y-107926794D01*
X123096485Y-107979521D01*
X123021921Y-108054085D01*
X122969194Y-108145410D01*
X122969193Y-108145413D01*
X122941900Y-108247273D01*
X114200500Y-108247273D01*
X114200500Y-106579234D01*
X118167046Y-106579234D01*
X118167046Y-106684688D01*
X118194339Y-106786548D01*
X118247066Y-106877874D01*
X118321633Y-106952441D01*
X118412959Y-107005168D01*
X118412964Y-107005169D01*
X118420466Y-107008277D01*
X118419052Y-107011688D01*
X118464261Y-107038836D01*
X118495205Y-107101479D01*
X118492836Y-107154944D01*
X118462300Y-107268908D01*
X118462300Y-107400691D01*
X118496408Y-107527987D01*
X118514813Y-107559865D01*
X118562300Y-107642114D01*
X118655486Y-107735300D01*
X118769614Y-107801192D01*
X118896908Y-107835300D01*
X118896910Y-107835300D01*
X119028690Y-107835300D01*
X119028692Y-107835300D01*
X119155986Y-107801192D01*
X119270114Y-107735300D01*
X119363300Y-107642114D01*
X119429192Y-107527986D01*
X119463300Y-107400692D01*
X119463300Y-107268908D01*
X119429192Y-107141614D01*
X119363300Y-107027486D01*
X119270114Y-106934300D01*
X119191826Y-106889100D01*
X119155987Y-106868408D01*
X119096848Y-106852562D01*
X119054479Y-106841209D01*
X118994819Y-106804845D01*
X118964290Y-106741998D01*
X118966799Y-106689338D01*
X118968046Y-106684688D01*
X118968046Y-106579234D01*
X118940753Y-106477374D01*
X118888026Y-106386048D01*
X118813459Y-106311481D01*
X118722133Y-106258754D01*
X118620273Y-106231461D01*
X118514819Y-106231461D01*
X118412959Y-106258754D01*
X118412956Y-106258755D01*
X118321631Y-106311482D01*
X118247067Y-106386046D01*
X118194340Y-106477371D01*
X118194339Y-106477374D01*
X118167046Y-106579234D01*
X114200500Y-106579234D01*
X114200500Y-104555401D01*
X117962047Y-104555401D01*
X117962047Y-104661697D01*
X117989558Y-104764372D01*
X118042706Y-104856427D01*
X118117869Y-104931590D01*
X118209924Y-104984738D01*
X118312599Y-105012249D01*
X118312601Y-105012249D01*
X118418893Y-105012249D01*
X118418895Y-105012249D01*
X118521570Y-104984738D01*
X118599343Y-104939835D01*
X118667241Y-104923362D01*
X118733268Y-104946214D01*
X118749023Y-104959541D01*
X118760523Y-104971041D01*
X118852578Y-105024189D01*
X118955253Y-105051700D01*
X118955255Y-105051700D01*
X119061547Y-105051700D01*
X119061549Y-105051700D01*
X119164224Y-105024189D01*
X119256279Y-104971041D01*
X119331442Y-104895878D01*
X119384590Y-104803823D01*
X119412101Y-104701148D01*
X119412101Y-104594852D01*
X119384590Y-104492177D01*
X119331442Y-104400122D01*
X119256279Y-104324959D01*
X119187944Y-104285506D01*
X119164226Y-104271812D01*
X119164225Y-104271811D01*
X119164224Y-104271811D01*
X119061549Y-104244300D01*
X118955253Y-104244300D01*
X118852578Y-104271811D01*
X118852576Y-104271811D01*
X118852576Y-104271812D01*
X118852573Y-104271813D01*
X118774802Y-104316713D01*
X118706902Y-104333184D01*
X118640875Y-104310331D01*
X118625123Y-104297006D01*
X118613627Y-104285510D01*
X118613625Y-104285508D01*
X118534458Y-104239801D01*
X118521572Y-104232361D01*
X118521571Y-104232360D01*
X118521570Y-104232360D01*
X118418895Y-104204849D01*
X118312599Y-104204849D01*
X118209924Y-104232360D01*
X118209922Y-104232361D01*
X118209921Y-104232361D01*
X118117872Y-104285506D01*
X118117866Y-104285510D01*
X118042708Y-104360668D01*
X118042704Y-104360674D01*
X117989559Y-104452723D01*
X117989559Y-104452724D01*
X117989558Y-104452726D01*
X117962047Y-104555401D01*
X114200500Y-104555401D01*
X114200500Y-103172873D01*
X118471500Y-103172873D01*
X118471500Y-103278327D01*
X118498793Y-103380187D01*
X118551520Y-103471513D01*
X118626087Y-103546080D01*
X118717413Y-103598807D01*
X118819273Y-103626100D01*
X118819275Y-103626100D01*
X118924725Y-103626100D01*
X118924727Y-103626100D01*
X119026587Y-103598807D01*
X119117913Y-103546080D01*
X119192480Y-103471513D01*
X119245207Y-103380187D01*
X119272500Y-103278327D01*
X119272500Y-103172873D01*
X119245207Y-103071013D01*
X119192480Y-102979687D01*
X119117913Y-102905120D01*
X119026587Y-102852393D01*
X118924727Y-102825100D01*
X118819273Y-102825100D01*
X118717413Y-102852393D01*
X118717410Y-102852394D01*
X118626085Y-102905121D01*
X118551521Y-102979685D01*
X118498794Y-103071010D01*
X118498793Y-103071013D01*
X118471500Y-103172873D01*
X114200500Y-103172873D01*
X114200500Y-101488908D01*
X118462300Y-101488908D01*
X118462300Y-101620691D01*
X118496408Y-101747987D01*
X118516396Y-101782607D01*
X118562300Y-101862114D01*
X118655486Y-101955300D01*
X118769614Y-102021192D01*
X118896908Y-102055300D01*
X118896910Y-102055300D01*
X119028690Y-102055300D01*
X119028692Y-102055300D01*
X119155986Y-102021192D01*
X119270114Y-101955300D01*
X119363300Y-101862114D01*
X119429192Y-101747986D01*
X119463300Y-101620692D01*
X119463300Y-101488908D01*
X119429192Y-101361614D01*
X119363300Y-101247486D01*
X119270114Y-101154300D01*
X119186638Y-101106105D01*
X119155987Y-101088408D01*
X119079071Y-101067799D01*
X119028692Y-101054300D01*
X118896908Y-101054300D01*
X118769612Y-101088408D01*
X118655486Y-101154300D01*
X118655483Y-101154302D01*
X118562302Y-101247483D01*
X118562300Y-101247486D01*
X118496408Y-101361612D01*
X118462300Y-101488908D01*
X114200500Y-101488908D01*
X114200500Y-97900276D01*
X119081100Y-97900276D01*
X119081100Y-98005730D01*
X119091871Y-98045926D01*
X119108393Y-98107589D01*
X119108394Y-98107592D01*
X119156261Y-98190500D01*
X119172734Y-98258400D01*
X119156262Y-98314498D01*
X119108395Y-98397408D01*
X119108393Y-98397413D01*
X119081100Y-98499273D01*
X119081100Y-98604727D01*
X119108324Y-98706327D01*
X119108393Y-98706586D01*
X119108394Y-98706589D01*
X119159323Y-98794800D01*
X119175796Y-98862700D01*
X119159323Y-98918798D01*
X119152351Y-98930875D01*
X119108394Y-99007010D01*
X119108393Y-99007013D01*
X119081100Y-99108873D01*
X119081100Y-99214327D01*
X119108393Y-99316187D01*
X119161120Y-99407513D01*
X119235687Y-99482080D01*
X119327013Y-99534807D01*
X119428873Y-99562100D01*
X119428875Y-99562100D01*
X119534325Y-99562100D01*
X119534327Y-99562100D01*
X119636187Y-99534807D01*
X119725157Y-99483439D01*
X119793053Y-99466968D01*
X119849149Y-99483439D01*
X119925976Y-99527795D01*
X120027836Y-99555088D01*
X120027838Y-99555088D01*
X120133288Y-99555088D01*
X120133290Y-99555088D01*
X120235150Y-99527795D01*
X120322785Y-99477198D01*
X120390684Y-99460726D01*
X120446648Y-99480095D01*
X120447849Y-99478016D01*
X120454885Y-99482078D01*
X120454887Y-99482080D01*
X120546213Y-99534807D01*
X120648073Y-99562100D01*
X120648075Y-99562100D01*
X120753524Y-99562100D01*
X120753527Y-99562100D01*
X120842040Y-99538383D01*
X120869876Y-99539045D01*
X120897597Y-99536399D01*
X120904321Y-99539865D01*
X120911886Y-99540046D01*
X120934948Y-99555654D01*
X120959700Y-99568415D01*
X120966410Y-99576948D01*
X120969749Y-99579208D01*
X120981515Y-99596155D01*
X120988122Y-99607599D01*
X120988123Y-99607600D01*
X121004596Y-99675500D01*
X120988123Y-99731598D01*
X120987148Y-99733288D01*
X120937194Y-99819810D01*
X120937193Y-99819813D01*
X120909900Y-99921673D01*
X120909900Y-100027127D01*
X120937193Y-100128987D01*
X120969012Y-100184100D01*
X120988123Y-100217200D01*
X121004596Y-100285100D01*
X120988123Y-100341200D01*
X120937194Y-100429410D01*
X120937193Y-100429413D01*
X120909900Y-100531273D01*
X120909900Y-100636727D01*
X120924092Y-100689690D01*
X120937193Y-100738586D01*
X120937194Y-100738589D01*
X120988123Y-100826800D01*
X121004596Y-100894700D01*
X120988123Y-100950800D01*
X120937194Y-101039010D01*
X120937193Y-101039013D01*
X120909900Y-101140873D01*
X120909900Y-101246327D01*
X120937193Y-101348187D01*
X120989920Y-101439513D01*
X121064487Y-101514080D01*
X121155813Y-101566807D01*
X121257673Y-101594100D01*
X121257675Y-101594100D01*
X121363125Y-101594100D01*
X121363127Y-101594100D01*
X121464987Y-101566807D01*
X121553204Y-101515874D01*
X121621099Y-101499403D01*
X121677194Y-101515874D01*
X121765413Y-101566807D01*
X121867273Y-101594100D01*
X121867275Y-101594100D01*
X121972725Y-101594100D01*
X121972727Y-101594100D01*
X122074587Y-101566807D01*
X122162804Y-101515874D01*
X122230699Y-101499403D01*
X122286794Y-101515874D01*
X122375013Y-101566807D01*
X122476873Y-101594100D01*
X122476875Y-101594100D01*
X122582325Y-101594100D01*
X122582327Y-101594100D01*
X122588477Y-101592452D01*
X122658325Y-101594111D01*
X122716189Y-101633271D01*
X122743696Y-101697499D01*
X122740350Y-101744314D01*
X122738700Y-101750470D01*
X122738700Y-101750473D01*
X122738700Y-101855927D01*
X122765327Y-101955299D01*
X122765993Y-101957786D01*
X122765994Y-101957789D01*
X122816923Y-102046000D01*
X122833396Y-102113900D01*
X122816923Y-102170000D01*
X122765994Y-102258210D01*
X122765993Y-102258213D01*
X122738700Y-102360073D01*
X122738700Y-102465526D01*
X122765993Y-102567386D01*
X122765994Y-102567389D01*
X122816923Y-102655600D01*
X122833396Y-102723500D01*
X122816923Y-102779600D01*
X122765994Y-102867810D01*
X122765993Y-102867813D01*
X122738700Y-102969673D01*
X122738700Y-103075126D01*
X122765993Y-103176986D01*
X122765994Y-103176989D01*
X122816923Y-103265200D01*
X122833396Y-103333100D01*
X122816923Y-103389200D01*
X122765994Y-103477410D01*
X122765993Y-103477413D01*
X122738700Y-103579273D01*
X122738700Y-103684727D01*
X122740350Y-103690883D01*
X122765993Y-103786586D01*
X122765994Y-103786589D01*
X122816923Y-103874800D01*
X122833396Y-103942700D01*
X122816923Y-103998800D01*
X122765994Y-104087010D01*
X122765993Y-104087013D01*
X122738700Y-104188873D01*
X122738700Y-104294327D01*
X122758086Y-104366675D01*
X122765993Y-104396186D01*
X122765994Y-104396189D01*
X122774845Y-104411520D01*
X122809836Y-104472126D01*
X122816923Y-104484400D01*
X122833396Y-104552300D01*
X122816923Y-104608400D01*
X122765994Y-104696610D01*
X122765993Y-104696613D01*
X122738700Y-104798473D01*
X122738700Y-104903927D01*
X122765993Y-105005787D01*
X122818720Y-105097113D01*
X122893287Y-105171680D01*
X122984613Y-105224407D01*
X123086473Y-105251700D01*
X123086475Y-105251700D01*
X123191925Y-105251700D01*
X123191927Y-105251700D01*
X123293787Y-105224407D01*
X123382004Y-105173474D01*
X123449899Y-105157003D01*
X123505994Y-105173474D01*
X123594213Y-105224407D01*
X123696073Y-105251700D01*
X123696075Y-105251700D01*
X123801525Y-105251700D01*
X123801527Y-105251700D01*
X123903387Y-105224407D01*
X123991604Y-105173474D01*
X124059499Y-105157003D01*
X124115594Y-105173474D01*
X124203813Y-105224407D01*
X124305673Y-105251700D01*
X124305675Y-105251700D01*
X124411125Y-105251700D01*
X124411127Y-105251700D01*
X124512987Y-105224407D01*
X124601204Y-105173474D01*
X124669099Y-105157003D01*
X124725194Y-105173474D01*
X124813413Y-105224407D01*
X124915273Y-105251700D01*
X124915275Y-105251700D01*
X125020725Y-105251700D01*
X125020727Y-105251700D01*
X125122587Y-105224407D01*
X125210804Y-105173474D01*
X125278699Y-105157003D01*
X125334794Y-105173474D01*
X125423013Y-105224407D01*
X125524873Y-105251700D01*
X125524875Y-105251700D01*
X125630325Y-105251700D01*
X125630327Y-105251700D01*
X125636477Y-105250052D01*
X125706325Y-105251711D01*
X125764189Y-105290871D01*
X125791696Y-105355099D01*
X125788350Y-105401914D01*
X125786700Y-105408070D01*
X125786700Y-105408073D01*
X125786700Y-105513527D01*
X125809077Y-105597038D01*
X125813993Y-105615386D01*
X125813994Y-105615389D01*
X125864923Y-105703600D01*
X125881396Y-105771500D01*
X125864923Y-105827600D01*
X125813994Y-105915810D01*
X125813993Y-105915813D01*
X125786700Y-106017673D01*
X125786700Y-106123127D01*
X125813993Y-106224987D01*
X125866720Y-106316313D01*
X125941287Y-106390880D01*
X126032613Y-106443607D01*
X126134473Y-106470900D01*
X126134475Y-106470900D01*
X126239925Y-106470900D01*
X126239927Y-106470900D01*
X126341787Y-106443607D01*
X126430004Y-106392674D01*
X126497899Y-106376203D01*
X126553994Y-106392674D01*
X126642213Y-106443607D01*
X126744073Y-106470900D01*
X126744075Y-106470900D01*
X126849525Y-106470900D01*
X126849527Y-106470900D01*
X126951387Y-106443607D01*
X127042713Y-106390880D01*
X127117280Y-106316313D01*
X127170007Y-106224987D01*
X127197300Y-106123127D01*
X127197300Y-106017673D01*
X127170007Y-105915813D01*
X127119074Y-105827595D01*
X127102603Y-105759701D01*
X127119074Y-105703605D01*
X127170007Y-105615387D01*
X127197300Y-105513527D01*
X127197300Y-105408073D01*
X127195651Y-105401919D01*
X127197312Y-105332072D01*
X127236473Y-105274208D01*
X127300701Y-105246702D01*
X127347517Y-105250050D01*
X127353673Y-105251700D01*
X127353676Y-105251700D01*
X127459125Y-105251700D01*
X127459127Y-105251700D01*
X127560987Y-105224407D01*
X127649204Y-105173474D01*
X127717099Y-105157003D01*
X127773194Y-105173474D01*
X127861413Y-105224407D01*
X127963273Y-105251700D01*
X127963275Y-105251700D01*
X128068725Y-105251700D01*
X128068727Y-105251700D01*
X128170587Y-105224407D01*
X128258804Y-105173474D01*
X128326699Y-105157003D01*
X128382794Y-105173474D01*
X128471013Y-105224407D01*
X128572873Y-105251700D01*
X128572875Y-105251700D01*
X128678325Y-105251700D01*
X128678327Y-105251700D01*
X128780187Y-105224407D01*
X128868404Y-105173474D01*
X128936299Y-105157003D01*
X128992394Y-105173474D01*
X129080613Y-105224407D01*
X129182473Y-105251700D01*
X129182475Y-105251700D01*
X129287925Y-105251700D01*
X129287927Y-105251700D01*
X129389787Y-105224407D01*
X129478004Y-105173474D01*
X129545899Y-105157003D01*
X129601994Y-105173474D01*
X129690213Y-105224407D01*
X129792073Y-105251700D01*
X129792075Y-105251700D01*
X129897525Y-105251700D01*
X129897527Y-105251700D01*
X129999387Y-105224407D01*
X130087604Y-105173474D01*
X130155499Y-105157003D01*
X130211594Y-105173474D01*
X130299813Y-105224407D01*
X130401673Y-105251700D01*
X130401675Y-105251700D01*
X130507125Y-105251700D01*
X130507127Y-105251700D01*
X130608987Y-105224407D01*
X130657576Y-105196354D01*
X133647600Y-105196354D01*
X133647600Y-105295224D01*
X133673190Y-105390726D01*
X133673190Y-105390727D01*
X133696952Y-105431884D01*
X133713424Y-105499784D01*
X133696952Y-105555881D01*
X133673192Y-105597035D01*
X133673190Y-105597038D01*
X133673190Y-105597040D01*
X133647600Y-105692543D01*
X133647600Y-105791413D01*
X133673190Y-105886916D01*
X133722625Y-105972540D01*
X133792538Y-106042453D01*
X133878162Y-106091888D01*
X133973665Y-106117478D01*
X133973667Y-106117478D01*
X134072532Y-106117478D01*
X134072535Y-106117478D01*
X134168038Y-106091888D01*
X134253662Y-106042453D01*
X134323575Y-105972540D01*
X134373010Y-105886916D01*
X134398600Y-105791413D01*
X134398600Y-105692543D01*
X134373010Y-105597040D01*
X134349247Y-105555882D01*
X134332775Y-105487983D01*
X134349246Y-105431886D01*
X134373010Y-105390727D01*
X134398600Y-105295224D01*
X134398600Y-105196354D01*
X134373010Y-105100851D01*
X134323575Y-105015227D01*
X134253662Y-104945314D01*
X134168038Y-104895879D01*
X134132630Y-104886391D01*
X134105792Y-104879200D01*
X134105791Y-104879200D01*
X134072535Y-104870289D01*
X133973665Y-104870289D01*
X133929694Y-104882070D01*
X133929693Y-104882071D01*
X133878160Y-104895879D01*
X133878159Y-104895880D01*
X133792536Y-104945315D01*
X133722626Y-105015225D01*
X133673191Y-105100848D01*
X133673191Y-105100849D01*
X133673190Y-105100851D01*
X133647600Y-105196354D01*
X130657576Y-105196354D01*
X130700313Y-105171680D01*
X130774880Y-105097113D01*
X130827607Y-105005787D01*
X130854900Y-104903927D01*
X130854900Y-104798473D01*
X130827607Y-104696613D01*
X130774880Y-104605287D01*
X130700313Y-104530720D01*
X130608987Y-104477993D01*
X130507127Y-104450700D01*
X130401673Y-104450700D01*
X130299813Y-104477993D01*
X130299810Y-104477994D01*
X130211600Y-104528923D01*
X130143700Y-104545396D01*
X130087600Y-104528923D01*
X129999389Y-104477994D01*
X129999388Y-104477993D01*
X129999387Y-104477993D01*
X129897527Y-104450700D01*
X129792073Y-104450700D01*
X129690213Y-104477993D01*
X129690210Y-104477994D01*
X129602000Y-104528923D01*
X129534100Y-104545396D01*
X129478000Y-104528923D01*
X129389789Y-104477994D01*
X129389788Y-104477993D01*
X129389787Y-104477993D01*
X129287927Y-104450700D01*
X129182473Y-104450700D01*
X129080613Y-104477993D01*
X129080610Y-104477994D01*
X128992400Y-104528923D01*
X128924500Y-104545396D01*
X128868400Y-104528923D01*
X128780189Y-104477994D01*
X128780188Y-104477993D01*
X128780187Y-104477993D01*
X128678327Y-104450700D01*
X128572873Y-104450700D01*
X128471013Y-104477993D01*
X128471010Y-104477994D01*
X128382800Y-104528923D01*
X128314900Y-104545396D01*
X128258800Y-104528923D01*
X128170589Y-104477994D01*
X128170588Y-104477993D01*
X128170587Y-104477993D01*
X128068727Y-104450700D01*
X127963273Y-104450700D01*
X127861413Y-104477993D01*
X127861410Y-104477994D01*
X127773200Y-104528923D01*
X127705300Y-104545396D01*
X127649200Y-104528923D01*
X127560989Y-104477994D01*
X127560988Y-104477993D01*
X127560987Y-104477993D01*
X127459127Y-104450700D01*
X127353673Y-104450700D01*
X127353670Y-104450700D01*
X127347514Y-104452350D01*
X127277664Y-104450684D01*
X127219803Y-104411520D01*
X127192301Y-104347290D01*
X127191518Y-104327779D01*
X127192054Y-104313902D01*
X127197300Y-104294327D01*
X127197300Y-104188873D01*
X133609900Y-104188873D01*
X133609900Y-104294327D01*
X133629286Y-104366675D01*
X133637193Y-104396186D01*
X133637194Y-104396189D01*
X133646045Y-104411520D01*
X133689920Y-104487513D01*
X133764487Y-104562080D01*
X133855813Y-104614807D01*
X133957673Y-104642100D01*
X134063127Y-104642100D01*
X134164987Y-104614807D01*
X134256313Y-104562080D01*
X134330880Y-104487513D01*
X134347289Y-104459091D01*
X134677500Y-104459091D01*
X134677500Y-104577709D01*
X134708201Y-104692286D01*
X134767511Y-104795013D01*
X134851387Y-104878889D01*
X134954114Y-104938199D01*
X135068691Y-104968900D01*
X135068694Y-104968900D01*
X135187306Y-104968900D01*
X135187309Y-104968900D01*
X135301886Y-104938199D01*
X135404613Y-104878889D01*
X135488489Y-104795013D01*
X135547799Y-104692286D01*
X135555895Y-104662071D01*
X135592259Y-104602412D01*
X135655105Y-104571883D01*
X135724481Y-104580177D01*
X135737653Y-104586771D01*
X135786213Y-104614807D01*
X135888073Y-104642100D01*
X135888075Y-104642100D01*
X135993525Y-104642100D01*
X135993527Y-104642100D01*
X136095387Y-104614807D01*
X136183604Y-104563874D01*
X136251499Y-104547403D01*
X136307594Y-104563874D01*
X136395813Y-104614807D01*
X136497673Y-104642100D01*
X136497675Y-104642100D01*
X136603125Y-104642100D01*
X136603127Y-104642100D01*
X136704987Y-104614807D01*
X136793204Y-104563874D01*
X136861099Y-104547403D01*
X136917194Y-104563874D01*
X137005413Y-104614807D01*
X137107273Y-104642100D01*
X137107275Y-104642100D01*
X137212725Y-104642100D01*
X137212727Y-104642100D01*
X137314587Y-104614807D01*
X137402804Y-104563874D01*
X137470699Y-104547403D01*
X137526794Y-104563874D01*
X137615013Y-104614807D01*
X137716873Y-104642100D01*
X137716875Y-104642100D01*
X137822325Y-104642100D01*
X137822327Y-104642100D01*
X137828477Y-104640452D01*
X137898325Y-104642111D01*
X137956189Y-104681271D01*
X137983696Y-104745499D01*
X137980350Y-104792314D01*
X137978700Y-104798470D01*
X137978700Y-104798473D01*
X137978700Y-104903927D01*
X138000353Y-104984736D01*
X138005993Y-105005786D01*
X138005994Y-105005789D01*
X138056923Y-105094000D01*
X138073396Y-105161900D01*
X138056923Y-105218000D01*
X138005994Y-105306210D01*
X138005993Y-105306213D01*
X137978700Y-105408073D01*
X137978700Y-105513527D01*
X138001077Y-105597038D01*
X138005993Y-105615386D01*
X138005994Y-105615389D01*
X138056923Y-105703600D01*
X138073396Y-105771500D01*
X138056923Y-105827600D01*
X138005994Y-105915810D01*
X138005993Y-105915813D01*
X137978700Y-106017673D01*
X137978700Y-106123127D01*
X137980349Y-106129284D01*
X137978685Y-106199133D01*
X137939521Y-106256995D01*
X137875292Y-106284497D01*
X137828485Y-106281150D01*
X137822327Y-106279500D01*
X137716873Y-106279500D01*
X137615013Y-106306793D01*
X137615010Y-106306794D01*
X137526800Y-106357723D01*
X137458900Y-106374196D01*
X137402800Y-106357723D01*
X137314589Y-106306794D01*
X137314588Y-106306793D01*
X137314587Y-106306793D01*
X137212727Y-106279500D01*
X137107273Y-106279500D01*
X137005413Y-106306793D01*
X137005410Y-106306794D01*
X136917200Y-106357723D01*
X136849300Y-106374196D01*
X136793200Y-106357723D01*
X136704989Y-106306794D01*
X136704988Y-106306793D01*
X136704987Y-106306793D01*
X136603127Y-106279500D01*
X136497673Y-106279500D01*
X136395813Y-106306793D01*
X136395810Y-106306794D01*
X136307600Y-106357723D01*
X136239700Y-106374196D01*
X136183600Y-106357723D01*
X136095389Y-106306794D01*
X136095388Y-106306793D01*
X136095387Y-106306793D01*
X135993527Y-106279500D01*
X135888073Y-106279500D01*
X135786213Y-106306793D01*
X135786210Y-106306794D01*
X135698000Y-106357723D01*
X135630100Y-106374196D01*
X135574000Y-106357723D01*
X135485789Y-106306794D01*
X135485788Y-106306793D01*
X135485787Y-106306793D01*
X135383927Y-106279500D01*
X135278473Y-106279500D01*
X135176613Y-106306793D01*
X135176610Y-106306794D01*
X135085285Y-106359521D01*
X135010721Y-106434085D01*
X134957994Y-106525410D01*
X134957993Y-106525413D01*
X134930700Y-106627273D01*
X134930700Y-106732727D01*
X134957993Y-106834587D01*
X135010720Y-106925913D01*
X135085287Y-107000480D01*
X135176613Y-107053207D01*
X135278473Y-107080500D01*
X135278475Y-107080500D01*
X135383925Y-107080500D01*
X135383927Y-107080500D01*
X135485787Y-107053207D01*
X135574004Y-107002274D01*
X135641899Y-106985803D01*
X135697994Y-107002274D01*
X135786213Y-107053207D01*
X135888073Y-107080500D01*
X135888075Y-107080500D01*
X135993525Y-107080500D01*
X135993527Y-107080500D01*
X136095387Y-107053207D01*
X136183604Y-107002274D01*
X136251499Y-106985803D01*
X136307594Y-107002274D01*
X136395813Y-107053207D01*
X136497673Y-107080500D01*
X136497675Y-107080500D01*
X136603125Y-107080500D01*
X136603127Y-107080500D01*
X136704987Y-107053207D01*
X136793204Y-107002274D01*
X136861099Y-106985803D01*
X136917194Y-107002274D01*
X137005413Y-107053207D01*
X137107273Y-107080500D01*
X137107275Y-107080500D01*
X137212725Y-107080500D01*
X137212727Y-107080500D01*
X137314587Y-107053207D01*
X137402804Y-107002274D01*
X137470699Y-106985803D01*
X137526794Y-107002274D01*
X137615013Y-107053207D01*
X137716873Y-107080500D01*
X137716875Y-107080500D01*
X137822325Y-107080500D01*
X137822327Y-107080500D01*
X137924187Y-107053207D01*
X138012404Y-107002274D01*
X138080299Y-106985803D01*
X138136394Y-107002274D01*
X138224613Y-107053207D01*
X138326473Y-107080500D01*
X138326475Y-107080500D01*
X138431925Y-107080500D01*
X138431927Y-107080500D01*
X138533787Y-107053207D01*
X138622004Y-107002274D01*
X138689899Y-106985803D01*
X138745994Y-107002274D01*
X138834213Y-107053207D01*
X138936073Y-107080500D01*
X138936075Y-107080500D01*
X139041525Y-107080500D01*
X139041527Y-107080500D01*
X139143387Y-107053207D01*
X139231604Y-107002274D01*
X139299499Y-106985803D01*
X139355594Y-107002274D01*
X139443813Y-107053207D01*
X139545673Y-107080500D01*
X139545675Y-107080500D01*
X139651125Y-107080500D01*
X139651127Y-107080500D01*
X139752987Y-107053207D01*
X139844313Y-107000480D01*
X139918880Y-106925913D01*
X139971607Y-106834587D01*
X139998900Y-106732727D01*
X139998900Y-106627273D01*
X139971607Y-106525413D01*
X139920674Y-106437195D01*
X139904203Y-106369301D01*
X139920674Y-106313205D01*
X139971607Y-106224987D01*
X139998900Y-106123127D01*
X139998900Y-106017673D01*
X139971607Y-105915813D01*
X139920674Y-105827595D01*
X139904203Y-105759701D01*
X139920674Y-105703605D01*
X139971607Y-105615387D01*
X139998900Y-105513527D01*
X139998900Y-105408073D01*
X139971607Y-105306213D01*
X139920674Y-105217995D01*
X139904203Y-105150101D01*
X139920674Y-105094005D01*
X139971607Y-105005787D01*
X139998900Y-104903927D01*
X139998900Y-104798473D01*
X139971607Y-104696613D01*
X139920674Y-104608395D01*
X139919494Y-104603529D01*
X139916150Y-104599799D01*
X139911340Y-104569920D01*
X139904203Y-104540501D01*
X139905625Y-104534416D01*
X139905046Y-104530818D01*
X139909688Y-104517029D01*
X139914419Y-104496791D01*
X139918150Y-104488242D01*
X139918880Y-104487513D01*
X139971607Y-104396187D01*
X139979515Y-104366673D01*
X158620700Y-104366673D01*
X158620700Y-104472127D01*
X158647993Y-104573987D01*
X158700720Y-104665313D01*
X158775287Y-104739880D01*
X158866613Y-104792607D01*
X158968473Y-104819900D01*
X158968475Y-104819900D01*
X159073925Y-104819900D01*
X159073927Y-104819900D01*
X159175787Y-104792607D01*
X159267113Y-104739880D01*
X159341680Y-104665313D01*
X159394407Y-104573987D01*
X159421700Y-104472127D01*
X159421700Y-104366673D01*
X159394407Y-104264813D01*
X159341680Y-104173487D01*
X159267113Y-104098920D01*
X159175787Y-104046193D01*
X159073927Y-104018900D01*
X158968473Y-104018900D01*
X158866613Y-104046193D01*
X158866610Y-104046194D01*
X158775285Y-104098921D01*
X158700721Y-104173485D01*
X158647994Y-104264810D01*
X158647993Y-104264813D01*
X158620700Y-104366673D01*
X139979515Y-104366673D01*
X139998900Y-104294327D01*
X139998900Y-104188873D01*
X139971607Y-104087013D01*
X139920674Y-103998795D01*
X139904203Y-103930901D01*
X139920674Y-103874805D01*
X139971607Y-103786587D01*
X139998900Y-103684727D01*
X139998900Y-103579273D01*
X139971607Y-103477413D01*
X139920674Y-103389195D01*
X139904203Y-103321301D01*
X139920674Y-103265205D01*
X139971607Y-103176987D01*
X139998900Y-103075127D01*
X139998900Y-102969673D01*
X139971607Y-102867813D01*
X139920674Y-102779595D01*
X139904203Y-102711701D01*
X139920674Y-102655605D01*
X139971607Y-102567387D01*
X139998900Y-102465527D01*
X139998900Y-102360073D01*
X139971607Y-102258213D01*
X139920674Y-102169995D01*
X139904203Y-102102101D01*
X139920674Y-102046005D01*
X139971607Y-101957787D01*
X139998900Y-101855927D01*
X139998900Y-101750473D01*
X139971607Y-101648613D01*
X139920674Y-101560395D01*
X139904203Y-101492501D01*
X139920674Y-101436405D01*
X139971607Y-101348187D01*
X139998900Y-101246327D01*
X139998900Y-101140873D01*
X139971607Y-101039013D01*
X139918880Y-100947687D01*
X139844313Y-100873120D01*
X139752987Y-100820393D01*
X139651127Y-100793100D01*
X139545673Y-100793100D01*
X139443813Y-100820393D01*
X139443810Y-100820394D01*
X139355600Y-100871323D01*
X139287700Y-100887796D01*
X139231600Y-100871323D01*
X139143389Y-100820394D01*
X139143388Y-100820393D01*
X139143387Y-100820393D01*
X139041527Y-100793100D01*
X138936073Y-100793100D01*
X138834213Y-100820393D01*
X138834210Y-100820394D01*
X138746000Y-100871323D01*
X138678100Y-100887796D01*
X138622000Y-100871323D01*
X138533789Y-100820394D01*
X138533788Y-100820393D01*
X138533787Y-100820393D01*
X138431927Y-100793100D01*
X138326473Y-100793100D01*
X138224613Y-100820393D01*
X138224610Y-100820394D01*
X138133285Y-100873121D01*
X138058721Y-100947685D01*
X138005994Y-101039010D01*
X138005993Y-101039013D01*
X137978700Y-101140873D01*
X137978700Y-101246327D01*
X137987028Y-101277406D01*
X138005993Y-101348186D01*
X138005994Y-101348189D01*
X138056923Y-101436400D01*
X138073396Y-101504300D01*
X138056923Y-101560400D01*
X138005994Y-101648610D01*
X138005993Y-101648613D01*
X137978700Y-101750473D01*
X137978700Y-101855927D01*
X138005327Y-101955299D01*
X138005993Y-101957786D01*
X138005994Y-101957789D01*
X138056923Y-102046000D01*
X138073396Y-102113900D01*
X138056923Y-102170000D01*
X138005994Y-102258210D01*
X138005993Y-102258213D01*
X137978700Y-102360073D01*
X137978700Y-102465526D01*
X138005993Y-102567386D01*
X138005994Y-102567389D01*
X138056923Y-102655600D01*
X138073396Y-102723500D01*
X138056923Y-102779600D01*
X138005994Y-102867810D01*
X138005993Y-102867813D01*
X137978700Y-102969673D01*
X137978700Y-103075126D01*
X138005993Y-103176986D01*
X138005994Y-103176989D01*
X138056923Y-103265200D01*
X138073396Y-103333100D01*
X138056923Y-103389200D01*
X138005994Y-103477410D01*
X138005993Y-103477413D01*
X137978700Y-103579273D01*
X137978700Y-103684727D01*
X137980349Y-103690884D01*
X137978685Y-103760733D01*
X137939521Y-103818595D01*
X137875292Y-103846097D01*
X137828485Y-103842750D01*
X137822327Y-103841100D01*
X137716873Y-103841100D01*
X137615013Y-103868393D01*
X137615010Y-103868394D01*
X137526800Y-103919323D01*
X137458900Y-103935796D01*
X137402800Y-103919323D01*
X137314589Y-103868394D01*
X137314588Y-103868393D01*
X137314587Y-103868393D01*
X137212727Y-103841100D01*
X137107273Y-103841100D01*
X137005413Y-103868393D01*
X137005410Y-103868394D01*
X136917200Y-103919323D01*
X136849300Y-103935796D01*
X136793200Y-103919323D01*
X136704989Y-103868394D01*
X136704988Y-103868393D01*
X136704987Y-103868393D01*
X136603127Y-103841100D01*
X136497673Y-103841100D01*
X136395813Y-103868393D01*
X136395810Y-103868394D01*
X136307600Y-103919323D01*
X136239700Y-103935796D01*
X136183600Y-103919323D01*
X136095389Y-103868394D01*
X136095388Y-103868393D01*
X136095387Y-103868393D01*
X135993527Y-103841100D01*
X135888073Y-103841100D01*
X135786213Y-103868393D01*
X135786210Y-103868394D01*
X135694885Y-103921121D01*
X135620321Y-103995685D01*
X135567591Y-104087014D01*
X135566548Y-104089535D01*
X135565098Y-104091333D01*
X135563529Y-104094052D01*
X135563105Y-104093807D01*
X135522706Y-104143938D01*
X135456411Y-104166001D01*
X135389988Y-104149467D01*
X135301886Y-104098601D01*
X135187309Y-104067900D01*
X135068691Y-104067900D01*
X134954114Y-104098601D01*
X134954112Y-104098601D01*
X134954112Y-104098602D01*
X134851387Y-104157911D01*
X134851384Y-104157913D01*
X134767513Y-104241784D01*
X134767511Y-104241787D01*
X134708201Y-104344514D01*
X134677500Y-104459091D01*
X134347289Y-104459091D01*
X134383607Y-104396187D01*
X134410900Y-104294327D01*
X134410900Y-104188873D01*
X134383607Y-104087013D01*
X134330880Y-103995687D01*
X134256313Y-103921120D01*
X134164987Y-103868393D01*
X134063127Y-103841100D01*
X133957673Y-103841100D01*
X133855813Y-103868393D01*
X133855810Y-103868394D01*
X133764485Y-103921121D01*
X133689921Y-103995685D01*
X133637194Y-104087010D01*
X133637193Y-104087013D01*
X133609900Y-104188873D01*
X127197300Y-104188873D01*
X127170007Y-104087013D01*
X127119074Y-103998795D01*
X127102603Y-103930901D01*
X127119074Y-103874805D01*
X127170007Y-103786587D01*
X127197300Y-103684727D01*
X127197300Y-103579273D01*
X127170007Y-103477413D01*
X127119074Y-103389195D01*
X127102603Y-103321301D01*
X127119074Y-103265205D01*
X127170007Y-103176987D01*
X127197300Y-103075127D01*
X127197300Y-102969673D01*
X127170007Y-102867813D01*
X127119074Y-102779595D01*
X127102603Y-102711701D01*
X127119074Y-102655605D01*
X127170007Y-102567387D01*
X127197300Y-102465527D01*
X127197300Y-102360073D01*
X127170007Y-102258213D01*
X127119074Y-102169995D01*
X127102603Y-102102101D01*
X127119074Y-102046005D01*
X127170007Y-101957787D01*
X127197300Y-101855927D01*
X127197300Y-101750473D01*
X127170007Y-101648613D01*
X127119074Y-101560395D01*
X127102603Y-101492501D01*
X127119074Y-101436405D01*
X127170007Y-101348187D01*
X127197300Y-101246327D01*
X127197300Y-101140873D01*
X127170007Y-101039013D01*
X127117280Y-100947687D01*
X127042713Y-100873120D01*
X126951387Y-100820393D01*
X126849527Y-100793100D01*
X126744073Y-100793100D01*
X126744070Y-100793100D01*
X126737914Y-100794750D01*
X126668064Y-100793084D01*
X126610203Y-100753920D01*
X126601876Y-100734473D01*
X161041900Y-100734473D01*
X161041900Y-100839927D01*
X161069193Y-100941787D01*
X161121920Y-101033113D01*
X161196487Y-101107680D01*
X161287813Y-101160407D01*
X161389673Y-101187700D01*
X161389675Y-101187700D01*
X161495125Y-101187700D01*
X161495127Y-101187700D01*
X161596987Y-101160407D01*
X161662509Y-101122577D01*
X161730404Y-101106105D01*
X161796431Y-101128956D01*
X161839623Y-101183877D01*
X161846266Y-101253430D01*
X161839072Y-101277406D01*
X161837995Y-101280006D01*
X161837993Y-101280012D01*
X161837993Y-101280013D01*
X161810700Y-101381873D01*
X161810700Y-101487327D01*
X161831997Y-101566807D01*
X161837993Y-101589186D01*
X161837994Y-101589189D01*
X161888923Y-101677400D01*
X161905396Y-101745300D01*
X161888923Y-101801400D01*
X161837994Y-101889610D01*
X161837993Y-101889613D01*
X161810700Y-101991473D01*
X161810700Y-102096927D01*
X161812087Y-102102101D01*
X161837993Y-102198786D01*
X161837994Y-102198789D01*
X161888923Y-102287000D01*
X161905396Y-102354900D01*
X161888923Y-102411000D01*
X161837994Y-102499210D01*
X161837993Y-102499213D01*
X161810700Y-102601073D01*
X161810700Y-102706527D01*
X161812087Y-102711701D01*
X161837993Y-102808386D01*
X161837994Y-102808389D01*
X161888923Y-102896600D01*
X161905396Y-102964500D01*
X161888923Y-103020600D01*
X161837994Y-103108810D01*
X161837993Y-103108813D01*
X161810700Y-103210673D01*
X161810700Y-103316127D01*
X161827865Y-103380186D01*
X161837993Y-103417986D01*
X161837994Y-103417989D01*
X161888923Y-103506200D01*
X161905396Y-103574100D01*
X161888923Y-103630200D01*
X161837994Y-103718410D01*
X161837993Y-103718413D01*
X161810700Y-103820273D01*
X161810700Y-103925727D01*
X161837993Y-104027587D01*
X161878993Y-104098602D01*
X161888923Y-104115800D01*
X161905396Y-104183700D01*
X161888923Y-104239798D01*
X161887776Y-104241787D01*
X161837994Y-104328010D01*
X161837993Y-104328013D01*
X161810700Y-104429873D01*
X161810700Y-104535327D01*
X161831997Y-104614807D01*
X161837993Y-104637186D01*
X161837994Y-104637189D01*
X161840836Y-104642111D01*
X161890720Y-104728513D01*
X161965287Y-104803080D01*
X162056613Y-104855807D01*
X162158473Y-104883100D01*
X162158475Y-104883100D01*
X162263925Y-104883100D01*
X162263927Y-104883100D01*
X162365787Y-104855807D01*
X162454004Y-104804874D01*
X162521899Y-104788403D01*
X162577994Y-104804874D01*
X162666213Y-104855807D01*
X162768073Y-104883100D01*
X162768075Y-104883100D01*
X162873525Y-104883100D01*
X162873527Y-104883100D01*
X162975387Y-104855807D01*
X163066713Y-104803080D01*
X163141280Y-104728513D01*
X163194007Y-104637187D01*
X163221300Y-104535327D01*
X163221300Y-104429873D01*
X163194007Y-104328013D01*
X163143074Y-104239795D01*
X163126603Y-104171901D01*
X163143074Y-104115805D01*
X163194007Y-104027587D01*
X163221300Y-103925727D01*
X163221300Y-103820273D01*
X163194007Y-103718413D01*
X163143074Y-103630195D01*
X163126603Y-103562301D01*
X163143074Y-103506205D01*
X163194007Y-103417987D01*
X163221300Y-103316127D01*
X163221300Y-103210673D01*
X163194007Y-103108813D01*
X163143074Y-103020595D01*
X163126603Y-102952701D01*
X163143074Y-102896605D01*
X163194007Y-102808387D01*
X163221300Y-102706527D01*
X163221300Y-102601073D01*
X163194007Y-102499213D01*
X163143074Y-102410995D01*
X163126603Y-102343101D01*
X163143074Y-102287005D01*
X163194007Y-102198787D01*
X163221300Y-102096927D01*
X163221300Y-101991473D01*
X163194007Y-101889613D01*
X163143074Y-101801395D01*
X163126603Y-101733501D01*
X163143074Y-101677405D01*
X163194007Y-101589187D01*
X163221300Y-101487327D01*
X163221300Y-101381873D01*
X163194007Y-101280013D01*
X163143074Y-101191795D01*
X163126603Y-101123901D01*
X163143074Y-101067805D01*
X163194007Y-100979587D01*
X163221300Y-100877727D01*
X163221300Y-100772273D01*
X163194007Y-100670413D01*
X163141280Y-100579087D01*
X163066713Y-100504520D01*
X162975387Y-100451793D01*
X162873527Y-100424500D01*
X162768073Y-100424500D01*
X162666213Y-100451793D01*
X162666210Y-100451794D01*
X162578000Y-100502723D01*
X162510100Y-100519196D01*
X162454000Y-100502723D01*
X162365789Y-100451794D01*
X162365788Y-100451793D01*
X162365787Y-100451793D01*
X162263927Y-100424500D01*
X162158473Y-100424500D01*
X162056613Y-100451793D01*
X162056610Y-100451794D01*
X161965285Y-100504521D01*
X161933381Y-100536426D01*
X161872058Y-100569911D01*
X161802366Y-100564927D01*
X161758019Y-100536426D01*
X161688314Y-100466721D01*
X161688313Y-100466720D01*
X161596987Y-100413993D01*
X161495127Y-100386700D01*
X161389673Y-100386700D01*
X161287813Y-100413993D01*
X161287810Y-100413994D01*
X161196485Y-100466721D01*
X161121921Y-100541285D01*
X161069194Y-100632610D01*
X161069193Y-100632613D01*
X161041900Y-100734473D01*
X126601876Y-100734473D01*
X126582701Y-100689690D01*
X126586051Y-100642878D01*
X126587700Y-100636727D01*
X126587700Y-100531273D01*
X126560407Y-100429413D01*
X126507680Y-100338087D01*
X126433113Y-100263520D01*
X126341787Y-100210793D01*
X126239927Y-100183500D01*
X126134473Y-100183500D01*
X126032613Y-100210793D01*
X126032610Y-100210794D01*
X125944400Y-100261723D01*
X125876500Y-100278196D01*
X125820400Y-100261723D01*
X125732189Y-100210794D01*
X125732188Y-100210793D01*
X125732187Y-100210793D01*
X125630327Y-100183500D01*
X125524873Y-100183500D01*
X125423013Y-100210793D01*
X125423010Y-100210794D01*
X125334800Y-100261723D01*
X125266900Y-100278196D01*
X125210800Y-100261723D01*
X125122589Y-100210794D01*
X125122588Y-100210793D01*
X125122587Y-100210793D01*
X125020727Y-100183500D01*
X124915273Y-100183500D01*
X124813413Y-100210793D01*
X124813410Y-100210794D01*
X124725200Y-100261723D01*
X124657300Y-100278196D01*
X124601200Y-100261723D01*
X124512989Y-100210794D01*
X124512988Y-100210793D01*
X124512987Y-100210793D01*
X124411127Y-100183500D01*
X124305673Y-100183500D01*
X124305670Y-100183500D01*
X124299514Y-100185150D01*
X124229664Y-100183484D01*
X124171803Y-100144320D01*
X124144301Y-100080090D01*
X124147651Y-100033278D01*
X124149300Y-100027127D01*
X124149300Y-99921673D01*
X124122007Y-99819813D01*
X124071075Y-99731597D01*
X124070899Y-99730873D01*
X126942700Y-99730873D01*
X126942700Y-99836327D01*
X126969993Y-99938187D01*
X127022720Y-100029513D01*
X127097287Y-100104080D01*
X127188613Y-100156807D01*
X127290473Y-100184100D01*
X127290475Y-100184100D01*
X127395925Y-100184100D01*
X127395927Y-100184100D01*
X127497787Y-100156807D01*
X127589113Y-100104080D01*
X127663680Y-100029513D01*
X127716407Y-99938187D01*
X127743700Y-99836327D01*
X127743700Y-99730873D01*
X130142700Y-99730873D01*
X130142700Y-99836327D01*
X130169993Y-99938187D01*
X130222720Y-100029513D01*
X130297287Y-100104080D01*
X130388613Y-100156807D01*
X130490473Y-100184100D01*
X130490475Y-100184100D01*
X130595925Y-100184100D01*
X130595927Y-100184100D01*
X130697787Y-100156807D01*
X130789113Y-100104080D01*
X130863680Y-100029513D01*
X130916407Y-99938187D01*
X130943700Y-99836327D01*
X130943700Y-99730873D01*
X130916407Y-99629013D01*
X130863680Y-99537687D01*
X130789113Y-99463120D01*
X130722259Y-99424522D01*
X130697789Y-99410394D01*
X130697788Y-99410393D01*
X130697787Y-99410393D01*
X130595927Y-99383100D01*
X130490473Y-99383100D01*
X130388613Y-99410393D01*
X130388610Y-99410394D01*
X130297285Y-99463121D01*
X130222721Y-99537685D01*
X130169994Y-99629010D01*
X130169993Y-99629013D01*
X130142700Y-99730873D01*
X127743700Y-99730873D01*
X127716407Y-99629013D01*
X127663680Y-99537687D01*
X127589113Y-99463120D01*
X127522259Y-99424522D01*
X127497789Y-99410394D01*
X127497788Y-99410393D01*
X127497787Y-99410393D01*
X127395927Y-99383100D01*
X127290473Y-99383100D01*
X127188613Y-99410393D01*
X127188610Y-99410394D01*
X127097285Y-99463121D01*
X127022721Y-99537685D01*
X126969994Y-99629010D01*
X126969993Y-99629013D01*
X126942700Y-99730873D01*
X124070899Y-99730873D01*
X124054603Y-99663702D01*
X124071074Y-99607605D01*
X124122007Y-99519387D01*
X124149300Y-99417527D01*
X124149300Y-99312073D01*
X124122007Y-99210213D01*
X124071074Y-99121995D01*
X124069138Y-99114013D01*
X124063974Y-99107625D01*
X124061023Y-99080564D01*
X124054603Y-99054101D01*
X124057095Y-99044544D01*
X124056400Y-99038167D01*
X124064640Y-99015614D01*
X124067496Y-99004663D01*
X124069252Y-99001140D01*
X124069280Y-99001113D01*
X124109833Y-98930873D01*
X129342700Y-98930873D01*
X129342700Y-99036327D01*
X129369993Y-99138187D01*
X129422720Y-99229513D01*
X129497287Y-99304080D01*
X129588613Y-99356807D01*
X129690473Y-99384100D01*
X129690475Y-99384100D01*
X129795925Y-99384100D01*
X129795927Y-99384100D01*
X129897787Y-99356807D01*
X129989113Y-99304080D01*
X130063680Y-99229513D01*
X130116407Y-99138187D01*
X130143700Y-99036327D01*
X130143700Y-98930873D01*
X130942700Y-98930873D01*
X130942700Y-99036327D01*
X130969993Y-99138187D01*
X131022720Y-99229513D01*
X131097287Y-99304080D01*
X131188613Y-99356807D01*
X131290473Y-99384100D01*
X131290475Y-99384100D01*
X131395925Y-99384100D01*
X131395927Y-99384100D01*
X131497787Y-99356807D01*
X131589113Y-99304080D01*
X131663680Y-99229513D01*
X131716407Y-99138187D01*
X131743700Y-99036327D01*
X131743700Y-98930873D01*
X131723336Y-98854873D01*
X134016300Y-98854873D01*
X134016300Y-98960327D01*
X134043593Y-99062187D01*
X134096320Y-99153513D01*
X134170887Y-99228080D01*
X134262213Y-99280807D01*
X134364073Y-99308100D01*
X134364075Y-99308100D01*
X134469525Y-99308100D01*
X134469527Y-99308100D01*
X134571387Y-99280807D01*
X134662713Y-99228080D01*
X134737280Y-99153513D01*
X134790007Y-99062187D01*
X134797729Y-99033366D01*
X135533613Y-99033366D01*
X135533613Y-99138820D01*
X135560906Y-99240680D01*
X135613633Y-99332006D01*
X135688200Y-99406573D01*
X135779526Y-99459300D01*
X135881386Y-99486593D01*
X135881388Y-99486593D01*
X135986838Y-99486593D01*
X135986840Y-99486593D01*
X136088700Y-99459300D01*
X136088707Y-99459295D01*
X136091573Y-99458109D01*
X136094197Y-99457826D01*
X136096551Y-99457196D01*
X136096649Y-99457562D01*
X136161042Y-99450636D01*
X136223523Y-99481907D01*
X136259179Y-99541994D01*
X136258809Y-99604757D01*
X136257213Y-99610713D01*
X136251500Y-99632036D01*
X136251500Y-99737490D01*
X136278793Y-99839350D01*
X136331520Y-99930676D01*
X136406087Y-100005243D01*
X136497413Y-100057970D01*
X136599273Y-100085263D01*
X136599275Y-100085263D01*
X136704725Y-100085263D01*
X136704727Y-100085263D01*
X136806587Y-100057970D01*
X136897913Y-100005243D01*
X136972480Y-99930676D01*
X137025207Y-99839350D01*
X137035451Y-99801118D01*
X137071813Y-99741459D01*
X137134660Y-99710928D01*
X137204036Y-99719222D01*
X137257914Y-99763706D01*
X137275000Y-99801117D01*
X137294793Y-99874988D01*
X137294794Y-99874989D01*
X137347520Y-99966313D01*
X137422087Y-100040880D01*
X137513413Y-100093607D01*
X137615273Y-100120900D01*
X137615275Y-100120900D01*
X137720725Y-100120900D01*
X137720727Y-100120900D01*
X137822587Y-100093607D01*
X137913913Y-100040880D01*
X137988480Y-99966313D01*
X138041207Y-99874987D01*
X138068500Y-99773127D01*
X138068500Y-99667673D01*
X138041207Y-99565813D01*
X137988480Y-99474487D01*
X137913913Y-99399920D01*
X137822587Y-99347193D01*
X137720727Y-99319900D01*
X137615273Y-99319900D01*
X137513413Y-99347193D01*
X137513410Y-99347194D01*
X137422085Y-99399921D01*
X137347521Y-99474485D01*
X137294794Y-99565810D01*
X137294793Y-99565811D01*
X137284549Y-99604045D01*
X137248183Y-99663706D01*
X137185336Y-99694234D01*
X137115961Y-99685939D01*
X137062083Y-99641453D01*
X137045000Y-99604047D01*
X137025207Y-99530176D01*
X136972480Y-99438850D01*
X136897913Y-99364283D01*
X136814608Y-99316187D01*
X136809939Y-99313491D01*
X141179900Y-99313491D01*
X141179900Y-99432109D01*
X141210601Y-99546686D01*
X141269911Y-99649413D01*
X141353787Y-99733289D01*
X141456514Y-99792599D01*
X141571091Y-99823300D01*
X141571094Y-99823300D01*
X141689706Y-99823300D01*
X141689709Y-99823300D01*
X141804286Y-99792599D01*
X141907013Y-99733289D01*
X141990889Y-99649413D01*
X142050199Y-99546686D01*
X142080900Y-99432109D01*
X142080900Y-99313491D01*
X142052995Y-99209349D01*
X142054658Y-99139505D01*
X142093820Y-99081642D01*
X142158048Y-99054137D01*
X142179146Y-99054263D01*
X142179146Y-99054100D01*
X142292725Y-99054100D01*
X142292727Y-99054100D01*
X142394587Y-99026807D01*
X142485913Y-98974080D01*
X142560480Y-98899513D01*
X142613207Y-98808187D01*
X142640500Y-98706327D01*
X142640500Y-98600873D01*
X142613207Y-98499013D01*
X142612652Y-98498053D01*
X142612431Y-98497142D01*
X142610096Y-98491503D01*
X142610975Y-98491138D01*
X142596177Y-98430154D01*
X142619026Y-98364126D01*
X142673946Y-98320933D01*
X142743499Y-98314289D01*
X142782035Y-98328661D01*
X142847413Y-98366407D01*
X142949273Y-98393700D01*
X142949275Y-98393700D01*
X143054725Y-98393700D01*
X143054727Y-98393700D01*
X143156587Y-98366407D01*
X143247913Y-98313680D01*
X143322480Y-98239113D01*
X143375207Y-98147787D01*
X143402500Y-98045927D01*
X143402500Y-98045918D01*
X143403561Y-98037867D01*
X143405222Y-98038085D01*
X143422185Y-97980318D01*
X143474989Y-97934563D01*
X143494398Y-97927584D01*
X143562987Y-97909207D01*
X143654313Y-97856480D01*
X143728880Y-97781913D01*
X143781607Y-97690587D01*
X143808900Y-97588727D01*
X143808900Y-97483273D01*
X143781607Y-97381413D01*
X143758321Y-97341080D01*
X143741848Y-97273184D01*
X143761716Y-97215775D01*
X143760059Y-97214818D01*
X143764121Y-97207781D01*
X143764123Y-97207780D01*
X143816850Y-97116454D01*
X143844143Y-97014594D01*
X143844143Y-96909140D01*
X143816850Y-96807280D01*
X143764123Y-96715954D01*
X143689556Y-96641387D01*
X143665808Y-96627676D01*
X143617595Y-96577110D01*
X143604373Y-96508503D01*
X143630341Y-96443638D01*
X143665806Y-96412907D01*
X143735813Y-96372489D01*
X143819689Y-96288613D01*
X143878999Y-96185886D01*
X143909700Y-96071309D01*
X143909700Y-95952691D01*
X143878999Y-95838114D01*
X143819689Y-95735387D01*
X143735813Y-95651511D01*
X143633086Y-95592201D01*
X143518509Y-95561500D01*
X143399891Y-95561500D01*
X143285314Y-95592201D01*
X143285312Y-95592201D01*
X143285312Y-95592202D01*
X143182587Y-95651511D01*
X143182584Y-95651513D01*
X143098713Y-95735384D01*
X143098711Y-95735387D01*
X143039401Y-95838114D01*
X143008700Y-95952691D01*
X143008700Y-96071309D01*
X143039401Y-96185886D01*
X143098711Y-96288613D01*
X143182587Y-96372489D01*
X143237032Y-96403923D01*
X143285246Y-96454489D01*
X143298470Y-96523096D01*
X143272502Y-96587960D01*
X143237033Y-96618695D01*
X143197728Y-96641388D01*
X143123164Y-96715952D01*
X143070437Y-96807277D01*
X143070436Y-96807280D01*
X143043143Y-96909140D01*
X143043143Y-97014594D01*
X143070436Y-97116454D01*
X143093721Y-97156786D01*
X143110194Y-97224683D01*
X143090324Y-97282091D01*
X143091984Y-97283049D01*
X143087921Y-97290085D01*
X143087920Y-97290087D01*
X143072313Y-97317120D01*
X143035194Y-97381410D01*
X143035193Y-97381413D01*
X143007900Y-97483273D01*
X143006839Y-97491333D01*
X143005177Y-97491114D01*
X142988215Y-97548881D01*
X142935411Y-97594636D01*
X142915994Y-97601617D01*
X142847411Y-97619993D01*
X142847410Y-97619994D01*
X142756085Y-97672721D01*
X142681521Y-97747285D01*
X142628794Y-97838610D01*
X142628793Y-97838613D01*
X142601500Y-97940473D01*
X142601500Y-98045927D01*
X142624262Y-98130875D01*
X142628793Y-98147786D01*
X142628794Y-98147789D01*
X142629349Y-98148750D01*
X142629570Y-98149663D01*
X142631904Y-98155297D01*
X142631025Y-98155660D01*
X142645822Y-98216650D01*
X142622970Y-98282677D01*
X142568049Y-98325867D01*
X142498495Y-98332509D01*
X142459962Y-98318137D01*
X142394589Y-98280394D01*
X142394588Y-98280393D01*
X142394587Y-98280393D01*
X142292727Y-98253100D01*
X142187273Y-98253100D01*
X142085413Y-98280393D01*
X142085410Y-98280394D01*
X141994085Y-98333121D01*
X141919521Y-98407685D01*
X141866794Y-98499010D01*
X141866793Y-98499013D01*
X141839500Y-98600873D01*
X141839500Y-98706327D01*
X141855385Y-98765613D01*
X141857845Y-98774791D01*
X141856182Y-98844641D01*
X141817019Y-98902503D01*
X141752791Y-98930007D01*
X141705978Y-98926659D01*
X141689710Y-98922300D01*
X141689709Y-98922300D01*
X141571091Y-98922300D01*
X141456514Y-98953001D01*
X141456512Y-98953001D01*
X141456512Y-98953002D01*
X141353787Y-99012311D01*
X141353784Y-99012313D01*
X141269913Y-99096184D01*
X141269911Y-99096187D01*
X141236814Y-99153513D01*
X141210601Y-99198914D01*
X141179900Y-99313491D01*
X136809939Y-99313491D01*
X136806589Y-99311557D01*
X136806588Y-99311556D01*
X136806587Y-99311556D01*
X136704727Y-99284263D01*
X136599273Y-99284263D01*
X136497413Y-99311556D01*
X136497412Y-99311556D01*
X136497410Y-99311557D01*
X136494525Y-99312752D01*
X136491896Y-99313034D01*
X136489562Y-99313660D01*
X136489464Y-99313295D01*
X136425056Y-99320217D01*
X136362578Y-99288938D01*
X136326929Y-99228847D01*
X136323237Y-99191929D01*
X136323900Y-99178799D01*
X136334613Y-99138820D01*
X136334613Y-99033366D01*
X136331784Y-99022810D01*
X136332753Y-99003655D01*
X136340705Y-98980893D01*
X136344420Y-98957067D01*
X136352020Y-98948502D01*
X136355797Y-98937694D01*
X136374793Y-98922843D01*
X136390799Y-98904810D01*
X136401821Y-98901715D01*
X136410843Y-98894663D01*
X136434854Y-98892440D01*
X136458067Y-98885923D01*
X136469974Y-98889189D01*
X136480415Y-98888223D01*
X136496055Y-98896343D01*
X136518591Y-98902525D01*
X136594324Y-98946250D01*
X136696184Y-98973543D01*
X136696186Y-98973543D01*
X136801636Y-98973543D01*
X136801638Y-98973543D01*
X136903498Y-98946250D01*
X136994824Y-98893523D01*
X137069391Y-98818956D01*
X137122118Y-98727630D01*
X137149411Y-98625770D01*
X137149411Y-98520316D01*
X137122118Y-98418456D01*
X137069391Y-98327130D01*
X136994824Y-98252563D01*
X136903498Y-98199836D01*
X136801638Y-98172543D01*
X136696184Y-98172543D01*
X136594324Y-98199836D01*
X136594321Y-98199837D01*
X136502996Y-98252564D01*
X136428432Y-98327128D01*
X136375705Y-98418453D01*
X136375704Y-98418456D01*
X136348411Y-98520316D01*
X136348411Y-98625768D01*
X136349368Y-98633039D01*
X136338600Y-98702074D01*
X136292218Y-98754329D01*
X136224949Y-98773212D01*
X136164429Y-98756608D01*
X136088700Y-98712886D01*
X135986840Y-98685593D01*
X135881386Y-98685593D01*
X135779526Y-98712886D01*
X135779523Y-98712887D01*
X135688198Y-98765614D01*
X135613634Y-98840178D01*
X135560907Y-98931503D01*
X135560906Y-98931506D01*
X135533613Y-99033366D01*
X134797729Y-99033366D01*
X134817300Y-98960327D01*
X134817300Y-98854873D01*
X134790007Y-98753013D01*
X134737280Y-98661687D01*
X134662713Y-98587120D01*
X134571387Y-98534393D01*
X134469527Y-98507100D01*
X134364073Y-98507100D01*
X134262213Y-98534393D01*
X134262210Y-98534394D01*
X134170885Y-98587121D01*
X134096321Y-98661685D01*
X134043594Y-98753010D01*
X134043593Y-98753013D01*
X134016300Y-98854873D01*
X131723336Y-98854873D01*
X131716407Y-98829013D01*
X131663680Y-98737687D01*
X131589113Y-98663120D01*
X131497787Y-98610393D01*
X131395927Y-98583100D01*
X131290473Y-98583100D01*
X131188613Y-98610393D01*
X131188610Y-98610394D01*
X131097285Y-98663121D01*
X131022721Y-98737685D01*
X130969994Y-98829010D01*
X130969993Y-98829013D01*
X130942700Y-98930873D01*
X130143700Y-98930873D01*
X130116407Y-98829013D01*
X130063680Y-98737687D01*
X129989113Y-98663120D01*
X129897787Y-98610393D01*
X129795927Y-98583100D01*
X129690473Y-98583100D01*
X129588613Y-98610393D01*
X129588610Y-98610394D01*
X129497285Y-98663121D01*
X129422721Y-98737685D01*
X129369994Y-98829010D01*
X129369993Y-98829013D01*
X129342700Y-98930873D01*
X124109833Y-98930873D01*
X124122007Y-98909787D01*
X124149300Y-98807927D01*
X124149300Y-98702473D01*
X124122007Y-98600613D01*
X124071074Y-98512395D01*
X124054603Y-98444501D01*
X124071074Y-98388405D01*
X124122007Y-98300187D01*
X124149300Y-98198327D01*
X124149300Y-98092873D01*
X124122007Y-97991013D01*
X124069280Y-97899687D01*
X123994713Y-97825120D01*
X123903387Y-97772393D01*
X123801527Y-97745100D01*
X123696073Y-97745100D01*
X123594213Y-97772393D01*
X123594210Y-97772394D01*
X123506000Y-97823323D01*
X123438100Y-97839796D01*
X123382000Y-97823323D01*
X123359606Y-97810394D01*
X123314064Y-97784100D01*
X123293789Y-97772394D01*
X123293788Y-97772393D01*
X123293787Y-97772393D01*
X123191927Y-97745100D01*
X123086473Y-97745100D01*
X122984613Y-97772393D01*
X122984610Y-97772394D01*
X122896400Y-97823323D01*
X122828500Y-97839796D01*
X122772400Y-97823323D01*
X122750006Y-97810394D01*
X122704464Y-97784100D01*
X122684189Y-97772394D01*
X122684188Y-97772393D01*
X122684187Y-97772393D01*
X122582327Y-97745100D01*
X122476873Y-97745100D01*
X122375013Y-97772393D01*
X122375010Y-97772394D01*
X122286800Y-97823323D01*
X122218900Y-97839796D01*
X122162800Y-97823323D01*
X122140406Y-97810394D01*
X122094864Y-97784100D01*
X122074589Y-97772394D01*
X122074588Y-97772393D01*
X122074587Y-97772393D01*
X121972727Y-97745100D01*
X121867273Y-97745100D01*
X121765413Y-97772393D01*
X121765410Y-97772394D01*
X121677200Y-97823323D01*
X121609300Y-97839796D01*
X121553200Y-97823323D01*
X121530806Y-97810394D01*
X121485264Y-97784100D01*
X121464989Y-97772394D01*
X121464988Y-97772393D01*
X121464987Y-97772393D01*
X121363127Y-97745100D01*
X121257673Y-97745100D01*
X121169162Y-97768816D01*
X121099312Y-97767153D01*
X121041450Y-97727990D01*
X121029682Y-97711040D01*
X121021280Y-97696487D01*
X120946713Y-97621920D01*
X120855387Y-97569193D01*
X120753527Y-97541900D01*
X120648073Y-97541900D01*
X120546213Y-97569193D01*
X120546210Y-97569194D01*
X120502144Y-97594636D01*
X120463664Y-97616853D01*
X120458000Y-97620123D01*
X120390100Y-97636596D01*
X120334000Y-97620123D01*
X120328336Y-97616853D01*
X120245787Y-97569193D01*
X120143927Y-97541900D01*
X120038473Y-97541900D01*
X119936613Y-97569193D01*
X119936612Y-97569193D01*
X119839215Y-97625425D01*
X119771315Y-97641897D01*
X119715219Y-97625425D01*
X119636187Y-97579796D01*
X119534327Y-97552503D01*
X119428873Y-97552503D01*
X119327013Y-97579796D01*
X119327010Y-97579797D01*
X119235685Y-97632524D01*
X119161121Y-97707088D01*
X119108394Y-97798413D01*
X119108393Y-97798416D01*
X119081100Y-97900276D01*
X114200500Y-97900276D01*
X114200500Y-96530873D01*
X126942700Y-96530873D01*
X126942700Y-96636327D01*
X126944057Y-96641389D01*
X126969993Y-96738186D01*
X126969994Y-96738189D01*
X127022721Y-96829514D01*
X127089126Y-96895919D01*
X127122611Y-96957242D01*
X127117627Y-97026934D01*
X127089126Y-97071281D01*
X127022721Y-97137685D01*
X126969994Y-97229010D01*
X126969993Y-97229013D01*
X126942700Y-97330873D01*
X126942700Y-97436327D01*
X126969993Y-97538187D01*
X127020359Y-97625424D01*
X127022721Y-97629514D01*
X127089127Y-97695920D01*
X127122612Y-97757243D01*
X127117628Y-97826935D01*
X127089127Y-97871282D01*
X127022723Y-97937685D01*
X126969996Y-98029010D01*
X126969995Y-98029013D01*
X126942702Y-98130873D01*
X126942702Y-98236327D01*
X126969995Y-98338187D01*
X127022722Y-98429513D01*
X127097289Y-98504080D01*
X127188615Y-98556807D01*
X127290475Y-98584100D01*
X127290477Y-98584100D01*
X127395927Y-98584100D01*
X127395929Y-98584100D01*
X127497789Y-98556807D01*
X127589115Y-98504080D01*
X127663682Y-98429513D01*
X127716409Y-98338187D01*
X127743702Y-98236327D01*
X127743702Y-98130873D01*
X128542700Y-98130873D01*
X128542700Y-98236327D01*
X128569993Y-98338187D01*
X128622720Y-98429513D01*
X128697287Y-98504080D01*
X128788613Y-98556807D01*
X128890473Y-98584100D01*
X128890475Y-98584100D01*
X128995925Y-98584100D01*
X128995927Y-98584100D01*
X129097787Y-98556807D01*
X129189113Y-98504080D01*
X129263680Y-98429513D01*
X129316407Y-98338187D01*
X129343700Y-98236327D01*
X129343700Y-98130873D01*
X129316407Y-98029013D01*
X129263680Y-97937687D01*
X129189113Y-97863120D01*
X129097787Y-97810393D01*
X128995927Y-97783100D01*
X128890473Y-97783100D01*
X128788613Y-97810393D01*
X128788610Y-97810394D01*
X128697285Y-97863121D01*
X128622721Y-97937685D01*
X128569994Y-98029010D01*
X128569993Y-98029013D01*
X128542700Y-98130873D01*
X127743702Y-98130873D01*
X127716409Y-98029013D01*
X127663682Y-97937687D01*
X127597275Y-97871280D01*
X127563790Y-97809957D01*
X127568774Y-97740265D01*
X127597275Y-97695918D01*
X127620473Y-97672720D01*
X127663680Y-97629513D01*
X127716407Y-97538187D01*
X127743700Y-97436327D01*
X127743700Y-97330873D01*
X129342700Y-97330873D01*
X129342700Y-97436327D01*
X129369993Y-97538187D01*
X129422720Y-97629513D01*
X129497287Y-97704080D01*
X129588613Y-97756807D01*
X129690473Y-97784100D01*
X129690475Y-97784100D01*
X129795925Y-97784100D01*
X129795927Y-97784100D01*
X129897787Y-97756807D01*
X129989113Y-97704080D01*
X130055519Y-97637674D01*
X130063464Y-97633335D01*
X130068890Y-97626088D01*
X130093649Y-97616853D01*
X130116842Y-97604189D01*
X130125871Y-97604834D01*
X130134354Y-97601671D01*
X130160174Y-97607287D01*
X130186534Y-97609173D01*
X130195587Y-97614991D01*
X130202627Y-97616523D01*
X130230881Y-97637674D01*
X130289126Y-97695919D01*
X130322611Y-97757242D01*
X130317627Y-97826934D01*
X130289126Y-97871281D01*
X130222721Y-97937685D01*
X130169994Y-98029010D01*
X130169993Y-98029013D01*
X130142700Y-98130873D01*
X130142700Y-98236327D01*
X130169993Y-98338187D01*
X130222720Y-98429513D01*
X130297287Y-98504080D01*
X130388613Y-98556807D01*
X130490473Y-98584100D01*
X130490475Y-98584100D01*
X130595925Y-98584100D01*
X130595927Y-98584100D01*
X130697787Y-98556807D01*
X130789113Y-98504080D01*
X130863680Y-98429513D01*
X130916407Y-98338187D01*
X130943700Y-98236327D01*
X130943700Y-98130873D01*
X131742700Y-98130873D01*
X131742700Y-98236327D01*
X131769993Y-98338187D01*
X131822720Y-98429513D01*
X131897287Y-98504080D01*
X131988613Y-98556807D01*
X132090473Y-98584100D01*
X132090475Y-98584100D01*
X132195925Y-98584100D01*
X132195927Y-98584100D01*
X132297787Y-98556807D01*
X132389113Y-98504080D01*
X132463680Y-98429513D01*
X132516407Y-98338187D01*
X132543700Y-98236327D01*
X132543700Y-98130873D01*
X132516407Y-98029013D01*
X132463680Y-97937687D01*
X132389113Y-97863120D01*
X132297787Y-97810393D01*
X132195927Y-97783100D01*
X132090473Y-97783100D01*
X131988613Y-97810393D01*
X131988610Y-97810394D01*
X131897285Y-97863121D01*
X131822721Y-97937685D01*
X131769994Y-98029010D01*
X131769993Y-98029013D01*
X131742700Y-98130873D01*
X130943700Y-98130873D01*
X130916407Y-98029013D01*
X130863680Y-97937687D01*
X130797273Y-97871280D01*
X130763789Y-97809958D01*
X130768773Y-97740266D01*
X130797274Y-97695919D01*
X130820473Y-97672720D01*
X130863680Y-97629513D01*
X130889453Y-97584873D01*
X135235500Y-97584873D01*
X135235500Y-97690327D01*
X135260041Y-97781914D01*
X135262793Y-97792186D01*
X135262794Y-97792189D01*
X135266389Y-97798416D01*
X135315520Y-97883513D01*
X135390087Y-97958080D01*
X135481413Y-98010807D01*
X135583273Y-98038100D01*
X135583275Y-98038100D01*
X135688725Y-98038100D01*
X135688727Y-98038100D01*
X135790587Y-98010807D01*
X135881913Y-97958080D01*
X135956480Y-97883513D01*
X136009207Y-97792187D01*
X136036500Y-97690327D01*
X136036500Y-97584873D01*
X136009207Y-97483013D01*
X135956480Y-97391687D01*
X135881913Y-97317120D01*
X135815059Y-97278522D01*
X135790589Y-97264394D01*
X135790588Y-97264393D01*
X135790587Y-97264393D01*
X135688727Y-97237100D01*
X135583273Y-97237100D01*
X135481413Y-97264393D01*
X135481410Y-97264394D01*
X135390085Y-97317121D01*
X135315521Y-97391685D01*
X135262794Y-97483010D01*
X135262793Y-97483013D01*
X135235500Y-97584873D01*
X130889453Y-97584873D01*
X130916407Y-97538187D01*
X130943700Y-97436327D01*
X130943700Y-97330873D01*
X130916407Y-97229013D01*
X130863680Y-97137687D01*
X130789113Y-97063120D01*
X130722259Y-97024522D01*
X130697789Y-97010394D01*
X130697788Y-97010393D01*
X130697787Y-97010393D01*
X130595927Y-96983100D01*
X130490473Y-96983100D01*
X130388613Y-97010393D01*
X130388610Y-97010394D01*
X130297285Y-97063121D01*
X130230881Y-97129526D01*
X130169558Y-97163011D01*
X130099866Y-97158027D01*
X130055519Y-97129526D01*
X129989114Y-97063121D01*
X129989113Y-97063120D01*
X129922259Y-97024522D01*
X129897789Y-97010394D01*
X129897788Y-97010393D01*
X129897787Y-97010393D01*
X129795927Y-96983100D01*
X129690473Y-96983100D01*
X129588613Y-97010393D01*
X129588610Y-97010394D01*
X129497285Y-97063121D01*
X129422721Y-97137685D01*
X129369994Y-97229010D01*
X129369993Y-97229013D01*
X129342700Y-97330873D01*
X127743700Y-97330873D01*
X127716407Y-97229013D01*
X127663680Y-97137687D01*
X127597274Y-97071281D01*
X127563789Y-97009958D01*
X127568773Y-96940266D01*
X127597274Y-96895919D01*
X127663680Y-96829513D01*
X127716407Y-96738187D01*
X127743700Y-96636327D01*
X127743700Y-96530873D01*
X128542700Y-96530873D01*
X128542700Y-96636327D01*
X128569993Y-96738187D01*
X128622720Y-96829513D01*
X128697287Y-96904080D01*
X128788613Y-96956807D01*
X128890473Y-96984100D01*
X128890475Y-96984100D01*
X128995925Y-96984100D01*
X128995927Y-96984100D01*
X129097787Y-96956807D01*
X129189113Y-96904080D01*
X129263680Y-96829513D01*
X129316407Y-96738187D01*
X129343700Y-96636327D01*
X129343700Y-96530874D01*
X130942699Y-96530874D01*
X130942699Y-96636328D01*
X130969992Y-96738188D01*
X131022719Y-96829514D01*
X131097286Y-96904081D01*
X131188612Y-96956808D01*
X131290472Y-96984101D01*
X131290474Y-96984101D01*
X131395924Y-96984101D01*
X131395926Y-96984101D01*
X131497786Y-96956808D01*
X131589112Y-96904081D01*
X131663679Y-96829514D01*
X131709090Y-96750860D01*
X134393113Y-96750860D01*
X134393113Y-96856314D01*
X134420406Y-96958174D01*
X134473133Y-97049500D01*
X134547700Y-97124067D01*
X134639026Y-97176794D01*
X134740886Y-97204087D01*
X134740888Y-97204087D01*
X134846338Y-97204087D01*
X134846340Y-97204087D01*
X134948200Y-97176794D01*
X135039526Y-97124067D01*
X135114093Y-97049500D01*
X135166820Y-96958174D01*
X135194113Y-96856314D01*
X135194113Y-96750860D01*
X135166820Y-96649000D01*
X135114093Y-96557674D01*
X135039526Y-96483107D01*
X134948200Y-96430380D01*
X134846340Y-96403087D01*
X134740886Y-96403087D01*
X134639026Y-96430380D01*
X134639023Y-96430381D01*
X134547698Y-96483108D01*
X134473134Y-96557672D01*
X134420407Y-96648997D01*
X134420406Y-96649000D01*
X134393113Y-96750860D01*
X131709090Y-96750860D01*
X131716406Y-96738188D01*
X131743699Y-96636328D01*
X131743699Y-96530874D01*
X131716406Y-96429014D01*
X131663679Y-96337688D01*
X131589112Y-96263121D01*
X131497786Y-96210394D01*
X131395926Y-96183101D01*
X131290472Y-96183101D01*
X131188612Y-96210394D01*
X131188609Y-96210395D01*
X131097284Y-96263122D01*
X131022720Y-96337686D01*
X130969993Y-96429011D01*
X130969992Y-96429014D01*
X130942699Y-96530874D01*
X129343700Y-96530874D01*
X129343700Y-96530873D01*
X129316407Y-96429013D01*
X129263680Y-96337687D01*
X129189113Y-96263120D01*
X129122259Y-96224522D01*
X129097789Y-96210394D01*
X129097788Y-96210393D01*
X129097787Y-96210393D01*
X128995927Y-96183100D01*
X128890473Y-96183100D01*
X128788613Y-96210393D01*
X128788610Y-96210394D01*
X128697285Y-96263121D01*
X128622721Y-96337685D01*
X128569994Y-96429010D01*
X128569994Y-96429011D01*
X128569993Y-96429013D01*
X128542700Y-96530873D01*
X127743700Y-96530873D01*
X127716407Y-96429013D01*
X127663680Y-96337687D01*
X127589113Y-96263120D01*
X127522259Y-96224522D01*
X127497789Y-96210394D01*
X127497788Y-96210393D01*
X127497787Y-96210393D01*
X127395927Y-96183100D01*
X127290473Y-96183100D01*
X127188613Y-96210393D01*
X127188610Y-96210394D01*
X127097285Y-96263121D01*
X127022721Y-96337685D01*
X126969994Y-96429010D01*
X126969994Y-96429011D01*
X126969993Y-96429013D01*
X126942700Y-96530873D01*
X114200500Y-96530873D01*
X114200500Y-95836460D01*
X133580313Y-95836460D01*
X133580313Y-95941914D01*
X133607606Y-96043774D01*
X133660333Y-96135100D01*
X133734900Y-96209667D01*
X133826226Y-96262394D01*
X133928086Y-96289687D01*
X133928088Y-96289687D01*
X134033538Y-96289687D01*
X134033540Y-96289687D01*
X134135400Y-96262394D01*
X134226726Y-96209667D01*
X134301293Y-96135100D01*
X134354020Y-96043774D01*
X134381313Y-95941914D01*
X134381313Y-95836460D01*
X134354020Y-95734600D01*
X134301293Y-95643274D01*
X134226726Y-95568707D01*
X134135400Y-95515980D01*
X134033540Y-95488687D01*
X133928086Y-95488687D01*
X133826226Y-95515980D01*
X133826223Y-95515981D01*
X133734898Y-95568708D01*
X133660334Y-95643272D01*
X133607607Y-95734597D01*
X133607606Y-95734600D01*
X133580313Y-95836460D01*
X114200500Y-95836460D01*
X114200500Y-94930873D01*
X126142700Y-94930873D01*
X126142700Y-95036327D01*
X126169993Y-95138187D01*
X126222720Y-95229513D01*
X126297287Y-95304080D01*
X126388613Y-95356807D01*
X126490473Y-95384100D01*
X126490475Y-95384100D01*
X126595925Y-95384100D01*
X126595927Y-95384100D01*
X126697787Y-95356807D01*
X126789113Y-95304080D01*
X126855519Y-95237674D01*
X126916842Y-95204189D01*
X126986534Y-95209173D01*
X127030881Y-95237674D01*
X127097287Y-95304080D01*
X127188613Y-95356807D01*
X127290473Y-95384100D01*
X127290475Y-95384100D01*
X127395925Y-95384100D01*
X127395927Y-95384100D01*
X127497787Y-95356807D01*
X127589113Y-95304080D01*
X127663680Y-95229513D01*
X127716407Y-95138187D01*
X127743700Y-95036327D01*
X127743700Y-94930873D01*
X128542700Y-94930873D01*
X128542700Y-95036327D01*
X128569993Y-95138187D01*
X128622720Y-95229513D01*
X128697287Y-95304080D01*
X128788613Y-95356807D01*
X128890473Y-95384100D01*
X128890475Y-95384100D01*
X128995925Y-95384100D01*
X128995927Y-95384100D01*
X129097787Y-95356807D01*
X129189113Y-95304080D01*
X129263680Y-95229513D01*
X129316407Y-95138187D01*
X129343700Y-95036327D01*
X129343700Y-94930873D01*
X129316407Y-94829013D01*
X129297998Y-94797128D01*
X143064647Y-94797128D01*
X143064647Y-94915746D01*
X143095348Y-95030323D01*
X143154658Y-95133050D01*
X143238534Y-95216926D01*
X143341261Y-95276236D01*
X143455838Y-95306937D01*
X143455841Y-95306937D01*
X143574453Y-95306937D01*
X143574456Y-95306937D01*
X143689033Y-95276236D01*
X143791760Y-95216926D01*
X143875636Y-95133050D01*
X143934946Y-95030323D01*
X143965647Y-94915746D01*
X143965647Y-94797128D01*
X143934946Y-94682551D01*
X143875636Y-94579824D01*
X143791760Y-94495948D01*
X143689033Y-94436638D01*
X143574456Y-94405937D01*
X143455838Y-94405937D01*
X143341261Y-94436638D01*
X143341259Y-94436638D01*
X143341259Y-94436639D01*
X143238534Y-94495948D01*
X143238531Y-94495950D01*
X143154660Y-94579821D01*
X143154658Y-94579824D01*
X143106567Y-94663120D01*
X143095348Y-94682551D01*
X143064647Y-94797128D01*
X129297998Y-94797128D01*
X129263680Y-94737687D01*
X129189113Y-94663120D01*
X129097787Y-94610393D01*
X128995927Y-94583100D01*
X128890473Y-94583100D01*
X128788613Y-94610393D01*
X128788610Y-94610394D01*
X128697285Y-94663121D01*
X128622721Y-94737685D01*
X128569994Y-94829010D01*
X128569994Y-94829011D01*
X128569993Y-94829013D01*
X128542700Y-94930873D01*
X127743700Y-94930873D01*
X127716407Y-94829013D01*
X127663680Y-94737687D01*
X127589113Y-94663120D01*
X127497787Y-94610393D01*
X127395927Y-94583100D01*
X127290473Y-94583100D01*
X127188613Y-94610393D01*
X127188610Y-94610394D01*
X127097285Y-94663121D01*
X127030881Y-94729526D01*
X126969558Y-94763011D01*
X126899866Y-94758027D01*
X126855519Y-94729526D01*
X126789114Y-94663121D01*
X126789113Y-94663120D01*
X126697787Y-94610393D01*
X126595927Y-94583100D01*
X126490473Y-94583100D01*
X126388613Y-94610393D01*
X126388610Y-94610394D01*
X126297285Y-94663121D01*
X126222721Y-94737685D01*
X126169994Y-94829010D01*
X126169994Y-94829011D01*
X126169993Y-94829013D01*
X126142700Y-94930873D01*
X114200500Y-94930873D01*
X114200500Y-93330873D01*
X130942700Y-93330873D01*
X130942700Y-93436327D01*
X130969993Y-93538187D01*
X131022720Y-93629513D01*
X131097287Y-93704080D01*
X131188613Y-93756807D01*
X131290473Y-93784100D01*
X131290475Y-93784100D01*
X131395925Y-93784100D01*
X131395927Y-93784100D01*
X131497787Y-93756807D01*
X131589113Y-93704080D01*
X131663680Y-93629513D01*
X131716407Y-93538187D01*
X131743700Y-93436327D01*
X131743700Y-93330873D01*
X131740163Y-93317673D01*
X133508300Y-93317673D01*
X133508300Y-93423127D01*
X133535593Y-93524987D01*
X133588320Y-93616313D01*
X133662887Y-93690880D01*
X133754213Y-93743607D01*
X133856073Y-93770900D01*
X133856075Y-93770900D01*
X133961525Y-93770900D01*
X133961527Y-93770900D01*
X134063387Y-93743607D01*
X134097221Y-93724073D01*
X134524300Y-93724073D01*
X134524300Y-93829527D01*
X134551593Y-93931387D01*
X134604320Y-94022713D01*
X134678887Y-94097280D01*
X134770213Y-94150007D01*
X134872073Y-94177300D01*
X134872075Y-94177300D01*
X134977525Y-94177300D01*
X134977527Y-94177300D01*
X135079387Y-94150007D01*
X135170713Y-94097280D01*
X135245280Y-94022713D01*
X135298007Y-93931387D01*
X135325300Y-93829527D01*
X135325300Y-93724073D01*
X135298007Y-93622213D01*
X135286933Y-93603033D01*
X135270461Y-93535134D01*
X135293314Y-93469107D01*
X135306640Y-93453353D01*
X135323668Y-93436325D01*
X135346880Y-93413113D01*
X135399607Y-93321787D01*
X135419938Y-93245907D01*
X135456301Y-93186249D01*
X135519148Y-93155719D01*
X135571804Y-93158227D01*
X135583273Y-93161300D01*
X135583275Y-93161300D01*
X135688725Y-93161300D01*
X135688727Y-93161300D01*
X135790587Y-93134007D01*
X135881913Y-93081280D01*
X135956480Y-93006713D01*
X135964883Y-92992157D01*
X136015446Y-92943944D01*
X136084053Y-92930719D01*
X136104350Y-92934380D01*
X136192873Y-92958100D01*
X136192876Y-92958100D01*
X136298325Y-92958100D01*
X136298327Y-92958100D01*
X136400187Y-92930807D01*
X136491513Y-92878080D01*
X136504581Y-92865011D01*
X136565900Y-92831527D01*
X136635591Y-92836510D01*
X136691526Y-92878380D01*
X136699646Y-92890690D01*
X136707376Y-92904078D01*
X136711759Y-92911669D01*
X136786326Y-92986236D01*
X136877652Y-93038963D01*
X136979512Y-93066256D01*
X136979514Y-93066256D01*
X137084964Y-93066256D01*
X137084966Y-93066256D01*
X137186826Y-93038963D01*
X137278152Y-92986236D01*
X137352719Y-92911669D01*
X137405446Y-92820343D01*
X137432739Y-92718483D01*
X137432739Y-92613029D01*
X137405446Y-92511169D01*
X137352719Y-92419843D01*
X137278152Y-92345276D01*
X137268096Y-92339470D01*
X137260145Y-92334879D01*
X137211931Y-92284311D01*
X137198710Y-92215703D01*
X137224680Y-92150839D01*
X137260148Y-92120107D01*
X137263783Y-92118007D01*
X137263787Y-92118007D01*
X137355113Y-92065280D01*
X137429680Y-91990713D01*
X137434708Y-91982003D01*
X137485271Y-91933788D01*
X137553878Y-91920563D01*
X137604095Y-91936615D01*
X137612268Y-91941334D01*
X137714128Y-91968627D01*
X137714130Y-91968627D01*
X137819580Y-91968627D01*
X137819582Y-91968627D01*
X137921442Y-91941334D01*
X138012768Y-91888607D01*
X138087335Y-91814040D01*
X138140062Y-91722714D01*
X138167355Y-91620854D01*
X138167355Y-91515400D01*
X138140062Y-91413540D01*
X138087335Y-91322214D01*
X138012768Y-91247647D01*
X137921442Y-91194920D01*
X137880960Y-91184073D01*
X139909100Y-91184073D01*
X139909100Y-91289527D01*
X139936393Y-91391387D01*
X139989120Y-91482713D01*
X140063687Y-91557280D01*
X140155013Y-91610007D01*
X140242334Y-91633404D01*
X140301992Y-91669767D01*
X140332522Y-91732614D01*
X140334239Y-91753178D01*
X140334239Y-91798355D01*
X140361532Y-91900215D01*
X140414259Y-91991541D01*
X140488826Y-92066108D01*
X140580152Y-92118835D01*
X140682012Y-92146128D01*
X140682014Y-92146128D01*
X140787460Y-92146128D01*
X140787466Y-92146128D01*
X140787471Y-92146126D01*
X140791119Y-92145646D01*
X140794211Y-92146128D01*
X140795593Y-92146128D01*
X140795593Y-92146343D01*
X140860156Y-92156407D01*
X140912415Y-92202783D01*
X140914690Y-92206566D01*
X140948371Y-92264903D01*
X141022938Y-92339470D01*
X141114264Y-92392197D01*
X141216124Y-92419490D01*
X141216126Y-92419490D01*
X141301980Y-92419490D01*
X141310769Y-92422070D01*
X141319839Y-92420783D01*
X141343764Y-92431759D01*
X141369019Y-92439175D01*
X141376700Y-92446869D01*
X141383345Y-92449918D01*
X141400399Y-92470609D01*
X141406411Y-92476631D01*
X141409818Y-92481953D01*
X141409978Y-92482548D01*
X141462705Y-92573874D01*
X141479278Y-92590447D01*
X141486524Y-92601765D01*
X141492696Y-92622923D01*
X141503259Y-92642266D01*
X141502290Y-92655806D01*
X141506093Y-92668839D01*
X141499847Y-92689974D01*
X141498275Y-92711958D01*
X141489480Y-92730624D01*
X141466329Y-92770722D01*
X141466328Y-92770725D01*
X141439035Y-92872585D01*
X141439035Y-92978039D01*
X141466328Y-93079899D01*
X141519055Y-93171225D01*
X141593622Y-93245792D01*
X141684948Y-93298519D01*
X141786808Y-93325812D01*
X141786810Y-93325812D01*
X141892260Y-93325812D01*
X141892262Y-93325812D01*
X141994122Y-93298519D01*
X142085448Y-93245792D01*
X142160015Y-93171225D01*
X142212742Y-93079899D01*
X142240035Y-92978039D01*
X142240035Y-92872585D01*
X142212742Y-92770725D01*
X142160015Y-92679399D01*
X142152945Y-92672329D01*
X142119460Y-92611006D01*
X142124444Y-92541314D01*
X142133233Y-92522659D01*
X142156392Y-92482548D01*
X142183685Y-92380688D01*
X142183685Y-92275234D01*
X142156392Y-92173374D01*
X142103665Y-92082048D01*
X142029098Y-92007481D01*
X141937772Y-91954754D01*
X141835912Y-91927461D01*
X141750056Y-91927461D01*
X141683017Y-91907776D01*
X141642669Y-91865462D01*
X141642058Y-91864403D01*
X141589331Y-91773077D01*
X141514764Y-91698510D01*
X141423438Y-91645783D01*
X141321578Y-91618490D01*
X141216124Y-91618490D01*
X141216120Y-91618490D01*
X141212458Y-91618972D01*
X141209368Y-91618490D01*
X141207997Y-91618490D01*
X141207997Y-91618276D01*
X141143423Y-91608205D01*
X141091168Y-91561824D01*
X141088909Y-91558068D01*
X141055219Y-91499715D01*
X140980652Y-91425148D01*
X140889328Y-91372422D01*
X140889327Y-91372421D01*
X140802006Y-91349024D01*
X140742346Y-91312659D01*
X140711817Y-91249812D01*
X140710100Y-91229249D01*
X140710100Y-91184075D01*
X140710100Y-91184073D01*
X140682807Y-91082213D01*
X140630080Y-90990887D01*
X140555513Y-90916320D01*
X140464187Y-90863593D01*
X140362327Y-90836300D01*
X140256873Y-90836300D01*
X140155013Y-90863593D01*
X140155010Y-90863594D01*
X140063685Y-90916321D01*
X139989121Y-90990885D01*
X139936394Y-91082210D01*
X139936393Y-91082213D01*
X139909100Y-91184073D01*
X137880960Y-91184073D01*
X137819582Y-91167627D01*
X137714128Y-91167627D01*
X137612268Y-91194920D01*
X137612265Y-91194921D01*
X137520940Y-91247648D01*
X137446377Y-91322211D01*
X137446375Y-91322213D01*
X137446375Y-91322214D01*
X137441342Y-91330930D01*
X137390774Y-91379142D01*
X137322167Y-91392362D01*
X137271959Y-91376311D01*
X137263789Y-91371594D01*
X137263788Y-91371593D01*
X137263787Y-91371593D01*
X137161927Y-91344300D01*
X137056473Y-91344300D01*
X136954613Y-91371593D01*
X136954610Y-91371594D01*
X136863285Y-91424321D01*
X136788721Y-91498885D01*
X136735994Y-91590210D01*
X136735993Y-91590213D01*
X136708700Y-91692073D01*
X136708700Y-91797527D01*
X136735993Y-91899387D01*
X136788720Y-91990713D01*
X136863287Y-92065280D01*
X136881292Y-92075675D01*
X136883012Y-92077479D01*
X136885411Y-92078161D01*
X136906992Y-92102630D01*
X136929507Y-92126243D01*
X136929978Y-92128691D01*
X136931628Y-92130561D01*
X136936555Y-92162817D01*
X136942728Y-92194850D01*
X136941801Y-92197164D01*
X136942178Y-92199629D01*
X136928880Y-92229437D01*
X136916759Y-92259714D01*
X136914415Y-92261863D01*
X136913713Y-92263438D01*
X136902643Y-92272659D01*
X136887243Y-92286784D01*
X136878991Y-92292190D01*
X136877652Y-92292549D01*
X136786326Y-92345276D01*
X136764221Y-92367380D01*
X136753530Y-92374385D01*
X136731832Y-92380963D01*
X136711932Y-92391829D01*
X136699036Y-92390906D01*
X136686666Y-92394657D01*
X136664858Y-92388461D01*
X136642240Y-92386843D01*
X136631890Y-92379094D01*
X136619456Y-92375562D01*
X136604458Y-92358558D01*
X136586308Y-92344970D01*
X136578191Y-92332664D01*
X136574484Y-92326244D01*
X136566080Y-92311687D01*
X136491513Y-92237120D01*
X136400187Y-92184393D01*
X136298327Y-92157100D01*
X136192873Y-92157100D01*
X136091013Y-92184393D01*
X136091010Y-92184394D01*
X135999685Y-92237121D01*
X135925120Y-92311686D01*
X135916715Y-92326244D01*
X135866147Y-92374458D01*
X135797539Y-92387679D01*
X135777237Y-92384016D01*
X135765843Y-92380963D01*
X135688727Y-92360300D01*
X135583273Y-92360300D01*
X135481413Y-92387593D01*
X135481410Y-92387594D01*
X135390085Y-92440321D01*
X135315521Y-92514885D01*
X135262794Y-92606210D01*
X135262793Y-92606211D01*
X135254724Y-92636326D01*
X135245078Y-92672329D01*
X135242462Y-92682091D01*
X135206097Y-92741751D01*
X135143250Y-92772280D01*
X135090599Y-92769773D01*
X135079131Y-92766700D01*
X135079127Y-92766700D01*
X134973673Y-92766700D01*
X134871813Y-92793993D01*
X134871810Y-92793994D01*
X134780485Y-92846721D01*
X134705921Y-92921285D01*
X134653194Y-93012610D01*
X134653193Y-93012613D01*
X134625900Y-93114473D01*
X134625900Y-93219927D01*
X134653193Y-93321785D01*
X134653193Y-93321786D01*
X134653193Y-93321787D01*
X134664266Y-93340966D01*
X134680737Y-93408867D01*
X134657885Y-93474893D01*
X134644561Y-93490644D01*
X134604321Y-93530885D01*
X134551594Y-93622210D01*
X134551593Y-93622213D01*
X134524300Y-93724073D01*
X134097221Y-93724073D01*
X134154713Y-93690880D01*
X134229280Y-93616313D01*
X134282007Y-93524987D01*
X134309300Y-93423127D01*
X134309300Y-93317673D01*
X134282007Y-93215813D01*
X134229280Y-93124487D01*
X134154713Y-93049920D01*
X134063387Y-92997193D01*
X133961527Y-92969900D01*
X133856073Y-92969900D01*
X133754213Y-92997193D01*
X133754210Y-92997194D01*
X133662885Y-93049921D01*
X133588321Y-93124485D01*
X133535594Y-93215810D01*
X133535593Y-93215813D01*
X133508300Y-93317673D01*
X131740163Y-93317673D01*
X131716407Y-93229013D01*
X131663680Y-93137687D01*
X131589113Y-93063120D01*
X131497787Y-93010393D01*
X131395927Y-92983100D01*
X131290473Y-92983100D01*
X131188613Y-93010393D01*
X131188610Y-93010394D01*
X131097285Y-93063121D01*
X131022721Y-93137685D01*
X130969994Y-93229010D01*
X130969993Y-93229013D01*
X130942700Y-93330873D01*
X114200500Y-93330873D01*
X114200500Y-92753910D01*
X114220185Y-92686871D01*
X114272989Y-92641116D01*
X114342147Y-92631172D01*
X114405703Y-92660197D01*
X114443477Y-92718975D01*
X114446117Y-92729719D01*
X114462714Y-92813159D01*
X114462716Y-92813167D01*
X114516123Y-92942102D01*
X114516128Y-92942112D01*
X114593660Y-93058146D01*
X114593663Y-93058150D01*
X114692343Y-93156830D01*
X114692347Y-93156833D01*
X114808381Y-93234365D01*
X114808385Y-93234367D01*
X114808388Y-93234369D01*
X114937327Y-93287778D01*
X115074203Y-93315004D01*
X115074207Y-93315005D01*
X115074208Y-93315005D01*
X115213771Y-93315005D01*
X115213772Y-93315004D01*
X115350651Y-93287778D01*
X115479590Y-93234369D01*
X115595631Y-93156833D01*
X115694317Y-93058147D01*
X115771853Y-92942106D01*
X115825262Y-92813167D01*
X115852489Y-92676286D01*
X115852489Y-92599990D01*
X115872174Y-92532951D01*
X115874572Y-92530873D01*
X124542700Y-92530873D01*
X124542700Y-92636327D01*
X124569993Y-92738187D01*
X124622720Y-92829513D01*
X124697287Y-92904080D01*
X124788613Y-92956807D01*
X124890473Y-92984100D01*
X124890475Y-92984100D01*
X124995925Y-92984100D01*
X124995927Y-92984100D01*
X125097787Y-92956807D01*
X125189113Y-92904080D01*
X125263680Y-92829513D01*
X125316407Y-92738187D01*
X125343700Y-92636327D01*
X125343700Y-92530873D01*
X125316407Y-92429013D01*
X125263680Y-92337687D01*
X125189113Y-92263120D01*
X125097787Y-92210393D01*
X124995927Y-92183100D01*
X124890473Y-92183100D01*
X124788613Y-92210393D01*
X124788610Y-92210394D01*
X124697285Y-92263121D01*
X124622721Y-92337685D01*
X124569994Y-92429010D01*
X124569993Y-92429013D01*
X124542700Y-92530873D01*
X115874572Y-92530873D01*
X115924978Y-92487196D01*
X115994136Y-92477252D01*
X116000667Y-92478370D01*
X116130017Y-92504099D01*
X116130018Y-92504100D01*
X116130019Y-92504100D01*
X116269582Y-92504100D01*
X116269583Y-92504099D01*
X116406462Y-92476873D01*
X116535401Y-92423464D01*
X116535407Y-92423460D01*
X116541119Y-92419644D01*
X116601805Y-92379094D01*
X116651442Y-92345928D01*
X116750128Y-92247242D01*
X116827664Y-92131201D01*
X116881073Y-92002262D01*
X116908300Y-91865381D01*
X116908300Y-91725819D01*
X116881073Y-91588938D01*
X116827664Y-91459999D01*
X116827662Y-91459996D01*
X116827660Y-91459992D01*
X116750128Y-91343958D01*
X116750125Y-91343954D01*
X116651445Y-91245274D01*
X116651441Y-91245271D01*
X116535407Y-91167739D01*
X116535397Y-91167734D01*
X116406462Y-91114327D01*
X116406454Y-91114325D01*
X116269585Y-91087100D01*
X116269581Y-91087100D01*
X116130019Y-91087100D01*
X116130014Y-91087100D01*
X115993145Y-91114325D01*
X115993137Y-91114327D01*
X115864202Y-91167734D01*
X115864192Y-91167739D01*
X115748158Y-91245271D01*
X115748154Y-91245274D01*
X115649474Y-91343954D01*
X115649471Y-91343958D01*
X115571939Y-91459992D01*
X115571934Y-91460002D01*
X115518527Y-91588937D01*
X115518525Y-91588945D01*
X115491300Y-91725814D01*
X115491300Y-91802114D01*
X115471615Y-91869153D01*
X115418811Y-91914908D01*
X115349653Y-91924852D01*
X115343109Y-91923731D01*
X115213774Y-91898005D01*
X115213770Y-91898005D01*
X115074208Y-91898005D01*
X115074203Y-91898005D01*
X114937334Y-91925230D01*
X114937326Y-91925232D01*
X114808391Y-91978639D01*
X114808381Y-91978644D01*
X114692347Y-92056176D01*
X114692343Y-92056179D01*
X114593663Y-92154859D01*
X114593660Y-92154863D01*
X114516128Y-92270897D01*
X114516123Y-92270907D01*
X114462716Y-92399842D01*
X114462714Y-92399850D01*
X114446117Y-92483290D01*
X114413732Y-92545201D01*
X114353017Y-92579775D01*
X114283247Y-92576036D01*
X114226575Y-92535170D01*
X114200994Y-92470151D01*
X114200500Y-92459099D01*
X114200500Y-87267870D01*
X119282700Y-87267870D01*
X119282700Y-87373324D01*
X119309993Y-87475184D01*
X119362720Y-87566510D01*
X119437287Y-87641077D01*
X119528613Y-87693804D01*
X119630473Y-87721097D01*
X119630475Y-87721097D01*
X119735925Y-87721097D01*
X119735927Y-87721097D01*
X119837787Y-87693804D01*
X119929113Y-87641077D01*
X120003680Y-87566510D01*
X120046773Y-87491870D01*
X135803500Y-87491870D01*
X135803500Y-87597324D01*
X135830793Y-87699184D01*
X135883520Y-87790510D01*
X135958087Y-87865077D01*
X136049413Y-87917804D01*
X136151273Y-87945097D01*
X136151275Y-87945097D01*
X136256725Y-87945097D01*
X136256727Y-87945097D01*
X136358587Y-87917804D01*
X136449913Y-87865077D01*
X136524480Y-87790510D01*
X136577207Y-87699184D01*
X136604500Y-87597324D01*
X136604500Y-87491870D01*
X136577207Y-87390010D01*
X136558189Y-87357070D01*
X147751900Y-87357070D01*
X147751900Y-87462524D01*
X147779193Y-87564384D01*
X147831920Y-87655710D01*
X147906487Y-87730277D01*
X147997813Y-87783004D01*
X148099673Y-87810297D01*
X148099675Y-87810297D01*
X148205125Y-87810297D01*
X148205127Y-87810297D01*
X148306987Y-87783004D01*
X148398313Y-87730277D01*
X148472880Y-87655710D01*
X148525607Y-87564384D01*
X148552900Y-87462524D01*
X148552900Y-87357070D01*
X152222300Y-87357070D01*
X152222300Y-87462524D01*
X152249593Y-87564384D01*
X152302320Y-87655710D01*
X152376887Y-87730277D01*
X152468213Y-87783004D01*
X152570073Y-87810297D01*
X152570075Y-87810297D01*
X152675525Y-87810297D01*
X152675527Y-87810297D01*
X152777387Y-87783004D01*
X152868713Y-87730277D01*
X152943280Y-87655710D01*
X152996007Y-87564384D01*
X153023300Y-87462524D01*
X153023300Y-87436530D01*
X157719500Y-87436530D01*
X157719500Y-87643469D01*
X157759868Y-87846412D01*
X157759870Y-87846420D01*
X157839058Y-88037596D01*
X157954024Y-88209657D01*
X158100342Y-88355975D01*
X158100345Y-88355977D01*
X158272402Y-88470941D01*
X158463580Y-88550130D01*
X158666530Y-88590499D01*
X158666534Y-88590500D01*
X158666535Y-88590500D01*
X158873466Y-88590500D01*
X158873467Y-88590499D01*
X159076420Y-88550130D01*
X159267598Y-88470941D01*
X159439655Y-88355977D01*
X159585977Y-88209655D01*
X159700941Y-88037598D01*
X159780130Y-87846420D01*
X159820500Y-87643465D01*
X159820500Y-87436535D01*
X159780130Y-87233580D01*
X159700941Y-87042402D01*
X159585977Y-86870345D01*
X159585975Y-86870342D01*
X159439657Y-86724024D01*
X159353626Y-86666541D01*
X159267598Y-86609059D01*
X159140927Y-86556590D01*
X159076420Y-86529870D01*
X159076412Y-86529868D01*
X158873469Y-86489500D01*
X158873465Y-86489500D01*
X158666535Y-86489500D01*
X158666530Y-86489500D01*
X158463587Y-86529868D01*
X158463579Y-86529870D01*
X158272403Y-86609058D01*
X158100342Y-86724024D01*
X157954024Y-86870342D01*
X157839058Y-87042403D01*
X157759870Y-87233579D01*
X157759868Y-87233587D01*
X157719500Y-87436530D01*
X153023300Y-87436530D01*
X153023300Y-87357070D01*
X152996007Y-87255210D01*
X152943280Y-87163884D01*
X152868713Y-87089317D01*
X152801859Y-87050719D01*
X152777389Y-87036591D01*
X152777388Y-87036590D01*
X152777387Y-87036590D01*
X152675527Y-87009297D01*
X152570073Y-87009297D01*
X152468213Y-87036590D01*
X152468210Y-87036591D01*
X152376885Y-87089318D01*
X152302321Y-87163882D01*
X152249594Y-87255207D01*
X152249593Y-87255210D01*
X152222300Y-87357070D01*
X148552900Y-87357070D01*
X148525607Y-87255210D01*
X148472880Y-87163884D01*
X148398313Y-87089317D01*
X148331459Y-87050719D01*
X148306989Y-87036591D01*
X148306988Y-87036590D01*
X148306987Y-87036590D01*
X148205127Y-87009297D01*
X148099673Y-87009297D01*
X147997813Y-87036590D01*
X147997810Y-87036591D01*
X147906485Y-87089318D01*
X147831921Y-87163882D01*
X147779194Y-87255207D01*
X147779193Y-87255210D01*
X147751900Y-87357070D01*
X136558189Y-87357070D01*
X136524480Y-87298684D01*
X136449913Y-87224117D01*
X136366071Y-87175711D01*
X136358589Y-87171391D01*
X136358588Y-87171390D01*
X136358587Y-87171390D01*
X136256727Y-87144097D01*
X136151273Y-87144097D01*
X136049413Y-87171390D01*
X136049410Y-87171391D01*
X135958085Y-87224118D01*
X135883521Y-87298682D01*
X135830794Y-87390007D01*
X135830793Y-87390010D01*
X135803500Y-87491870D01*
X120046773Y-87491870D01*
X120056407Y-87475184D01*
X120083700Y-87373324D01*
X120083700Y-87267870D01*
X120056407Y-87166010D01*
X120003680Y-87074684D01*
X119929113Y-87000117D01*
X119837787Y-86947390D01*
X119735927Y-86920097D01*
X119630473Y-86920097D01*
X119528613Y-86947390D01*
X119528610Y-86947391D01*
X119437285Y-87000118D01*
X119362721Y-87074682D01*
X119309994Y-87166007D01*
X119309993Y-87166010D01*
X119282700Y-87267870D01*
X114200500Y-87267870D01*
X114200500Y-86787870D01*
X117932700Y-86787870D01*
X117932700Y-86893324D01*
X117959993Y-86995184D01*
X118012720Y-87086510D01*
X118087287Y-87161077D01*
X118178613Y-87213804D01*
X118280473Y-87241097D01*
X118280475Y-87241097D01*
X118385925Y-87241097D01*
X118385927Y-87241097D01*
X118487787Y-87213804D01*
X118579113Y-87161077D01*
X118653680Y-87086510D01*
X118706407Y-86995184D01*
X118733700Y-86893324D01*
X118733700Y-86787870D01*
X122555100Y-86787870D01*
X122555100Y-86893324D01*
X122582393Y-86995184D01*
X122635120Y-87086510D01*
X122709687Y-87161077D01*
X122801013Y-87213804D01*
X122902873Y-87241097D01*
X122902875Y-87241097D01*
X123008325Y-87241097D01*
X123008327Y-87241097D01*
X123110187Y-87213804D01*
X123201513Y-87161077D01*
X123276080Y-87086510D01*
X123328807Y-86995184D01*
X123356100Y-86893324D01*
X123356100Y-86787870D01*
X123328807Y-86686010D01*
X123276080Y-86594684D01*
X123201513Y-86520117D01*
X123110187Y-86467390D01*
X123008327Y-86440097D01*
X122902873Y-86440097D01*
X122801013Y-86467390D01*
X122801010Y-86467391D01*
X122709685Y-86520118D01*
X122635121Y-86594682D01*
X122582394Y-86686007D01*
X122582393Y-86686010D01*
X122555100Y-86787870D01*
X118733700Y-86787870D01*
X118706407Y-86686010D01*
X118653680Y-86594684D01*
X118579113Y-86520117D01*
X118487787Y-86467390D01*
X118385927Y-86440097D01*
X118280473Y-86440097D01*
X118178613Y-86467390D01*
X118178610Y-86467391D01*
X118087285Y-86520118D01*
X118012721Y-86594682D01*
X117959994Y-86686007D01*
X117959993Y-86686010D01*
X117932700Y-86787870D01*
X114200500Y-86787870D01*
X114200500Y-85900873D01*
X116173500Y-85900873D01*
X116173500Y-86006327D01*
X116200793Y-86108187D01*
X116253520Y-86199513D01*
X116328087Y-86274080D01*
X116419413Y-86326807D01*
X116521273Y-86354100D01*
X116521275Y-86354100D01*
X116626725Y-86354100D01*
X116626727Y-86354100D01*
X116728587Y-86326807D01*
X116819913Y-86274080D01*
X116894480Y-86199513D01*
X116947207Y-86108187D01*
X116974500Y-86006327D01*
X116974500Y-85900873D01*
X116947207Y-85799013D01*
X116894480Y-85707687D01*
X116819913Y-85633120D01*
X116728587Y-85580393D01*
X116626727Y-85553100D01*
X116521273Y-85553100D01*
X116419413Y-85580393D01*
X116419410Y-85580394D01*
X116328085Y-85633121D01*
X116253521Y-85707685D01*
X116200794Y-85799010D01*
X116200793Y-85799013D01*
X116173500Y-85900873D01*
X114200500Y-85900873D01*
X114200500Y-80862332D01*
X114899500Y-80862332D01*
X114899500Y-81137667D01*
X114899501Y-81137684D01*
X114935438Y-81410655D01*
X114935439Y-81410660D01*
X114935440Y-81410666D01*
X114935441Y-81410668D01*
X115006704Y-81676630D01*
X115112075Y-81931017D01*
X115112080Y-81931028D01*
X115130195Y-81962403D01*
X115249751Y-82169479D01*
X115249753Y-82169482D01*
X115249754Y-82169483D01*
X115417370Y-82387926D01*
X115417376Y-82387933D01*
X115612066Y-82582623D01*
X115612072Y-82582628D01*
X115830521Y-82750249D01*
X115983778Y-82838732D01*
X116068971Y-82887919D01*
X116068976Y-82887921D01*
X116068979Y-82887923D01*
X116323368Y-82993295D01*
X116589334Y-83064560D01*
X116862326Y-83100500D01*
X116862333Y-83100500D01*
X117137667Y-83100500D01*
X117137674Y-83100500D01*
X117410666Y-83064560D01*
X117442340Y-83056073D01*
X123551500Y-83056073D01*
X123551500Y-83161526D01*
X123578793Y-83263386D01*
X123578794Y-83263389D01*
X123629723Y-83351600D01*
X123646196Y-83419500D01*
X123629723Y-83475600D01*
X123578794Y-83563810D01*
X123578793Y-83563813D01*
X123551500Y-83665673D01*
X123551500Y-83771127D01*
X123578793Y-83872987D01*
X123631520Y-83964313D01*
X123706087Y-84038880D01*
X123797413Y-84091607D01*
X123899273Y-84118900D01*
X123899275Y-84118900D01*
X124004725Y-84118900D01*
X124004727Y-84118900D01*
X124106587Y-84091607D01*
X124194804Y-84040674D01*
X124262699Y-84024203D01*
X124318794Y-84040674D01*
X124407013Y-84091607D01*
X124508873Y-84118900D01*
X124508875Y-84118900D01*
X124614325Y-84118900D01*
X124614327Y-84118900D01*
X124716187Y-84091607D01*
X124804404Y-84040674D01*
X124872299Y-84024203D01*
X124928394Y-84040674D01*
X125016613Y-84091607D01*
X125118473Y-84118900D01*
X125118475Y-84118900D01*
X125223925Y-84118900D01*
X125223927Y-84118900D01*
X125325787Y-84091607D01*
X125414004Y-84040674D01*
X125481899Y-84024203D01*
X125537994Y-84040674D01*
X125626213Y-84091607D01*
X125728073Y-84118900D01*
X125728075Y-84118900D01*
X125833525Y-84118900D01*
X125833527Y-84118900D01*
X125935387Y-84091607D01*
X126023604Y-84040674D01*
X126091499Y-84024203D01*
X126147594Y-84040674D01*
X126235813Y-84091607D01*
X126337673Y-84118900D01*
X126337675Y-84118900D01*
X126443125Y-84118900D01*
X126443127Y-84118900D01*
X126449277Y-84117252D01*
X126519125Y-84118911D01*
X126576989Y-84158071D01*
X126604496Y-84222299D01*
X126601150Y-84269114D01*
X126599500Y-84275270D01*
X126599500Y-84380726D01*
X126626793Y-84482586D01*
X126626794Y-84482589D01*
X126677723Y-84570800D01*
X126694196Y-84638700D01*
X126677723Y-84694800D01*
X126626794Y-84783010D01*
X126626793Y-84783013D01*
X126599500Y-84884873D01*
X126599500Y-84990327D01*
X126623922Y-85081470D01*
X126626793Y-85092186D01*
X126626794Y-85092189D01*
X126677723Y-85180400D01*
X126694196Y-85248300D01*
X126677723Y-85304400D01*
X126626794Y-85392610D01*
X126626793Y-85392613D01*
X126599500Y-85494473D01*
X126599500Y-85599926D01*
X126626793Y-85701786D01*
X126626794Y-85701789D01*
X126677723Y-85790000D01*
X126694196Y-85857900D01*
X126677723Y-85914000D01*
X126626794Y-86002210D01*
X126626793Y-86002213D01*
X126599500Y-86104073D01*
X126599500Y-86209526D01*
X126626793Y-86311386D01*
X126626794Y-86311389D01*
X126635695Y-86326806D01*
X126670965Y-86387896D01*
X126677723Y-86399600D01*
X126694196Y-86467500D01*
X126677723Y-86523600D01*
X126626794Y-86611810D01*
X126626793Y-86611813D01*
X126599500Y-86713673D01*
X126599500Y-86819127D01*
X126626793Y-86920987D01*
X126679520Y-87012313D01*
X126754087Y-87086880D01*
X126845413Y-87139607D01*
X126947273Y-87166900D01*
X126947275Y-87166900D01*
X127052725Y-87166900D01*
X127052727Y-87166900D01*
X127154587Y-87139607D01*
X127242804Y-87088674D01*
X127310699Y-87072203D01*
X127366794Y-87088674D01*
X127455013Y-87139607D01*
X127556873Y-87166900D01*
X127556875Y-87166900D01*
X127662325Y-87166900D01*
X127662327Y-87166900D01*
X127764187Y-87139607D01*
X127855513Y-87086880D01*
X127930080Y-87012313D01*
X127982807Y-86920987D01*
X127994574Y-86877070D01*
X146401900Y-86877070D01*
X146401900Y-86982524D01*
X146429193Y-87084384D01*
X146481920Y-87175710D01*
X146556487Y-87250277D01*
X146647813Y-87303004D01*
X146749673Y-87330297D01*
X146749675Y-87330297D01*
X146855125Y-87330297D01*
X146855127Y-87330297D01*
X146956987Y-87303004D01*
X147048313Y-87250277D01*
X147122880Y-87175710D01*
X147175607Y-87084384D01*
X147202900Y-86982524D01*
X147202900Y-86877070D01*
X150872300Y-86877070D01*
X150872300Y-86982524D01*
X150899593Y-87084384D01*
X150952320Y-87175710D01*
X151026887Y-87250277D01*
X151118213Y-87303004D01*
X151220073Y-87330297D01*
X151220075Y-87330297D01*
X151325525Y-87330297D01*
X151325527Y-87330297D01*
X151427387Y-87303004D01*
X151518713Y-87250277D01*
X151593280Y-87175710D01*
X151646007Y-87084384D01*
X151673300Y-86982524D01*
X151673300Y-86877070D01*
X151646007Y-86775210D01*
X151593280Y-86683884D01*
X151518713Y-86609317D01*
X151427387Y-86556590D01*
X151325527Y-86529297D01*
X151220073Y-86529297D01*
X151118213Y-86556590D01*
X151118210Y-86556591D01*
X151026885Y-86609318D01*
X150952321Y-86683882D01*
X150899594Y-86775207D01*
X150899593Y-86775210D01*
X150872300Y-86877070D01*
X147202900Y-86877070D01*
X147175607Y-86775210D01*
X147122880Y-86683884D01*
X147048313Y-86609317D01*
X146956987Y-86556590D01*
X146855127Y-86529297D01*
X146749673Y-86529297D01*
X146647813Y-86556590D01*
X146647810Y-86556591D01*
X146556485Y-86609318D01*
X146481921Y-86683882D01*
X146429194Y-86775207D01*
X146429193Y-86775210D01*
X146401900Y-86877070D01*
X127994574Y-86877070D01*
X128010100Y-86819127D01*
X128010100Y-86713673D01*
X127982807Y-86611813D01*
X127931874Y-86523595D01*
X127915403Y-86455701D01*
X127931874Y-86399605D01*
X127982807Y-86311387D01*
X128010100Y-86209527D01*
X128010100Y-86104073D01*
X127982807Y-86002213D01*
X127943811Y-85934670D01*
X138893100Y-85934670D01*
X138893100Y-86040124D01*
X138920393Y-86141984D01*
X138973120Y-86233310D01*
X139047687Y-86307877D01*
X139139013Y-86360604D01*
X139240873Y-86387897D01*
X139240875Y-86387897D01*
X139346325Y-86387897D01*
X139346327Y-86387897D01*
X139448187Y-86360604D01*
X139539513Y-86307877D01*
X139614080Y-86233310D01*
X139666807Y-86141984D01*
X139694100Y-86040124D01*
X139694100Y-85934670D01*
X144641100Y-85934670D01*
X144641100Y-86040124D01*
X144668393Y-86141984D01*
X144721120Y-86233310D01*
X144795687Y-86307877D01*
X144887013Y-86360604D01*
X144988873Y-86387897D01*
X144988875Y-86387897D01*
X145094325Y-86387897D01*
X145094327Y-86387897D01*
X145196187Y-86360604D01*
X145287513Y-86307877D01*
X145362080Y-86233310D01*
X145414807Y-86141984D01*
X145442100Y-86040124D01*
X145442100Y-85934670D01*
X145414807Y-85832810D01*
X145362080Y-85741484D01*
X145287513Y-85666917D01*
X145196187Y-85614190D01*
X145094327Y-85586897D01*
X144988873Y-85586897D01*
X144887013Y-85614190D01*
X144887010Y-85614191D01*
X144795685Y-85666918D01*
X144721121Y-85741482D01*
X144668394Y-85832807D01*
X144668393Y-85832810D01*
X144641100Y-85934670D01*
X139694100Y-85934670D01*
X139666807Y-85832810D01*
X139614080Y-85741484D01*
X139539513Y-85666917D01*
X139448187Y-85614190D01*
X139346327Y-85586897D01*
X139240873Y-85586897D01*
X139139013Y-85614190D01*
X139139010Y-85614191D01*
X139047685Y-85666918D01*
X138973121Y-85741482D01*
X138920394Y-85832807D01*
X138920393Y-85832810D01*
X138893100Y-85934670D01*
X127943811Y-85934670D01*
X127931874Y-85913995D01*
X127915403Y-85846101D01*
X127931874Y-85790005D01*
X127982807Y-85701787D01*
X128010100Y-85599927D01*
X128010100Y-85494473D01*
X127982807Y-85392613D01*
X127931874Y-85304395D01*
X127930461Y-85298570D01*
X127926529Y-85294043D01*
X127922321Y-85265017D01*
X127915403Y-85236501D01*
X127917144Y-85229305D01*
X127916505Y-85224896D01*
X127922200Y-85208407D01*
X127926408Y-85191020D01*
X127929613Y-85183979D01*
X127930080Y-85183513D01*
X127982807Y-85092187D01*
X127985679Y-85081470D01*
X132531100Y-85081470D01*
X132531100Y-85186924D01*
X132558393Y-85288784D01*
X132611120Y-85380110D01*
X132685687Y-85454677D01*
X132777013Y-85507404D01*
X132878873Y-85534697D01*
X132878875Y-85534697D01*
X132984325Y-85534697D01*
X132984327Y-85534697D01*
X133086187Y-85507404D01*
X133177513Y-85454677D01*
X133252080Y-85380110D01*
X133304807Y-85288784D01*
X133332100Y-85186924D01*
X133332100Y-85081470D01*
X133329528Y-85071870D01*
X137153500Y-85071870D01*
X137153500Y-85177324D01*
X137169357Y-85236501D01*
X137180793Y-85279183D01*
X137180794Y-85279186D01*
X137186337Y-85288786D01*
X137233520Y-85370510D01*
X137308087Y-85445077D01*
X137399413Y-85497804D01*
X137501273Y-85525097D01*
X137501275Y-85525097D01*
X137606725Y-85525097D01*
X137606727Y-85525097D01*
X137708587Y-85497804D01*
X137799913Y-85445077D01*
X137874480Y-85370510D01*
X137927207Y-85279184D01*
X137954500Y-85177324D01*
X137954500Y-85071870D01*
X137927207Y-84970010D01*
X137874480Y-84878684D01*
X137799913Y-84804117D01*
X137733059Y-84765519D01*
X137708589Y-84751391D01*
X137708588Y-84751390D01*
X137708587Y-84751390D01*
X137606727Y-84724097D01*
X137501273Y-84724097D01*
X137399413Y-84751390D01*
X137399410Y-84751391D01*
X137308085Y-84804118D01*
X137233521Y-84878682D01*
X137180794Y-84970007D01*
X137180793Y-84970010D01*
X137153500Y-85071870D01*
X133329528Y-85071870D01*
X133304807Y-84979610D01*
X133252080Y-84888284D01*
X133177513Y-84813717D01*
X133086187Y-84760990D01*
X132984327Y-84733697D01*
X132878873Y-84733697D01*
X132777013Y-84760990D01*
X132777010Y-84760991D01*
X132685685Y-84813718D01*
X132611121Y-84888282D01*
X132558394Y-84979607D01*
X132558393Y-84979610D01*
X132531100Y-85081470D01*
X127985679Y-85081470D01*
X128010100Y-84990327D01*
X128010100Y-84884873D01*
X127982807Y-84783013D01*
X127931874Y-84694795D01*
X127915403Y-84626901D01*
X127931874Y-84570805D01*
X127982807Y-84482587D01*
X128010100Y-84380727D01*
X128010100Y-84275273D01*
X127982807Y-84173413D01*
X127931874Y-84085195D01*
X127915403Y-84017301D01*
X127931874Y-83961205D01*
X127982807Y-83872987D01*
X128010100Y-83771127D01*
X128010100Y-83665673D01*
X127982807Y-83563813D01*
X127931874Y-83475595D01*
X127915403Y-83407701D01*
X127931874Y-83351605D01*
X127982807Y-83263387D01*
X128010100Y-83161527D01*
X128010100Y-83056073D01*
X127982807Y-82954213D01*
X127930080Y-82862887D01*
X127855513Y-82788320D01*
X127764187Y-82735593D01*
X127662327Y-82708300D01*
X127556873Y-82708300D01*
X127455013Y-82735593D01*
X127455010Y-82735594D01*
X127366800Y-82786523D01*
X127298900Y-82802996D01*
X127242800Y-82786523D01*
X127154589Y-82735594D01*
X127154588Y-82735593D01*
X127154587Y-82735593D01*
X127052727Y-82708300D01*
X126947273Y-82708300D01*
X126845413Y-82735593D01*
X126845410Y-82735594D01*
X126757200Y-82786523D01*
X126689300Y-82802996D01*
X126633200Y-82786523D01*
X126544989Y-82735594D01*
X126544988Y-82735593D01*
X126544987Y-82735593D01*
X126443127Y-82708300D01*
X126337673Y-82708300D01*
X126235813Y-82735593D01*
X126235810Y-82735594D01*
X126147600Y-82786523D01*
X126079700Y-82802996D01*
X126023600Y-82786523D01*
X125935389Y-82735594D01*
X125935388Y-82735593D01*
X125935387Y-82735593D01*
X125833527Y-82708300D01*
X125728073Y-82708300D01*
X125626213Y-82735593D01*
X125626210Y-82735594D01*
X125538000Y-82786523D01*
X125470100Y-82802996D01*
X125414000Y-82786523D01*
X125325789Y-82735594D01*
X125325788Y-82735593D01*
X125325787Y-82735593D01*
X125223927Y-82708300D01*
X125118473Y-82708300D01*
X125016613Y-82735593D01*
X125016610Y-82735594D01*
X124928400Y-82786523D01*
X124860500Y-82802996D01*
X124804400Y-82786523D01*
X124716189Y-82735594D01*
X124716188Y-82735593D01*
X124716187Y-82735593D01*
X124614327Y-82708300D01*
X124508873Y-82708300D01*
X124407013Y-82735593D01*
X124407010Y-82735594D01*
X124318800Y-82786523D01*
X124250900Y-82802996D01*
X124194800Y-82786523D01*
X124106589Y-82735594D01*
X124106588Y-82735593D01*
X124106587Y-82735593D01*
X124004727Y-82708300D01*
X123899273Y-82708300D01*
X123797413Y-82735593D01*
X123797410Y-82735594D01*
X123706085Y-82788321D01*
X123631521Y-82862885D01*
X123578794Y-82954210D01*
X123578793Y-82954213D01*
X123551500Y-83056073D01*
X117442340Y-83056073D01*
X117676632Y-82993295D01*
X117931021Y-82887923D01*
X118169479Y-82750249D01*
X118387928Y-82582628D01*
X118582628Y-82387928D01*
X118606719Y-82356530D01*
X157719500Y-82356530D01*
X157719500Y-82563469D01*
X157759868Y-82766412D01*
X157759870Y-82766420D01*
X157839058Y-82957596D01*
X157954024Y-83129657D01*
X158100342Y-83275975D01*
X158100345Y-83275977D01*
X158272402Y-83390941D01*
X158463580Y-83470130D01*
X158666530Y-83510499D01*
X158666534Y-83510500D01*
X158666535Y-83510500D01*
X158873466Y-83510500D01*
X158873467Y-83510499D01*
X159076420Y-83470130D01*
X159267598Y-83390941D01*
X159439655Y-83275977D01*
X159585977Y-83129655D01*
X159700941Y-82957598D01*
X159780130Y-82766420D01*
X159820500Y-82563465D01*
X159820500Y-82356535D01*
X159780130Y-82153580D01*
X159700941Y-81962402D01*
X159585977Y-81790345D01*
X159585975Y-81790342D01*
X159439657Y-81644024D01*
X159353626Y-81586541D01*
X159267598Y-81529059D01*
X159076420Y-81449870D01*
X159076412Y-81449868D01*
X158873469Y-81409500D01*
X158873465Y-81409500D01*
X158666535Y-81409500D01*
X158666530Y-81409500D01*
X158463587Y-81449868D01*
X158463579Y-81449870D01*
X158272403Y-81529058D01*
X158100342Y-81644024D01*
X157954024Y-81790342D01*
X157839058Y-81962403D01*
X157759870Y-82153579D01*
X157759868Y-82153587D01*
X157719500Y-82356530D01*
X118606719Y-82356530D01*
X118619468Y-82339915D01*
X118669314Y-82274957D01*
X118704707Y-82228829D01*
X118750249Y-82169479D01*
X118887923Y-81931021D01*
X118993295Y-81676632D01*
X119064560Y-81410666D01*
X119100500Y-81137674D01*
X119100500Y-80862326D01*
X119064560Y-80589334D01*
X118993295Y-80323368D01*
X118887923Y-80068979D01*
X118887921Y-80068976D01*
X118887919Y-80068971D01*
X118838732Y-79983778D01*
X118750249Y-79830521D01*
X118582628Y-79612072D01*
X118582623Y-79612066D01*
X118387933Y-79417376D01*
X118387926Y-79417370D01*
X118169483Y-79249754D01*
X118169482Y-79249753D01*
X118169479Y-79249751D01*
X118074407Y-79194861D01*
X117931028Y-79112080D01*
X117931017Y-79112075D01*
X117676630Y-79006704D01*
X117543649Y-78971072D01*
X117410666Y-78935440D01*
X117410660Y-78935439D01*
X117410655Y-78935438D01*
X117137684Y-78899501D01*
X117137679Y-78899500D01*
X117137674Y-78899500D01*
X116862326Y-78899500D01*
X116862320Y-78899500D01*
X116862315Y-78899501D01*
X116589344Y-78935438D01*
X116589337Y-78935439D01*
X116589334Y-78935440D01*
X116533125Y-78950500D01*
X116323369Y-79006704D01*
X116068982Y-79112075D01*
X116068971Y-79112080D01*
X115830516Y-79249754D01*
X115612073Y-79417370D01*
X115612066Y-79417376D01*
X115417376Y-79612066D01*
X115417370Y-79612073D01*
X115249754Y-79830516D01*
X115112080Y-80068971D01*
X115112075Y-80068982D01*
X115006704Y-80323369D01*
X114935441Y-80589331D01*
X114935438Y-80589344D01*
X114899501Y-80862315D01*
X114899500Y-80862332D01*
X114200500Y-80862332D01*
X114200500Y-76968113D01*
X139719500Y-76968113D01*
X139719500Y-77180686D01*
X139752324Y-77387933D01*
X139752754Y-77390643D01*
X139815134Y-77582629D01*
X139818444Y-77592814D01*
X139914951Y-77782220D01*
X140039890Y-77954186D01*
X140190213Y-78104509D01*
X140362179Y-78229448D01*
X140362181Y-78229449D01*
X140362184Y-78229451D01*
X140551588Y-78325957D01*
X140753757Y-78391646D01*
X140963713Y-78424900D01*
X140963714Y-78424900D01*
X141176286Y-78424900D01*
X141176287Y-78424900D01*
X141386243Y-78391646D01*
X141588412Y-78325957D01*
X141777816Y-78229451D01*
X141799789Y-78213486D01*
X141949786Y-78104509D01*
X141949788Y-78104506D01*
X141949792Y-78104504D01*
X142100104Y-77954192D01*
X142100106Y-77954188D01*
X142100109Y-77954186D01*
X142225048Y-77782220D01*
X142225047Y-77782220D01*
X142225051Y-77782216D01*
X142321557Y-77592812D01*
X142387246Y-77390643D01*
X142420500Y-77180687D01*
X142420500Y-76968113D01*
X144719500Y-76968113D01*
X144719500Y-77180686D01*
X144752324Y-77387933D01*
X144752754Y-77390643D01*
X144815134Y-77582629D01*
X144818444Y-77592814D01*
X144914951Y-77782220D01*
X145039890Y-77954186D01*
X145190213Y-78104509D01*
X145362179Y-78229448D01*
X145362181Y-78229449D01*
X145362184Y-78229451D01*
X145551588Y-78325957D01*
X145753757Y-78391646D01*
X145963713Y-78424900D01*
X145963714Y-78424900D01*
X146176286Y-78424900D01*
X146176287Y-78424900D01*
X146386243Y-78391646D01*
X146588412Y-78325957D01*
X146777816Y-78229451D01*
X146799789Y-78213486D01*
X146949786Y-78104509D01*
X146949788Y-78104506D01*
X146949792Y-78104504D01*
X147100104Y-77954192D01*
X147100106Y-77954188D01*
X147100109Y-77954186D01*
X147225048Y-77782220D01*
X147225047Y-77782220D01*
X147225051Y-77782216D01*
X147321557Y-77592812D01*
X147387246Y-77390643D01*
X147420500Y-77180687D01*
X147420500Y-76968113D01*
X149719500Y-76968113D01*
X149719500Y-77180686D01*
X149752324Y-77387933D01*
X149752754Y-77390643D01*
X149815134Y-77582629D01*
X149818444Y-77592814D01*
X149914951Y-77782220D01*
X150039890Y-77954186D01*
X150190213Y-78104509D01*
X150362179Y-78229448D01*
X150362181Y-78229449D01*
X150362184Y-78229451D01*
X150551588Y-78325957D01*
X150753757Y-78391646D01*
X150963713Y-78424900D01*
X150963714Y-78424900D01*
X151176286Y-78424900D01*
X151176287Y-78424900D01*
X151386243Y-78391646D01*
X151588412Y-78325957D01*
X151777816Y-78229451D01*
X151799789Y-78213486D01*
X151949786Y-78104509D01*
X151949788Y-78104506D01*
X151949792Y-78104504D01*
X152100104Y-77954192D01*
X152100106Y-77954188D01*
X152100109Y-77954186D01*
X152225048Y-77782220D01*
X152225047Y-77782220D01*
X152225051Y-77782216D01*
X152321557Y-77592812D01*
X152387246Y-77390643D01*
X152420500Y-77180687D01*
X152420500Y-76968113D01*
X152387246Y-76758157D01*
X152321557Y-76555988D01*
X152225051Y-76366584D01*
X152225049Y-76366581D01*
X152225048Y-76366579D01*
X152100109Y-76194613D01*
X151949786Y-76044290D01*
X151831821Y-75958585D01*
X151777819Y-75919351D01*
X151777818Y-75919350D01*
X151777816Y-75919349D01*
X151665914Y-75862332D01*
X158899500Y-75862332D01*
X158899500Y-76137667D01*
X158899501Y-76137684D01*
X158935438Y-76410655D01*
X158935439Y-76410660D01*
X158935440Y-76410666D01*
X158935441Y-76410668D01*
X159006704Y-76676630D01*
X159112075Y-76931017D01*
X159112080Y-76931028D01*
X159194861Y-77074407D01*
X159249751Y-77169479D01*
X159249753Y-77169482D01*
X159249754Y-77169483D01*
X159417370Y-77387926D01*
X159417376Y-77387933D01*
X159612066Y-77582623D01*
X159612073Y-77582629D01*
X159740403Y-77681099D01*
X159830521Y-77750249D01*
X159983778Y-77838732D01*
X160068971Y-77887919D01*
X160068976Y-77887921D01*
X160068979Y-77887923D01*
X160323368Y-77993295D01*
X160589334Y-78064560D01*
X160862326Y-78100500D01*
X160862333Y-78100500D01*
X161137667Y-78100500D01*
X161137674Y-78100500D01*
X161410666Y-78064560D01*
X161676632Y-77993295D01*
X161931021Y-77887923D01*
X162169479Y-77750249D01*
X162387928Y-77582628D01*
X162582628Y-77387928D01*
X162750249Y-77169479D01*
X162887923Y-76931021D01*
X162993295Y-76676632D01*
X163064560Y-76410666D01*
X163100500Y-76137674D01*
X163100500Y-75862326D01*
X163064560Y-75589334D01*
X162993295Y-75323368D01*
X162887923Y-75068979D01*
X162887921Y-75068976D01*
X162887919Y-75068971D01*
X162838732Y-74983778D01*
X162750249Y-74830521D01*
X162582628Y-74612072D01*
X162582623Y-74612066D01*
X162387933Y-74417376D01*
X162387926Y-74417370D01*
X162169483Y-74249754D01*
X162169482Y-74249753D01*
X162169479Y-74249751D01*
X162074407Y-74194861D01*
X161931028Y-74112080D01*
X161931017Y-74112075D01*
X161676630Y-74006704D01*
X161543649Y-73971072D01*
X161410666Y-73935440D01*
X161410660Y-73935439D01*
X161410655Y-73935438D01*
X161137684Y-73899501D01*
X161137679Y-73899500D01*
X161137674Y-73899500D01*
X160862326Y-73899500D01*
X160862320Y-73899500D01*
X160862315Y-73899501D01*
X160589344Y-73935438D01*
X160589337Y-73935439D01*
X160589334Y-73935440D01*
X160533125Y-73950500D01*
X160323369Y-74006704D01*
X160068982Y-74112075D01*
X160068971Y-74112080D01*
X159830516Y-74249754D01*
X159612073Y-74417370D01*
X159612066Y-74417376D01*
X159417376Y-74612066D01*
X159417370Y-74612073D01*
X159249754Y-74830516D01*
X159112080Y-75068971D01*
X159112075Y-75068982D01*
X159006704Y-75323369D01*
X158935441Y-75589331D01*
X158935438Y-75589344D01*
X158899501Y-75862315D01*
X158899500Y-75862332D01*
X151665914Y-75862332D01*
X151588412Y-75822843D01*
X151386243Y-75757154D01*
X151386241Y-75757153D01*
X151386240Y-75757153D01*
X151224957Y-75731608D01*
X151176287Y-75723900D01*
X150963713Y-75723900D01*
X150915042Y-75731608D01*
X150753760Y-75757153D01*
X150551585Y-75822844D01*
X150362179Y-75919351D01*
X150190213Y-76044290D01*
X150039890Y-76194613D01*
X149914951Y-76366579D01*
X149818444Y-76555985D01*
X149752753Y-76758160D01*
X149719500Y-76968113D01*
X147420500Y-76968113D01*
X147387246Y-76758157D01*
X147321557Y-76555988D01*
X147225051Y-76366584D01*
X147225049Y-76366581D01*
X147225048Y-76366579D01*
X147100109Y-76194613D01*
X146949786Y-76044290D01*
X146777820Y-75919351D01*
X146588414Y-75822844D01*
X146588413Y-75822843D01*
X146588412Y-75822843D01*
X146386243Y-75757154D01*
X146386241Y-75757153D01*
X146386240Y-75757153D01*
X146224957Y-75731608D01*
X146176287Y-75723900D01*
X145963713Y-75723900D01*
X145915042Y-75731608D01*
X145753760Y-75757153D01*
X145551585Y-75822844D01*
X145362179Y-75919351D01*
X145190213Y-76044290D01*
X145039890Y-76194613D01*
X144914951Y-76366579D01*
X144818444Y-76555985D01*
X144752753Y-76758160D01*
X144719500Y-76968113D01*
X142420500Y-76968113D01*
X142387246Y-76758157D01*
X142321557Y-76555988D01*
X142225051Y-76366584D01*
X142225049Y-76366581D01*
X142225048Y-76366579D01*
X142100109Y-76194613D01*
X141949786Y-76044290D01*
X141777820Y-75919351D01*
X141588414Y-75822844D01*
X141588413Y-75822843D01*
X141588412Y-75822843D01*
X141386243Y-75757154D01*
X141386241Y-75757153D01*
X141386240Y-75757153D01*
X141224957Y-75731608D01*
X141176287Y-75723900D01*
X140963713Y-75723900D01*
X140915042Y-75731608D01*
X140753760Y-75757153D01*
X140551585Y-75822844D01*
X140362179Y-75919351D01*
X140190213Y-76044290D01*
X140039890Y-76194613D01*
X139914951Y-76366579D01*
X139818444Y-76555985D01*
X139752753Y-76758160D01*
X139719500Y-76968113D01*
X114200500Y-76968113D01*
X114200500Y-71968113D01*
X142219500Y-71968113D01*
X142219500Y-72180686D01*
X142252753Y-72390639D01*
X142318444Y-72592814D01*
X142414951Y-72782220D01*
X142539890Y-72954186D01*
X142690213Y-73104509D01*
X142862179Y-73229448D01*
X142862181Y-73229449D01*
X142862184Y-73229451D01*
X143051588Y-73325957D01*
X143253757Y-73391646D01*
X143463713Y-73424900D01*
X143463714Y-73424900D01*
X143676286Y-73424900D01*
X143676287Y-73424900D01*
X143886243Y-73391646D01*
X144088412Y-73325957D01*
X144277816Y-73229451D01*
X144299789Y-73213486D01*
X144449786Y-73104509D01*
X144449788Y-73104506D01*
X144449792Y-73104504D01*
X144600104Y-72954192D01*
X144600106Y-72954188D01*
X144600109Y-72954186D01*
X144725048Y-72782220D01*
X144725047Y-72782220D01*
X144725051Y-72782216D01*
X144821557Y-72592812D01*
X144887246Y-72390643D01*
X144920500Y-72180687D01*
X144920500Y-71968113D01*
X147219500Y-71968113D01*
X147219500Y-72180686D01*
X147252753Y-72390639D01*
X147318444Y-72592814D01*
X147414951Y-72782220D01*
X147539890Y-72954186D01*
X147690213Y-73104509D01*
X147862179Y-73229448D01*
X147862181Y-73229449D01*
X147862184Y-73229451D01*
X148051588Y-73325957D01*
X148253757Y-73391646D01*
X148463713Y-73424900D01*
X148463714Y-73424900D01*
X148676286Y-73424900D01*
X148676287Y-73424900D01*
X148886243Y-73391646D01*
X149088412Y-73325957D01*
X149277816Y-73229451D01*
X149299789Y-73213486D01*
X149449786Y-73104509D01*
X149449788Y-73104506D01*
X149449792Y-73104504D01*
X149600104Y-72954192D01*
X149600106Y-72954188D01*
X149600109Y-72954186D01*
X149725048Y-72782220D01*
X149725047Y-72782220D01*
X149725051Y-72782216D01*
X149821557Y-72592812D01*
X149887246Y-72390643D01*
X149920500Y-72180687D01*
X149920500Y-71968113D01*
X152219500Y-71968113D01*
X152219500Y-72180686D01*
X152252753Y-72390639D01*
X152318444Y-72592814D01*
X152414951Y-72782220D01*
X152539890Y-72954186D01*
X152690213Y-73104509D01*
X152862179Y-73229448D01*
X152862181Y-73229449D01*
X152862184Y-73229451D01*
X153051588Y-73325957D01*
X153253757Y-73391646D01*
X153463713Y-73424900D01*
X153463714Y-73424900D01*
X153676286Y-73424900D01*
X153676287Y-73424900D01*
X153886243Y-73391646D01*
X154088412Y-73325957D01*
X154277816Y-73229451D01*
X154299789Y-73213486D01*
X154449786Y-73104509D01*
X154449788Y-73104506D01*
X154449792Y-73104504D01*
X154600104Y-72954192D01*
X154600106Y-72954188D01*
X154600109Y-72954186D01*
X154725048Y-72782220D01*
X154725047Y-72782220D01*
X154725051Y-72782216D01*
X154821557Y-72592812D01*
X154887246Y-72390643D01*
X154920500Y-72180687D01*
X154920500Y-71968113D01*
X154887246Y-71758157D01*
X154821557Y-71555988D01*
X154725051Y-71366584D01*
X154725049Y-71366581D01*
X154725048Y-71366579D01*
X154700032Y-71332147D01*
X154679679Y-71304134D01*
X154600104Y-71194608D01*
X154449792Y-71044296D01*
X154449786Y-71044290D01*
X154277820Y-70919351D01*
X154088414Y-70822844D01*
X154088413Y-70822843D01*
X154088412Y-70822843D01*
X153886243Y-70757154D01*
X153886241Y-70757153D01*
X153886240Y-70757153D01*
X153724957Y-70731608D01*
X153676287Y-70723900D01*
X153463713Y-70723900D01*
X153415042Y-70731608D01*
X153253760Y-70757153D01*
X153051585Y-70822844D01*
X152862179Y-70919351D01*
X152690213Y-71044290D01*
X152539890Y-71194613D01*
X152414951Y-71366579D01*
X152318444Y-71555985D01*
X152252753Y-71758160D01*
X152219500Y-71968113D01*
X149920500Y-71968113D01*
X149887246Y-71758157D01*
X149821557Y-71555988D01*
X149725051Y-71366584D01*
X149725049Y-71366581D01*
X149725048Y-71366579D01*
X149600109Y-71194613D01*
X149449786Y-71044290D01*
X149277820Y-70919351D01*
X149088414Y-70822844D01*
X149088413Y-70822843D01*
X149088412Y-70822843D01*
X148886243Y-70757154D01*
X148886241Y-70757153D01*
X148886240Y-70757153D01*
X148724957Y-70731608D01*
X148676287Y-70723900D01*
X148463713Y-70723900D01*
X148415042Y-70731608D01*
X148253760Y-70757153D01*
X148051585Y-70822844D01*
X147862179Y-70919351D01*
X147690213Y-71044290D01*
X147539890Y-71194613D01*
X147414951Y-71366579D01*
X147318444Y-71555985D01*
X147252753Y-71758160D01*
X147219500Y-71968113D01*
X144920500Y-71968113D01*
X144887246Y-71758157D01*
X144821557Y-71555988D01*
X144725051Y-71366584D01*
X144725049Y-71366581D01*
X144725048Y-71366579D01*
X144600109Y-71194613D01*
X144449786Y-71044290D01*
X144277820Y-70919351D01*
X144088414Y-70822844D01*
X144088413Y-70822843D01*
X144088412Y-70822843D01*
X143886243Y-70757154D01*
X143886241Y-70757153D01*
X143886240Y-70757153D01*
X143724957Y-70731608D01*
X143676287Y-70723900D01*
X143463713Y-70723900D01*
X143415042Y-70731608D01*
X143253760Y-70757153D01*
X143051585Y-70822844D01*
X142862179Y-70919351D01*
X142690213Y-71044290D01*
X142539890Y-71194613D01*
X142414951Y-71366579D01*
X142318444Y-71555985D01*
X142252753Y-71758160D01*
X142219500Y-71968113D01*
X114200500Y-71968113D01*
X114200500Y-70324500D01*
X114220185Y-70257461D01*
X114272989Y-70211706D01*
X114324500Y-70200500D01*
X138039880Y-70200500D01*
X138039882Y-70200500D01*
X138113574Y-70169976D01*
X138169976Y-70113574D01*
X138200500Y-70039882D01*
X138200500Y-68324500D01*
X138220185Y-68257461D01*
X138272989Y-68211706D01*
X138324500Y-68200500D01*
X154675500Y-68200500D01*
X154742539Y-68220185D01*
G37*
%TD.AperFunction*%
%TD*%
M02*
