%TF.GenerationSoftware,KiCad,Pcbnew,9.99.0-1168-g72ed3d3f11*%
%TF.CreationDate,2025-06-22T12:16:08-07:00*%
%TF.ProjectId,io_board,696f5f62-6f61-4726-942e-6b696361645f,rev?*%
%TF.SameCoordinates,Original*%
%TF.FileFunction,Paste,Bot*%
%TF.FilePolarity,Positive*%
%FSLAX46Y46*%
G04 Gerber Fmt 4.6, Leading zero omitted, Abs format (unit mm)*
G04 Created by KiCad (PCBNEW 9.99.0-1168-g72ed3d3f11) date 2025-06-22 12:16:08*
%MOMM*%
%LPD*%
G01*
G04 APERTURE LIST*
G04 Aperture macros list*
%AMRoundRect*
0 Rectangle with rounded corners*
0 $1 Rounding radius*
0 $2 $3 $4 $5 $6 $7 $8 $9 X,Y pos of 4 corners*
0 Add a 4 corners polygon primitive as box body*
4,1,4,$2,$3,$4,$5,$6,$7,$8,$9,$2,$3,0*
0 Add four circle primitives for the rounded corners*
1,1,$1+$1,$2,$3*
1,1,$1+$1,$4,$5*
1,1,$1+$1,$6,$7*
1,1,$1+$1,$8,$9*
0 Add four rect primitives between the rounded corners*
20,1,$1+$1,$2,$3,$4,$5,0*
20,1,$1+$1,$4,$5,$6,$7,0*
20,1,$1+$1,$6,$7,$8,$9,0*
20,1,$1+$1,$8,$9,$2,$3,0*%
G04 Aperture macros list end*
%ADD10RoundRect,0.140000X0.140000X0.170000X-0.140000X0.170000X-0.140000X-0.170000X0.140000X-0.170000X0*%
%ADD11R,0.600000X2.300000*%
%ADD12R,2.100000X2.800000*%
%ADD13R,1.250000X0.300000*%
%ADD14R,2.200000X2.300000*%
G04 APERTURE END LIST*
D10*
%TO.C,C56*%
X146580800Y-26822400D03*
X145620800Y-26822400D03*
%TD*%
D11*
%TO.C,FPC1*%
X147625000Y-28880000D03*
X146625000Y-28880000D03*
X145625000Y-28880000D03*
X144625000Y-28880000D03*
X143625000Y-28880000D03*
X142625000Y-28880000D03*
D12*
X139475000Y-31120000D03*
X150775000Y-31120000D03*
%TD*%
D13*
%TO.C,U1*%
X158640000Y-27385000D03*
X158640000Y-27885000D03*
X158640000Y-28385000D03*
X158640000Y-28885000D03*
X158640000Y-29385000D03*
X158640000Y-29885000D03*
X158640000Y-30385000D03*
X158640000Y-30885000D03*
X158640000Y-31385000D03*
X158640000Y-31885000D03*
X158640000Y-32385000D03*
X158640000Y-32885000D03*
X158640000Y-33385000D03*
X158640000Y-33885000D03*
X158640000Y-34385000D03*
X158640000Y-34885000D03*
X158640000Y-35385000D03*
X158640000Y-35885000D03*
X158640000Y-36385000D03*
X158640000Y-36885000D03*
X158640000Y-37385000D03*
X158640000Y-37885000D03*
X158640000Y-38385000D03*
X158640000Y-38885000D03*
X158640000Y-39385000D03*
X158640000Y-39885000D03*
X158640000Y-40385000D03*
X158640000Y-40885000D03*
X158640000Y-41385000D03*
X158640000Y-41885000D03*
X158640000Y-42385000D03*
X158640000Y-42885000D03*
X158640000Y-43385000D03*
X158640000Y-43885000D03*
X158640000Y-44385000D03*
D14*
X161360000Y-46285000D03*
X161360000Y-25485000D03*
%TD*%
M02*
