%TF.GenerationSoftware,KiCad,Pcbnew,9.99.0-1168-g72ed3d3f11*%
%TF.CreationDate,2025-06-22T12:16:08-07:00*%
%TF.ProjectId,io_board,696f5f62-6f61-4726-942e-6b696361645f,rev?*%
%TF.SameCoordinates,Original*%
%TF.FileFunction,Legend,Bot*%
%TF.FilePolarity,Positive*%
%FSLAX46Y46*%
G04 Gerber Fmt 4.6, Leading zero omitted, Abs format (unit mm)*
G04 Created by KiCad (PCBNEW 9.99.0-1168-g72ed3d3f11) date 2025-06-22 12:16:08*
%MOMM*%
%LPD*%
G01*
G04 APERTURE LIST*
%ADD10C,0.100000*%
%ADD11C,0.200000*%
%ADD12C,0.120000*%
G04 APERTURE END LIST*
D10*
X156307200Y-41548164D02*
X156268211Y-41514925D01*
X156229320Y-41481874D01*
X156190527Y-41449011D01*
X156151830Y-41416333D01*
X156113228Y-41383840D01*
X156074719Y-41351529D01*
X156036303Y-41319400D01*
X155997977Y-41287449D01*
X155959740Y-41255677D01*
X155921591Y-41224080D01*
X155883527Y-41192658D01*
X155845548Y-41161409D01*
X155807650Y-41130330D01*
X155769833Y-41099419D01*
X155732094Y-41068675D01*
X155694432Y-41038096D01*
X155656843Y-41007678D01*
X155619325Y-40977421D01*
X155581876Y-40947321D01*
X155544494Y-40917377D01*
X155507175Y-40887585D01*
X155469917Y-40857943D01*
X155432715Y-40828447D01*
X155395568Y-40799096D01*
X155358471Y-40769886D01*
X155321421Y-40740814D01*
X155284413Y-40711876D01*
X155247443Y-40683068D01*
X155210507Y-40654387D01*
X155173599Y-40625828D01*
X155136714Y-40597388D01*
X155099847Y-40569061D01*
X155062990Y-40540842D01*
X155026138Y-40512727D01*
X154989283Y-40484708D01*
X154952416Y-40456781D01*
X154915529Y-40428938D01*
X154878613Y-40401171D01*
X154841657Y-40373474D01*
X154804649Y-40345836D01*
X154767576Y-40318249D01*
X154730424Y-40290702D01*
X154693177Y-40263182D01*
X154655818Y-40235677D01*
X154618325Y-40208173D01*
X154580676Y-40180651D01*
X154542845Y-40153094D01*
X154504801Y-40125480D01*
X154466511Y-40097783D01*
X154427932Y-40069976D01*
X154389017Y-40042023D01*
X154349709Y-40013884D01*
X154309937Y-39985509D01*
X154269617Y-39956840D01*
X154228642Y-39927800D01*
X154186875Y-39898295D01*
X154144137Y-39868199D01*
X154100184Y-39837342D01*
X154054674Y-39805486D01*
X154007091Y-39772272D01*
X153956602Y-39737122D01*
X153901690Y-39698983D01*
X153838967Y-39655506D01*
X153769938Y-39607717D01*
X153692356Y-39554002D01*
X153654814Y-39527975D01*
X153618100Y-39502479D01*
X153582210Y-39477498D01*
X153547139Y-39453014D01*
X153529910Y-39440955D01*
X153512885Y-39429013D01*
X153496062Y-39417188D01*
X153479442Y-39405477D01*
X153463024Y-39393878D01*
X153446808Y-39382389D01*
X153430793Y-39371009D01*
X153414978Y-39359734D01*
X153399364Y-39348563D01*
X153383949Y-39337494D01*
X153368733Y-39326525D01*
X153353716Y-39315654D01*
X153338897Y-39304878D01*
X153324276Y-39294196D01*
X153309852Y-39283605D01*
X153295624Y-39273104D01*
X153281593Y-39262690D01*
X153267758Y-39252361D01*
X153254118Y-39242116D01*
X153240673Y-39231952D01*
X153227422Y-39221867D01*
X153214364Y-39211859D01*
X153201501Y-39201926D01*
X153188830Y-39192066D01*
X153176351Y-39182276D01*
X153164064Y-39172556D01*
X153151969Y-39162902D01*
X153140064Y-39153313D01*
X153128350Y-39143787D01*
X153116826Y-39134321D01*
X153105491Y-39124913D01*
X153094345Y-39115562D01*
X153088843Y-39110907D01*
X153083388Y-39106266D01*
X153077979Y-39101637D01*
X153072618Y-39097021D01*
X153067304Y-39092418D01*
X153062036Y-39087827D01*
X153056815Y-39083248D01*
X153051641Y-39078681D01*
X153046514Y-39074125D01*
X153041433Y-39069581D01*
X153036399Y-39065047D01*
X153031411Y-39060525D01*
X153026469Y-39056012D01*
X153021574Y-39051510D01*
X153016725Y-39047018D01*
X153011922Y-39042536D01*
X153007166Y-39038063D01*
X153002455Y-39033600D01*
X152997791Y-39029145D01*
X152993172Y-39024699D01*
X152988600Y-39020261D01*
X152984073Y-39015832D01*
X152979592Y-39011410D01*
X152975157Y-39006996D01*
X152970767Y-39002590D01*
X152966423Y-38998190D01*
X152962124Y-38993798D01*
X152957871Y-38989412D01*
X152953664Y-38985032D01*
X152949502Y-38980659D01*
X152945385Y-38976291D01*
X152941313Y-38971929D01*
X152937287Y-38967573D01*
X152933305Y-38963221D01*
X152929369Y-38958874D01*
X152925478Y-38954532D01*
X152921631Y-38950194D01*
X152917830Y-38945860D01*
X152914073Y-38941529D01*
X152910361Y-38937203D01*
X152906694Y-38932879D01*
X152903071Y-38928559D01*
X152899493Y-38924241D01*
X152895959Y-38919926D01*
X152892470Y-38915613D01*
X152889026Y-38911302D01*
X152885625Y-38906992D01*
X152882269Y-38902684D01*
X152878957Y-38898378D01*
X152875689Y-38894072D01*
X152872466Y-38889767D01*
X152869286Y-38885462D01*
X152866150Y-38881157D01*
X152863058Y-38876853D01*
X152860010Y-38872548D01*
X152857006Y-38868242D01*
X152854046Y-38863936D01*
X152851129Y-38859628D01*
X152848256Y-38855319D01*
X152845426Y-38851008D01*
X152842640Y-38846695D01*
X152839897Y-38842381D01*
X152837198Y-38838063D01*
X152834542Y-38833744D01*
X152831929Y-38829421D01*
X152829359Y-38825095D01*
X152826832Y-38820765D01*
X152824349Y-38816432D01*
X152821908Y-38812095D01*
X152819511Y-38807753D01*
X152817156Y-38803407D01*
X152814844Y-38799057D01*
X152812575Y-38794701D01*
X152810348Y-38790340D01*
X152808164Y-38785974D01*
X152806023Y-38781601D01*
X152803924Y-38777223D01*
X152801868Y-38772838D01*
X152799854Y-38768447D01*
X152797882Y-38764049D01*
X152795953Y-38759644D01*
X152794066Y-38755232D01*
X152792221Y-38750812D01*
X152790418Y-38746384D01*
X152788657Y-38741948D01*
X152786938Y-38737504D01*
X152785261Y-38733051D01*
X152783626Y-38728589D01*
X152782032Y-38724118D01*
X152780481Y-38719638D01*
X152778971Y-38715148D01*
X152777502Y-38710648D01*
X152776075Y-38706138D01*
X152774690Y-38701617D01*
X152773346Y-38697086D01*
X152772043Y-38692544D01*
X152770782Y-38687991D01*
X152769562Y-38683426D01*
X152768383Y-38678849D01*
X152767245Y-38674261D01*
X152766148Y-38669660D01*
X152765092Y-38665047D01*
X152764077Y-38660421D01*
X152763103Y-38655782D01*
X152762170Y-38651129D01*
X152761278Y-38646464D01*
X152760426Y-38641784D01*
X152759615Y-38637090D01*
X152758844Y-38632382D01*
X152758114Y-38627660D01*
X152757424Y-38622922D01*
X152756775Y-38618170D01*
X152756166Y-38613402D01*
X152755597Y-38608619D01*
X152755069Y-38603820D01*
X152754581Y-38599004D01*
X152754133Y-38594173D01*
X152753724Y-38589324D01*
X152753356Y-38584459D01*
X152753028Y-38579577D01*
X152752739Y-38574677D01*
X152752490Y-38569759D01*
X152752281Y-38564824D01*
X152752112Y-38559871D01*
X152751982Y-38554899D01*
X152751892Y-38549908D01*
X152751841Y-38544898D01*
X152751830Y-38539870D01*
X152751858Y-38534821D01*
X152751925Y-38529753D01*
X152752032Y-38524665D01*
X152752178Y-38519557D01*
X152752362Y-38514428D01*
X152752586Y-38509279D01*
X152752849Y-38504108D01*
X152753151Y-38498916D01*
X152753492Y-38493703D01*
X152753871Y-38488468D01*
X152754289Y-38483211D01*
X152754746Y-38477931D01*
X152755242Y-38472629D01*
X152755776Y-38467304D01*
X152756348Y-38461956D01*
X152756959Y-38456585D01*
X152757609Y-38451190D01*
X152758297Y-38445771D01*
X152759023Y-38440329D01*
X152759787Y-38434861D01*
X152760589Y-38429369D01*
X152761430Y-38423853D01*
X152762308Y-38418311D01*
X152763225Y-38412743D01*
X152764179Y-38407150D01*
X152765171Y-38401532D01*
X152766201Y-38395886D01*
X152767269Y-38390215D01*
X152768374Y-38384517D01*
X152769517Y-38378791D01*
X152770697Y-38373039D01*
X152771915Y-38367259D01*
X152773170Y-38361452D01*
X152774463Y-38355616D01*
X152775793Y-38349752D01*
X152777160Y-38343860D01*
X152778565Y-38337939D01*
X152780006Y-38331988D01*
X152781484Y-38326009D01*
X152783000Y-38320000D01*
X147450000Y-25944000D02*
X147458837Y-25948459D01*
X147468162Y-25953077D01*
X147478042Y-25957881D01*
X147488563Y-25962910D01*
X147499843Y-25968215D01*
X147512046Y-25973868D01*
X147525424Y-25979980D01*
X147540386Y-25986733D01*
X147557716Y-25994471D01*
X147579331Y-26004046D01*
X147593892Y-26010474D01*
X147623942Y-26023754D01*
X147639172Y-26030525D01*
X147654523Y-26037397D01*
X147669983Y-26044381D01*
X147677750Y-26047917D01*
X147685539Y-26051486D01*
X147693350Y-26055088D01*
X147701180Y-26058724D01*
X147709028Y-26062396D01*
X147716892Y-26066106D01*
X147724772Y-26069853D01*
X147732665Y-26073641D01*
X147740570Y-26077469D01*
X147748485Y-26081340D01*
X147756409Y-26085254D01*
X147764341Y-26089214D01*
X147772278Y-26093220D01*
X147780220Y-26097273D01*
X147788165Y-26101376D01*
X147796110Y-26105528D01*
X147804056Y-26109733D01*
X147812000Y-26113990D01*
X147819940Y-26118301D01*
X147827876Y-26122668D01*
X147835805Y-26127092D01*
X147843727Y-26131574D01*
X147851639Y-26136116D01*
X147859540Y-26140718D01*
X147867429Y-26145383D01*
X147875303Y-26150111D01*
X147883163Y-26154903D01*
X147891005Y-26159762D01*
X147898829Y-26164688D01*
X147906633Y-26169683D01*
X147914415Y-26174748D01*
X147922174Y-26179884D01*
X147929908Y-26185093D01*
X147937617Y-26190376D01*
X147945297Y-26195734D01*
X147949127Y-26198442D01*
X147952949Y-26201169D01*
X147956763Y-26203915D01*
X147960570Y-26206682D01*
X147964368Y-26209468D01*
X147968158Y-26212274D01*
X147971940Y-26215100D01*
X147975713Y-26217946D01*
X147979477Y-26220813D01*
X147983233Y-26223701D01*
X147986979Y-26226609D01*
X147990715Y-26229538D01*
X147994443Y-26232489D01*
X147998160Y-26235460D01*
X148001867Y-26238453D01*
X148005565Y-26241468D01*
X148009251Y-26244505D01*
X148012928Y-26247563D01*
X148016593Y-26250644D01*
X148020248Y-26253747D01*
X148023892Y-26256872D01*
X148027524Y-26260020D01*
X148031145Y-26263191D01*
X148034754Y-26266385D01*
X148038352Y-26269601D01*
X148041937Y-26272841D01*
X148045510Y-26276105D01*
X148049070Y-26279392D01*
X148052618Y-26282703D01*
X148056154Y-26286038D01*
X148059676Y-26289396D01*
X148063185Y-26292780D01*
X148066680Y-26296187D01*
X148070162Y-26299619D01*
X148073631Y-26303076D01*
X148077085Y-26306558D01*
X148080525Y-26310065D01*
X148083951Y-26313597D01*
X148087362Y-26317154D01*
X148090759Y-26320738D01*
X148094140Y-26324346D01*
X148097507Y-26327981D01*
X148100858Y-26331642D01*
X148104194Y-26335329D01*
X148107514Y-26339042D01*
X148110818Y-26342782D01*
X148114106Y-26346549D01*
X148117378Y-26350343D01*
X148120634Y-26354163D01*
X148123873Y-26358011D01*
X148127095Y-26361886D01*
X148130300Y-26365789D01*
X148133488Y-26369720D01*
X148136658Y-26373678D01*
X148139811Y-26377664D01*
X148142947Y-26381679D01*
X148146064Y-26385722D01*
X148149163Y-26389794D01*
X148152244Y-26393894D01*
X148155306Y-26398023D01*
X148158349Y-26402181D01*
X148161374Y-26406368D01*
X148164380Y-26410585D01*
X148167366Y-26414831D01*
X148170333Y-26419107D01*
X148173280Y-26423413D01*
X148176207Y-26427749D01*
X148179114Y-26432115D01*
X148182001Y-26436511D01*
X148184868Y-26440938D01*
X148187714Y-26445395D01*
X148190539Y-26449883D01*
X148193343Y-26454403D01*
X148196126Y-26458953D01*
X148198887Y-26463535D01*
X148201627Y-26468148D01*
X148204345Y-26472793D01*
X148207042Y-26477470D01*
X148209716Y-26482179D01*
X148212368Y-26486920D01*
X148214997Y-26491693D01*
X148217603Y-26496499D01*
X148220187Y-26501337D01*
X148222748Y-26506209D01*
X148225285Y-26511113D01*
X148227799Y-26516050D01*
X148230289Y-26521021D01*
X148232755Y-26526025D01*
X148235198Y-26531063D01*
X148237616Y-26536134D01*
X148240009Y-26541240D01*
X148242378Y-26546379D01*
X148244722Y-26551553D01*
X148247042Y-26556762D01*
X148249336Y-26562005D01*
X148251604Y-26567283D01*
X148253847Y-26572595D01*
X148256065Y-26577943D01*
X148258256Y-26583327D01*
X148260421Y-26588745D01*
X148262560Y-26594199D01*
X148264672Y-26599689D01*
X148266758Y-26605215D01*
X148268817Y-26610778D01*
X148270849Y-26616376D01*
X148272853Y-26622011D01*
X148274830Y-26627682D01*
X148276779Y-26633390D01*
X148278701Y-26639135D01*
X148280594Y-26644917D01*
X148282459Y-26650737D01*
X148284296Y-26656594D01*
X148286104Y-26662488D01*
X148287883Y-26668420D01*
X148289634Y-26674390D01*
X148291355Y-26680399D01*
X148293047Y-26686445D01*
X148294709Y-26692530D01*
X148296341Y-26698653D01*
X148297944Y-26704816D01*
X148299516Y-26711017D01*
X148301058Y-26717257D01*
X148302570Y-26723536D01*
X148304051Y-26729855D01*
X148305501Y-26736213D01*
X148306920Y-26742611D01*
X148308307Y-26749049D01*
X148309663Y-26755527D01*
X148310988Y-26762046D01*
X148312280Y-26768604D01*
X148313541Y-26775203D01*
X148314769Y-26781843D01*
X148315965Y-26788524D01*
X148317129Y-26795246D01*
X148318259Y-26802009D01*
X148319357Y-26808813D01*
X148320421Y-26815659D01*
X148321452Y-26822547D01*
X148322450Y-26829476D01*
X148323413Y-26836448D01*
X148324343Y-26843461D01*
X148325239Y-26850518D01*
X148326100Y-26857616D01*
X148326927Y-26864757D01*
X148327719Y-26871942D01*
X148328476Y-26879169D01*
X148329198Y-26886439D01*
X148329885Y-26893753D01*
X148330537Y-26901110D01*
X148331152Y-26908511D01*
X148331732Y-26915956D01*
X148332276Y-26923445D01*
X148332784Y-26930977D01*
X148333255Y-26938555D01*
X148333689Y-26946176D01*
X148334087Y-26953843D01*
X148334448Y-26961554D01*
X148334772Y-26969310D01*
X148335058Y-26977112D01*
X148335307Y-26984959D01*
X148335518Y-26992851D01*
X148335691Y-27000789D01*
X148335826Y-27008772D01*
X148335922Y-27016802D01*
X148335981Y-27024878D01*
X148336000Y-27033000D01*
X152783000Y-38320000D02*
X152793850Y-38277435D01*
X152804420Y-38236042D01*
X152814779Y-38195561D01*
X152824862Y-38156235D01*
X152834736Y-38117801D01*
X152844339Y-38080505D01*
X152853737Y-38044080D01*
X152862866Y-38008778D01*
X152871795Y-37974326D01*
X152880458Y-37940979D01*
X152888925Y-37908463D01*
X152897129Y-37877036D01*
X152905142Y-37846419D01*
X152912895Y-37816874D01*
X152920460Y-37788118D01*
X152927767Y-37760420D01*
X152934892Y-37733490D01*
X152941762Y-37707600D01*
X152948453Y-37682459D01*
X152954891Y-37658343D01*
X152961156Y-37634953D01*
X152967170Y-37612575D01*
X152973014Y-37590902D01*
X152978609Y-37570225D01*
X152984040Y-37550233D01*
X152989223Y-37531223D01*
X152994246Y-37512877D01*
X152999022Y-37495501D01*
X153003643Y-37478766D01*
X153008018Y-37462990D01*
X153012241Y-37447834D01*
X153016220Y-37433627D01*
X153020050Y-37420019D01*
X153023635Y-37407353D01*
X153027076Y-37395264D01*
X153030270Y-37384113D01*
X153033324Y-37373519D01*
X153036126Y-37363863D01*
X153041199Y-37346574D01*
X153045475Y-37332243D01*
X153048922Y-37320918D01*
X153051464Y-37312765D01*
X153052889Y-37308336D01*
X153053000Y-37308000D01*
X152827000Y-33897000D02*
X152832608Y-33899623D01*
X152838128Y-33902227D01*
X152843587Y-33904823D01*
X152848958Y-33907400D01*
X152854268Y-33909969D01*
X152859491Y-33912519D01*
X152864654Y-33915060D01*
X152869730Y-33917582D01*
X152874746Y-33920095D01*
X152879676Y-33922588D01*
X152884547Y-33925073D01*
X152889332Y-33927536D01*
X152894059Y-33929991D01*
X152898700Y-33932424D01*
X152903283Y-33934849D01*
X152907782Y-33937252D01*
X152912222Y-33939646D01*
X152916579Y-33942017D01*
X152920878Y-33944380D01*
X152925094Y-33946719D01*
X152929253Y-33949049D01*
X152933329Y-33951355D01*
X152937348Y-33953652D01*
X152941285Y-33955924D01*
X152945166Y-33958187D01*
X152948964Y-33960425D01*
X152952707Y-33962653D01*
X152956368Y-33964855D01*
X152959975Y-33967047D01*
X152963499Y-33969212D01*
X152966970Y-33971367D01*
X152970359Y-33973495D01*
X152973694Y-33975612D01*
X152976948Y-33977701D01*
X152980149Y-33979779D01*
X152983269Y-33981829D01*
X152986336Y-33983866D01*
X152989322Y-33985874D01*
X152992256Y-33987871D01*
X152995110Y-33989836D01*
X152997912Y-33991789D01*
X153000634Y-33993711D01*
X153003303Y-33995620D01*
X153005893Y-33997495D01*
X153008432Y-33999358D01*
X153010891Y-34001187D01*
X153013298Y-34003001D01*
X153015626Y-34004781D01*
X153017903Y-34006545D01*
X153020100Y-34008273D01*
X153022246Y-34009986D01*
X153024314Y-34011660D01*
X153026329Y-34013318D01*
X153028267Y-34014936D01*
X153030152Y-34016536D01*
X153031959Y-34018096D01*
X153033714Y-34019636D01*
X153035391Y-34021133D01*
X153037014Y-34022609D01*
X153038560Y-34024041D01*
X153040052Y-34025448D01*
X153041467Y-34026810D01*
X153042826Y-34028146D01*
X153044110Y-34029433D01*
X153045336Y-34030691D01*
X153046487Y-34031899D01*
X153047579Y-34033073D01*
X153048596Y-34034195D01*
X153049553Y-34035278D01*
X153050436Y-34036308D01*
X153051256Y-34037293D01*
X153052004Y-34038223D01*
X153052687Y-34039101D01*
X153053302Y-34039923D01*
X153053848Y-34040686D01*
X153054330Y-34041392D01*
X153054743Y-34042031D01*
X153055097Y-34042615D01*
X153055384Y-34043125D01*
X153055619Y-34043583D01*
X153055793Y-34043964D01*
X153055924Y-34044299D01*
X153056005Y-34044561D01*
X153056053Y-34044784D01*
X153056067Y-34044946D01*
X153056058Y-34045079D01*
X153056032Y-34045167D01*
X153055989Y-34045235D01*
X153055939Y-34045278D01*
X153055876Y-34045304D01*
X153055710Y-34045306D01*
X153055459Y-34045223D01*
X153055090Y-34045009D01*
X153054575Y-34044609D01*
X153053899Y-34043975D01*
X153053064Y-34043074D01*
X153053000Y-34043000D01*
X148336000Y-27033000D02*
X148336010Y-27040396D01*
X148336040Y-27047750D01*
X148336089Y-27055064D01*
X148336159Y-27062337D01*
X148336248Y-27069573D01*
X148336356Y-27076767D01*
X148336484Y-27083926D01*
X148336631Y-27091045D01*
X148336797Y-27098129D01*
X148336982Y-27105174D01*
X148337186Y-27112187D01*
X148337409Y-27119160D01*
X148337651Y-27126103D01*
X148337912Y-27133008D01*
X148338191Y-27139883D01*
X148338489Y-27146721D01*
X148338806Y-27153531D01*
X148339140Y-27160305D01*
X148339494Y-27167053D01*
X148339865Y-27173764D01*
X148340256Y-27180452D01*
X148340664Y-27187103D01*
X148341090Y-27193733D01*
X148341534Y-27200327D01*
X148341997Y-27206902D01*
X148342478Y-27213441D01*
X148343493Y-27226450D01*
X148344581Y-27239358D01*
X148345740Y-27252170D01*
X148346970Y-27264893D01*
X148348273Y-27277530D01*
X148349647Y-27290088D01*
X148351092Y-27302571D01*
X148352610Y-27314985D01*
X148354200Y-27327337D01*
X148355863Y-27339631D01*
X148357599Y-27351875D01*
X148359409Y-27364074D01*
X148361294Y-27376235D01*
X148363254Y-27388365D01*
X148365291Y-27400471D01*
X148367405Y-27412561D01*
X148369599Y-27424643D01*
X148371874Y-27436726D01*
X148374231Y-27448818D01*
X148376672Y-27460930D01*
X148379201Y-27473072D01*
X148381819Y-27485255D01*
X148384530Y-27497493D01*
X148387337Y-27509797D01*
X148390244Y-27522185D01*
X148393255Y-27534671D01*
X148396377Y-27547276D01*
X148399614Y-27560019D01*
X148402974Y-27572925D01*
X148406466Y-27586021D01*
X148410098Y-27599340D01*
X148413884Y-27612920D01*
X148417836Y-27626806D01*
X148421973Y-27641052D01*
X148426316Y-27655729D01*
X148430894Y-27670922D01*
X148435744Y-27686747D01*
X148440917Y-27703359D01*
X148446485Y-27720981D01*
X148452560Y-27739950D01*
X148459327Y-27760835D01*
X148467151Y-27784740D01*
X148476966Y-27814504D01*
X148482006Y-27829744D01*
X148491255Y-27857725D01*
X148500559Y-27886010D01*
X148505225Y-27900286D01*
X148509896Y-27914663D01*
X148514570Y-27929148D01*
X148519244Y-27943750D01*
X148523914Y-27958477D01*
X148528578Y-27973337D01*
X148533234Y-27988337D01*
X148537877Y-28003487D01*
X148542506Y-28018794D01*
X148547117Y-28034267D01*
X148551708Y-28049914D01*
X148556276Y-28065742D01*
X148558550Y-28073727D01*
X148560817Y-28081760D01*
X148563077Y-28089843D01*
X148565330Y-28097976D01*
X148567574Y-28106161D01*
X148569810Y-28114399D01*
X148572038Y-28122690D01*
X148574256Y-28131035D01*
X148576465Y-28139437D01*
X148578664Y-28147895D01*
X148580853Y-28156410D01*
X148583032Y-28164985D01*
X148585200Y-28173619D01*
X148587357Y-28182314D01*
X148589502Y-28191070D01*
X148591635Y-28199890D01*
X148593756Y-28208773D01*
X148595864Y-28217721D01*
X148597959Y-28226735D01*
X148600041Y-28235815D01*
X148602110Y-28244964D01*
X148604164Y-28254181D01*
X148606204Y-28263468D01*
X148608229Y-28272826D01*
X148610239Y-28282256D01*
X148612233Y-28291759D01*
X148614212Y-28301336D01*
X148616174Y-28310988D01*
X148618120Y-28320716D01*
X148620049Y-28330521D01*
X148621961Y-28340404D01*
X148623855Y-28350366D01*
X148625731Y-28360409D01*
X148627588Y-28370532D01*
X148629427Y-28380737D01*
X148631247Y-28391026D01*
X148633048Y-28401399D01*
X148634828Y-28411856D01*
X148636589Y-28422400D01*
X148638329Y-28433032D01*
X148640048Y-28443751D01*
X148641746Y-28454560D01*
X148643422Y-28465459D01*
X148645077Y-28476449D01*
X148646709Y-28487532D01*
X148648318Y-28498708D01*
X148649905Y-28509978D01*
X148651468Y-28521344D01*
X148653007Y-28532806D01*
X148654523Y-28544365D01*
X148656013Y-28556023D01*
X148657480Y-28567780D01*
X148658920Y-28579638D01*
X148660336Y-28591597D01*
X148661725Y-28603659D01*
X148663089Y-28615824D01*
X148664425Y-28628094D01*
X148665735Y-28640469D01*
X148667018Y-28652951D01*
X148668272Y-28665540D01*
X148669499Y-28678238D01*
X148670698Y-28691046D01*
X148671867Y-28703964D01*
X148673008Y-28716994D01*
X148674119Y-28730136D01*
X148675200Y-28743393D01*
X148676251Y-28756764D01*
X148677272Y-28770250D01*
X148678262Y-28783854D01*
X148679220Y-28797575D01*
X148680147Y-28811415D01*
X148681042Y-28825375D01*
X148681904Y-28839455D01*
X148682734Y-28853658D01*
X148683531Y-28867983D01*
X148684295Y-28882433D01*
X148685024Y-28897007D01*
X148685720Y-28911707D01*
X148686381Y-28926534D01*
X148687007Y-28941489D01*
X148687599Y-28956572D01*
X148688154Y-28971786D01*
X148688674Y-28987131D01*
X148689157Y-29002608D01*
X148689604Y-29018218D01*
X148690014Y-29033962D01*
X148690386Y-29049841D01*
X148690721Y-29065856D01*
X148691018Y-29082009D01*
X148691276Y-29098299D01*
X148691496Y-29114729D01*
X148691677Y-29131299D01*
X148691817Y-29148010D01*
X148691919Y-29164863D01*
X148691980Y-29181859D01*
X148692000Y-29199000D01*
X149984000Y-33291000D02*
X150009267Y-33300562D01*
X150034193Y-33310080D01*
X150058798Y-33319559D01*
X150083098Y-33329006D01*
X150107115Y-33338426D01*
X150130871Y-33347828D01*
X150154391Y-33357221D01*
X150177703Y-33366615D01*
X150200839Y-33376023D01*
X150223837Y-33385459D01*
X150246741Y-33394941D01*
X150269604Y-33404490D01*
X150292492Y-33414134D01*
X150315488Y-33423907D01*
X150338702Y-33433858D01*
X150362283Y-33444049D01*
X150386448Y-33454575D01*
X150411530Y-33465584D01*
X150438103Y-33477329D01*
X150467328Y-33490325D01*
X150502413Y-33506000D01*
X150513514Y-33510967D01*
X150542928Y-33524122D01*
X150571351Y-33536786D01*
X150585233Y-33542938D01*
X150598918Y-33548973D01*
X150612422Y-33554891D01*
X150625764Y-33560695D01*
X150638960Y-33566386D01*
X150652027Y-33571966D01*
X150664982Y-33577436D01*
X150677842Y-33582800D01*
X150690623Y-33588057D01*
X150703344Y-33593209D01*
X150709687Y-33595747D01*
X150716021Y-33598260D01*
X150722348Y-33600747D01*
X150728670Y-33603209D01*
X150734990Y-33605646D01*
X150741310Y-33608059D01*
X150747631Y-33610447D01*
X150753956Y-33612811D01*
X150760288Y-33615151D01*
X150766627Y-33617467D01*
X150772976Y-33619760D01*
X150779338Y-33622030D01*
X150785714Y-33624276D01*
X150792107Y-33626499D01*
X150798519Y-33628700D01*
X150804951Y-33630878D01*
X150811406Y-33633034D01*
X150817887Y-33635168D01*
X150824395Y-33637280D01*
X150830932Y-33639370D01*
X150837500Y-33641439D01*
X150844102Y-33643486D01*
X150850740Y-33645513D01*
X150857415Y-33647518D01*
X150864131Y-33649503D01*
X150870888Y-33651468D01*
X150877690Y-33653413D01*
X150884538Y-33655337D01*
X150891435Y-33657242D01*
X150898382Y-33659127D01*
X150905382Y-33660993D01*
X150912436Y-33662839D01*
X150919548Y-33664667D01*
X150926719Y-33666476D01*
X150933951Y-33668267D01*
X150941246Y-33670039D01*
X150948606Y-33671793D01*
X150956034Y-33673529D01*
X150963532Y-33675247D01*
X150971102Y-33676949D01*
X150978745Y-33678632D01*
X150986465Y-33680299D01*
X150994263Y-33681949D01*
X151002141Y-33683582D01*
X151010101Y-33685199D01*
X151018146Y-33686800D01*
X151026278Y-33688385D01*
X151034499Y-33689954D01*
X151042810Y-33691507D01*
X151051215Y-33693045D01*
X151059714Y-33694568D01*
X151068311Y-33696076D01*
X151077008Y-33697569D01*
X151085805Y-33699047D01*
X151094707Y-33700512D01*
X151103714Y-33701962D01*
X151112830Y-33703398D01*
X151122055Y-33704821D01*
X151131392Y-33706230D01*
X151140844Y-33707626D01*
X151150412Y-33709009D01*
X151160099Y-33710379D01*
X151169906Y-33711736D01*
X151179836Y-33713081D01*
X151189891Y-33714414D01*
X151200073Y-33715735D01*
X151210384Y-33717044D01*
X151220827Y-33718341D01*
X151231402Y-33719627D01*
X151242114Y-33720902D01*
X151252963Y-33722166D01*
X151263951Y-33723419D01*
X151275082Y-33724662D01*
X151286356Y-33725894D01*
X151297777Y-33727116D01*
X151309346Y-33728328D01*
X151321066Y-33729531D01*
X151332937Y-33730724D01*
X151344964Y-33731908D01*
X151357147Y-33733083D01*
X151369489Y-33734249D01*
X151381992Y-33735406D01*
X151394659Y-33736555D01*
X151407490Y-33737696D01*
X151420489Y-33738828D01*
X151433657Y-33739953D01*
X151446997Y-33741071D01*
X151460511Y-33742180D01*
X151474200Y-33743283D01*
X151488068Y-33744379D01*
X151502116Y-33745468D01*
X151516346Y-33746550D01*
X151545361Y-33748697D01*
X151575130Y-33750819D01*
X151605671Y-33752920D01*
X151637000Y-33755000D01*
X146589000Y-25714000D02*
X146601355Y-25714469D01*
X146613526Y-25714952D01*
X146625254Y-25715437D01*
X146636810Y-25715936D01*
X146647962Y-25716437D01*
X146658953Y-25716951D01*
X146669573Y-25717468D01*
X146680042Y-25717998D01*
X146690169Y-25718530D01*
X146700156Y-25719076D01*
X146709828Y-25719624D01*
X146719367Y-25720185D01*
X146728615Y-25720749D01*
X146737739Y-25721326D01*
X146746593Y-25721905D01*
X146755330Y-25722497D01*
X146763817Y-25723093D01*
X146772194Y-25723701D01*
X146780339Y-25724312D01*
X146788380Y-25724935D01*
X146796205Y-25725562D01*
X146803932Y-25726201D01*
X146811458Y-25726844D01*
X146818891Y-25727499D01*
X146826137Y-25728158D01*
X146833296Y-25728828D01*
X146840280Y-25729503D01*
X146847181Y-25730190D01*
X146853920Y-25730880D01*
X146860580Y-25731583D01*
X146867089Y-25732290D01*
X146873523Y-25733009D01*
X146879816Y-25733733D01*
X146886037Y-25734468D01*
X146892128Y-25735208D01*
X146898150Y-25735960D01*
X146904051Y-25736717D01*
X146909887Y-25737486D01*
X146915609Y-25738261D01*
X146921270Y-25739047D01*
X146926826Y-25739838D01*
X146932323Y-25740642D01*
X146937721Y-25741451D01*
X146943065Y-25742272D01*
X146948316Y-25743100D01*
X146953516Y-25743939D01*
X146958630Y-25744785D01*
X146963695Y-25745643D01*
X146968681Y-25746508D01*
X146973620Y-25747386D01*
X146978486Y-25748270D01*
X146983307Y-25749167D01*
X146988062Y-25750071D01*
X146992774Y-25750988D01*
X146997425Y-25751914D01*
X147002035Y-25752851D01*
X147006589Y-25753798D01*
X147011105Y-25754757D01*
X147015571Y-25755726D01*
X147020000Y-25756707D01*
X147024384Y-25757699D01*
X147028734Y-25758703D01*
X147033043Y-25759718D01*
X147037319Y-25760747D01*
X147041560Y-25761787D01*
X147045770Y-25762840D01*
X147049950Y-25763906D01*
X147054100Y-25764986D01*
X147058225Y-25766079D01*
X147062322Y-25767186D01*
X147066399Y-25768307D01*
X147070450Y-25769442D01*
X147078496Y-25771759D01*
X147086473Y-25774139D01*
X147094396Y-25776585D01*
X147102277Y-25779102D01*
X147110131Y-25781693D01*
X147117974Y-25784365D01*
X147125819Y-25787121D01*
X147133684Y-25789968D01*
X147141586Y-25792913D01*
X147149543Y-25795964D01*
X147157578Y-25799130D01*
X147165711Y-25802419D01*
X147173970Y-25805845D01*
X147182382Y-25809421D01*
X147190981Y-25813162D01*
X147199805Y-25817087D01*
X147208901Y-25821220D01*
X147218324Y-25825588D01*
X147228143Y-25830227D01*
X147238445Y-25835182D01*
X147249346Y-25840511D01*
X147261003Y-25846297D01*
X147273640Y-25852657D01*
X147287610Y-25859774D01*
X147303512Y-25867962D01*
X147322577Y-25877861D01*
X147352406Y-25893441D01*
X147375149Y-25905326D01*
X147398926Y-25917708D01*
X147411234Y-25924088D01*
X147423841Y-25930596D01*
X147436758Y-25937233D01*
X147450000Y-25944000D01*
X151637000Y-33755000D02*
X151703568Y-33759306D01*
X151770143Y-33763537D01*
X151837250Y-33767726D01*
X151905768Y-33771928D01*
X151977370Y-33776247D01*
X152056098Y-33780927D01*
X152117231Y-33784532D01*
X152203537Y-33789631D01*
X152243100Y-33792002D01*
X152280406Y-33794278D01*
X152315559Y-33796480D01*
X152332360Y-33797558D01*
X152348662Y-33798625D01*
X152364476Y-33799683D01*
X152379817Y-33800734D01*
X152394697Y-33801780D01*
X152409128Y-33802824D01*
X152423124Y-33803869D01*
X152436698Y-33804916D01*
X152449862Y-33805968D01*
X152462629Y-33807027D01*
X152475012Y-33808096D01*
X152487025Y-33809177D01*
X152498679Y-33810273D01*
X152509988Y-33811386D01*
X152520964Y-33812518D01*
X152531621Y-33813671D01*
X152541972Y-33814849D01*
X152552029Y-33816053D01*
X152561804Y-33817285D01*
X152571312Y-33818549D01*
X152580565Y-33819846D01*
X152589575Y-33821180D01*
X152598356Y-33822551D01*
X152606920Y-33823963D01*
X152615281Y-33825418D01*
X152623451Y-33826919D01*
X152627468Y-33827687D01*
X152631443Y-33828467D01*
X152635376Y-33829260D01*
X152639270Y-33830065D01*
X152643125Y-33830884D01*
X152646944Y-33831716D01*
X152650729Y-33832562D01*
X152654480Y-33833422D01*
X152658199Y-33834296D01*
X152661889Y-33835185D01*
X152665550Y-33836088D01*
X152669184Y-33837007D01*
X152672793Y-33837942D01*
X152676379Y-33838892D01*
X152679942Y-33839858D01*
X152683486Y-33840841D01*
X152687010Y-33841840D01*
X152690518Y-33842857D01*
X152694009Y-33843890D01*
X152697487Y-33844942D01*
X152700953Y-33846011D01*
X152704408Y-33847098D01*
X152707854Y-33848204D01*
X152711292Y-33849328D01*
X152718153Y-33851635D01*
X152725003Y-33854020D01*
X152731856Y-33856486D01*
X152738723Y-33859036D01*
X152745619Y-33861671D01*
X152752555Y-33864395D01*
X152759545Y-33867209D01*
X152766602Y-33870116D01*
X152773739Y-33873118D01*
X152780967Y-33876218D01*
X152788301Y-33879417D01*
X152795753Y-33882720D01*
X152803336Y-33886127D01*
X152811063Y-33889641D01*
X152818947Y-33893264D01*
X152827000Y-33897000D01*
X148692000Y-29199000D02*
X148691990Y-29208314D01*
X148691960Y-29217577D01*
X148691911Y-29226807D01*
X148691841Y-29235986D01*
X148691752Y-29245133D01*
X148691644Y-29254229D01*
X148691516Y-29263295D01*
X148691369Y-29272310D01*
X148691202Y-29281295D01*
X148691017Y-29290230D01*
X148690812Y-29299136D01*
X148690589Y-29307992D01*
X148690346Y-29316820D01*
X148690085Y-29325598D01*
X148689505Y-29343052D01*
X148688852Y-29360355D01*
X148688124Y-29377511D01*
X148687323Y-29394522D01*
X148686449Y-29411391D01*
X148685503Y-29428121D01*
X148684485Y-29444714D01*
X148683396Y-29461173D01*
X148682236Y-29477501D01*
X148681006Y-29493702D01*
X148679705Y-29509779D01*
X148678334Y-29525733D01*
X148676894Y-29541570D01*
X148675385Y-29557291D01*
X148673807Y-29572901D01*
X148672160Y-29588403D01*
X148670444Y-29603800D01*
X148668660Y-29619097D01*
X148666807Y-29634297D01*
X148664886Y-29649405D01*
X148662896Y-29664424D01*
X148660837Y-29679359D01*
X148658709Y-29694215D01*
X148656511Y-29708998D01*
X148654244Y-29723711D01*
X148651907Y-29738361D01*
X148649498Y-29752953D01*
X148647018Y-29767494D01*
X148644465Y-29781991D01*
X148641838Y-29796451D01*
X148639136Y-29810883D01*
X148636357Y-29825294D01*
X148633500Y-29839694D01*
X148630563Y-29854094D01*
X148627542Y-29868506D01*
X148624436Y-29882942D01*
X148621241Y-29897419D01*
X148617952Y-29911951D01*
X148614566Y-29926559D01*
X148611076Y-29941266D01*
X148607476Y-29956098D01*
X148603757Y-29971086D01*
X148599909Y-29986268D01*
X148595919Y-30001693D01*
X148591770Y-30017420D01*
X148587440Y-30033527D01*
X148582900Y-30050117D01*
X148578108Y-30067337D01*
X148573001Y-30085402D01*
X148567479Y-30104656D01*
X148561361Y-30125720D01*
X148554247Y-30149952D01*
X148545848Y-30178372D01*
X148540695Y-30195793D01*
X148535621Y-30213003D01*
X148530636Y-30230020D01*
X148525751Y-30246863D01*
X148520978Y-30263548D01*
X148518636Y-30271837D01*
X148516327Y-30280093D01*
X148514050Y-30288319D01*
X148511808Y-30296517D01*
X148509603Y-30304688D01*
X148507434Y-30312836D01*
X148505304Y-30320962D01*
X148503215Y-30329069D01*
X148501167Y-30337159D01*
X148499161Y-30345233D01*
X148497200Y-30353296D01*
X148495284Y-30361347D01*
X148493416Y-30369390D01*
X148491595Y-30377427D01*
X148489824Y-30385461D01*
X148488105Y-30393492D01*
X148486437Y-30401525D01*
X148484823Y-30409560D01*
X148483265Y-30417600D01*
X148481762Y-30425647D01*
X148480318Y-30433704D01*
X148478933Y-30441772D01*
X148477608Y-30449855D01*
X148476345Y-30457953D01*
X148475146Y-30466070D01*
X148474011Y-30474207D01*
X148472942Y-30482367D01*
X148471941Y-30490552D01*
X148471008Y-30498764D01*
X148470145Y-30507006D01*
X148469354Y-30515279D01*
X148468636Y-30523586D01*
X148467992Y-30531930D01*
X148467423Y-30540311D01*
X148467168Y-30544517D01*
X148466931Y-30548733D01*
X148466715Y-30552960D01*
X148466518Y-30557198D01*
X148466341Y-30561447D01*
X148466184Y-30565707D01*
X148466048Y-30569980D01*
X148465931Y-30574264D01*
X148465836Y-30578561D01*
X148465761Y-30582870D01*
X148465707Y-30587193D01*
X148465674Y-30591528D01*
X148465663Y-30595877D01*
X148465673Y-30600240D01*
X148465704Y-30604616D01*
X148465758Y-30609007D01*
X148465833Y-30613413D01*
X148465931Y-30617833D01*
X148466050Y-30622269D01*
X148466193Y-30626720D01*
X148466357Y-30631186D01*
X148466545Y-30635668D01*
X148466756Y-30640167D01*
X148466989Y-30644682D01*
X148467247Y-30649214D01*
X148467527Y-30653763D01*
X148467831Y-30658330D01*
X148468160Y-30662914D01*
X148468512Y-30667516D01*
X148468888Y-30672136D01*
X148469289Y-30676774D01*
X148469714Y-30681431D01*
X148470164Y-30686107D01*
X148470638Y-30690803D01*
X148471138Y-30695518D01*
X148471663Y-30700253D01*
X148472213Y-30705008D01*
X148472789Y-30709783D01*
X148473391Y-30714579D01*
X148474018Y-30719396D01*
X148474671Y-30724234D01*
X148475351Y-30729094D01*
X148476057Y-30733975D01*
X148476790Y-30738879D01*
X148477549Y-30743804D01*
X148478335Y-30748753D01*
X148479149Y-30753724D01*
X148479989Y-30758718D01*
X148480857Y-30763736D01*
X148481753Y-30768778D01*
X148482676Y-30773843D01*
X148483628Y-30778933D01*
X148484607Y-30784048D01*
X148485615Y-30789187D01*
X148486651Y-30794351D01*
X148487715Y-30799541D01*
X148488809Y-30804756D01*
X148489931Y-30809997D01*
X148491083Y-30815264D01*
X148492264Y-30820558D01*
X148493474Y-30825879D01*
X148494714Y-30831227D01*
X148495983Y-30836602D01*
X148497283Y-30842004D01*
X148498613Y-30847435D01*
X148499973Y-30852893D01*
X148501364Y-30858380D01*
X148502785Y-30863896D01*
X148504237Y-30869441D01*
X148505720Y-30875015D01*
X148507235Y-30880618D01*
X148508780Y-30886252D01*
X148510357Y-30891915D01*
X148511966Y-30897609D01*
X148513607Y-30903333D01*
X148515279Y-30909088D01*
X148516984Y-30914875D01*
X148518721Y-30920693D01*
X148520491Y-30926543D01*
X148522294Y-30932424D01*
X148524129Y-30938338D01*
X148525997Y-30944285D01*
X148527899Y-30950264D01*
X148529834Y-30956277D01*
X148531802Y-30962323D01*
X148533805Y-30968403D01*
X148535841Y-30974516D01*
X148537911Y-30980664D01*
X148540015Y-30986847D01*
X148542154Y-30993064D01*
X148544328Y-30999316D01*
X148546536Y-31005604D01*
X148548779Y-31011927D01*
X148551057Y-31018287D01*
X148553370Y-31024682D01*
X148555719Y-31031114D01*
X148558104Y-31037583D01*
X148560524Y-31044088D01*
X148562980Y-31050631D01*
X148565472Y-31057212D01*
X148568001Y-31063830D01*
X148570566Y-31070486D01*
X148573168Y-31077181D01*
X148575806Y-31083915D01*
X148578481Y-31090687D01*
X148581194Y-31097499D01*
X148586731Y-31111241D01*
X148592419Y-31125144D01*
X148598258Y-31139209D01*
X148604251Y-31153438D01*
X148610399Y-31167835D01*
X148616703Y-31182401D01*
X148623164Y-31197138D01*
X148629784Y-31212049D01*
X148636564Y-31227135D01*
X148643505Y-31242400D01*
X148650610Y-31257844D01*
X148657878Y-31273471D01*
X148665313Y-31289283D01*
X148672914Y-31305282D01*
X148680683Y-31321470D01*
X148688623Y-31337849D01*
X148696733Y-31354421D01*
X148705015Y-31371190D01*
X148713472Y-31388156D01*
X148722103Y-31405322D01*
X148730911Y-31422691D01*
X148739897Y-31440265D01*
X148749063Y-31458045D01*
X148758408Y-31476034D01*
X148767936Y-31494235D01*
X148777647Y-31512649D01*
X148787543Y-31531279D01*
X148797625Y-31550127D01*
X148807894Y-31569195D01*
X148818352Y-31588485D01*
X148829000Y-31608000D01*
X146208636Y-26056000D02*
X146209473Y-26055582D01*
X146210293Y-26055149D01*
X146211096Y-26054704D01*
X146211883Y-26054244D01*
X146212653Y-26053771D01*
X146213407Y-26053285D01*
X146214147Y-26052784D01*
X146214871Y-26052270D01*
X146216276Y-26051199D01*
X146217625Y-26050071D01*
X146218920Y-26048884D01*
X146220164Y-26047636D01*
X146221359Y-26046325D01*
X146222507Y-26044948D01*
X146223608Y-26043502D01*
X146224663Y-26041984D01*
X146225675Y-26040389D01*
X146226644Y-26038714D01*
X146227569Y-26036954D01*
X146228453Y-26035104D01*
X146229293Y-26033157D01*
X146230092Y-26031108D01*
X146230847Y-26028949D01*
X146231560Y-26026672D01*
X146232229Y-26024268D01*
X146232853Y-26021727D01*
X146233432Y-26019038D01*
X146233964Y-26016186D01*
X146234449Y-26013156D01*
X146234886Y-26009929D01*
X146235272Y-26006481D01*
X146235607Y-26002783D01*
X146235889Y-25998797D01*
X146236116Y-25994474D01*
X146236287Y-25989744D01*
X146236398Y-25984499D01*
X146236448Y-25978569D01*
X146236430Y-25971626D01*
X146236338Y-25962872D01*
X146236255Y-25956939D01*
X146236119Y-25946779D01*
X146236071Y-25941618D01*
X146236046Y-25936410D01*
X146236053Y-25931159D01*
X146236100Y-25925871D01*
X146236196Y-25920549D01*
X146236349Y-25915198D01*
X146236566Y-25909823D01*
X146236857Y-25904429D01*
X146237032Y-25901726D01*
X146237229Y-25899020D01*
X146237448Y-25896312D01*
X146237690Y-25893601D01*
X146237957Y-25890890D01*
X146238249Y-25888177D01*
X146238568Y-25885465D01*
X146238914Y-25882752D01*
X146239289Y-25880041D01*
X146239694Y-25877332D01*
X146240129Y-25874624D01*
X146240595Y-25871920D01*
X146241095Y-25869218D01*
X146241628Y-25866521D01*
X146242196Y-25863828D01*
X146242799Y-25861140D01*
X146243440Y-25858458D01*
X146244118Y-25855783D01*
X146244835Y-25853114D01*
X146245591Y-25850452D01*
X146246389Y-25847799D01*
X146247229Y-25845154D01*
X146248111Y-25842518D01*
X146249038Y-25839892D01*
X146250009Y-25837276D01*
X146251027Y-25834672D01*
X146252091Y-25832079D01*
X146253204Y-25829498D01*
X146254366Y-25826929D01*
X146255578Y-25824374D01*
X146256841Y-25821833D01*
X146258156Y-25819306D01*
X146259524Y-25816795D01*
X146260947Y-25814299D01*
X146262425Y-25811819D01*
X146263959Y-25809356D01*
X146265551Y-25806910D01*
X146267201Y-25804482D01*
X146268910Y-25802073D01*
X146270680Y-25799683D01*
X146272511Y-25797312D01*
X146274405Y-25794962D01*
X146276362Y-25792633D01*
X146278384Y-25790325D01*
X146280471Y-25788039D01*
X146282625Y-25785776D01*
X146284846Y-25783536D01*
X146287136Y-25781320D01*
X146289496Y-25779128D01*
X146291926Y-25776962D01*
X146294428Y-25774820D01*
X146297003Y-25772705D01*
X146299652Y-25770617D01*
X146302375Y-25768556D01*
X146305174Y-25766523D01*
X146308050Y-25764518D01*
X146311004Y-25762542D01*
X146314037Y-25760596D01*
X146317150Y-25758681D01*
X146320344Y-25756796D01*
X146323620Y-25754942D01*
X146326978Y-25753120D01*
X146330421Y-25751331D01*
X146333949Y-25749575D01*
X146337563Y-25747853D01*
X146341264Y-25746165D01*
X146345054Y-25744512D01*
X146348932Y-25742895D01*
X146352901Y-25741314D01*
X146356961Y-25739769D01*
X146361113Y-25738261D01*
X146365358Y-25736792D01*
X146369698Y-25735360D01*
X146374133Y-25733968D01*
X146378665Y-25732615D01*
X146383294Y-25731303D01*
X146388021Y-25730031D01*
X146392848Y-25728800D01*
X146397775Y-25727612D01*
X146402804Y-25726466D01*
X146407936Y-25725363D01*
X146413171Y-25724303D01*
X146418510Y-25723288D01*
X146423955Y-25722318D01*
X146429507Y-25721393D01*
X146435167Y-25720514D01*
X146440935Y-25719682D01*
X146446813Y-25718897D01*
X146452802Y-25718159D01*
X146458902Y-25717470D01*
X146465116Y-25716830D01*
X146471443Y-25716240D01*
X146477885Y-25715699D01*
X146484443Y-25715209D01*
X146491118Y-25714771D01*
X146497911Y-25714384D01*
X146504822Y-25714050D01*
X146511854Y-25713768D01*
X146519007Y-25713541D01*
X146526282Y-25713367D01*
X146533680Y-25713249D01*
X146541203Y-25713185D01*
X146548850Y-25713178D01*
X146556623Y-25713227D01*
X146564524Y-25713333D01*
X146572553Y-25713497D01*
X146580711Y-25713719D01*
X146589000Y-25714000D01*
X148829000Y-31608000D02*
X148841868Y-31631591D01*
X148854548Y-31655004D01*
X148867042Y-31678239D01*
X148879352Y-31701301D01*
X148891481Y-31724190D01*
X148903430Y-31746911D01*
X148915202Y-31769464D01*
X148926799Y-31791854D01*
X148938224Y-31814082D01*
X148949478Y-31836153D01*
X148960564Y-31858068D01*
X148971484Y-31879831D01*
X148982242Y-31901446D01*
X148992838Y-31922916D01*
X149003277Y-31944244D01*
X149013560Y-31965435D01*
X149023691Y-31986493D01*
X149033672Y-32007421D01*
X149043506Y-32028226D01*
X149053196Y-32048911D01*
X149062746Y-32069482D01*
X149072158Y-32089945D01*
X149081437Y-32110306D01*
X149090585Y-32130572D01*
X149099607Y-32150750D01*
X149108508Y-32170849D01*
X149117291Y-32190878D01*
X149125961Y-32210846D01*
X149134525Y-32230765D01*
X149142987Y-32250648D01*
X149151354Y-32270509D01*
X149159633Y-32290364D01*
X149167834Y-32310233D01*
X149175964Y-32330137D01*
X149184035Y-32350104D01*
X149192060Y-32370166D01*
X149200054Y-32390360D01*
X149208035Y-32410736D01*
X149216029Y-32431354D01*
X149224064Y-32452295D01*
X149232182Y-32473666D01*
X149240438Y-32495620D01*
X149248917Y-32518383D01*
X149257752Y-32542317D01*
X149267182Y-32568076D01*
X149277728Y-32597091D01*
X149290274Y-32631779D01*
X149302595Y-32665839D01*
X149308564Y-32682269D01*
X149314424Y-32698310D01*
X149320189Y-32713972D01*
X149325873Y-32729264D01*
X149331488Y-32744194D01*
X149334275Y-32751527D01*
X149337049Y-32758773D01*
X149339814Y-32765932D01*
X149342570Y-32773007D01*
X149345319Y-32779999D01*
X149348063Y-32786908D01*
X149350804Y-32793736D01*
X149353543Y-32800483D01*
X149356283Y-32807152D01*
X149359024Y-32813743D01*
X149361769Y-32820256D01*
X149364519Y-32826695D01*
X149367276Y-32833058D01*
X149370041Y-32839348D01*
X149372817Y-32845566D01*
X149375605Y-32851713D01*
X149378407Y-32857789D01*
X149381225Y-32863797D01*
X149384059Y-32869737D01*
X149386913Y-32875610D01*
X149389787Y-32881418D01*
X149392683Y-32887161D01*
X149395604Y-32892841D01*
X149398550Y-32898459D01*
X149401524Y-32904016D01*
X149404527Y-32909513D01*
X149407560Y-32914951D01*
X149410627Y-32920331D01*
X149413728Y-32925655D01*
X149416864Y-32930924D01*
X149420039Y-32936138D01*
X149423253Y-32941299D01*
X149426508Y-32946408D01*
X149429806Y-32951467D01*
X149433149Y-32956475D01*
X149436537Y-32961435D01*
X149439974Y-32966347D01*
X149443461Y-32971213D01*
X149446999Y-32976034D01*
X149450590Y-32980810D01*
X149454236Y-32985544D01*
X149457938Y-32990235D01*
X149461699Y-32994886D01*
X149465520Y-32999497D01*
X149469402Y-33004070D01*
X149473348Y-33008606D01*
X149477359Y-33013105D01*
X149481436Y-33017569D01*
X149485583Y-33021999D01*
X149489799Y-33026396D01*
X149494087Y-33030761D01*
X149498449Y-33035096D01*
X149502887Y-33039401D01*
X149507401Y-33043678D01*
X149511995Y-33047928D01*
X149516668Y-33052151D01*
X149521424Y-33056350D01*
X149526264Y-33060525D01*
X149531190Y-33064677D01*
X149536202Y-33068807D01*
X149541304Y-33072917D01*
X149546497Y-33077008D01*
X149551782Y-33081080D01*
X149557161Y-33085135D01*
X149562636Y-33089175D01*
X149568209Y-33093199D01*
X149573881Y-33097210D01*
X149579654Y-33101208D01*
X149585530Y-33105195D01*
X149591510Y-33109171D01*
X149597597Y-33113138D01*
X149603791Y-33117097D01*
X149610095Y-33121049D01*
X149616510Y-33124996D01*
X149623038Y-33128937D01*
X149629681Y-33132875D01*
X149636440Y-33136811D01*
X149643318Y-33140745D01*
X149650315Y-33144679D01*
X149657433Y-33148614D01*
X149664675Y-33152551D01*
X149672042Y-33156491D01*
X149679536Y-33160436D01*
X149687158Y-33164386D01*
X149694910Y-33168342D01*
X149702794Y-33172306D01*
X149710811Y-33176279D01*
X149718964Y-33180262D01*
X149727254Y-33184256D01*
X149735682Y-33188263D01*
X149744250Y-33192282D01*
X149752961Y-33196316D01*
X149761815Y-33200366D01*
X149770815Y-33204432D01*
X149779962Y-33208516D01*
X149789259Y-33212619D01*
X149798705Y-33216742D01*
X149808304Y-33220887D01*
X149818057Y-33225053D01*
X149827966Y-33229244D01*
X149838032Y-33233458D01*
X149848257Y-33237699D01*
X149858644Y-33241966D01*
X149869193Y-33246261D01*
X149879906Y-33250586D01*
X149890785Y-33254940D01*
X149901832Y-33259326D01*
X149913048Y-33263745D01*
X149924436Y-33268197D01*
X149935996Y-33272683D01*
X149947731Y-33277206D01*
X149959642Y-33281765D01*
X149971731Y-33286363D01*
X149984000Y-33291000D01*
D11*
G36*
X153927168Y-35976340D02*
G01*
X153967144Y-35996448D01*
X153992869Y-36019815D01*
X154007594Y-36046599D01*
X154012592Y-36078129D01*
X154007577Y-36109978D01*
X153992827Y-36136959D01*
X153967114Y-36160418D01*
X153927229Y-36180527D01*
X153868644Y-36196549D01*
X153780797Y-36208120D01*
X153654593Y-36212645D01*
X153527526Y-36207883D01*
X153907384Y-35969502D01*
X153927168Y-35976340D01*
G37*
G36*
X153761938Y-35946970D02*
G01*
X153386903Y-36181932D01*
X153382812Y-36180588D01*
X153342927Y-36160450D01*
X153317213Y-36136972D01*
X153302463Y-36109980D01*
X153297449Y-36078129D01*
X153302446Y-36046598D01*
X153317171Y-36019802D01*
X153342896Y-35996416D01*
X153382873Y-35976279D01*
X153441429Y-35960298D01*
X153529426Y-35948744D01*
X153656058Y-35944222D01*
X153761938Y-35946970D01*
G37*
G36*
X153927168Y-35134191D02*
G01*
X153967144Y-35154299D01*
X153992869Y-35177665D01*
X154007594Y-35204450D01*
X154012592Y-35235979D01*
X154007577Y-35267829D01*
X153992827Y-35294810D01*
X153967114Y-35318268D01*
X153927229Y-35338378D01*
X153868644Y-35354400D01*
X153780797Y-35365971D01*
X153654593Y-35370496D01*
X153527526Y-35365733D01*
X153907384Y-35127352D01*
X153927168Y-35134191D01*
G37*
G36*
X153761938Y-35104821D02*
G01*
X153386903Y-35339782D01*
X153382812Y-35338439D01*
X153342927Y-35318301D01*
X153317213Y-35294823D01*
X153302463Y-35267830D01*
X153297449Y-35235979D01*
X153302446Y-35204449D01*
X153317171Y-35177652D01*
X153342896Y-35154267D01*
X153382873Y-35134130D01*
X153441429Y-35118148D01*
X153529426Y-35106595D01*
X153656058Y-35102073D01*
X153761938Y-35104821D01*
G37*
G36*
X154295650Y-37342188D02*
G01*
X153014391Y-37342188D01*
X153014391Y-37011808D01*
X153379515Y-37011808D01*
X153384494Y-37065088D01*
X153398493Y-37109020D01*
X153420861Y-37145488D01*
X153451994Y-37175756D01*
X153488977Y-37198221D01*
X153535806Y-37215532D01*
X153594639Y-37226917D01*
X153668026Y-37231077D01*
X154165000Y-37231077D01*
X154165000Y-37032263D01*
X153698801Y-37032263D01*
X153643072Y-37028968D01*
X153604832Y-37020547D01*
X153579549Y-37008694D01*
X153560074Y-36990335D01*
X153548030Y-36965469D01*
X153543646Y-36931879D01*
X153549016Y-36898505D01*
X153564759Y-36870643D01*
X153592189Y-36846822D01*
X153626019Y-36830495D01*
X153670026Y-36819721D01*
X153726828Y-36815742D01*
X154165000Y-36815742D01*
X154165000Y-36616928D01*
X153399054Y-36616928D01*
X153399054Y-36815742D01*
X153514153Y-36815742D01*
X153473901Y-36833583D01*
X153441115Y-36857629D01*
X153414747Y-36888160D01*
X153395523Y-36923805D01*
X153383659Y-36964624D01*
X153379515Y-37011808D01*
X153014391Y-37011808D01*
X153014391Y-36078068D01*
X153125502Y-36078068D01*
X153125507Y-36078129D01*
X153131189Y-36144740D01*
X153147394Y-36201930D01*
X153150536Y-36207883D01*
X153173497Y-36251379D01*
X153209791Y-36294352D01*
X153257454Y-36331531D01*
X153323606Y-36365081D01*
X153409011Y-36391469D01*
X153517963Y-36409067D01*
X153655387Y-36415550D01*
X153792395Y-36409074D01*
X153901114Y-36391487D01*
X153986426Y-36365100D01*
X154052587Y-36331531D01*
X154100250Y-36294352D01*
X154136544Y-36251379D01*
X154162647Y-36201930D01*
X154178852Y-36144740D01*
X154184539Y-36078068D01*
X154178852Y-36011742D01*
X154162638Y-35954784D01*
X154136496Y-35905466D01*
X154100111Y-35862540D01*
X154052281Y-35825337D01*
X153985934Y-35791739D01*
X153900572Y-35765353D01*
X153791994Y-35747783D01*
X153655387Y-35741318D01*
X153518361Y-35747790D01*
X153409562Y-35765372D01*
X153324129Y-35791759D01*
X153257821Y-35825337D01*
X153209965Y-35862543D01*
X153173563Y-35905472D01*
X153147411Y-35954789D01*
X153131191Y-36011746D01*
X153125502Y-36078068D01*
X153014391Y-36078068D01*
X153014391Y-35235918D01*
X153125502Y-35235918D01*
X153125507Y-35235979D01*
X153131189Y-35302591D01*
X153147394Y-35359780D01*
X153150536Y-35365733D01*
X153173497Y-35409229D01*
X153209791Y-35452202D01*
X153257454Y-35489381D01*
X153323606Y-35522932D01*
X153409011Y-35549320D01*
X153517963Y-35566918D01*
X153655387Y-35573401D01*
X153792395Y-35566925D01*
X153901114Y-35549337D01*
X153986426Y-35522950D01*
X154052587Y-35489381D01*
X154100250Y-35452202D01*
X154136544Y-35409229D01*
X154162647Y-35359780D01*
X154178852Y-35302591D01*
X154184539Y-35235918D01*
X154178852Y-35169593D01*
X154162638Y-35112634D01*
X154136496Y-35063317D01*
X154100111Y-35020391D01*
X154052281Y-34983188D01*
X153985934Y-34949589D01*
X153900572Y-34923204D01*
X153791994Y-34905633D01*
X153655387Y-34899168D01*
X153518361Y-34905641D01*
X153409562Y-34923223D01*
X153324129Y-34949610D01*
X153257821Y-34983188D01*
X153209965Y-35020394D01*
X153173563Y-35063322D01*
X153147411Y-35112640D01*
X153131191Y-35169597D01*
X153125502Y-35235918D01*
X153014391Y-35235918D01*
X153014391Y-34328251D01*
X153145041Y-34328251D01*
X153145041Y-34522912D01*
X153989145Y-34522912D01*
X153989145Y-34748348D01*
X154165000Y-34748348D01*
X154165000Y-34101410D01*
X153989145Y-34101410D01*
X153989145Y-34326846D01*
X153324804Y-34326846D01*
X153379515Y-34117164D01*
X153195844Y-34117164D01*
X153145041Y-34328251D01*
X153014391Y-34328251D01*
X153014391Y-33990299D01*
X154295650Y-33990299D01*
X154295650Y-37342188D01*
G37*
D12*
%TO.C,C56*%
X146208636Y-26462400D02*
X145992964Y-26462400D01*
X146208636Y-27182400D02*
X145992964Y-27182400D01*
%TD*%
M02*
