M48
; DRILL file {KiCad 9.99.0-1168-g72ed3d3f11} date 2025-06-22T12:29:05-0400
; FORMAT={-:-/ absolute / metric / decimal}
; #@! TF.CreationDate,2025-06-22T12:29:05-04:00
; #@! TF.GenerationSoftware,Kicad,Pcbnew,9.99.0-1168-g72ed3d3f11
; #@! TF.FileFunction,Plated,1,2,PTH
FMAT,2
METRIC
; #@! TA.AperFunction,Plated,PTH,ViaDrill
T1C0.350
; #@! TA.AperFunction,Plated,PTH,ComponentDrill
T2C0.700
; #@! TA.AperFunction,Plated,PTH,ComponentDrill
T3C1.000
; #@! TA.AperFunction,Plated,PTH,ComponentDrill
T4C1.200
; #@! TA.AperFunction,Plated,PTH,ComponentDrill
T5C1.500
; #@! TA.AperFunction,Plated,PTH,ComponentDrill
T6C1.700
; #@! TA.AperFunction,Plated,PTH,ComponentDrill
T7C1.800
; #@! TA.AperFunction,Plated,PTH,ComponentDrill
T8C2.200
; #@! TA.AperFunction,Plated,PTH,ComponentDrill
T9C2.500
; #@! TA.AperFunction,Plated,PTH,ComponentDrill
T10C4.000
%
G90
G05
T1
X110.0Y-20.0
X110.0Y-25.0
X110.0Y-35.0
X110.0Y-50.0
X110.0Y-55.0
X110.0Y-60.0
X110.0Y-105.0
X110.0Y-110.0
X110.125Y-30.0
X115.0Y-20.0
X115.0Y-25.0
X115.0Y-75.0
X115.0Y-80.0
X115.0Y-85.0
X115.0Y-90.475
X115.0Y-95.205
X115.0Y-100.0
X115.0Y-105.0
X115.0Y-110.0
X115.125Y-30.0
X119.875Y-45.0
X120.0Y-25.0
X120.0Y-35.0
X120.0Y-40.0
X120.0Y-50.0
X120.0Y-55.0
X120.0Y-60.0
X120.0Y-65.0
X120.0Y-75.0
X120.0Y-85.0
X120.0Y-90.475
X120.0Y-95.205
X120.0Y-100.0
X120.0Y-110.0
X124.875Y-45.0
X125.0Y-35.0
X125.0Y-40.0
X125.0Y-50.0
X125.0Y-55.0
X125.0Y-60.0
X125.0Y-65.0
X125.0Y-70.0
X125.0Y-75.0
X125.0Y-85.0
X125.0Y-90.475
X125.0Y-100.0
X125.0Y-110.0
X125.125Y-30.0
X129.875Y-45.0
X130.0Y-20.0
X130.0Y-35.0
X130.0Y-40.0
X130.0Y-50.0
X130.0Y-55.0
X130.0Y-60.0
X130.0Y-65.0
X130.0Y-75.0
X130.0Y-80.0
X130.0Y-85.0
X130.0Y-95.205
X130.0Y-100.0
X130.0Y-110.0
X130.125Y-30.0
X135.0Y-20.0
X135.0Y-75.0
X135.0Y-80.0
X135.0Y-90.475
X135.0Y-95.205
X135.0Y-100.0
X135.0Y-105.0
X135.0Y-110.0
X135.125Y-30.0
X139.395Y-69.596
X139.875Y-45.0
X140.0Y-35.0
X140.0Y-50.0
X140.0Y-75.0
X140.0Y-85.0
X140.0Y-90.475
X140.0Y-95.205
X140.0Y-100.0
X140.0Y-105.0
X140.0Y-110.0
X142.443Y-62.89
X142.443Y-66.446
X143.256Y-67.462
X143.256Y-73.355
X144.678Y-67.462
X144.678Y-73.355
X144.875Y-45.0
X145.0Y-40.0
X145.0Y-50.0
X145.0Y-80.0
X145.0Y-85.0
X145.0Y-90.475
X145.0Y-95.205
X145.0Y-100.0
X145.0Y-105.0
X145.0Y-110.0
X146.71Y-30.683
X146.71Y-31.699
X146.71Y-32.715
X147.726Y-30.683
X147.726Y-31.699
X147.726Y-32.715
X149.875Y-45.0
X150.0Y-35.0
X150.0Y-75.0
X150.0Y-80.0
X150.0Y-85.0
X150.0Y-95.205
X150.0Y-100.0
X150.0Y-105.0
X150.0Y-110.0
X153.213Y-40.234
X153.213Y-41.046
X154.026Y-40.234
X154.026Y-41.046
X154.838Y-41.046
X155.0Y-25.0
X155.0Y-65.0
X155.0Y-70.0
X155.0Y-75.0
X155.0Y-80.0
X155.0Y-85.0
X155.0Y-90.475
X155.0Y-95.205
X155.0Y-100.0
X155.0Y-105.0
X155.0Y-110.0
X155.651Y-40.234
X155.651Y-41.046
X156.87Y-24.384
X156.87Y-25.197
X156.87Y-29.667
X157.48Y-30.277
X157.683Y-24.384
X157.683Y-25.197
X158.09Y-48.362
X158.09Y-49.174
X158.496Y-24.384
X158.496Y-25.197
X158.902Y-48.362
X158.902Y-49.174
X159.309Y-24.384
X159.309Y-25.197
X159.715Y-48.362
X159.715Y-49.174
X160.0Y-65.0
X160.0Y-75.0
X160.0Y-80.0
X160.0Y-85.0
X160.0Y-90.475
X160.0Y-95.205
X160.0Y-100.0
X160.0Y-110.0
X160.122Y-31.293
X160.528Y-48.362
X160.528Y-49.174
X160.731Y-30.683
X161.341Y-30.074
X161.95Y-29.464
X162.357Y-42.672
X165.0Y-25.0
X165.0Y-65.0
X165.0Y-75.0
X165.0Y-80.0
X165.0Y-85.0
X165.0Y-95.205
X165.0Y-100.0
X165.0Y-110.0
X165.125Y-30.0
X170.0Y-25.0
X170.0Y-75.0
X170.0Y-80.0
X170.0Y-85.0
X170.0Y-95.205
X170.0Y-100.0
X170.0Y-110.0
X170.125Y-30.0
X175.0Y-25.0
X175.0Y-65.0
X175.0Y-70.0
X175.0Y-75.0
X175.0Y-80.0
X175.0Y-90.475
X175.0Y-95.205
X175.0Y-100.0
X175.0Y-105.0
X175.0Y-110.0
X180.0Y-20.0
X180.0Y-25.0
X180.0Y-35.0
X180.0Y-40.0
X180.0Y-85.0
X180.0Y-90.475
X180.0Y-95.205
X180.0Y-100.0
X180.0Y-105.0
X180.0Y-110.0
X180.125Y-30.0
T2
X139.862Y-59.741
X139.862Y-61.011
X139.862Y-62.281
X139.862Y-63.551
X139.862Y-64.821
X141.122Y-59.741
X141.122Y-61.011
X141.122Y-62.281
X141.122Y-63.551
X141.122Y-64.821
T3
X138.9Y-55.5
X141.2Y-89.205
X141.44Y-55.5
X143.98Y-55.5
X146.52Y-55.5
X148.8Y-89.205
X149.06Y-55.5
X151.6Y-55.5
X154.14Y-55.5
X156.68Y-55.5
X159.22Y-55.5
X161.76Y-55.5
X164.3Y-55.5
X166.84Y-55.5
X169.38Y-55.5
X171.92Y-55.5
X174.46Y-55.5
X177.0Y-55.5
T4
X122.5Y-63.0
X122.5Y-77.5
X125.0Y-77.5
X127.5Y-63.0
X127.5Y-77.5
X162.5Y-63.0
X162.5Y-77.5
X165.0Y-77.5
X167.5Y-63.0
X167.5Y-77.5
T5
X121.82Y-102.46
X128.17Y-99.92
X161.19Y-102.46
X167.54Y-99.92
T6
X120.55Y-105.0
X130.71Y-105.0
X159.92Y-105.0
X170.08Y-105.0
T8
X108.0Y-18.0
X108.0Y-112.0
X182.0Y-18.0
X182.0Y-112.0
T10
X125.63Y-105.0
X165.0Y-105.0
T7
G00X119.0Y-69.5
M15
G01X119.0Y-70.5
M16
G05
G00X131.0Y-69.5
M15
G01X131.0Y-70.5
M16
G05
G00X159.0Y-69.5
M15
G01X159.0Y-70.5
M16
G05
G00X171.0Y-69.5
M15
G01X171.0Y-70.5
M16
G05
T9
G00X107.5Y-24.562
M15
G01X107.5Y-24.438
M16
G05
G00X107.5Y-55.562
M15
G01X107.5Y-55.438
M16
G05
G00X182.5Y-24.562
M15
G01X182.5Y-24.438
M16
G05
G00X182.5Y-55.562
M15
G01X182.5Y-55.438
M16
G05
M30
